<svg xmlns="http://www.w3.org/2000/svg" width="470" height="110" version="1.0">
  <path fill="#f1fa8c" stroke="#f8f8f2" d="M9.5 1022.862h20v20h-20z" color="#f8f8f2" overflow="visible" style="marker:none" transform="translate(35.5 -937.862)"/>
  <path fill="#282a36" stroke="#f8f8f2" d="M9.5 1002.862h20v20h-20zm0-20h20v20h-20zm0-20h20v20h-20zm0-20h20v20h-20z" color="#f8f8f2" overflow="visible" style="marker:none" transform="translate(35.5 -937.862)"/>
  <path fill="#f1fa8c" stroke="#f8f8f2" d="M49.5 1022.862h20v20h-20z" color="#f8f8f2" overflow="visible" style="marker:none" transform="translate(35.5 -937.862)"/>
  <path fill="#282a36" stroke="#f8f8f2" d="M49.5 1002.862h20v20h-20z" color="#f8f8f2" overflow="visible" style="marker:none" transform="translate(35.5 -937.862)"/>
  <path fill="#f1fa8c" stroke="#f8f8f2" d="M89.5 1022.862h20v20h-20z" color="#f8f8f2" overflow="visible" style="marker:none" transform="translate(35.5 -937.862)"/>
  <path fill="#282a36" stroke="#f8f8f2" d="M89.5 1002.862h20v20h-20zm0-20h20v20h-20z" color="#f8f8f2" overflow="visible" style="marker:none" transform="translate(35.5 -937.862)"/>
  <path fill="#f1fa8c" stroke="#f8f8f2" d="M129.5 1022.862h20v20h-20z" color="#f8f8f2" overflow="visible" style="marker:none" transform="translate(35.5 -937.862)"/>
  <path fill="#282a36" stroke="#f8f8f2" d="M129.5 1002.862h20v20h-20zm0-20h20v20h-20zm0-20h20v20h-20z" color="#f8f8f2" overflow="visible" style="marker:none" transform="translate(35.5 -937.862)"/>
  <path fill="#f1fa8c" stroke="#f8f8f2" d="M169.5 1022.862h20v20h-20z" color="#f8f8f2" overflow="visible" style="marker:none" transform="translate(35.5 -937.862)"/>
  <path fill="#282a36" stroke="#f8f8f2" d="M169.5 1002.862h20v20h-20z" color="#f8f8f2" overflow="visible" style="marker:none" transform="translate(35.5 -937.862)"/>
  <path fill="#f1fa8c" stroke="#f8f8f2" d="M209.5 1022.86h20v20h-20z" color="#f8f8f2" overflow="visible" style="marker:none" transform="translate(35.5 -937.862)"/>
  <path fill="#282a36" stroke="#f8f8f2" d="M209.5 1002.86h20v20h-20zm0-20h20v20h-20zm0-20h20v20h-20z" color="#f8f8f2" overflow="visible" style="marker:none" transform="translate(35.5 -937.862)"/>
  <path fill="#f1fa8c" stroke="#f8f8f2" d="M249.5 1022.86h20v20h-20z" color="#f8f8f2" overflow="visible" style="marker:none" transform="translate(35.5 -937.862)"/>
  <path fill="#282a36" stroke="#f8f8f2" d="M249.5 1002.86h20v20h-20z" color="#f8f8f2" overflow="visible" style="marker:none" transform="translate(35.5 -937.862)"/>
  <path fill="#f1fa8c" stroke="#f8f8f2" d="M289.5 1022.86h20v20h-20z" color="#f8f8f2" overflow="visible" style="marker:none" transform="translate(35.5 -937.862)"/>
  <path fill="#282a36" stroke="#f8f8f2" d="M289.5 1002.86h20v20h-20z" color="#f8f8f2" overflow="visible" style="marker:none" transform="translate(35.5 -937.862)"/>
  <path fill="#f1fa8c" stroke="#f8f8f2" d="M329.5 1022.86h20v20h-20z" color="#f8f8f2" overflow="visible" style="marker:none" transform="translate(35.5 -937.862)"/>
  <path fill="#282a36" stroke="#f8f8f2" d="M329.5 1002.86h20v20h-20zm0-20h20v20h-20z" color="#f8f8f2" overflow="visible" style="marker:none" transform="translate(35.5 -937.862)"/>
  <path fill="#f1fa8c" stroke="#f8f8f2" d="M369.5 1022.86h20v20h-20z" color="#f8f8f2" overflow="visible" style="marker:none" transform="translate(35.5 -937.862)"/>
  <path fill="#282a36" stroke="#f8f8f2" d="M369.5 1002.86h20v20h-20z" color="#f8f8f2" overflow="visible" style="marker:none" transform="translate(35.5 -937.862)"/>
  <text xml:space="preserve" x="15.648" y="1038.612" font-family="Arial" font-size="16" font-weight="400" style="text-align:start;line-height:100%" transform="translate(35.5 -937.862)"><tspan x="15.648" y="1038.612">1</tspan></text>
  <text xml:space="preserve" x="55.238" y="1038.612" font-family="Arial" font-size="16" font-weight="400" style="text-align:start;line-height:100%" transform="translate(35.5 -937.862)"><tspan x="55.238" y="1038.612">2</tspan></text>
  <text xml:space="preserve" x="95.078" y="1038.511" font-family="Arial" font-size="16" font-weight="400" style="text-align:start;line-height:100%" transform="translate(35.5 -937.862)"><tspan x="95.078" y="1038.511">3</tspan></text>
  <text xml:space="preserve" x="135.336" y="1038.589" font-family="Arial" font-size="16" font-weight="400" style="text-align:start;line-height:100%" transform="translate(35.5 -937.862)"><tspan x="135.336" y="1038.589">4</tspan></text>
  <text xml:space="preserve" x="175.039" y="1038.413" font-family="Arial" font-size="16" font-weight="400" style="text-align:start;line-height:100%" transform="translate(35.5 -937.862)"><tspan x="175.039" y="1038.413">5</tspan></text>
  <text xml:space="preserve" x="215.117" y="1038.512" font-family="Arial" font-size="16" font-weight="400" style="text-align:start;line-height:100%" transform="translate(35.5 -937.862)"><tspan x="215.117" y="1038.512">6</tspan></text>
  <text xml:space="preserve" x="255.035" y="1038.512" font-family="Arial" font-size="16" font-weight="400" style="text-align:start;line-height:100%" transform="translate(35.5 -937.862)"><tspan x="255.035" y="1038.512">7</tspan></text>
  <text xml:space="preserve" x="295.078" y="1038.512" font-family="Arial" font-size="16" font-weight="400" style="text-align:start;line-height:100%" transform="translate(35.5 -937.862)"><tspan x="295.078" y="1038.512">8</tspan></text>
  <text xml:space="preserve" x="335.07" y="1038.512" font-family="Arial" font-size="16" font-weight="400" style="text-align:start;line-height:100%" transform="translate(35.5 -937.862)"><tspan x="335.07" y="1038.512">9</tspan></text>
  <text xml:space="preserve" x="370.109" y="1038.512" font-family="Arial" font-size="16" font-weight="400" style="text-align:start;line-height:100%" transform="translate(35.5 -937.862)"><tspan x="370.109" y="1038.512">10</tspan></text>
  <g>
    <path d="M55.031 74.513v1H84v-1H55.031z"/>
    <path stroke="#f8f8f2" color="#f8f8f2" stroke-width=".4pt" d="M57.005 74.998a2 2 0 1 1-4.001-.002 2 2 0 0 1 4.001.002z"/>
    <path d="m73.31 70.56 12.018 4.42-12.019 4.42c1.92-2.61 1.91-6.18 0-8.84z" font-size="12"/>
  </g>
  <g>
    <path d="M55 54.513v1h70v-1H55z"/>
    <path stroke="#f8f8f2" color="#f8f8f2" stroke-width=".4pt" d="M56.96 54.998a2 2 0 1 1-4.001-.002 2 2 0 0 1 4.001.002z"/>
    <path d="m114.31 50.56 12.018 4.42-12.018 4.42c1.92-2.61 1.909-6.18 0-8.84z" font-size="12"/>
  </g>
  <g>
    <path d="M55 34.513v1h110v-1H55z"/>
    <path stroke="#f8f8f2" color="#f8f8f2" stroke-width=".4pt" d="M56.96 34.998a2 2 0 1 1-4.001-.002 2 2 0 0 1 4.001.002z"/>
    <path d="m154.31 30.56 12.018 4.42-12.018 4.42c1.92-2.61 1.909-6.18 0-8.84z" font-size="12"/>
  </g>
  <g>
    <path d="M95 74.513v1h30v-1H95z"/>
    <path stroke="#f8f8f2" color="#f8f8f2" stroke-width=".4pt" d="M96.96 74.998a2 2 0 1 1-4.001-.002 2 2 0 0 1 4.001.002z"/>
    <path d="m114.31 70.56 12.018 4.42-12.018 4.42c1.92-2.61 1.909-6.18 0-8.84z" font-size="12"/>
  </g>
  <g>
    <path stroke="#f8f8f2" color="#f8f8f2" d="M135 74.513v1h30v-1h-30z"/>
    <path stroke="#f8f8f2" color="#f8f8f2" stroke-width=".4pt" d="M136.96 74.998a2 2 0 1 1-4.001-.002 2 2 0 0 1 4.001.002z"/>
    <path d="m154.31 70.56 12.018 4.42-12.018 4.42c1.92-2.61 1.909-6.18 0-8.84z" font-size="12"/>
  </g>
  <g fill-rule="evenodd">
    <path d="M175 74.513v1h30v-1h-30z"/>
    <path stroke="#f8f8f2" color="#f8f8f2" stroke-width=".4pt" d="M176.96 74.998a2 2 0 1 1-4.001-.002 2 2 0 0 1 4.001.002z"/>
    <path d="m194.31 70.56 12.018 4.42-12.018 4.42c1.92-2.61 1.909-6.18 0-8.84z" font-size="12"/>
  </g>
  <g fill-rule="evenodd">
    <path d="M215 74.513v1h30v-1h-30z"/>
    <path stroke="#f8f8f2" color="#f8f8f2" stroke-width=".4pt" d="M216.96 74.998a2 2 0 1 1-4.001-.002 2 2 0 0 1 4.001.002z"/>
    <path d="m234.31 70.56 12.018 4.42-12.018 4.42c1.92-2.61 1.909-6.18 0-8.84z" font-size="12"/>
  </g>
  <g fill-rule="evenodd">
    <path d="M255 74.513v1h30v-1h-30z"/>
    <path stroke="#f8f8f2" color="#f8f8f2" stroke-width=".4pt" d="M256.96 74.998a2 2 0 1 1-4.001-.002 2 2 0 0 1 4.001.002z"/>
    <path d="m274.31 70.56 12.018 4.42-12.018 4.42c1.92-2.61 1.909-6.18 0-8.84z" font-size="12"/>
  </g>
  <g fill-rule="evenodd">
    <path d="M295 74.513v1h30v-1h-30z"/>
    <path stroke="#f8f8f2" color="#f8f8f2" stroke-width=".4pt" d="M296.96 74.998a2 2 0 1 1-4.001-.002 2 2 0 0 1 4.001.002z"/>
    <path d="m314.31 70.56 12.018 4.42-12.018 4.42c1.92-2.61 1.909-6.18 0-8.84z" font-size="12"/>
  </g>
  <g fill-rule="evenodd">
    <path d="M335 74.513v1h30v-1h-30z"/>
    <path stroke="#f8f8f2" color="#f8f8f2" stroke-width=".4pt" d="M336.96 74.998a2 2 0 1 1-4.001-.002 2 2 0 0 1 4.001.002z"/>
    <path d="m354.31 70.56 12.018 4.42-12.018 4.42c1.92-2.61 1.909-6.18 0-8.84z" font-size="12"/>
  </g>
  <g fill-rule="evenodd">
    <path d="M375 74.513v1h30v-1h-30z"/>
    <path stroke="#f8f8f2" color="#f8f8f2" stroke-width=".4pt" d="M376.96 74.998a2 2 0 1 1-4.001-.002 2 2 0 0 1 4.001.002z"/>
    <path d="m394.31 70.56 12.018 4.42-12.018 4.42c1.92-2.61 1.909-6.18 0-8.84z" font-size="12"/>
  </g>
  <g fill-rule="evenodd">
    <path d="M255 54.513v1h110v-1H255z"/>
    <path stroke="#f8f8f2" color="#f8f8f2" stroke-width=".4pt" d="M256.96 54.998a2 2 0 1 1-4.001-.002 2 2 0 0 1 4.001.002z"/>
    <path d="m354.31 50.56 12.018 4.42-12.018 4.42c1.92-2.61 1.909-6.18 0-8.84z" font-size="12"/>
  </g>
  <g fill-rule="evenodd">
    <path d="M135 54.513v1h30v-1h-30z"/>
    <path stroke="#f8f8f2" color="#f8f8f2" stroke-width=".4pt" d="M136.96 54.998a2 2 0 1 1-4.001-.002 2 2 0 0 1 4.001.002z"/>
    <path d="m154.31 50.56 12.018 4.42-12.018 4.42c1.92-2.61 1.909-6.18 0-8.84z" font-size="12"/>
  </g>
  <g fill-rule="evenodd">
    <path d="M175 54.513v1h70v-1h-70z"/>
    <path stroke="#f8f8f2" color="#f8f8f2" stroke-width=".4pt" d="M176.96 54.998a2 2 0 1 1-4.001-.002 2 2 0 0 1 4.001.002z"/>
    <path d="m234.31 50.56 12.018 4.42-12.018 4.42c1.92-2.61 1.909-6.18 0-8.84z" font-size="12"/>
  </g>
  <g fill-rule="evenodd">
    <path d="M175 34.513v1h70v-1h-70z"/>
    <path stroke="#f8f8f2" color="#f8f8f2" stroke-width=".4pt" d="M176.96 34.998a2 2 0 1 1-4.001-.002 2 2 0 0 1 4.001.002z"/>
    <path d="m234.31 30.56 12.018 4.42-12.018 4.42c1.92-2.61 1.909-6.18 0-8.84z" font-size="12"/>
  </g>
  <path fill="#282a36" stroke="#f8f8f2" color="#f8f8f2" d="M409.5 942.862h20v20h-20z" overflow="visible" style="marker:none" transform="translate(35.5 -937.862)"/>
  <g fill-rule="evenodd">
    <path d="M375 54.5v1h70v-1h-70z"/>
    <path stroke="#f8f8f2" color="#f8f8f2" stroke-width=".4pt" d="M376.96 55a2 2 0 1 1-4.001-.001 2 2 0 0 1 4.001.001z"/>
    <path d="m434.31 50.563 12.018 4.42-12.018 4.419c1.92-2.61 1.909-6.18 0-8.84z" font-size="12"/>
  </g>
  <g fill-rule="evenodd">
    <path d="M415 74.5v1h30v-1h-30z"/>
    <path stroke="#f8f8f2" color="#f8f8f2" stroke-width=".4pt" d="M416.96 75a2 2 0 1 1-4.001-.001 2 2 0 0 1 4.001.001z"/>
    <path d="m434.31 70.563 12.018 4.42-12.018 4.419c1.92-2.61 1.909-6.18 0-8.84z" font-size="12"/>
  </g>
  <g fill-rule="evenodd">
    <path d="M55 14.5v1h390v-1H55z"/>
    <path stroke="#f8f8f2" color="#f8f8f2" stroke-width=".4pt" d="M56.96 15a2 2 0 1 1-4.001-.001A2 2 0 0 1 56.96 15z"/>
    <path d="m434.31 10.563 12.018 4.42-12.018 4.419c1.92-2.61 1.909-6.18 0-8.84z" font-size="12"/>
  </g>
  <g fill-rule="evenodd">
    <path d="M255 34.5v1h190v-1H255z"/>
    <path stroke="#f8f8f2" color="#f8f8f2" stroke-width=".4pt" d="M256.96 35a2 2 0 1 1-4.001-.001 2 2 0 0 1 4.001.001z"/>
    <path d="m434.31 30.563 12.018 4.42-12.018 4.419c1.92-2.61 1.909-6.18 0-8.84z" font-size="12"/>
  </g>
  <path fill="#282a36" stroke="#f8f8f2" color="#f8f8f2" d="M-30.5 942.862h20v20h-20zm0 20h20v20h-20zm0 20h20v20h-20zm0 20h20v20h-20z" overflow="visible" style="marker:none" transform="translate(35.5 -937.862)"/>
  <text xml:space="preserve" x="-32.708" y="1036.735" font-family="Arial" font-size="11" font-weight="400" style="text-align:start;line-height:100%" transform="translate(35.5 -937.862)"><tspan x="-32.708" y="1036.735">head</tspan></text>
  <text xml:space="preserve" x="411.517" y="956.441" font-family="Arial" font-size="10" font-weight="400" style="text-align:start;line-height:100%" transform="translate(35.5 -937.862)"><tspan x="411.517" y="956.441">NIL</tspan></text>
  <path fill="#282a36" stroke="#f8f8f2" color="#f8f8f2" d="M409.5 962.862h20v20h-20z" overflow="visible" style="marker:none" transform="translate(35.5 -937.862)"/>
  <text xml:space="preserve" x="411.517" y="976.441" font-family="Arial" font-size="10" font-weight="400" style="text-align:start;line-height:100%" transform="translate(35.5 -937.862)"><tspan x="411.517" y="976.441">NIL</tspan></text>
  <path fill="#282a36" stroke="#f8f8f2" color="#f8f8f2" d="M409.5 982.862h20v20h-20z" overflow="visible" style="marker:none" transform="translate(35.5 -937.862)"/>
  <text xml:space="preserve" x="411.517" y="996.441" font-family="Arial" font-size="10" font-weight="400" style="text-align:start;line-height:100%" transform="translate(35.5 -937.862)"><tspan x="411.517" y="996.441">NIL</tspan></text>
  <path fill="#282a36" stroke="#f8f8f2" color="#f8f8f2" d="M409.5 1002.862h20v20h-20z" overflow="visible" style="marker:none" transform="translate(35.5 -937.862)"/>
  <text xml:space="preserve" x="411.517" y="1016.441" font-family="Arial" font-size="10" font-weight="400" style="text-align:start;line-height:100%" transform="translate(35.5 -937.862)"><tspan x="411.517" y="1016.441">NIL</tspan></text>
  <g fill-rule="evenodd">
    <path d="M14.704 75.113v1h28.968v-1H14.704z"/>
    <path stroke="#f8f8f2" color="#f8f8f2" stroke-width=".4pt" d="M16.677 75.598a2 2 0 1 1-4.001-.001 2 2 0 0 1 4.001.001z"/>
    <path d="M32.982 71.161 45 75.581 32.982 80c1.92-2.61 1.909-6.18 0-8.839z" font-size="12"/>
  </g>
  <g fill-rule="evenodd">
    <path d="M14.704 53.952v1h28.968v-1H14.704z"/>
    <path stroke="#f8f8f2" color="#f8f8f2" stroke-width=".4pt" d="M16.677 54.437a2 2 0 1 1-4.001-.001 2 2 0 0 1 4.001.001z"/>
    <path d="M32.982 50 45 54.42l-12.018 4.419c1.92-2.61 1.909-6.18 0-8.839z" font-size="12"/>
  </g>
  <g fill-rule="evenodd">
    <path d="M14.704 35.113v1h28.968v-1H14.704z"/>
    <path stroke="#f8f8f2" color="#f8f8f2" stroke-width=".4pt" d="M16.677 35.598a2 2 0 1 1-4.001-.001 2 2 0 0 1 4.001.001z"/>
    <path d="M32.982 31.161 45 35.581 32.982 40c1.92-2.61 1.909-6.18 0-8.839z" font-size="12"/>
  </g>
  <g fill-rule="evenodd">
    <path d="M14.704 15.113v1h28.968v-1H14.704z"/>
    <path stroke="#f8f8f2" color="#f8f8f2" stroke-width=".4pt" d="M16.677 15.598a2 2 0 1 1-4.001-.001 2 2 0 0 1 4.001.001z"/>
    <path d="M32.982 11.161 45 15.581 32.982 20c1.92-2.61 1.909-6.18 0-8.839z" font-size="12"/>
  </g>
</svg>
