<svg xmlns="http://www.w3.org/2000/svg" width="600" height="400" viewBox="0 0 600 400"><g fill="none" stroke="#ccc"><path d="M38.5 346.8h523m-523-161.3h523M38.5 24.2h523M38.5 346V25m87.2 321V25m87.1 321V25M300 346V25m87.2 321V25m87.1 321V25m87.2 321V25"/><path stroke-width="2" d="M300 346.8h-12m12-161.3h-12m12-161.3h-12M38.5 346v-14m87.2 14v-14m87.1 14v-14m87.2 14v-14m87.2 14v-14m87.1 14v-14m87.2 14v-14M300 346V25M38.5 346h523"/></g><g fill="#ccc" stroke="none" font-family="Deja Vu Sans,Lucida Sans" font-size="24"><g text-anchor="end"><text y="192.2" transform="translate(287)">0.5</text><text y="30.9" transform="translate(287)">1</text></g><g text-anchor="middle"><text x="38.5" transform="translate(0 379.7)">−6</text><text x="125.7" transform="translate(0 379.7)">−4</text><text x="212.8" transform="translate(0 379.7)">−2</text><text x="300" transform="translate(0 379.7)">0</text><text x="387.2" transform="translate(0 379.7)">2</text><text x="474.3" transform="translate(0 379.7)">4</text><text x="561.5" transform="translate(0 379.7)">6</text></g></g><path fill="none" stroke="#3085ee" stroke-width="2" d="m-132 93 24.2-.6 13.2-.4 13.2-.7 13.2-.8 13.2-1.1 13.2-1.5 13.2-2 13.2-2.7 13.2-3.5L11 75l13.2-6c4.5-2.3 8.9-4.9 13.2-7.7 4.5-3 8.9-6.3 13.2-9.8 4.5-3.8 8.9-7.9 13.2-12.2 4.5-4.7 8.9-9.6 13.2-14.9 4.5-5.5 8.9-11.4 13.2-17.5L103.4-13l13.2-21.9L129.8-58l8.8-15.5 13.2-22.8 13.2-21.3 13.2-19.2c4.3-5.8 8.7-11.4 13.2-16.6 4.3-5 8.7-9.6 13.2-14 4.3-4.1 8.7-7.9 13.2-11.3 4.3-3.4 8.7-6.4 13.2-9.1 4.3-2.7 8.8-5 13.2-7.2l13.2-5.5 13.2-4.2 13.2-3.2 13.2-2.4 13.2-1.9 13.2-1.3 13.2-1.1 13.2-.7 13.2-.6 11-.3 19.8-.5" transform="matrix(.995 0 0 1.038 168.6 249.5)"/></svg>