<svg xmlns="http://www.w3.org/2000/svg" xmlns:xlink="http://www.w3.org/1999/xlink" width="800" height="200" version="1.2" viewBox="0 0 600 150">
  <defs>
    <path id="h" fill="none" stroke="#fff" stroke-linecap="round" stroke-linejoin="miter" stroke-miterlimit="4" stroke-opacity="1" stroke-width="1" d="M4.002 0h22.006"/>
    <path id="j" fill="none" stroke="#fff" stroke-linecap="butt" stroke-linejoin="round" stroke-miterlimit="4" stroke-opacity="1" stroke-width="1" d="M.502-1.502h3v3.004h-3Zm0 0"/>
    <path id="m" fill="none" stroke="#fff" stroke-linecap="butt" stroke-linejoin="round" stroke-miterlimit="4" stroke-opacity="1" stroke-width="1" d="M.502-1.498h3V1.5h-3Zm0 0"/>
    <path id="o" fill="none" stroke="#fff" stroke-linecap="butt" stroke-linejoin="round" stroke-miterlimit="4" stroke-opacity="1" stroke-width="1" d="M.502-1.498h3v3h-3Zm0 0"/>
    <path id="q" fill="none" stroke="#fff" stroke-linecap="round" stroke-linejoin="miter" stroke-miterlimit="4" stroke-opacity="1" stroke-width="1" d="M4.002.002h22.006"/>
    <path id="r" fill="none" stroke="#fff" stroke-linecap="butt" stroke-linejoin="round" stroke-miterlimit="4" stroke-opacity="1" stroke-width="1" d="M.502-1.5h3v2.999h-3Zm0 0"/>
    <path id="v" fill="none" stroke="#fff" stroke-linecap="round" stroke-linejoin="miter" stroke-miterlimit="4" stroke-opacity="1" stroke-width="1" d="M4.002.001h22.006"/>
    <path id="w" fill="none" stroke="#fff" stroke-linecap="butt" stroke-linejoin="round" stroke-miterlimit="4" stroke-opacity="1" stroke-width="1" d="M.502-1.5h3v2.998h-3Zm0 0"/>
    <path id="x" fill="none" stroke="#fff" stroke-linecap="butt" stroke-linejoin="round" stroke-miterlimit="4" stroke-opacity="1" stroke-width="1" d="M.502-1.502h3v3h-3Zm0 0"/>
  </defs>
  <defs>
    <symbol id="a" overflow="visible">
      <path stroke="none" d="M5.906-11.86c.926 0 1.696.188 2.313.563a4.198 4.198 0 0 1 1.469 1.469v-5.875h1.968v11.312c0 .387.016.961.047 1.72.04.75.16 1.64.36 2.671h-1.86l-.515-1.766a4.254 4.254 0 0 1-1.47 1.5c-.616.364-1.386.547-2.312.547A4.697 4.697 0 0 1 4-.125a4.806 4.806 0 0 1-1.61-1.188c-.449-.519-.812-1.156-1.093-1.906C1.023-3.969.89-4.82.89-5.78c0-.957.132-1.813.406-2.563.281-.758.644-1.394 1.094-1.906.457-.52.992-.914 1.609-1.188a4.529 4.529 0 0 1 1.906-.421ZM3.11-5.78c0 1.398.301 2.476.907 3.234.601.762 1.406 1.14 2.406 1.14 1 0 1.8-.378 2.406-1.14.602-.758.906-1.836.906-3.234 0-1.395-.304-2.473-.906-3.235-.605-.757-1.406-1.14-2.406-1.14-1 0-1.805.383-2.406 1.14-.606.762-.907 1.84-.907 3.235Zm0 0"/>
    </symbol>
    <symbol id="b" overflow="visible">
      <path stroke="none" d="M6.563-11.86c.925 0 1.738.188 2.437.563.707.367 1.29.856 1.75 1.469a6.01 6.01 0 0 1 1.016 2.11c.218.792.296 1.6.234 2.421H3.016c.03.742.164 1.36.406 1.86.238.492.535.882.89 1.171.352.293.735.5 1.141.625s.79.188 1.156.188c.657 0 1.207-.098 1.657-.297.445-.207.8-.492 1.062-.86l1.906.563c-.418.688-1.023 1.25-1.812 1.688-.781.425-1.719.64-2.813.64-.906 0-1.718-.156-2.437-.469a5.18 5.18 0 0 1-1.797-1.28 5.499 5.499 0 0 1-1.11-1.938 7.452 7.452 0 0 1-.374-2.406c0-.926.144-1.758.437-2.5.29-.75.692-1.383 1.203-1.907a5.287 5.287 0 0 1 1.797-1.203 5.699 5.699 0 0 1 2.234-.437Zm3.343 5c0-.413-.078-.82-.234-1.218A3.248 3.248 0 0 0 9-9.125a3.33 3.33 0 0 0-1.047-.75 3.287 3.287 0 0 0-1.39-.281c-.438 0-.868.062-1.282.187-.406.125-.765.32-1.078.578a3.13 3.13 0 0 0-.781 1.016c-.211.406-.34.914-.39 1.516Zm0 0"/>
    </symbol>
    <symbol id="e" overflow="visible">
      <path stroke="none" d="M5.828-11.86c.945 0 1.711.188 2.297.563a4.34 4.34 0 0 1 1.422 1.469l.547-1.828h1.422V-1.11c0 .586-.024 1.132-.063 1.656a4.46 4.46 0 0 1-.328 1.469 3.49 3.49 0 0 1-.86 1.203c-.386.363-.917.672-1.593.922a5.338 5.338 0 0 1-1.047.28 7.243 7.243 0 0 1-1.188.095c-.468 0-.945-.055-1.421-.157a5.076 5.076 0 0 1-1.329-.484 4.029 4.029 0 0 1-1.078-.844 3.348 3.348 0 0 1-.703-1.25l1.969-.531c.113.313.266.563.453.75.188.195.395.352.625.469.238.113.488.191.75.234a3.824 3.824 0 0 0 1.531 0 6.97 6.97 0 0 0 .532-.11c.351-.124.644-.277.875-.452a1.88 1.88 0 0 0 .53-.657c.134-.25.227-.554.282-.906.063-.355.094-.765.094-1.234v-1.547A4.327 4.327 0 0 1 8.125-.75c-.586.355-1.352.531-2.297.531a4.806 4.806 0 0 1-1.86-.375 4.533 4.533 0 0 1-1.577-1.11c-.45-.5-.813-1.109-1.094-1.827C1.023-4.25.89-5.078.89-6.016c0-.945.132-1.78.406-2.5.281-.718.644-1.32 1.094-1.812.457-.5.984-.879 1.578-1.14a4.685 4.685 0 0 1 1.86-.391ZM3.031-6.015c0 1.336.305 2.36.922 3.079.613.718 1.406 1.078 2.375 1.078.438 0 .852-.079 1.25-.235a2.609 2.609 0 0 0 1.047-.734c.3-.344.54-.774.719-1.297.187-.531.281-1.16.281-1.89 0-.739-.094-1.368-.281-1.891-.18-.532-.418-.957-.719-1.282a2.648 2.648 0 0 0-1.047-.734 3.383 3.383 0 0 0-1.25-.234c-.969 0-1.762.36-2.375 1.078-.617.71-.922 1.73-.922 3.062Zm0 0"/>
    </symbol>
    <symbol id="f" overflow="visible">
      <path stroke="none" d="M2.64-3.344c.094.344.235.649.422.906.196.25.43.454.704.61.28.156.578.273.89.344.313.062.633.093.969.093.344 0 .676-.035 1-.109a3.21 3.21 0 0 0 .89-.36c.258-.156.47-.335.626-.546a1.21 1.21 0 0 0 .234-.719c0-.531-.188-.93-.563-1.203-.367-.27-.824-.477-1.375-.625a19.084 19.084 0 0 0-1.765-.375 8.422 8.422 0 0 1-1.781-.516 3.497 3.497 0 0 1-1.375-.984C1.148-7.266.969-7.863.969-8.625c0-.52.125-.984.375-1.39a3.358 3.358 0 0 1 1.015-1.016 4.483 4.483 0 0 1 1.438-.625 6.384 6.384 0 0 1 1.656-.219c.926 0 1.797.195 2.61.578A3.55 3.55 0 0 1 9.828-9.5l-1.86.688c-.198-.477-.554-.829-1.062-1.047a3.9 3.9 0 0 0-1.593-.344c-.293 0-.586.039-.875.11a2.67 2.67 0 0 0-.75.28c-.22.126-.399.29-.532.485-.125.2-.187.422-.187.672 0 .469.18.812.547 1.031.363.219.82.398 1.375.531.55.137 1.144.262 1.78.375a6.926 6.926 0 0 1 1.766.532c.551.25 1.008.605 1.376 1.062.374.46.562 1.102.562 1.922 0 .555-.137 1.047-.406 1.484A3.54 3.54 0 0 1 8.906-.625a5.39 5.39 0 0 1-1.531.672 6.522 6.522 0 0 1-1.75.234c-.5 0-1.008-.062-1.516-.187a5.71 5.71 0 0 1-1.406-.516 4.621 4.621 0 0 1-1.172-.906 3.77 3.77 0 0 1-.797-1.313Zm0 0"/>
    </symbol>
    <symbol id="c" overflow="visible">
      <path stroke="none" d="M8.766-7.203c.03-.977-.168-1.734-.594-2.266-.418-.539-1.094-.812-2.031-.812-.711 0-1.29.164-1.735.484a2.158 2.158 0 0 0-.86 1.328L1.642-9.03a3.85 3.85 0 0 1 1.671-2.078c.813-.5 1.743-.75 2.797-.75 1.614 0 2.786.382 3.516 1.14.727.75 1.102 1.95 1.125 3.594l.016 2.734c.02.98.062 1.82.125 2.516.07.7.164 1.324.28 1.875H9.36l-.468-1.594a3.824 3.824 0 0 1-1.485 1.39c-.625.321-1.453.485-2.484.485A5.091 5.091 0 0 1 3.359.047a4.067 4.067 0 0 1-1.28-.64 3.25 3.25 0 0 1-.876-1.063c-.21-.414-.312-.89-.312-1.422 0-.688.187-1.266.562-1.735.375-.476.899-.867 1.578-1.171.688-.301 1.516-.54 2.485-.72a50.895 50.895 0 0 1 3.25-.5ZM3.078-3.125c0 .555.195.996.594 1.328.406.336.96.5 1.672.5.445 0 .883-.055 1.312-.172.438-.113.82-.304 1.157-.578.343-.281.613-.648.812-1.11.207-.468.313-1.046.313-1.734v-.734c-.899.094-1.704.203-2.422.328-.72.117-1.336.266-1.844.453-.512.188-.906.422-1.188.703-.273.274-.406.61-.406 1.016Zm0 0"/>
    </symbol>
    <symbol id="d" overflow="visible">
      <path stroke="none" d="m2.188-11.64 2.874 8.984 2.86-8.985h2.172L5.954.516a14.202 14.202 0 0 1-.626 1.578c-.21.426-.46.765-.75 1.015-.293.25-.652.422-1.078.516-.418.102-.96.156-1.625.156h-1V2.047h.797c.414 0 .758-.024 1.031-.063.27-.043.492-.136.672-.28.176-.138.32-.34.438-.61.124-.262.253-.617.39-1.063L0-11.64Zm0 0"/>
    </symbol>
    <symbol id="g" overflow="visible">
      <path stroke="none" d="M1.781-1.219c0-.426.149-.785.453-1.078.301-.3.657-.453 1.063-.453.414 0 .773.152 1.078.453.3.293.453.652.453 1.078 0 .407-.152.762-.453 1.063A1.518 1.518 0 0 1 3.297.28a1.49 1.49 0 0 1-1.063-.437 1.443 1.443 0 0 1-.453-1.063Zm.469-10.437v-4.047h2.094v4.047l-.422 7.078H2.687Zm0 0"/>
    </symbol>
    <symbol id="i" overflow="visible">
      <path stroke="none" d="M.719-4.016c0-1.343.265-2.367.797-3.078.539-.707 1.332-1.062 2.375-1.062 1.03 0 1.812.355 2.343 1.062.54.711.813 1.735.813 3.078 0 1.356-.274 2.387-.813 3.094C5.704-.21 4.922.141 3.891.141 2.848.14 2.055-.211 1.516-.922.984-1.629.719-2.66.719-4.016Zm1.094 0c0 1.055.164 1.86.5 2.422.332.563.859.844 1.578.844.539 0 .984-.176 1.328-.531L2.047-5.828c-.086.25-.149.527-.188.828a9.674 9.674 0 0 0-.046.984Zm.78-2.765 3.157 4.5c.133-.477.203-1.055.203-1.735 0-1.039-.172-1.843-.516-2.406-.335-.562-.851-.844-1.546-.844-.524 0-.954.164-1.297.485Zm0 0"/>
    </symbol>
    <symbol id="k" overflow="visible">
      <path stroke="none" d="M.5-6.047v-.797c.29 0 .566-.008.828-.031.258-.031.492-.086.703-.172.219-.082.406-.203.563-.36.164-.155.289-.35.375-.593h.672v8h-1v-6.047Zm0 0"/>
    </symbol>
    <symbol id="l" overflow="visible">
      <path stroke="none" d="M.406 0v-.906a33.98 33.98 0 0 0 1.89-1.453 15.234 15.234 0 0 0 1.423-1.297c.383-.414.676-.805.875-1.172.195-.375.297-.738.297-1.094 0-.414-.133-.75-.391-1-.262-.258-.633-.39-1.11-.39a2.14 2.14 0 0 0-.562.078c-.18.043-.34.12-.484.234a1.51 1.51 0 0 0-.39.422 1.463 1.463 0 0 0-.235.61L.703-6.25a2.384 2.384 0 0 1 .922-1.39c.477-.344 1.078-.516 1.797-.516.363 0 .703.047 1.015.14.313.094.579.235.797.422.227.18.407.399.532.657.125.25.187.546.187.89 0 .461-.117.914-.344 1.36a6.46 6.46 0 0 1-.921 1.296c-.375.43-.82.844-1.329 1.25-.511.407-1.043.813-1.593 1.22h4.406V0Zm0 0"/>
    </symbol>
    <symbol id="n" overflow="visible">
      <path stroke="none" d="m.5-1.813 1-.28c.082.417.27.757.563 1.015.289.262.69.39 1.203.39.53 0 .96-.128 1.296-.39.344-.27.516-.656.516-1.156 0-.383-.101-.68-.297-.891a1.624 1.624 0 0 0-.703-.453 2.873 2.873 0 0 0-.812-.156 9.9 9.9 0 0 0-.657-.032v-.906c.227 0 .473-.008.735-.031.258-.02.504-.07.734-.156.227-.094.414-.227.563-.407.156-.175.234-.421.234-.734a1.2 1.2 0 0 0-.125-.563 1.17 1.17 0 0 0-.344-.406 1.328 1.328 0 0 0-.484-.25 1.916 1.916 0 0 0-.61-.093c-.492 0-.882.125-1.171.375-.282.25-.461.574-.532.968L.625-6.25a2.398 2.398 0 0 1 .906-1.39c.469-.344 1.07-.516 1.813-.516.351 0 .687.039 1 .11a2.3 2.3 0 0 1 .812.358c.239.168.426.383.563.641.144.25.218.563.218.938 0 .406-.117.777-.343 1.109-.219.324-.543.574-.969.75.3.094.55.215.75.36.195.136.352.292.469.468.113.18.191.367.234.563.05.199.078.402.078.609 0 .406-.078.762-.234 1.063a2.15 2.15 0 0 1-.64.734c-.274.2-.587.351-.938.453a4.08 4.08 0 0 1-1.078.14A3.72 3.72 0 0 1 2.187 0a2.582 2.582 0 0 1-.812-.422 2.327 2.327 0 0 1-.547-.625A2.716 2.716 0 0 1 .5-1.813Zm0 0"/>
    </symbol>
    <symbol id="p" overflow="visible">
      <path stroke="none" d="m.64-1.813.985-.28c.102.437.29.78.563 1.03.28.25.687.375 1.218.375.239 0 .461-.039.672-.125.219-.093.41-.218.578-.375a1.74 1.74 0 0 0 .39-.609c.095-.238.141-.516.141-.828a2.007 2.007 0 0 0-.578-1.453 1.581 1.581 0 0 0-.578-.344c-.21-.07-.422-.11-.64-.11-.211 0-.403.032-.579.095a2.04 2.04 0 0 0-.453.203 1.59 1.59 0 0 0-.328.296 1.23 1.23 0 0 0-.187.297l-.985-.296L1.36-8h4.579v.969H2.171L1.89-4.797c.207-.207.46-.36.765-.453.301-.094.625-.14.969-.14s.672.062.984.187c.32.125.602.305.844.531.238.23.43.516.578.86.145.343.219.734.219 1.171 0 .461-.078.868-.234 1.22a2.579 2.579 0 0 1-.641.874 2.57 2.57 0 0 1-.906.516A3.292 3.292 0 0 1 3.406.14C3 .14 2.641.086 2.328-.016a2.832 2.832 0 0 1-.797-.406 2.61 2.61 0 0 1-.562-.625 2.716 2.716 0 0 1-.328-.766Zm0 0"/>
    </symbol>
    <symbol id="s" overflow="visible">
      <path stroke="none" d="M.719-3.719c0-.562.05-1.11.156-1.64.113-.532.29-1.004.531-1.422.25-.414.57-.75.969-1 .395-.25.883-.375 1.469-.375.601 0 1.086.125 1.453.375.363.25.629.558.797.922l-1.016.296a1.2 1.2 0 0 0-.531-.546c-.23-.133-.5-.204-.813-.204-.312 0-.59.079-.828.235a1.833 1.833 0 0 0-.61.625 3.43 3.43 0 0 0-.39.984 6.08 6.08 0 0 0-.14 1.25c.175-.312.437-.57.78-.781.345-.219.786-.328 1.329-.328.375 0 .719.07 1.031.203.313.125.582.309.813.547.226.242.406.527.531.86.133.335.203.702.203 1.109 0 .367-.07.718-.203 1.062a2.61 2.61 0 0 1-.578.875 2.61 2.61 0 0 1-.875.594A2.999 2.999 0 0 1 3.625.14c-1 0-1.734-.332-2.203-1C.953-1.523.719-2.477.719-3.72ZM3.625-.703c.531 0 .953-.172 1.266-.516.32-.351.484-.804.484-1.36 0-.55-.164-1-.484-1.343-.313-.351-.735-.531-1.266-.531s-.96.18-1.281.531c-.313.344-.469.793-.469 1.344 0 .555.156 1.008.469 1.36.32.343.75.515 1.281.515Zm0 0"/>
    </symbol>
    <symbol id="t" overflow="visible">
      <path stroke="none" d="M.719-2.25c0-.52.129-.957.39-1.313.27-.363.63-.64 1.079-.828a2.173 2.173 0 0 1-.5-.703 2.209 2.209 0 0 1-.172-.89c0-.301.05-.582.156-.844a2.238 2.238 0 0 1 1.156-1.156c.27-.114.55-.172.844-.172.312 0 .598.058.86.172.257.117.488.273.687.468.207.2.363.43.468.688.114.262.172.543.172.844 0 .324-.062.62-.187.89a2.234 2.234 0 0 1-.5.703c.445.188.805.465 1.078.829.27.355.406.792.406 1.312 0 .387-.078.727-.234 1.016a2.174 2.174 0 0 1-.625.75c-.274.199-.59.355-.953.468a4.252 4.252 0 0 1-1.172.157c-.406 0-.793-.055-1.156-.157a3.195 3.195 0 0 1-.938-.468 2.265 2.265 0 0 1-.64-.75c-.149-.29-.22-.63-.22-1.016Zm1.094 0c0 .469.164.84.5 1.11.332.261.785.39 1.359.39.582 0 1.039-.129 1.375-.39.344-.27.516-.641.516-1.11 0-.469-.172-.844-.516-1.125-.336-.281-.793-.422-1.375-.422-.574 0-1.027.14-1.36.422-.335.281-.5.656-.5 1.125Zm1.859-2.438c.176 0 .344-.03.5-.093.156-.07.289-.164.406-.282.113-.113.207-.25.281-.406a1.3 1.3 0 0 0 .11-.515c0-.176-.04-.344-.11-.5a1.507 1.507 0 0 0-.28-.407 1.241 1.241 0 0 0-.407-.265 1.168 1.168 0 0 0-.984 0 1.4 1.4 0 0 0-.422.265 1.35 1.35 0 0 0-.282.407 1.436 1.436 0 0 0 0 1.016c.07.155.164.292.282.405.125.118.265.211.421.282.157.062.317.093.485.093Zm0 0"/>
    </symbol>
    <symbol id="u" overflow="visible">
      <path stroke="none" d="M.719-5.281c0-.395.07-.766.219-1.11.144-.351.347-.656.609-.906.258-.258.562-.46.906-.61a2.739 2.739 0 0 1 1.125-.234c.406 0 .781.079 1.125.235.344.148.645.351.906.61.258.25.461.554.61.905.156.344.234.72.234 1.125 0 .375-.074.743-.219 1.094a17.65 17.65 0 0 1-.28.563c-.15.28-.329.617-.548 1-.21.386-.453.808-.734 1.265-.281.45-.574.899-.875 1.344h-1.25c.195-.27.394-.547.594-.828.164-.25.347-.52.546-.813.196-.289.376-.57.532-.843a2.42 2.42 0 0 1-.64.078c-.388 0-.759-.07-1.11-.219a3.004 3.004 0 0 1-.906-.625 3.004 3.004 0 0 1-.625-.906 2.86 2.86 0 0 1-.22-1.125Zm2.86 1.843c.257 0 .503-.046.733-.14a1.98 1.98 0 0 0 .594-.406 1.83 1.83 0 0 0 .39-.579 1.87 1.87 0 0 0 .141-.718c0-.258-.046-.5-.14-.719a1.888 1.888 0 0 0-.39-.578 1.868 1.868 0 0 0-.595-.39 1.809 1.809 0 0 0-.734-.157c-.25 0-.492.055-.719.156A1.842 1.842 0 0 0 1.891-6c-.094.219-.141.46-.141.719a1.779 1.779 0 0 0 .531 1.297c.164.168.36.304.578.406.227.094.47.14.72.14Zm0 0"/>
    </symbol>
  </defs>
  <path fill="#3085ee" stroke="none" d="M9.445 39.79v35.315h35.313V39.79Zm34.192 34.19h-33.09V40.89h33.09Zm0 0"/>
  <path fill="#3085ee" stroke="none" d="M43.809 39.79v35.315h35.316V39.79ZM78 73.98H44.91V40.89H78Zm0 0"/>
  <path fill="#3085ee" stroke="none" d="M78.172 39.79v35.315h35.316V39.79Zm34.191 34.19h-33.09V40.89h33.09Zm0 0"/>
  <path fill="#3085ee" stroke="none" d="M112.535 39.79v35.315h35.317V39.79Zm34.192 34.19h-33.09V40.89h33.09Zm0 0"/>
  <path fill="#3085ee" stroke="none" d="M146.898 39.79v35.315h35.317V39.79Zm34.192 34.19H148V40.89h33.09Zm0 0"/>
  <path fill="#3085ee" stroke="none" d="M181.262 39.79v35.315h35.316V39.79Zm34.191 34.19h-33.09V40.89h33.09Zm0 0"/>
  <path fill="#3085ee" stroke="none" d="M215.625 39.79v35.315h35.316V39.79Zm34.191 34.19h-33.09V40.89h33.09Zm0 0"/>
  <path fill="#3085ee" stroke="none" d="M249.988 39.79v35.315h35.317V39.79Zm34.192 34.19h-33.09V40.89h33.09Zm0 0"/>
  <path fill="#3085ee" stroke="none" d="M284.352 39.79v35.315h35.316V39.79Zm34.191 34.19h-33.09V40.89h33.09Zm0 0"/>
  <path fill="#3085ee" stroke="none" d="M318.715 39.79v35.315h35.316V39.79Zm34.191 34.19h-33.09V40.89h33.09Zm0 0"/>
  <path fill="#3085ee" stroke="none" d="M353.078 39.79v35.315h35.317V39.79Zm34.192 34.19h-33.09V40.89h33.09Zm0 0"/>
  <path fill="#3085ee" stroke="none" d="M387.441 39.79v35.315h35.317V39.79Zm34.192 34.19h-33.09V40.89h33.09Zm0 0"/>
  <path fill="#3085ee" stroke="none" d="M421.805 39.79v35.315h35.316V39.79Zm34.191 34.19h-33.09V40.89h33.09Zm0 0"/>
  <path fill="#3085ee" stroke="none" d="M456.168 39.79v35.315h35.316V39.79Zm34.191 34.19h-33.09V40.89h33.09Zm0 0"/>
  <path fill="#3085ee" stroke="none" d="M490.531 39.79v35.315h35.317V39.79Zm34.192 34.19h-33.09V40.89h33.09Zm0 0"/>
  <path fill="#3085ee" stroke="none" d="M524.895 39.79v35.315h35.316V39.79Zm34.19 34.19h-33.089V40.89h33.09Zm0 0"/>
  <path fill="#3085ee" stroke="none" d="M559.258 39.79v35.315h35.316V39.79Zm34.191 34.19h-33.09V40.89h33.09Zm0 0"/>
  <use xlink:href="#a" x="22.202" y="62.998" fill="#fff"/>
  <use xlink:href="#b" x="55.008" y="62.998" fill="#fff"/>
  <use xlink:href="#a" x="89.165" y="62.998" fill="#fff"/>
  <use xlink:href="#b" x="123.822" y="62.998" fill="#fff"/>
  <use xlink:href="#c" x="159.097" y="62.998" fill="#fff"/>
  <use xlink:href="#d" x="195.614" y="62.998" fill="#fff"/>
  <use xlink:href="#b" x="226.824" y="62.998" fill="#fff"/>
  <use xlink:href="#e" x="261.026" y="62.998" fill="#fff"/>
  <use xlink:href="#d" x="333.067" y="62.998" fill="#fff"/>
  <use xlink:href="#f" x="365.16" y="62.998" fill="#fff"/>
  <use xlink:href="#b" x="433.093" y="62.998" fill="#fff"/>
  <use xlink:href="#c" x="467.603" y="62.998" fill="#fff"/>
  <use xlink:href="#f" x="502.613" y="62.998" fill="#fff"/>
  <use xlink:href="#d" x="537.477" y="62.998" fill="#fff"/>
  <use xlink:href="#g" x="573.574" y="62.998" fill="#fff"/>
  <use xlink:href="#h" stroke-linecap="round" transform="matrix(0 -.75 .7619 0 9.828 95.767)"/>
  <path fill="none" stroke="#fff" stroke-linejoin="round" d="M.502-1.503h3v3.005h-3Zm0 0" transform="matrix(0 -.75 .7619 0 9.828 95.767)"/>
  <path fill="none" stroke="#fff" stroke-linejoin="round" d="M-3.499-1.503h3v3.005h-3Zm0 0" transform="matrix(0 -.75 .7619 0 9.828 73.263)"/>
  <use xlink:href="#i" x="5.936" y="105.812" fill="#fff"/>
  <use xlink:href="#h" stroke-linecap="round" transform="matrix(0 -.75 .7619 0 44.7 95.767)"/>
  <use xlink:href="#j" stroke-linejoin="round" transform="matrix(0 -.75 .7619 0 44.7 95.767)"/>
  <use xlink:href="#k" stroke-linejoin="round" transform="matrix(0 -.75 .7619 0 44.7 73.263)"/>
  <use xlink:href="#k" x="42.28" y="105.812" fill="#fff"/>
  <use xlink:href="#h" stroke-linecap="round" transform="matrix(0 -.75 .7619 0 79.062 95.767)"/>
  <use xlink:href="#j" stroke-linejoin="round" transform="matrix(0 -.75 .7619 0 79.062 95.767)"/>
  <use xlink:href="#k" stroke-linejoin="round" transform="matrix(0 -.75 .7619 0 79.062 73.263)"/>
  <use xlink:href="#l" x="75.763" y="105.812" fill="#fff"/>
  <use xlink:href="#n" stroke-linecap="round" transform="matrix(0 -.75 .7619 0 112.587 95.767)"/>
  <use xlink:href="#m" stroke-linejoin="round" transform="matrix(0 -.75 .7619 0 112.587 95.767)"/>
  <use xlink:href="#p" stroke-linejoin="round" transform="matrix(0 -.75 .7619 0 112.587 73.263)"/>
  <use xlink:href="#n" x="109.138" y="105.812" fill="#fff"/>
  <use xlink:href="#h" stroke-linecap="round" transform="matrix(0 -.75 .7619 0 147.458 95.767)"/>
  <use xlink:href="#o" stroke-linejoin="round" transform="matrix(0 -.75 .7619 0 147.458 95.767)"/>
  <use xlink:href="#s" stroke-linejoin="round" transform="matrix(0 -.75 .7619 0 147.458 73.263)"/>
  <use xlink:href="#p" x="143.771" y="105.812" fill="#fff"/>
  <use xlink:href="#h" stroke-linecap="round" transform="matrix(0 -.75 .7619 0 181.82 95.767)"/>
  <use xlink:href="#o" stroke-linejoin="round" transform="matrix(0 -.75 .7619 0 181.82 95.767)"/>
  <use xlink:href="#s" stroke-linejoin="round" transform="matrix(0 -.75 .7619 0 181.82 73.263)"/>
  <use xlink:href="#p" x="178.316" y="105.812" fill="#fff"/>
  <use xlink:href="#q" stroke-linecap="round" transform="matrix(0 -.75 .7619 0 216.284 95.767)"/>
  <use xlink:href="#r" stroke-linejoin="round" transform="matrix(0 -.75 .7619 0 216.284 95.767)"/>
  <use xlink:href="#w" stroke-linejoin="round" transform="matrix(0 -.75 .7619 0 216.284 73.263)"/>
  <use xlink:href="#s" x="212.691" y="105.812" fill="#fff"/>
  <use xlink:href="#n" stroke-linecap="round" transform="matrix(0 -.75 .7619 0 250.372 95.767)"/>
  <use xlink:href="#m" stroke-linejoin="round" transform="matrix(0 -.75 .7619 0 250.372 95.767)"/>
  <use xlink:href="#p" stroke-linejoin="round" transform="matrix(0 -.75 .7619 0 250.372 73.263)"/>
  <use xlink:href="#s" x="247.304" y="105.812" fill="#fff"/>
  <use xlink:href="#q" stroke-linecap="round" transform="matrix(0 -.75 .7619 0 285.518 95.767)"/>
  <path fill="none" stroke="#fff" stroke-linejoin="round" d="M.502-1.5h3v3h-3Zm0 0" transform="matrix(0 -.75 .7619 0 285.518 95.767)"/>
  <path fill="none" stroke="#fff" stroke-linejoin="round" d="M-3.499-1.5h3v3h-3Zm0 0" transform="matrix(0 -.75 .7619 0 285.518 73.263)"/>
  <use xlink:href="#t" x="281.826" y="105.812" fill="#fff"/>
  <use xlink:href="#h" stroke-linecap="round" transform="matrix(0 -.75 .7619 0 319.042 95.767)"/>
  <path fill="none" stroke="#fff" stroke-linejoin="round" d="M.502-1.501h3v2.999h-3Zm0 0" transform="matrix(0 -.75 .7619 0 319.042 95.767)"/>
  <path fill="none" stroke="#fff" stroke-linejoin="round" d="M-3.499-1.501h3v2.999h-3Zm0 0" transform="matrix(0 -.75 .7619 0 319.042 73.263)"/>
  <use xlink:href="#u" x="315.45" y="105.812" fill="#fff"/>
  <use xlink:href="#v" stroke-linecap="round" transform="matrix(0 -.75 .7619 0 353.913 95.767)"/>
  <use xlink:href="#r" stroke-linejoin="round" transform="matrix(0 -.75 .7619 0 353.913 95.767)"/>
  <use xlink:href="#w" stroke-linejoin="round" transform="matrix(0 -.75 .7619 0 353.913 73.263)"/>
  <use xlink:href="#k" x="347.611" y="105.812" fill="#fff"/>
  <use xlink:href="#i" x="352.429" y="105.812" fill="#fff"/>
  <use xlink:href="#v" stroke-linecap="round" transform="matrix(0 -.75 .7619 0 388.276 95.767)"/>
  <use xlink:href="#w" stroke-linejoin="round" transform="matrix(0 -.75 .7619 0 388.276 95.767)"/>
  <use xlink:href="#C" stroke-linejoin="round" transform="matrix(0 -.75 .7619 0 388.276 73.263)"/>
  <use xlink:href="#k" x="383.448" y="105.812" fill="#fff"/>
  <use xlink:href="#k" x="388.266" y="105.812" fill="#fff"/>
  <use xlink:href="#q" stroke-linecap="round" transform="matrix(0 -.75 .7619 0 422.32 95.767)"/>
  <use xlink:href="#r" stroke-linejoin="round" transform="matrix(0 -.75 .7619 0 422.32 95.767)"/>
  <use xlink:href="#w" stroke-linejoin="round" transform="matrix(0 -.75 .7619 0 422.32 73.263)"/>
  <use xlink:href="#k" x="416.611" y="105.812" fill="#fff"/>
  <use xlink:href="#l" x="421.429" y="105.812" fill="#fff"/>
  <use xlink:href="#v" stroke-linecap="round" transform="matrix(0 -.75 .7619 0 456.683 95.767)"/>
  <use xlink:href="#w" stroke-linejoin="round" transform="matrix(0 -.75 .7619 0 456.683 95.767)"/>
  <use xlink:href="#C" stroke-linejoin="round" transform="matrix(0 -.75 .7619 0 456.683 73.263)"/>
  <use xlink:href="#k" x="450.824" y="105.812" fill="#fff"/>
  <use xlink:href="#n" x="455.642" y="105.812" fill="#fff"/>
  <use xlink:href="#h" stroke-linecap="round" transform="matrix(0 -.75 .7619 0 490.207 95.767)"/>
  <use xlink:href="#j" stroke-linejoin="round" transform="matrix(0 -.75 .7619 0 490.207 95.767)"/>
  <use xlink:href="#k" stroke-linejoin="round" transform="matrix(0 -.75 .7619 0 490.207 73.263)"/>
  <use xlink:href="#k" x="484.111" y="105.812" fill="#fff"/>
  <use xlink:href="#p" x="488.929" y="105.812" fill="#fff"/>
  <use xlink:href="#h" stroke-linecap="round" transform="matrix(0 -.75 .7619 0 525.078 95.767)"/>
  <use xlink:href="#x" stroke-linejoin="round" transform="matrix(0 -.75 .7619 0 525.078 95.767)"/>
  <use xlink:href="#E" stroke-linejoin="round" transform="matrix(0 -.75 .7619 0 525.078 73.263)"/>
  <use xlink:href="#k" x="519.163" y="105.812" fill="#fff"/>
  <use xlink:href="#p" x="523.981" y="105.812" fill="#fff"/>
  <use xlink:href="#h" stroke-linecap="round" transform="matrix(0 -.75 .7619 0 559.441 95.767)"/>
  <use xlink:href="#x" stroke-linejoin="round" transform="matrix(0 -.75 .7619 0 559.441 95.767)"/>
  <use xlink:href="#E" stroke-linejoin="round" transform="matrix(0 -.75 .7619 0 559.441 73.263)"/>
  <use xlink:href="#k" x="553.439" y="105.812" fill="#fff"/>
  <use xlink:href="#s" x="558.257" y="105.812" fill="#fff"/>
</svg>
