<svg xmlns="http://www.w3.org/2000/svg" xmlns:xlink="http://www.w3.org/1999/xlink" width="800" height="200" version="1.2" viewBox="0 0 600 150">
  <defs>
    <path id="a" fill="none" stroke="#fff" stroke-linecap="round" stroke-linejoin="miter" stroke-miterlimit="4" stroke-opacity="1" stroke-width="1" d="M4 .002h22.044"/>
    <path id="b" fill="none" stroke="#fff" stroke-linecap="butt" stroke-linejoin="round" stroke-miterlimit="4" stroke-opacity="1" stroke-width="1" d="M.501-1.498H3.5v3H.501Zm0 0"/>
    <path id="c" fill="none" stroke="#fff" stroke-linecap="round" stroke-linejoin="miter" stroke-miterlimit="4" stroke-opacity="1" stroke-width="1" d="M4 0h22.044"/>
    <path id="d" fill="none" stroke="#fff" stroke-linecap="butt" stroke-linejoin="round" stroke-miterlimit="4" stroke-opacity="1" stroke-width="1" d="M.501-1.5H3.5v3H.501Zm0 0"/>
    <path id="e" fill="none" stroke="#fff" stroke-linecap="butt" stroke-linejoin="round" stroke-miterlimit="4" stroke-opacity="1" stroke-width="1" d="M.501-1.501H3.5v3H.501Zm0 0"/>
  </defs>
  <defs>
    <symbol id="f" overflow="visible">
      <path stroke="none" d="M5.906-11.875c.926 0 1.696.188 2.313.563a4.147 4.147 0 0 1 1.484 1.468v-5.89h1.969v11.328c0 .398.015.976.047 1.734.039.75.16 1.64.36 2.672h-1.86l-.516-1.766a4.201 4.201 0 0 1-1.484 1.5c-.617.364-1.387.547-2.313.547A4.697 4.697 0 0 1 4-.125a4.806 4.806 0 0 1-1.61-1.188c-.449-.519-.812-1.156-1.093-1.906C1.023-3.977.89-4.836.89-5.797c0-.957.132-1.812.406-2.562.281-.75.644-1.383 1.094-1.907.457-.52.992-.914 1.609-1.187a4.529 4.529 0 0 1 1.906-.422ZM3.11-5.797c0 1.399.301 2.48.907 3.25.601.762 1.406 1.14 2.406 1.14 1.008 0 1.816-.378 2.422-1.14.601-.77.906-1.851.906-3.25 0-1.394-.305-2.473-.906-3.234-.606-.758-1.414-1.14-2.422-1.14-1 0-1.805.382-2.406 1.14-.606.761-.907 1.84-.907 3.234Zm0 0"/>
    </symbol>
    <symbol id="g" overflow="visible">
      <path stroke="none" d="M6.563-11.875c.925 0 1.742.188 2.453.563a5.083 5.083 0 0 1 1.75 1.468 6.01 6.01 0 0 1 1.015 2.11c.219.793.297 1.605.235 2.437h-9c.03.742.164 1.36.406 1.86.25.492.547.882.89 1.171a3.61 3.61 0 0 0 1.141.625c.414.125.8.188 1.156.188.664 0 1.223-.102 1.672-.313a2.705 2.705 0 0 0 1.063-.843l1.906.562c-.418.688-1.023 1.25-1.813 1.688-.78.425-1.726.64-2.828.64-.906 0-1.718-.156-2.437-.469a5.071 5.071 0 0 1-1.797-1.296 5.535 5.535 0 0 1-1.11-1.922 7.452 7.452 0 0 1-.374-2.406c0-.926.144-1.758.437-2.5.29-.75.692-1.383 1.203-1.907a5.163 5.163 0 0 1 1.797-1.219 5.77 5.77 0 0 1 2.234-.437Zm3.343 5c0-.406-.078-.805-.234-1.203A3.194 3.194 0 0 0 9-9.141a3.121 3.121 0 0 0-1.047-.75 3.287 3.287 0 0 0-1.39-.28c-.438 0-.86.062-1.266.187s-.766.32-1.078.578a3.338 3.338 0 0 0-.797 1.015c-.211.418-.34.922-.39 1.516Zm0 0"/>
    </symbol>
    <symbol id="h" overflow="visible">
      <path stroke="none" d="M5.844-11.875c.937 0 1.695.188 2.281.563.594.367 1.07.855 1.438 1.468l.546-1.828h1.422v10.563c0 .586-.023 1.132-.062 1.656a4.46 4.46 0 0 1-.328 1.469 3.49 3.49 0 0 1-.86 1.203c-.386.363-.918.672-1.594.922a5.73 5.73 0 0 1-1.062.28 6.832 6.832 0 0 1-2.594-.063 4.822 4.822 0 0 1-1.344-.467 3.935 3.935 0 0 1-1.078-.86 3.375 3.375 0 0 1-.703-1.234l1.985-.547c.101.313.25.566.437.766.188.195.399.347.64.453.239.113.485.191.735.234a3.884 3.884 0 0 0 1.547 0c.238-.043.41-.078.516-.11a3.16 3.16 0 0 0 .89-.452c.227-.168.406-.383.531-.641A3.08 3.08 0 0 0 9.47.578c.062-.355.094-.765.094-1.234V-2.22a4.21 4.21 0 0 1-1.44 1.47c-.586.355-1.344.531-2.281.531a4.84 4.84 0 0 1-1.875-.375 4.533 4.533 0 0 1-1.578-1.11c-.45-.5-.813-1.109-1.094-1.827C1.023-4.25.89-5.082.89-6.031c0-.938.132-1.766.406-2.485.281-.726.644-1.336 1.094-1.828.457-.5.984-.879 1.578-1.14a4.717 4.717 0 0 1 1.875-.391ZM3.03-6.031c0 1.336.305 2.367.922 3.093.613.72 1.406 1.079 2.375 1.079.445 0 .867-.079 1.266-.235a2.78 2.78 0 0 0 1.047-.734c.3-.344.539-.774.718-1.297.176-.531.266-1.164.266-1.906 0-.739-.09-1.367-.266-1.89-.18-.532-.418-.958-.718-1.282a2.824 2.824 0 0 0-1.047-.735 3.435 3.435 0 0 0-1.266-.234c-.969 0-1.762.36-2.375 1.078-.617.711-.922 1.73-.922 3.063Zm0 0"/>
    </symbol>
    <symbol id="i" overflow="visible">
      <path stroke="none" d="M2.64-3.344c.094.344.239.64.438.89.195.25.43.462.703.626.27.156.563.273.875.344.32.062.645.093.969.093.344 0 .68-.035 1.016-.109.332-.082.625-.203.875-.36.257-.156.468-.335.625-.546a1.21 1.21 0 0 0 .234-.719c0-.54-.184-.941-.547-1.203-.367-.27-.824-.477-1.375-.625a16.71 16.71 0 0 0-1.781-.39 9.163 9.163 0 0 1-1.781-.5c-.543-.227-1-.555-1.375-.985-.368-.438-.547-1.04-.547-1.813 0-.52.129-.984.39-1.39a3.44 3.44 0 0 1 1-1.016 4.483 4.483 0 0 1 1.438-.625 6.436 6.436 0 0 1 1.672-.219c.926 0 1.797.196 2.61.579a3.55 3.55 0 0 1 1.765 1.796l-1.86.688c-.21-.469-.57-.817-1.078-1.047a3.87 3.87 0 0 0-1.578-.344c-.305 0-.594.04-.875.11a3.098 3.098 0 0 0-.75.296c-.219.126-.398.29-.531.485a1.083 1.083 0 0 0-.203.656c0 .48.18.828.547 1.047a5.15 5.15 0 0 0 1.375.531c.55.125 1.144.246 1.78.36a7.747 7.747 0 0 1 1.782.546c.55.25 1.008.606 1.375 1.063.375.45.563 1.09.563 1.922a2.76 2.76 0 0 1-.407 1.484c-.273.43-.632.793-1.078 1.094a5.39 5.39 0 0 1-1.515.672A6.574 6.574 0 0 1 5.625.28c-.5 0-1-.062-1.5-.187a5.944 5.944 0 0 1-1.422-.516 4.621 4.621 0 0 1-1.172-.906 3.997 3.997 0 0 1-.797-1.313Zm0 0"/>
    </symbol>
    <symbol id="j" overflow="visible">
      <path stroke="none" d="M8.781-7.203c.031-.988-.168-1.75-.594-2.281-.417-.54-1.101-.813-2.046-.813-.7 0-1.274.164-1.72.485a2.154 2.154 0 0 0-.859 1.328l-1.921-.563a3.912 3.912 0 0 1 1.687-2.078c.813-.5 1.742-.75 2.797-.75 1.613 0 2.785.383 3.516 1.14.726.75 1.101 1.95 1.125 3.594l.015 2.735c.02.992.063 1.836.125 2.531.07.7.164 1.324.281 1.875H9.376l-.469-1.594a3.813 3.813 0 0 1-1.5 1.39c-.625.321-1.453.485-2.484.485A5.091 5.091 0 0 1 3.359.047a4.067 4.067 0 0 1-1.28-.64 3.25 3.25 0 0 1-.876-1.063c-.21-.414-.312-.89-.312-1.422 0-.695.187-1.281.562-1.75.383-.469.914-.852 1.594-1.156.687-.313 1.515-.555 2.484-.735a44.18 44.18 0 0 1 3.25-.484ZM3.078-3.125c0 .543.195.984.594 1.328.406.336.96.5 1.672.5.457 0 .898-.055 1.328-.172.437-.113.82-.304 1.156-.578.332-.281.602-.648.813-1.11.207-.468.312-1.046.312-1.734v-.734c-.898.094-1.71.2-2.437.313-.72.117-1.336.273-1.844.468-.512.188-.906.418-1.188.688-.273.273-.406.617-.406 1.031Zm0 0"/>
    </symbol>
    <symbol id="k" overflow="visible">
      <path stroke="none" d="m2.188-11.656 2.874 9 2.875-9h2.172L5.953.516c-.2.625-.406 1.148-.625 1.578-.21.426-.46.765-.75 1.015-.293.25-.652.426-1.078.532-.418.101-.953.156-1.61.156H.876v-1.75h.797c.426 0 .77-.024 1.031-.063.27-.03.492-.12.672-.265.188-.149.336-.356.453-.625a13.8 13.8 0 0 0 .39-1.063L0-11.656Zm0 0"/>
    </symbol>
    <symbol id="l" overflow="visible">
      <path stroke="none" d="M1.797-1.219c0-.426.144-.785.437-1.078.301-.3.657-.453 1.063-.453.426 0 .785.152 1.078.453.3.293.453.652.453 1.078 0 .407-.152.762-.453 1.063A1.48 1.48 0 0 1 3.297.28a1.49 1.49 0 0 1-1.063-.437 1.473 1.473 0 0 1-.437-1.063Zm.469-10.453v-4.062h2.093v4.062l-.421 7.078h-1.25Zm0 0"/>
    </symbol>
    <symbol id="m" overflow="visible">
      <path stroke="none" d="M.719-4.016c0-1.343.265-2.367.797-3.078.539-.707 1.332-1.062 2.375-1.062 1.039 0 1.828.355 2.359 1.062.54.711.813 1.735.813 3.078 0 1.356-.274 2.387-.813 3.094C5.719-.21 4.93.141 3.89.141 2.849.14 2.056-.211 1.517-.922.984-1.629.719-2.66.719-4.016Zm1.094 0c0 1.055.164 1.86.5 2.422.332.563.859.844 1.578.844.55 0 .992-.176 1.328-.531L2.047-5.828c-.086.25-.149.527-.188.828a9.348 9.348 0 0 0-.046.984Zm.796-2.78 3.157 4.515c.132-.477.203-1.055.203-1.735 0-1.05-.172-1.851-.516-2.406-.344-.562-.867-.844-1.562-.844-.524 0-.95.157-1.282.47Zm0 0"/>
    </symbol>
    <symbol id="n" overflow="visible">
      <path stroke="none" d="M.406 0v-.906a50.974 50.974 0 0 0 1.89-1.453 15.234 15.234 0 0 0 1.423-1.297c.383-.414.676-.813.875-1.188.195-.375.297-.734.297-1.078 0-.414-.133-.75-.391-1-.262-.258-.633-.39-1.11-.39a2.14 2.14 0 0 0-.562.078 1.4 1.4 0 0 0-.484.218 1.51 1.51 0 0 0-.39.422 1.471 1.471 0 0 0-.235.625L.703-6.266a2.297 2.297 0 0 1 .938-1.375c.476-.343 1.07-.515 1.78-.515.364 0 .704.047 1.017.14.312.086.578.22.796.407a1.942 1.942 0 0 1 .734 1.547c0 .468-.116.921-.343 1.359a6.46 6.46 0 0 1-.922 1.297c-.387.43-.836.851-1.344 1.265-.5.407-1.03.813-1.593 1.22h4.421V0Zm0 0"/>
    </symbol>
    <symbol id="o" overflow="visible">
      <path stroke="none" d="m.5-1.813 1-.28c.082.417.27.757.563 1.015.3.25.707.375 1.218.375.52 0 .953-.129 1.297-.39.344-.259.516-.645.516-1.157 0-.375-.102-.664-.297-.875-.2-.207-.434-.36-.703-.453a2.9 2.9 0 0 0-.828-.156 9.9 9.9 0 0 0-.657-.032v-.921c.227 0 .473-.004.735-.016a2.5 2.5 0 0 0 .734-.156c.227-.094.422-.227.578-.407.157-.187.235-.437.235-.75a1.07 1.07 0 0 0-.141-.562 1.254 1.254 0 0 0-.328-.406 1.338 1.338 0 0 0-.5-.25 2.27 2.27 0 0 0-.594-.079c-.5 0-.89.125-1.172.375a1.67 1.67 0 0 0-.547.97l-.984-.298c.145-.57.445-1.03.906-1.375.469-.343 1.07-.515 1.813-.515.351 0 .687.039 1 .11a2.3 2.3 0 0 1 .812.358c.239.157.426.368.563.625.144.25.218.563.218.938 0 .406-.117.777-.343 1.11-.219.324-.543.574-.969.75.313.105.563.226.75.359.195.136.352.293.469.469.125.18.207.37.25.578.05.199.078.402.078.609 0 .406-.086.762-.25 1.063a2.15 2.15 0 0 1-.64.734c-.262.2-.571.351-.923.453-.343.094-.71.14-1.093.14A3.72 3.72 0 0 1 2.187 0a2.582 2.582 0 0 1-.812-.422 2.327 2.327 0 0 1-.547-.625A2.716 2.716 0 0 1 .5-1.813Zm0 0"/>
    </symbol>
    <symbol id="p" overflow="visible">
      <path stroke="none" d="m.64-1.813.985-.28c.102.437.29.78.563 1.03.28.243.687.36 1.218.36.239 0 .469-.04.688-.125.218-.082.406-.203.562-.36a1.74 1.74 0 0 0 .39-.609c.102-.238.157-.516.157-.828 0-.332-.058-.617-.172-.86a1.647 1.647 0 0 0-.406-.593 1.581 1.581 0 0 0-.578-.344 2.07 2.07 0 0 0-1.234-.031c-.168.055-.32.125-.454.219-.125.086-.234.18-.328.28a1.176 1.176 0 0 0-.187.313l-.985-.296.5-4.079h4.594v.97H2.172l-.281 2.25c.207-.208.46-.36.765-.454.313-.102.633-.156.969-.156.352 0 .688.062 1 .187.313.125.586.309.828.547.238.23.43.516.578.86.145.343.219.734.219 1.171 0 .461-.078.868-.234 1.22a2.579 2.579 0 0 1-.641.874 2.57 2.57 0 0 1-.906.516A3.292 3.292 0 0 1 3.406.14C3 .14 2.641.086 2.328-.016a2.584 2.584 0 0 1-.797-.421 2.777 2.777 0 0 1-.562-.61 2.716 2.716 0 0 1-.328-.766Zm0 0"/>
    </symbol>
    <symbol id="q" overflow="visible">
      <path stroke="none" d="M.719-3.719c0-.57.05-1.125.156-1.656.113-.531.29-1.004.531-1.422.25-.414.57-.742.969-.984.395-.25.89-.375 1.484-.375s1.07.125 1.438.375c.363.242.633.543.812.906l-1.015.297a1.337 1.337 0 0 0-.532-.531 1.636 1.636 0 0 0-.828-.204c-.312 0-.59.075-.828.22a1.833 1.833 0 0 0-.61.624 3.43 3.43 0 0 0-.39.985 6.144 6.144 0 0 0-.14 1.265c.187-.312.453-.578.796-.797.344-.218.782-.328 1.313-.328.375 0 .719.07 1.031.203a2.537 2.537 0 0 1 1.36 1.423c.125.335.187.702.187 1.109 0 .367-.07.714-.203 1.046a2.537 2.537 0 0 1-.563.891c-.25.25-.546.45-.89.594a2.97 2.97 0 0 1-1.156.219c-1.012 0-1.75-.332-2.22-1C.954-1.523.72-2.477.72-3.72ZM3.64-.703c.52 0 .937-.172 1.25-.516.32-.351.484-.804.484-1.36 0-.55-.164-1-.484-1.343-.313-.351-.73-.531-1.25-.531-.543 0-.97.18-1.282.531-.312.344-.468.793-.468 1.344 0 .555.156 1.008.468 1.36.313.343.739.515 1.282.515Zm0 0"/>
    </symbol>
    <symbol id="r" overflow="visible">
      <path stroke="none" d="M.719-2.25c0-.52.133-.957.406-1.313a2.53 2.53 0 0 1 1.078-.828 2.173 2.173 0 0 1-.687-1.593c0-.301.05-.582.156-.844.113-.258.27-.488.469-.688.207-.207.441-.363.703-.468.258-.114.539-.172.844-.172.3 0 .582.058.843.172.27.105.504.261.703.468.196.2.352.43.47.688.112.262.171.543.171.844a2.169 2.169 0 0 1-.688 1.593 2.45 2.45 0 0 1 1.063.829c.27.355.406.792.406 1.312a2.174 2.174 0 0 1-.86 1.766c-.26.199-.573.355-.937.468a4.378 4.378 0 0 1-1.171.157c-.418 0-.81-.055-1.172-.157a3.195 3.195 0 0 1-.938-.468 2.265 2.265 0 0 1-.64-.75 2.262 2.262 0 0 1-.22-1.016Zm1.094 0c0 .469.164.84.5 1.11.332.261.789.39 1.374.39.57 0 1.024-.129 1.36-.39.344-.27.516-.641.516-1.11 0-.477-.172-.852-.516-1.125-.336-.281-.79-.422-1.36-.422-.585 0-1.042.14-1.374.422-.336.273-.5.648-.5 1.125Zm1.875-2.438c.175 0 .343-.03.5-.093.156-.07.289-.164.406-.282a1.4 1.4 0 0 0 .265-.421 1.244 1.244 0 0 0 0-1.016 1.067 1.067 0 0 0-.265-.39 1.241 1.241 0 0 0-.407-.266 1.199 1.199 0 0 0-1 0 1.202 1.202 0 0 0-.406.265c-.117.106-.21.235-.281.391a1.339 1.339 0 0 0-.094.5c0 .188.031.36.094.516.07.156.164.296.281.421.114.118.25.211.406.282.157.062.32.093.5.093Zm0 0"/>
    </symbol>
  </defs>
  <path fill="#3085ee" stroke="none" d="M251.066 54.59v35.36h35.36V54.59Zm34.235 34.234h-33.133V55.695h33.133Zm0 0"/>
  <path fill="#3085ee" stroke="none" d="M285.473 54.59v35.36h35.359V54.59Zm34.234 34.234h-33.133V55.695h33.133Zm0 0"/>
  <path fill="#3085ee" stroke="none" d="M319.879 54.59v35.36h35.36V54.59Zm34.234 34.234H320.98V55.695h33.133Zm0 0"/>
  <path fill="#3085ee" stroke="none" d="M354.285 54.59v35.36h35.36V54.59Zm34.235 34.234h-33.13V55.695h33.13Zm0 0"/>
  <path fill="#3085ee" stroke="none" d="M388.691 54.59v35.36h35.364V54.59Zm34.235 34.234h-33.13V55.695h33.13Zm0 0"/>
  <path fill="#3085ee" stroke="none" d="M423.098 54.59v35.36h35.363V54.59Zm34.234 34.234h-33.129V55.695h33.129Zm0 0"/>
  <path fill="#3085ee" stroke="none" d="M457.508 54.59v35.36h35.36V54.59Zm34.23 34.234H458.61V55.695h33.13Zm0 0"/>
  <path fill="#3085ee" stroke="none" d="M491.914 54.59v35.36h35.36V54.59Zm34.234 34.234h-33.132V55.695h33.132Zm0 0"/>
  <path fill="#3085ee" stroke="none" d="M526.32 54.59v35.36h35.36V54.59Zm34.235 34.234h-33.133V55.695h33.133Zm0 0"/>
  <path fill="#3085ee" stroke="none" d="M560.098 54.59v35.36h35.359V54.59Zm34.234 34.234h-33.129V55.695h33.129ZM10.086 54.652v35.36h35.36v-35.36ZM44.32 88.887H11.187V55.754H44.32Zm0 0"/>
  <path fill="#3085ee" stroke="none" d="M44.492 54.652v35.36h35.36v-35.36Zm34.235 34.235H45.594V55.754h33.133Zm0 0"/>
  <path fill="#3085ee" stroke="none" d="M78.898 54.652v35.36h35.36v-35.36Zm34.235 34.235H80V55.754h33.133Zm0 0"/>
  <path fill="#3085ee" stroke="none" d="M113.305 54.652v35.36h35.36v-35.36Zm34.234 34.235H114.41V55.754h33.13Zm0 0"/>
  <path fill="#3085ee" stroke="none" d="M147.71 54.652v35.36h35.36v-35.36Zm34.235 34.235h-33.129V55.754h33.13Zm0 0"/>
  <path fill="#3085ee" stroke="none" d="M182.117 54.652v35.36h35.363v-35.36Zm34.235 34.235h-33.13V55.754h33.13Zm0 0"/>
  <path fill="#3085ee" stroke="none" d="M216.527 54.652v35.36h35.36v-35.36Zm34.23 34.235H217.63V55.754h33.129Zm0 0"/>
  <use xlink:href="#a" stroke-linecap="round" transform="matrix(0 -.74922 .75 0 251.436 110.641)"/>
  <use xlink:href="#b" stroke-linejoin="round" transform="matrix(0 -.74922 .75 0 251.436 110.641)"/>
  <use xlink:href="#c" stroke-linejoin="round" transform="matrix(0 -.74922 .75 0 251.436 88.132)"/>
  <path fill="none" stroke="#fff" stroke-linecap="round" d="M4 .001h22.044" transform="matrix(0 -.74922 .75 0 286.35 110.641)"/>
  <path fill="none" stroke="#fff" stroke-linejoin="round" d="M.501-1.499H3.5v3H.501Zm0 0" transform="matrix(0 -.74922 .75 0 286.35 110.641)"/>
  <path fill="none" stroke="#fff" stroke-linejoin="round" d="M-3.5-1.499h2.998v3H-3.5Zm0 0" transform="matrix(0 -.74922 .75 0 286.35 88.132)"/>
  <use xlink:href="#c" stroke-linecap="round" transform="matrix(0 -.74922 .75 0 320.757 110.641)"/>
  <use xlink:href="#d" stroke-linejoin="round" transform="matrix(0 -.74922 .75 0 320.757 110.641)"/>
  <use xlink:href="#f" stroke-linejoin="round" transform="matrix(0 -.74922 .75 0 320.757 88.132)"/>
  <use xlink:href="#c" stroke-linecap="round" transform="matrix(0 -.74922 .75 0 354.324 110.641)"/>
  <use xlink:href="#d" stroke-linejoin="round" transform="matrix(0 -.74922 .75 0 354.324 110.641)"/>
  <use xlink:href="#f" stroke-linejoin="round" transform="matrix(0 -.74922 .75 0 354.324 88.132)"/>
  <use xlink:href="#c" stroke-linecap="round" transform="matrix(0 -.74922 .75 0 389.239 110.641)"/>
  <use xlink:href="#d" stroke-linejoin="round" transform="matrix(0 -.74922 .75 0 389.239 110.641)"/>
  <use xlink:href="#f" stroke-linejoin="round" transform="matrix(0 -.74922 .75 0 389.239 88.132)"/>
  <use xlink:href="#g" stroke-linecap="round" transform="matrix(0 -.74922 .75 0 423.646 110.641)"/>
  <use xlink:href="#e" stroke-linejoin="round" transform="matrix(0 -.74922 .75 0 423.646 110.641)"/>
  <use xlink:href="#i" stroke-linejoin="round" transform="matrix(0 -.74922 .75 0 423.646 88.132)"/>
  <use xlink:href="#c" stroke-linecap="round" transform="matrix(0 -.74922 .75 0 458.152 110.641)"/>
  <use xlink:href="#d" stroke-linejoin="round" transform="matrix(0 -.74922 .75 0 458.152 110.641)"/>
  <use xlink:href="#f" stroke-linejoin="round" transform="matrix(0 -.74922 .75 0 458.152 88.132)"/>
  <use xlink:href="#a" stroke-linecap="round" transform="matrix(0 -.74922 .75 0 492.283 110.641)"/>
  <use xlink:href="#b" stroke-linejoin="round" transform="matrix(0 -.74922 .75 0 492.283 110.641)"/>
  <use xlink:href="#c" stroke-linejoin="round" transform="matrix(0 -.74922 .75 0 492.283 88.132)"/>
  <use xlink:href="#g" stroke-linecap="round" transform="matrix(0 -.74922 .75 0 527.474 110.641)"/>
  <use xlink:href="#e" stroke-linejoin="round" transform="matrix(0 -.74922 .75 0 527.474 110.641)"/>
  <use xlink:href="#i" stroke-linejoin="round" transform="matrix(0 -.74922 .75 0 527.474 88.132)"/>
  <path fill="none" stroke="#fff" stroke-linecap="round" d="M4-.002h22.044" transform="matrix(0 -.74922 .75 0 561.04 110.641)"/>
  <path fill="none" stroke="#fff" stroke-linejoin="round" d="M.501-1.502H3.5v3H.501Zm0 0" transform="matrix(0 -.74922 .75 0 561.04 110.641)"/>
  <path fill="none" stroke="#fff" stroke-linejoin="round" d="M-3.5-1.502h2.998v3H-3.5Zm0 0" transform="matrix(0 -.74922 .75 0 561.04 88.132)"/>
  <path fill="#f6f3f0" stroke="none" d="m251.934 54.121 3.226-4.309c.156-.207.235-.433.235-.664 0-.492-.383-.855-.91-.855h-1.926V26.359a1.502 1.502 0 0 0-1.504-1.468c-.82 0-1.485.652-1.504 1.468v21.934h-1.926c-.527 0-.91.363-.91.855 0 .23.086.457.238.664l3.223 4.31c.226.296.547.468.879.468.34 0 .652-.172.879-.469Zm0 0"/>
  <use xlink:href="#a" x="263.839" y="77.828" fill="#fff"/>
  <use xlink:href="#b" x="296.686" y="77.828" fill="#fff"/>
  <use xlink:href="#f" x="330.887" y="77.828" fill="#fff"/>
  <use xlink:href="#g" x="365.588" y="77.828" fill="#fff"/>
  <use xlink:href="#d" x="400.907" y="77.828" fill="#fff"/>
  <use xlink:href="#f" x="437.47" y="77.828" fill="#fff"/>
  <use xlink:href="#b" x="468.72" y="77.828" fill="#fff"/>
  <use xlink:href="#h" x="502.965" y="77.828" fill="#fff"/>
  <use xlink:href="#f" x="575.097" y="77.828" fill="#fff"/>
  <use xlink:href="#i" x="22.182" y="77.89" fill="#fff"/>
  <use xlink:href="#g" x="90.201" y="77.89" fill="#fff"/>
  <use xlink:href="#j" x="124.755" y="77.89" fill="#fff"/>
  <use xlink:href="#i" x="159.809" y="77.89" fill="#fff"/>
  <use xlink:href="#k" x="194.716" y="77.89" fill="#fff"/>
  <use xlink:href="#l" x="230.86" y="77.89" fill="#fff"/>
  <use xlink:href="#m" x="247.553" y="120.696" fill="#fff"/>
  <use xlink:href="#i" x="283.943" y="120.696" fill="#fff"/>
  <use xlink:href="#n" x="317.468" y="120.696" fill="#fff"/>
  <use xlink:href="#o" x="350.885" y="120.696" fill="#fff"/>
  <use xlink:href="#l" x="385.562" y="120.696" fill="#fff"/>
  <use xlink:href="#p" x="420.15" y="120.696" fill="#fff"/>
  <use xlink:href="#q" x="454.569" y="120.696" fill="#fff"/>
  <use xlink:href="#o" x="489.226" y="120.696" fill="#fff"/>
  <use xlink:href="#r" x="523.791" y="120.696" fill="#fff"/>
  <use xlink:href="#q" x="557.458" y="120.696" fill="#fff"/>
</svg>
