<svg xmlns="http://www.w3.org/2000/svg" xmlns:xlink="http://www.w3.org/1999/xlink" width="800" height="200" version="1.2" viewBox="0 0 600 150">
  <defs>
    <path id="a" d="M.238 20h3.364v3.32H.238Zm0 0"/>
    <path id="b" d="M.238.762h3.364V4H.238Zm0 0"/>
    <path id="c" d="M0 0h4v24H0z"/>
    <path id="f" d="M0 0h9v14H0z"/>
    <path id="d" d="M.32 2H5v9H.32Zm0 0"/>
    <path id="g" d="M0 0h8v14H0z"/>
    <path id="e" d="M0 0h5v24H0z"/>
    <path id="h" d="M.121 2H4v9H.121Zm0 0"/>
    <path id="i" d="M0 0h14v14H0z"/>
    <path id="j" d="M0 0h13v14H0z"/>
    <path id="l" fill="#000" fill-opacity=".298" stroke="none" d="M0 0h600v150H0z"/>
    <path id="n" fill="none" stroke="#fff" stroke-linecap="round" stroke-linejoin="miter" stroke-miterlimit="4" stroke-opacity="1" stroke-width="1" d="M4 .001h21.966"/>
    <path id="p" fill="none" stroke="#fff" stroke-linecap="butt" stroke-linejoin="round" stroke-miterlimit="4" stroke-opacity="1" stroke-width="1" d="M.5-1.5h3.001v2.999h-3Zm0 0"/>
    <path id="u" fill="none" stroke="#fff" stroke-linecap="round" stroke-linejoin="miter" stroke-miterlimit="4" stroke-opacity="1" stroke-width="1" d="M4 0h21.966"/>
    <path id="w" fill="none" stroke="#fff" stroke-linecap="butt" stroke-linejoin="round" stroke-miterlimit="4" stroke-opacity="1" stroke-width="1" d="M.5-1.498h3.001v3h-3Zm0 0"/>
    <path id="C" fill="none" stroke="#fff" stroke-linecap="butt" stroke-linejoin="round" stroke-miterlimit="4" stroke-opacity="1" stroke-width="1" d="M.5-1.501h3.001v2.999h-3Zm0 0"/>
    <path id="O" fill="none" stroke="#fff" stroke-linecap="butt" stroke-linejoin="round" stroke-miterlimit="4" stroke-opacity="1" stroke-width="1" d="M.5-1.5h3.001v3h-3Zm0 0"/>
    <path id="X" fill="none" stroke="#fff" stroke-linecap="butt" stroke-linejoin="round" stroke-miterlimit="4" stroke-opacity="1" stroke-width="1" d="M.5-1.499h3.001v3h-3Zm0 0"/>
    <path id="al" fill="none" stroke="#fff" stroke-linecap="round" stroke-linejoin="miter" stroke-miterlimit="4" stroke-opacity="1" stroke-width="1" d="M4 .002h21.966"/>
    <path id="cs" fill="none" stroke="#fff" stroke-linecap="round" stroke-linejoin="miter" stroke-miterlimit="4" stroke-opacity="1" stroke-width="1" d="M4.002 0h21.966"/>
    <path id="ct" fill="none" stroke="#fff" stroke-linecap="butt" stroke-linejoin="round" stroke-miterlimit="4" stroke-opacity="1" stroke-width="1" d="M.497-1.502h3.001v3h-3Zm0 0"/>
    <path id="cu" fill="none" stroke="#fff" stroke-linecap="butt" stroke-linejoin="round" stroke-miterlimit="4" stroke-opacity="1" stroke-width="1" d="M.497-1.499h3.001v3h-3Zm0 0"/>
    <path id="cv" fill="none" stroke="#fff" stroke-linecap="butt" stroke-linejoin="round" stroke-miterlimit="4" stroke-opacity="1" stroke-width="1" d="M.497-1.498h3.001V1.5h-3Zm0 0"/>
    <path id="cw" fill="none" stroke="#fff" stroke-linecap="round" stroke-linejoin="miter" stroke-miterlimit="4" stroke-opacity="1" stroke-width="1" d="M4.002.002h21.966"/>
    <path id="cx" fill="none" stroke="#fff" stroke-linecap="butt" stroke-linejoin="round" stroke-miterlimit="4" stroke-opacity="1" stroke-width="1" d="M.497-1.5h3.001v2.999h-3Zm0 0"/>
    <path id="cy" fill="none" stroke="#fff" stroke-linecap="butt" stroke-linejoin="round" stroke-miterlimit="4" stroke-opacity="1" stroke-width="1" d="M.497-1.5h3.001v3h-3Zm0 0"/>
    <path id="cz" fill="none" stroke="#fff" stroke-linecap="butt" stroke-linejoin="round" stroke-miterlimit="4" stroke-opacity="1" stroke-width="1" d="M.497-1.502h3.001v3.004h-3Zm0 0"/>
  </defs>
  <defs>
    <clipPath id="o">
      <use xlink:href="#a"/>
    </clipPath>
    <clipPath id="q">
      <use xlink:href="#b"/>
    </clipPath>
    <clipPath id="m">
      <use xlink:href="#c"/>
    </clipPath>
    <clipPath id="r">
      <path d="M.078 2H8v9H.078Zm0 0"/>
    </clipPath>
    <clipPath id="v">
      <path d="M.281 20h3.117v3.32H.281Zm0 0"/>
    </clipPath>
    <clipPath id="x">
      <path d="M.281.762h3.117V4H.281Zm0 0"/>
    </clipPath>
    <clipPath id="t">
      <use xlink:href="#c"/>
    </clipPath>
    <clipPath id="z">
      <use xlink:href="#d"/>
    </clipPath>
    <clipPath id="B">
      <path d="M.602 20h3.117v3.32H.602Zm0 0"/>
    </clipPath>
    <clipPath id="D">
      <path d="M.602.762h3.117V4H.602Zm0 0"/>
    </clipPath>
    <clipPath id="A">
      <use xlink:href="#c"/>
    </clipPath>
    <clipPath id="F">
      <path d="M1 2h6.64v9H1Zm0 0"/>
    </clipPath>
    <clipPath id="H">
      <path d="M1 20h3.32v3.32H1Zm0 0"/>
    </clipPath>
    <clipPath id="I">
      <path d="M1 .762h3.32V4H1Zm0 0"/>
    </clipPath>
    <clipPath id="E">
      <use xlink:href="#e"/>
    </clipPath>
    <clipPath id="J">
      <path d="M.04 2H7v9H.04Zm0 0"/>
    </clipPath>
    <clipPath id="N">
      <path d="M.762 20H4v3.32H.762Zm0 0"/>
    </clipPath>
    <clipPath id="P">
      <path d="M.762.762H4V4H.762Zm0 0"/>
    </clipPath>
    <clipPath id="L">
      <use xlink:href="#e"/>
    </clipPath>
    <clipPath id="M">
      <use xlink:href="#f"/>
    </clipPath>
    <clipPath id="T">
      <path d="M.078 20h3.363v3.32H.078Zm0 0"/>
    </clipPath>
    <clipPath id="U">
      <path d="M.078.762h3.363V4H.078Zm0 0"/>
    </clipPath>
    <clipPath id="R">
      <use xlink:href="#c"/>
    </clipPath>
    <clipPath id="Q">
      <path d="M.16 2H7v9H.16Zm0 0"/>
    </clipPath>
    <clipPath id="S">
      <path d="M.64 20h3.122v3.32H.64Zm0 0"/>
    </clipPath>
    <clipPath id="Y">
      <path d="M.64.762h3.122V4H.64Zm0 0"/>
    </clipPath>
    <clipPath id="W">
      <use xlink:href="#c"/>
    </clipPath>
    <clipPath id="aa">
      <use xlink:href="#f"/>
    </clipPath>
    <clipPath id="ad">
      <path d="M.441 20H3.56v3.32H.44Zm0 0"/>
    </clipPath>
    <clipPath id="ae">
      <path d="M.441.762H3.56V4H.44Zm0 0"/>
    </clipPath>
    <clipPath id="ac">
      <use xlink:href="#c"/>
    </clipPath>
    <clipPath id="af">
      <use xlink:href="#g"/>
    </clipPath>
    <clipPath id="ag">
      <path d="M.762 20h3.117v3.32H.762Zm0 0"/>
    </clipPath>
    <clipPath id="ah">
      <path d="M.762.762h3.117V4H.762Zm0 0"/>
    </clipPath>
    <clipPath id="Z">
      <use xlink:href="#c"/>
    </clipPath>
    <clipPath id="ai">
      <use xlink:href="#f"/>
    </clipPath>
    <clipPath id="am">
      <path d="M.121 20h3.36v3.32H.12Zm0 0"/>
    </clipPath>
    <clipPath id="an">
      <path d="M.121.762h3.36V4H.12Zm0 0"/>
    </clipPath>
    <clipPath id="ak">
      <use xlink:href="#c"/>
    </clipPath>
    <clipPath id="ao">
      <path d="M.2 2H7v9H.2Zm0 0"/>
    </clipPath>
    <clipPath id="ar">
      <path d="M1 20h3.281v3.32H1Zm0 0"/>
    </clipPath>
    <clipPath id="as">
      <path d="M1 .762h3.281V4H1Zm0 0"/>
    </clipPath>
    <clipPath id="aq">
      <use xlink:href="#e"/>
    </clipPath>
    <clipPath id="au">
      <use xlink:href="#h"/>
    </clipPath>
    <clipPath id="at">
      <use xlink:href="#i"/>
    </clipPath>
    <clipPath id="aw">
      <use xlink:href="#a"/>
    </clipPath>
    <clipPath id="ap">
      <use xlink:href="#b"/>
    </clipPath>
    <clipPath id="av">
      <use xlink:href="#c"/>
    </clipPath>
    <clipPath id="ay">
      <use xlink:href="#h"/>
    </clipPath>
    <clipPath id="ax">
      <path d="M0 0h10v14H0z"/>
    </clipPath>
    <clipPath id="aA">
      <path d="M.32 20h3.36v3.32H.32Zm0 0"/>
    </clipPath>
    <clipPath id="aB">
      <path d="M.32.762h3.36V4H.32Zm0 0"/>
    </clipPath>
    <clipPath id="az">
      <use xlink:href="#c"/>
    </clipPath>
    <clipPath id="aD">
      <path d="M.238 2H4v9H.238Zm0 0"/>
    </clipPath>
    <clipPath id="aC">
      <use xlink:href="#j"/>
    </clipPath>
    <clipPath id="aF">
      <path d="M.64 20H4v3.32H.64Zm0 0"/>
    </clipPath>
    <clipPath id="aG">
      <path d="M.64.762H4V4H.64Zm0 0"/>
    </clipPath>
    <clipPath id="aE">
      <use xlink:href="#c"/>
    </clipPath>
    <clipPath id="aI">
      <use xlink:href="#d"/>
    </clipPath>
    <clipPath id="aH">
      <use xlink:href="#j"/>
    </clipPath>
    <clipPath id="aK">
      <path d="M0 20h3.36v3.32H0Zm0 0"/>
    </clipPath>
    <clipPath id="aL">
      <path d="M0 .762h3.36V4H0Zm0 0"/>
    </clipPath>
    <clipPath id="aJ">
      <use xlink:href="#c"/>
    </clipPath>
    <clipPath id="aM">
      <use xlink:href="#i"/>
    </clipPath>
    <clipPath id="aO">
      <path d="M.04 20h3.12v3.32H.04Zm0 0"/>
    </clipPath>
    <clipPath id="aP">
      <path d="M.04.762h3.12V4H.04Zm0 0"/>
    </clipPath>
    <clipPath id="aN">
      <use xlink:href="#c"/>
    </clipPath>
    <clipPath id="aQ">
      <use xlink:href="#j"/>
    </clipPath>
    <clipPath id="aS">
      <path d="M.36 20h3.12v3.32H.36Zm0 0"/>
    </clipPath>
    <clipPath id="aT">
      <path d="M.36.762h3.12V4H.36Zm0 0"/>
    </clipPath>
    <clipPath id="aR">
      <use xlink:href="#c"/>
    </clipPath>
    <clipPath id="aU">
      <use xlink:href="#i"/>
    </clipPath>
    <mask id="bd">
      <g filter="url(#k)">
        <use xlink:href="#l" fill-opacity=".298"/>
      </g>
    </mask>
    <mask id="bf">
      <g filter="url(#k)">
        <use xlink:href="#l" fill-opacity=".298"/>
      </g>
    </mask>
    <mask id="bh">
      <g filter="url(#k)">
        <use xlink:href="#l" fill-opacity=".298"/>
      </g>
    </mask>
    <mask id="bj">
      <g filter="url(#k)">
        <use xlink:href="#l" fill-opacity=".298"/>
      </g>
    </mask>
    <mask id="bl">
      <g filter="url(#k)">
        <use xlink:href="#l" fill-opacity=".298"/>
      </g>
    </mask>
    <mask id="bn">
      <g filter="url(#k)">
        <use xlink:href="#l" fill-opacity=".298"/>
      </g>
    </mask>
    <mask id="bp">
      <g filter="url(#k)">
        <use xlink:href="#l" fill-opacity=".298"/>
      </g>
    </mask>
    <mask id="br">
      <g filter="url(#k)">
        <use xlink:href="#l" fill-opacity=".298"/>
      </g>
    </mask>
    <mask id="bt">
      <g filter="url(#k)">
        <use xlink:href="#l" fill-opacity=".298"/>
      </g>
    </mask>
    <mask id="bv">
      <g filter="url(#k)">
        <use xlink:href="#l" fill-opacity=".298"/>
      </g>
    </mask>
    <mask id="bx">
      <g filter="url(#k)">
        <use xlink:href="#l" fill-opacity=".298"/>
      </g>
    </mask>
    <mask id="bz">
      <g filter="url(#k)">
        <use xlink:href="#l" fill-opacity=".298"/>
      </g>
    </mask>
    <mask id="bB">
      <g filter="url(#k)">
        <use xlink:href="#l" fill-opacity=".298"/>
      </g>
    </mask>
    <mask id="bD">
      <g filter="url(#k)">
        <use xlink:href="#l" fill-opacity=".298"/>
      </g>
    </mask>
    <mask id="bF">
      <g filter="url(#k)">
        <use xlink:href="#l" fill-opacity=".298"/>
      </g>
    </mask>
    <mask id="bH">
      <g filter="url(#k)">
        <use xlink:href="#l" fill-opacity=".298"/>
      </g>
    </mask>
    <mask id="bJ">
      <g filter="url(#k)">
        <use xlink:href="#l" fill-opacity=".298"/>
      </g>
    </mask>
    <mask id="bL">
      <g filter="url(#k)">
        <use xlink:href="#l" fill-opacity=".298"/>
      </g>
    </mask>
    <mask id="bN">
      <g filter="url(#k)">
        <use xlink:href="#l" fill-opacity=".298"/>
      </g>
    </mask>
    <mask id="bP">
      <g filter="url(#k)">
        <use xlink:href="#l" fill-opacity=".298"/>
      </g>
    </mask>
    <mask id="bR">
      <g filter="url(#k)">
        <use xlink:href="#l" fill-opacity=".298"/>
      </g>
    </mask>
    <mask id="bT">
      <g filter="url(#k)">
        <use xlink:href="#l" fill-opacity=".298"/>
      </g>
    </mask>
    <mask id="bV">
      <g filter="url(#k)">
        <use xlink:href="#l" fill-opacity=".298"/>
      </g>
    </mask>
    <mask id="bX">
      <g filter="url(#k)">
        <use xlink:href="#l" fill-opacity=".298"/>
      </g>
    </mask>
    <mask id="bZ">
      <g filter="url(#k)">
        <use xlink:href="#l" fill-opacity=".298"/>
      </g>
    </mask>
    <mask id="cb">
      <g filter="url(#k)">
        <use xlink:href="#l" fill-opacity=".298"/>
      </g>
    </mask>
    <mask id="cd">
      <g filter="url(#k)">
        <use xlink:href="#l" fill-opacity=".298"/>
      </g>
    </mask>
    <mask id="cf">
      <g filter="url(#k)">
        <use xlink:href="#l" fill-opacity=".298"/>
      </g>
    </mask>
    <mask id="ch">
      <g filter="url(#k)">
        <use xlink:href="#l" fill-opacity=".298"/>
      </g>
    </mask>
    <mask id="cj">
      <g filter="url(#k)">
        <use xlink:href="#l" fill-opacity=".298"/>
      </g>
    </mask>
    <mask id="cl">
      <g filter="url(#k)">
        <use xlink:href="#l" fill-opacity=".298"/>
      </g>
    </mask>
    <mask id="cn">
      <g filter="url(#k)">
        <use xlink:href="#l" fill-opacity=".298"/>
      </g>
    </mask>
    <mask id="cp">
      <g filter="url(#k)">
        <use xlink:href="#l" fill-opacity=".298"/>
      </g>
    </mask>
    <mask id="cr">
      <g filter="url(#k)">
        <use xlink:href="#l" fill-opacity=".298"/>
      </g>
    </mask>
    <g id="bc" clip-path="url(#m)">
      <use xlink:href="#n" stroke-linecap="round" transform="matrix(0 -.75117 .7619 0 1.995 23.314)"/>
      <g clip-path="url(#o)">
        <use xlink:href="#p" stroke-linejoin="round" transform="matrix(0 -.75117 .7619 0 1.995 23.314)"/>
      </g>
      <g clip-path="url(#q)">
        <use xlink:href="#r" stroke-linejoin="round" transform="matrix(0 -.75117 .7619 0 1.995 .803)"/>
      </g>
    </g>
    <g id="be" clip-path="url(#r)">
      <use xlink:href="#s" x=".111" y="10.348" fill="#fff"/>
    </g>
    <g id="bg" clip-path="url(#t)">
      <use xlink:href="#u" stroke-linecap="round" transform="matrix(0 -.75117 .7619 0 1.82 23.314)"/>
      <g clip-path="url(#v)">
        <use xlink:href="#w" stroke-linejoin="round" transform="matrix(0 -.75117 .7619 0 1.82 23.314)"/>
      </g>
      <g clip-path="url(#x)">
        <use xlink:href="#y" stroke-linejoin="round" transform="matrix(0 -.75117 .7619 0 1.82 .803)"/>
      </g>
    </g>
    <g id="bi" clip-path="url(#z)">
      <use xlink:href="#y" x=".408" y="10.348" fill="#fff"/>
    </g>
    <g id="bk" clip-path="url(#A)">
      <use xlink:href="#u" stroke-linecap="round" transform="matrix(0 -.75117 .7619 0 2.14 23.314)"/>
      <g clip-path="url(#B)">
        <use xlink:href="#C" stroke-linejoin="round" transform="matrix(0 -.75117 .7619 0 2.14 23.314)"/>
      </g>
      <g clip-path="url(#D)">
        <use xlink:href="#E" stroke-linejoin="round" transform="matrix(0 -.75117 .7619 0 2.14 .803)"/>
      </g>
    </g>
    <g id="bm" clip-path="url(#F)">
      <use xlink:href="#G" x=".848" y="10.348" fill="#fff"/>
    </g>
    <g id="bo" clip-path="url(#E)">
      <use xlink:href="#u" stroke-linecap="round" transform="matrix(0 -.75117 .7619 0 2.621 23.314)"/>
      <g clip-path="url(#H)">
        <path fill="none" stroke="#fff" stroke-linejoin="round" d="M.5-1.503h3.001v3.005h-3Zm0 0" transform="matrix(0 -.75117 .7619 0 2.621 23.314)"/>
      </g>
      <g clip-path="url(#I)">
        <path fill="none" stroke="#fff" stroke-linejoin="round" d="M-3.502-1.503h3v3.005h-3Zm0 0" transform="matrix(0 -.75117 .7619 0 2.621 .803)"/>
      </g>
    </g>
    <g id="bq" clip-path="url(#J)">
      <use xlink:href="#K" x=".18" y="10.348" fill="#fff"/>
    </g>
    <g id="bs" clip-path="url(#L)">
      <use xlink:href="#M" stroke-linecap="round" transform="matrix(0 -.75117 .7619 0 2.447 23.314)"/>
      <g clip-path="url(#N)">
        <use xlink:href="#O" stroke-linejoin="round" transform="matrix(0 -.75117 .7619 0 2.447 23.314)"/>
      </g>
      <g clip-path="url(#P)">
        <use xlink:href="#Q" stroke-linejoin="round" transform="matrix(0 -.75117 .7619 0 2.447 .803)"/>
      </g>
    </g>
    <g id="bu" clip-path="url(#M)">
      <use xlink:href="#B" x=".769" y="10.348" fill="#fff"/>
    </g>
    <g id="bw" clip-path="url(#R)">
      <use xlink:href="#S" stroke-linecap="round" transform="matrix(0 -.75117 .7619 0 1.766 23.314)"/>
      <g clip-path="url(#T)">
        <use xlink:href="#w" stroke-linejoin="round" transform="matrix(0 -.75117 .7619 0 1.766 23.314)"/>
      </g>
      <g clip-path="url(#U)">
        <use xlink:href="#y" stroke-linejoin="round" transform="matrix(0 -.75117 .7619 0 1.766 .803)"/>
      </g>
    </g>
    <g id="by" clip-path="url(#Q)">
      <use xlink:href="#V" x=".269" y="10.348" fill="#fff"/>
    </g>
    <g id="bA" clip-path="url(#W)">
      <use xlink:href="#M" stroke-linecap="round" transform="matrix(0 -.75117 .7619 0 2.185 23.314)"/>
      <g clip-path="url(#S)">
        <use xlink:href="#X" stroke-linejoin="round" transform="matrix(0 -.75117 .7619 0 2.185 23.314)"/>
      </g>
      <g clip-path="url(#Y)">
        <use xlink:href="#Z" stroke-linejoin="round" transform="matrix(0 -.75117 .7619 0 2.185 .803)"/>
      </g>
    </g>
    <g id="bC" clip-path="url(#aa)">
      <use xlink:href="#ab" x=".6" y="10.348" fill="#fff"/>
    </g>
    <g id="bE" clip-path="url(#ac)">
      <use xlink:href="#n" stroke-linecap="round" transform="matrix(0 -.75117 .7619 0 2.01 23.314)"/>
      <g clip-path="url(#ad)">
        <path fill="none" stroke="#fff" stroke-linejoin="round" d="M.5-1.501h3.001v3h-3Zm0 0" transform="matrix(0 -.75117 .7619 0 2.01 23.314)"/>
      </g>
      <g clip-path="url(#ae)">
        <path fill="none" stroke="#fff" stroke-linejoin="round" d="M-3.502-1.501h3v3h-3Zm0 0" transform="matrix(0 -.75117 .7619 0 2.01 .803)"/>
      </g>
    </g>
    <g id="bG" clip-path="url(#af)">
      <use xlink:href="#Q" x=".95" y="10.348" fill="#fff"/>
    </g>
    <g id="bI" clip-path="url(#Z)">
      <use xlink:href="#M" stroke-linecap="round" transform="matrix(0 -.75117 .7619 0 2.33 23.314)"/>
      <g clip-path="url(#ag)">
        <use xlink:href="#O" stroke-linejoin="round" transform="matrix(0 -.75117 .7619 0 2.33 23.314)"/>
      </g>
      <g clip-path="url(#ah)">
        <use xlink:href="#Q" stroke-linejoin="round" transform="matrix(0 -.75117 .7619 0 2.33 .803)"/>
      </g>
    </g>
    <g id="bK" clip-path="url(#ai)">
      <use xlink:href="#aj" x=".646" y="10.348" fill="#fff"/>
    </g>
    <g id="bM" clip-path="url(#ak)">
      <use xlink:href="#al" stroke-linecap="round" transform="matrix(0 -.75117 .7619 0 1.811 23.314)"/>
      <g clip-path="url(#am)">
        <use xlink:href="#p" stroke-linejoin="round" transform="matrix(0 -.75117 .7619 0 1.811 23.314)"/>
      </g>
      <g clip-path="url(#an)">
        <use xlink:href="#r" stroke-linejoin="round" transform="matrix(0 -.75117 .7619 0 1.811 .803)"/>
      </g>
    </g>
    <g id="bO" clip-path="url(#ao)">
      <use xlink:href="#ap" x=".227" y="10.348" fill="#fff"/>
    </g>
    <g id="bQ" clip-path="url(#aq)">
      <use xlink:href="#u" stroke-linecap="round" transform="matrix(0 -.75117 .7619 0 2.637 23.314)"/>
      <g clip-path="url(#ar)">
        <use xlink:href="#w" stroke-linejoin="round" transform="matrix(0 -.75117 .7619 0 2.637 23.314)"/>
      </g>
      <g clip-path="url(#as)">
        <use xlink:href="#y" stroke-linejoin="round" transform="matrix(0 -.75117 .7619 0 2.637 .803)"/>
      </g>
    </g>
    <g id="bS" clip-path="url(#at)">
      <g clip-path="url(#au)">
        <use xlink:href="#y" x=".347" y="10.348" fill="#fff"/>
      </g>
      <use xlink:href="#s" x="5.159" y="10.348" fill="#fff"/>
    </g>
    <g id="bU" clip-path="url(#av)">
      <use xlink:href="#u" stroke-linecap="round" transform="matrix(0 -.75117 .7619 0 1.956 23.314)"/>
      <g clip-path="url(#aw)">
        <use xlink:href="#C" stroke-linejoin="round" transform="matrix(0 -.75117 .7619 0 1.956 23.314)"/>
      </g>
      <g clip-path="url(#ap)">
        <use xlink:href="#E" stroke-linejoin="round" transform="matrix(0 -.75117 .7619 0 1.956 .803)"/>
      </g>
    </g>
    <g id="bW" clip-path="url(#ax)">
      <g clip-path="url(#ay)">
        <use xlink:href="#y" x=".137" y="10.348" fill="#fff"/>
      </g>
      <use xlink:href="#y" x="4.949" y="10.348" fill="#fff"/>
    </g>
    <g id="bY" clip-path="url(#az)">
      <use xlink:href="#al" stroke-linecap="round" transform="matrix(0 -.75117 .7619 0 1.955 23.314)"/>
      <g clip-path="url(#aA)">
        <use xlink:href="#O" stroke-linejoin="round" transform="matrix(0 -.75117 .7619 0 1.955 23.314)"/>
      </g>
      <g clip-path="url(#aB)">
        <use xlink:href="#Q" stroke-linejoin="round" transform="matrix(0 -.75117 .7619 0 1.955 .803)"/>
      </g>
    </g>
    <g id="ca" clip-path="url(#aC)">
      <g clip-path="url(#aD)">
        <use xlink:href="#y" x=".257" y="10.348" fill="#fff"/>
      </g>
      <use xlink:href="#G" x="5.069" y="10.348" fill="#fff"/>
    </g>
    <g id="cc" clip-path="url(#aE)">
      <use xlink:href="#S" stroke-linecap="round" transform="matrix(0 -.75117 .7619 0 2.275 23.314)"/>
      <g clip-path="url(#aF)">
        <use xlink:href="#X" stroke-linejoin="round" transform="matrix(0 -.75117 .7619 0 2.275 23.314)"/>
      </g>
      <g clip-path="url(#aG)">
        <use xlink:href="#Z" stroke-linejoin="round" transform="matrix(0 -.75117 .7619 0 2.275 .803)"/>
      </g>
    </g>
    <g id="ce" clip-path="url(#aH)">
      <g clip-path="url(#aI)">
        <use xlink:href="#y" x=".427" y="10.348" fill="#fff"/>
      </g>
      <use xlink:href="#K" x="5.239" y="10.348" fill="#fff"/>
    </g>
    <g id="cg" clip-path="url(#aJ)">
      <path fill="none" stroke="#fff" stroke-linecap="round" d="M4-.003h21.966" transform="matrix(0 -.75117 .7619 0 1.756 23.314)"/>
      <g clip-path="url(#aK)">
        <use xlink:href="#O" stroke-linejoin="round" transform="matrix(0 -.75117 .7619 0 1.756 23.314)"/>
      </g>
      <g clip-path="url(#aL)">
        <use xlink:href="#Q" stroke-linejoin="round" transform="matrix(0 -.75117 .7619 0 1.756 .803)"/>
      </g>
    </g>
    <g id="ci" fill="#fff" fill-opacity="1" clip-path="url(#aM)">
      <use xlink:href="#y" x=".671" y="10.348"/>
      <use xlink:href="#B" x="5.483" y="10.348"/>
    </g>
    <g id="ck" clip-path="url(#aN)">
      <use xlink:href="#u" stroke-linecap="round" transform="matrix(0 -.75117 .7619 0 1.582 23.314)"/>
      <g clip-path="url(#aO)">
        <path fill="none" stroke="#fff" stroke-linejoin="round" d="M.5-1.502h3.001v3h-3Zm0 0" transform="matrix(0 -.75117 .7619 0 1.582 23.314)"/>
      </g>
      <g clip-path="url(#aP)">
        <path fill="none" stroke="#fff" stroke-linejoin="round" d="M-3.502-1.502h3v3h-3Zm0 0" transform="matrix(0 -.75117 .7619 0 1.582 .803)"/>
      </g>
    </g>
    <g id="cm" fill="#fff" fill-opacity="1" clip-path="url(#aQ)">
      <use xlink:href="#y" x=".678" y="10.348"/>
      <use xlink:href="#V" x="5.49" y="10.348"/>
    </g>
    <g id="co" clip-path="url(#aR)">
      <use xlink:href="#al" stroke-linecap="round" transform="matrix(0 -.75117 .7619 0 1.9 23.314)"/>
      <g clip-path="url(#aS)">
        <use xlink:href="#p" stroke-linejoin="round" transform="matrix(0 -.75117 .7619 0 1.9 23.314)"/>
      </g>
      <g clip-path="url(#aT)">
        <use xlink:href="#r" stroke-linejoin="round" transform="matrix(0 -.75117 .7619 0 1.9 .803)"/>
      </g>
    </g>
    <g id="cq" fill="#fff" fill-opacity="1" clip-path="url(#aU)">
      <use xlink:href="#y" x=".91" y="10.348"/>
      <use xlink:href="#ab" x="5.722" y="10.348"/>
    </g>
    <symbol id="aV" overflow="visible">
      <path stroke="none" d="M5.89-11.844c.926 0 1.696.188 2.313.563a4.013 4.013 0 0 1 1.469 1.469v-5.876h1.969V-4.39c0 .399.015.97.046 1.72.04.75.16 1.64.36 2.671h-1.86l-.515-1.766a4.066 4.066 0 0 1-1.469 1.5c-.617.364-1.387.547-2.312.547a4.697 4.697 0 0 1-1.907-.406 4.865 4.865 0 0 1-1.593-1.188c-.45-.519-.813-1.156-1.094-1.906C1.023-3.969.89-4.82.89-5.78c0-.946.132-1.797.406-2.547.281-.758.644-1.395 1.094-1.906a4.66 4.66 0 0 1 1.593-1.188 4.529 4.529 0 0 1 1.907-.422ZM3.095-5.78c0 1.398.3 2.476.906 3.234.602.762 1.406 1.14 2.406 1.14 1.008 0 1.813-.378 2.407-1.14.601-.758.906-1.836.906-3.234 0-1.395-.305-2.469-.906-3.219-.594-.758-1.399-1.14-2.407-1.14-1 0-1.804.382-2.406 1.14-.605.75-.906 1.824-.906 3.219Zm0 0"/>
    </symbol>
    <symbol id="aW" overflow="visible">
      <path stroke="none" d="M6.547-11.844c.926 0 1.738.188 2.437.563.707.367 1.29.855 1.75 1.469A5.84 5.84 0 0 1 11.75-7.72c.219.793.297 1.606.234 2.438H3c.031.73.164 1.343.406 1.843.25.493.551.883.906 1.172.352.293.735.5 1.141.625s.785.188 1.14.188c.657 0 1.208-.098 1.657-.297a2.77 2.77 0 0 0 1.078-.86l1.89.563c-.417.688-1.015 1.25-1.796 1.688-.781.425-1.727.64-2.828.64-.907 0-1.719-.156-2.438-.469a5.18 5.18 0 0 1-1.797-1.28 5.65 5.65 0 0 1-1.093-1.938 7.407 7.407 0 0 1-.375-2.39c0-.927.144-1.759.437-2.5.29-.75.688-1.384 1.188-1.907a5.287 5.287 0 0 1 1.796-1.203 5.77 5.77 0 0 1 2.235-.438ZM9.89-6.859c0-.407-.079-.805-.235-1.204a3.194 3.194 0 0 0-.672-1.062c-.293-.3-.64-.547-1.046-.734a3.287 3.287 0 0 0-1.391-.282c-.438 0-.86.063-1.266.188s-.765.32-1.078.578c-.312.25-.578.586-.797 1-.21.418-.336.922-.375 1.516Zm0 0"/>
    </symbol>
    <symbol id="aX" overflow="visible">
      <path stroke="none" d="M5.828-11.844c.938 0 1.695.188 2.281.563a4.133 4.133 0 0 1 1.422 1.469l.547-1.829H11.5v10.532c0 .586-.023 1.132-.063 1.656A4.303 4.303 0 0 1 11.11 2a3.49 3.49 0 0 1-.859 1.203c-.387.363-.914.676-1.578.938a5.73 5.73 0 0 1-1.063.28 6.832 6.832 0 0 1-2.594-.063 5.076 5.076 0 0 1-1.327-.483 4.029 4.029 0 0 1-1.079-.844 3.348 3.348 0 0 1-.703-1.25l1.969-.531c.113.313.266.563.453.75.188.195.395.348.625.453.238.113.484.192.734.235.258.05.508.078.75.078.29 0 .551-.028.782-.079.238-.042.414-.078.531-.109.363-.125.656-.277.875-.453a1.89 1.89 0 0 0 .547-.64 2.88 2.88 0 0 0 .281-.907c.05-.355.078-.765.078-1.234v-1.547A4.12 4.12 0 0 1 8.11-.75c-.586.355-1.343.531-2.28.531a4.735 4.735 0 0 1-1.86-.375 4.533 4.533 0 0 1-1.578-1.11c-.45-.487-.813-1.093-1.094-1.812-.274-.726-.406-1.562-.406-2.5 0-.937.132-1.765.406-2.484.281-.719.644-1.32 1.094-1.813a4.615 4.615 0 0 1 3.438-1.531ZM3.031-6.016c0 1.336.301 2.36.906 3.079.614.718 1.407 1.078 2.376 1.078.437 0 .851-.079 1.25-.235a2.609 2.609 0 0 0 1.046-.734c.301-.332.54-.758.72-1.281.187-.532.28-1.164.28-1.907 0-.726-.093-1.351-.28-1.875-.18-.53-.419-.957-.72-1.28a2.648 2.648 0 0 0-1.046-.735 3.383 3.383 0 0 0-1.25-.235c-.97 0-1.762.356-2.375 1.063-.606.71-.907 1.73-.907 3.062Zm0 0"/>
    </symbol>
    <symbol id="aY" overflow="visible">
      <path stroke="none" d="M2.625-3.328a2.425 2.425 0 0 0 1.141 1.5c.28.156.578.273.89.344.313.062.63.093.953.093.344 0 .676-.035 1-.109.332-.082.63-.203.891-.36.258-.156.469-.335.625-.546a1.16 1.16 0 0 0 .234-.719c0-.531-.187-.926-.562-1.188-.367-.269-.824-.476-1.375-.625a15.797 15.797 0 0 0-1.766-.39 9.163 9.163 0 0 1-1.781-.5 3.529 3.529 0 0 1-1.36-.984C1.149-7.25.97-7.853.97-8.626c0-.508.125-.969.375-1.375a3.358 3.358 0 0 1 1.015-1.016 4.483 4.483 0 0 1 1.438-.625 6.384 6.384 0 0 1 1.656-.218c.914 0 1.781.195 2.594.578.82.386 1.41.984 1.765 1.797l-1.843.671c-.211-.468-.57-.812-1.078-1.03a3.87 3.87 0 0 0-1.579-.345c-.304 0-.593.04-.875.11a2.67 2.67 0 0 0-.75.281c-.218.125-.398.29-.53.485a1.15 1.15 0 0 0-.204.671c0 .47.18.813.547 1.032.375.218.832.398 1.375.53.55.138 1.145.263 1.781.376a6.926 6.926 0 0 1 1.766.531c.55.25 1.008.606 1.375 1.063.375.449.562 1.09.562 1.921 0 .543-.136 1.032-.406 1.47A3.54 3.54 0 0 1 8.891-.626a5.39 5.39 0 0 1-1.516.672A6.574 6.574 0 0 1 5.609.28c-.5 0-1-.062-1.5-.187a5.71 5.71 0 0 1-1.406-.516 4.621 4.621 0 0 1-1.172-.906 3.81 3.81 0 0 1-.797-1.297Zm0 0"/>
    </symbol>
    <symbol id="aZ" overflow="visible">
      <path stroke="none" d="M8.766-7.188c.03-.988-.168-1.75-.594-2.28-.43-.532-1.11-.798-2.047-.798-.7 0-1.273.164-1.719.485a2.156 2.156 0 0 0-.86 1.328l-1.905-.563a3.85 3.85 0 0 1 1.671-2.078c.813-.5 1.743-.75 2.797-.75 1.614 0 2.782.383 3.5 1.14.727.75 1.102 1.95 1.125 3.595l.016 2.718c.02.993.063 1.836.125 2.532.07.687.164 1.308.281 1.859H9.344l-.469-1.594a3.694 3.694 0 0 1-1.484 1.39c-.625.321-1.454.485-2.485.485A5.045 5.045 0 0 1 3.36.047a3.832 3.832 0 0 1-1.28-.64 3.25 3.25 0 0 1-.876-1.063c-.21-.414-.312-.89-.312-1.422 0-.688.187-1.266.562-1.735.375-.468.899-.851 1.578-1.156.688-.312 1.516-.554 2.485-.734a58.84 58.84 0 0 1 3.25-.484ZM3.078-3.125c0 .555.195.996.594 1.328.406.336.957.5 1.656.5.457 0 .899-.055 1.328-.172a3.005 3.005 0 0 0 1.14-.578c.345-.281.614-.648.813-1.11.207-.456.313-1.034.313-1.734v-.718a46.28 46.28 0 0 0-2.422.312c-.719.117-1.336.266-1.844.453-.511.188-.902.422-1.172.703-.273.274-.406.61-.406 1.016Zm0 0"/>
    </symbol>
    <symbol id="ba" overflow="visible">
      <path stroke="none" d="m2.188-11.625 2.859 8.969 2.875-8.969h2.156L5.938.515a9.885 9.885 0 0 1-.625 1.563c-.211.426-.461.766-.75 1.016-.282.25-.637.426-1.063.531-.43.102-.969.156-1.625.156h-1V2.047h.797a7.07 7.07 0 0 0 1.016-.063 1.399 1.399 0 0 0 1.124-.89c.126-.262.254-.617.391-1.063L0-11.625Zm0 0"/>
    </symbol>
    <symbol id="bb" overflow="visible">
      <path stroke="none" d="M1.781-1.219c0-.426.145-.785.438-1.078.3-.3.656-.453 1.062-.453.426 0 .785.152 1.078.453.301.293.454.652.454 1.078 0 .407-.153.762-.454 1.063A1.48 1.48 0 0 1 3.281.28c-.406 0-.761-.148-1.062-.437A1.473 1.473 0 0 1 1.78-1.22ZM2.25-11.64v-4.046h2.094v4.046l-.422 7.063h-1.25Zm0 0"/>
    </symbol>
    <symbol id="s" overflow="visible">
      <path stroke="none" d="M.719-4.016c0-1.332.265-2.351.797-3.062.539-.707 1.328-1.063 2.359-1.063 1.04 0 1.828.356 2.36 1.063.53.71.796 1.73.796 3.062 0 1.356-.265 2.387-.797 3.094C5.704-.21 4.914.141 3.875.141c-1.031 0-1.82-.352-2.36-1.063C.986-1.629.72-2.66.72-4.016Zm1.094 0c0 1.063.164 1.875.5 2.438.332.562.851.844 1.562.844.55 0 .992-.18 1.328-.547L2.047-5.813A3.943 3.943 0 0 0 1.859-5a9.674 9.674 0 0 0-.046.984Zm.78-2.765 3.157 4.5c.133-.477.203-1.055.203-1.735 0-1.039-.172-1.836-.516-2.39-.335-.563-.855-.844-1.562-.844-.523 0-.95.156-1.281.469Zm0 0"/>
    </symbol>
    <symbol id="y" overflow="visible">
      <path stroke="none" d="M.5-6.031v-.797c.29 0 .566-.016.828-.047.258-.031.492-.086.703-.172.219-.082.406-.195.563-.344.164-.156.289-.359.375-.609h.672v8h-1v-6.031Zm0 0"/>
    </symbol>
    <symbol id="G" overflow="visible">
      <path stroke="none" d="M.406 0v-.89a40.399 40.399 0 0 0 1.89-1.47 13.42 13.42 0 0 0 1.407-1.296c.383-.406.676-.797.875-1.172.207-.375.313-.734.313-1.078 0-.414-.133-.75-.391-1-.262-.258-.633-.39-1.11-.39-.199 0-.386.026-.562.077-.18.043-.34.121-.484.235a1.51 1.51 0 0 0-.39.421 1.463 1.463 0 0 0-.235.61L.703-6.25c.145-.582.453-1.04.922-1.375.477-.344 1.07-.516 1.781-.516.375 0 .711.047 1.016.141.312.094.578.23.797.406a1.942 1.942 0 0 1 .734 1.547c0 .469-.117.922-.344 1.36a6.46 6.46 0 0 1-.921 1.296c-.375.43-.82.844-1.329 1.25-.511.407-1.043.813-1.593 1.22h4.39V0Zm0 0"/>
    </symbol>
    <symbol id="K" overflow="visible">
      <path stroke="none" d="m.5-1.813 1-.28c.082.429.27.773.563 1.03.289.25.69.375 1.203.375.53 0 .96-.128 1.296-.39.344-.27.516-.656.516-1.156 0-.383-.101-.68-.297-.891a1.66 1.66 0 0 0-.703-.438 3.398 3.398 0 0 0-.828-.171 9.751 9.751 0 0 0-.64-.032v-.906c.218 0 .456-.008.718-.031.27-.02.52-.07.75-.156.227-.082.414-.211.563-.391.156-.188.234-.438.234-.75 0-.207-.043-.395-.125-.563a1.17 1.17 0 0 0-.344-.406 1.328 1.328 0 0 0-.484-.25 2.323 2.323 0 0 0-.61-.078c-.492 0-.882.125-1.171.375a1.59 1.59 0 0 0-.532.969L.625-6.25a2.4 2.4 0 0 1 .906-1.375c.457-.344 1.063-.516 1.813-.516.344 0 .672.04.984.11a2.3 2.3 0 0 1 .813.36c.238.155.425.366.562.624.145.25.219.563.219.938 0 .406-.117.777-.344 1.109-.219.324-.539.574-.953.75.3.094.547.215.734.36.196.136.352.292.47.468.124.18.206.367.25.563.05.199.077.402.077.609 0 .406-.086.762-.25 1.063a2.093 2.093 0 0 1-.64.75c-.262.187-.57.335-.922.437C4 .094 3.633.14 3.25.14 2.844.14 2.484.095 2.172 0a2.584 2.584 0 0 1-.797-.422 2.327 2.327 0 0 1-.547-.625A2.716 2.716 0 0 1 .5-1.813Zm0 0"/>
    </symbol>
    <symbol id="V" overflow="visible">
      <path stroke="none" d="m.64-1.813.985-.28c.094.437.281.78.563 1.03.28.25.687.375 1.218.375.239 0 .461-.039.672-.125.219-.093.406-.218.563-.375a1.74 1.74 0 0 0 .39-.609c.102-.238.157-.516.157-.828a2.007 2.007 0 0 0-.579-1.453 1.581 1.581 0 0 0-.578-.344 2.102 2.102 0 0 0-.64-.11c-.211 0-.403.032-.579.095a2.04 2.04 0 0 0-.453.203 1.59 1.59 0 0 0-.328.296 1.23 1.23 0 0 0-.187.297l-.985-.28L1.36-8h4.579v.969H2.171l-.281 2.25c.207-.207.46-.36.765-.453.301-.102.617-.157.953-.157a2.677 2.677 0 0 1 1.844.72c.238.23.426.515.563.859.144.343.218.734.218 1.171 0 .461-.078.868-.234 1.22a2.704 2.704 0 0 1-.625.874 2.57 2.57 0 0 1-.906.516A3.292 3.292 0 0 1 3.406.14c-.418 0-.781-.055-1.094-.157a2.637 2.637 0 0 1-.78-.406 2.61 2.61 0 0 1-.563-.625 2.716 2.716 0 0 1-.328-.766Zm0 0"/>
    </symbol>
    <symbol id="ab" overflow="visible">
      <path stroke="none" d="M.719-3.703c0-.57.05-1.125.156-1.656.113-.532.29-1 .531-1.407.25-.414.57-.75.969-1 .395-.25.883-.375 1.469-.375.594 0 1.07.125 1.437.375.364.25.633.555.813.907l-1.016.296a1.337 1.337 0 0 0-.531-.53 1.636 1.636 0 0 0-.828-.204c-.313 0-.59.074-.828.219a1.833 1.833 0 0 0-.61.625 3.806 3.806 0 0 0-.375.984 6.08 6.08 0 0 0-.14 1.25c.175-.312.437-.57.78-.781.345-.219.782-.328 1.313-.328.375 0 .72.07 1.032.203.312.125.582.309.812.547.238.242.422.531.547.875.125.336.188.7.188 1.094 0 .367-.07.718-.204 1.062a2.407 2.407 0 0 1-.562.875c-.25.25-.547.45-.89.594A2.987 2.987 0 0 1 3.624.14c-1 0-1.734-.332-2.203-1C.953-1.523.719-2.473.719-3.703Zm2.906 3c.531 0 .953-.172 1.266-.516.312-.351.468-.804.468-1.36 0-.55-.156-1-.468-1.343-.313-.344-.735-.515-1.266-.515s-.96.171-1.281.515c-.313.344-.469.793-.469 1.344 0 .555.156 1.008.469 1.36.32.343.75.515 1.281.515Zm0 0"/>
    </symbol>
    <symbol id="aj" overflow="visible">
      <path stroke="none" d="M.719-2.25c0-.52.129-.957.39-1.313.27-.363.63-.632 1.079-.812a2.376 2.376 0 0 1-.5-.719 2.173 2.173 0 0 1-.172-.875c0-.3.05-.582.156-.843A2.238 2.238 0 0 1 2.828-7.97a2.158 2.158 0 0 1 1.688 0c.27.117.504.274.703.469.195.2.351.43.468.688.114.261.172.542.172.843 0 .313-.062.606-.187.875a2.447 2.447 0 0 1-.5.719c.445.18.8.45 1.062.813.27.355.407.792.407 1.312 0 .387-.079.727-.235 1.016a2.174 2.174 0 0 1-.625.75 2.58 2.58 0 0 1-.937.468A4.252 4.252 0 0 1 3.672.14C3.254.14 2.863.086 2.5-.016a2.712 2.712 0 0 1-.938-.468 2.36 2.36 0 0 1-.625-.75C.79-1.524.72-1.864.72-2.25Zm1.094 0c0 .469.164.84.5 1.11.332.273.785.406 1.359.406.57 0 1.023-.133 1.36-.407.343-.27.515-.64.515-1.109s-.172-.844-.516-1.125c-.336-.281-.789-.422-1.36-.422-.573 0-1.026.14-1.358.422-.336.281-.5.656-.5 1.125Zm1.859-2.438c.176 0 .344-.03.5-.093.156-.07.289-.164.406-.282.113-.113.203-.25.266-.406a1.244 1.244 0 0 0 0-1.015 1.067 1.067 0 0 0-.266-.391 1.241 1.241 0 0 0-.406-.266 1.199 1.199 0 0 0-1 0 1.202 1.202 0 0 0-.406.266 1.148 1.148 0 0 0-.282.39 1.339 1.339 0 0 0-.093.5c0 .188.03.36.093.516.07.157.164.293.282.407.113.117.25.21.406.28.156.063.32.095.5.095Zm0 0"/>
    </symbol>
    <filter id="k" width="100%" height="100%" x="0%" y="0%" filterUnits="objectBoundingBox">
      <feColorMatrix in="SourceGraphic" values="0 0 0 0 1 0 0 0 0 1 0 0 0 0 1 0 0 0 1 0"/>
    </filter>
  </defs>
  <path fill="#3085ee" stroke="none" d="M7.613 56.41v35.27h35.27V56.41Zm34.149 34.15H8.715V57.512h33.047Zm0 0"/>
  <path fill="#3085ee" stroke="none" d="M41.934 56.41v35.27h35.27V56.41Zm34.148 34.15H43.035V57.512h33.047Zm0 0"/>
  <path fill="#3085ee" stroke="none" d="M76.254 56.41v35.27h35.27V56.41Zm34.144 34.149H77.352V57.512h33.046Zm0 0"/>
  <path fill="#3085ee" stroke="none" d="M110.57 56.41v35.27h35.274V56.41Zm34.15 34.15h-33.047V57.512h33.047Zm0 0"/>
  <path fill="#3085ee" stroke="none" d="M144.89 56.41v35.27h35.27V56.41Zm34.15 34.149h-33.048V57.512h33.047Zm0 0"/>
  <path fill="#3085ee" stroke="none" d="M179.21 56.41v35.27h35.27V56.41Zm34.145 34.149h-33.042V57.512h33.042Zm0 0"/>
  <path fill="#3085ee" stroke="none" d="M213.531 56.41v35.27h35.27V56.41Zm34.145 34.149h-33.047V57.512h33.047Zm0 0"/>
  <path fill="#3085ee" stroke="none" d="M247.848 56.41v35.27h35.27V56.41Zm34.148 34.149H248.95V57.512h33.047Zm0 0"/>
  <path fill="#3085ee" stroke="none" d="M282.168 56.41v35.27h35.27V56.41Zm34.148 34.149H283.27V57.512h33.046Zm0 0"/>
  <path fill="#3085ee" stroke="none" d="M316.488 56.41v35.27h35.27V56.41Zm34.145 34.149h-33.047V57.512h33.047Zm0 0"/>
  <path fill="#3085ee" stroke="none" d="M350.805 56.41v35.27h35.273V56.41Zm34.148 34.149h-33.047V57.512h33.047Zm0 0"/>
  <path fill="#3085ee" stroke="none" d="M385.125 56.41v35.27h35.27V56.41Zm34.148 34.149h-33.046V57.512h33.046Zm0 0"/>
  <path fill="#3085ee" stroke="none" d="M419.445 56.41v35.27h35.27V56.41Zm34.145 34.15h-33.043V57.512h33.043Zm0 0"/>
  <path fill="#3085ee" stroke="none" d="M453.766 56.41v35.27h35.27V56.41Zm34.144 34.15h-33.047V57.512h33.047Zm0 0"/>
  <path fill="#3085ee" stroke="none" d="M488.082 56.41v35.27h35.27V56.41Zm34.148 34.15h-33.046V57.512h33.046Zm0 0"/>
  <path fill="#3085ee" stroke="none" d="M522.402 56.41v35.27h35.27V56.41Zm34.149 34.149h-33.047V57.512h33.047Zm0 0"/>
  <path fill="#3085ee" stroke="none" d="M556.723 56.41v35.27h35.27V56.41Zm34.144 34.149H557.82V57.512h33.047Zm0 0"/>
  <use xlink:href="#aD" x="20.356" y="79.589" fill="#fff"/>
  <use xlink:href="#aE" x="53.119" y="79.589" fill="#fff"/>
  <use xlink:href="#aV" x="87.233" y="79.589" fill="#fff"/>
  <use xlink:href="#aW" x="121.846" y="79.589" fill="#fff"/>
  <use xlink:href="#aH" x="157.075" y="79.589" fill="#fff"/>
  <use xlink:href="#aI" x="193.545" y="79.589" fill="#fff"/>
  <use xlink:href="#aE" x="224.715" y="79.589" fill="#fff"/>
  <use xlink:href="#aX" x="258.873" y="79.589" fill="#fff"/>
  <use xlink:href="#aI" x="330.821" y="79.589" fill="#fff"/>
  <use xlink:href="#aY" x="362.873" y="79.589" fill="#fff"/>
  <use xlink:href="#aW" x="430.718" y="79.589" fill="#fff"/>
  <use xlink:href="#aZ" x="465.184" y="79.589" fill="#fff"/>
  <use xlink:href="#aY" x="500.149" y="79.589" fill="#fff"/>
  <use xlink:href="#ba" x="534.968" y="79.589" fill="#fff"/>
  <use xlink:href="#bb" x="571.019" y="79.589" fill="#fff"/>
  <use xlink:href="#bc" mask="url(#bd)" transform="translate(6 89)"/>
  <use xlink:href="#be" mask="url(#bf)" transform="translate(4 112)"/>
  <use xlink:href="#bg" mask="url(#bh)" transform="translate(41 89)"/>
  <use xlink:href="#bi" mask="url(#bj)" transform="translate(40 112)"/>
  <use xlink:href="#bk" mask="url(#bl)" transform="translate(75 89)"/>
  <use xlink:href="#bm" mask="url(#bn)" transform="translate(73 112)"/>
  <use xlink:href="#bo" mask="url(#bp)" transform="translate(108 89)"/>
  <use xlink:href="#bq" mask="url(#br)" transform="translate(107 112)"/>
  <use xlink:href="#bs" mask="url(#bt)" transform="translate(143 89)"/>
  <use xlink:href="#bu" mask="url(#bv)" transform="translate(141 112)"/>
  <use xlink:href="#bw" mask="url(#bx)" transform="translate(178 89)"/>
  <use xlink:href="#by" mask="url(#bz)" transform="translate(176 112)"/>
  <use xlink:href="#bA" mask="url(#bB)" transform="translate(212 89)"/>
  <use xlink:href="#bC" mask="url(#bD)" transform="translate(210 112)"/>
  <use xlink:href="#bE" mask="url(#bF)" transform="translate(247 89)"/>
  <use xlink:href="#bG" mask="url(#bH)" transform="translate(245 112)"/>
  <use xlink:href="#bI" mask="url(#bJ)" transform="translate(281 89)"/>
  <use xlink:href="#bK" mask="url(#bL)" transform="translate(279 112)"/>
  <use xlink:href="#bM" mask="url(#bN)" transform="translate(315 89)"/>
  <use xlink:href="#bO" mask="url(#bP)" transform="translate(313 112)"/>
  <use xlink:href="#bQ" mask="url(#bR)" transform="translate(349 89)"/>
  <use xlink:href="#bS" mask="url(#bT)" transform="translate(345 112)"/>
  <use xlink:href="#bU" mask="url(#bV)" transform="translate(384 89)"/>
  <use xlink:href="#bW" mask="url(#bX)" transform="translate(381 112)"/>
  <use xlink:href="#bY" mask="url(#bZ)" transform="translate(418 89)"/>
  <use xlink:href="#ca" mask="url(#cb)" transform="translate(414 112)"/>
  <use xlink:href="#cc" mask="url(#cd)" transform="translate(452 89)"/>
  <use xlink:href="#ce" mask="url(#cf)" transform="translate(448 112)"/>
  <use xlink:href="#cg" mask="url(#ch)" transform="translate(486 89)"/>
  <use xlink:href="#ci" mask="url(#cj)" transform="translate(481 112)"/>
  <use xlink:href="#ck" mask="url(#cl)" transform="translate(521 89)"/>
  <use xlink:href="#cm" mask="url(#cn)" transform="translate(516 112)"/>
  <use xlink:href="#co" mask="url(#cp)" transform="translate(555 89)"/>
  <use xlink:href="#cq" mask="url(#cr)" transform="translate(550 112)"/>
  <use xlink:href="#cs" stroke-linecap="round" transform="matrix(0 -.75117 .7619 0 42.648 57.897)"/>
  <use xlink:href="#ct" stroke-linejoin="round" transform="matrix(0 -.75117 .7619 0 42.648 57.897)"/>
  <use xlink:href="#cC" stroke-linejoin="round" transform="matrix(0 -.75117 .7619 0 42.648 35.386)"/>
  <use xlink:href="#cD" stroke-linecap="round" transform="matrix(0 -.75117 .7619 0 77.474 57.897)"/>
  <use xlink:href="#cu" stroke-linejoin="round" transform="matrix(0 -.75117 .7619 0 77.474 57.897)"/>
  <use xlink:href="#cF" stroke-linejoin="round" transform="matrix(0 -.75117 .7619 0 77.474 35.386)"/>
  <use xlink:href="#cs" stroke-linecap="round" transform="matrix(0 -.75117 .7619 0 111.793 57.897)"/>
  <path fill="none" stroke="#fff" stroke-linejoin="round" d="M.497-1.503h3.001v3.005h-3Zm0 0" transform="matrix(0 -.75117 .7619 0 111.793 57.897)"/>
  <path fill="none" stroke="#fff" stroke-linejoin="round" d="M-3.5-1.503h3v3.005h-3Zm0 0" transform="matrix(0 -.75117 .7619 0 111.793 35.386)"/>
  <use xlink:href="#cG" stroke-linecap="round" transform="matrix(0 -.75117 .7619 0 145.274 57.897)"/>
  <use xlink:href="#cv" stroke-linejoin="round" transform="matrix(0 -.75117 .7619 0 145.274 57.897)"/>
  <use xlink:href="#cI" stroke-linejoin="round" transform="matrix(0 -.75117 .7619 0 145.274 35.386)"/>
  <use xlink:href="#cw" stroke-linecap="round" transform="matrix(0 -.75117 .7619 0 180.1 57.897)"/>
  <use xlink:href="#cx" stroke-linejoin="round" transform="matrix(0 -.75117 .7619 0 180.1 57.897)"/>
  <use xlink:href="#cL" stroke-linejoin="round" transform="matrix(0 -.75117 .7619 0 180.1 35.386)"/>
  <use xlink:href="#cD" stroke-linecap="round" transform="matrix(0 -.75117 .7619 0 214.42 57.897)"/>
  <use xlink:href="#cy" stroke-linejoin="round" transform="matrix(0 -.75117 .7619 0 214.42 57.897)"/>
  <use xlink:href="#cN" stroke-linejoin="round" transform="matrix(0 -.75117 .7619 0 214.42 35.386)"/>
  <use xlink:href="#cw" stroke-linecap="round" transform="matrix(0 -.75117 .7619 0 248.838 57.897)"/>
  <use xlink:href="#cy" stroke-linejoin="round" transform="matrix(0 -.75117 .7619 0 248.838 57.897)"/>
  <use xlink:href="#cN" stroke-linejoin="round" transform="matrix(0 -.75117 .7619 0 248.838 35.386)"/>
  <use xlink:href="#cs" stroke-linecap="round" transform="matrix(0 -.75117 .7619 0 283.664 57.897)"/>
  <use xlink:href="#cz" stroke-linejoin="round" transform="matrix(0 -.75117 .7619 0 283.664 57.897)"/>
  <use xlink:href="#cP" stroke-linejoin="round" transform="matrix(0 -.75117 .7619 0 283.664 35.386)"/>
  <use xlink:href="#cD" stroke-linecap="round" transform="matrix(0 -.75117 .7619 0 317.185 57.897)"/>
  <use xlink:href="#cy" stroke-linejoin="round" transform="matrix(0 -.75117 .7619 0 317.185 57.897)"/>
  <use xlink:href="#cN" stroke-linejoin="round" transform="matrix(0 -.75117 .7619 0 317.185 35.386)"/>
  <use xlink:href="#cs" stroke-linecap="round" transform="matrix(0 -.75117 .7619 0 351.464 57.897)"/>
  <use xlink:href="#ct" stroke-linejoin="round" transform="matrix(0 -.75117 .7619 0 351.464 57.897)"/>
  <use xlink:href="#cC" stroke-linejoin="round" transform="matrix(0 -.75117 .7619 0 351.464 35.386)"/>
  <use xlink:href="#cD" stroke-linecap="round" transform="matrix(0 -.75117 .7619 0 386.29 57.897)"/>
  <use xlink:href="#cu" stroke-linejoin="round" transform="matrix(0 -.75117 .7619 0 386.29 57.897)"/>
  <use xlink:href="#cF" stroke-linejoin="round" transform="matrix(0 -.75117 .7619 0 386.29 35.386)"/>
  <use xlink:href="#cs" stroke-linecap="round" transform="matrix(0 -.75117 .7619 0 420.61 57.897)"/>
  <use xlink:href="#cz" stroke-linejoin="round" transform="matrix(0 -.75117 .7619 0 420.61 57.897)"/>
  <use xlink:href="#cP" stroke-linejoin="round" transform="matrix(0 -.75117 .7619 0 420.61 35.386)"/>
  <path fill="none" stroke="#fff" stroke-linecap="round" d="M4.002.001h21.966" transform="matrix(0 -.75117 .7619 0 454.609 57.897)"/>
  <path fill="none" stroke="#fff" stroke-linejoin="round" d="M.497-1.501h3.001v3h-3Zm0 0" transform="matrix(0 -.75117 .7619 0 454.609 57.897)"/>
  <path fill="none" stroke="#fff" stroke-linejoin="round" d="M-3.5-1.501h3v3h-3Zm0 0" transform="matrix(0 -.75117 .7619 0 454.609 35.386)"/>
  <path fill="none" stroke="#fff" stroke-linecap="round" d="M4.002-.003h21.966" transform="matrix(0 -.75117 .7619 0 488.928 57.897)"/>
  <use xlink:href="#cy" stroke-linejoin="round" transform="matrix(0 -.75117 .7619 0 488.928 57.897)"/>
  <use xlink:href="#cN" stroke-linejoin="round" transform="matrix(0 -.75117 .7619 0 488.928 35.386)"/>
  <use xlink:href="#cw" stroke-linecap="round" transform="matrix(0 -.75117 .7619 0 522.409 57.897)"/>
  <use xlink:href="#cx" stroke-linejoin="round" transform="matrix(0 -.75117 .7619 0 522.409 57.897)"/>
  <use xlink:href="#cL" stroke-linejoin="round" transform="matrix(0 -.75117 .7619 0 522.409 35.386)"/>
  <use xlink:href="#cs" stroke-linecap="round" transform="matrix(0 -.75117 .7619 0 557.235 57.897)"/>
  <path fill="none" stroke="#fff" stroke-linejoin="round" d="M.497-1.498h3.001v3h-3Zm0 0" transform="matrix(0 -.75117 .7619 0 557.235 57.897)"/>
  <path fill="none" stroke="#fff" stroke-linejoin="round" d="M-3.5-1.498h3v3h-3Zm0 0" transform="matrix(0 -.75117 .7619 0 557.235 35.386)"/>
  <use xlink:href="#cs" stroke-linecap="round" transform="matrix(0 -.75117 .7619 0 591.554 57.897)"/>
  <path fill="none" stroke="#fff" stroke-linejoin="round" d="M.497-1.501h3.001v2.999h-3Zm0 0" transform="matrix(0 -.75117 .7619 0 591.554 57.897)"/>
  <path fill="none" stroke="#fff" stroke-linejoin="round" d="M-3.5-1.501h3v2.999h-3Zm0 0" transform="matrix(0 -.75117 .7619 0 591.554 35.386)"/>
  <use xlink:href="#ce" x="552.623" y="33.337" fill="#fff"/>
  <use xlink:href="#y" x="557.028" y="33.337" fill="#fff"/>
  <use xlink:href="#cG" stroke-linecap="round" transform="matrix(0 -.75117 .7619 0 8.743 57.897)"/>
  <use xlink:href="#cv" stroke-linejoin="round" transform="matrix(0 -.75117 .7619 0 8.743 57.897)"/>
  <use xlink:href="#cI" stroke-linejoin="round" transform="matrix(0 -.75117 .7619 0 8.743 35.386)"/>
  <use xlink:href="#s" x="588.04" y="33.337" fill="#fff"/>
  <use xlink:href="#ce" x="516.534" y="33.337" fill="#fff"/>
  <use xlink:href="#G" x="520.938" y="33.337" fill="#fff"/>
  <use xlink:href="#ce" x="483.286" y="33.337" fill="#fff"/>
  <use xlink:href="#K" x="487.691" y="33.337" fill="#fff"/>
  <use xlink:href="#ce" x="449.095" y="33.337" fill="#fff"/>
  <use xlink:href="#B" x="453.5" y="33.337" fill="#fff"/>
  <use xlink:href="#ce" x="414.632" y="33.337" fill="#fff"/>
  <use xlink:href="#V" x="419.037" y="33.337" fill="#fff"/>
  <use xlink:href="#ce" x="380.219" y="33.337" fill="#fff"/>
  <use xlink:href="#ab" x="384.624" y="33.337" fill="#fff"/>
  <use xlink:href="#ce" x="345.995" y="33.337" fill="#fff"/>
  <use xlink:href="#Q" x="350.4" y="33.337" fill="#fff"/>
  <use xlink:href="#ce" x="311.487" y="33.337" fill="#fff"/>
  <use xlink:href="#aj" x="315.892" y="33.337" fill="#fff"/>
  <use xlink:href="#ce" x="277.91" y="33.337" fill="#fff"/>
  <use xlink:href="#ap" x="282.315" y="33.337" fill="#fff"/>
  <use xlink:href="#ce" x="240.139" y="33.337" fill="#fff"/>
  <use xlink:href="#y" x="244.544" y="33.337" fill="#fff"/>
  <use xlink:href="#s" x="249.356" y="33.337" fill="#fff"/>
  <use xlink:href="#ce" x="207.534" y="33.337" fill="#fff"/>
  <use xlink:href="#y" x="211.939" y="33.337" fill="#fff"/>
  <use xlink:href="#y" x="216.751" y="33.337" fill="#fff"/>
  <use xlink:href="#ce" x="172.573" y="33.337" fill="#fff"/>
  <use xlink:href="#y" x="176.978" y="33.337" fill="#fff"/>
  <use xlink:href="#G" x="181.789" y="33.337" fill="#fff"/>
  <use xlink:href="#ce" x="136.844" y="33.337" fill="#fff"/>
  <use xlink:href="#y" x="141.249" y="33.337" fill="#fff"/>
  <use xlink:href="#K" x="146.061" y="33.337" fill="#fff"/>
  <use xlink:href="#ce" x="103.494" y="33.337" fill="#fff"/>
  <use xlink:href="#y" x="107.899" y="33.337" fill="#fff"/>
  <use xlink:href="#B" x="112.711" y="33.337" fill="#fff"/>
  <use xlink:href="#ce" x="68.988" y="33.337" fill="#fff"/>
  <use xlink:href="#y" x="73.393" y="33.337" fill="#fff"/>
  <use xlink:href="#V" x="78.205" y="33.337" fill="#fff"/>
  <use xlink:href="#ce" x="34.828" y="33.337" fill="#fff"/>
  <use xlink:href="#y" x="39.233" y="33.337" fill="#fff"/>
  <use xlink:href="#ab" x="44.045" y="33.337" fill="#fff"/>
  <use xlink:href="#ce" x="1.449" y="33.337" fill="#fff"/>
  <use xlink:href="#y" x="5.854" y="33.337" fill="#fff"/>
  <use xlink:href="#Q" x="10.666" y="33.337" fill="#fff"/>
</svg>
