<svg xmlns="http://www.w3.org/2000/svg" xmlns:xlink="http://www.w3.org/1999/xlink" width="800" height="400" version="1.2" viewBox="0 0 600 300">
  <defs>
    <path id="a" fill="#fff" fill-opacity="1" stroke="none" d="M0 0h600v300H0z"/>
  </defs>
  <defs>
    <symbol id="b" overflow="visible">
      <path stroke="none" d="M1.969 0v-17.375H13.75v2.11H4.422v5.28h6.89v2.11h-6.89v5.766h9.328V0Zm0 0"/>
    </symbol>
    <symbol id="c" overflow="visible">
      <path stroke="none" d="M9.39-17.688c1.446 0 2.755.34 3.922 1.016 1.176.68 2.067 1.652 2.672 2.922l-2.156.781a4.895 4.895 0 0 0-1.734-1.906c-.75-.5-1.7-.75-2.844-.75-.762 0-1.477.152-2.14.453-.669.293-1.25.73-1.75 1.313-.493.574-.876 1.293-1.157 2.156-.273.867-.406 1.867-.406 3 0 1.086.133 2.058.406 2.922.27.855.64 1.586 1.11 2.187a4.86 4.86 0 0 0 1.734 1.375c.676.324 1.41.485 2.203.485.57 0 1.16-.067 1.766-.204a4.775 4.775 0 0 0 1.656-.734c.5-.351.906-.816 1.219-1.39.32-.583.484-1.329.484-2.235v-.562H9.312v-2.11h7.376V0H15.28l-.64-2.188a4.732 4.732 0 0 1-2.282 1.922c-.96.383-2.027.579-3.203.579-1.25 0-2.36-.22-3.328-.657a7.099 7.099 0 0 1-2.469-1.86c-.68-.8-1.195-1.753-1.546-2.858-.344-1.114-.516-2.329-.516-3.641 0-1.352.187-2.582.562-3.688.383-1.101.926-2.046 1.625-2.828a7.224 7.224 0 0 1 2.563-1.828c1-.426 2.113-.64 3.344-.64Zm0 0"/>
    </symbol>
    <symbol id="d" overflow="visible">
      <path stroke="none" d="M1.969 0v-17.375h3.625L13.5-2.594v-14.781h2.438V0h-3.594L4.422-14.844V0Zm0 0"/>
    </symbol>
    <symbol id="e" overflow="visible">
      <path stroke="none" d="M9.39-17.688c1.47 0 2.774.34 3.922 1.016 1.157.68 2.04 1.652 2.657 2.922l-2.14.781a4.895 4.895 0 0 0-1.735-1.906c-.75-.5-1.7-.75-2.844-.75-.762 0-1.477.152-2.14.453-.669.293-1.25.73-1.75 1.313-.493.574-.876 1.293-1.157 2.156-.273.867-.406 1.867-.406 3 0 1.086.133 2.058.406 2.922.27.855.649 1.586 1.14 2.187a5.016 5.016 0 0 0 3.985 1.86c1.145 0 2.098-.243 2.86-.735a4.786 4.786 0 0 0 1.75-1.922l2.124.782c-.625 1.304-1.546 2.28-2.765 2.937-1.211.656-2.586.985-4.125.985-1.242 0-2.352-.22-3.328-.657a7.099 7.099 0 0 1-2.469-1.86c-.68-.8-1.195-1.753-1.547-2.858-.355-1.114-.531-2.329-.531-3.641 0-1.352.187-2.582.562-3.688.383-1.101.926-2.046 1.625-2.828a7.224 7.224 0 0 1 2.563-1.828c1-.426 2.113-.64 3.344-.64Zm0 0"/>
    </symbol>
    <symbol id="g" overflow="visible">
      <path stroke="none" d="M3.297-4.469c.156.469.383.875.687 1.219a4.03 4.03 0 0 0 1.079.844c.406.219.843.386 1.312.5a6.125 6.125 0 0 0 2.938-.016c.5-.133.937-.328 1.312-.578a3.06 3.06 0 0 0 .906-.969c.227-.394.344-.851.344-1.375a2.16 2.16 0 0 0-.234-1.031c-.157-.29-.407-.55-.75-.781-.344-.239-.797-.453-1.36-.64a18.299 18.299 0 0 0-2.094-.563 29.334 29.334 0 0 1-2.109-.5 7.614 7.614 0 0 1-2.016-.86 4.693 4.693 0 0 1-1.515-1.469c-.399-.601-.594-1.382-.594-2.343 0-.727.176-1.38.531-1.953a4.857 4.857 0 0 1 1.438-1.47 6.931 6.931 0 0 1 2.047-.921 8.985 8.985 0 0 1 2.343-.313c.602 0 1.208.07 1.813.204a6.56 6.56 0 0 1 3.156 1.609c.438.406.79.887 1.063 1.438l-2.235.656c-.343-.602-.882-1.063-1.609-1.375a5.747 5.747 0 0 0-3.672-.297c-.45.117-.851.289-1.203.515a2.49 2.49 0 0 0-.844.844c-.21.336-.312.727-.312 1.172 0 .492.117.89.36 1.203.25.305.577.559.984.766.414.21.894.387 1.437.531.54.137 1.102.266 1.688.39.757.157 1.507.352 2.25.579.75.219 1.421.523 2.015.906.594.375 1.07.871 1.438 1.485.375.617.562 1.39.562 2.328 0 .804-.195 1.523-.578 2.156A4.986 4.986 0 0 1 12.359-1a7.372 7.372 0 0 1-2.171.984 9.515 9.515 0 0 1-2.485.329c-.719 0-1.43-.086-2.125-.25a7.5 7.5 0 0 1-1.953-.75A6.4 6.4 0 0 1 2.047-1.97a5.07 5.07 0 0 1-1-1.828Zm0 0"/>
    </symbol>
    <symbol id="f" overflow="visible">
      <path stroke="none" d="M1.297-8.703c0-1.3.187-2.504.562-3.61.383-1.101.926-2.05 1.625-2.843a7.256 7.256 0 0 1 2.563-1.86c1.008-.445 2.14-.672 3.39-.672s2.38.227 3.391.672a7.077 7.077 0 0 1 2.578 1.86c.696.793 1.239 1.742 1.625 2.844.383 1.105.578 2.308.578 3.609 0 1.312-.195 2.523-.578 3.625-.386 1.094-.93 2.043-1.625 2.844A7.447 7.447 0 0 1 12.828-.36c-1.012.445-2.14.671-3.39.671S7.054.086 6.046-.359a7.65 7.65 0 0 1-2.563-1.875c-.699-.801-1.242-1.75-1.625-2.844-.375-1.102-.562-2.313-.562-3.625Zm2.5 0c0 1.125.144 2.121.437 2.984.301.867.704 1.594 1.204 2.188a5.072 5.072 0 0 0 1.78 1.344 5.473 5.473 0 0 0 2.22.453c.8 0 1.539-.149 2.218-.454a5.236 5.236 0 0 0 1.797-1.343c.508-.594.91-1.32 1.203-2.188.301-.863.453-1.86.453-2.984 0-1.133-.152-2.129-.453-2.985-.293-.851-.695-1.57-1.203-2.156a5.142 5.142 0 0 0-1.797-1.328 5.418 5.418 0 0 0-2.219-.453c-.78 0-1.523.152-2.218.453a4.983 4.983 0 0 0-1.782 1.328c-.5.586-.902 1.305-1.203 2.156-.293.856-.437 1.852-.437 2.985Zm0 0"/>
    </symbol>
    <symbol id="k" overflow="visible">
      <path stroke="none" d="M1.969-17.375h7c.937 0 1.742.125 2.422.375.687.242 1.25.563 1.687.969.438.398.758.855.969 1.375.207.511.312 1.047.312 1.61A4.84 4.84 0 0 1 13.891-11a5.04 5.04 0 0 1-1.36 1.766c.864.46 1.508 1.074 1.938 1.843.426.774.64 1.575.64 2.407 0 .617-.125 1.226-.375 1.828a4.72 4.72 0 0 1-1.078 1.594c-.469.468-1.062.851-1.781 1.14-.71.281-1.54.422-2.484.422H1.969Zm2.453 9.36v5.968H9.64c.488 0 .914-.086 1.28-.265.364-.176.673-.407.923-.688.25-.29.43-.613.547-.969a3.252 3.252 0 0 0 0-2.172 2.547 2.547 0 0 0-.547-.953 2.77 2.77 0 0 0-.922-.672c-.367-.164-.797-.25-1.297-.25Zm0-7.297v5.374h4.812c.446 0 .832-.078 1.157-.234a2.57 2.57 0 0 0 .828-.594c.219-.238.379-.52.484-.843a2.896 2.896 0 0 0 0-1.97 2.548 2.548 0 0 0-1.328-1.5 2.67 2.67 0 0 0-1.14-.233Zm0 0"/>
    </symbol>
    <symbol id="l" overflow="visible">
      <path stroke="none" d="M4.422-17.375v10.297c0 1.719.336 3.031 1.016 3.937.687.899 1.863 1.344 3.53 1.344 1.665 0 2.837-.445 3.516-1.344.688-.906 1.032-2.218 1.032-3.937v-10.297h2.453V-7.25c0 1.262-.133 2.367-.39 3.313-.25.949-.657 1.742-1.22 2.374-.562.625-1.289 1.094-2.171 1.407-.876.312-1.95.469-3.22.469-1.261 0-2.335-.157-3.218-.47-.887-.312-1.61-.78-2.172-1.405-.555-.633-.96-1.426-1.219-2.375-.261-.946-.39-2.051-.39-3.313v-10.125Zm0 0"/>
    </symbol>
    <symbol id="h" overflow="visible">
      <path stroke="none" d="M.984-1.375c0-.445.16-.836.485-1.172a1.62 1.62 0 0 1 1.187-.5c.469 0 .864.168 1.188.5.332.336.5.727.5 1.172 0 .21-.043.422-.125.64L2.594 3.454H1.172L2.39.281a1.614 1.614 0 0 1-1-.562 1.603 1.603 0 0 1-.407-1.094Zm0 0"/>
    </symbol>
    <symbol id="i" overflow="visible">
      <path stroke="none" d="M1.969 0v-17.375H6.03l4.625 14.203 4.625-14.203h4.063V0h-2.438v-14.813L11.875 0H9.469L4.422-14.813V0Zm0 0"/>
    </symbol>
    <symbol id="j" overflow="visible">
      <path stroke="none" d="M1.969 0v-17.375h2.453v7.39h9.094v-7.39h2.453V0h-2.453v-7.875H4.422V0Zm0 0"/>
    </symbol>
    <symbol id="q" overflow="visible">
      <path stroke="none" d="M1.969 0v-17.375h11.297v2.11H4.422v5.28h8.844v2.11H4.422V0Zm0 0"/>
    </symbol>
    <symbol id="r" overflow="visible">
      <path stroke="none" d="M.984-1.36c0-.456.16-.85.485-1.187a1.62 1.62 0 0 1 1.187-.5c.469 0 .864.168 1.188.5.332.336.5.73.5 1.188 0 .46-.168.855-.5 1.187-.324.32-.719.484-1.188.484A1.653 1.653 0 0 1 .984-1.359Zm0 0"/>
    </symbol>
    <symbol id="o" overflow="visible">
      <path stroke="none" d="M1.219 0v-10.688h7.25v1.297h-5.75v3.25h4.234v1.297H2.72v3.547h5.75V0Zm0 0"/>
    </symbol>
    <symbol id="s" overflow="visible">
      <path stroke="none" d="M4.016-8.063c.625 0 1.144.126 1.562.376.426.25.766.585 1.016 1v-4h1.343v7.703c0 .261.008.648.032 1.156.02.512.097 1.121.234 1.828H6.938l-.344-1.203c-.25.43-.59.766-1.016 1.016-.418.25-.937.374-1.562.374-.45 0-.883-.093-1.297-.28a3.275 3.275 0 0 1-1.094-.798c-.305-.351-.547-.785-.734-1.296-.188-.508-.282-1.094-.282-1.75 0-.645.094-1.223.282-1.735.187-.52.43-.953.734-1.297a3.216 3.216 0 0 1 1.094-.812 3.114 3.114 0 0 1 1.297-.282ZM2.109-3.936c0 .949.204 1.683.61 2.203.414.523.969.78 1.656.78.676 0 1.219-.257 1.625-.78.414-.52.625-1.254.625-2.204 0-.945-.21-1.675-.625-2.187-.406-.52-.95-.781-1.625-.781-.688 0-1.242.261-1.656.781-.406.512-.61 1.242-.61 2.188Zm0 0"/>
    </symbol>
    <symbol id="t" overflow="visible">
      <path stroke="none" d="M1.797-2.266c.062.23.156.434.281.61.133.168.297.304.485.406.187.105.382.184.593.234.219.055.442.079.672.079.227 0 .453-.024.672-.079.227-.062.43-.144.61-.25a1.3 1.3 0 0 0 .421-.375.765.765 0 0 0 .172-.484c0-.363-.133-.633-.39-.813a2.593 2.593 0 0 0-.938-.421 12.079 12.079 0 0 0-1.203-.266 6.629 6.629 0 0 1-1.203-.344 2.445 2.445 0 0 1-.938-.672c-.25-.3-.375-.71-.375-1.234 0-.352.086-.664.266-.938.176-.28.406-.515.687-.703.282-.187.602-.328.97-.421a4.653 4.653 0 0 1 1.14-.141c.625 0 1.21.133 1.765.39.551.262.954.668 1.204 1.22L5.421-6c-.137-.32-.383-.555-.734-.703a2.577 2.577 0 0 0-1.079-.234c-.199 0-.398.027-.593.078-.188.043-.36.105-.516.187a1.117 1.117 0 0 0-.36.328.834.834 0 0 0-.124.453c0 .325.125.563.375.72.25.148.562.265.937.359.375.085.774.164 1.203.234.438.074.836.2 1.203.375.375.168.688.406.938.719.258.304.39.742.39 1.312 0 .375-.093.711-.28 1-.18.293-.423.543-.735.75-.305.2-.649.352-1.031.453a4.432 4.432 0 0 1-2.219.031 3.711 3.711 0 0 1-.969-.343 3.391 3.391 0 0 1-.797-.625 2.611 2.611 0 0 1-.531-.89Zm0 0"/>
    </symbol>
    <symbol id="u" overflow="visible">
      <path stroke="none" d="M3.969-8.063c.633 0 1.148.126 1.547.376.406.25.734.585.984 1l.36-1.25h.984V-.75c0 .398-.016.77-.047 1.125-.024.352-.102.68-.234.984a2.3 2.3 0 0 1-.579.829c-.261.25-.62.457-1.078.624A4.3 4.3 0 0 1 5.172 3c-.25.05-.512.078-.781.078a4.75 4.75 0 0 1-.985-.11 3.85 3.85 0 0 1-.906-.327 2.808 2.808 0 0 1-.734-.579 2.168 2.168 0 0 1-.47-.843L2.642.844c.07.219.171.39.296.515.133.133.282.239.438.313.156.082.32.14.5.172a2.943 2.943 0 0 0 1.047 0 7.12 7.12 0 0 0 .36-.078c.238-.094.437-.2.593-.313a1.31 1.31 0 0 0 .375-.437c.094-.18.156-.387.188-.625.039-.243.062-.52.062-.844V-1.5c-.25.418-.578.75-.984 1-.399.242-.914.36-1.547.36a3.28 3.28 0 0 1-1.266-.25 3.187 3.187 0 0 1-1.078-.766 3.794 3.794 0 0 1-.734-1.235C.703-2.89.609-3.457.609-4.094c0-.644.094-1.21.282-1.703.187-.488.43-.898.734-1.234a3.299 3.299 0 0 1 1.078-.766 3.157 3.157 0 0 1 1.266-.266Zm-1.906 3.97c0 .905.207 1.605.624 2.093.415.492.954.734 1.61.734.3 0 .586-.05.86-.156.269-.101.503-.27.702-.5.207-.226.375-.52.5-.875.125-.363.188-.797.188-1.297 0-.5-.063-.926-.188-1.281-.125-.363-.293-.656-.5-.875a1.805 1.805 0 0 0-.703-.5 2.446 2.446 0 0 0-.86-.156c-.655 0-1.194.246-1.609.734-.417.48-.624 1.172-.624 2.078Zm0 0"/>
    </symbol>
    <symbol id="p" overflow="visible">
      <path stroke="none" d="M4.469-8.063c.625 0 1.176.126 1.656.376.477.25.875.585 1.188 1 .32.417.55.898.687 1.437a4.97 4.97 0 0 1 .156 1.656h-6.11c.02.5.114.918.282 1.25.164.336.367.602.61.797.238.2.492.344.765.438.281.086.547.125.797.125.445 0 .82-.067 1.125-.204.3-.144.547-.343.734-.593l1.282.39c-.282.47-.696.852-1.235 1.141C5.875.04 5.238.188 4.5.188c-.625 0-1.184-.106-1.672-.313A3.66 3.66 0 0 1 1.61-1a4.025 4.025 0 0 1-.75-1.313 5.193 5.193 0 0 1-.25-1.64c0-.625.098-1.192.297-1.703.196-.508.469-.942.813-1.297.343-.352.75-.625 1.218-.813a3.934 3.934 0 0 1 1.532-.296Zm2.265 3.391a2.264 2.264 0 0 0-.61-1.547 2.259 2.259 0 0 0-.718-.5 2.283 2.283 0 0 0-.937-.187c-.305 0-.594.043-.875.125a2.216 2.216 0 0 0-.735.39c-.21.18-.386.407-.53.688-.15.281-.235.625-.267 1.031Zm0 0"/>
    </symbol>
    <symbol id="v" overflow="visible">
      <path stroke="none" d="M.61-.828a1 1 0 0 1 .296-.735.987.987 0 0 1 .719-.312c.29 0 .535.105.734.313a.983.983 0 0 1 .313.734.987.987 0 0 1-.313.719 1.013 1.013 0 0 1-.734.296A1.018 1.018 0 0 1 .609-.827Zm0 0"/>
    </symbol>
    <symbol id="w" overflow="visible">
      <path stroke="none" d="M-.922 2.547V1.375c.149.008.277.016.39.016h.36c.344 0 .613-.024.813-.063a.802.802 0 0 0 .484-.234.887.887 0 0 0 .25-.485c.04-.199.063-.464.063-.796v-7.75H2.78V-.11c0 .507-.047.937-.14 1.28-.086.352-.235.63-.454.829-.21.207-.5.352-.874.438-.368.093-.82.14-1.36.14-.133 0-.273-.008-.422-.015-.144 0-.297-.008-.453-.016Zm2.031-13c0-.27.098-.5.297-.688a.963.963 0 0 1 .703-.296.94.94 0 0 1 .704.296.922.922 0 0 1 .296.688.985.985 0 0 1-.296.719.924.924 0 0 1-.704.296.948.948 0 0 1-.703-.296.97.97 0 0 1-.297-.72Zm0 0"/>
    </symbol>
    <symbol id="x" overflow="visible">
      <path stroke="none" d="M1.125 0v-10.688h1.344v6.313l3.187-3.563h1.625l-3 3.282L7.688 0H6.03L3.39-3.656l-.922 1V0Zm0 0"/>
    </symbol>
    <symbol id="y" overflow="visible">
      <path stroke="none" d="M5.969-4.89c.02-.676-.117-1.192-.407-1.548-.28-.363-.746-.546-1.39-.546-.48 0-.871.109-1.172.328a1.39 1.39 0 0 0-.578.89L1.125-6.14a2.574 2.574 0 0 1 1.14-1.421c.551-.333 1.18-.5 1.891-.5 1.102 0 1.899.257 2.39.765.5.512.755 1.328.766 2.453l.016 1.86c.008.668.035 1.242.078 1.718.051.47.114.891.188 1.266H6.375l-.328-1.094a2.526 2.526 0 0 1-1 .953c-.43.22-.996.329-1.703.329A3.62 3.62 0 0 1 2.28.03a2.452 2.452 0 0 1-.86-.437 2.155 2.155 0 0 1-.593-.719 2.036 2.036 0 0 1-.219-.969c0-.469.125-.863.375-1.187.258-.32.618-.586 1.079-.797.468-.207 1.03-.367 1.687-.484a31.799 31.799 0 0 1 2.219-.329ZM2.094-2.126c0 .375.133.68.406.906.27.23.645.344 1.125.344.313 0 .613-.04.906-.125.29-.082.551-.219.782-.406.226-.188.41-.438.546-.75.145-.313.22-.703.22-1.172v-.5c-.606.062-1.153.137-1.641.219a7.88 7.88 0 0 0-1.266.312c-.344.125-.61.281-.797.469a.954.954 0 0 0-.281.703Zm0 0"/>
    </symbol>
    <clipPath id="m">
      <path d="M288.828 30H300v17.25h-11.172Zm0 0"/>
    </clipPath>
    <clipPath id="n">
      <path d="M300 30h11.328v17.25H300Zm0 0"/>
    </clipPath>
  </defs>
  <use xlink:href="#a"/>
  <use xlink:href="#a"/>
  <path fill="#faf8f6" stroke="none" d="M0 0h600v300H0z"/>
  <use xlink:href="#b" x="171.784" y="83.75" fill="#2b2b2b"/>
  <use xlink:href="#b" x="189.122" y="83.75" fill="#2b2b2b"/>
  <use xlink:href="#b" x="205.732" y="83.75" fill="#2b2b2b"/>
  <use xlink:href="#c" x="223.069" y="83.75" fill="#2b2b2b"/>
  <use xlink:href="#d" x="244.124" y="83.75" fill="#2b2b2b"/>
  <use xlink:href="#d" x="262.995" y="83.75" fill="#2b2b2b"/>
  <use xlink:href="#e" x="283.504" y="83.75" fill="#2b2b2b"/>
  <use xlink:href="#b" x="303.154" y="83.75" fill="#2b2b2b"/>
  <use xlink:href="#glyph0-7" x="320.492" y="83.75" fill="#2b2b2b"/>
  <use xlink:href="#f" x="330.37" y="83.75" fill="#2b2b2b"/>
  <use xlink:href="#g" x="343.731" y="83.75" fill="#2b2b2b"/>
  <use xlink:href="#glyph0-7" x="361.822" y="83.75" fill="#2b2b2b"/>
  <use xlink:href="#d" x="371.7" y="83.75" fill="#2b2b2b"/>
  <use xlink:href="#f" x="392.209" y="83.75" fill="#2b2b2b"/>
  <use xlink:href="#h" x="413.705" y="83.75" fill="#2b2b2b"/>
  <use xlink:href="#d" x="122.812" y="119.75" fill="#2b2b2b"/>
  <use xlink:href="#glyph0-7" x="141.683" y="119.75" fill="#2b2b2b"/>
  <use xlink:href="#i" x="151.561" y="119.75" fill="#2b2b2b"/>
  <use xlink:href="#f" x="171.653" y="119.75" fill="#2b2b2b"/>
  <use xlink:href="#g" x="185.014" y="119.75" fill="#2b2b2b"/>
  <use xlink:href="#j" x="203.106" y="119.75" fill="#2b2b2b"/>
  <use xlink:href="#b" x="221.327" y="119.75" fill="#2b2b2b"/>
  <use xlink:href="#d" x="238.664" y="119.75" fill="#2b2b2b"/>
  <use xlink:href="#g" x="259.173" y="119.75" fill="#2b2b2b"/>
  <use xlink:href="#d" x="277.264" y="119.75" fill="#2b2b2b"/>
  <use xlink:href="#k" x="296.136" y="119.75" fill="#2b2b2b"/>
  <use xlink:href="#b" x="314.825" y="119.75" fill="#2b2b2b"/>
  <use xlink:href="#b" x="331.435" y="119.75" fill="#2b2b2b"/>
  <use xlink:href="#glyph0-7" x="348.772" y="119.75" fill="#2b2b2b"/>
  <use xlink:href="#b" x="358.65" y="119.75" fill="#2b2b2b"/>
  <use xlink:href="#l" x="375.26" y="119.75" fill="#2b2b2b"/>
  <use xlink:href="#m" x="395.794" y="119.75" fill="#2b2b2b"/>
  <use xlink:href="#l" x="414.588" y="119.75" fill="#2b2b2b"/>
  <use xlink:href="#n" x="435.122" y="119.75" fill="#2b2b2b"/>
  <use xlink:href="#o" x="453.785" y="119.75" fill="#2b2b2b"/>
  <use xlink:href="#h" x="471.851" y="119.75" fill="#2b2b2b"/>
  <use xlink:href="#k" x="128.718" y="155.75" fill="#2b2b2b"/>
  <use xlink:href="#l" x="147.407" y="155.75" fill="#2b2b2b"/>
  <use xlink:href="#h" x="167.942" y="155.75" fill="#2b2b2b"/>
  <use xlink:href="#glyph0-7" x="185.045" y="155.75" fill="#2b2b2b"/>
  <use xlink:href="#d" x="194.923" y="155.75" fill="#2b2b2b"/>
  <use xlink:href="#glyph0-7" x="213.794" y="155.75" fill="#2b2b2b"/>
  <use xlink:href="#e" x="223.672" y="155.75" fill="#2b2b2b"/>
  <use xlink:href="#n" x="243.323" y="155.75" fill="#2b2b2b"/>
  <use xlink:href="#l" x="261.986" y="155.75" fill="#2b2b2b"/>
  <use xlink:href="#e" x="282.521" y="155.75" fill="#2b2b2b"/>
  <use xlink:href="#f" x="302.172" y="155.75" fill="#2b2b2b"/>
  <use xlink:href="#d" x="315.533" y="155.75" fill="#2b2b2b"/>
  <use xlink:href="#b" x="334.404" y="155.75" fill="#2b2b2b"/>
  <use xlink:href="#glyph0-7" x="351.014" y="155.75" fill="#2b2b2b"/>
  <use xlink:href="#i" x="360.891" y="155.75" fill="#2b2b2b"/>
  <use xlink:href="#d" x="384.805" y="155.75" fill="#2b2b2b"/>
  <use xlink:href="#h" x="403.676" y="155.75" fill="#2b2b2b"/>
  <use xlink:href="#h" x="420.78" y="155.75" fill="#2b2b2b"/>
  <use xlink:href="#b" x="437.883" y="155.75" fill="#2b2b2b"/>
  <use xlink:href="#n" x="455.221" y="155.75" fill="#2b2b2b"/>
  <use xlink:href="#h" x="125.261" y="191.75" fill="#2b2b2b"/>
  <use xlink:href="#j" x="142.365" y="191.75" fill="#2b2b2b"/>
  <use xlink:href="#d" x="162.899" y="191.75" fill="#2b2b2b"/>
  <use xlink:href="#h" x="181.77" y="191.75" fill="#2b2b2b"/>
  <use xlink:href="#glyph0-7" x="198.874" y="191.75" fill="#2b2b2b"/>
  <use xlink:href="#i" x="208.752" y="191.75" fill="#2b2b2b"/>
  <use xlink:href="#b" x="228.845" y="191.75" fill="#2b2b2b"/>
  <use xlink:href="#e" x="246.182" y="191.75" fill="#2b2b2b"/>
  <use xlink:href="#f" x="265.833" y="191.75" fill="#2b2b2b"/>
  <use xlink:href="#i" x="279.194" y="191.75" fill="#2b2b2b"/>
  <use xlink:href="#b" x="299.287" y="191.75" fill="#2b2b2b"/>
  <use xlink:href="#g" x="316.624" y="191.75" fill="#2b2b2b"/>
  <use xlink:href="#glyph0-7" x="334.716" y="191.75" fill="#2b2b2b"/>
  <use xlink:href="#k" x="344.593" y="191.75" fill="#2b2b2b"/>
  <use xlink:href="#b" x="363.283" y="191.75" fill="#2b2b2b"/>
  <use xlink:href="#h" x="380.62" y="191.75" fill="#2b2b2b"/>
  <use xlink:href="#p" x="397.724" y="191.75" fill="#2b2b2b"/>
  <use xlink:href="#b" x="422.157" y="191.75" fill="#2b2b2b"/>
  <use xlink:href="#b" x="439.495" y="191.75" fill="#2b2b2b"/>
  <use xlink:href="#d" x="456.833" y="191.75" fill="#2b2b2b"/>
  <use xlink:href="#g" x="130.886" y="227.75" fill="#2b2b2b"/>
  <use xlink:href="#l" x="148.977" y="227.75" fill="#2b2b2b"/>
  <use xlink:href="#e" x="169.512" y="227.75" fill="#2b2b2b"/>
  <use xlink:href="#e" x="189.163" y="227.75" fill="#2b2b2b"/>
  <use xlink:href="#b" x="208.814" y="227.75" fill="#2b2b2b"/>
  <use xlink:href="#g" x="226.151" y="227.75" fill="#2b2b2b"/>
  <use xlink:href="#g" x="244.243" y="227.75" fill="#2b2b2b"/>
  <use xlink:href="#glyph0-7" x="262.334" y="227.75" fill="#2b2b2b"/>
  <use xlink:href="#d" x="272.212" y="227.75" fill="#2b2b2b"/>
  <use xlink:href="#d" x="291.083" y="227.75" fill="#2b2b2b"/>
  <use xlink:href="#i" x="311.592" y="227.75" fill="#2b2b2b"/>
  <use xlink:href="#glyph0-7" x="331.684" y="227.75" fill="#2b2b2b"/>
  <use xlink:href="#q" x="341.562" y="227.75" fill="#2b2b2b"/>
  <use xlink:href="#d" x="358.406" y="227.75" fill="#2b2b2b"/>
  <use xlink:href="#f" x="377.277" y="227.75" fill="#2b2b2b"/>
  <use xlink:href="#b" x="390.638" y="227.75" fill="#2b2b2b"/>
  <use xlink:href="#l" x="407.248" y="227.75" fill="#2b2b2b"/>
  <use xlink:href="#n" x="427.782" y="227.75" fill="#2b2b2b"/>
  <use xlink:href="#b" x="446.445" y="227.75" fill="#2b2b2b"/>
  <use xlink:href="#r" x="463.783" y="227.75" fill="#2b2b2b"/>
  <g clip-path="url(#m)">
    <path fill="#dec2ba" stroke="none" d="M294.652 37.387a4.69 4.69 0 0 0-2.836.957c.079-2.489 1.985-4.98 5.743-7.469l-.559-.871c-5.445 3.414-8.172 7.164-8.172 11.246 0 1.875.508 3.344 1.52 4.402 1.007 1.063 2.289 1.594 3.836 1.594 1.55 0 2.796-.426 3.746-1.281.949-.852 1.425-1.883 1.425-3.09 0-.016-.003-.023-.003-.04.03-.214.05-.429.05-.655 0-2.645-2.129-4.793-4.75-4.793Zm0 0"/>
  </g>
  <g clip-path="url(#n)">
    <path fill="#dec2ba" stroke="none" d="M310.012 45.492c.062-.074.136-.14.191-.215a4.807 4.807 0 0 0 1.125-3.093c0-2.649-2.125-4.797-4.75-4.797-1.2 0-2.293.453-3.133 1.199 0-.031-.004-.055-.004-.086 0-2.543 1.918-5.082 5.758-7.625l-.554-.871c-5.45 3.414-8.176 7.164-8.176 11.246 0 1.875.504 3.344 1.52 4.402 1.007 1.067 2.288 1.598 3.835 1.598 1.547 0 2.797-.43 3.746-1.285.137-.117.239-.25.356-.38.027-.03.054-.062.086-.093Zm0 0"/>
  </g>
  <use xlink:href="#z" x="421.512" y="264.2"/>
  <use xlink:href="#glyph2-1" x="437.509" y="264.2"/>
  <use xlink:href="#o" x="441.988" y="264.2"/>
  <use xlink:href="#s" x="451.057" y="264.2"/>
  <use xlink:href="#t" x="460.079" y="264.2"/>
  <use xlink:href="#u" x="467.613" y="264.2"/>
  <use xlink:href="#p" x="476.571" y="264.2"/>
  <use xlink:href="#F" x="485.193" y="264.2"/>
  <use xlink:href="#glyph2-1" x="490.632" y="264.2"/>
  <use xlink:href="#G" x="495.111" y="264.2"/>
  <use xlink:href="#v" x="508.548" y="264.2"/>
  <use xlink:href="#glyph2-1" x="511.827" y="264.2"/>
  <use xlink:href="#I" x="516.306" y="264.2"/>
  <use xlink:href="#J" x="527.071" y="264.2"/>
  <use xlink:href="#w" x="531.518" y="264.2"/>
  <use xlink:href="#x" x="535.581" y="264.2"/>
  <use xlink:href="#t" x="543.419" y="264.2"/>
  <use xlink:href="#M" x="550.953" y="264.2"/>
  <use xlink:href="#F" x="556.136" y="264.2"/>
  <use xlink:href="#y" x="561.575" y="264.2"/>
</svg>
