<svg xmlns="http://www.w3.org/2000/svg" width="584pt" height="212pt" viewBox="0 0 584 212"><g class="graph"><path fill="#fff" stroke="transparent" d="M-4 4v-212h584V4H-4z" transform="translate(4 208)"/><g class="node"><path fill="none" stroke="#000" d="M133.667-120.5h56.666c3.834 0 7.667-3.833 7.667-7.667v-7.666c0-3.834-3.833-7.667-7.667-7.667h-56.666c-3.834 0-7.667 3.833-7.667 7.667v7.666c0 3.834 3.833 7.667 7.667 7.667" transform="translate(4 208)"/><text x="162" y="-128.3" font-family="Times,serif" font-size="14" text-anchor="middle" transform="translate(4 208)">A</text></g><g class="node"><path fill="none" stroke="#000" d="M259.667-180.5h56.666c3.834 0 7.667-3.833 7.667-7.667v-7.666c0-3.834-3.833-7.667-7.667-7.667h-56.666c-3.834 0-7.667 3.833-7.667 7.667v7.666c0 3.834 3.833 7.667 7.667 7.667" transform="translate(4 208)"/><text x="288" y="-188.3" font-family="Times,serif" font-size="14" text-anchor="middle" transform="translate(4 208)">O</text></g><g stroke="#000" class="edge"><path fill="none" d="m186.294-143.569 68.384-32.564" transform="translate(4 208)"/><path d="m263.781-180.467-10.964.237 6.449 1.913-4.514 2.149 4.514-2.149-2.579 6.212 7.094-8.362z" transform="translate(4 208)"/></g><g class="node"><path fill="none" stroke="#000" d="M259.667-120.5h56.666c3.834 0 7.667-3.833 7.667-7.667v-7.666c0-3.834-3.833-7.667-7.667-7.667h-56.666c-3.834 0-7.667 3.833-7.667 7.667v7.666c0 3.834 3.833 7.667 7.667 7.667" transform="translate(4 208)"/><text x="288" y="-128.3" font-family="Times,serif" font-size="14" text-anchor="middle" transform="translate(4 208)">B</text></g><g stroke="#000" class="edge"><path fill="none" d="M288-143.569v-26.673" transform="translate(4 208)"/><path d="m288-180.467-4.5 10 4.5-5v5-5l4.5 5-4.5-10z" transform="translate(4 208)"/></g><g class="node"><path fill="none" stroke="#000" d="M7.667-120.5h56.666c3.834 0 7.667-3.833 7.667-7.667v-7.666c0-3.834-3.833-7.667-7.667-7.667H7.667C3.833-143.5 0-139.667 0-135.833v7.666c0 3.834 3.833 7.667 7.667 7.667" transform="translate(4 208)"/><text x="36" y="-128.3" font-family="Times,serif" font-size="14" text-anchor="middle" transform="translate(4 208)">C</text></g><g stroke="#000" class="edge"><path fill="none" d="m72.106-140.597 169.861-40.443" transform="translate(4 208)"/><path d="m251.962-183.419-10.771-2.062 5.906 3.22-4.864 1.158 4.864-1.158-3.821 5.535 8.686-6.693z" transform="translate(4 208)"/></g><g class="node"><path fill="none" stroke="#000" d="M385.667-120.5h56.666c3.834 0 7.667-3.833 7.667-7.667v-7.666c0-3.834-3.833-7.667-7.667-7.667h-56.666c-3.834 0-7.667 3.833-7.667 7.667v7.666c0 3.834 3.833 7.667 7.667 7.667" transform="translate(4 208)"/><text x="414" y="-128.3" font-family="Times,serif" font-size="14" text-anchor="middle" transform="translate(4 208)">D</text></g><g stroke="#000" class="edge"><path fill="none" d="m389.706-143.569-68.384-32.564" transform="translate(4 208)"/><path d="m312.219-180.467 7.094 8.362-2.579-6.212 4.514 2.149-4.514-2.149 6.449-1.913-10.964-.237z" transform="translate(4 208)"/></g><g class="node"><path fill="none" stroke="#000" d="M511.667-120.5h56.666c3.834 0 7.667-3.833 7.667-7.667v-7.666c0-3.834-3.833-7.667-7.667-7.667h-56.666c-3.834 0-7.667 3.833-7.667 7.667v7.666c0 3.834 3.833 7.667 7.667 7.667" transform="translate(4 208)"/><text x="540" y="-128.3" font-family="Times,serif" font-size="14" text-anchor="middle" transform="translate(4 208)">E</text></g><g stroke="#000" class="edge"><path fill="none" d="M503.895-140.597 334.033-181.04" transform="translate(4 208)"/><path d="m324.038-183.419 8.686 6.693-3.821-5.535 4.864 1.158-4.864-1.158 5.906-3.22-10.771 2.062z" transform="translate(4 208)"/></g><g class="node"><path fill="none" stroke="#000" d="M133.667-60.5h56.666c3.834 0 7.667-3.833 7.667-7.667v-7.666c0-3.834-3.833-7.667-7.667-7.667h-56.666c-3.834 0-7.667 3.833-7.667 7.667v7.666c0 3.834 3.833 7.667 7.667 7.667" transform="translate(4 208)"/><text x="162" y="-68.3" font-family="Times,serif" font-size="14" text-anchor="middle" transform="translate(4 208)">K1</text></g><g stroke="#000" class="edge"><path fill="none" d="M162-83.569v-26.673" transform="translate(4 208)"/><path d="m162-120.467-4.5 10 4.5-5v5-5l4.5 5-4.5-10z" transform="translate(4 208)"/></g><g stroke="#000" class="edge"><path fill="none" d="m186.294-83.569 68.384-32.564" transform="translate(4 208)"/><path d="m263.781-120.467-10.964.237 6.449 1.913-4.514 2.149 4.514-2.149-2.579 6.212 7.094-8.362z" transform="translate(4 208)"/></g><g stroke="#000" class="edge"><path fill="none" d="m137.706-83.569-68.384-32.564" transform="translate(4 208)"/><path d="m60.219-120.467 7.094 8.362-2.579-6.212 4.514 2.149-4.514-2.149 6.449-1.913-10.964-.237z" transform="translate(4 208)"/></g><g class="node"><path fill="none" stroke="#000" d="M385.667-60.5h56.666c3.834 0 7.667-3.833 7.667-7.667v-7.666c0-3.834-3.833-7.667-7.667-7.667h-56.666c-3.834 0-7.667 3.833-7.667 7.667v7.666c0 3.834 3.833 7.667 7.667 7.667" transform="translate(4 208)"/><text x="414" y="-68.3" font-family="Times,serif" font-size="14" text-anchor="middle" transform="translate(4 208)">K2</text></g><g stroke="#000" class="edge"><path fill="none" d="m389.706-83.569-68.384-32.564" transform="translate(4 208)"/><path d="m312.219-120.467 7.094 8.362-2.579-6.212 4.514 2.149-4.514-2.149 6.449-1.913-10.964-.237z" transform="translate(4 208)"/></g><g stroke="#000" class="edge"><path fill="none" d="M414-83.569v-26.673" transform="translate(4 208)"/><path d="m414-120.467-4.5 10 4.5-5v5-5l4.5 5-4.5-10z" transform="translate(4 208)"/></g><g stroke="#000" class="edge"><path fill="none" d="m438.294-83.569 68.384-32.564" transform="translate(4 208)"/><path d="m515.781-120.467-10.964.237 6.449 1.913-4.514 2.149 4.514-2.149-2.579 6.212 7.094-8.362z" transform="translate(4 208)"/></g><g class="node"><path fill="none" stroke="#000" d="M259.667-60.5h56.666c3.834 0 7.667-3.833 7.667-7.667v-7.666c0-3.834-3.833-7.667-7.667-7.667h-56.666c-3.834 0-7.667 3.833-7.667 7.667v7.666c0 3.834 3.833 7.667 7.667 7.667" transform="translate(4 208)"/><text x="288" y="-68.3" font-family="Times,serif" font-size="14" text-anchor="middle" transform="translate(4 208)">K3</text></g><g stroke="#000" class="edge"><path fill="none" d="m263.706-83.569-68.384-32.564" transform="translate(4 208)"/><path d="m186.219-120.467 7.094 8.362-2.579-6.212 4.514 2.149-4.514-2.149 6.449-1.913-10.964-.237z" transform="translate(4 208)"/></g><g stroke="#000" class="edge"><path fill="none" d="m312.294-83.569 68.384-32.564" transform="translate(4 208)"/><path d="m389.781-120.467-10.964.237 6.449 1.913-4.514 2.149 4.514-2.149-2.579 6.212 7.094-8.362z" transform="translate(4 208)"/></g><g class="node"><path fill="none" stroke="#000" d="M259.667-.5h56.666C320.167-.5 324-4.333 324-8.167v-7.666c0-3.834-3.833-7.667-7.667-7.667h-56.666c-3.834 0-7.667 3.833-7.667 7.667v7.666c0 3.834 3.833 7.667 7.667 7.667" transform="translate(4 208)"/><text x="288" y="-8.3" font-family="Times,serif" font-size="14" text-anchor="middle" transform="translate(4 208)">Z</text></g><g stroke="#000" class="edge"><path fill="none" d="M263.706-23.569c-19.436-9.255-46.896-22.33-68.384-32.564" transform="translate(4 208)"/><path d="m186.219-60.467 7.094 8.362-2.579-6.212 4.514 2.15-4.514-2.15 6.449-1.913-10.964-.237z" transform="translate(4 208)"/></g><g stroke="#000" class="edge"><path fill="none" d="M312.294-23.569c19.436-9.255 46.896-22.33 68.384-32.564" transform="translate(4 208)"/><path d="m389.781-60.467-10.964.237 6.449 1.913-4.514 2.15 4.514-2.15-2.579 6.212 7.094-8.362z" transform="translate(4 208)"/></g><g stroke="#000" class="edge"><path fill="none" d="M288-23.569v-26.673" transform="translate(4 208)"/><path d="m288-60.467-4.5 10 4.5-5v5-5l4.5 5-4.5-10z" transform="translate(4 208)"/></g></g></svg>