<?xml version="1.0" encoding="utf-8"?>
<!-- Generator: Adobe Illustrator 26.4.1, SVG Export Plug-In . SVG Version: 6.00 Build 0)  -->
<svg version="1.1" id="Layer_1" xmlns="http://www.w3.org/2000/svg" xmlns:xlink="http://www.w3.org/1999/xlink" x="0px" y="0px"
	 viewBox="200 150 641.89 245.28" style="enable-background:new 0 0 841.89 595.28;" xml:space="preserve">
<style type="text/css">
	.st2{fill:#F2F2F8;}
	.st3{fill:url(#SVGID_1_);}
	.st4{opacity:0.5;}
</style>
<g>
	<g>
		<g>
			<path class="st2" d="M328.76,368.44h2.48l6.45,14.86l6.45-14.86h2.35v17.71h-1.65v-15.61h-0.05l-6.75,15.61h-0.73l-6.85-15.61
				h-0.05v15.61h-1.65V368.44z"/>
			<path class="st2" d="M369.11,368.44h1.7l7.45,17.71h-1.85l-1.93-4.7h-9.38l-2,4.7h-1.73L369.11,368.44z M369.88,370.24
				l-4.13,9.71h8.13L369.88,370.24z"/>
			<path class="st2" d="M395.54,369.94h-6.05v-1.5h13.76v1.5h-6.05v16.21h-1.65V369.94z"/>
			<path class="st2" d="M418.48,368.44h1.65v7.8h9.91v-7.8h1.65v17.71h-1.65v-8.4h-9.91v8.4h-1.65V368.44z"/>
			<path class="st2" d="M449.52,382.87c0.43,0.75,1,1.31,1.69,1.68c0.69,0.37,1.48,0.55,2.36,0.55c0.55,0,1.07-0.08,1.55-0.25
				c0.48-0.17,0.91-0.4,1.26-0.7c0.36-0.3,0.64-0.66,0.85-1.09c0.21-0.43,0.31-0.9,0.31-1.44c0-0.62-0.13-1.13-0.39-1.53
				c-0.26-0.4-0.6-0.73-1.04-0.99c-0.43-0.26-0.92-0.48-1.46-0.66c-0.54-0.18-1.1-0.37-1.68-0.55c-0.57-0.18-1.13-0.39-1.67-0.63
				c-0.54-0.23-1.03-0.54-1.46-0.91c-0.43-0.37-0.78-0.85-1.04-1.41c-0.26-0.57-0.39-1.27-0.39-2.1c0-0.78,0.15-1.48,0.46-2.09
				c0.31-0.61,0.73-1.12,1.25-1.53c0.53-0.41,1.13-0.72,1.81-0.93c0.68-0.21,1.4-0.31,2.15-0.31c0.97,0,1.86,0.17,2.69,0.51
				c0.83,0.34,1.54,0.91,2.14,1.71l-1.43,1.03c-0.42-0.58-0.91-1.02-1.46-1.31s-1.22-0.44-1.99-0.44c-0.53,0-1.04,0.07-1.53,0.21
				c-0.48,0.14-0.9,0.35-1.26,0.63c-0.36,0.28-0.65,0.62-0.86,1.04s-0.33,0.91-0.33,1.48c0,0.88,0.22,1.56,0.67,2.04
				s1.01,0.85,1.69,1.13c0.67,0.27,1.41,0.52,2.2,0.73c0.79,0.21,1.53,0.49,2.2,0.84c0.67,0.35,1.24,0.84,1.69,1.46
				c0.45,0.63,0.67,1.49,0.67,2.59c0,0.8-0.15,1.51-0.45,2.13c-0.3,0.62-0.71,1.14-1.21,1.56c-0.51,0.43-1.1,0.75-1.76,0.96
				c-0.67,0.22-1.36,0.33-2.08,0.33c-1.17,0-2.24-0.2-3.23-0.61c-0.98-0.41-1.83-1.1-2.53-2.06L449.52,382.87z"/>
			<path class="st2" d="M475.46,368.44h5.1c0.62,0,1.26,0.07,1.94,0.21c0.67,0.14,1.29,0.39,1.85,0.74
				c0.56,0.35,1.02,0.83,1.38,1.44c0.36,0.61,0.54,1.37,0.54,2.29c0,0.8-0.15,1.49-0.44,2.08c-0.29,0.58-0.68,1.06-1.18,1.44
				c-0.49,0.37-1.06,0.65-1.7,0.84c-0.64,0.18-1.31,0.27-2.01,0.27h-3.83v8.4h-1.65V368.44z M477.11,376.24h3.75
				c0.47,0,0.93-0.05,1.38-0.16c0.45-0.11,0.85-0.28,1.2-0.53s0.63-0.56,0.85-0.96c0.22-0.4,0.33-0.89,0.33-1.48
				c0-0.57-0.11-1.05-0.34-1.45c-0.23-0.4-0.52-0.73-0.88-0.99c-0.36-0.26-0.77-0.45-1.24-0.56s-0.93-0.18-1.4-0.18h-3.65V376.24z"
				/>
			<path class="st2" d="M502.32,368.44h5.1c0.62,0,1.26,0.07,1.94,0.21c0.67,0.14,1.29,0.39,1.85,0.74
				c0.56,0.35,1.02,0.83,1.38,1.44c0.36,0.61,0.54,1.37,0.54,2.29c0,0.8-0.15,1.49-0.44,2.08c-0.29,0.58-0.68,1.06-1.18,1.44
				c-0.49,0.37-1.06,0.65-1.7,0.84c-0.64,0.18-1.31,0.27-2.01,0.27h-3.83v8.4h-1.65V368.44z M503.98,376.24h3.75
				c0.47,0,0.93-0.05,1.38-0.16s0.85-0.28,1.2-0.53c0.35-0.24,0.63-0.56,0.85-0.96c0.22-0.4,0.33-0.89,0.33-1.48
				c0-0.57-0.11-1.05-0.34-1.45c-0.22-0.4-0.52-0.73-0.87-0.99c-0.36-0.26-0.77-0.45-1.24-0.56s-0.93-0.18-1.4-0.18h-3.65V376.24z"
				/>
		</g>
	</g>
	<g>
		<linearGradient id="SVGID_1_" gradientUnits="userSpaceOnUse" x1="328.3759" y1="270.7607" x2="563.1461" y2="270.7607">
			<stop  offset="0" style="stop-color:#CF14ED"/>
			<stop  offset="0.3319" style="stop-color:#D21653"/>
			<stop  offset="0.3898" style="stop-color:#D41D4F"/>
			<stop  offset="0.6723" style="stop-color:#E4612D"/>
			<stop  offset="0.9898" style="stop-color:#EA9733"/>
		</linearGradient>
		<path class="st3" d="M521.89,208.68c-12.59,0-24.26,3.99-33.79,10.78c-9.53-6.78-21.2-10.78-33.79-10.78
			c-12.59,0-24.26,3.99-33.79,10.78c-9.53-6.78-21.2-10.78-33.79-10.78c-32.22,0-58.35,26.12-58.35,58.35v65.81h49.11V228.22
			c2.96-0.7,6.06-1.07,9.23-1.07c3.18,0,6.27,0.37,9.23,1.07c3.98,0.94,7.72,2.48,11.14,4.51c-0.09,0.12-0.18,0.25-0.27,0.37
			c-0.05,0.07-0.11,0.15-0.16,0.22c-0.07,0.09-0.13,0.19-0.2,0.28c-0.14,0.21-0.29,0.41-0.43,0.62c-0.05,0.08-0.11,0.16-0.16,0.24
			c-0.34,0.5-0.67,1.01-0.99,1.52c-5.66,8.99-8.93,19.63-8.93,31.03v65.81h49.11v-65.81c0-12.82-4.13-24.67-11.14-34.29
			c5.96-3.55,12.93-5.59,20.37-5.59c3.18,0,6.27,0.37,9.23,1.07c3.98,0.94,7.72,2.48,11.14,4.51c-0.19,0.26-0.38,0.53-0.57,0.8
			c-0.05,0.08-0.11,0.16-0.16,0.23c-0.02,0.02-0.03,0.05-0.05,0.07c-0.03,0.05-0.07,0.1-0.1,0.15c-0.1,0.14-0.2,0.29-0.3,0.43
			c-0.03,0.05-0.07,0.1-0.1,0.15c-0.09,0.13-0.18,0.27-0.27,0.4c0,0-0.01,0.01-0.01,0.01c-0.09,0.13-0.17,0.26-0.26,0.39
			c-0.04,0.06-0.08,0.12-0.12,0.19c-0.09,0.14-0.18,0.28-0.27,0.42c-5.66,8.99-8.93,19.63-8.93,31.03v65.81h49.11v-65.81
			c0-12.82-4.13-24.67-11.14-34.29c5.96-3.55,12.93-5.59,20.37-5.59c11.01,0,20.98,4.46,28.2,11.68l13.06-13.06
			C552.59,215.21,538,208.68,521.89,208.68z M359.02,314.37h-12.18v-47.35c0-0.62,0.01-1.23,0.04-1.83
			c0.48-10.53,5.04-20,12.14-26.86V314.37z M426.6,314.37h-12.18v-47.35c0-6.2,1.41-12.06,3.94-17.3c0-0.01,0.01-0.01,0.01-0.02
			c0.05-0.1,0.1-0.21,0.15-0.31c0.05-0.09,0.09-0.18,0.14-0.28c0.01-0.01,0.01-0.02,0.02-0.03c0.01-0.03,0.03-0.06,0.04-0.08
			c0.01-0.03,0.03-0.06,0.04-0.08c0.02-0.05,0.05-0.09,0.07-0.14c0.04-0.07,0.07-0.14,0.11-0.22c0.03-0.07,0.07-0.13,0.1-0.2
			c0.02-0.04,0.04-0.07,0.06-0.11c0.04-0.07,0.08-0.14,0.11-0.22c0.01-0.03,0.03-0.06,0.05-0.09c0.04-0.07,0.08-0.14,0.12-0.21
			c0-0.01,0.01-0.01,0.01-0.02c0.03-0.05,0.05-0.09,0.08-0.14c0.01-0.02,0.03-0.04,0.04-0.07c0.05-0.08,0.09-0.16,0.14-0.25
			c0.06-0.1,0.12-0.21,0.18-0.31c0.05-0.09,0.1-0.18,0.15-0.26c0-0.01,0.01-0.01,0.01-0.02c0.04-0.08,0.09-0.15,0.14-0.23
			c0.01-0.01,0.02-0.03,0.03-0.04c0.04-0.07,0.08-0.13,0.12-0.19c0.04-0.07,0.08-0.13,0.12-0.19c0.03-0.04,0.05-0.08,0.08-0.12
			c0.01-0.01,0.01-0.02,0.02-0.03c0.01-0.01,0.01-0.02,0.02-0.03c0,0,0-0.01,0.01-0.01c0,0.01,0.01,0.01,0.01,0.02
			c3.85,6.13,6.08,13.39,6.08,21.17V314.37z M494.19,314.37h-12.18v-47.35c0-6.15,1.39-11.98,3.88-17.19
			c0.04-0.09,0.08-0.17,0.12-0.26c0.04-0.09,0.08-0.17,0.13-0.26c0.17-0.34,0.34-0.68,0.52-1.02c0.05-0.1,0.1-0.19,0.15-0.29
			c0.04-0.07,0.08-0.14,0.12-0.22c0.09-0.17,0.18-0.33,0.28-0.5c0.05-0.08,0.1-0.17,0.14-0.25c0.06-0.1,0.11-0.19,0.17-0.29
			c0.18-0.31,0.37-0.62,0.57-0.93c3.86,6.14,6.09,13.4,6.09,21.19V314.37z"/>
	</g>
	<g class="st4">
		<path d="M377.49,228.22v4.05c-7.34,1.94-13.76,6.15-18.47,11.84v-5.77C364.08,233.45,370.42,229.9,377.49,228.22z"/>
		<path d="M420.51,245.84c0,0,0,0.01-0.01,0.01c0,0,0,0.01-0.01,0.01c0,0.01-0.01,0.01-0.01,0.02c-0.01,0.01-0.01,0.02-0.02,0.03
			c-0.03,0.04-0.05,0.08-0.08,0.12c-0.04,0.06-0.08,0.13-0.12,0.19c-0.04,0.06-0.08,0.13-0.12,0.19c-0.01,0.01-0.02,0.03-0.03,0.04
			c-0.05,0.08-0.09,0.15-0.14,0.23c0,0.01-0.01,0.01-0.01,0.02c-0.05,0.09-0.1,0.18-0.15,0.26c-0.06,0.1-0.12,0.21-0.18,0.31
			c-0.05,0.08-0.09,0.16-0.14,0.25c-0.01,0.02-0.03,0.04-0.04,0.07c-0.03,0.05-0.05,0.09-0.08,0.14c0,0.01-0.01,0.01-0.01,0.02
			c-0.04,0.07-0.08,0.14-0.12,0.21c-0.02,0.03-0.03,0.06-0.05,0.09c-0.04,0.07-0.08,0.14-0.11,0.22c-0.02,0.04-0.04,0.07-0.06,0.11
			c-0.02,0.04-0.04,0.07-0.06,0.11c-0.02,0.03-0.03,0.06-0.05,0.09c-0.04,0.07-0.08,0.14-0.11,0.22c-0.02,0.05-0.05,0.09-0.07,0.14
			c-0.01,0.03-0.03,0.06-0.04,0.08c-0.01,0.02-0.02,0.04-0.03,0.05c-0.01,0.01-0.01,0.02-0.02,0.03c-0.01,0.01-0.01,0.02-0.02,0.03
			c-0.05,0.09-0.09,0.18-0.14,0.28c-0.04,0.07-0.07,0.15-0.11,0.22c-0.01,0.03-0.03,0.06-0.04,0.09c0,0.01-0.01,0.01-0.01,0.02
			c-0.02,0.04-0.03,0.07-0.05,0.11c-3.13-5.75-7.79-10.54-13.42-13.85c0.32-0.51,0.65-1.02,0.99-1.52c0.05-0.08,0.11-0.16,0.16-0.24
			c0.14-0.21,0.28-0.42,0.43-0.62c0.07-0.1,0.13-0.19,0.2-0.28c0.05-0.07,0.1-0.15,0.16-0.22c0.09-0.12,0.18-0.25,0.27-0.37
			C412.54,235.98,417.15,240.48,420.51,245.84z"/>
		<path d="M488.1,245.84c-0.19,0.31-0.38,0.62-0.57,0.93c-0.06,0.1-0.11,0.19-0.17,0.29c-0.05,0.08-0.1,0.17-0.14,0.25
			c-0.09,0.17-0.19,0.33-0.28,0.5c-0.04,0.07-0.08,0.14-0.12,0.22c-0.05,0.1-0.1,0.19-0.15,0.29c-0.18,0.34-0.35,0.68-0.52,1.02
			c-0.04,0.08-0.08,0.17-0.13,0.26c-0.04,0.09-0.08,0.17-0.12,0.26c-3.13-5.75-7.79-10.54-13.42-13.85
			c0.09-0.14,0.18-0.28,0.27-0.42c0.04-0.06,0.08-0.12,0.12-0.19c0.08-0.13,0.17-0.26,0.26-0.39c0-0.01,0.01-0.01,0.01-0.01
			c0.09-0.14,0.18-0.27,0.27-0.4c0.03-0.05,0.07-0.1,0.1-0.15c0.1-0.15,0.2-0.29,0.3-0.43c0.03-0.05,0.07-0.1,0.1-0.15
			c0.02-0.02,0.03-0.05,0.05-0.07c0.05-0.08,0.11-0.16,0.16-0.23c0.19-0.27,0.38-0.54,0.57-0.8
			C480.12,235.98,484.73,240.48,488.1,245.84z"/>
	</g>
	<path class="st4" d="M426.6,267.03v2.86c-3.23-13.43-8.29-20.05-8.29-20.05c0-0.01,0.06-0.12,0.06-0.12
		c0.05-0.1,0.1-0.21,0.15-0.31c0.05-0.09,0.09-0.18,0.14-0.28c0.01-0.01,0.01-0.02,0.02-0.03c0.01-0.01,0.01-0.02,0.02-0.03
		c0.01-0.02,0.02-0.04,0.03-0.05c0.01-0.03,0.03-0.06,0.04-0.08c0.02-0.05,0.05-0.09,0.07-0.14c0.04-0.07,0.07-0.14,0.11-0.22
		c0.01-0.03,0.03-0.06,0.05-0.09c0.02-0.04,0.04-0.07,0.06-0.11c0.02-0.04,0.04-0.07,0.06-0.11c0.04-0.07,0.08-0.14,0.11-0.22
		c0.01-0.03,0.03-0.06,0.05-0.09c0.04-0.07,0.08-0.14,0.12-0.21c0-0.01,0.01-0.01,0.01-0.02c0.03-0.05,0.05-0.09,0.08-0.14
		c0.01-0.02,0.03-0.04,0.04-0.07c0.05-0.08,0.09-0.16,0.14-0.25c0.06-0.1,0.12-0.21,0.18-0.31c0.05-0.09,0.1-0.18,0.15-0.26
		c0-0.01,0.01-0.01,0.01-0.02c0.04-0.08,0.09-0.15,0.14-0.23c0.01-0.01,0.02-0.03,0.03-0.04c0.04-0.07,0.08-0.13,0.12-0.19
		c0.04-0.07,0.08-0.13,0.12-0.19c0.03-0.04,0.05-0.08,0.08-0.12c0.01-0.01,0.01-0.02,0.02-0.03c0-0.01,0.01-0.01,0.01-0.02
		c0,0,0-0.01,0.01-0.01c0.01,0,0.01,0.01,0.02,0.01C424.38,251.99,426.6,259.25,426.6,267.03z"/>
	<path class="st4" d="M494.19,267.03v2.86c-3.23-13.43-8.29-20.05-8.29-20.05c0-0.01,0.06-0.12,0.06-0.12
		c0.05-0.1,0.1-0.21,0.15-0.31c0.05-0.09,0.09-0.18,0.14-0.28c0.01-0.01,0.01-0.02,0.02-0.03c0.01-0.01,0.01-0.02,0.02-0.03
		c0.01-0.02,0.02-0.04,0.03-0.05c0.01-0.03,0.03-0.06,0.04-0.08c0.02-0.05,0.05-0.09,0.07-0.14c0.04-0.07,0.07-0.14,0.11-0.22
		c0.01-0.03,0.03-0.06,0.05-0.09c0.02-0.04,0.04-0.07,0.06-0.11c0.02-0.04,0.04-0.07,0.06-0.11c0.04-0.07,0.08-0.14,0.11-0.22
		c0.01-0.03,0.03-0.06,0.05-0.09c0.04-0.07,0.08-0.14,0.12-0.21c0-0.01,0.01-0.01,0.01-0.02c0.03-0.05,0.05-0.09,0.08-0.14
		c0.01-0.02,0.03-0.04,0.04-0.07c0.05-0.08,0.09-0.16,0.14-0.25c0.06-0.1,0.12-0.21,0.18-0.31c0.05-0.09,0.1-0.18,0.15-0.26
		c0-0.01,0.01-0.01,0.01-0.02c0.04-0.08,0.09-0.15,0.14-0.23c0.01-0.01,0.02-0.03,0.03-0.04c0.04-0.07,0.08-0.13,0.12-0.19
		c0.04-0.07,0.08-0.13,0.12-0.19c0.03-0.04,0.05-0.08,0.08-0.12c0.01-0.01,0.01-0.02,0.02-0.03c0-0.01,0.01-0.01,0.01-0.02
		c0,0,0-0.01,0.01-0.01c0.01,0,0.01,0.01,0.02,0.01C491.96,251.99,494.19,259.25,494.19,267.03z"/>
	<path class="st4" d="M359.02,238.34v5.77c0,0-7.27,7.2-12.14,21.08C347.36,254.66,351.92,245.19,359.02,238.34z"/>
</g>
</svg>
