<svg xmlns="http://www.w3.org/2000/svg" xmlns:xlink="http://www.w3.org/1999/xlink" width="800" height="200" version="1.2" viewBox="0 0 600 150">
  <defs>
    <path id="j" fill="none" stroke="#fff" stroke-linecap="butt" stroke-linejoin="round" stroke-miterlimit="4" stroke-opacity="1" stroke-width="1" d="M.498-1.498h3V1.5h-3Zm0 0"/>
    <path id="m" fill="none" stroke="#fff" stroke-linecap="butt" stroke-linejoin="round" stroke-miterlimit="4" stroke-opacity="1" stroke-width="1" d="M.498-1.5h3v3h-3Zm0 0"/>
    <path id="p" fill="none" stroke="#fff" stroke-linecap="round" stroke-linejoin="miter" stroke-miterlimit="4" stroke-opacity="1" stroke-width="1" d="M3.998 0h22.01"/>
    <path id="s" fill="none" stroke="#fff" stroke-linecap="butt" stroke-linejoin="round" stroke-miterlimit="4" stroke-opacity="1" stroke-width="1" d="M.498-1.498h3v3h-3Zm0 0"/>
    <path id="u" fill="none" stroke="#fff" stroke-linecap="butt" stroke-linejoin="round" stroke-miterlimit="4" stroke-opacity="1" stroke-width="1" d="M.498-1.502h3v3.004h-3Zm0 0"/>
    <path id="v" fill="none" stroke="#fff" stroke-linecap="round" stroke-linejoin="miter" stroke-miterlimit="4" stroke-opacity="1" stroke-width="1" d="M4 0h22.044"/>
    <path id="w" fill="none" stroke="#fff" stroke-linecap="butt" stroke-linejoin="round" stroke-miterlimit="4" stroke-opacity="1" stroke-width="1" d="M.502-1.5H3.5v3H.502Zm0 0"/>
    <path id="x" fill="none" stroke="#fff" stroke-linecap="butt" stroke-linejoin="round" stroke-miterlimit="4" stroke-opacity="1" stroke-width="1" d="M.502-1.502H3.5v3H.502Zm0 0"/>
    <path id="y" fill="none" stroke="#fff" stroke-linecap="round" stroke-linejoin="miter" stroke-miterlimit="4" stroke-opacity="1" stroke-width="1" d="M4 .002h22.044"/>
    <path id="z" fill="none" stroke="#fff" stroke-linecap="butt" stroke-linejoin="round" stroke-miterlimit="4" stroke-opacity="1" stroke-width="1" d="M.502-1.498H3.5v3H.502Zm0 0"/>
  </defs>
  <defs>
    <symbol id="a" overflow="visible">
      <path stroke="none" d="M2.984-4.047a3.295 3.295 0 0 0 1.578 1.875c.375.2.774.352 1.204.453.437.094.867.14 1.296.14a5.23 5.23 0 0 0 1.36-.171 3.636 3.636 0 0 0 1.172-.516c.344-.226.617-.52.828-.875.219-.351.328-.765.328-1.234a1.91 1.91 0 0 0-.219-.938c-.136-.269-.367-.507-.687-.718-.313-.207-.727-.395-1.235-.563-.5-.176-1.132-.347-1.89-.515a32.255 32.255 0 0 1-1.907-.454 7.153 7.153 0 0 1-1.828-.765A4.461 4.461 0 0 1 1.61-9.656c-.355-.551-.53-1.258-.53-2.125 0-.656.16-1.242.484-1.766a4.294 4.294 0 0 1 1.312-1.328 6.195 6.195 0 0 1 1.844-.828 8.141 8.141 0 0 1 2.125-.281c.55 0 1.097.058 1.64.171a6.086 6.086 0 0 1 1.547.547c.477.243.91.547 1.297.922a4.5 4.5 0 0 1 .969 1.297l-2.016.578c-.312-.539-.804-.953-1.469-1.234a5.066 5.066 0 0 0-3.312-.281 3.732 3.732 0 0 0-1.094.468c-.324.2-.578.454-.765.766a1.98 1.98 0 0 0-.282 1.063c0 .437.11.796.329 1.078.218.28.515.515.89.703.383.187.817.351 1.297.484.488.125 1 .242 1.531.344.688.148 1.367.324 2.047.531.676.2 1.281.469 1.813.813.53.343.96.796 1.296 1.359.344.555.516 1.25.516 2.094 0 .718-.172 1.367-.515 1.937a4.511 4.511 0 0 1-1.376 1.438 6.767 6.767 0 0 1-1.968.89 8.862 8.862 0 0 1-2.266.297A7.933 7.933 0 0 1 5.047.047 6.484 6.484 0 0 1 3.28-.625a5.21 5.21 0 0 1-1.42-1.156 4.909 4.909 0 0 1-.921-1.657Zm0 0"/>
    </symbol>
    <symbol id="b" overflow="visible">
      <path stroke="none" d="M6.531-11.86c1.051 0 1.953.262 2.703.782.758.523 1.329 1.14 1.704 1.86l-1.813.655A3.106 3.106 0 0 0 8-9.687c-.469-.282-1.008-.422-1.61-.422-.437 0-.859.09-1.265.265-.406.168-.766.43-1.078.781-.305.356-.547.805-.734 1.344-.188.543-.282 1.18-.282 1.907 0 .742.094 1.382.281 1.921.188.543.438.996.75 1.36.313.355.665.625 1.063.812.406.18.828.266 1.266.266.644 0 1.203-.145 1.671-.438.47-.289.836-.656 1.11-1.093l1.812.656c-.437.75-1.07 1.375-1.89 1.875C8.28.035 7.359.28 6.328.28c-.836 0-1.59-.148-2.266-.437a4.98 4.98 0 0 1-1.718-1.266 5.63 5.63 0 0 1-1.078-1.922A7.664 7.664 0 0 1 .89-5.78c0-.883.129-1.692.39-2.422a5.77 5.77 0 0 1 1.14-1.922 5.139 5.139 0 0 1 1.782-1.266c.695-.312 1.473-.468 2.328-.468Zm0 0"/>
    </symbol>
    <symbol id="c" overflow="visible">
      <path stroke="none" d="M5.828-11.86c.945 0 1.711.188 2.297.563a4.34 4.34 0 0 1 1.422 1.469l.547-1.828h1.422V-1.11c0 .586-.024 1.132-.063 1.656a4.46 4.46 0 0 1-.328 1.469 3.49 3.49 0 0 1-.86 1.203c-.386.363-.917.672-1.593.922a5.338 5.338 0 0 1-1.047.28 7.243 7.243 0 0 1-1.188.095c-.468 0-.945-.055-1.421-.157a5.076 5.076 0 0 1-1.329-.484 4.029 4.029 0 0 1-1.078-.844 3.348 3.348 0 0 1-.703-1.25l1.969-.531c.113.313.266.563.453.75.188.195.395.352.625.469.238.113.488.191.75.234a3.824 3.824 0 0 0 1.531 0 6.97 6.97 0 0 0 .532-.11c.351-.124.644-.277.875-.452a1.88 1.88 0 0 0 .53-.657c.134-.25.227-.554.282-.906.063-.355.094-.765.094-1.234v-1.547A4.327 4.327 0 0 1 8.125-.75c-.586.355-1.352.531-2.297.531a4.806 4.806 0 0 1-1.86-.375 4.533 4.533 0 0 1-1.577-1.11c-.45-.5-.813-1.109-1.094-1.827C1.023-4.25.89-5.078.89-6.016c0-.945.132-1.78.406-2.5.281-.718.644-1.32 1.094-1.812.457-.5.984-.879 1.578-1.14a4.685 4.685 0 0 1 1.86-.391ZM3.031-6.015c0 1.336.305 2.36.922 3.079.613.718 1.406 1.078 2.375 1.078.438 0 .852-.079 1.25-.235a2.609 2.609 0 0 0 1.047-.734c.3-.344.54-.774.719-1.297.187-.531.281-1.16.281-1.89 0-.739-.094-1.368-.281-1.891-.18-.532-.418-.957-.719-1.282a2.648 2.648 0 0 0-1.047-.734 3.383 3.383 0 0 0-1.25-.234c-.969 0-1.762.36-2.375 1.078-.617.71-.922 1.73-.922 3.062Zm0 0"/>
    </symbol>
    <symbol id="e" overflow="visible">
      <path stroke="none" d="M2.64-3.344c.094.344.235.649.422.906.196.25.43.454.704.61.28.156.578.273.89.344.313.062.633.093.969.093.344 0 .676-.035 1-.109a3.21 3.21 0 0 0 .89-.36c.258-.156.47-.335.626-.546a1.21 1.21 0 0 0 .234-.719c0-.531-.188-.93-.563-1.203-.367-.27-.824-.477-1.375-.625a19.084 19.084 0 0 0-1.765-.375 8.422 8.422 0 0 1-1.781-.516 3.497 3.497 0 0 1-1.375-.984C1.148-7.266.969-7.863.969-8.625c0-.52.125-.984.375-1.39a3.358 3.358 0 0 1 1.015-1.016 4.483 4.483 0 0 1 1.438-.625 6.384 6.384 0 0 1 1.656-.219c.926 0 1.797.195 2.61.578A3.55 3.55 0 0 1 9.828-9.5l-1.86.688c-.198-.477-.554-.829-1.062-1.047a3.9 3.9 0 0 0-1.593-.344c-.293 0-.586.039-.875.11a2.67 2.67 0 0 0-.75.28c-.22.126-.399.29-.532.485-.125.2-.187.422-.187.672 0 .469.18.812.547 1.031.363.219.82.398 1.375.531.55.137 1.144.262 1.78.375a6.926 6.926 0 0 1 1.766.532c.551.25 1.008.605 1.376 1.062.374.46.562 1.102.562 1.922 0 .555-.137 1.047-.406 1.484A3.54 3.54 0 0 1 8.906-.625a5.39 5.39 0 0 1-1.531.672 6.522 6.522 0 0 1-1.75.234c-.5 0-1.008-.062-1.516-.187a5.71 5.71 0 0 1-1.406-.516 4.621 4.621 0 0 1-1.172-.906 3.77 3.77 0 0 1-.797-1.313Zm0 0"/>
    </symbol>
    <symbol id="d" overflow="visible">
      <path stroke="none" d="M6.563-11.86c.925 0 1.738.188 2.437.563.707.367 1.29.856 1.75 1.469a6.01 6.01 0 0 1 1.016 2.11c.218.792.296 1.6.234 2.421H3.016c.03.742.164 1.36.406 1.86.238.492.535.882.89 1.171.352.293.735.5 1.141.625s.79.188 1.156.188c.657 0 1.207-.098 1.657-.297.445-.207.8-.492 1.062-.86l1.906.563c-.418.688-1.023 1.25-1.812 1.688-.781.425-1.719.64-2.813.64-.906 0-1.718-.156-2.437-.469a5.18 5.18 0 0 1-1.797-1.28 5.499 5.499 0 0 1-1.11-1.938 7.452 7.452 0 0 1-.374-2.406c0-.926.144-1.758.437-2.5.29-.75.692-1.383 1.203-1.907a5.287 5.287 0 0 1 1.797-1.203 5.699 5.699 0 0 1 2.234-.437Zm3.343 5c0-.413-.078-.82-.234-1.218A3.248 3.248 0 0 0 9-9.125a3.33 3.33 0 0 0-1.047-.75 3.287 3.287 0 0 0-1.39-.281c-.438 0-.868.062-1.282.187-.406.125-.765.32-1.078.578a3.13 3.13 0 0 0-.781 1.016c-.211.406-.34.914-.39 1.516Zm0 0"/>
    </symbol>
    <symbol id="f" overflow="visible">
      <path stroke="none" d="M8.766-7.203c.03-.977-.168-1.734-.594-2.266-.418-.539-1.094-.812-2.031-.812-.711 0-1.29.164-1.735.484a2.158 2.158 0 0 0-.86 1.328L1.642-9.03a3.85 3.85 0 0 1 1.671-2.078c.813-.5 1.743-.75 2.797-.75 1.614 0 2.786.382 3.516 1.14.727.75 1.102 1.95 1.125 3.594l.016 2.734c.02.98.062 1.82.125 2.516.07.7.164 1.324.28 1.875H9.36l-.468-1.594a3.824 3.824 0 0 1-1.485 1.39c-.625.321-1.453.485-2.484.485A5.091 5.091 0 0 1 3.359.047a4.067 4.067 0 0 1-1.28-.64 3.25 3.25 0 0 1-.876-1.063c-.21-.414-.312-.89-.312-1.422 0-.688.187-1.266.562-1.735.375-.476.899-.867 1.578-1.171.688-.301 1.516-.54 2.485-.72a50.895 50.895 0 0 1 3.25-.5ZM3.078-3.125c0 .555.195.996.594 1.328.406.336.96.5 1.672.5.445 0 .883-.055 1.312-.172.438-.113.82-.304 1.157-.578.343-.281.613-.648.812-1.11.207-.468.313-1.046.313-1.734v-.734c-.899.094-1.704.203-2.422.328-.72.117-1.336.266-1.844.453-.512.188-.906.422-1.188.703-.273.274-.406.61-.406 1.016Zm0 0"/>
    </symbol>
    <symbol id="g" overflow="visible">
      <path stroke="none" d="m2.188-11.64 2.874 8.984 2.86-8.985h2.172L5.954.516a14.202 14.202 0 0 1-.626 1.578c-.21.426-.46.765-.75 1.015-.293.25-.652.422-1.078.516-.418.102-.96.156-1.625.156h-1V2.047h.797c.414 0 .758-.024 1.031-.063.27-.043.492-.136.672-.28.176-.138.32-.34.438-.61.124-.262.253-.617.39-1.063L0-11.64Zm0 0"/>
    </symbol>
    <symbol id="h" overflow="visible">
      <path stroke="none" d="M1.781-1.219c0-.426.149-.785.453-1.078.301-.3.657-.453 1.063-.453.414 0 .773.152 1.078.453.3.293.453.652.453 1.078 0 .407-.152.762-.453 1.063A1.518 1.518 0 0 1 3.297.28a1.49 1.49 0 0 1-1.063-.437 1.443 1.443 0 0 1-.453-1.063Zm.469-10.437v-4.047h2.094v4.047l-.422 7.078H2.687Zm0 0"/>
    </symbol>
    <symbol id="i" overflow="visible">
      <path stroke="none" d="M.719-4.016c0-1.343.265-2.367.797-3.078.539-.707 1.332-1.062 2.375-1.062 1.03 0 1.812.355 2.343 1.062.54.711.813 1.735.813 3.078 0 1.356-.274 2.387-.813 3.094C5.704-.21 4.922.141 3.891.141 2.848.14 2.055-.211 1.516-.922.984-1.629.719-2.66.719-4.016Zm1.094 0c0 1.055.164 1.86.5 2.422.332.563.859.844 1.578.844.539 0 .984-.176 1.328-.531L2.047-5.828c-.086.25-.149.527-.188.828a9.674 9.674 0 0 0-.046.984Zm.78-2.765 3.157 4.5c.133-.477.203-1.055.203-1.735 0-1.039-.172-1.843-.516-2.406-.335-.562-.851-.844-1.546-.844-.524 0-.954.164-1.297.485Zm0 0"/>
    </symbol>
    <symbol id="k" overflow="visible">
      <path stroke="none" d="M.5-6.047v-.797c.29 0 .566-.008.828-.031.258-.031.492-.086.703-.172.219-.082.406-.203.563-.36.164-.155.289-.35.375-.593h.672v8h-1v-6.047Zm0 0"/>
    </symbol>
    <symbol id="l" overflow="visible">
      <path stroke="none" d="M.406 0v-.906a33.98 33.98 0 0 0 1.89-1.453 15.234 15.234 0 0 0 1.423-1.297c.383-.414.676-.805.875-1.172.195-.375.297-.738.297-1.094 0-.414-.133-.75-.391-1-.262-.258-.633-.39-1.11-.39a2.14 2.14 0 0 0-.562.078c-.18.043-.34.12-.484.234a1.51 1.51 0 0 0-.39.422 1.463 1.463 0 0 0-.235.61L.703-6.25a2.384 2.384 0 0 1 .922-1.39c.477-.344 1.078-.516 1.797-.516.363 0 .703.047 1.015.14.313.094.579.235.797.422.227.18.407.399.532.657.125.25.187.546.187.89 0 .461-.117.914-.344 1.36a6.46 6.46 0 0 1-.921 1.296c-.375.43-.82.844-1.329 1.25-.511.407-1.043.813-1.593 1.22h4.406V0Zm0 0"/>
    </symbol>
    <symbol id="n" overflow="visible">
      <path stroke="none" d="m.5-1.813 1-.28c.082.417.27.757.563 1.015.289.262.69.39 1.203.39.53 0 .96-.128 1.296-.39.344-.27.516-.656.516-1.156 0-.383-.101-.68-.297-.891a1.624 1.624 0 0 0-.703-.453 2.873 2.873 0 0 0-.812-.156 9.9 9.9 0 0 0-.657-.032v-.906c.227 0 .473-.008.735-.031.258-.02.504-.07.734-.156.227-.094.414-.227.563-.407.156-.175.234-.421.234-.734a1.2 1.2 0 0 0-.125-.563 1.17 1.17 0 0 0-.344-.406 1.328 1.328 0 0 0-.484-.25 1.916 1.916 0 0 0-.61-.093c-.492 0-.882.125-1.171.375-.282.25-.461.574-.532.968L.625-6.25a2.398 2.398 0 0 1 .906-1.39c.469-.344 1.07-.516 1.813-.516.351 0 .687.039 1 .11a2.3 2.3 0 0 1 .812.358c.239.168.426.383.563.641.144.25.218.563.218.938 0 .406-.117.777-.343 1.109-.219.324-.543.574-.969.75.3.094.55.215.75.36.195.136.352.292.469.468.113.18.191.367.234.563.05.199.078.402.078.609 0 .406-.078.762-.234 1.063a2.15 2.15 0 0 1-.64.734c-.274.2-.587.351-.938.453a4.08 4.08 0 0 1-1.078.14A3.72 3.72 0 0 1 2.187 0a2.582 2.582 0 0 1-.812-.422 2.327 2.327 0 0 1-.547-.625A2.716 2.716 0 0 1 .5-1.813Zm0 0"/>
    </symbol>
    <symbol id="o" overflow="visible">
      <path stroke="none" d="m.64-1.813.985-.28c.102.437.29.78.563 1.03.28.25.687.375 1.218.375.239 0 .461-.039.672-.125.219-.093.41-.218.578-.375a1.74 1.74 0 0 0 .39-.609c.095-.238.141-.516.141-.828a2.007 2.007 0 0 0-.578-1.453 1.581 1.581 0 0 0-.578-.344c-.21-.07-.422-.11-.64-.11-.211 0-.403.032-.579.095a2.04 2.04 0 0 0-.453.203 1.59 1.59 0 0 0-.328.296 1.23 1.23 0 0 0-.187.297l-.985-.296L1.36-8h4.579v.969H2.171L1.89-4.797c.207-.207.46-.36.765-.453.301-.094.625-.14.969-.14s.672.062.984.187c.32.125.602.305.844.531.238.23.43.516.578.86.145.343.219.734.219 1.171 0 .461-.078.868-.234 1.22a2.579 2.579 0 0 1-.641.874 2.57 2.57 0 0 1-.906.516A3.292 3.292 0 0 1 3.406.14C3 .14 2.641.086 2.328-.016a2.832 2.832 0 0 1-.797-.406 2.61 2.61 0 0 1-.562-.625 2.716 2.716 0 0 1-.328-.766Zm0 0"/>
    </symbol>
    <symbol id="q" overflow="visible">
      <path stroke="none" d="M.719-3.719c0-.562.05-1.11.156-1.64.113-.532.29-1.004.531-1.422.25-.414.57-.75.969-1 .395-.25.883-.375 1.469-.375.601 0 1.086.125 1.453.375.363.25.629.558.797.922l-1.016.296a1.2 1.2 0 0 0-.531-.546c-.23-.133-.5-.204-.813-.204-.312 0-.59.079-.828.235a1.833 1.833 0 0 0-.61.625 3.43 3.43 0 0 0-.39.984 6.08 6.08 0 0 0-.14 1.25c.175-.312.437-.57.78-.781.345-.219.786-.328 1.329-.328.375 0 .719.07 1.031.203.313.125.582.309.813.547.226.242.406.527.531.86.133.335.203.702.203 1.109 0 .367-.07.718-.203 1.062a2.61 2.61 0 0 1-.578.875 2.61 2.61 0 0 1-.875.594A2.999 2.999 0 0 1 3.625.14c-1 0-1.734-.332-2.203-1C.953-1.523.719-2.477.719-3.72ZM3.625-.703c.531 0 .953-.172 1.266-.516.32-.351.484-.804.484-1.36 0-.55-.164-1-.484-1.343-.313-.351-.735-.531-1.266-.531s-.96.18-1.281.531c-.313.344-.469.793-.469 1.344 0 .555.156 1.008.469 1.36.32.343.75.515 1.281.515Zm0 0"/>
    </symbol>
    <symbol id="r" overflow="visible">
      <path stroke="none" d="M.719-2.25c0-.52.129-.957.39-1.313.27-.363.63-.64 1.079-.828a2.173 2.173 0 0 1-.5-.703 2.209 2.209 0 0 1-.172-.89c0-.301.05-.582.156-.844a2.238 2.238 0 0 1 1.156-1.156c.27-.114.55-.172.844-.172.312 0 .598.058.86.172.257.117.488.273.687.468.207.2.363.43.468.688.114.262.172.543.172.844 0 .324-.062.62-.187.89a2.234 2.234 0 0 1-.5.703c.445.188.805.465 1.078.829.27.355.406.792.406 1.312 0 .387-.078.727-.234 1.016a2.174 2.174 0 0 1-.625.75c-.274.199-.59.355-.953.468a4.252 4.252 0 0 1-1.172.157c-.406 0-.793-.055-1.156-.157a3.195 3.195 0 0 1-.938-.468 2.265 2.265 0 0 1-.64-.75c-.149-.29-.22-.63-.22-1.016Zm1.094 0c0 .469.164.84.5 1.11.332.261.785.39 1.359.39.582 0 1.039-.129 1.375-.39.344-.27.516-.641.516-1.11 0-.469-.172-.844-.516-1.125-.336-.281-.793-.422-1.375-.422-.574 0-1.027.14-1.36.422-.335.281-.5.656-.5 1.125Zm1.859-2.438c.176 0 .344-.03.5-.093.156-.07.289-.164.406-.282.113-.113.207-.25.281-.406a1.3 1.3 0 0 0 .11-.515c0-.176-.04-.344-.11-.5a1.507 1.507 0 0 0-.28-.407 1.241 1.241 0 0 0-.407-.265 1.168 1.168 0 0 0-.984 0 1.4 1.4 0 0 0-.422.265 1.35 1.35 0 0 0-.282.407 1.436 1.436 0 0 0 0 1.016c.07.155.164.292.282.405.125.118.265.211.421.282.157.062.317.093.485.093Zm0 0"/>
    </symbol>
    <symbol id="t" overflow="visible">
      <path stroke="none" d="M.719-5.281c0-.395.07-.766.219-1.11.144-.351.347-.656.609-.906.258-.258.562-.46.906-.61a2.739 2.739 0 0 1 1.125-.234c.406 0 .781.079 1.125.235.344.148.645.351.906.61.258.25.461.554.61.905.156.344.234.72.234 1.125 0 .375-.074.743-.219 1.094a17.65 17.65 0 0 1-.28.563c-.15.28-.329.617-.548 1-.21.386-.453.808-.734 1.265-.281.45-.574.899-.875 1.344h-1.25c.195-.27.394-.547.594-.828.164-.25.347-.52.546-.813.196-.289.376-.57.532-.843a2.42 2.42 0 0 1-.64.078c-.388 0-.759-.07-1.11-.219a3.004 3.004 0 0 1-.906-.625 3.004 3.004 0 0 1-.625-.906 2.86 2.86 0 0 1-.22-1.125Zm2.86 1.843c.257 0 .503-.046.733-.14a1.98 1.98 0 0 0 .594-.406 1.83 1.83 0 0 0 .39-.579 1.87 1.87 0 0 0 .141-.718c0-.258-.046-.5-.14-.719a1.888 1.888 0 0 0-.39-.578 1.868 1.868 0 0 0-.595-.39 1.809 1.809 0 0 0-.734-.157c-.25 0-.492.055-.719.156A1.842 1.842 0 0 0 1.891-6c-.094.219-.141.46-.141.719a1.779 1.779 0 0 0 .531 1.297c.164.168.36.304.578.406.227.094.47.14.72.14Zm0 0"/>
    </symbol>
    <symbol id="A" overflow="visible">
      <path stroke="none" d="M.719-4.016c0-1.343.265-2.367.797-3.078.539-.707 1.332-1.062 2.375-1.062 1.039 0 1.828.355 2.359 1.062.54.711.813 1.735.813 3.078 0 1.356-.274 2.387-.813 3.094C5.719-.21 4.93.141 3.89.141 2.849.14 2.056-.211 1.517-.922.984-1.629.719-2.66.719-4.016Zm1.094 0c0 1.055.164 1.86.5 2.422.332.563.859.844 1.578.844.55 0 .992-.176 1.328-.531L2.047-5.828c-.086.25-.149.527-.188.828a9.348 9.348 0 0 0-.046.984Zm.796-2.78 3.157 4.515c.132-.477.203-1.055.203-1.735 0-1.05-.172-1.851-.516-2.406-.344-.562-.867-.844-1.562-.844-.524 0-.95.157-1.282.47Zm0 0"/>
    </symbol>
    <symbol id="B" overflow="visible">
      <path stroke="none" d="M.406 0v-.906a50.974 50.974 0 0 0 1.89-1.453 15.234 15.234 0 0 0 1.423-1.297c.383-.414.676-.813.875-1.188.195-.375.297-.734.297-1.078 0-.414-.133-.75-.391-1-.262-.258-.633-.39-1.11-.39a2.14 2.14 0 0 0-.562.078 1.4 1.4 0 0 0-.484.218 1.51 1.51 0 0 0-.39.422 1.471 1.471 0 0 0-.235.625L.703-6.266a2.297 2.297 0 0 1 .938-1.375c.476-.343 1.07-.515 1.78-.515.364 0 .704.047 1.017.14.312.086.578.22.796.407a1.942 1.942 0 0 1 .734 1.547c0 .468-.116.921-.343 1.359a6.46 6.46 0 0 1-.922 1.297c-.387.43-.836.851-1.344 1.265-.5.407-1.03.813-1.593 1.22h4.421V0Zm0 0"/>
    </symbol>
    <symbol id="C" overflow="visible">
      <path stroke="none" d="m.5-1.813 1-.28c.082.417.27.757.563 1.015.3.25.707.375 1.218.375.52 0 .953-.129 1.297-.39.344-.259.516-.645.516-1.157 0-.375-.102-.664-.297-.875-.2-.207-.434-.36-.703-.453a2.9 2.9 0 0 0-.828-.156 9.9 9.9 0 0 0-.657-.032v-.921c.227 0 .473-.004.735-.016a2.5 2.5 0 0 0 .734-.156c.227-.094.422-.227.578-.407.157-.187.235-.437.235-.75a1.07 1.07 0 0 0-.141-.562 1.254 1.254 0 0 0-.328-.406 1.338 1.338 0 0 0-.5-.25 2.27 2.27 0 0 0-.594-.079c-.5 0-.89.125-1.172.375a1.67 1.67 0 0 0-.547.97l-.984-.298c.145-.57.445-1.03.906-1.375.469-.343 1.07-.515 1.813-.515.351 0 .687.039 1 .11a2.3 2.3 0 0 1 .812.358c.239.157.426.368.563.625.144.25.218.563.218.938 0 .406-.117.777-.343 1.11-.219.324-.543.574-.969.75.313.105.563.226.75.359.195.136.352.293.469.469.125.18.207.37.25.578.05.199.078.402.078.609 0 .406-.086.762-.25 1.063a2.15 2.15 0 0 1-.64.734c-.262.2-.571.351-.923.453-.343.094-.71.14-1.093.14A3.72 3.72 0 0 1 2.187 0a2.582 2.582 0 0 1-.812-.422 2.327 2.327 0 0 1-.547-.625A2.716 2.716 0 0 1 .5-1.813Zm0 0"/>
    </symbol>
    <symbol id="D" overflow="visible">
      <path stroke="none" d="m.64-1.813.985-.28c.102.437.29.78.563 1.03.28.243.687.36 1.218.36.239 0 .469-.04.688-.125.218-.082.406-.203.562-.36a1.74 1.74 0 0 0 .39-.609c.102-.238.157-.516.157-.828 0-.332-.058-.617-.172-.86a1.647 1.647 0 0 0-.406-.593 1.581 1.581 0 0 0-.578-.344 2.07 2.07 0 0 0-1.234-.031c-.168.055-.32.125-.454.219-.125.086-.234.18-.328.28a1.176 1.176 0 0 0-.187.313l-.985-.296.5-4.079h4.594v.97H2.172l-.281 2.25c.207-.208.46-.36.765-.454.313-.102.633-.156.969-.156.352 0 .688.062 1 .187.313.125.586.309.828.547.238.23.43.516.578.86.145.343.219.734.219 1.171 0 .461-.078.868-.234 1.22a2.579 2.579 0 0 1-.641.874 2.57 2.57 0 0 1-.906.516A3.292 3.292 0 0 1 3.406.14C3 .14 2.641.086 2.328-.016a2.584 2.584 0 0 1-.797-.421 2.777 2.777 0 0 1-.562-.61 2.716 2.716 0 0 1-.328-.766Zm0 0"/>
    </symbol>
    <symbol id="E" overflow="visible">
      <path stroke="none" d="M.719-3.719c0-.57.05-1.125.156-1.656.113-.531.29-1.004.531-1.422.25-.414.57-.742.969-.984.395-.25.89-.375 1.484-.375s1.07.125 1.438.375c.363.242.633.543.812.906l-1.015.297a1.337 1.337 0 0 0-.532-.531 1.636 1.636 0 0 0-.828-.204c-.312 0-.59.075-.828.22a1.833 1.833 0 0 0-.61.624 3.43 3.43 0 0 0-.39.985 6.144 6.144 0 0 0-.14 1.265c.187-.312.453-.578.796-.797.344-.218.782-.328 1.313-.328.375 0 .719.07 1.031.203a2.537 2.537 0 0 1 1.36 1.423c.125.335.187.702.187 1.109 0 .367-.07.714-.203 1.046a2.537 2.537 0 0 1-.563.891c-.25.25-.546.45-.89.594a2.97 2.97 0 0 1-1.156.219c-1.012 0-1.75-.332-2.22-1C.954-1.523.72-2.477.72-3.72ZM3.64-.703c.52 0 .937-.172 1.25-.516.32-.351.484-.804.484-1.36 0-.55-.164-1-.484-1.343-.313-.351-.73-.531-1.25-.531-.543 0-.97.18-1.282.531-.312.344-.468.793-.468 1.344 0 .555.156 1.008.468 1.36.313.343.739.515 1.282.515Zm0 0"/>
    </symbol>
    <symbol id="F" overflow="visible">
      <path stroke="none" d="M.719-2.25c0-.52.133-.957.406-1.313a2.53 2.53 0 0 1 1.078-.828 2.173 2.173 0 0 1-.687-1.593c0-.301.05-.582.156-.844.113-.258.27-.488.469-.688.207-.207.441-.363.703-.468.258-.114.539-.172.844-.172.3 0 .582.058.843.172.27.105.504.261.703.468.196.2.352.43.47.688.112.262.171.543.171.844a2.169 2.169 0 0 1-.688 1.593 2.45 2.45 0 0 1 1.063.829c.27.355.406.792.406 1.312a2.174 2.174 0 0 1-.86 1.766c-.26.199-.573.355-.937.468a4.378 4.378 0 0 1-1.171.157c-.418 0-.81-.055-1.172-.157a3.195 3.195 0 0 1-.938-.468 2.265 2.265 0 0 1-.64-.75 2.262 2.262 0 0 1-.22-1.016Zm1.094 0c0 .469.164.84.5 1.11.332.261.789.39 1.374.39.57 0 1.024-.129 1.36-.39.344-.27.516-.641.516-1.11 0-.477-.172-.852-.516-1.125-.336-.281-.79-.422-1.36-.422-.585 0-1.042.14-1.374.422-.336.273-.5.648-.5 1.125Zm1.875-2.438c.175 0 .343-.03.5-.093.156-.07.289-.164.406-.282a1.4 1.4 0 0 0 .265-.421 1.244 1.244 0 0 0 0-1.016 1.067 1.067 0 0 0-.265-.39 1.241 1.241 0 0 0-.407-.266 1.199 1.199 0 0 0-1 0 1.202 1.202 0 0 0-.406.265c-.117.106-.21.235-.281.391a1.339 1.339 0 0 0-.094.5c0 .188.031.36.094.516.07.156.164.296.281.421.114.118.25.211.406.282.157.062.32.093.5.093Zm0 0"/>
    </symbol>
  </defs>
  <path fill="#3085ee" stroke="none" d="M25.176 56.285v35.313h35.316V56.285Zm34.191 34.188h-33.09v-33.09h33.09Zm0 0"/>
  <path fill="#3085ee" stroke="none" d="M59.54 56.285v35.313h35.315V56.285Zm34.19 34.188H60.64v-33.09h33.09Zm0 0"/>
  <path fill="#3085ee" stroke="none" d="M93.902 56.285v35.313h35.317V56.285Zm34.192 34.188h-33.09v-33.09h33.09Zm0 0"/>
  <path fill="#3085ee" stroke="none" d="M128.266 56.285v35.313h35.316V56.285Zm34.191 34.188h-33.09v-33.09h33.09Zm0 0"/>
  <path fill="#3085ee" stroke="none" d="M162.629 56.285v35.313h35.316V56.285Zm34.191 34.188h-33.09v-33.09h33.09Zm0 0"/>
  <path fill="#3085ee" stroke="none" d="M196.992 56.285v35.313h35.317V56.285Zm34.192 34.188h-33.09v-33.09h33.09Zm0 0"/>
  <path fill="#3085ee" stroke="none" d="M231.355 56.285v35.313h35.317V56.285Zm34.192 34.188h-33.09v-33.09h33.09Zm0 0"/>
  <path fill="#3085ee" stroke="none" d="M265.719 56.285v35.313h35.316V56.285Zm34.191 34.188h-33.09v-33.09h33.09Zm0 0"/>
  <path fill="#3085ee" stroke="none" d="M300.082 56.285v35.313h35.316V56.285Zm34.191 34.188h-33.09v-33.09h33.09Zm0 0"/>
  <path fill="#3085ee" stroke="none" d="M334.445 56.285v35.313h35.317V56.285Zm34.192 34.188h-33.09v-33.09h33.09Zm0 0"/>
  <path fill="#3085ee" stroke="none" d="M368.809 56.285v35.313h35.316V56.285ZM403 90.473h-33.09v-33.09H403Zm0 0"/>
  <path fill="#3085ee" stroke="none" d="M403.172 56.285v35.313h35.316V56.285Zm34.191 34.188h-33.09v-33.09h33.09Zm0 0"/>
  <path fill="#3085ee" stroke="none" d="M437.535 56.285v35.313h35.317V56.285Zm34.192 34.188h-33.09v-33.09h33.09Zm0 0"/>
  <path fill="#3085ee" stroke="none" d="M471.898 56.285v35.313h35.317V56.285Zm34.192 34.188H473v-33.09h33.09Zm0 0"/>
  <path fill="#3085ee" stroke="none" d="M506.262 56.285v35.313h35.316V56.285Zm34.191 34.188h-33.09v-33.09h33.09Zm0 0"/>
  <path fill="#3085ee" stroke="none" d="M540.625 56.285v35.313h35.316V56.285Zm34.191 34.188h-33.09v-33.09h33.09Zm0 0"/>
  <use xlink:href="#a" x="35.788" y="79.491" fill="#f8f8f2"/>
  <use xlink:href="#b" x="74.355" y="79.491" fill="#f8f8f2"/>
  <use xlink:href="#c" x="108.255" y="79.491" fill="#f8f8f2"/>
  <use xlink:href="#b" x="140.01" y="79.491" fill="#f8f8f2"/>
  <use xlink:href="#c" x="176.982" y="79.491" fill="#f8f8f2"/>
  <use xlink:href="#d" x="208.193" y="79.491" fill="#f8f8f2"/>
  <use xlink:href="#c" x="242.394" y="79.491" fill="#f8f8f2"/>
  <use xlink:href="#c" x="314.435" y="79.491" fill="#f8f8f2"/>
  <use xlink:href="#e" x="346.528" y="79.491" fill="#f8f8f2"/>
  <use xlink:href="#d" x="414.461" y="79.491" fill="#f8f8f2"/>
  <use xlink:href="#f" x="448.972" y="79.491" fill="#f8f8f2"/>
  <use xlink:href="#e" x="483.982" y="79.491" fill="#f8f8f2"/>
  <use xlink:href="#g" x="518.845" y="79.491" fill="#f8f8f2"/>
  <use xlink:href="#h" x="554.942" y="79.491" fill="#f8f8f2"/>
  <use xlink:href="#i" stroke-linecap="round" transform="matrix(0 -.75 .7619 0 25.56 112.26)"/>
  <path fill="none" stroke="#fff" stroke-linejoin="round" d="M.498-1.499h3v3h-3Zm0 0" transform="matrix(0 -.75 .7619 0 25.56 112.26)"/>
  <path fill="none" stroke="#fff" stroke-linejoin="round" d="M-3.498-1.499h3v3h-3Zm0 0" transform="matrix(0 -.75 .7619 0 25.56 89.756)"/>
  <use xlink:href="#i" x="21.668" y="122.305" fill="#f8f8f2"/>
  <use xlink:href="#k" stroke-linecap="round" transform="matrix(0 -.75 .7619 0 60.43 112.26)"/>
  <use xlink:href="#j" stroke-linejoin="round" transform="matrix(0 -.75 .7619 0 60.43 112.26)"/>
  <use xlink:href="#m" stroke-linejoin="round" transform="matrix(0 -.75 .7619 0 60.43 89.756)"/>
  <use xlink:href="#k" x="58.012" y="122.305" fill="#f8f8f2"/>
  <use xlink:href="#k" stroke-linecap="round" transform="matrix(0 -.75 .7619 0 94.794 112.26)"/>
  <use xlink:href="#j" stroke-linejoin="round" transform="matrix(0 -.75 .7619 0 94.794 112.26)"/>
  <use xlink:href="#m" stroke-linejoin="round" transform="matrix(0 -.75 .7619 0 94.794 89.756)"/>
  <use xlink:href="#l" x="91.495" y="122.305" fill="#f8f8f2"/>
  <path fill="none" stroke="#fff" stroke-linecap="round" d="M3.998.003h22.01" transform="matrix(0 -.75 .7619 0 128.318 112.26)"/>
  <use xlink:href="#m" stroke-linejoin="round" transform="matrix(0 -.75 .7619 0 128.318 112.26)"/>
  <use xlink:href="#q" stroke-linejoin="round" transform="matrix(0 -.75 .7619 0 128.318 89.756)"/>
  <use xlink:href="#n" x="124.869" y="122.305" fill="#f8f8f2"/>
  <use xlink:href="#i" stroke-linecap="round" transform="matrix(0 -.75 .7619 0 163.19 112.26)"/>
  <use xlink:href="#m" stroke-linejoin="round" transform="matrix(0 -.75 .7619 0 163.19 112.26)"/>
  <use xlink:href="#q" stroke-linejoin="round" transform="matrix(0 -.75 .7619 0 163.19 89.756)"/>
  <use xlink:href="#m" x="159.503" y="122.305" fill="#f8f8f2"/>
  <use xlink:href="#i" stroke-linecap="round" transform="matrix(0 -.75 .7619 0 197.552 112.26)"/>
  <use xlink:href="#m" stroke-linejoin="round" transform="matrix(0 -.75 .7619 0 197.552 112.26)"/>
  <use xlink:href="#q" stroke-linejoin="round" transform="matrix(0 -.75 .7619 0 197.552 89.756)"/>
  <use xlink:href="#o" x="194.047" y="122.305" fill="#f8f8f2"/>
  <use xlink:href="#p" stroke-linecap="round" transform="matrix(0 -.75 .7619 0 232.015 112.26)"/>
  <path fill="none" stroke="#fff" stroke-linejoin="round" d="M.498-1.502h3v3h-3Zm0 0" transform="matrix(0 -.75 .7619 0 232.015 112.26)"/>
  <path fill="none" stroke="#fff" stroke-linejoin="round" d="M-3.498-1.502h3v3h-3Zm0 0" transform="matrix(0 -.75 .7619 0 232.015 89.756)"/>
  <use xlink:href="#q" x="228.423" y="122.305" fill="#f8f8f2"/>
  <path fill="none" stroke="#fff" stroke-linecap="round" d="M3.998.002h22.01" transform="matrix(0 -.75 .7619 0 266.104 112.26)"/>
  <use xlink:href="#m" stroke-linejoin="round" transform="matrix(0 -.75 .7619 0 266.104 112.26)"/>
  <use xlink:href="#q" stroke-linejoin="round" transform="matrix(0 -.75 .7619 0 266.104 89.756)"/>
  <use xlink:href="#o" x="263.036" y="122.305" fill="#f8f8f2"/>
  <use xlink:href="#p" stroke-linecap="round" transform="matrix(0 -.75 .7619 0 301.25 112.26)"/>
  <path fill="none" stroke="#fff" stroke-linejoin="round" d="M.498-1.501h3v2.999h-3Zm0 0" transform="matrix(0 -.75 .7619 0 301.25 112.26)"/>
  <path fill="none" stroke="#fff" stroke-linejoin="round" d="M-3.498-1.501h3v2.999h-3Zm0 0" transform="matrix(0 -.75 .7619 0 301.25 89.756)"/>
  <use xlink:href="#r" x="297.557" y="122.305" fill="#f8f8f2"/>
  <use xlink:href="#p" stroke-linecap="round" transform="matrix(0 -.75 .7619 0 334.774 112.26)"/>
  <use xlink:href="#s" stroke-linejoin="round" transform="matrix(0 -.75 .7619 0 334.774 112.26)"/>
  <use xlink:href="#x" stroke-linejoin="round" transform="matrix(0 -.75 .7619 0 334.774 89.756)"/>
  <use xlink:href="#t" x="331.181" y="122.305" fill="#f8f8f2"/>
  <use xlink:href="#p" stroke-linecap="round" transform="matrix(0 -.75 .7619 0 369.645 112.26)"/>
  <use xlink:href="#u" stroke-linejoin="round" transform="matrix(0 -.75 .7619 0 369.645 112.26)"/>
  <use xlink:href="#A" stroke-linejoin="round" transform="matrix(0 -.75 .7619 0 369.645 89.756)"/>
  <use xlink:href="#k" x="363.343" y="122.305" fill="#f8f8f2"/>
  <use xlink:href="#i" x="368.161" y="122.305" fill="#f8f8f2"/>
  <use xlink:href="#p" stroke-linecap="round" transform="matrix(0 -.75 .7619 0 404.008 112.26)"/>
  <use xlink:href="#u" stroke-linejoin="round" transform="matrix(0 -.75 .7619 0 404.008 112.26)"/>
  <use xlink:href="#A" stroke-linejoin="round" transform="matrix(0 -.75 .7619 0 404.008 89.756)"/>
  <use xlink:href="#k" x="399.18" y="122.305" fill="#f8f8f2"/>
  <use xlink:href="#k" x="403.997" y="122.305" fill="#f8f8f2"/>
  <use xlink:href="#p" stroke-linecap="round" transform="matrix(0 -.75 .7619 0 438.05 112.26)"/>
  <use xlink:href="#u" stroke-linejoin="round" transform="matrix(0 -.75 .7619 0 438.05 112.26)"/>
  <use xlink:href="#A" stroke-linejoin="round" transform="matrix(0 -.75 .7619 0 438.05 89.756)"/>
  <use xlink:href="#k" x="432.342" y="122.305" fill="#f8f8f2"/>
  <use xlink:href="#l" x="437.16" y="122.305" fill="#f8f8f2"/>
  <use xlink:href="#p" stroke-linecap="round" transform="matrix(0 -.75 .7619 0 472.414 112.26)"/>
  <use xlink:href="#u" stroke-linejoin="round" transform="matrix(0 -.75 .7619 0 472.414 112.26)"/>
  <use xlink:href="#A" stroke-linejoin="round" transform="matrix(0 -.75 .7619 0 472.414 89.756)"/>
  <use xlink:href="#k" x="466.556" y="122.305" fill="#f8f8f2"/>
  <use xlink:href="#n" x="471.374" y="122.305" fill="#f8f8f2"/>
  <use xlink:href="#k" stroke-linecap="round" transform="matrix(0 -.75 .7619 0 505.938 112.26)"/>
  <use xlink:href="#j" stroke-linejoin="round" transform="matrix(0 -.75 .7619 0 505.938 112.26)"/>
  <use xlink:href="#m" stroke-linejoin="round" transform="matrix(0 -.75 .7619 0 505.938 89.756)"/>
  <use xlink:href="#k" x="499.843" y="122.305" fill="#f8f8f2"/>
  <use xlink:href="#m" x="504.661" y="122.305" fill="#f8f8f2"/>
  <use xlink:href="#p" stroke-linecap="round" transform="matrix(0 -.75 .7619 0 540.81 112.26)"/>
  <use xlink:href="#s" stroke-linejoin="round" transform="matrix(0 -.75 .7619 0 540.81 112.26)"/>
  <use xlink:href="#x" stroke-linejoin="round" transform="matrix(0 -.75 .7619 0 540.81 89.756)"/>
  <use xlink:href="#k" x="534.895" y="122.305" fill="#f8f8f2"/>
  <use xlink:href="#o" x="539.713" y="122.305" fill="#f8f8f2"/>
  <use xlink:href="#v" stroke-linecap="round" transform="matrix(0 -.74922 .75 0 24.984 58.028)"/>
  <use xlink:href="#w" stroke-linejoin="round" transform="matrix(0 -.74922 .75 0 24.984 58.028)"/>
  <use xlink:href="#D" stroke-linejoin="round" transform="matrix(0 -.74922 .75 0 24.984 35.519)"/>
  <use xlink:href="#v" stroke-linecap="round" transform="matrix(0 -.74922 .75 0 59.899 58.028)"/>
  <use xlink:href="#w" stroke-linejoin="round" transform="matrix(0 -.74922 .75 0 59.899 58.028)"/>
  <use xlink:href="#D" stroke-linejoin="round" transform="matrix(0 -.74922 .75 0 59.899 35.519)"/>
  <use xlink:href="#E" stroke-linecap="round" transform="matrix(0 -.74922 .75 0 94.306 58.028)"/>
  <use xlink:href="#x" stroke-linejoin="round" transform="matrix(0 -.74922 .75 0 94.306 58.028)"/>
  <use xlink:href="#G" stroke-linejoin="round" transform="matrix(0 -.74922 .75 0 94.306 35.519)"/>
  <use xlink:href="#E" stroke-linecap="round" transform="matrix(0 -.74922 .75 0 127.873 58.028)"/>
  <use xlink:href="#x" stroke-linejoin="round" transform="matrix(0 -.74922 .75 0 127.873 58.028)"/>
  <use xlink:href="#G" stroke-linejoin="round" transform="matrix(0 -.74922 .75 0 127.873 35.519)"/>
  <use xlink:href="#y" stroke-linecap="round" transform="matrix(0 -.74922 .75 0 162.787 58.028)"/>
  <use xlink:href="#z" stroke-linejoin="round" transform="matrix(0 -.74922 .75 0 162.787 58.028)"/>
  <use xlink:href="#J" stroke-linejoin="round" transform="matrix(0 -.74922 .75 0 162.787 35.519)"/>
  <use xlink:href="#y" stroke-linecap="round" transform="matrix(0 -.74922 .75 0 197.194 58.028)"/>
  <use xlink:href="#z" stroke-linejoin="round" transform="matrix(0 -.74922 .75 0 197.194 58.028)"/>
  <use xlink:href="#J" stroke-linejoin="round" transform="matrix(0 -.74922 .75 0 197.194 35.519)"/>
  <use xlink:href="#E" stroke-linecap="round" transform="matrix(0 -.74922 .75 0 231.7 58.028)"/>
  <use xlink:href="#x" stroke-linejoin="round" transform="matrix(0 -.74922 .75 0 231.7 58.028)"/>
  <use xlink:href="#G" stroke-linejoin="round" transform="matrix(0 -.74922 .75 0 231.7 35.519)"/>
  <path fill="none" stroke="#fff" stroke-linecap="round" d="M4-.003h22.044" transform="matrix(0 -.74922 .75 0 266.615 58.028)"/>
  <path fill="none" stroke="#fff" stroke-linejoin="round" d="M.502-1.503H3.5v3H.502Zm0 0" transform="matrix(0 -.74922 .75 0 266.615 58.028)"/>
  <path fill="none" stroke="#fff" stroke-linejoin="round" d="M-3.5-1.503h3v3h-3Zm0 0" transform="matrix(0 -.74922 .75 0 266.615 35.519)"/>
  <use xlink:href="#v" stroke-linecap="round" transform="matrix(0 -.74922 .75 0 300.222 58.028)"/>
  <use xlink:href="#w" stroke-linejoin="round" transform="matrix(0 -.74922 .75 0 300.222 58.028)"/>
  <use xlink:href="#D" stroke-linejoin="round" transform="matrix(0 -.74922 .75 0 300.222 35.519)"/>
  <path fill="none" stroke="#fff" stroke-linecap="round" d="M4 .001h22.044" transform="matrix(0 -.74922 .75 0 334.589 58.028)"/>
  <path fill="none" stroke="#fff" stroke-linejoin="round" d="M.502-1.499H3.5v3H.502Zm0 0" transform="matrix(0 -.74922 .75 0 334.589 58.028)"/>
  <path fill="none" stroke="#fff" stroke-linejoin="round" d="M-3.5-1.499h3v3h-3Zm0 0" transform="matrix(0 -.74922 .75 0 334.589 35.519)"/>
  <use xlink:href="#v" stroke-linecap="round" transform="matrix(0 -.74922 .75 0 369.504 58.028)"/>
  <use xlink:href="#w" stroke-linejoin="round" transform="matrix(0 -.74922 .75 0 369.504 58.028)"/>
  <use xlink:href="#D" stroke-linejoin="round" transform="matrix(0 -.74922 .75 0 369.504 35.519)"/>
  <use xlink:href="#v" stroke-linecap="round" transform="matrix(0 -.74922 .75 0 403.91 58.028)"/>
  <use xlink:href="#w" stroke-linejoin="round" transform="matrix(0 -.74922 .75 0 403.91 58.028)"/>
  <use xlink:href="#D" stroke-linejoin="round" transform="matrix(0 -.74922 .75 0 403.91 35.519)"/>
  <use xlink:href="#v" stroke-linecap="round" transform="matrix(0 -.74922 .75 0 437.996 58.028)"/>
  <use xlink:href="#w" stroke-linejoin="round" transform="matrix(0 -.74922 .75 0 437.996 58.028)"/>
  <use xlink:href="#D" stroke-linejoin="round" transform="matrix(0 -.74922 .75 0 437.996 35.519)"/>
  <use xlink:href="#v" stroke-linecap="round" transform="matrix(0 -.74922 .75 0 472.403 58.028)"/>
  <use xlink:href="#w" stroke-linejoin="round" transform="matrix(0 -.74922 .75 0 472.403 58.028)"/>
  <use xlink:href="#D" stroke-linejoin="round" transform="matrix(0 -.74922 .75 0 472.403 35.519)"/>
  <path fill="none" stroke="#fff" stroke-linecap="round" d="M4-.001h22.044" transform="matrix(0 -.74922 .75 0 505.97 58.028)"/>
  <path fill="none" stroke="#fff" stroke-linejoin="round" d="M.502-1.501H3.5v3H.502Zm0 0" transform="matrix(0 -.74922 .75 0 505.97 58.028)"/>
  <path fill="none" stroke="#fff" stroke-linejoin="round" d="M-3.5-1.501h3v3h-3Zm0 0" transform="matrix(0 -.74922 .75 0 505.97 35.519)"/>
  <use xlink:href="#E" stroke-linecap="round" transform="matrix(0 -.74922 .75 0 540.884 58.028)"/>
  <use xlink:href="#x" stroke-linejoin="round" transform="matrix(0 -.74922 .75 0 540.884 58.028)"/>
  <use xlink:href="#G" stroke-linejoin="round" transform="matrix(0 -.74922 .75 0 540.884 35.519)"/>
  <use xlink:href="#y" stroke-linecap="round" transform="matrix(0 -.74922 .75 0 575.291 58.028)"/>
  <use xlink:href="#z" stroke-linejoin="round" transform="matrix(0 -.74922 .75 0 575.291 58.028)"/>
  <use xlink:href="#J" stroke-linejoin="round" transform="matrix(0 -.74922 .75 0 575.291 35.519)"/>
  <use xlink:href="#r" x="536.272" y="33.4" fill="#fff"/>
  <use xlink:href="#s" x="540.688" y="33.4" fill="#fff"/>
  <use xlink:href="#A" x="571.779" y="33.4" fill="#fff"/>
  <use xlink:href="#r" x="500.09" y="33.4" fill="#fff"/>
  <use xlink:href="#B" x="504.506" y="33.4" fill="#fff"/>
  <use xlink:href="#r" x="466.758" y="33.4" fill="#fff"/>
  <use xlink:href="#C" x="471.174" y="33.4" fill="#fff"/>
  <use xlink:href="#r" x="432.48" y="33.4" fill="#fff"/>
  <use xlink:href="#A" x="436.896" y="33.4" fill="#fff"/>
  <use xlink:href="#r" x="397.929" y="33.4" fill="#fff"/>
  <use xlink:href="#D" x="402.345" y="33.4" fill="#fff"/>
  <use xlink:href="#r" x="363.428" y="33.4" fill="#fff"/>
  <use xlink:href="#E" x="367.844" y="33.4" fill="#fff"/>
  <use xlink:href="#r" x="329.117" y="33.4" fill="#fff"/>
  <use xlink:href="#D" x="333.533" y="33.4" fill="#fff"/>
  <use xlink:href="#r" x="294.521" y="33.4" fill="#fff"/>
  <use xlink:href="#F" x="298.937" y="33.4" fill="#fff"/>
  <use xlink:href="#r" x="260.858" y="33.4" fill="#fff"/>
  <use xlink:href="#x" x="265.274" y="33.4" fill="#fff"/>
  <use xlink:href="#r" x="222.991" y="33.4" fill="#fff"/>
  <use xlink:href="#s" x="227.407" y="33.4" fill="#fff"/>
  <use xlink:href="#A" x="232.231" y="33.4" fill="#fff"/>
  <use xlink:href="#r" x="190.302" y="33.4" fill="#fff"/>
  <use xlink:href="#s" x="194.718" y="33.4" fill="#fff"/>
  <use xlink:href="#s" x="199.542" y="33.4" fill="#fff"/>
  <use xlink:href="#r" x="155.252" y="33.4" fill="#fff"/>
  <use xlink:href="#s" x="159.668" y="33.4" fill="#fff"/>
  <use xlink:href="#B" x="164.492" y="33.4" fill="#fff"/>
  <use xlink:href="#r" x="119.432" y="33.4" fill="#fff"/>
  <use xlink:href="#s" x="123.848" y="33.4" fill="#fff"/>
  <use xlink:href="#C" x="128.672" y="33.4" fill="#fff"/>
  <use xlink:href="#r" x="85.997" y="33.4" fill="#fff"/>
  <use xlink:href="#s" x="90.413" y="33.4" fill="#fff"/>
  <use xlink:href="#A" x="95.237" y="33.4" fill="#fff"/>
  <use xlink:href="#r" x="51.403" y="33.4" fill="#fff"/>
  <use xlink:href="#s" x="55.819" y="33.4" fill="#fff"/>
  <use xlink:href="#D" x="60.643" y="33.4" fill="#fff"/>
  <use xlink:href="#r" x="17.156" y="33.4" fill="#fff"/>
  <use xlink:href="#s" x="21.572" y="33.4" fill="#fff"/>
  <use xlink:href="#E" x="26.396" y="33.4" fill="#fff"/>
</svg>
