<svg xmlns="http://www.w3.org/2000/svg" class="rich-terminal" viewBox="0 0 994 367.2"><style>@font-face{font-family:&quot;Fira Code&quot;;src:local(&quot;FiraCode-Regular&quot;),url(https://cdnjs.cloudflare.com/ajax/libs/firacode/6.2.0/woff2/FiraCode-Regular.woff2) format(&quot;woff2&quot;),url(https://cdnjs.cloudflare.com/ajax/libs/firacode/6.2.0/woff/FiraCode-Regular.woff) format(&quot;woff&quot;);font-style:normal;font-weight:400}@font-face{font-family:&quot;Fira Code&quot;;src:local(&quot;FiraCode-Bold&quot;),url(https://cdnjs.cloudflare.com/ajax/libs/firacode/6.2.0/woff2/FiraCode-Bold.woff2) format(&quot;woff2&quot;),url(https://cdnjs.cloudflare.com/ajax/libs/firacode/6.2.0/woff/FiraCode-Bold.woff) format(&quot;woff&quot;);font-style:bold;font-weight:700}.terminal-573137384-r1{fill:#e1e1e1}.terminal-573137384-r3{fill:#1e1e1e}.terminal-573137384-r4{fill:#121212}.terminal-573137384-r5{fill:#454a50}.terminal-573137384-r6{fill:#787878}.terminal-573137384-r8{fill:#e2e3e3;font-weight:700}.terminal-573137384-r9{fill:#000}</style><defs><clipPath id="terminal-573137384-clip-terminal"><path d="M0 0h975v316.2H0z"/></clipPath><clipPath id="terminal-573137384-line-0"><path d="M0 1.5h976v24.65H0z"/></clipPath><clipPath id="terminal-573137384-line-1"><path d="M0 25.9h976v24.65H0z"/></clipPath><clipPath id="terminal-573137384-line-2"><path d="M0 50.3h976v24.65H0z"/></clipPath><clipPath id="terminal-573137384-line-3"><path d="M0 74.7h976v24.65H0z"/></clipPath><clipPath id="terminal-573137384-line-4"><path d="M0 99.1h976v24.65H0z"/></clipPath><clipPath id="terminal-573137384-line-5"><path d="M0 123.5h976v24.65H0z"/></clipPath><clipPath id="terminal-573137384-line-6"><path d="M0 147.9h976v24.65H0z"/></clipPath><clipPath id="terminal-573137384-line-7"><path d="M0 172.3h976v24.65H0z"/></clipPath><clipPath id="terminal-573137384-line-8"><path d="M0 196.7h976v24.65H0z"/></clipPath><clipPath id="terminal-573137384-line-9"><path d="M0 221.1h976v24.65H0z"/></clipPath><clipPath id="terminal-573137384-line-10"><path d="M0 245.5h976v24.65H0z"/></clipPath><clipPath id="terminal-573137384-line-11"><path d="M0 269.9h976v24.65H0z"/></clipPath></defs><rect width="992" height="365.2" x="1" y="1" fill="#292929" stroke="rgba(255,255,255,0.35)" rx="8"/><text x="496" y="27" fill="#c5c8c6" font-family="arial" font-size="18" font-weight="700" text-anchor="middle">EditableText04App</text><g transform="translate(26 22)"><circle r="7" fill="#ff5f57"/><circle cx="22" r="7" fill="#febc2e"/><circle cx="44" r="7" fill="#28c840"/></g><g clip-path="url(#terminal-573137384-clip-terminal)" transform="translate(9 41)"><path fill="#1e1e1e" d="M0 1.5h122v24.65H0zm122 0h854v24.65H122z" shape-rendering="crispEdges"/><path fill="#121212" d="M0 25.9h12.2v24.65H0z" shape-rendering="crispEdges"/><path fill="#262626" d="M12.2 25.9H915v24.65H12.2z" shape-rendering="crispEdges"/><path fill="#1e1e1e" d="M915 25.9h12.2v24.65H915z" shape-rendering="crispEdges"/><path fill="#24292f" d="M927.2 25.9H976v24.65h-48.8z" shape-rendering="crispEdges"/><path fill="#121212" d="M0 50.3h12.2v24.65H0z" shape-rendering="crispEdges"/><path fill="#262626" d="M12.2 50.3h24.4v24.65H12.2zm24.4 0H244v24.65H36.6zm207.4 0h646.6v24.65H244zm646.6 0H915v24.65h-24.4z" shape-rendering="crispEdges"/><path fill="#1e1e1e" d="M915 50.3h12.2v24.65H915z" shape-rendering="crispEdges"/><path fill="#24292f" d="M927.2 50.3h12.2v24.65h-12.2z" shape-rendering="crispEdges"/><path fill="#24292f" d="M939.4 50.3h24.4v24.65h-24.4zm24.4 0H976v24.65h-12.2z" shape-rendering="crispEdges"/><path fill="#121212" d="M0 74.7h12.2v24.65H0z" shape-rendering="crispEdges"/><path fill="#262626" d="M12.2 74.7H915v24.65H12.2z" shape-rendering="crispEdges"/><path fill="#1e1e1e" d="M915 74.7h12.2v24.65H915z" shape-rendering="crispEdges"/><path fill="#24292f" d="M927.2 74.7H976v24.65h-48.8z" shape-rendering="crispEdges"/><path fill="#1e1e1e" d="M0 99.1h109.8v24.65H0zm109.8 0H976v24.65H109.8z" shape-rendering="crispEdges"/><path fill="#121212" d="M0 123.5h12.2v24.65H0z" shape-rendering="crispEdges"/><path fill="#262626" d="M12.2 123.5H915v24.65H12.2z" shape-rendering="crispEdges"/><path fill="#1e1e1e" d="M915 123.5h12.2v24.65H915z" shape-rendering="crispEdges"/><path fill="#24292f" d="M927.2 123.5H976v24.65h-48.8z" shape-rendering="crispEdges"/><path fill="#121212" d="M0 147.9h12.2v24.65H0z" shape-rendering="crispEdges"/><path fill="#262626" d="M12.2 147.9h24.4v24.65H12.2zm24.4 0H244v24.65H36.6zm207.4 0h646.6v24.65H244zm646.6 0H915v24.65h-24.4z" shape-rendering="crispEdges"/><path fill="#1e1e1e" d="M915 147.9h12.2v24.65H915z" shape-rendering="crispEdges"/><path fill="#24292f" d="M927.2 147.9h12.2v24.65h-12.2z" shape-rendering="crispEdges"/><path fill="#24292f" d="M939.4 147.9h24.4v24.65h-24.4zm24.4 0H976v24.65h-12.2z" shape-rendering="crispEdges"/><path fill="#121212" d="M0 172.3h12.2v24.65H0z" shape-rendering="crispEdges"/><path fill="#262626" d="M12.2 172.3H915v24.65H12.2z" shape-rendering="crispEdges"/><path fill="#1e1e1e" d="M915 172.3h12.2v24.65H915z" shape-rendering="crispEdges"/><path fill="#24292f" d="M927.2 172.3H976v24.65h-48.8z" shape-rendering="crispEdges"/><path fill="#1e1e1e" d="M0 196.7h170.8v24.65H0zm170.8 0H976v24.65H170.8z" shape-rendering="crispEdges"/><path fill="#121212" d="M0 221.1h12.2v24.65H0z" shape-rendering="crispEdges"/><path fill="#262626" d="M12.2 221.1H915v24.65H12.2z" shape-rendering="crispEdges"/><path fill="#1e1e1e" d="M915 221.1h12.2v24.65H915z" shape-rendering="crispEdges"/><path fill="#24292f" d="M927.2 221.1H976v24.65h-48.8z" shape-rendering="crispEdges"/><path fill="#121212" d="M0 245.5h12.2v24.65H0z" shape-rendering="crispEdges"/><path fill="#262626" d="M12.2 245.5h24.4v24.65H12.2zm24.4 0H244v24.65H36.6zm207.4 0h646.6v24.65H244zm646.6 0H915v24.65h-24.4z" shape-rendering="crispEdges"/><path fill="#1e1e1e" d="M915 245.5h12.2v24.65H915z" shape-rendering="crispEdges"/><path fill="#24292f" d="M927.2 245.5h12.2v24.65h-12.2z" shape-rendering="crispEdges"/><path fill="#24292f" d="M939.4 245.5h24.4v24.65h-24.4zm24.4 0H976v24.65h-12.2z" shape-rendering="crispEdges"/><path fill="#121212" d="M0 269.9h12.2v24.65H0z" shape-rendering="crispEdges"/><path fill="#262626" d="M12.2 269.9H915v24.65H12.2z" shape-rendering="crispEdges"/><path fill="#1e1e1e" d="M915 269.9h12.2v24.65H915z" shape-rendering="crispEdges"/><path fill="#24292f" d="M927.2 269.9H976v24.65h-48.8z" shape-rendering="crispEdges"/><path fill="#1e1e1e" d="M0 294.3h976v24.65H0z" shape-rendering="crispEdges"/><g font-family="Fira Code,monospace" font-size="20" style="line-height:24.4px;font-variant-east-asian:full-width"><text y="20" class="terminal-573137384-r1" clip-path="url(#terminal-573137384-line-0)" textLength="122">First name</text><text y="44.4" class="terminal-573137384-r3" clip-path="url(#terminal-573137384-line-1)" textLength="12.2">▊</text><text x="12.2" y="44.4" class="terminal-573137384-r4" clip-path="url(#terminal-573137384-line-1)" textLength="902.8">▔▔▔▔▔▔▔▔▔▔▔▔▔▔▔▔▔▔▔▔▔▔▔▔▔▔▔▔▔▔▔▔▔▔▔▔▔▔▔▔▔▔▔▔▔▔▔▔▔▔▔▔▔▔▔▔▔▔▔▔▔▔▔▔▔▔▔▔▔▔▔▔▔▔</text><text x="915" y="44.4" class="terminal-573137384-r4" clip-path="url(#terminal-573137384-line-1)" textLength="12.2">▎</text><text x="927.2" y="44.4" class="terminal-573137384-r5" clip-path="url(#terminal-573137384-line-1)" textLength="48.8">▔▔▔▔</text><text y="68.8" class="terminal-573137384-r3" clip-path="url(#terminal-573137384-line-2)" textLength="12.2">▊</text><text x="36.6" y="68.8" class="terminal-573137384-r6" clip-path="url(#terminal-573137384-line-2)" textLength="207.4">Type something...</text><text x="915" y="68.8" class="terminal-573137384-r4" clip-path="url(#terminal-573137384-line-2)" textLength="12.2">▎</text><text x="939.4" y="68.8" class="terminal-573137384-r8" clip-path="url(#terminal-573137384-line-2)" textLength="12.2">✅</text><text y="93.2" class="terminal-573137384-r3" clip-path="url(#terminal-573137384-line-3)" textLength="12.2">▊</text><text x="12.2" y="93.2" class="terminal-573137384-r4" clip-path="url(#terminal-573137384-line-3)" textLength="902.8">▁▁▁▁▁▁▁▁▁▁▁▁▁▁▁▁▁▁▁▁▁▁▁▁▁▁▁▁▁▁▁▁▁▁▁▁▁▁▁▁▁▁▁▁▁▁▁▁▁▁▁▁▁▁▁▁▁▁▁▁▁▁▁▁▁▁▁▁▁▁▁▁▁▁</text><text x="915" y="93.2" class="terminal-573137384-r4" clip-path="url(#terminal-573137384-line-3)" textLength="12.2">▎</text><text x="927.2" y="93.2" class="terminal-573137384-r9" clip-path="url(#terminal-573137384-line-3)" textLength="48.8">▁▁▁▁</text><text y="117.6" class="terminal-573137384-r1" clip-path="url(#terminal-573137384-line-4)" textLength="109.8">Last name</text><text y="142" class="terminal-573137384-r3" clip-path="url(#terminal-573137384-line-5)" textLength="12.2">▊</text><text x="12.2" y="142" class="terminal-573137384-r4" clip-path="url(#terminal-573137384-line-5)" textLength="902.8">▔▔▔▔▔▔▔▔▔▔▔▔▔▔▔▔▔▔▔▔▔▔▔▔▔▔▔▔▔▔▔▔▔▔▔▔▔▔▔▔▔▔▔▔▔▔▔▔▔▔▔▔▔▔▔▔▔▔▔▔▔▔▔▔▔▔▔▔▔▔▔▔▔▔</text><text x="915" y="142" class="terminal-573137384-r4" clip-path="url(#terminal-573137384-line-5)" textLength="12.2">▎</text><text x="927.2" y="142" class="terminal-573137384-r5" clip-path="url(#terminal-573137384-line-5)" textLength="48.8">▔▔▔▔</text><text y="166.4" class="terminal-573137384-r3" clip-path="url(#terminal-573137384-line-6)" textLength="12.2">▊</text><text x="36.6" y="166.4" class="terminal-573137384-r6" clip-path="url(#terminal-573137384-line-6)" textLength="207.4">Type something...</text><text x="915" y="166.4" class="terminal-573137384-r4" clip-path="url(#terminal-573137384-line-6)" textLength="12.2">▎</text><text x="939.4" y="166.4" class="terminal-573137384-r8" clip-path="url(#terminal-573137384-line-6)" textLength="12.2">✅</text><text y="190.8" class="terminal-573137384-r3" clip-path="url(#terminal-573137384-line-7)" textLength="12.2">▊</text><text x="12.2" y="190.8" class="terminal-573137384-r4" clip-path="url(#terminal-573137384-line-7)" textLength="902.8">▁▁▁▁▁▁▁▁▁▁▁▁▁▁▁▁▁▁▁▁▁▁▁▁▁▁▁▁▁▁▁▁▁▁▁▁▁▁▁▁▁▁▁▁▁▁▁▁▁▁▁▁▁▁▁▁▁▁▁▁▁▁▁▁▁▁▁▁▁▁▁▁▁▁</text><text x="915" y="190.8" class="terminal-573137384-r4" clip-path="url(#terminal-573137384-line-7)" textLength="12.2">▎</text><text x="927.2" y="190.8" class="terminal-573137384-r9" clip-path="url(#terminal-573137384-line-7)" textLength="48.8">▁▁▁▁</text><text y="215.2" class="terminal-573137384-r1" clip-path="url(#terminal-573137384-line-8)" textLength="170.8">Preferred name</text><text y="239.6" class="terminal-573137384-r3" clip-path="url(#terminal-573137384-line-9)" textLength="12.2">▊</text><text x="12.2" y="239.6" class="terminal-573137384-r4" clip-path="url(#terminal-573137384-line-9)" textLength="902.8">▔▔▔▔▔▔▔▔▔▔▔▔▔▔▔▔▔▔▔▔▔▔▔▔▔▔▔▔▔▔▔▔▔▔▔▔▔▔▔▔▔▔▔▔▔▔▔▔▔▔▔▔▔▔▔▔▔▔▔▔▔▔▔▔▔▔▔▔▔▔▔▔▔▔</text><text x="915" y="239.6" class="terminal-573137384-r4" clip-path="url(#terminal-573137384-line-9)" textLength="12.2">▎</text><text x="927.2" y="239.6" class="terminal-573137384-r5" clip-path="url(#terminal-573137384-line-9)" textLength="48.8">▔▔▔▔</text><text y="264" class="terminal-573137384-r3" clip-path="url(#terminal-573137384-line-10)" textLength="12.2">▊</text><text x="36.6" y="264" class="terminal-573137384-r6" clip-path="url(#terminal-573137384-line-10)" textLength="207.4">Type something...</text><text x="915" y="264" class="terminal-573137384-r4" clip-path="url(#terminal-573137384-line-10)" textLength="12.2">▎</text><text x="939.4" y="264" class="terminal-573137384-r8" clip-path="url(#terminal-573137384-line-10)" textLength="12.2">✅</text><text y="288.4" class="terminal-573137384-r3" clip-path="url(#terminal-573137384-line-11)" textLength="12.2">▊</text><text x="12.2" y="288.4" class="terminal-573137384-r4" clip-path="url(#terminal-573137384-line-11)" textLength="902.8">▁▁▁▁▁▁▁▁▁▁▁▁▁▁▁▁▁▁▁▁▁▁▁▁▁▁▁▁▁▁▁▁▁▁▁▁▁▁▁▁▁▁▁▁▁▁▁▁▁▁▁▁▁▁▁▁▁▁▁▁▁▁▁▁▁▁▁▁▁▁▁▁▁▁</text><text x="915" y="288.4" class="terminal-573137384-r4" clip-path="url(#terminal-573137384-line-11)" textLength="12.2">▎</text><text x="927.2" y="288.4" class="terminal-573137384-r9" clip-path="url(#terminal-573137384-line-11)" textLength="48.8">▁▁▁▁</text></g></g></svg>