<svg xmlns="http://www.w3.org/2000/svg" class="rich-terminal" viewBox="0 0 1019 245.2">
  <style>
    @font-face{font-family:&quot;Fira Code&quot;;src:local(&quot;FiraCode-Regular&quot;),url(https://cdnjs.cloudflare.com/ajax/libs/firacode/6.2.0/woff2/FiraCode-Regular.woff2) format(&quot;woff2&quot;),url(https://cdnjs.cloudflare.com/ajax/libs/firacode/6.2.0/woff/FiraCode-Regular.woff) format(&quot;woff&quot;);font-style:normal;font-weight:400}@font-face{font-family:&quot;Fira Code&quot;;src:local(&quot;FiraCode-Bold&quot;),url(https://cdnjs.cloudflare.com/ajax/libs/firacode/6.2.0/woff2/FiraCode-Bold.woff2) format(&quot;woff2&quot;),url(https://cdnjs.cloudflare.com/ajax/libs/firacode/6.2.0/woff/FiraCode-Bold.woff) format(&quot;woff&quot;);font-style:bold;font-weight:700}.terminal-2935659972-r1{fill:#565c62}.terminal-2935659972-r2{fill:#c5c8c6}.terminal-2935659972-r3{fill:#454a50}.terminal-2935659972-r4{fill:#262626}.terminal-2935659972-r5{fill:#0178d4}.terminal-2935659972-r6{fill:#121212}.terminal-2935659972-r7{fill:#e2e3e3;font-weight:700}.terminal-2935659972-r9{fill:#7d7d7d}.terminal-2935659972-r11{fill:#000}
  </style>
  <defs>
    <clipPath id="terminal-2935659972-clip-terminal">
      <path d="M0 0h999.4v194.2H0z"/>
    </clipPath>
    <clipPath id="terminal-2935659972-line-0">
      <path d="M0 1.5h1000.4v24.65H0z"/>
    </clipPath>
    <clipPath id="terminal-2935659972-line-1">
      <path d="M0 25.9h1000.4v24.65H0z"/>
    </clipPath>
    <clipPath id="terminal-2935659972-line-2">
      <path d="M0 50.3h1000.4v24.65H0z"/>
    </clipPath>
    <clipPath id="terminal-2935659972-line-3">
      <path d="M0 74.7h1000.4v24.65H0z"/>
    </clipPath>
    <clipPath id="terminal-2935659972-line-4">
      <path d="M0 99.1h1000.4v24.65H0z"/>
    </clipPath>
    <clipPath id="terminal-2935659972-line-5">
      <path d="M0 123.5h1000.4v24.65H0z"/>
    </clipPath>
    <clipPath id="terminal-2935659972-line-6">
      <path d="M0 147.9h1000.4v24.65H0z"/>
    </clipPath>
  </defs>
  <rect width="1017" height="243.2" x="1" y="1" fill="#292929" stroke="rgba(255,255,255,0.35)" rx="8"/>
  <text x="508" y="27" fill="#c5c8c6" font-family="arial" font-size="18" font-weight="700" text-anchor="middle">DemoApp</text>
  <g transform="translate(26 22)">
    <circle r="7" fill="#ff5f57"/>
    <circle cx="22" r="7" fill="#febc2e"/>
    <circle cx="44" r="7" fill="#28c840"/>
  </g>
  <g clip-path="url(#terminal-2935659972-clip-terminal)" transform="translate(9 41)">
    <path fill="#262626" d="M0 1.5h12.2v24.65H0zm12.2 0h976v24.65h-976zm976 0h12.2v24.65h-12.2z" shape-rendering="crispEdges"/>
    <path fill="#262626" d="M0 25.9h12.2v24.65H0zm12.2 0h12.2v24.65H12.2z" shape-rendering="crispEdges"/>
    <path fill="#24292f" d="M24.4 25.9H61v24.65H24.4z" shape-rendering="crispEdges"/>
    <path fill="#0178d4" d="M61 25.9h12.2v24.65H61z" shape-rendering="crispEdges"/>
    <path fill="#24292f" d="M73.2 25.9h97.6v24.65H73.2z" shape-rendering="crispEdges"/>
    <path fill="#262626" d="M170.8 25.9H183v24.65h-12.2z" shape-rendering="crispEdges"/>
    <path fill="#121212" d="M183 25.9h12.2v24.65H183z" shape-rendering="crispEdges"/>
    <path fill="#2e2e2e" d="M195.2 25.9H915v24.65H195.2z" shape-rendering="crispEdges"/>
    <path fill="#262626" d="M915 25.9h12.2v24.65H915z" shape-rendering="crispEdges"/>
    <path fill="#24292f" d="M927.2 25.9H976v24.65h-48.8z" shape-rendering="crispEdges"/>
    <path fill="#262626" d="M976 25.9h12.2v24.65H976zm12.2 0h12.2v24.65h-12.2zM0 50.3h12.2v24.65H0zm12.2 0h12.2v24.65H12.2z" shape-rendering="crispEdges"/>
    <path fill="#24292f" d="M24.4 50.3h12.2v24.65H24.4zm12.2 0h12.2v24.65H36.6zm12.2 0H61v24.65H48.8z" shape-rendering="crispEdges"/>
    <path fill="#0178d4" d="M61 50.3h12.2v24.65H61z" shape-rendering="crispEdges"/>
    <path fill="#24292f" d="M73.2 50.3h24.4v24.65H73.2z" shape-rendering="crispEdges"/>
    <path fill="#454a50" d="M97.6 50.3h12.2v24.65H97.6zm12.2 0H122v24.65h-12.2z" shape-rendering="crispEdges"/>
    <path fill="#00050f" d="M122 50.3h12.2v24.65H122zm12.2 0h12.2v24.65h-12.2z" shape-rendering="crispEdges"/>
    <path fill="#24292f" d="M146.4 50.3h24.4v24.65h-24.4z" shape-rendering="crispEdges"/>
    <path fill="#262626" d="M170.8 50.3H183v24.65h-12.2z" shape-rendering="crispEdges"/>
    <path fill="#121212" d="M183 50.3h12.2v24.65H183z" shape-rendering="crispEdges"/>
    <path fill="#2e2e2e" d="M195.2 50.3h24.4v24.65h-24.4zm24.4 0H427v24.65H219.6zm207.4 0h463.6v24.65H427zm463.6 0H915v24.65h-24.4z" shape-rendering="crispEdges"/>
    <path fill="#262626" d="M915 50.3h12.2v24.65H915z" shape-rendering="crispEdges"/>
    <path fill="#24292f" d="M927.2 50.3h12.2v24.65h-12.2z" shape-rendering="crispEdges"/>
    <path fill="#24292f" d="M939.4 50.3h24.4v24.65h-24.4zm24.4 0H976v24.65h-12.2z" shape-rendering="crispEdges"/>
    <path fill="#262626" d="M976 50.3h12.2v24.65H976zm12.2 0h12.2v24.65h-12.2zM0 74.7h12.2v24.65H0zm12.2 0h12.2v24.65H12.2z" shape-rendering="crispEdges"/>
    <path fill="#24292f" d="M24.4 74.7H61v24.65H24.4z" shape-rendering="crispEdges"/>
    <path fill="#0178d4" d="M61 74.7h12.2v24.65H61z" shape-rendering="crispEdges"/>
    <path fill="#24292f" d="M73.2 74.7h97.6v24.65H73.2z" shape-rendering="crispEdges"/>
    <path fill="#262626" d="M170.8 74.7H183v24.65h-12.2z" shape-rendering="crispEdges"/>
    <path fill="#121212" d="M183 74.7h12.2v24.65H183z" shape-rendering="crispEdges"/>
    <path fill="#2e2e2e" d="M195.2 74.7H915v24.65H195.2z" shape-rendering="crispEdges"/>
    <path fill="#262626" d="M915 74.7h12.2v24.65H915z" shape-rendering="crispEdges"/>
    <path fill="#24292f" d="M927.2 74.7H976v24.65h-48.8z" shape-rendering="crispEdges"/>
    <path fill="#262626" d="M976 74.7h12.2v24.65H976zm12.2 0h12.2v24.65h-12.2zM0 99.1h12.2v24.65H0zm12.2 0h12.2v24.65H12.2zm12.2 0H61v24.65H24.4zm36.6 0h536.8v24.65H61zm536.8 0h109.8v24.65H597.8zm109.8 0h12.2v24.65h-12.2z" shape-rendering="crispEdges"/>
    <path fill="#121212" d="M719.8 99.1H732v24.65h-12.2z" shape-rendering="crispEdges"/>
    <path fill="#2e2e2e" d="M732 99.1h183v24.65H732z" shape-rendering="crispEdges"/>
    <path fill="#262626" d="M915 99.1h12.2v24.65H915z" shape-rendering="crispEdges"/>
    <path fill="#24292f" d="M927.2 99.1H976v24.65h-48.8z" shape-rendering="crispEdges"/>
    <path fill="#262626" d="M976 99.1h12.2v24.65H976zm12.2 0h12.2v24.65h-12.2zM0 123.5h12.2v24.65H0zm12.2 0h12.2v24.65H12.2zm12.2 0H61v24.65H24.4zm36.6 0h536.8v24.65H61zm536.8 0h109.8v24.65H597.8zm109.8 0h12.2v24.65h-12.2z" shape-rendering="crispEdges"/>
    <path fill="#121212" d="M719.8 123.5H732v24.65h-12.2z" shape-rendering="crispEdges"/>
    <path fill="#2e2e2e" d="M732 123.5h24.4v24.65H732zm24.4 0H854v24.65h-97.6zm97.6 0h36.6v24.65H854zm36.6 0H915v24.65h-24.4z" shape-rendering="crispEdges"/>
    <path fill="#262626" d="M915 123.5h12.2v24.65H915z" shape-rendering="crispEdges"/>
    <path fill="#24292f" d="M927.2 123.5h12.2v24.65h-12.2z" shape-rendering="crispEdges"/>
    <path fill="#24292f" d="M939.4 123.5h24.4v24.65h-24.4zm24.4 0H976v24.65h-12.2z" shape-rendering="crispEdges"/>
    <path fill="#262626" d="M976 123.5h12.2v24.65H976zm12.2 0h12.2v24.65h-12.2zM0 147.9h12.2v24.65H0zm12.2 0h12.2v24.65H12.2zm12.2 0H61v24.65H24.4zm36.6 0h536.8v24.65H61zm536.8 0h109.8v24.65H597.8zm109.8 0h12.2v24.65h-12.2z" shape-rendering="crispEdges"/>
    <path fill="#121212" d="M719.8 147.9H732v24.65h-12.2z" shape-rendering="crispEdges"/>
    <path fill="#2e2e2e" d="M732 147.9h183v24.65H732z" shape-rendering="crispEdges"/>
    <path fill="#262626" d="M915 147.9h12.2v24.65H915z" shape-rendering="crispEdges"/>
    <path fill="#24292f" d="M927.2 147.9H976v24.65h-48.8z" shape-rendering="crispEdges"/>
    <path fill="#262626" d="M976 147.9h12.2v24.65H976zm12.2 0h12.2v24.65h-12.2zM0 172.3h12.2v24.65H0z" shape-rendering="crispEdges"/>
    <path fill="#262626" d="M12.2 172.3h976v24.65h-976zm976 0h12.2v24.65h-12.2z" shape-rendering="crispEdges"/>
    <g font-family="Fira Code,monospace" font-size="20" style="line-height:24.4px;font-variant-east-asian:full-width">
      <text y="20" class="terminal-2935659972-r1" clip-path="url(#terminal-2935659972-line-0)" textLength="12.2">┏</text>
      <text x="12.2" y="20" class="terminal-2935659972-r1" clip-path="url(#terminal-2935659972-line-0)" textLength="976">━━━━━━━━━━━━━━━━━━━━━━━━━━━━━━━━━━━━━━━━━━━━━━━━━━━━━━━━━━━━━━━━━━━━━━━━━━━━━━━━</text>
      <text x="988.2" y="20" class="terminal-2935659972-r1" clip-path="url(#terminal-2935659972-line-0)" textLength="12.2">┓</text>
      <text x="1000.4" y="20" class="terminal-2935659972-r2" clip-path="url(#terminal-2935659972-line-0)" textLength="12.2">
</text>
      <text y="44.4" class="terminal-2935659972-r1" clip-path="url(#terminal-2935659972-line-1)" textLength="12.2">┃</text>
      <text x="24.4" y="44.4" class="terminal-2935659972-r3" clip-path="url(#terminal-2935659972-line-1)" textLength="36.6">▔▔▔</text>
      <text x="61" y="44.4" class="terminal-2935659972-r4" clip-path="url(#terminal-2935659972-line-1)" textLength="12.2">▊</text>
      <text x="73.2" y="44.4" class="terminal-2935659972-r5" clip-path="url(#terminal-2935659972-line-1)" textLength="97.6">▔▔▔▔▔▔▔▔</text>
      <text x="170.8" y="44.4" class="terminal-2935659972-r5" clip-path="url(#terminal-2935659972-line-1)" textLength="12.2">▎</text>
      <text x="183" y="44.4" class="terminal-2935659972-r4" clip-path="url(#terminal-2935659972-line-1)" textLength="12.2">▊</text>
      <text x="195.2" y="44.4" class="terminal-2935659972-r6" clip-path="url(#terminal-2935659972-line-1)" textLength="719.8">▔▔▔▔▔▔▔▔▔▔▔▔▔▔▔▔▔▔▔▔▔▔▔▔▔▔▔▔▔▔▔▔▔▔▔▔▔▔▔▔▔▔▔▔▔▔▔▔▔▔▔▔▔▔▔▔▔▔▔</text>
      <text x="915" y="44.4" class="terminal-2935659972-r6" clip-path="url(#terminal-2935659972-line-1)" textLength="12.2">▎</text>
      <text x="927.2" y="44.4" class="terminal-2935659972-r3" clip-path="url(#terminal-2935659972-line-1)" textLength="48.8">▔▔▔▔</text>
      <text x="988.2" y="44.4" class="terminal-2935659972-r1" clip-path="url(#terminal-2935659972-line-1)" textLength="12.2">┃</text>
      <text x="1000.4" y="44.4" class="terminal-2935659972-r2" clip-path="url(#terminal-2935659972-line-1)" textLength="12.2">
</text>
      <text y="68.8" class="terminal-2935659972-r1" clip-path="url(#terminal-2935659972-line-2)" textLength="12.2">┃</text>
      <text x="36.6" y="68.8" class="terminal-2935659972-r7" clip-path="url(#terminal-2935659972-line-2)" textLength="12.2">v</text>
      <text x="61" y="68.8" class="terminal-2935659972-r4" clip-path="url(#terminal-2935659972-line-2)" textLength="12.2">▊</text>
      <text x="170.8" y="68.8" class="terminal-2935659972-r5" clip-path="url(#terminal-2935659972-line-2)" textLength="12.2">▎</text>
      <text x="183" y="68.8" class="terminal-2935659972-r4" clip-path="url(#terminal-2935659972-line-2)" textLength="12.2">▊</text>
      <text x="219.6" y="68.8" class="terminal-2935659972-r9" clip-path="url(#terminal-2935659972-line-2)" textLength="207.4">Type something...</text>
      <text x="915" y="68.8" class="terminal-2935659972-r6" clip-path="url(#terminal-2935659972-line-2)" textLength="12.2">▎</text>
      <text x="939.4" y="68.8" class="terminal-2935659972-r7" clip-path="url(#terminal-2935659972-line-2)" textLength="12.2">✅</text>
      <text x="988.2" y="68.8" class="terminal-2935659972-r1" clip-path="url(#terminal-2935659972-line-2)" textLength="12.2">┃</text>
      <text x="1000.4" y="68.8" class="terminal-2935659972-r2" clip-path="url(#terminal-2935659972-line-2)" textLength="12.2">
</text>
      <text y="93.2" class="terminal-2935659972-r1" clip-path="url(#terminal-2935659972-line-3)" textLength="12.2">┃</text>
      <text x="24.4" y="93.2" class="terminal-2935659972-r11" clip-path="url(#terminal-2935659972-line-3)" textLength="36.6">▁▁▁</text>
      <text x="61" y="93.2" class="terminal-2935659972-r4" clip-path="url(#terminal-2935659972-line-3)" textLength="12.2">▊</text>
      <text x="73.2" y="93.2" class="terminal-2935659972-r5" clip-path="url(#terminal-2935659972-line-3)" textLength="97.6">▁▁▁▁▁▁▁▁</text>
      <text x="170.8" y="93.2" class="terminal-2935659972-r5" clip-path="url(#terminal-2935659972-line-3)" textLength="12.2">▎</text>
      <text x="183" y="93.2" class="terminal-2935659972-r4" clip-path="url(#terminal-2935659972-line-3)" textLength="12.2">▊</text>
      <text x="195.2" y="93.2" class="terminal-2935659972-r6" clip-path="url(#terminal-2935659972-line-3)" textLength="719.8">▁▁▁▁▁▁▁▁▁▁▁▁▁▁▁▁▁▁▁▁▁▁▁▁▁▁▁▁▁▁▁▁▁▁▁▁▁▁▁▁▁▁▁▁▁▁▁▁▁▁▁▁▁▁▁▁▁▁▁</text>
      <text x="915" y="93.2" class="terminal-2935659972-r6" clip-path="url(#terminal-2935659972-line-3)" textLength="12.2">▎</text>
      <text x="927.2" y="93.2" class="terminal-2935659972-r11" clip-path="url(#terminal-2935659972-line-3)" textLength="48.8">▁▁▁▁</text>
      <text x="988.2" y="93.2" class="terminal-2935659972-r1" clip-path="url(#terminal-2935659972-line-3)" textLength="12.2">┃</text>
      <text x="1000.4" y="93.2" class="terminal-2935659972-r2" clip-path="url(#terminal-2935659972-line-3)" textLength="12.2">
</text>
      <text y="117.6" class="terminal-2935659972-r1" clip-path="url(#terminal-2935659972-line-4)" textLength="12.2">┃</text>
      <text x="719.8" y="117.6" class="terminal-2935659972-r4" clip-path="url(#terminal-2935659972-line-4)" textLength="12.2">▊</text>
      <text x="732" y="117.6" class="terminal-2935659972-r6" clip-path="url(#terminal-2935659972-line-4)" textLength="183">▔▔▔▔▔▔▔▔▔▔▔▔▔▔▔</text>
      <text x="915" y="117.6" class="terminal-2935659972-r6" clip-path="url(#terminal-2935659972-line-4)" textLength="12.2">▎</text>
      <text x="927.2" y="117.6" class="terminal-2935659972-r3" clip-path="url(#terminal-2935659972-line-4)" textLength="48.8">▔▔▔▔</text>
      <text x="988.2" y="117.6" class="terminal-2935659972-r1" clip-path="url(#terminal-2935659972-line-4)" textLength="12.2">┃</text>
      <text x="1000.4" y="117.6" class="terminal-2935659972-r2" clip-path="url(#terminal-2935659972-line-4)" textLength="12.2">
</text>
      <text y="142" class="terminal-2935659972-r1" clip-path="url(#terminal-2935659972-line-5)" textLength="12.2">┃</text>
      <text x="597.8" y="142" fill="#e2e2e2" clip-path="url(#terminal-2935659972-line-5)" textLength="109.8">Due date:</text>
      <text x="719.8" y="142" class="terminal-2935659972-r4" clip-path="url(#terminal-2935659972-line-5)" textLength="12.2">▊</text>
      <text x="756.4" y="142" class="terminal-2935659972-r9" clip-path="url(#terminal-2935659972-line-5)" textLength="97.6">dd-mm-yy</text>
      <text x="915" y="142" class="terminal-2935659972-r6" clip-path="url(#terminal-2935659972-line-5)" textLength="12.2">▎</text>
      <text x="939.4" y="142" class="terminal-2935659972-r7" clip-path="url(#terminal-2935659972-line-5)" textLength="12.2">✅</text>
      <text x="988.2" y="142" class="terminal-2935659972-r1" clip-path="url(#terminal-2935659972-line-5)" textLength="12.2">┃</text>
      <text x="1000.4" y="142" class="terminal-2935659972-r2" clip-path="url(#terminal-2935659972-line-5)" textLength="12.2">
</text>
      <text y="166.4" class="terminal-2935659972-r1" clip-path="url(#terminal-2935659972-line-6)" textLength="12.2">┃</text>
      <text x="719.8" y="166.4" class="terminal-2935659972-r4" clip-path="url(#terminal-2935659972-line-6)" textLength="12.2">▊</text>
      <text x="732" y="166.4" class="terminal-2935659972-r6" clip-path="url(#terminal-2935659972-line-6)" textLength="183">▁▁▁▁▁▁▁▁▁▁▁▁▁▁▁</text>
      <text x="915" y="166.4" class="terminal-2935659972-r6" clip-path="url(#terminal-2935659972-line-6)" textLength="12.2">▎</text>
      <text x="927.2" y="166.4" class="terminal-2935659972-r11" clip-path="url(#terminal-2935659972-line-6)" textLength="48.8">▁▁▁▁</text>
      <text x="988.2" y="166.4" class="terminal-2935659972-r1" clip-path="url(#terminal-2935659972-line-6)" textLength="12.2">┃</text>
      <text x="1000.4" y="166.4" class="terminal-2935659972-r2" clip-path="url(#terminal-2935659972-line-6)" textLength="12.2">
</text>
      <text y="190.8" class="terminal-2935659972-r1" clip-path="url(#terminal-2935659972-line-7)" textLength="12.2">┗</text>
      <text x="12.2" y="190.8" class="terminal-2935659972-r1" clip-path="url(#terminal-2935659972-line-7)" textLength="976">━━━━━━━━━━━━━━━━━━━━━━━━━━━━━━━━━━━━━━━━━━━━━━━━━━━━━━━━━━━━━━━━━━━━━━━━━━━━━━━━</text>
      <text x="988.2" y="190.8" class="terminal-2935659972-r1" clip-path="url(#terminal-2935659972-line-7)" textLength="12.2">┛</text>
    </g>
  </g>
</svg>
