<svg class="rich-terminal" viewBox="0 0 1019 245.2" xmlns="http://www.w3.org/2000/svg">
    <!-- Generated with Rich https://www.textualize.io -->
    <style>

    @font-face {
        font-family: "Fira Code";
        src: local("FiraCode-Regular"),
                url("https://cdnjs.cloudflare.com/ajax/libs/firacode/6.2.0/woff2/FiraCode-Regular.woff2") format("woff2"),
                url("https://cdnjs.cloudflare.com/ajax/libs/firacode/6.2.0/woff/FiraCode-Regular.woff") format("woff");
        font-style: normal;
        font-weight: 400;
    }
    @font-face {
        font-family: "Fira Code";
        src: local("FiraCode-Bold"),
                url("https://cdnjs.cloudflare.com/ajax/libs/firacode/6.2.0/woff2/FiraCode-Bold.woff2") format("woff2"),
                url("https://cdnjs.cloudflare.com/ajax/libs/firacode/6.2.0/woff/FiraCode-Bold.woff") format("woff");
        font-style: bold;
        font-weight: 700;
    }

    .terminal-2935659972-matrix {
        font-family: Fira Code, monospace;
        font-size: 20px;
        line-height: 24.4px;
        font-variant-east-asian: full-width;
    }

    .terminal-2935659972-title {
        font-size: 18px;
        font-weight: bold;
        font-family: arial;
    }

    .terminal-2935659972-r1 { fill: #565c62 }
.terminal-2935659972-r2 { fill: #c5c8c6 }
.terminal-2935659972-r3 { fill: #454a50 }
.terminal-2935659972-r4 { fill: #262626 }
.terminal-2935659972-r5 { fill: #0178d4 }
.terminal-2935659972-r6 { fill: #121212 }
.terminal-2935659972-r7 { fill: #e2e3e3;font-weight: bold }
.terminal-2935659972-r8 { fill: #e2e3e3 }
.terminal-2935659972-r9 { fill: #7d7d7d }
.terminal-2935659972-r10 { fill: #e3e3e3 }
.terminal-2935659972-r11 { fill: #000000 }
.terminal-2935659972-r12 { fill: #a9a9a9 }
.terminal-2935659972-r13 { fill: #e2e2e2 }
    </style>

    <defs>
    <clipPath id="terminal-2935659972-clip-terminal">
      <rect x="0" y="0" width="999.4" height="194.2" />
    </clipPath>
    <clipPath id="terminal-2935659972-line-0">
    <rect x="0" y="1.5" width="1000.4" height="24.65"/>
            </clipPath>
<clipPath id="terminal-2935659972-line-1">
    <rect x="0" y="25.9" width="1000.4" height="24.65"/>
            </clipPath>
<clipPath id="terminal-2935659972-line-2">
    <rect x="0" y="50.3" width="1000.4" height="24.65"/>
            </clipPath>
<clipPath id="terminal-2935659972-line-3">
    <rect x="0" y="74.7" width="1000.4" height="24.65"/>
            </clipPath>
<clipPath id="terminal-2935659972-line-4">
    <rect x="0" y="99.1" width="1000.4" height="24.65"/>
            </clipPath>
<clipPath id="terminal-2935659972-line-5">
    <rect x="0" y="123.5" width="1000.4" height="24.65"/>
            </clipPath>
<clipPath id="terminal-2935659972-line-6">
    <rect x="0" y="147.9" width="1000.4" height="24.65"/>
            </clipPath>
    </defs>

    <rect fill="#292929" stroke="rgba(255,255,255,0.35)" stroke-width="1" x="1" y="1" width="1017" height="243.2" rx="8"/><text class="terminal-2935659972-title" fill="#c5c8c6" text-anchor="middle" x="508" y="27">DemoApp</text>
            <g transform="translate(26,22)">
            <circle cx="0" cy="0" r="7" fill="#ff5f57"/>
            <circle cx="22" cy="0" r="7" fill="#febc2e"/>
            <circle cx="44" cy="0" r="7" fill="#28c840"/>
            </g>
        
    <g transform="translate(9, 41)" clip-path="url(#terminal-2935659972-clip-terminal)">
    <rect fill="#262626" x="0" y="1.5" width="12.2" height="24.65" shape-rendering="crispEdges"/><rect fill="#262626" x="12.2" y="1.5" width="976" height="24.65" shape-rendering="crispEdges"/><rect fill="#262626" x="988.2" y="1.5" width="12.2" height="24.65" shape-rendering="crispEdges"/><rect fill="#262626" x="0" y="25.9" width="12.2" height="24.65" shape-rendering="crispEdges"/><rect fill="#262626" x="12.2" y="25.9" width="12.2" height="24.65" shape-rendering="crispEdges"/><rect fill="#24292f" x="24.4" y="25.9" width="36.6" height="24.65" shape-rendering="crispEdges"/><rect fill="#0178d4" x="61" y="25.9" width="12.2" height="24.65" shape-rendering="crispEdges"/><rect fill="#24292f" x="73.2" y="25.9" width="97.6" height="24.65" shape-rendering="crispEdges"/><rect fill="#262626" x="170.8" y="25.9" width="12.2" height="24.65" shape-rendering="crispEdges"/><rect fill="#121212" x="183" y="25.9" width="12.2" height="24.65" shape-rendering="crispEdges"/><rect fill="#2e2e2e" x="195.2" y="25.9" width="719.8" height="24.65" shape-rendering="crispEdges"/><rect fill="#262626" x="915" y="25.9" width="12.2" height="24.65" shape-rendering="crispEdges"/><rect fill="#24292f" x="927.2" y="25.9" width="48.8" height="24.65" shape-rendering="crispEdges"/><rect fill="#262626" x="976" y="25.9" width="12.2" height="24.65" shape-rendering="crispEdges"/><rect fill="#262626" x="988.2" y="25.9" width="12.2" height="24.65" shape-rendering="crispEdges"/><rect fill="#262626" x="0" y="50.3" width="12.2" height="24.65" shape-rendering="crispEdges"/><rect fill="#262626" x="12.2" y="50.3" width="12.2" height="24.65" shape-rendering="crispEdges"/><rect fill="#24292f" x="24.4" y="50.3" width="0" height="24.65" shape-rendering="crispEdges"/><rect fill="#24292f" x="24.4" y="50.3" width="12.2" height="24.65" shape-rendering="crispEdges"/><rect fill="#24292f" x="36.6" y="50.3" width="12.2" height="24.65" shape-rendering="crispEdges"/><rect fill="#24292f" x="48.8" y="50.3" width="12.2" height="24.65" shape-rendering="crispEdges"/><rect fill="#0178d4" x="61" y="50.3" width="12.2" height="24.65" shape-rendering="crispEdges"/><rect fill="#24292f" x="73.2" y="50.3" width="24.4" height="24.65" shape-rendering="crispEdges"/><rect fill="#454a50" x="97.6" y="50.3" width="12.2" height="24.65" shape-rendering="crispEdges"/><rect fill="#454a50" x="109.8" y="50.3" width="12.2" height="24.65" shape-rendering="crispEdges"/><rect fill="#00050f" x="122" y="50.3" width="12.2" height="24.65" shape-rendering="crispEdges"/><rect fill="#00050f" x="134.2" y="50.3" width="12.2" height="24.65" shape-rendering="crispEdges"/><rect fill="#24292f" x="146.4" y="50.3" width="24.4" height="24.65" shape-rendering="crispEdges"/><rect fill="#262626" x="170.8" y="50.3" width="12.2" height="24.65" shape-rendering="crispEdges"/><rect fill="#121212" x="183" y="50.3" width="12.2" height="24.65" shape-rendering="crispEdges"/><rect fill="#2e2e2e" x="195.2" y="50.3" width="24.4" height="24.65" shape-rendering="crispEdges"/><rect fill="#2e2e2e" x="219.6" y="50.3" width="207.4" height="24.65" shape-rendering="crispEdges"/><rect fill="#2e2e2e" x="427" y="50.3" width="463.6" height="24.65" shape-rendering="crispEdges"/><rect fill="#2e2e2e" x="890.6" y="50.3" width="24.4" height="24.65" shape-rendering="crispEdges"/><rect fill="#262626" x="915" y="50.3" width="12.2" height="24.65" shape-rendering="crispEdges"/><rect fill="#24292f" x="927.2" y="50.3" width="0" height="24.65" shape-rendering="crispEdges"/><rect fill="#24292f" x="927.2" y="50.3" width="12.2" height="24.65" shape-rendering="crispEdges"/><rect fill="#24292f" x="939.4" y="50.3" width="24.4" height="24.65" shape-rendering="crispEdges"/><rect fill="#24292f" x="963.8" y="50.3" width="12.2" height="24.65" shape-rendering="crispEdges"/><rect fill="#262626" x="976" y="50.3" width="12.2" height="24.65" shape-rendering="crispEdges"/><rect fill="#262626" x="988.2" y="50.3" width="12.2" height="24.65" shape-rendering="crispEdges"/><rect fill="#262626" x="0" y="74.7" width="12.2" height="24.65" shape-rendering="crispEdges"/><rect fill="#262626" x="12.2" y="74.7" width="12.2" height="24.65" shape-rendering="crispEdges"/><rect fill="#24292f" x="24.4" y="74.7" width="36.6" height="24.65" shape-rendering="crispEdges"/><rect fill="#0178d4" x="61" y="74.7" width="12.2" height="24.65" shape-rendering="crispEdges"/><rect fill="#24292f" x="73.2" y="74.7" width="97.6" height="24.65" shape-rendering="crispEdges"/><rect fill="#262626" x="170.8" y="74.7" width="12.2" height="24.65" shape-rendering="crispEdges"/><rect fill="#121212" x="183" y="74.7" width="12.2" height="24.65" shape-rendering="crispEdges"/><rect fill="#2e2e2e" x="195.2" y="74.7" width="719.8" height="24.65" shape-rendering="crispEdges"/><rect fill="#262626" x="915" y="74.7" width="12.2" height="24.65" shape-rendering="crispEdges"/><rect fill="#24292f" x="927.2" y="74.7" width="48.8" height="24.65" shape-rendering="crispEdges"/><rect fill="#262626" x="976" y="74.7" width="12.2" height="24.65" shape-rendering="crispEdges"/><rect fill="#262626" x="988.2" y="74.7" width="12.2" height="24.65" shape-rendering="crispEdges"/><rect fill="#262626" x="0" y="99.1" width="12.2" height="24.65" shape-rendering="crispEdges"/><rect fill="#262626" x="12.2" y="99.1" width="12.2" height="24.65" shape-rendering="crispEdges"/><rect fill="#262626" x="24.4" y="99.1" width="36.6" height="24.65" shape-rendering="crispEdges"/><rect fill="#262626" x="61" y="99.1" width="536.8" height="24.65" shape-rendering="crispEdges"/><rect fill="#262626" x="597.8" y="99.1" width="109.8" height="24.65" shape-rendering="crispEdges"/><rect fill="#262626" x="707.6" y="99.1" width="12.2" height="24.65" shape-rendering="crispEdges"/><rect fill="#121212" x="719.8" y="99.1" width="12.2" height="24.65" shape-rendering="crispEdges"/><rect fill="#2e2e2e" x="732" y="99.1" width="183" height="24.65" shape-rendering="crispEdges"/><rect fill="#262626" x="915" y="99.1" width="12.2" height="24.65" shape-rendering="crispEdges"/><rect fill="#24292f" x="927.2" y="99.1" width="48.8" height="24.65" shape-rendering="crispEdges"/><rect fill="#262626" x="976" y="99.1" width="12.2" height="24.65" shape-rendering="crispEdges"/><rect fill="#262626" x="988.2" y="99.1" width="12.2" height="24.65" shape-rendering="crispEdges"/><rect fill="#262626" x="0" y="123.5" width="12.2" height="24.65" shape-rendering="crispEdges"/><rect fill="#262626" x="12.2" y="123.5" width="12.2" height="24.65" shape-rendering="crispEdges"/><rect fill="#262626" x="24.4" y="123.5" width="36.6" height="24.65" shape-rendering="crispEdges"/><rect fill="#262626" x="61" y="123.5" width="0" height="24.65" shape-rendering="crispEdges"/><rect fill="#262626" x="61" y="123.5" width="536.8" height="24.65" shape-rendering="crispEdges"/><rect fill="#262626" x="597.8" y="123.5" width="109.8" height="24.65" shape-rendering="crispEdges"/><rect fill="#262626" x="707.6" y="123.5" width="12.2" height="24.65" shape-rendering="crispEdges"/><rect fill="#121212" x="719.8" y="123.5" width="12.2" height="24.65" shape-rendering="crispEdges"/><rect fill="#2e2e2e" x="732" y="123.5" width="24.4" height="24.65" shape-rendering="crispEdges"/><rect fill="#2e2e2e" x="756.4" y="123.5" width="97.6" height="24.65" shape-rendering="crispEdges"/><rect fill="#2e2e2e" x="854" y="123.5" width="36.6" height="24.65" shape-rendering="crispEdges"/><rect fill="#2e2e2e" x="890.6" y="123.5" width="24.4" height="24.65" shape-rendering="crispEdges"/><rect fill="#262626" x="915" y="123.5" width="12.2" height="24.65" shape-rendering="crispEdges"/><rect fill="#24292f" x="927.2" y="123.5" width="0" height="24.65" shape-rendering="crispEdges"/><rect fill="#24292f" x="927.2" y="123.5" width="12.2" height="24.65" shape-rendering="crispEdges"/><rect fill="#24292f" x="939.4" y="123.5" width="24.4" height="24.65" shape-rendering="crispEdges"/><rect fill="#24292f" x="963.8" y="123.5" width="12.2" height="24.65" shape-rendering="crispEdges"/><rect fill="#262626" x="976" y="123.5" width="12.2" height="24.65" shape-rendering="crispEdges"/><rect fill="#262626" x="988.2" y="123.5" width="12.2" height="24.65" shape-rendering="crispEdges"/><rect fill="#262626" x="0" y="147.9" width="12.2" height="24.65" shape-rendering="crispEdges"/><rect fill="#262626" x="12.2" y="147.9" width="12.2" height="24.65" shape-rendering="crispEdges"/><rect fill="#262626" x="24.4" y="147.9" width="36.6" height="24.65" shape-rendering="crispEdges"/><rect fill="#262626" x="61" y="147.9" width="536.8" height="24.65" shape-rendering="crispEdges"/><rect fill="#262626" x="597.8" y="147.9" width="109.8" height="24.65" shape-rendering="crispEdges"/><rect fill="#262626" x="707.6" y="147.9" width="12.2" height="24.65" shape-rendering="crispEdges"/><rect fill="#121212" x="719.8" y="147.9" width="12.2" height="24.65" shape-rendering="crispEdges"/><rect fill="#2e2e2e" x="732" y="147.9" width="183" height="24.65" shape-rendering="crispEdges"/><rect fill="#262626" x="915" y="147.9" width="12.2" height="24.65" shape-rendering="crispEdges"/><rect fill="#24292f" x="927.2" y="147.9" width="48.8" height="24.65" shape-rendering="crispEdges"/><rect fill="#262626" x="976" y="147.9" width="12.2" height="24.65" shape-rendering="crispEdges"/><rect fill="#262626" x="988.2" y="147.9" width="12.2" height="24.65" shape-rendering="crispEdges"/><rect fill="#262626" x="0" y="172.3" width="12.2" height="24.65" shape-rendering="crispEdges"/><rect fill="#262626" x="12.2" y="172.3" width="976" height="24.65" shape-rendering="crispEdges"/><rect fill="#262626" x="988.2" y="172.3" width="12.2" height="24.65" shape-rendering="crispEdges"/>
    <g class="terminal-2935659972-matrix">
    <text class="terminal-2935659972-r1" x="0" y="20" textLength="12.2" clip-path="url(#terminal-2935659972-line-0)">┏</text><text class="terminal-2935659972-r1" x="12.2" y="20" textLength="976" clip-path="url(#terminal-2935659972-line-0)">━━━━━━━━━━━━━━━━━━━━━━━━━━━━━━━━━━━━━━━━━━━━━━━━━━━━━━━━━━━━━━━━━━━━━━━━━━━━━━━━</text><text class="terminal-2935659972-r1" x="988.2" y="20" textLength="12.2" clip-path="url(#terminal-2935659972-line-0)">┓</text><text class="terminal-2935659972-r2" x="1000.4" y="20" textLength="12.2" clip-path="url(#terminal-2935659972-line-0)">
</text><text class="terminal-2935659972-r1" x="0" y="44.4" textLength="12.2" clip-path="url(#terminal-2935659972-line-1)">┃</text><text class="terminal-2935659972-r3" x="24.4" y="44.4" textLength="36.6" clip-path="url(#terminal-2935659972-line-1)">▔▔▔</text><text class="terminal-2935659972-r4" x="61" y="44.4" textLength="12.2" clip-path="url(#terminal-2935659972-line-1)">▊</text><text class="terminal-2935659972-r5" x="73.2" y="44.4" textLength="97.6" clip-path="url(#terminal-2935659972-line-1)">▔▔▔▔▔▔▔▔</text><text class="terminal-2935659972-r5" x="170.8" y="44.4" textLength="12.2" clip-path="url(#terminal-2935659972-line-1)">▎</text><text class="terminal-2935659972-r4" x="183" y="44.4" textLength="12.2" clip-path="url(#terminal-2935659972-line-1)">▊</text><text class="terminal-2935659972-r6" x="195.2" y="44.4" textLength="719.8" clip-path="url(#terminal-2935659972-line-1)">▔▔▔▔▔▔▔▔▔▔▔▔▔▔▔▔▔▔▔▔▔▔▔▔▔▔▔▔▔▔▔▔▔▔▔▔▔▔▔▔▔▔▔▔▔▔▔▔▔▔▔▔▔▔▔▔▔▔▔</text><text class="terminal-2935659972-r6" x="915" y="44.4" textLength="12.2" clip-path="url(#terminal-2935659972-line-1)">▎</text><text class="terminal-2935659972-r3" x="927.2" y="44.4" textLength="48.8" clip-path="url(#terminal-2935659972-line-1)">▔▔▔▔</text><text class="terminal-2935659972-r1" x="988.2" y="44.4" textLength="12.2" clip-path="url(#terminal-2935659972-line-1)">┃</text><text class="terminal-2935659972-r2" x="1000.4" y="44.4" textLength="12.2" clip-path="url(#terminal-2935659972-line-1)">
</text><text class="terminal-2935659972-r1" x="0" y="68.8" textLength="12.2" clip-path="url(#terminal-2935659972-line-2)">┃</text><text class="terminal-2935659972-r7" x="36.6" y="68.8" textLength="12.2" clip-path="url(#terminal-2935659972-line-2)">v</text><text class="terminal-2935659972-r4" x="61" y="68.8" textLength="12.2" clip-path="url(#terminal-2935659972-line-2)">▊</text><text class="terminal-2935659972-r5" x="170.8" y="68.8" textLength="12.2" clip-path="url(#terminal-2935659972-line-2)">▎</text><text class="terminal-2935659972-r4" x="183" y="68.8" textLength="12.2" clip-path="url(#terminal-2935659972-line-2)">▊</text><text class="terminal-2935659972-r9" x="219.6" y="68.8" textLength="207.4" clip-path="url(#terminal-2935659972-line-2)">Type&#160;something...</text><text class="terminal-2935659972-r6" x="915" y="68.8" textLength="12.2" clip-path="url(#terminal-2935659972-line-2)">▎</text><text class="terminal-2935659972-r7" x="939.4" y="68.8" textLength="12.2" clip-path="url(#terminal-2935659972-line-2)">✅</text><text class="terminal-2935659972-r1" x="988.2" y="68.8" textLength="12.2" clip-path="url(#terminal-2935659972-line-2)">┃</text><text class="terminal-2935659972-r2" x="1000.4" y="68.8" textLength="12.2" clip-path="url(#terminal-2935659972-line-2)">
</text><text class="terminal-2935659972-r1" x="0" y="93.2" textLength="12.2" clip-path="url(#terminal-2935659972-line-3)">┃</text><text class="terminal-2935659972-r11" x="24.4" y="93.2" textLength="36.6" clip-path="url(#terminal-2935659972-line-3)">▁▁▁</text><text class="terminal-2935659972-r4" x="61" y="93.2" textLength="12.2" clip-path="url(#terminal-2935659972-line-3)">▊</text><text class="terminal-2935659972-r5" x="73.2" y="93.2" textLength="97.6" clip-path="url(#terminal-2935659972-line-3)">▁▁▁▁▁▁▁▁</text><text class="terminal-2935659972-r5" x="170.8" y="93.2" textLength="12.2" clip-path="url(#terminal-2935659972-line-3)">▎</text><text class="terminal-2935659972-r4" x="183" y="93.2" textLength="12.2" clip-path="url(#terminal-2935659972-line-3)">▊</text><text class="terminal-2935659972-r6" x="195.2" y="93.2" textLength="719.8" clip-path="url(#terminal-2935659972-line-3)">▁▁▁▁▁▁▁▁▁▁▁▁▁▁▁▁▁▁▁▁▁▁▁▁▁▁▁▁▁▁▁▁▁▁▁▁▁▁▁▁▁▁▁▁▁▁▁▁▁▁▁▁▁▁▁▁▁▁▁</text><text class="terminal-2935659972-r6" x="915" y="93.2" textLength="12.2" clip-path="url(#terminal-2935659972-line-3)">▎</text><text class="terminal-2935659972-r11" x="927.2" y="93.2" textLength="48.8" clip-path="url(#terminal-2935659972-line-3)">▁▁▁▁</text><text class="terminal-2935659972-r1" x="988.2" y="93.2" textLength="12.2" clip-path="url(#terminal-2935659972-line-3)">┃</text><text class="terminal-2935659972-r2" x="1000.4" y="93.2" textLength="12.2" clip-path="url(#terminal-2935659972-line-3)">
</text><text class="terminal-2935659972-r1" x="0" y="117.6" textLength="12.2" clip-path="url(#terminal-2935659972-line-4)">┃</text><text class="terminal-2935659972-r4" x="719.8" y="117.6" textLength="12.2" clip-path="url(#terminal-2935659972-line-4)">▊</text><text class="terminal-2935659972-r6" x="732" y="117.6" textLength="183" clip-path="url(#terminal-2935659972-line-4)">▔▔▔▔▔▔▔▔▔▔▔▔▔▔▔</text><text class="terminal-2935659972-r6" x="915" y="117.6" textLength="12.2" clip-path="url(#terminal-2935659972-line-4)">▎</text><text class="terminal-2935659972-r3" x="927.2" y="117.6" textLength="48.8" clip-path="url(#terminal-2935659972-line-4)">▔▔▔▔</text><text class="terminal-2935659972-r1" x="988.2" y="117.6" textLength="12.2" clip-path="url(#terminal-2935659972-line-4)">┃</text><text class="terminal-2935659972-r2" x="1000.4" y="117.6" textLength="12.2" clip-path="url(#terminal-2935659972-line-4)">
</text><text class="terminal-2935659972-r1" x="0" y="142" textLength="12.2" clip-path="url(#terminal-2935659972-line-5)">┃</text><text class="terminal-2935659972-r13" x="597.8" y="142" textLength="109.8" clip-path="url(#terminal-2935659972-line-5)">Due&#160;date:</text><text class="terminal-2935659972-r4" x="719.8" y="142" textLength="12.2" clip-path="url(#terminal-2935659972-line-5)">▊</text><text class="terminal-2935659972-r9" x="756.4" y="142" textLength="97.6" clip-path="url(#terminal-2935659972-line-5)">dd-mm-yy</text><text class="terminal-2935659972-r6" x="915" y="142" textLength="12.2" clip-path="url(#terminal-2935659972-line-5)">▎</text><text class="terminal-2935659972-r7" x="939.4" y="142" textLength="12.2" clip-path="url(#terminal-2935659972-line-5)">✅</text><text class="terminal-2935659972-r1" x="988.2" y="142" textLength="12.2" clip-path="url(#terminal-2935659972-line-5)">┃</text><text class="terminal-2935659972-r2" x="1000.4" y="142" textLength="12.2" clip-path="url(#terminal-2935659972-line-5)">
</text><text class="terminal-2935659972-r1" x="0" y="166.4" textLength="12.2" clip-path="url(#terminal-2935659972-line-6)">┃</text><text class="terminal-2935659972-r4" x="719.8" y="166.4" textLength="12.2" clip-path="url(#terminal-2935659972-line-6)">▊</text><text class="terminal-2935659972-r6" x="732" y="166.4" textLength="183" clip-path="url(#terminal-2935659972-line-6)">▁▁▁▁▁▁▁▁▁▁▁▁▁▁▁</text><text class="terminal-2935659972-r6" x="915" y="166.4" textLength="12.2" clip-path="url(#terminal-2935659972-line-6)">▎</text><text class="terminal-2935659972-r11" x="927.2" y="166.4" textLength="48.8" clip-path="url(#terminal-2935659972-line-6)">▁▁▁▁</text><text class="terminal-2935659972-r1" x="988.2" y="166.4" textLength="12.2" clip-path="url(#terminal-2935659972-line-6)">┃</text><text class="terminal-2935659972-r2" x="1000.4" y="166.4" textLength="12.2" clip-path="url(#terminal-2935659972-line-6)">
</text><text class="terminal-2935659972-r1" x="0" y="190.8" textLength="12.2" clip-path="url(#terminal-2935659972-line-7)">┗</text><text class="terminal-2935659972-r1" x="12.2" y="190.8" textLength="976" clip-path="url(#terminal-2935659972-line-7)">━━━━━━━━━━━━━━━━━━━━━━━━━━━━━━━━━━━━━━━━━━━━━━━━━━━━━━━━━━━━━━━━━━━━━━━━━━━━━━━━</text><text class="terminal-2935659972-r1" x="988.2" y="190.8" textLength="12.2" clip-path="url(#terminal-2935659972-line-7)">┛</text>
    </g>
    </g>
</svg>
