<?xml version="1.0" standalone="no"?>
<!DOCTYPE svg PUBLIC "-//W3C//DTD SVG 1.1//EN" "http://www.w3.org/Graphics/SVG/1.1/DTD/svg11.dtd" >
<svg xmlns="http://www.w3.org/2000/svg" xmlns:xlink="http://www.w3.org/1999/xlink" version="1.1">
<metadata>
Created by FontForge 20170731 at Sun Jan 26 09:29:12 2020
 By Aleksey,,,
Copyright 2012-2015 The Fira Code Project Authors (https://github.com/tonsky/FiraCode)
</metadata>
<defs>
<font id="FiraCodeNerdFontCompleteM-Regular" horiz-adv-x="1200" >
  <font-face 
    font-family="FiraCode Nerd Font Mono"
    font-weight="400"
    font-stretch="normal"
    units-per-em="1950"
    panose-1="2 11 8 9 5 0 0 2 0 4"
    ascent="1560"
    descent="-390"
    x-height="1053"
    cap-height="1377"
    bbox="-3555 -1000 2355 2400"
    underline-thickness="50"
    underline-position="-150"
    unicode-range="U+000D-1F310"
  />
<missing-glyph 
d="M1020 2100v-2800h-840v2800h840zM912 1996h-622v-2592h622v2592zM598.5 311.5q-15.5 -13.5 -34.5 -13.5q-20 0 -35 13t-15 35v168q72 4 111 20t55 47.5t16 86.5q0 66 -26 102t-96 36q-31 0 -54.5 -5t-49.5 -17q-15 -6 -26 -6q-22 0 -35 13t-13 33q0 37 59 57.5t127 20.5
q120 0 171 -64t51 -166q0 -106 -45.5 -163.5t-144.5 -72.5v-90q0 -21 -15.5 -34.5zM514 220q20 20 50 20t50 -20t20 -50q0 -32 -20 -53t-50 -21t-50 21t-20 53q0 30 20 50z" />
    <glyph glyph-name="map-marker-plus" unicode="&#x671;" arabic-form="isolated" 
d="M399 630q62 0 102 40t40 102t-40 102t-101.5 40t-102 -40t-40.5 -102t40 -102t102 -40zM399 1170q169 -2 283 -114.5t116 -283.5q-24 -244 -199.5 -483.5t-199.5 -258.5q-24 19 -199.5 258.5t-199.5 483.5q3 171 115 283.5t284 114.5zM742 314h171v171h115v-171h172v-113
h-172v-171h-115v171h-171v113z" />
    <glyph glyph-name="marker" unicode="&#x671;" arabic-form="final" 
d="M946 1125q-45 3 -77 -30l-307 -308l300 -300l308 308q30 32 30 74t-30 78l-151 148q-33 33 -73 30zM512 738l-316 -316q-32 -34 -32 -76.5t32 -74.5l-196 -196h301l45 45q32 -30 74 -30t74 32l316 315z" />
    <glyph glyph-name="message-plus" unicode="&#x67b;" arabic-form="isolated" 
d="M1082 1200q51 0 84.5 -33.5t33.5 -84.5v-721q0 -51 -33.5 -86t-84.5 -35h-842l-240 -240v1082q0 51 33.5 84.5t84.5 33.5h964zM541 961v-180h-181v-122h181v-180h118v180h181v122h-181v180h-118z" />
    <glyph glyph-name="microscope" unicode="&#x67b;" arabic-form="final" 
d="M396 983l107 -181q-131 -16 -215.5 -108.5t-88.5 -226.5q4 -141 98 -234.5t234 -96.5q106 0 186 54.5t120 145.5h-171v131h534v-131h-150q-44 -159 -166 -269h181v-131h-1065v131h178q-81 75 -129.5 178t-48.5 222q3 188 110.5 327t285.5 189zM616 1264l50 -87l55 34
l235 -406l-231 -132l-234 403l59 35l-50 88z" />
    <glyph glyph-name="move-resize" unicode="&#x67b;" arabic-form="initial" 
d="M436 1200v-56h54v-163h-54v-54h164v54h-54v163h54v56h-164zM436 874q-46 -3 -76.5 -33.5t-33.5 -76.5v-654q3 -46 34 -76.5t76 -33.5h654q46 3 76.5 33.5t33.5 76.5v654q-3 46 -33.5 76.5t-76.5 33.5h-654zM0 764v-164h56v54h164v-54h54v164h-54v-54h-164v54h-56z
M436 764h654v-654h-654v654zM710 710v-56h54v-271h-218v54h-56v-163h56v53h218v-107h-54v-56h164v56h-57v107h163v-53h56v163h-56v-54h-163v271h57v56h-164z" />
    <glyph glyph-name="move-resize-variant" unicode="&#x67b;" arabic-form="medial" 
d="M75 1200l-75 -75l272 -272h-189v-107h371v371h-107v-189zM561 853v-107h532v-319h107v319q-3 45 -32.5 75t-74.5 32h-532zM347 639v-532q2 -45 32 -74.5t75 -32.5h320v107h-320v532h-107zM821 457l-78 -78l275 -272h-137v-107h319v320h-107v-138z" />
    <glyph glyph-name="paw-off" unicode="&#x67e;" arabic-form="isolated" 
d="M3 1107l76 75l1090 -1089l-76 -76l-120 121q-14 -8 -26 -17q-81 -28 -172 8.5t-181 44.5q-93 -8 -182 -46t-170 -7q-45 25 -72 74t-21 99q11 65 70 110t110 92q33 34 63.5 77.5t61.5 82.5zM382 1182q55 6 101.5 -43t63 -128.5t-5.5 -138.5l-238 237q26 62 79 73z
M810 1182q53 -11 78.5 -69.5t8.5 -141t-64.5 -130.5t-102 -39.5t-78.5 67.5t-7 140t63 130t102 43zM62 908q53 20 112 -12.5t95.5 -105.5t25.5 -135.5t-63 -85t-109.5 11t-94 105t-26.5 134.5t60 88zM1138 908q50 -25 60 -88t-26.5 -134.5t-94 -105t-109.5 -11t-63 85
t25.5 135.5t95.5 105.5t112 12.5z" />
    <glyph glyph-name="phone-minus" unicode="&#x67e;" arabic-form="final" 
d="M66 1200q-28 0 -47 -18.5t-19 -46.5q12 -482 332.5 -802.5t801.5 -332.5q28 0 47 19t19 47v234q0 28 -18.5 47t-47.5 19q-124 0 -237 37q-38 12 -69 -16l-147 -147q-143 75 -254.5 186.5t-186.5 254.5l147 147q28 28 16 69q-38 113 -38 238q0 28 -18.5 46.5t-46.5 18.5
h-234zM666 1001v-135h534v135h-534z" />
    <glyph glyph-name="phone-plus" unicode="&#x67e;" arabic-form="initial" 
d="M66 1200q-28 0 -47 -18.5t-19 -46.5q12 -482 332.5 -802.5t801.5 -332.5q28 0 47 19t19 47v234q0 28 -18.5 47t-47.5 19q-124 0 -237 37q-38 12 -69 -16l-147 -147q-143 75 -254.5 186.5t-186.5 254.5l147 147q28 28 16 69q-38 113 -38 238q0 28 -18.5 46.5t-46.5 18.5
h-234zM866 1200v-199h-200v-135h200v-200h134v200h200v135h-200v199h-134z" />
    <glyph glyph-name="pot" unicode="&#x67e;" arabic-form="medial" 
d="M1065 135q0 -57 -37 -96t-93 -39h-670q-57 0 -93.5 39t-36.5 96v399h-135v201h1200v-201h-135v-399zM200 1001h134v-135h-134v135zM534 1001h132v-135h-132v135zM866 1001h134v-135h-134v135zM1000 1200h134v-134h-134v134zM666 1200h134v-134h-134v134zM334 1200h131
v-134h-131v134z" />
    <glyph glyph-name="pot-mix" unicode="&#x680;" arabic-form="isolated" 
d="M1065 136q0 -57 -37 -96t-93 -39h-670q-57 0 -93.5 39t-36.5 96v400h-135v200h735l265 463l115 -69l-228 -394h313v-200h-135v-400z" />
    <glyph glyph-name="serial-port" unicode="&#x680;" arabic-form="final" 
d="M168 1416h864v-173h168v-258h-257v-516h-686v516h-257v258h168v173zM1032 901h168v-432h-168v432zM515 385h170v-601h-170v601zM0 901h168v-432h-168v432z" />
    <glyph glyph-name="shape-circle-plus" unicode="&#x680;" arabic-form="initial" 
d="M507 128q160 3 266.5 109.5t112.5 269.5h124q-3 -217 -146.5 -359t-356.5 -148q-217 6 -359.5 148t-147.5 359q6 213 148 357t359 147v-125q-163 -6 -270 -112.5t-109 -266.5q3 -163 109.5 -269.5t269.5 -109.5zM1010 1011h190v-125h-190v-190h-124v190h-190v125h190v189
h124v-189z" />
    <glyph glyph-name="shape-polygon-plus" unicode="&#x680;" arabic-form="medial" 
d="M886 335v172h124v-255l-569 -252l-441 441l251 570h256v-125h-172l-184 -418l317 -317zM1200 1011v-125h-190v-190h-124v190h-190v125h190v189h124v-189h190z" />
    <glyph glyph-name="shape-rectangle-plus" unicode="&#x67a;" arabic-form="isolated" 
d="M1010 916h190v-128h-190v-190h-124v190h-190v128h190v189h124v-189zM886 219v190h124v-314h-1010v821h507v-128h-379v-569h758z" />
    <glyph glyph-name="shape-square-plus" unicode="&#x67a;" arabic-form="final" 
d="M1010 1011h190v-125h-190v-190h-124v190h-190v125h190v189h124v-189zM886 128v379h124v-507h-1010v1011h507v-125h-379v-758h758z" />
    <glyph glyph-name="skip-next-circle" unicode="&#x67a;" arabic-form="initial" 
d="M600 1200q-257 -6 -426 -174.5t-174 -425.5q6 -257 174.5 -425.5t425.5 -174.5q257 6 426 175t174 425q-6 257 -174.5 425.5t-425.5 174.5zM360 840l299 -240l-299 -239v479zM721 840h119v-479h-119v479z" />
    <glyph glyph-name="skip-next-circle-outline" unicode="&#x67a;" arabic-form="medial" 
d="M600 1200q-257 -6 -426 -174.5t-174 -425.5q6 -257 174.5 -425.5t425.5 -174.5q257 6 426 175t174 425q-6 257 -174.5 425.5t-425.5 174.5zM600 1082q203 -6 339.5 -142.5t142.5 -339.5q-6 -203 -142.5 -339.5t-339.5 -142.5q-203 6 -339.5 142.5t-142.5 339.5
q6 203 142.5 339.5t339.5 142.5zM360 840v-479l299 239zM721 840v-479h119v479h-119z" />
    <glyph glyph-name="skip-previous-circle" unicode="&#x67f;" arabic-form="isolated" 
d="M600 1200q-257 -6 -426 -174.5t-174 -425.5q6 -257 174.5 -425.5t425.5 -174.5q257 6 426 175t174 425q-6 257 -174.5 425.5t-425.5 174.5zM360 840h119v-479h-119v479zM840 840v-479l-299 239z" />
    <glyph glyph-name="skip-previous-circle-outline" unicode="&#x67f;" arabic-form="final" 
d="M600 1200q257 -6 426 -174.5t174 -425.5q-6 -257 -174.5 -425.5t-425.5 -174.5q-257 6 -426 175t-174 425q6 257 174.5 425.5t425.5 174.5zM600 1082q-203 -6 -339.5 -142.5t-142.5 -339.5q6 -203 142.5 -339.5t339.5 -142.5q203 6 339.5 142.5t142.5 339.5
q-6 203 -142.5 339.5t-339.5 142.5zM840 840v-479l-299 239zM479 840v-479h-119v479h119z" />
    <glyph glyph-name="spray" unicode="&#x67f;" arabic-form="initial" 
d="M449 1201h151v-151h-151v151zM224 1274h151v-150h-151v150zM224 1050h151v-151h-151v151zM151 899v-148h-151v148h151zM151 1124v-148h-151v148h151zM151 1347v-146h-151v146h151zM674 -147q-64 0 -106 41.5t-42 105.5v751q0 64 42 106t106 42v77h77v225h225v-225h73v-77
q63 0 105 -42t46 -106v-751q-4 -64 -46 -106q-42 -41 -105 -41h-375zM674 751v-751h375v751h-375z" />
    <glyph glyph-name="stop-circle" unicode="&#x67f;" arabic-form="medial" 
d="M600 1200q-257 -6 -426 -174.5t-174 -425.5q6 -257 174.5 -425.5t425.5 -174.5q257 6 426 175t174 425q-6 257 -174.5 425.5t-425.5 174.5zM419 781h362v-361h-362v361z" />
    <glyph glyph-name="stop-circle-outline" unicode="&#x679;" arabic-form="isolated" 
d="M600 1200q-257 -6 -426 -174.5t-174 -425.5q6 -257 174.5 -425.5t425.5 -174.5q257 6 426 175t174 425q-6 257 -174.5 425.5t-425.5 174.5zM600 1082q203 -6 339.5 -142.5t142.5 -339.5q-6 -203 -142.5 -339.5t-339.5 -142.5q-203 6 -339.5 142.5t-142.5 339.5
q6 203 142.5 339.5t339.5 142.5zM419 781v-361h362v361h-362z" />
    <glyph glyph-name="test-tube" unicode="&#x679;" arabic-form="final" 
d="M108 1575v-192h102v-1372q4 -165 114.5 -275.5t275.5 -110.5t275.5 110.5t114.5 275.5v1372h102v192h-984zM504 208q-46 0 -74 25t-28 71.5t28 71t71.5 24.5t71 -24.5t27.5 -71t-27.5 -71.5t-68.5 -25zM696 598q-41 0 -68.5 27.5t-27.5 71t27.5 71t71 27.5t71.5 -27.5
t28 -71t-28 -71t-74 -27.5zM798 1089h-396v294h396v-294z" />
    <glyph glyph-name="text-shadow" unicode="&#x679;" arabic-form="initial" 
d="M0 1235h916v-211h-351v-847h-212v847h-353v211zM635 954h142v-142h-142v142zM847 954h142v-142h-142v142zM1058 954h142v-142h-142v142zM635 742h142v-142h-142v142zM635 531h142v-142h-142v142zM635 320h142v-143h-142v143zM635 108h142v-143h-142v143z" />
    <glyph glyph-name="tune-vertical" unicode="&#x679;" arabic-form="medial" 
d="M135 1200v-600h-135v-135h135v-465h130v465h135v135h-135v600h-130zM534 1200v-334h-134v-131h134v-735h132v735h134v131h-134v334h-132zM935 1200v-735h-135v-130h135v-335h130v335h135v130h-135v735h-130z" />
    <glyph glyph-name="cart-off" unicode="&#x6a4;" arabic-form="isolated" 
d="M1200 67l-1133 1133l-67 -66l233 -233l116 -245l-72 -131q-12 -22 -12 -49q0 -45 29.5 -74.5t73.5 -32.5h394l74 -72q-42 -30 -44 -86q0 -45 31 -74.5t76 -29.5q54 0 83 44l151 -151zM391 476q-12 0 -12 12l2 7l47 86h124l106 -105h-267zM821 581q30 0 54 15t38 40
l188 342q7 12 7 24q0 23 -14.5 37.5t-37.5 17.5h-710zM368 317q-44 0 -73.5 -31t-29.5 -75.5t29.5 -74t74 -29.5t75.5 29.5t31 74t-31 75.5t-76 31z" />
    <glyph glyph-name="chart-gantt" unicode="&#x6a4;" arabic-form="final" 
d="M0 1020h479v180h121v-1200h-121v240h-239v180h239v121h-361v180h361v119h-479v180zM721 1020h181v-180h-181v180zM721 721h298v-180h-298v180zM721 420h479v-180h-479v180z" />
    <glyph glyph-name="chart-scatterplot-hexbin" unicode="&#x6a4;" arabic-form="initial" 
d="M0 1200h118v-1082h1082v-118h-1200v1200zM721 451l-121 -211h-245l-121 211l121 208h245zM724 930l-121 -209h-243l-120 209l120 211h243zM1155 690l-121 -211h-242l-122 211l122 212h242z" />
    <glyph glyph-name="chart-timeline" unicode="&#x6a4;" arabic-form="medial" 
d="M0 1200h118v-1082h1082v-118h-1200v1200zM298 721h604v-180h-604v180zM541 420h600v-180h-600v180zM240 1082h960v-242h-118v121h-722v-121h-120v242z" />
    <glyph glyph-name="discord" unicode="&#x6a6;" arabic-form="isolated" 
d="M1200 -92l-315 302l39 -121h-775q-65 3 -107 45t-42 104v902q0 65 42 107t107 45h902q65 -3 107 -45.5t42 -106.5v-1232zM600 943q-124 -6 -198.5 -36t-74.5 -35q51 42 107 65t62 23l-11 11q-77 -6 -133 -37t-59 -37q-73 -166 -87 -281.5t-11 -118.5q70 -79 137.5 -92.5
t72.5 -8.5l43 54q-57 17 -89 47.5t-35 33.5q3 -3 77.5 -36.5t198.5 -39.5q124 6 198.5 39.5t77.5 36.5q-3 -3 -35 -34t-89 -47l43 -54q5 -6 72.5 8.5t137.5 92.5q3 3 -11 118.5t-87 281.5q-3 6 -59 37t-133 37l-11 -11q6 0 62.5 -23t106.5 -65q0 6 -74.5 35.5t-198.5 35.5z
M476 715q31 0 51 -22.5t20 -54t-20 -54t-51 -22.5t-51 22.5t-20 54t20 54t51 22.5zM727 715q28 0 49.5 -22.5t21.5 -54t-21.5 -54t-51.5 -22.5t-49.5 22.5t-19.5 54t19.5 54t51.5 22.5z" />
    <glyph glyph-name="file-restore" unicode="&#x6a6;" arabic-form="final" 
d="M751 1347h-600q-63 0 -105 -41.5t-46 -104.5v-1201q4 -64 46 -106q42 -41 105 -41h898q63 0 105 41.5t46 105.5v899zM600 151q-116 0 -207 61q-92 63 -137 164h130q35 -52 91.5 -82t122.5 -30q112 3 186 76.5t74 184t-74 186t-186 75.5q-77 0 -136.5 -38.5t-94.5 -101.5
l119 -120h-299v299l95 -99q52 81 133.5 127t182.5 46q158 -4 265 -109t111 -264q-4 -161 -111 -266t-265 -109z" />
    <glyph glyph-name="language-c" unicode="&#x6a6;" arabic-form="initial" 
d="M1133 126l49 -292q-49 -22 -149.5 -44t-239.5 -22q-392 6 -592.5 232t-200.5 577q6 408 239.5 631.5t585.5 223.5q133 0 231.5 -23t143.5 -45l-73 -296l-123 40q-74 16 -167 16q-207 0 -341 -131t-140 -400q0 -240 129 -379t357 -139l156 11q79 18 135 40z" />
    <glyph glyph-name="language-cpp" unicode="&#x6a6;" arabic-form="medial" 
d="M496 392l22 -127q-22 -10 -66 -19.5t-105 -9.5q-171 2 -259 101t-88 253q5 178 106.5 276t255.5 98q58 0 101 -10t63 -19l-30 -130l-56 17q-29 7 -71 7q-90 0 -150 -57t-62 -175q0 -105 56 -166t156 -61l71 5q32 8 56 17zM523 651h103v105h105v-105h105v-103h-105v-104
h-105v104h-103v103zM887 651h105v105h103v-105h105v-103h-105v-104h-103v104h-105v103z" />
    <glyph glyph-name="xaml" unicode="&#x684;" arabic-form="isolated" 
d="M954 600l-177 -306h-354l-177 306l177 306h354zM1200 600l-206 -356l-88 50l177 306l-177 306l88 50zM0 600l206 356l88 -50l-177 -306l177 -306l-88 -50z" />
    <glyph glyph-name="bandcamp" unicode="&#x684;" arabic-form="final" 
d="M1200 961l-388 -722h-812l388 722h812z" />
    <glyph glyph-name="credit-card-plus" unicode="&#x684;" arabic-form="initial" 
d="M1043 365h157v-105h-157v-156h-105v156h-156v105h156v157h105v-157zM938 886v105h-833v-105h833zM938 678h-833v-313h575v-105h-575q-44 3 -73 32t-32 73v626q3 44 32 73.5t73 31.5h833q44 -2 74.5 -31.5t30.5 -73.5v-364h-105v51z" />
    <glyph glyph-name="itunes" unicode="&#x684;" arabic-form="medial" 
d="M284 220q-60 -4 -179.5 -51.5t-102.5 -188.5q57 -169 235 -139t199 234v737q-4 3 1.5 26t43.5 34l582 119q4 4 24.5 0t24.5 -39v-518q0 -3 -7 -26q-7 -22 -46 -33q-60 0 -179.5 -42.5t-116.5 -183.5q43 -173 228 -153.5t209 224.5v1085q0 7 -10.5 36.5t-73.5 19.5
l-705 -144q-4 3 -32 -13t-31 -61v-853q0 -4 -8.5 -32t-55.5 -38z" />
    <glyph glyph-name="bow-tie" unicode="&#x683;" arabic-form="isolated" 
d="M800 465l400 -199v668l-400 -200v-269zM400 465l-400 -199v668l400 -200v-269zM465 734h270v-269h-270v269z" />
    <glyph glyph-name="calendar-range" unicode="&#x683;" arabic-form="final" 
d="M400 667h-135v-134h135v134zM666 667h-132v-134h132v134zM935 667h-135v-134h135v134zM1065 1133h-65v134h-134v-134h-532v134h-134v-134h-65q-59 0 -97 -39t-38 -95v-932q0 -56 39 -95t96 -39h930q57 0 96 39t39 95v932q0 57 -39 95.5t-96 38.5zM1065 67h-930v732h930
v-732z" />
    <glyph glyph-name="currency-usd-off" unicode="&#x683;" arabic-form="initial" 
d="M639 987q100 0 142.5 -44.5t45.5 -115.5h167q-4 100 -64.5 179.5t-176.5 107.5v167h-228v-163q-60 -14 -113 -42l113 -110q43 21 114 21zM96 1200l-96 -96l259 -259q4 -117 82 -188t212 -110l267 -263q-18 -28 -62 -49.5t-119 -21.5q-117 4 -170 48q-53 46 -57 113h-167
q10 -124 88.5 -195.5t191.5 -96.5v-163h228v163q110 21 184 86l167 -171l96 96z" />
    <glyph glyph-name="flash-red-eye" unicode="&#x683;" arabic-form="medial" 
d="M821 1075q-26 0 -44 -18t-18 -45t17.5 -44.5t46 -17.5t44.5 17.5t16 44.5t-16 45t-46 18zM821 1264q-131 0 -231.5 -69.5t-148.5 -182.5q48 -112 148.5 -182t232.5 -70t233 70t145 182q-44 113 -145 182.5t-234 69.5zM821 1170q68 0 112.5 -45t44.5 -113t-44.5 -112.5
t-111 -44.5t-111 44.5t-44.5 112.5t44.5 113t109.5 45zM0 1264v-759h190v-569l441 759h-252l72 160q-66 69 -105 157q36 84 94 147.5t135 104.5h-575z" />
    <glyph glyph-name="oar" unicode="&#x686;" arabic-form="isolated" 
d="M1147 390q-81 85 -230.5 192.5t-268.5 69.5l-548 549l-100 -99l552 -552q-38 -119 73 -262.5t196.5 -224.5t151 -59t131.5 96q77 73 93 145.5t-50 144.5z" />
    <glyph glyph-name="piano" unicode="&#x686;" arabic-form="final" 
d="M118 1141h964q51 0 84.5 -35t33.5 -86v-839q0 -52 -33.5 -87t-84.5 -35h-964q-51 0 -84.5 35t-33.5 87v839q0 51 33.5 86t84.5 35zM118 1020v-839h242v360h-76v479h-166zM419 181h362v360h-77v479h-208v-479h-77v-360zM840 181h242v839h-166v-479h-76v-360z" />
    <glyph glyph-name="weather-lightning-rainy" unicode="&#x686;" arabic-form="initial" 
d="M192 513q20 -12 25 -32.5t-6 -41t-31.5 -25.5t-41.5 5q-63 35 -99 96.5t-39 138.5q3 117 81 194t193 80q44 97 129 157t198 60q143 -3 242 -95t114 -232h25q95 -3 156.5 -64.5t61.5 -153.5t-61.5 -153.5t-156.5 -63.5q-23 0 -38 15t-15 38.5t15 38.5t38 15q47 2 78.5 33
t31.5 77t-31.5 77t-78.5 33h-107v54q-2 115 -80.5 193t-193.5 81q-104 -3 -177 -67t-91 -163q-28 10 -59 10q-69 0 -115 -46t-49 -118q0 -47 21.5 -84t60.5 -57v0zM466 654h164l-111 -217h111l-205 -382l41 272h-139zM901 237q0 -54 -34.5 -89.5t-87 -35.5t-87 35.5
t-37.5 89.5q7 69 61 144.5t62 82.5q7 -7 61.5 -82.5t61.5 -144.5z" />
    <glyph glyph-name="weather-snowy-rainy" unicode="&#x686;" arabic-form="medial" 
d="M957 210q-3 -53 -37 -89t-86.5 -36t-87 36t-34.5 89q7 70 60.5 145.5t61.5 82.5q8 -7 61.5 -82.5t61.5 -145.5zM164 282q-5 23 6 42t35 25l122 33l-89 90q-18 18 -18 41t16.5 39.5t40 16.5t40.5 -18l90 -89l33 122q5 23 25.5 34.5t43.5 5.5t33.5 -25.5t5.5 -42.5
l-33 -123l122 31q23 7 43.5 -4t26 -34t-5 -42.5t-33.5 -24.5l-123 -33l90 -89q15 -19 15 -42t-16.5 -39.5t-40 -16.5t-38.5 16l-89 92l-33 -123q-8 -26 -27.5 -36.5t-42 -4t-34.5 26t-6 42.5l32 123l-122 -34q-23 -5 -42.5 6.5t-26.5 34.5zM0 628q3 117 81 194t193 80
q44 97 129 157t198 60q143 -3 242 -95t114 -232h25q95 -3 156.5 -64.5t61.5 -153.5t-61.5 -153.5t-156.5 -63.5q-23 0 -38 15t-15 38t15 38.5t38 15.5q47 2 78.5 33t31.5 77t-31.5 76.5t-78.5 33.5h-107v54q-2 115 -80.5 193t-193.5 81q-104 -3 -177 -67t-91 -164
q-28 11 -59 11q-69 0 -115 -46.5t-46 -118t46 -117.5q15 -15 15 -37t-17 -37t-38.5 -15t-36.5 15q-38 38 -60 86.5t-22 105.5z" />
    <glyph glyph-name="yin-yang" unicode="&#x687;" arabic-form="isolated" 
d="M600 1200q257 -6 426 -174.5t174 -425.5q-6 -257 -174.5 -425.5t-425.5 -174.5q-257 6 -426 175t-174 425q6 257 174.5 425.5t425.5 174.5zM600 1082q-206 -6 -341 -141t-141 -341q6 -206 141 -341t341 -141q-101 3 -169 71t-68 170.5t68 170t169 70.5t169 70.5t68 170.5
t-68 170.5t-169 70.5zM600 930q39 0 64.5 -25.5t25.5 -63.5t-25.5 -63.5t-64.5 -25.5t-64.5 25.5t-25.5 63.5t25.5 63.5t64.5 25.5zM600 451q-39 -3 -64.5 -28.5t-25.5 -63.5t25.5 -63t64.5 -25t64.5 25t25.5 63t-25.5 63.5t-64.5 28.5z" />
    <glyph glyph-name="tower-beach" unicode="&#x687;" arabic-form="final" 
d="M935 1135v-269h65v-131h-25l225 -870h-137l-38 147l-425 244l-425 -244l-38 -147h-137l225 870h-25v131h65v269h-65v65l800 135v-200h-65zM284 437l-62 -247l243 145zM837 735h-474l-45 -163l282 -162l282 162zM978 190l-62 247l-181 -102z" />
    <glyph glyph-name="tower-fire" unicode="&#x687;" arabic-form="initial" 
d="M935 1135v-269h65v-131h-25l225 -870h-137l-38 147l-425 244l-425 -244l-38 -147h-137l225 870h-25v131h65v269h-65v65l400 135l400 -135v-65h-65zM284 437l-62 -247l243 145zM837 735h-474l-45 -163l282 -162l282 162zM978 190l-62 247l-181 -102z" />
    <glyph glyph-name="delete-circle" unicode="&#x687;" arabic-form="medial" 
d="M600 1200q257 -6 426 -174.5t174 -425.5q-6 -257 -174.5 -425.5t-425.5 -174.5q-257 6 -426 175t-174 425q6 257 174.5 425.5t425.5 174.5zM902 902h-153l-59 59h-180l-59 -59h-153v-121h604v121zM419 240h362q25 0 42 16.5t17 42.5v422h-480v-422q0 -25 17 -42t42 -17z
" />
    <glyph glyph-name="dna" unicode="&#x68d;" arabic-form="isolated" 
d="M0 1347h151v-146q0 -81 36.5 -150t103.5 -135q102 -91 243 -182l-138 -88q-116 74 -207 165q-84 77 -134.5 173.5t-54.5 216.5v146zM1049 1347h151v-146q-4 -119 -54.5 -216t-133 -174t-177.5 -144t-195 -130t-189.5 -124.5t-158 -128t-105 -135t-36.5 -149.5v-147h-151
v147q4 119 54.5 215.5t133 174t177.5 144t195 129.5t189.5 125t158 128t105 135t36.5 150v146zM804 555q116 -74 207 -165q84 -78 134.5 -174.5t54.5 -215.5v-147h-151v147q0 81 -36.5 149.5t-103.5 134.5q-102 91 -243 183zM224 1274h752v-73l-7 -39h-738l-7 39v73z
M277 1050h646q-25 -39 -67 -81l-38 -32h-439l-35 32q-42 42 -67 81zM382 264h439l35 -33q43 -42 67 -80h-646q25 39 67 80zM231 39h738l7 -39v-74h-752v74z" />
    <glyph glyph-name="hamburger" unicode="&#x68d;" arabic-form="final" 
d="M0 361h1200v-122q0 -51 -33.5 -84.5t-84.5 -36.5h-964q-51 3 -84.5 36.5t-33.5 84.5v122zM240 1082h720q102 -3 169.5 -70.5t70.5 -172.5v-118h-1200v118q3 105 70.5 172.5t169.5 70.5zM118 659h663l121 -119l117 119h63q51 0 84.5 -34t33.5 -86t-33.5 -85.5t-84.5 -33.5
h-964q-51 0 -84.5 33.5t-33.5 85.5t33.5 86t84.5 34z" />
    <glyph glyph-name="gondola" unicode="&#x68c;" arabic-form="isolated" 
d="M955 705h-297v142l542 92l-14 86l-325 -53q6 14 6 28q0 39 -25 64t-64 25t-64 -25t-25 -60t20 -60l-51 -5v61h-116v-84l-36 -5q6 14 5 31q0 38 -25 63t-64 25t-64 -25t-25 -61t20 -58l-353 -58l14 -89l528 89v-123h-297q-50 -3 -83.5 -36t-36.5 -83v-355q3 -51 36 -84
q34 -33 84 -36h710q50 3 83.5 36t36.5 84v355q-3 50 -36.5 83t-83.5 36zM245 586h133v-236h-133v236zM467 350v236h266v-236h-266zM955 350h-133v236h133v-236z" />
    <glyph glyph-name="inbox" unicode="&#x68c;" arabic-form="final" 
d="M1065 401h-265q-3 -85 -59 -141t-141 -56t-141 56q-56 57 -59 141h-265v665h930v-665zM1065 1200h-930q-59 0 -97 -39t-38 -95v-931q0 -57 39 -96t96 -39h930q57 0 96 39t39 96v931q0 57 -39 95.5t-96 38.5z" />
    <glyph glyph-name="reorder-horizontal" unicode="&#x68e;" arabic-form="isolated" 
d="M0 400h1200v134h-1200v-134zM0 134h1200v132h-1200v-132zM0 665h1200v135h-1200v-135zM0 1066v-132h1200v132h-1200z" />
    <glyph glyph-name="reorder-vertical" unicode="&#x68e;" arabic-form="final" 
d="M342 1374v-1548h173v1548h-173zM0 1374v-1548h168v1548h-168zM685 1374v-1548h173v1548h-173zM1200 1374h-168v-1548h168v1548z" />
    <glyph glyph-name="security-home" unicode="&#x688;" arabic-form="isolated" 
d="M534 534h132v-199h200v331h134l-400 335l-400 -335h134v-331h200v199zM600 1335l600 -269v-400q-7 -285 -172 -506.5t-428 -294.5q-263 73 -428.5 295t-171.5 506v400z" />
    <glyph glyph-name="tag-heart" unicode="&#x688;" arabic-form="final" 
d="M1166 626l-541 540q-34 34 -85 34h-422q-51 0 -84.5 -34t-33.5 -84v-423q0 -51 33 -84l541 -541q35 -34 85.5 -34t83.5 34l423 423q34 34 34 84.5t-34 84.5zM209 902q-37 0 -62.5 25t-25.5 63t25.5 63.5t63.5 25.5t63 -25.5t25 -63.5t-25 -63t-64 -25zM915 403l-256 -256
l-257 256q-42 42 -42 107t42.5 107t107 42t107.5 -42l42 -45l45 45q42 42 105 42t105.5 -42t42.5 -107t-42 -107z" />
    <glyph glyph-name="skull" unicode="&#x698;" arabic-form="isolated" 
d="M600 1266q-256 -7 -425 -175t-175 -425q0 -154 70 -283.5t195 -213.5v-235h135v201h134v-201h132v201h134v-201h135v235q125 85 195 215.5t70 281.5q-7 256 -175.5 424.5t-424.5 175.5zM334 666q57 0 94 -37.5t37 -93.5t-37 -95t-93.5 -39t-95.5 39t-39 95t38.5 93.5
t95.5 37.5zM866 666q57 0 95.5 -37.5t38.5 -93.5t-39 -95t-95.5 -39t-93.5 39t-37 95t37 93.5t94 37.5zM600 465l100 -199h-200z" />
    <glyph glyph-name="solid" unicode="&#x698;" arabic-form="final" 
d="M0 1200h1200v-1200h-1200v1200z" />
    <glyph glyph-name="alarm-snooze" unicode="&#x691;" arabic-form="isolated" 
d="M352 1114l-76 90l-276 -230l76 -91zM1200 974l-276 230l-76 -90l276 -234zM600 1078q-231 -6 -383.5 -159.5t-157.5 -382.5q6 -230 158 -382.5t383 -157.5q231 5 383.5 157.5t157.5 382.5q-6 228 -158 382t-383 160zM600 114q-181 6 -299 124.5t-120 297.5
q2 178 120 296.5t299 124.5q181 -6 299 -124.5t120 -296.5q-2 -180 -120 -298t-299 -124zM419 655h218l-218 -251v-110h362v122h-218l218 253v107h-362v-121z" />
    <glyph glyph-name="baby-buggy" unicode="&#x691;" arabic-form="final" 
d="M693 1231v-503h507q-6 213 -148 356.5t-359 146.5zM1093 354q51 65 79 144t28 164h-921l-60 128h-219v-128h139l63 -130q53 -116 70 -148q-53 -30 -84 -80t-31 -116q3 -92 65 -155.5t157 -63.5q83 0 144 53t72 137h134q12 -84 72.5 -137t147.5 -53q91 0 154.5 63.5
t63.5 155.5q-3 104 -74 166zM379 93q-41 3 -68 29.5t-27 67t27 67t67 26.5t66.5 -26.5t26.5 -67t-26.5 -67t-65.5 -29.5zM949 93q-42 3 -68.5 29.5t-26.5 67t26.5 67t66.5 26.5t66.5 -26.5t26.5 -67t-26 -67t-65 -29.5z" />
    <glyph glyph-name="beaker" unicode="&#x6a9;" arabic-form="isolated" 
d="M0 1200h1200v-134q-57 0 -94 -37.5t-41 -93.5v-800q0 -57 -37 -96t-93 -39h-670q-57 0 -93.5 39t-36.5 96v800q-4 57 -41.5 94t-93.5 37v134zM265 1066v-131h335v-69h-335v-66h200v-65h-200v-69h200v-66h-200v-66h335v-69h-335v-64h200v-66h-200v-200h670v931h-670z" />
    <glyph glyph-name="bomb" unicode="&#x6a9;" arabic-form="final" 
d="M394 949q3 85 60.5 144.5t145 59.5t145.5 -59.5t60 -144.5q0 -21 14 -34.5t34.5 -13.5t33.5 13.5t13 34.5v47h95v-47q-3 -60 -42.5 -100t-100.5 -40t-101 40t-40 100q-3 47 -34 78t-78.5 31t-78.5 -31t-31 -78h80v-84q139 -41 225 -155t88 -269q-3 -187 -127 -311
t-314 -130q-190 6 -314.5 130.5t-126.5 310.5q3 154 88.5 268.5t225.5 155.5v84h80zM1072 949h128v-63h-128v63zM882 1076v124h66v-124h-66zM1005 1052l88 89l48 -45l-92 -91z" />
    <glyph glyph-name="calendar-question" unicode="&#x6a9;" arabic-form="initial" 
d="M200 1267v-134h-65q-59 0 -97 -39t-38 -95v-932q0 -56 39 -95t96 -39h930q57 0 96 39t39 95v932q0 57 -39 95.5t-96 38.5h-65v134h-134v-134h-532v134h-134zM135 799h930v-732h-930v732zM612 733q-88 0 -140.5 -39t-49.5 -117v-3h128q0 31 19 46.5t47 15.5t46.5 -20.5
t18.5 -51.5t-15.5 -53t-40.5 -37q-54 -35 -72.5 -63.5t-18.5 -77.5h132q0 31 9.5 49.5t33.5 34.5q44 22 74 61t30 89q0 75 -53.5 120.5t-147.5 45.5zM534 268v-135h132v135h-132z" />
    <glyph glyph-name="camera-burst" unicode="&#x6a9;" arabic-form="medial" 
d="M0 980h110v-760h-110v760zM220 980h106v-760h-106v760zM1144 980h-654q-23 0 -38.5 -15t-15.5 -38v-654q0 -23 15.5 -38t38.5 -15h654q22 0 37.5 15t18.5 38v654q-3 23 -18.5 38t-37.5 15zM546 327l136 173l97 -117l137 174l174 -230h-544z" />
    <glyph glyph-name="code-tags-check" unicode="&#x6af;" arabic-form="isolated" 
d="M262 1145l-262 -262l262 -263l81 81l-183 182l183 182zM594 1145l-80 -80l182 -182l-182 -182l80 -81l263 263zM1120 679l-464 -463l-209 212l-80 -81l289 -292l544 544z" />
    <glyph glyph-name="coins" unicode="&#x6af;" arabic-form="final" 
d="M763 1038q186 -6 309 -129t128 -309q-5 -187 -128 -309.5t-309 -128.5q-187 6 -310 128.5t-128 309.5q5 186 128 309t310 129zM763 272q138 3 231 96.5t96 231.5q-3 138 -96.5 231.5t-230.5 96.5q-139 -3 -232.5 -96.5t-95.5 -231.5q2 -139 95.5 -232t232.5 -96zM108 600
q2 -108 61 -191t156 -119v-112q-144 38 -234.5 152t-90.5 270t90.5 270t234.5 152v-113q-98 -35 -156.5 -118.5t-60.5 -190.5z" />
    <glyph glyph-name="crop-rotate" unicode="&#x6af;" arabic-form="initial" 
d="M373 124q-124 61 -204 172.5t-94 254.5h-75q23 -237 189.5 -391.5t408.5 -159.5q16 0 33 2l-190 191zM602 1200q-16 0 -33 -2l190 -190l68 68q124 -61 204 -172t94 -255h75q-23 237 -189.5 391.5t-408.5 159.5zM799 499h101v300q0 45 -29.5 73t-71.5 28h-300v-101h300
v-300zM401 401v600h-101v-101h-101v-101h101v-398q0 -42 29.5 -71.5t71.5 -29.5h398v-101h101v101h101v101h-600z" />
    <glyph glyph-name="developer-board" unicode="&#x6af;" arabic-form="medial" 
d="M1200 781v121h-118v118q-3 51 -37 86t-85 35h-842q-51 0 -84.5 -35t-33.5 -86v-839q0 -52 33.5 -87t84.5 -35h842q51 0 85 35t37 87v118h118v121h-118v121h118v118h-118v122h118zM960 181h-842v839h842v-839zM240 541h301v-242h-301v242zM600 902h240v-181h-240v181z
M240 902h301v-302h-301v302zM600 659h240v-360h-240v360z" />
    <glyph glyph-name="do-not-disturb" unicode="&#x6b3;" arabic-form="isolated" 
d="M600 1200q-257 -6 -426 -174.5t-174 -425.5q6 -257 174.5 -425.5t425.5 -174.5q257 6 426 175t174 425q-6 257 -174.5 425.5t-425.5 174.5zM902 541h-604v118h604v-118z" />
    <glyph glyph-name="do-not-disturb-off" unicode="&#x6b3;" arabic-form="final" 
d="M917 686v-113h-84l266 -268q48 70 74.5 152t26.5 173q-6 244 -166 404.5t-404 165.5q-91 0 -173 -26.5t-152 -74.5l413 -413h199zM72 1187l-72 -75l160 -158q-48 -70 -74.5 -151.5t-26.5 -172.5q6 -245 166 -405t405 -166q90 0 172 27t152 75l158 -161l75 72zM343 573
v113h83l115 -113h-198z" />
    <glyph glyph-name="douban" unicode="&#x6b3;" arabic-form="initial" 
d="M1200 1049h-1200v151h1200v-151zM1200 151v-151h-1200v151h249l-78 297h-94v450h1046v-450h-94l-78 -297h249zM224 600h752v151h-752v-151zM407 151h386l81 297h-548z" />
    <glyph glyph-name="emoticon-dead" unicode="&#x6b3;" arabic-form="medial" 
d="M600 1200q-257 -6 -426 -174.5t-174 -425.5q6 -257 174.5 -425.5t425.5 -174.5q257 6 426 175t174 425q-6 257 -176 425.5t-424 174.5zM600 118q-206 6 -341 141t-141 341q6 206 141 341t341 141q206 -6 341 -141t141 -341q-6 -206 -141 -341t-341 -141zM851 854l-62 -62
l-65 62l-65 -62l65 -65l-65 -62l65 -65l65 65l62 -65l65 65l-65 62l65 65zM349 600l62 65l65 -65l65 65l-65 62l65 65l-65 62l-65 -62l-62 62l-65 -62l65 -65l-65 -62zM600 479q-107 0 -189 -58t-118 -150h614q-37 93 -118.5 150.5t-188.5 57.5z" />
    <glyph glyph-name="emoticon-excited" unicode="&#x6b1;" arabic-form="isolated" 
d="M600 1200q-257 -6 -426 -174.5t-174 -425.5q6 -257 174.5 -425.5t425.5 -174.5q257 6 426 175t174 425q-6 257 -176 425.5t-424 174.5zM600 118q-206 6 -341 141t-141 341q6 206 141 341t341 141q206 -6 341 -141t141 -341q-6 -206 -141 -341t-341 -141zM659 724l65 -65
l65 65l62 -65l65 65l-127 127zM411 724l65 -65l65 65l-130 127l-127 -127l65 -65zM600 271q107 0 189 57.5t118 150.5h-614q37 -94 118.5 -151t188.5 -57z" />
    <glyph glyph-name="folder-star" unicode="&#x6b1;" arabic-form="final" 
d="M1082 961h-482l-121 121h-361q-51 -3 -84.5 -37t-33.5 -84v-722q0 -51 33.5 -84.5t84.5 -36.5h964q51 3 84.5 36.5t33.5 84.5v600q0 51 -33.5 86.5t-84.5 35.5zM958 299l-177 104l-178 -104l48 199l-155 136l202 17l83 188l81 -188l203 -17l-155 -136z" />
    <glyph glyph-name="format-color-text" unicode="&#x6b1;" arabic-form="initial" 
d="M380 416l220 583l220 -583h-440zM509 1245l-509 -1290h206l105 275h578l105 -275h206l-509 1290h-182z" />
    <glyph glyph-name="format-section" unicode="&#x6b1;" arabic-form="medial" 
d="M957 1342q-142 83 -311 83q-119 0 -195 -53t-79 -144q4 -97 91 -151.5t233 -100.5q188 -55 307 -146.5t124 -265.5q-5 -96 -51 -178.5t-124 -137.5q96 -96 96 -229q-9 -205 -157.5 -299.5t-340.5 -94.5q-216 -5 -403 110l64 146q155 -106 343 -104q129 0 209 54.5
t85 160.5q4 86 -69 148t-252 121q-206 69 -327.5 161t-126.5 256q5 96 57.5 178.5t135.5 128.5q-92 86 -96 220q4 174 139.5 272t340.5 98q193 0 362 -87zM536 463q155 -50 297 -129q101 79 101 202q0 74 -54.5 138t-183.5 110q-160 55 -321 132q-55 -32 -87 -87t-32 -123.5
t64.5 -130t215.5 -112.5z" />
    <glyph glyph-name="gradient" unicode="&#x6ba;" arabic-form="isolated" 
d="M534 800h132v-134h-132v134zM400 666h134v-132h-134v132zM666 666h134v-132h-134v132zM800 800h135v-134h-135v134zM265 800h135v-134h-135v134zM1065 1200h-930q-57 0 -96 -39t-39 -95v-931q0 -57 39 -96t96 -39h930q57 0 96 39t39 96v931q0 57 -39 95.5t-96 38.5z
M400 200h-135v135h135v-135zM666 200h-132v135h132v-135zM935 200h-135v135h135v-135zM1065 666h-130v-132h130v-133h-130v133h-135v-133h-134v133h-132v-133h-134v133h-135v-133h-130v133h130v132h-130v400h930v-400z" />
    <glyph glyph-name="home-outline" unicode="&#x6ba;" arabic-form="final" 
d="M418 150v363h364v-363h181v488l-363 364l-363 -364v-488h181zM600 1173l600 -600h-114v-546h-426v364h-120v-364h-426v546h-114z" />
    <glyph glyph-name="message-bulleted" unicode="&#x6bb;" arabic-form="isolated" 
d="M1082 1200h-964q-51 0 -84.5 -33.5t-33.5 -84.5v-1082l240 240h842q51 0 84.5 35t33.5 86v721q0 51 -33.5 84.5t-84.5 33.5zM360 479h-120v121h120v-121zM360 659h-120v122h120v-122zM360 840h-120v121h120v-121zM781 479h-302v121h302v-121zM960 659h-481v122h481v-122z
M960 840h-481v121h481v-121z" />
    <glyph glyph-name="message-bulleted-off" unicode="&#x6bb;" arabic-form="final" 
d="M69 1200l-69 -69l110 -110v-926l218 217h491l312 -312l69 69zM437 529h-109v111h109v-111zM328 693v111l109 -111h-109zM1092 1185h-870l323 -322v105h437v-111h-432l54 -53h378v-111h-268l381 -381q47 3 76 33.5t29 77.5v655q0 46 -30.5 76.5t-77.5 30.5z" />
    <glyph glyph-name="nuke" unicode="&#x6bb;" arabic-form="initial" 
d="M724 600h-245v59h-270q-88 3 -148.5 62.5t-60.5 149.5t60.5 149t148.5 62q95 -3 157 -71q20 85 83.5 137t150.5 52t150.5 -52t83.5 -137q62 68 157 71q88 -3 148.5 -62t60.5 -149t-60.5 -149.5t-148.5 -62.5h-267v-59zM479 304v71h-298v118h838v-118h-295v-71l358 -129
q25 -11 42 -34t17 -51q0 -39 -25 -64.5t-65 -25.5h-902q-39 0 -64.5 25.5t-25.5 64.5q0 28 16.5 51t42.5 34z" />
    <glyph glyph-name="power-plug" unicode="&#x6bb;" arabic-form="medial" 
d="M999 1103v398h-197v-398h-404v398h-197v-398q-80 -5 -139 -64q-57 -58 -62 -138v-550l351 -351v-301h498v301l351 351v550q-5 80 -63 138.5t-138 63.5z" />
    <glyph glyph-name="power-plug-off" unicode="&#x6c0;" arabic-form="isolated" 
d="M401 1236v-212q307 -307 615 -608q9 12 26 26q16 14 26 33v373q-3 57 -48.5 86.5t-85.5 44.5v257h-132v-266h-269v266h-132zM85 1171q-44 -43 -85 -85l267 -270v-348l234 -234v-201h333v201q12 9 23 -6.5t24 -22.5l232 -241q50 43 87 88q-565 558 -1115 1116v3z" />
    <glyph glyph-name="publish" unicode="&#x6c0;" arabic-form="final" 
d="M0 1289v-173h1200v173h-1200zM0 426h342v-515h516v515h342l-600 605z" />
    <glyph glyph-name="restore" unicode="&#x6c1;" arabic-form="isolated" 
d="M686 1114q-217 -5 -363 -149.5t-151 -364.5h-172l222 -222l6 -8l230 230h-171q6 172 118 284.5t281 115.5q171 -3 284 -115.5t117 -284.5q-5 -172 -117.5 -284t-283.5 -115q-83 0 -155.5 30.5t-126.5 87.5l-80 -83q70 -70 162.5 -110t199.5 -40q219 5 364 150t150 364
q-6 219 -150.5 364t-363.5 150zM630 828v-284l244 -147l43 69l-202 121v241h-85z" />
    <glyph glyph-name="robot" unicode="&#x6c1;" arabic-form="final" 
d="M600 1144q46 0 76.5 -30.5t33.5 -76.5q0 -31 -15.5 -56.5t-40.5 -37.5v-69h56q161 -6 268 -113t112 -271h54q22 0 37.5 -15t18.5 -38v-163q-3 -23 -18 -38.5t-38 -15.5h-54v-56q0 -47 -32 -77.5t-78 -30.5h-760q-46 0 -78 30.5t-32 77.5v56h-54q-22 0 -37.5 15t-18.5 39
v163q3 23 18 38t38 15h54q5 164 112 271t268 113h56v69q-25 12 -40.5 37.5t-15.5 56.5q3 46 33.5 76.5t76.5 30.5zM355 546q-59 -2 -97 -40.5t-38 -95.5t38 -95.5t97 -38.5t97 38.5t38 95.5t-38 95.5t-97 40.5zM845 546q-59 -2 -97 -40.5t-38 -95.5t38 -95.5t97 -38.5
t97 38.5t38 95.5t-38 95.5t-97 40.5z" />
    <glyph glyph-name="format-rotate-90" unicode="&#x6c1;" arabic-form="initial" 
d="M370 881l-370 -367l370 -368l367 368zM162 514l208 207l207 -207l-207 -208zM1051 867q-75 77 -168 115t-194 38v183l-240 -242l240 -240v184q77 0 150.5 -29.5t131.5 -87.5q118 -123 117.5 -281t-117.5 -281q-58 -58 -131.5 -87.5t-150.5 -29.5q-82 0 -160 34l-85 -82
q115 -64 245 -64q101 0 194 37.5t168 111.5q149 157 149 360.5t-149 360.5z" />
    <glyph glyph-name="scanner" unicode="&#x6c1;" arabic-form="medial" 
d="M1119 722l-1038 378l-47 -125l938 -341h-837q-57 0 -96 -39t-39 -96v-265q0 -56 39 -93.5t96 -40.5h930q57 3 96 40.5t39 93.5v366q0 43 -22 76.5t-59 45.5zM265 300h-130v135h130v-135zM1065 300h-665v135h665v-135z" />
    <glyph glyph-name="subway" unicode="&#x6be;" arabic-form="isolated" 
d="M388 419q26 0 43 -17t17 -42.5t-17 -42.5t-42.5 -17t-42.5 17t-17 42.5t17 42.5t42 17zM298 779h604v-302h-604v302zM812 419q25 0 42 -17t17 -42.5t-17 -42.5t-42.5 -17t-42.5 17t-17 42.5t17 42.5t43 17zM960 365v414q-3 115 -105.5 149.5t-254.5 31.5q-141 3 -248 -32
q-106 -34 -112 -149v-414q3 -68 46 -111.5t111 -46.5l-68 -68v-22h102l90 90h169l91 -90h90v22l-68 68q67 3 110.5 46.5t46.5 111.5zM949 1151q122 -48 186.5 -142.5t64.5 -221.5v-788h-1200v788q0 127 64.5 221.5t186.5 142.5q81 31 173 40.5t176 9.5t176 -9.5t173 -40.5z
" />
    <glyph glyph-name="timer-sand-empty" unicode="&#x6be;" arabic-form="final" 
d="M15 1575v-585l388 -390l-388 -388v-587h1170v587l-388 388l388 390v585h-1170zM990 161v-344h-780v344l390 389zM600 650l-390 390v344h780v-344z" />
    <glyph glyph-name="transit-transfer" unicode="&#x6be;" arabic-form="initial" 
d="M871 405h329v-91h-329v-104l-150 150l150 151v-106zM1051 151v104l149 -149l-149 -153v108h-330v90h330zM451 1008q-51 0 -86.5 33.5t-35.5 84t35.5 86t86.5 35.5t84.5 -35.5t33.5 -86t-33.5 -84t-84.5 -33.5zM225 802l-107 -45v-201h-118v282l315 130q22 8 45 9
q65 -3 102 -57l57 -96q42 -67 109 -106.5t153 -42.5v-119q-99 0 -183.5 41t-143.5 115l-37 -181l124 -124v-454h-122v361l-129 122l-104 -483h-127z" />
    <glyph glyph-name="unity" unicode="&#x6be;" arabic-form="medial" 
d="M515 256h-177l-338 344l338 345h177l90 154l467 118l128 -462l-90 -155l90 -155l-128 -462l-467 119zM524 276l354 -97l-202 353h-408zM997 250l94 350l-94 350l-202 -350zM524 925l-256 -257h408l202 353z" />
    <glyph glyph-name="update" unicode="&#x6d2;" arabic-form="isolated" 
d="M1200 726h-453l185 187q-144 138 -330.5 139t-329.5 -133q-138 -140 -137.5 -324.5t137.5 -328.5q143 -135 329.5 -135t330.5 135q134 135 133 328h135q0 -103 -43.5 -217t-131.5 -202q-185 -175 -425 -175t-425 175q-175 181 -175 418.5t175 419.5q185 175 422.5 175
t421.5 -175l181 187v-474zM634 866v-282l232 -140l-47 -81l-285 171v332h100z" />
    <glyph glyph-name="watch-vibrate" unicode="&#x6d2;" arabic-form="final" 
d="M150 348v502h101v-502h-101zM949 348v502h101v-502h-101zM1099 749h101v-300h-101v300zM0 449v300h101v-300h-101zM898 601q0 -72 -30.5 -133t-82.5 -104l-37 -213h-298l-38 213q-51 43 -81.5 104t-30.5 132t30.5 132t81.5 104l38 213h298l37 -213q52 -43 82.5 -104
t30.5 -131zM375 601q2 -96 65.5 -159.5t158.5 -63.5t158 63.5t63 158.5t-63 158.5t-158 63.5t-158.5 -63.5t-65.5 -157.5z" />
    <glyph glyph-name="angular" unicode="&#x6d3;" arabic-form="isolated" 
d="M600 1244l600 -216l-92 -790l-508 -282l-508 282l-92 790zM600 1102l-374 -841h139l77 190h316l77 -190h137zM711 565h-219l108 263z" />
    <glyph glyph-name="dolby" unicode="&#x6d3;" arabic-form="final" 
d="M0 1020v-840h1200v840h-1200zM240 299h-122v602h122q132 -8 216.5 -92.5t84.5 -208.5t-84.5 -208.5t-216.5 -92.5zM1082 299h-122q-132 8 -216.5 92.5t-84.5 208.5t85 208q83 85 216 93h122v-602z" />
    <glyph glyph-name="flash-outline" unicode="&#x6ad;" arabic-form="isolated" 
d="M109 1575h982l-344 -682h344l-688 -1268v778h-294v1172zM307 1384v-784h293v-261l197 357h-371l348 688h-467z" />
    <glyph glyph-name="format-font" unicode="&#x6ad;" arabic-form="final" 
d="M935 866h199v-800h66v-66h-265v66h65v200h-265l-101 -200h101v-66h-270v66h69zM1000 800l-234 -465h234v465zM135 1200h330q59 0 97 -37.5t38 -96.5v-731h-200v331h-200v-331h-200v731q0 59 38 96.5t97 37.5zM200 1066v-266h200v266h-200z" />
    <glyph glyph-name="format-page-break" unicode="&#x6ad;" arabic-form="initial" 
d="M265 666h135v-132h-135v132zM534 666h132v-132h-132v132zM1065 266h-265v391l400 -401v-322h-1200v600h135v-468h930v200zM0 1266h1200v-600h-135v469h-930v-469h-135v600z" />
    <glyph glyph-name="format-pilcrow" unicode="&#x6ad;" arabic-form="medial" 
d="M395 699q-169 5 -282 118t-113 285t113 285q113 111 282 116h805v-201h-201v-1605h-198v1605h-203v-1605h-203v1002z" />
    <glyph glyph-name="garage" unicode="&#x6c7;" arabic-form="isolated" 
d="M1200 -45h-168v774h-864v-774h-168v947l600 343l600 -343v-947zM257 644h686v-174h-686v174zM257 387h686v-174h-686v174zM943 129v-174h-686v174h686z" />
    <glyph glyph-name="garage-open" unicode="&#x6c7;" arabic-form="final" 
d="M1200 -45h-168v774h-864v-774h-168v947l600 343l600 -343v-947zM257 644h686v-174h-686v174z" />
    <glyph glyph-name="github-face" unicode="&#x6c6;" arabic-form="isolated" 
d="M1105 839q8 19 16.5 85.5t-28.5 161.5q0 6 -62 -2.5t-197 -92.5q-113 25 -234 22q-121 3 -234 -22q-135 87 -197 94t-62 1q-37 -95 -28.5 -161.5t16.5 -85.5q-93 -99 -95 -251q3 -285 167.5 -383.5t432.5 -93.5q265 -6 431 93t169 384q-2 152 -95 251zM600 187
q-192 -8 -318.5 34.5t-129.5 216.5q0 88 76 156q62 51 158 45t214 -12q118 6 214 11.5t158 -44.5q76 -68 79 -156q-6 -171 -132.5 -215t-318.5 -36zM411 563q-37 0 -63.5 -38.5t-26.5 -94.5t26.5 -95.5t65 -39.5t64 38t25.5 95.5t-25.5 96t-65.5 38.5zM789 563
q-40 0 -65.5 -38.5t-25.5 -96t25.5 -95.5t64 -38t65 38t26.5 95.5t-25.5 96t-64.5 38.5z" />
    <glyph glyph-name="google-keep" unicode="&#x6c6;" arabic-form="final" 
d="M118 1200h964q51 0 84.5 -33.5t33.5 -84.5v-803l-279 -279h-803q-51 0 -84.5 33.5t-33.5 84.5v964q0 51 33.5 84.5t84.5 33.5zM902 299v-195l194 195h-194zM479 181h242v59h60v301q56 39 87 102.5t34 137.5q-3 126 -89 212t-213 89q-127 -3 -213 -89t-89 -212
q3 -74 34 -137t87 -103v-301h60v-59zM721 299h-242v62h242v-62zM721 420h-242v59h242v-59zM600 1020q101 -3 169 -70.5t71 -168.5q0 -68 -32.5 -123t-86.5 -86v-31h-242v31q-54 31 -86.5 86t-32.5 123q3 101 71 168.5t169 70.5z" />
    <glyph glyph-name="google-photos" unicode="&#x6c8;" arabic-form="isolated" 
d="M902 600v302l-302 298v-298h-302l-298 -302h298v-301l302 -299v299h302l298 301h-298zM653 547l-53 -158l-53 158l-159 53l159 54l53 161l53 -161l159 -54z" />
    <glyph glyph-name="heart-half-full" unicode="&#x6c8;" arabic-form="final" 
d="M871 1030q-71 0 -127.5 -36.5t-84.5 -95.5v-631q195 171 307.5 302t115.5 253q-3 90 -60.5 149t-150.5 59zM871 1151q140 -3 233 -96t96 -233q-3 -167 -141 -327.5t-372 -366.5l-87 -79l-87 79q-234 206 -372 366.5t-141 327.5q3 140 96 233t233 96q79 0 149.5 -34
t121.5 -90q51 56 121.5 90t149.5 34z" />
    <glyph glyph-name="heart-half" unicode="&#x677;" arabic-form="isolated" 
d="M1183 1127v-1406l-104 -96l-155 140q-414 364 -658 648.5t-249 578.5q5 249 169 414q165 164 413 169q210 -5 392 -134t192 -314z" />
    <glyph glyph-name="heart-half-outline" unicode="&#x6cb;" arabic-form="isolated" 
d="M226 992q5 -215 204 -446.5t544 -535.5v1117q-50 105 -149.5 170t-225.5 65q-165 0 -266.5 -105t-106.5 -265zM1183 1127v-1406l-104 -96l-155 140q-414 364 -658 648.5t-249 578.5q5 249 169 414q165 164 413 169q210 -5 392 -134t192 -314z" />
    <glyph glyph-name="hexagon-multiple" unicode="&#x6cb;" arabic-form="final" 
d="M452 1222q18 0 26 -15l138 -247l6 -18l-6 -18l-138 -245q-8 -15 -26 -18h-280q-21 3 -29 18l-138 245l-5 18l5 18l138 247q8 15 29 15h280zM452 539q18 -3 26 -18l138 -245l6 -17l-6 -18l-138 -248q-8 -15 -26 -15h-280q-21 0 -29 15l-138 248l-5 18l5 17l138 245
q8 15 29 18h280zM1027 881q18 0 27 -18l140 -245l6 -18l-6 -18l-140 -245q-8 -18 -27 -17h-279q-18 0 -27 17l-140 245l-6 18l6 18l140 245q8 18 27 18h279z" />
    <glyph glyph-name="hook" unicode="&#x6c5;" arabic-form="isolated" 
d="M1200 1157q0 -129 -75.5 -227t-201.5 -129v-663q-4 -194 -134.5 -324.5t-329.5 -135.5q-195 5 -325.5 135t-133.5 325v464l459 -464h-278q5 -117 83 -195t197.5 -78t197.5 78t78 195v663q-122 34 -198 132t-80 229q4 156 110.5 258t262.5 102t259.5 -104.5t108.5 -260.5z
M832 971q79 4 130.5 56t51.5 130t-52 130t-130 52t-132 -52t-54 -130t54 -130t132 -56z" />
    <glyph glyph-name="hook-off" unicode="&#x6c5;" arabic-form="final" 
d="M731 743v-90l135 -131v221q109 32 163.5 122.5t25 200t-120 164t-201.5 27t-164.5 -120t-27.5 -201.5q19 -73 70 -123t120 -69zM800 1135q57 -3 94.5 -41t37.5 -94t-38 -93.5t-94 -37.5t-95 37.5t-39 93.5t39 94t95 41zM1115 -66l-259 256q-38 -134 -151.5 -204.5
t-251.5 -39.5q-112 28 -182.5 116t-70.5 204v334l331 -334h-200q3 -85 59.5 -141t142.5 -56t142 56t56 141v50l-731 734l85 85l1115 -1116z" />
    <glyph glyph-name="infinity" unicode="&#x6c9;" arabic-form="isolated" 
d="M930 870q116 -3 192 -79t78 -191q-2 -115 -78 -190t-192 -80q-112 3 -192 80l-138 122l-141 -124q-37 -38 -86 -58t-103 -20q-116 3 -192 79.5t-78 190.5q2 115 78 191t192 79q112 -3 192 -80l138 -122l141 125q37 37 86 57t103 20zM389 481l136 119l-134 118
q-51 51 -122.5 50t-119.5 -48t-48 -120t48 -119.5t119.5 -48t120.5 48.5zM811 719l-136 -119l134 -117q51 -52 122.5 -50.5t119.5 48t48 119.5t-48 120t-119.5 48t-120.5 -49z" />
    <glyph glyph-name="language-swift" unicode="&#x6c9;" arabic-form="final" 
d="M907 135q-110 -62 -248 -65t-285 59q-121 51 -216.5 134t-157.5 187q59 -51 138 -84q152 -71 294.5 -69.5t251.5 69.5q-152 118 -278.5 257.5t-225.5 266.5q-37 42 -68 90q369 -285 385 -300.5t-238 359.5q228 -223 393 -342.5t173 -122.5l23 -11q8 22 14 45
q34 130 0 268t-124 262q209 -130 311.5 -333t54.5 -402q-3 -8 -3 -23q96 -136 99 -234t-17 -81q-60 101 -141.5 99.5t-134.5 -29.5z" />
    <glyph glyph-name="language-typescript" unicode="&#x6d0;" arabic-form="isolated" 
d="M0 1200h1200v-1200h-1200v1200zM712 209q25 -50 76.5 -82.5t133 -32.5t133 40.5t51.5 115.5q0 69 -39 110t-111 68l-28 13q-34 15 -51.5 29t-17.5 40q4 43 52.5 46.5t75.5 -46.5l85 56q-53 93 -159 91q-75 -4 -119 -44.5t-44 -108t36 -104.5t99 -63l28 -12
q37 -16 59 -31.5t22 -42t-20.5 -42t-59.5 -15.5t-64 18.5t-44 50.5zM666 650h-332v-100h100v-484h116v484h116v100z" />
    <glyph glyph-name="laptop-off" unicode="&#x6d0;" arabic-form="final" 
d="M49 1012l66 62l886 -885l-64 -63l-100 98h-837v101h199q-42 0 -70 29t-28 72v499q0 17 4 30zM199 426h439l-439 436v-436zM1001 426v499h-610l-101 101h711q42 -3 70 -31t28 -70v-499q0 -43 -28 -72t-70 -29h199v-101h-110l-200 202h111z" />
    <glyph glyph-name="lightbulb-on" unicode="&#x6d0;" arabic-form="initial" 
d="M600 927q138 -3 231 -96t95 -231q0 -92 -44.5 -166t-117.5 -118v-96q0 -23 -15.5 -38.5t-38.5 -17.5h-220q-23 2 -38.5 17t-15.5 39v96q-73 44 -117.5 118t-44.5 166q2 138 95 231t231 96zM710 110v-54q-3 -22 -18.5 -37.5t-37.5 -18.5h-108q-22 3 -37.5 18.5t-18.5 37.5
v54h220zM1036 654h164v-108h-164v108zM0 654h164v-108h-164v108zM654 1200v-163h-108v163h108zM215 1063l114 -116l-76 -76l-115 114zM871 947l114 116l77 -78l-115 -114z" />
    <glyph glyph-name="lightbulb-on-outline" unicode="&#x6d0;" arabic-form="medial" 
d="M1036 654h164v-108h-164v108zM0 654h164v-108h-164v108zM654 1200v-163h-108v163h108zM215 1063l114 -116l-76 -76l-115 114zM871 947l114 116l77 -78l-115 -114zM600 927q138 -3 231 -96t95 -231q0 -92 -44.5 -166t-117.5 -118v-96q0 -23 -15.5 -38.5t-38.5 -17.5h-220
q-23 2 -38.5 17t-15.5 39v96q-73 44 -117.5 118t-44.5 166q2 138 95 231t231 96zM710 110v-54q-3 -22 -18.5 -37.5t-37.5 -18.5h-108q-22 3 -37.5 18.5t-18.5 37.5v54h220zM546 274h108v114q73 20 118 78t45 134q-2 92 -63.5 153.5t-153.5 61.5t-153.5 -61.5t-63.5 -153.5
q0 -76 45 -133.5t118 -78.5v-114z" />
    <glyph glyph-name="lock-pattern" unicode="&#x649;" arabic-form="initial" 
d="M266 1200q116 -3 191.5 -78t78.5 -188q-3 -97 -58 -166t-143 -94v-151q38 -9 69 -28l301 301q-34 62 -38 138q4 113 79 188.5t189.5 75.5t189.5 -75.5t75 -190t-75 -190t-188 -78.5q-74 3 -135 38l-304 -304q35 -59 38 -135q-3 -112 -78.5 -187.5t-190 -75.5t-189.5 75.5
t-78 187.5q3 97 58 166q56 69 143 94v151q-88 25 -143 94t-58 166q3 113 78 188t188 78zM937 533q113 -4 188 -79t75 -189t-75 -189.5t-189.5 -75.5t-189.5 75.5t-75 189.5t75 189t191 79zM937 398q-56 0 -95.5 -39.5t-39.5 -95.5t39.5 -93.5t95.5 -37.5t93.5 37.5
t37.5 93.5t-37 95.5t-94 39.5z" />
    <glyph glyph-name="loop" unicode="&#x649;" arabic-form="medial" 
d="M419 508v-419h-419v121h214q-73 76 -114 176t-41 213q6 244 168 405q161 160 404 166q243 -6 403.5 -166t165.5 -405q-6 -243 -166.5 -403t-402.5 -166h-31v118h31q192 6 318.5 132.5t132.5 318.5q-6 191 -132.5 319.5t-318.5 131.5q-192 -3 -320 -131.5t-130 -319.5
q0 -88 30.5 -166.5t86.5 -138.5v214h121z" />
    <glyph glyph-name="magnify-minus-outline" unicode="&#xfbea;" arabic-form="isolated" 
d="M859 444h-54l-20 19q52 58 79.5 132t27.5 158q-4 190 -129 317q-126 127 -316 130q-190 -3 -317 -130t-130 -317q3 -190 130 -315.5t317 -128.5q84 0 158 27t132 79l19 -20v-54l341 -341l103 103zM447 444q-132 3 -219 90t-87 219t87 219t219 87t219 -87t87 -219
t-87 -219t-219 -90zM273 788h345v-67h-345v67z" />
    <glyph glyph-name="magnify-plus-outline" unicode="&#xfbeb;" arabic-form="final" 
d="M859 444l341 -341l-103 -103l-341 341v54l-19 20q-58 -52 -132 -79t-158 -27q-190 4 -317 129t-130 315q3 190 130 317t317 130q190 -3 315.5 -130t129.5 -317q0 -84 -27.5 -158t-79.5 -132l20 -19h54zM447 444q132 3 219 90t87 219t-87 219t-219 87t-219 -87t-87 -219
t87 -219t219 -90zM618 721h-139v-139h-67v139h-139v67h139v139h67v-139h139v-67z" />
    <glyph glyph-name="mailbox" unicode="&#xfbec;" arabic-form="isolated" 
d="M1082 900h-603v-361h-119v483h361v239h-481v-361h-122q-51 0 -84.5 -35t-33.5 -86v-721q0 -51 33.5 -85t84.5 -34h964q51 0 84.5 34t33.5 85v721q0 51 -33.5 86t-84.5 35z" />
    <glyph glyph-name="medical-bag" unicode="&#xfbed;" arabic-form="final" 
d="M479 1140l-118 -120v-119h-180q-53 -3 -84.5 -38t-36.5 -83l-59 -599q-6 -48 23.5 -83t94.5 -38h962q65 3 94.5 38t23.5 83l-59 599q-6 48 -38 83t-83 38h-180v119l-118 120h-242zM479 1020h242v-119h-242v119zM541 721h118v-180h180v-120h-180v-181h-118v181h-180v120
h180v180z" />
    <glyph glyph-name="message-settings" unicode="&#xfbee;" arabic-form="isolated" 
d="M1082 1261h-964q-51 0 -84.5 -34t-33.5 -84v-1082l240 239h842q51 0 84.5 35.5t33.5 86.5v721q0 51 -33.5 84.5t-84.5 33.5zM541 -61h118v122h-118v-122zM298 -61h121v122h-121v-122zM781 -61h121v122h-121v-122z" />
    <glyph glyph-name="message-settings-variant" unicode="&#xfbef;" arabic-form="final" 
d="M690 721q0 -39 -25.5 -64.5t-64.5 -25.5t-64.5 25.5t-25.5 63.5t25.5 63.5t64.5 25.5t64.5 -25.5t25.5 -62.5zM1200 1082v-721q0 -51 -33.5 -86t-84.5 -35h-842l-240 -240v1082q0 51 33.5 84.5t84.5 33.5h964q51 0 84.5 -33.5t33.5 -84.5zM887 642l-64 48q0 14 1.5 29.5
t-1.5 29.5l64 51q8 9 3 20l-62 104q-6 11 -16 6l-77 -28q-22 17 -51 28l-11 78q-3 11 -14 12h-118q-14 0 -17 -12l-11 -78q-25 -11 -51 -28l-76 28q-11 6 -17 -6l-59 -104q-6 -11 3 -20l61 -51q-3 -28 0 -59l-61 -48q-8 -8 -3 -19l59 -104q6 -11 17 -9l76 31q22 -20 51 -31
l11 -79q3 -11 17 -11h118q14 0 17 11l11 82q25 11 51 28l74 -31q14 -3 19 9l59 104q5 11 -3 19z" />
    <glyph glyph-name="minus-box-outline" unicode="&#xfbf0;" arabic-form="isolated" 
d="M1065 135v931h-930v-931h930zM1065 1200q57 0 96 -39t39 -95v-931q0 -57 -39 -96t-96 -39h-930q-57 0 -96 39t-39 96v931q0 59 39 96.5t96 37.5h930zM935 666v-132h-670v132h670z" />
    <glyph glyph-name="network" unicode="&#xfbf1;" arabic-form="final" 
d="M902 1201q51 0 84 -35t33 -85v-600q0 -51 -33.5 -84.5t-83.5 -36.5h-243v-119h62q25 -3 42.5 -20t17.5 -42h419v-118h-419q0 -25 -17.5 -42.5t-42.5 -19.5h-242q-25 2 -42.5 19.5t-17.5 42.5h-419v118h419q0 25 17.5 42t42.5 20h62v119h-243q-51 3 -84 36q-33 35 -33 85
v600q0 51 33.5 85.5t83.5 34.5h604z" />
    <glyph glyph-name="download-network" unicode="&#xfbf2;" arabic-form="isolated" 
d="M902 1201q51 0 84 -35t33 -85v-600q0 -51 -33.5 -84.5t-83.5 -36.5h-243v-119h62q25 -3 42.5 -20t17.5 -42h419v-118h-419q0 -25 -17.5 -42.5t-42.5 -19.5h-242q-25 2 -42.5 19.5t-17.5 42.5h-419v118h419q0 25 17.5 42t42.5 20h62v119h-243q-51 3 -84 36q-33 35 -33 85
v600q0 51 33.5 85.5t83.5 34.5h604zM600 511l271 271h-212v240h-118v-240h-212z" />
    <glyph glyph-name="help-network" unicode="&#xfbf3;" arabic-form="final" 
d="M902 1201q51 0 84 -35t33 -85v-600q0 -51 -33.5 -84.5t-83.5 -36.5h-243v-119h62q25 -3 42.5 -20t17.5 -42h419v-118h-419q0 -25 -17.5 -42.5t-42.5 -19.5h-242q-25 2 -42.5 19.5t-17.5 42.5h-419v118h419q0 25 17.5 42t42.5 20h62v119h-243q-51 3 -84 36q-33 35 -33 85
v600q0 51 33.5 85.5t83.5 34.5h604zM611 1081q-79 0 -127 -35t-45 -106v-3h116q0 28 17 42.5t42 14.5t42 -17t17 -45.5t-14 -49.5t-37 -35q-48 -31 -64.5 -55t-16.5 -72h118q0 28 8.5 45t30.5 31q40 22 67 56t27 79q0 68 -48.5 109t-132.5 41zM541 661v-122h118v122h-118z
" />
    <glyph glyph-name="upload-network" unicode="&#xfbf4;" arabic-form="isolated" 
d="M902 1201q51 0 84 -35t33 -85v-600q0 -51 -33.5 -84.5t-83.5 -36.5h-243v-119h62q25 -3 42.5 -20t17.5 -42h419v-118h-419q0 -25 -17.5 -42.5t-42.5 -19.5h-242q-25 2 -42.5 19.5t-17.5 42.5h-419v118h419q0 25 17.5 42t42.5 20h62v119h-243q-51 3 -84 36q-33 35 -33 85
v600q0 51 33.5 85.5t83.5 34.5h604zM600 1053l-271 -271h212v-243h118v243h212z" />
    <glyph glyph-name="npm" unicode="&#xfbf5;" arabic-form="final" 
d="M66 767v-269h134v200h65v-200h69v269h-268zM400 767v-334h134v65h132v269h-266zM600 698v-131h-66v131h66zM735 767v-269h131v200h69v-200h65v200h65v-200h69v269h-399zM0 833h1200v-400h-600v-66h-266v66h-334v400z" />
    <glyph glyph-name="nut" unicode="&#xfbf6;" arabic-form="isolated" 
d="M1200 300q-3 -41 -34 -60l-528 -293q-16 -13 -38 -13t-38 13l-528 293q-31 19 -34 60v600q3 41 34 60l528 293q16 13 38 13t38 -13l528 -293q31 -19 34 -60v-600zM600 935q-140 -3 -236 -98.5t-99 -236.5q3 -140 99 -235.5t236 -98.5q140 3 236 98.5t99 235.5
q-3 140 -99 236t-236 99z" />
    <glyph glyph-name="octagram" unicode="&#xfbf7;" arabic-form="final" 
d="M0 351l103 249l-103 250l249 101l102 249l249 -103l249 103l102 -249l249 -101l-103 -250l103 -249l-249 -101l-102 -250l-249 103l-249 -103l-102 250z" />
    <glyph glyph-name="page-layout-body" unicode="&#xfbf8;" arabic-form="initial" 
d="M151 1347h898q63 0 105 -41.5t46 -104.5v-1201q-4 -64 -46 -106q-42 -41 -105 -41h-898q-63 0 -105 41.5t-46 105.5v1201q4 64 46 105t105 41zM151 899v-597h898v597h-898z" />
    <glyph glyph-name="page-layout-footer" unicode="&#xfbf9;" arabic-form="isolated" 
d="M151 1347h898q63 0 105 -41.5t46 -104.5v-1201q-4 -64 -46 -106q-42 -41 -105 -41h-898q-63 0 -105 41.5t-46 105.5v1201q4 64 46 105t105 41zM151 302v-302h898v302h-898z" />
    <glyph glyph-name="page-layout-header" unicode="&#xfbfa;" arabic-form="final" 
d="M151 1347h898q63 0 105 -41.5t46 -104.5v-1201q-4 -64 -46 -106q-42 -41 -105 -41h-898q-63 0 -105 41.5t-46 105.5v1201q4 64 46 105t105 41zM151 1201v-302h898v302h-898z" />
    <glyph glyph-name="page-layout-sidebar-left" unicode="&#xfbfb;" arabic-form="initial" 
d="M151 1347h898q63 0 105 -41.5t46 -104.5v-1201q-4 -64 -46 -106q-42 -41 -105 -41h-898q-63 0 -105 41.5t-46 105.5v1201q4 64 46 105t105 41zM151 899v-597h298v597h-298z" />
    <glyph glyph-name="page-layout-sidebar-right" unicode="&#x6cc;" arabic-form="isolated" 
d="M151 1347h898q63 0 105 -41.5t46 -104.5v-1201q-4 -64 -46 -106q-42 -41 -105 -41h-898q-63 0 -105 41.5t-46 105.5v1201q4 64 46 105t105 41zM751 899v-597h298v597h-298z" />
    <glyph glyph-name="pencil-circle" unicode="&#x6cc;" arabic-form="final" 
d="M600 1200q-257 -6 -426 -174.5t-174 -425.5q6 -257 174.5 -425.5t425.5 -174.5q257 6 426 175t174 425q-6 257 -174.5 425.5t-425.5 174.5zM786 896q14 0 26 -8l75 -76q20 -26 0 -48l-61 -60l-122 122l60 62q8 8 22 8zM667 792l125 -124l-364 -364h-124v124z" />
    <glyph glyph-name="pentagon" unicode="&#x6cc;" arabic-form="initial" 
d="M600 1172l-600 -440l228 -704h744l228 704z" />
    <glyph glyph-name="pentagon-outline" unicode="&#x6cc;" arabic-form="medial" 
d="M600 1020l456 -330l-174 -535h-564l-174 535zM600 1172l-600 -440l228 -704h738l234 704z" />
    <glyph glyph-name="pillar" unicode="&#xfc00;" arabic-form="isolated" 
d="M200 1066h800q28 0 46.5 -19t18.5 -47t-18 -47q-19 -18 -47 -18h-800q-28 0 -46.5 18.5t-18.5 46.5t18.5 47t46.5 19zM1200 1266v-131h-1200v131h1200zM800 866h135v-932h-135v932zM265 866h135v-932h-135v932zM534 866h132v-932h-132v932z" />
    <glyph glyph-name="pistol" unicode="&#xfc01;" arabic-form="isolated" 
d="M331 979h869v-216h-56v-53h-325q-23 -3 -38 -18t-15 -38v-54q0 -46 -32 -76t-78 -33h-182q-34 0 -49 -30l-132 -264q-15 -28 -48 -31h-183q-18 -10 -54.5 41t107.5 284q18 15 55 109.5t-108 109.5v269h53l28 56h163zM712 600v54q-2 23 -17.5 38t-38.5 18h-53
q-5 -3 -20 -34.5t20 -75.5q-46 0 -76.5 32t-32.5 78q-23 -3 -38.5 -18t-15.5 -38v-54q0 -22 15.5 -37.5t38.5 -15.5h162q23 0 38.5 15.5t17.5 37.5z" />
    <glyph glyph-name="plus-box-outline" unicode="&#xfc02;" arabic-form="isolated" 
d="M1065 135v931h-930v-931h930zM1065 1200q57 0 96 -39t39 -95v-931q0 -57 -39 -96t-96 -39h-930q-57 0 -96 39t-39 96v931q0 59 39 96.5t96 37.5h930zM534 935h132v-269h269v-132h-269v-268h-132v268h-269v132h269v269z" />
    <glyph glyph-name="plus-outline" unicode="&#xfc03;" arabic-form="isolated" 
d="M0 824h375v376h450v-376h375v-448h-375v-376h-450v376h-375v448zM526 526v-375h148v375h375v147h-375v376h-148v-376h-375v-147h375z" />
    <glyph glyph-name="prescription" unicode="&#xfc04;" arabic-form="isolated" 
d="M0 1221v-760h153v305h152l408 -412l-269 -269l106 -106l271 269l273 -269l106 106l-273 269l273 274l-106 107l-273 -274l-303 305h14q96 0 160 64t64 162t-64 162t-160 67h-532zM153 1069h379q32 0 53.5 -21.5t21.5 -54t-21.5 -53.5t-53.5 -24h-379v153z" />
    <glyph glyph-name="printer-settings" unicode="&#xfc05;" arabic-form="isolated" 
d="M960 1261v-239h-720v239h720zM1019 720q26 3 43 20t17 42t-17 42t-42.5 17t-42.5 -17t-17 -42t17 -42t42 -20zM840 300v301h-480v-301h480zM1019 963q80 -3 130.5 -54t50.5 -127v-360h-240v-243h-720v243h-240v360q0 76 50.5 127t130.5 54h838zM781 -61v122h121v-122
h-121zM541 -61v122h118v-122h-118zM298 -61v122h121v-122h-121z" />
    <glyph glyph-name="react" unicode="&#xfc06;" arabic-form="isolated" 
d="M600 705q45 0 74 -30.5t29 -74t-29 -73t-74 -29.5t-74 29.5t-29 73t29 74t74 30.5zM341 151q28 -15 80.5 9.5t120.5 87.5q-45 50 -84 105q-71 8 -133 21q-21 -91 -16 -149t32 -74zM380 473l-16 29q-10 -26 -16 -49l50 -8zM747 515l44 84l-44 84q-27 45 -53 82
q-44 2 -94 2t-94 -2q-26 -37 -53 -82l-44 -84l44 -84q27 -44 53 -81q44 -2 94 -2t94 2q26 37 53 81zM600 890q-16 -18 -34 -39h68q-18 21 -34 39zM600 308q16 19 34 40h-68q18 -21 34 -40zM859 1048q-28 16 -80.5 -9t-120.5 -88q45 -50 84 -105q71 -8 133 -21
q21 92 16 149.5t-32 73.5zM820 725l16 -29q10 27 16 51l-50 7zM901 1121q61 -36 71.5 -121.5t-16.5 -192.5q108 -35 176 -86t68 -121.5t-68 -121.5t-176 -86q27 -107 16.5 -192t-72 -119t-140.5 -2.5t-160 109.5q-81 -78 -160 -109.5t-140.5 2.5t-72 119t16.5 192
q-108 35 -176 86t-68 121.5t68 122t176 85.5q-27 107 -16.5 192.5t72 119.5t140.5 2t160 -110q81 78 160 110t141 0zM883 599q29 -62 50 -126q89 27 136 61t47 65.5t-47 65.5t-136 60q-21 -63 -50 -126zM317 599q-29 63 -50 126q-89 -26 -136 -60t-47 -65.5t47 -65.5
t136 -61q21 64 50 126zM820 473l-18 -28l50 8q-6 23 -16 49zM658 248q68 -62 120.5 -87t80 -9.5t32.5 73t-16 149.5q-62 -13 -133 -21q-39 -55 -84 -105zM380 725l18 29l-50 -7q6 -24 16 -51zM542 951q-68 63 -120.5 87.5t-80 9t-32.5 -73t16 -149.5q62 13 133 21
q39 55 84 105z" />
    <glyph glyph-name="restart" unicode="&#xfc07;" arabic-form="isolated" 
d="M601 1079q117 0 226 -44.5t197 -132.5q176 -187 176 -426.5t-176 -422.5q-105 -106 -237.5 -148t-269.5 -25l42 148q95 -10 190.5 23t169.5 107q134 138 134 317.5t-134 320.5q-67 67 -150 99t-168 32v-345l-373 373l373 370v-246zM175 49q-148 155 -171 354t79 380
l109 -113q-60 -127 -36.5 -266.5t124.5 -245.5q60 -60 131 -92l-35 -148q-113 47 -201 131z" />
    <glyph glyph-name="rewind-outline" unicode="&#xfc08;" arabic-form="isolated" 
d="M444 745l-207 -145l207 -145v290zM1061 745l-205 -145l205 -145v290zM582 1012v-824l-582 412zM1200 1012v-824l-582 412z" />
    <glyph glyph-name="rhombus" unicode="&#xfc09;" arabic-form="isolated" 
d="M1175 673l-499 499q-34 31 -73 31t-73 -31l-499 -499q-31 -34 -31 -73t31 -73l499 -499q34 -31 73 -31t73 31l499 499q25 34 25 73t-25 73z" />
    <glyph glyph-name="rhombus-outline" unicode="&#xfc0a;" arabic-form="isolated" 
d="M1175 673l-499 499q-34 31 -73 31t-73 -31l-499 -499q-31 -34 -31 -73t31 -73l499 -499q34 -31 73 -31t73 31l499 499q25 34 25 73t-25 73zM1102 600l-499 -499l-499 499l499 499z" />
    <glyph glyph-name="roomba" unicode="&#xfc0b;" arabic-form="isolated" 
d="M600 1200q121 0 229.5 -45t195.5 -130l-84 -84q-70 67 -158 104t-183 37t-183 -37t-158 -104l-84 84q87 85 195.5 130t229.5 45zM98 930l88 -84q-65 -113 -68 -246q6 -206 141 -341t341 -141q206 6 341 141t141 341q-3 132 -68 246l88 84q98 -149 98 -330
q-6 -257 -174.5 -425.5t-425.5 -174.5q-257 6 -426 175t-174 425q0 181 98 330zM600 961q152 -3 255 -106q102 -103 105 -255q0 -73 -26.5 -138t-79.5 -116l-85 85q-70 -70 -168.5 -70t-169.5 70l-85 -85q-53 51 -79.5 116t-26.5 138q3 152 105.5 255t254.5 106zM600 840
q-25 0 -42 -17t-17 -42.5t17 -42.5t42 -17t42 17t17 42.5t-17 42.5t-42 17z" />
    <glyph glyph-name="run" unicode="&#xfc0c;" arabic-form="isolated" 
d="M791 1106q64 0 105.5 44t41.5 106.5t-42 104.5t-105 42t-105 -42t-42 -104.5t42 -106.5t105 -44zM522 70l73 326l158 -151v-448h150v560l-158 150l46 224q74 -83 180.5 -134t228.5 -51v147q-108 3 -190.5 52.5t-131.5 129.5l-73 119q-46 70 -126 74q-17 0 -29.5 -4
t-30.5 -4l-387 -164v-350h149v255l134 53l-119 -609l-368 78l-28 -151z" />
    <glyph glyph-name="search-web" unicode="&#xfc0d;" arabic-form="isolated" 
d="M859 444l341 -341l-103 -103l-341 341v54l-19 20q-58 -52 -132 -79t-158 -27q-190 4 -317 129t-130 315q3 190 130 317t317 130q190 -3 315.5 -130t129.5 -317q0 -84 -27.5 -158t-79.5 -132l20 -19h54zM447 1098l-39 -4q-13 -25 -29 -68.5t-32 -98.5h196q-12 55 -30 98
t-30 69q-17 4 -36 4zM744 927q-65 109 -185 151q26 -55 55 -151h130zM148 927h132q25 96 51 151q-119 -42 -183 -151zM103 753q0 -52 16 -103h148l-10 103l10 103h-148q-16 -48 -16 -103zM772 650q16 51 16 104.5t-16 101.5h-145q7 -51 7 -103t-7 -103h145zM335 856
l-10 -103l10 -103h222q9 51 9 103t-9 103h-222zM447 412h36q12 28 30 72t30 98h-196q16 -55 32 -98t29 -72h39zM744 582h-130q-28 -96 -55 -151q120 42 185 151zM148 582q64 -109 183 -151q-25 55 -51 151h-132z" />
    <glyph glyph-name="shovel" unicode="&#xfc0e;" arabic-form="isolated" 
d="M773 1198l-168 -169q-37 -37 -37 -84.5t37 -83.5l84 -85l-272 -275l-169 172l-87 -85q-199 -227 -151.5 -366t70.5 -142q3 -23 142 -69t366 153l84 84l-168 169l272 270l84 -82q37 -37 84.5 -36.5t84.5 36.5l171 169zM945 692l-85 82l-171 171l87 84l253 -253z" />
    <glyph glyph-name="shovel-off" unicode="&#xfc0f;" arabic-form="isolated" 
d="M773 1198l-168 -169q-37 -37 -37 -84.5t37 -83.5l84 -87l-42 -43l87 -87l45 45l81 -84q37 -37 86 -36.5t86 36.5l168 171zM945 692l-256 253l84 84l256 -253zM1110 94l-84 -84l-469 466l-59 -59l169 -169l-79 -84q-228 -199 -367 -153t-142 69q-22 3 -70 142t152 366
l87 85l169 -172l59 62l-467 463l84 85z" />
    <glyph glyph-name="signal-2g" unicode="&#xfc10;" arabic-form="isolated" 
d="M541 149h-541v360q0 77 50.5 127.5t130.5 53.5h179v180h-360v181h360q76 -3 127 -53.5t54 -127.5v-180q-3 -76 -54 -127t-127 -54h-179v-179h360v-181zM1200 690h-270v-181h89v-179h-179v540h360v181h-360q-76 -3 -127 -53.5t-54 -127.5v-540q3 -77 54 -127.5t127 -53.5
h179q80 3 130.5 53.5t50.5 127.5v360z" />
    <glyph glyph-name="signal-3g" unicode="&#xfc11;" arabic-form="isolated" 
d="M541 330v134q-3 59 -41 97.5t-95 38.5q57 3 95 41t41 94v135q-3 77 -54 127.5t-127 53.5h-360v-181h360v-180h-179v-181h179v-179h-360v-181h360q76 3 127 53.5t54 127.5zM1200 330v360h-270v-181h89v-179h-179v540h360v181h-360q-76 -3 -127 -53.5t-54 -127.5v-540
q3 -77 54 -127.5t127 -53.5h179q80 3 130.5 53.5t50.5 127.5z" />
    <glyph glyph-name="signal-4g" unicode="&#xfc12;" arabic-form="isolated" 
d="M1200 330v360h-270v-181h89v-179h-179v540h360v181h-360q-76 -3 -127 -53.5t-54 -127.5v-540q3 -77 54 -127.5t127 -53.5h179q80 3 130.5 53.5t50.5 127.5zM360 149h181v902h-181v-361h-179v361h-181v-542h360v-360z" />
    <glyph glyph-name="signal-hspa" unicode="&#xfc13;" arabic-form="isolated" 
d="M405 794h390v781h390v-1950h-390v779h-390v-779h-390v1950h390v-781z" />
    <glyph glyph-name="signal-hspa-plus" unicode="&#xfc14;" arabic-form="isolated" 
d="M1019 839v-180h181v-181h-181v-179h-179v179h-181v181h181v180h179zM181 690h179v361h181v-902h-181v360h-179v-360h-181v902h181v-361z" />
    <glyph glyph-name="snowflake" unicode="&#xfc15;" arabic-form="isolated" 
d="M1167 473l-151 -39l-130 72v188l130 73l151 -40l33 124l-115 30l30 115l-127 33l-39 -150l-127 -73l-160 93v145l112 109l-91 91l-85 -81l-85 81l-90 -91l112 -109v-145l-164 -93l-127 73l-38 150l-124 -33l30 -115l-112 -30l33 -124l148 40l130 -73v-188l-130 -72
l-148 39l-33 -124l112 -30l-30 -115l127 -33l39 151l127 72l160 -93v-145l-112 -109l90 -91l85 82l85 -82l91 91l-112 109v145l163 93l127 -72l42 -148l121 30l-30 115l112 30zM438 694l160 93l161 -93v-188l-161 -93l-160 93v188z" />
    <glyph glyph-name="source-commit" unicode="&#xfc16;" arabic-form="isolated" 
d="M1142 600q-6 -199 -125.5 -343t-312.5 -191v-441h-213v441q-194 46 -313.5 191.5t-119.5 343.5t119.5 342.5t313.5 190.5v441h213v-441q193 -46 312.5 -190.5t125.5 -343.5zM597 925q-137 -5 -228.5 -96.5t-91.5 -228.5t91.5 -228.5t229 -91.5t228.5 91.5t91 228.5
t-91 228.5t-229 96.5z" />
    <glyph glyph-name="source-commit-end" unicode="&#xfc17;" arabic-form="isolated" 
d="M1200 362q-6 -252 -177.5 -422.5t-422.5 -176.5q-251 6 -422.5 176.5t-177.5 422.5q6 219 137.5 378.5t344.5 209.5v487h236v-487q213 -50 344.5 -209.5t137.5 -378.5zM600 721q-151 -6 -252 -107t-101 -252.5t101 -252t252 -100.5t252 100.5t101 252t-101 252.5
t-252 107z" />
    <glyph glyph-name="source-commit-end-local" unicode="&#xfc18;" arabic-form="isolated" 
d="M600 962q251 -6 422.5 -176.5t177.5 -423.5q-6 -252 -177.5 -422.5t-422.5 -176.5q-251 6 -422.5 176.5t-177.5 422.5q6 251 177.5 422.5t422.5 177.5zM600 721q-151 -6 -252 -107t-101 -252.5t101 -252t252 -100.5t252 100.5t101 252t-101 252.5t-252 107zM482 1197v240
h236v-240h-236z" />
    <glyph glyph-name="source-commit-local" unicode="&#xfc19;" arabic-form="isolated" 
d="M600 1144q228 -5 383.5 -160t160.5 -384q-5 -228 -160.5 -383t-383.5 -160q-228 5 -383.5 160t-160.5 383q5 228 160.5 383.5t383.5 160.5zM600 925q-137 -5 -228.5 -96.5t-91.5 -228.5t91.5 -228.5t228.5 -91.5t228.5 91.5t91.5 228.5t-91.5 228.5t-228.5 96.5z
M493 1358v217h214v-217h-214zM493 -375v219h214v-219h-214z" />
    <glyph glyph-name="source-commit-next-local" unicode="&#xfc1a;" arabic-form="isolated" 
d="M1144 600q-5 -228 -160.5 -383t-383.5 -160q-228 5 -383.5 160t-160.5 383q5 199 124.5 343.5t312.5 190.5v441h214v-441q193 -46 312.5 -190.5t124.5 -343.5zM600 925q-137 -5 -228.5 -96.5t-91.5 -228.5t91.5 -228.5t228.5 -91.5t228.5 91.5t91.5 228.5t-91.5 228.5
t-228.5 96.5zM493 -375v219h214v-219h-214z" />
    <glyph glyph-name="source-commit-start" unicode="&#xfc1b;" arabic-form="isolated" 
d="M600 1438q251 -6 422.5 -177t177.5 -423q-6 -220 -137.5 -378.5t-344.5 -210.5v-487h-236v487q-213 50 -344.5 210.5t-137.5 378.5q6 251 177.5 422.5t422.5 177.5zM600 1196q-151 -6 -252 -106.5t-101 -252t101 -252t252 -100.5t252 100.5t101 252t-101 252t-252 106.5z
" />
    <glyph glyph-name="source-commit-start-next-local" unicode="&#xfc1c;" arabic-form="isolated" 
d="M600 1438q251 -6 422.5 -177t177.5 -423q-6 -252 -177.5 -422.5t-422.5 -176.5q-251 6 -422.5 176.5t-177.5 422.5q6 251 177.5 422.5t422.5 177.5zM600 1196q-151 -6 -252 -106.5t-101 -252t101 -252t252 -100.5t252 100.5t101 252t-101 252t-252 106.5zM482 -238v242
h236v-242h-236z" />
    <glyph glyph-name="speaker-wireless" unicode="&#xfc1d;" arabic-form="isolated" 
d="M1034 195l-81 80q64 64 99 146t35 179t-35 179t-99 146l81 80q77 -77 121.5 -182t44.5 -223t-44.5 -223t-121.5 -182zM873 358l-81 81q64 64 64.5 161t-64.5 161l81 81q46 -46 72.5 -107.5t26.5 -134.5t-26.5 -134.5t-72.5 -107.5zM113 1115h459q48 0 80.5 -33.5
t34.5 -81.5v-800q-2 -48 -34.5 -81.5t-80.5 -33.5h-459q-49 0 -81 33.5t-32 81.5v800q0 49 32 82t81 33zM343 1000q-48 0 -81.5 -32t-33.5 -80.5t33.5 -82t82 -33.5t80.5 33.5t32 82t-32 80.5t-81 32zM343 656q-99 -2 -163 -66.5t-64 -161.5t64 -161t162 -64t162.5 64
t64.5 161t-64.5 161.5t-161.5 66.5zM343 544q49 -3 81 -35t32 -80.5t-32 -80.5t-80.5 -32t-82 32t-33.5 80.5t33.5 80.5t81.5 35z" />
    <glyph glyph-name="stadium" unicode="&#xfc1e;" arabic-form="isolated" 
d="M181 1141h117l181 -121l-181 -118v-82q136 20 302 20t302 -20v321h117l181 -121l-181 -118v-104q85 -20 133 -48.5t48 -59.5q-6 -65 -176 -107t-424 -42t-424.5 42.5t-175.5 106.5q0 31 47.5 59.5t133.5 48.5v343zM600 749q-149 3 -225.5 -9.5t-76.5 -49t76.5 -49.5
t225.5 -13t225.5 13t76.5 49.5t-76.5 49t-225.5 9.5zM600 434q172 3 318.5 30t248.5 74l-85 -479h-301v122q0 51 -35.5 84.5t-86.5 33.5h-118q-51 0 -86.5 -34t-35.5 -84v-122h-301l-85 479q102 -48 248.5 -74.5t318.5 -29.5z" />
    <glyph glyph-name="svg" unicode="&#xfc1f;" arabic-form="isolated" 
d="M186 679h225l-157 158q-48 0 -79 32.5t-31 78.5t31 77t77 31t78.5 -31t32.5 -78l158 -158v225q-31 34 -31 78t32.5 76t77.5 32t77.5 -32t32.5 -76t-31 -78v-225l158 158q3 48 34 78.5t77 30.5t77 -31t31 -77t-31 -78.5t-79 -32.5l-157 -158h225q34 31 78 31t76 -32.5
t32 -77.5t-32 -77t-76 -32t-78 31h-225l157 -159q48 -3 79 -33.5t31 -77t-31 -77.5t-77 -31t-77 31t-34 79l-158 157v-225q31 -34 31 -77.5t-32.5 -76t-77.5 -32.5t-77.5 32.5t-32.5 76t31 77.5v225l-158 -157q0 -48 -32.5 -79t-78.5 -31t-77 31t-31 77.5t31 77.5t79 33
l157 159h-225q-34 -31 -78 -31t-76 32t-32 77t32 77.5t76 32.5t78 -31z" />
    <glyph glyph-name="tag-plus" unicode="&#xfc20;" arabic-form="isolated" 
d="M1166 626l-541 540q-37 34 -85 34h-422q-51 0 -84.5 -34t-33.5 -84v-423q0 -48 33 -84l26 -22q81 48 181 47q152 -3 254.5 -106t105.5 -254q0 -95 -48 -180l22 -26q37 -34 86.5 -34t82.5 34l423 423q34 34 34 83t-34 86zM209 902q-37 0 -62.5 25t-25.5 63t25.5 63.5
t63.5 25.5t63 -25.5t25 -63.5t-25 -63t-64 -25zM478 181h-180v-181h-118v181h-180v118h180v180h118v-180h180v-118z" />
    <glyph glyph-name="tag-remove" unicode="&#xfc21;" arabic-form="isolated" 
d="M1166 626l-541 540q-37 34 -85 34h-422q-51 0 -84.5 -34t-33.5 -84v-423q0 -48 33 -84l26 -22q81 48 181 47q152 -3 254.5 -106t105.5 -254q0 -95 -48 -180l22 -26q37 -34 86.5 -34t82.5 34l423 423q34 34 34 83t-34 86zM209 902q-37 0 -62.5 25t-25.5 63t25.5 63.5
t63.5 25.5t63 -25.5t25 -63.5t-25 -63t-64 -25zM366 26l-126 129l-128 -129l-87 87l130 127l-130 126l87 85l128 -127l126 127l84 -85l-126 -126l126 -127z" />
    <glyph glyph-name="ticket-percent" unicode="&#xfc22;" arabic-form="isolated" 
d="M118 1082q-51 -3 -84.5 -37t-33.5 -84v-240q51 -3 84.5 -36.5t33.5 -84.5t-34 -85t-84 -37v-239q0 -51 33.5 -84.5t84.5 -36.5h964q51 3 84.5 36.5t33.5 84.5v239q-51 3 -84.5 37t-33.5 85t34 84.5t84 36.5v240q0 51 -33.5 84.5t-84.5 36.5h-964zM812 901l90 -90
l-514 -512l-90 90zM408 899q46 -3 75.5 -33t29.5 -75t-29.5 -74.5t-75 -29.5t-75 29.5t-29.5 74.5t29.5 75t74.5 33zM792 515q45 -3 74.5 -32.5t29.5 -74.5t-29.5 -74.5t-75 -29.5t-75 29.5t-29.5 74.5t29.5 74.5t75.5 32.5z" />
    <glyph glyph-name="tilde" unicode="&#xfc23;" arabic-form="isolated" 
d="M2 420q-11 23 45 180t314 180q169 -14 247.5 -105.5t202.5 -105.5q171 14 209 105.5t29 105.5h149q11 -23 -45 -180t-314 -180q-174 14 -269.5 105.5t-180.5 105.5q-171 -14 -209 -105t-29 -106h-149z" />
    <glyph glyph-name="treasure-chest" unicode="&#xfc24;" arabic-form="isolated" 
d="M181 1082h838q80 -3 130.5 -53.5t50.5 -127.5v-242h-419v62h-362v-62h-419v242q0 77 50.5 127.5t130.5 53.5zM541 659h118v-119h-118v119zM0 600h419v-60l122 -120h118l122 120v60h419v-482h-1200v482z" />
    <glyph glyph-name="truck-trailer" unicode="&#xfc25;" arabic-form="isolated" 
d="M1200 418v-121h-721q0 -76 -51 -127t-128 -51t-128 51t-54 127h-118v662q0 51 33.5 85t84.5 37h784q51 -3 84 -37.5t33 -84.5v-541h181zM298 359q-25 -3 -41.5 -20t-16.5 -42.5t16.5 -42t42 -16.5t42 16.5t16.5 42t-17 42.5t-42 20z" />
    <glyph glyph-name="view-parallel" unicode="&#xfc26;" arabic-form="isolated" 
d="M0 -74v1348h301v-1348h-301zM449 -74v1348h302v-1348h-302zM899 -74v1348h301v-1348h-301z" />
    <glyph glyph-name="view-sequential" unicode="&#xfc27;" arabic-form="isolated" 
d="M0 1135h1200v-269h-1200v269zM0 734h1200v-269h-1200v269zM0 334h1200v-269h-1200v269z" />
    <glyph glyph-name="washing-machine" unicode="&#xfc28;" arabic-form="isolated" 
d="M811 664q88 -95 88 -214.5t-90 -209t-209 -89.5t-211 88zM151 1347h898q63 0 105 -41.5t46 -104.5v-1201q-4 -64 -46 -106q-42 -41 -105 -41h-898q-63 0 -105 41.5t-46 105.5v1201q4 64 46 105t105 41zM224 1201q-31 -4 -52 -25t-21 -53t21 -52.5t52.5 -20.5t52.5 20.5
t21 52.5t-21.5 53t-52.5 25zM449 1201q-31 -4 -52.5 -25t-21.5 -53t21.5 -52.5t53 -20.5t52.5 20.5t21 52.5t-21.5 53t-52.5 25zM600 899q-190 -4 -318 -130q-127 -127 -131 -320q4 -190 131.5 -316t317.5 -133q190 7 318 134q127 126 131 315q-4 192 -131.5 319t-317.5 131
z" />
    <glyph glyph-name="webpack" unicode="&#xfc29;" arabic-form="isolated" 
d="M1200 300q-3 -41 -34 -60l-528 -293q-16 -13 -38 -13t-38 13l-528 293q-31 19 -34 60v600q3 41 34 60l528 293q16 13 38 13t38 -13l528 -293q31 -19 34 -60v-600zM600 1122l-465 -263v-518l465 -263l465 263v518zM600 985l328 -188l-328 -190l-328 190zM935 406
l-269 -153v238l269 156v-241zM534 253l-269 153v241l269 -156v-238z" />
    <glyph glyph-name="widgets" unicode="&#xfc2a;" arabic-form="isolated" 
d="M0 1118h498v-271l349 353l353 -353l-353 -349h271v-498h-498v498h227l-349 349v-227h-498v498zM0 498h498v-498h-498v498z" />
    <glyph glyph-name="wiiu" unicode="&#xfc2b;" arabic-form="isolated" 
d="M0 363q0 -101 62 -157.5t166 -56.5h766q88 0 147 52t59 140v560q0 54 -32 97.5t-80 46.5h-178v-462q-39 -265 -307 -265t-305 256v477h-134q-68 0 -116 -38t-48 -103v-547zM439 645q20 -198 161 -193.5t161 151.5v448h-322v-406z" />
    <glyph glyph-name="arrow-down-bold" unicode="&#xfc2c;" arabic-form="isolated" 
d="M370 1208h460v-616h370l-600 -600l-600 600h370v616z" />
    <glyph glyph-name="arrow-down-bold-box" unicode="&#xfc2d;" arabic-form="isolated" 
d="M135 1200h930q57 0 96 -39t39 -95v-931q0 -57 -39 -96t-96 -39h-930q-57 0 -96 39t-39 96v931q0 57 39 95.5t96 38.5zM600 266l335 334h-200v266h-270v-266h-200z" />
    <glyph glyph-name="arrow-down-bold-box-outline" unicode="&#xfc2e;" arabic-form="isolated" 
d="M600 266l-335 334h200v266h270v-266h200zM135 1200h930q57 0 96 -39t39 -95v-931q0 -57 -39 -96t-96 -39h-930q-57 0 -96 39t-39 96v931q0 57 39 95.5t96 38.5zM135 1066v-931h930v931h-930z" />
    <glyph glyph-name="arrow-left-bold" unicode="&#xfc2f;" arabic-form="isolated" 
d="M1200 828v-455h-607v-366l-593 593l593 593v-365h607z" />
    <glyph glyph-name="arrow-left-bold-box" unicode="&#xfc30;" arabic-form="isolated" 
d="M1200 1066v-931q0 -57 -39 -96t-96 -39h-930q-57 0 -96 39t-39 96v931q0 57 39 95.5t96 38.5h930q57 0 96 -38.5t39 -95.5zM265 600l335 -334v199h266v270h-266v200z" />
    <glyph glyph-name="arrow-left-bold-box-outline" unicode="&#xfc31;" arabic-form="isolated" 
d="M265 600l335 335v-200h266v-270h-266v-199zM1200 1066v-931q0 -57 -39 -96t-96 -39h-930q-57 0 -96 39t-39 96v931q0 57 39 95.5t96 38.5h930q57 0 96 -38.5t39 -95.5zM1065 1066h-930v-931h930v931z" />
    <glyph glyph-name="arrow-right-bold" unicode="&#xfc32;" arabic-form="isolated" 
d="M0 373v455h607v365l593 -593l-593 -593v366h-607z" />
    <glyph glyph-name="arrow-right-bold-box" unicode="&#xfc33;" arabic-form="isolated" 
d="M0 135v931q0 57 39 95.5t96 38.5h930q57 0 96 -39t39 -95v-931q0 -57 -39 -96t-96 -39h-930q-57 0 -96 39t-39 96zM935 600l-335 335v-200h-266v-270h266v-199z" />
    <glyph glyph-name="arrow-right-bold-box-outline" unicode="&#xfc34;" arabic-form="isolated" 
d="M935 600l-335 -334v199h-266v270h266v200zM0 135v931q0 57 39 95.5t96 38.5h930q57 0 96 -39t39 -95v-931q0 -57 -39 -96t-96 -39h-930q-57 0 -96 39t-39 96zM135 135h930v931h-930v-931z" />
    <glyph glyph-name="arrow-up-bold" unicode="&#xfc35;" arabic-form="isolated" 
d="M830 -7h-460v614h-370l600 600l600 -600h-370v-614z" />
    <glyph glyph-name="arrow-up-bold-box" unicode="&#xfc36;" arabic-form="isolated" 
d="M1065 0h-930q-57 0 -96 39t-39 96v931q0 57 39 95.5t96 38.5h930q57 0 96 -39t39 -95v-931q0 -57 -39 -96t-96 -39zM600 935l-335 -335h200v-265h270v265h200z" />
    <glyph glyph-name="arrow-up-bold-box-outline" unicode="&#xfc37;" arabic-form="isolated" 
d="M600 935l335 -335h-200v-265h-270v265h-200zM1065 0h-930q-57 0 -96 39t-39 96v931q0 57 39 95.5t96 38.5h930q57 0 96 -39t39 -95v-931q0 -57 -39 -96t-96 -39zM1065 135v931h-930v-931h930z" />
    <glyph glyph-name="cancel" unicode="&#xfc38;" arabic-form="isolated" 
d="M600 1200q257 -6 426 -174.5t174 -425.5q-6 -257 -174.5 -425.5t-425.5 -174.5q-257 6 -426 175t-174 425q6 257 174.5 425.5t425.5 174.5zM600 1082q-206 -6 -341 -141t-141 -341q0 -84 27 -159t75 -137l676 676q-62 48 -137 75t-159 27zM600 118q206 6 341 141t141 341
q0 84 -27 159t-75 137l-676 -676q62 -48 137 -75t159 -27z" />
    <glyph glyph-name="file-account" unicode="&#xfc39;" arabic-form="isolated" 
d="M674 825h414l-414 411v-411zM151 1347h600l449 -448v-899q-4 -64 -46 -106q-42 -41 -105 -41h-898q-63 0 -105 41.5t-46 105.5v1201q4 64 46 105t105 41zM751 0v77q-10 74 -113.5 111t-188 37t-186.5 -37q-101 -37 -112 -111v-77h600zM449 600q-64 0 -106 -44t-42 -107
t42.5 -105t105.5 -42t107 42t44 105t-44 107t-107 44z" />
    <glyph glyph-name="gesture-double-tap" unicode="&#xfc3a;" arabic-form="isolated" 
d="M426 945q5 36 29 60.5t60 24.5t60.5 -24.5t24.5 -60.5v-383l105 -12l423 -189q73 -36 72 -118v-374q0 -53 -36 -89t-92 -40h-557q-53 0 -89 40l-419 359l65 68q24 25 60 25h20l274 -145v858zM515 1288q145 -4 242 -101t101 -242q0 -96 -46.5 -175t-126.5 -123v104
q84 77 89 194q-5 109 -77.5 181.5t-183.5 72.5t-183.5 -72.5t-72.5 -181.5q4 -116 85 -194v-104q-76 44 -123 123t-51 175q4 145 101 242t246 101zM515 1460q218 -4 363 -150.5t154 -364.5q-4 -109 -44.5 -206t-117.5 -164l-85 36q73 60 115.5 146.5t42.5 187.5
q-4 181 -125.5 304t-302.5 128q-185 -5 -306 -128q-120 -123 -124 -304q0 -133 70 -238t187 -157v-93q-154 56 -248 187.5t-94 300.5q4 218 149 364.5t366 150.5z" />
    <glyph glyph-name="gesture-swipe-down" unicode="&#xfc3b;" arabic-form="isolated" 
d="M600 868q3 27 22 46t47 19t47 -19t19 -46v-298l81 -9l328 -146q57 -28 56 -92v-290q0 -41 -28 -69t-71 -31h-432q-41 0 -69 31l-325 278l50 53q19 19 47 19h15l213 -112v666zM0 868l200 -201l200 201h-131v399h-134v-399h-135z" />
    <glyph glyph-name="gesture-swipe-left" unicode="&#xfc3c;" arabic-form="isolated" 
d="M524 826q4 31 25 52.5t52.5 21.5t53 -21.5t21.5 -52.5v-335l91 -10l370 -166q64 -31 63 -102v-328q0 -46 -31.5 -77.5t-80.5 -34.5h-486q-46 0 -78 35l-366 313l56 60q22 21 53 21h18l239 -126v750zM0 1203l226 -226v148h450v151h-450v151z" />
    <glyph glyph-name="gesture-swipe-right" unicode="&#xfc3d;" arabic-form="isolated" 
d="M524 826q4 31 25 52.5t52.5 21.5t53 -21.5t21.5 -52.5v-335l91 -10l370 -166q64 -31 63 -102v-328q0 -46 -31.5 -77.5t-80.5 -34.5h-486q-46 0 -78 35l-366 313l56 60q22 21 53 21h18l239 -126v750zM676 1203l-226 224v-151h-450v-151h450v-148z" />
    <glyph glyph-name="gesture-swipe-up" unicode="&#xfc3e;" arabic-form="isolated" 
d="M600 868q3 27 22 46t47 19t47 -19t19 -46v-298l81 -9l328 -146q57 -28 56 -92v-290q0 -41 -28 -69t-71 -31h-432q-41 0 -69 31l-325 278l50 53q19 19 47 19h15l213 -112v666zM400 1068l-200 199l-200 -199h135v-401h134v401h131z" />
    <glyph glyph-name="gesture-tap" unicode="&#xfc3f;" arabic-form="isolated" 
d="M422 1034q4 36 28.5 60.5t60.5 24.5t60.5 -24.5t24.5 -60.5v-386l106 -11l426 -191q73 -36 72 -118v-377q0 -53 -36 -89.5t-93 -40.5h-560q-53 0 -89 41l-422 361l65 69q24 24 61 24h20l276 -146v864zM511 1379q146 -4 243.5 -101.5t101.5 -243.5q0 -97 -47 -176.5
t-128 -123.5v105q86 77 90 195q-4 110 -77 182.5t-185 72.5t-185 -72.5t-73 -182.5q5 -117 85 -195v-105q-76 44 -123 123.5t-51 176.5q4 146 101.5 243.5t247.5 101.5z" />
    <glyph glyph-name="gesture-two-double-tap" unicode="&#xfc40;" arabic-form="isolated" 
d="M1200 330v-548q0 -53 -36 -89t-92 -40h-557q-53 0 -89 40l-419 359l65 69q24 24 60 24h20l274 -145v858q5 36 29 60.5t60 24.5t60.5 -24.5t24.5 -60.5v174q0 36 24.5 60t60.5 24t60 -24t29 -60v-432l354 -157q32 -15 52 -46t20 -67zM685 1374q149 -5 246 -101t101 -241
q-4 -101 -51 -177.5t-123 -121.5v105q81 73 85 194q0 109 -72.5 181.5t-185.5 76.5q-89 -4 -155.5 -55t-90.5 -131q-80 -25 -131 -91t-51 -155q4 -116 85 -193v-105q-76 44 -123 123t-47 179.5t54.5 183t143.5 126.5q45 89 127.5 145.5t187.5 56.5zM685 1547
q221 -8 366.5 -153t148.5 -362q0 -137 -60.5 -248t-164.5 -180l-92 45q104 53 168 153.5t64 229.5q-4 181 -124.5 302t-305.5 124q-121 0 -220 -60t-155 -161q-105 -56 -165 -155t-60 -224q0 -133 70 -238t187 -157v-93q-154 56 -248 187.5t-94 300.5q0 141 66 256t180 183
q68 114 183 180t256 70z" />
    <glyph glyph-name="gesture-two-tap" unicode="&#xfc41;" arabic-form="isolated" 
d="M1200 416v-552q0 -53 -36 -89t-93 -41h-560q-53 0 -89 41l-422 361l65 69q24 24 61 24h20l276 -145v863q4 36 28.5 60.5t60.5 24.5t60.5 -24.5t24.5 -60.5v175q0 36 24.5 60.5t61 24.5t61 -24.5t28.5 -60.5v-435l357 -157q32 -16 52 -47t20 -67zM856 821v106q29 29 48 61
q36 56 37 134q0 109 -73 182t-180.5 73t-180.5 -69l-12 -12q-20 -16 -32.5 -36.5t-20.5 -45.5l-8 -20q-80 -24 -131.5 -90.5t-51.5 -158.5t54 -157q15 -20 31 -36v-105q-76 45 -123 124t-47 180.5t55 184.5t144 127q45 90 128 146.5t188 56.5q151 -5 248 -101.5t102 -242.5
q-5 -101 -51.5 -178.5t-123.5 -122.5v0z" />
    <glyph glyph-name="humble-bundle" unicode="&#xfc42;" arabic-form="isolated" 
d="M896 230q-107 63 -18.5 482.5t108.5 481.5h-174q-3 -8 -41.5 -146t-77.5 -333h-149q6 79 3 155q-17 296 -140 313t-215 -71q-82 -70 -135.5 -180t-56.5 -211h78q0 14 50 122.5t176 125.5q104 -62 17 -482t-110 -481h175q6 8 52.5 166t82.5 380h144q-11 -115 -9 -234
q17 -293 139.5 -304t215.5 76q85 76 137 194.5t52 193.5h-81q3 -20 -48 -125.5t-175 -122.5z" />
    <glyph glyph-name="kickstarter" unicode="&#xfc43;" arabic-form="isolated" 
d="M460 825l258 375q73 106 191 106q96 0 164 -67.5t68 -160.5q0 -69 -37 -121l-232 -343l284 -360q44 -55 44 -125q0 -99 -68 -167t-164 -68q-103 0 -158 69l-350 435v-240q0 -103 -37 -161q-66 -103 -191 -103q-110 0 -171 73.5t-61 187.5v894q0 110 61 183.5t167.5 73.5
t176.5 -73q37 -45 48 -88q8 -26 7 -96v-224z" />
    <glyph glyph-name="netflix" unicode="&#xfc44;" arabic-form="isolated" 
d="M64 1575h389l289 -861l5 861h389v-1950q-183 32 -399 41l-284 838l-4 -843q-211 -10 -385 -36v1950z" />
    <glyph glyph-name="onenote" unicode="&#xfc45;" arabic-form="isolated" 
d="M0 1036l723 101v-115h418q25 0 42 -17t17 -42v-239q0 -25 -16.5 -42t-42.5 -20h-59v-478h-359v-121l-723 107v866zM542 319v509l-121 -14v-256l-121 239l-117 -14v-419l89 -17v332l149 -346zM723 482h238v62h-238v-62zM723 662h238v62h-238v-62zM723 842h238v62h-238v-62
zM723 364v-62h238v62h-238z" />
    <glyph glyph-name="periscope" unicode="&#xfc46;" arabic-form="isolated" 
d="M600 976q0 -64 -44 -107.5t-107 -43.5t-105.5 43.5t-42.5 107.5q-73 -99 -77 -225q4 -161 111 -267q107 -104 265 -108q158 4 265 109t111 266q-4 158 -111 263.5t-265 108.5q-49 0 -91 -11q42 -17 66.5 -53.5t24.5 -82.5zM600 1347q256 -3 425 -173t175 -423
q0 -119 -41 -221q-102 -260 -278 -463.5t-281 -213.5q-105 10 -280.5 213.5t-278.5 463.5q-42 101 -41 221q7 253 175.5 423t424.5 173z" />
    <glyph glyph-name="uber" unicode="&#xfc47;" arabic-form="isolated" 
d="M600 1200q257 -6 426 -174.5t174 -425.5q-6 -257 -174.5 -425.5t-425.5 -174.5q-248 6 -415.5 166.5t-184.5 402.5h419v-118q3 -28 32 -31h298q29 3 32 31v298q-3 29 -32 32h-298q-29 -3 -32 -32v-118h-419q17 243 184.5 403t415.5 166z" />
    <glyph glyph-name="vector-radius" unicode="&#xfc48;" arabic-form="isolated" 
d="M0 1082h118v118h361v-118q256 -8 425 -177.5t178 -425.5h118v-361h-118v-118h-122v118h-120v361h120q-6 205 -141 340.5t-340 141.5v-121h-361v121h-118v121zM960 361v-121h122v121h-122zM240 1082v-121h120v121h-120z" />
    <glyph glyph-name="xbox-controller-battery-alert" unicode="&#xfc49;" arabic-form="isolated" 
d="M1090 220v653h-326v-653h326zM1126 981q31 0 51 -20.5t23 -51.5v-727q-3 -31 -23.5 -51.5t-50.5 -20.5h-398q-31 0 -51 20.5t-23 51.5v161h-286q-76 -8 -128.5 -69.5t-128.5 -109.5q-89 -3 -108.5 140t136.5 488h13l22 43q8 8 87 37t140 -11h253v48q3 31 23.5 51.5
t50.5 20.5h89v109h220v-109h89zM547 817q-23 0 -38.5 -15.5t-15.5 -38t15.5 -38t38.5 -15.5t38 15.5t15 38t-15 38t-38 15.5zM874 763h106v-273h-106v273zM874 437h106v-110h-106v110z" />
    <glyph glyph-name="xbox-controller-battery-empty" unicode="&#xfc4a;" arabic-form="isolated" 
d="M1090 220v653h-326v-653h326zM1126 981q31 0 51 -20.5t23 -51.5v-727q-3 -31 -23.5 -51.5t-50.5 -20.5h-398q-31 0 -51 20.5t-23 51.5v161h-286q-76 -8 -128.5 -69.5t-128.5 -109.5q-89 -3 -108.5 140t136.5 488h13l22 43q8 8 87 37t140 -11h253v48q3 31 23.5 51.5
t50.5 20.5h89v109h220v-109h89zM547 817q-23 0 -38.5 -15.5t-15.5 -38t15.5 -38t38.5 -15.5t38 15.5t15 38t-15 38t-38 15.5z" />
    <glyph glyph-name="xbox-controller-battery-full" unicode="&#xfc4b;" arabic-form="isolated" 
d="M1126 981q31 0 51 -20.5t23 -51.5v-727q-3 -31 -23.5 -51.5t-50.5 -20.5h-398q-31 0 -51 20.5t-23 51.5v161h-286q-76 -8 -128.5 -69.5t-128.5 -109.5q-89 -3 -108.5 140t136.5 488h13l22 43q8 8 87 37t140 -11h253v48q3 31 23.5 51.5t50.5 20.5h89v109h220v-109h89z
M547 817q-23 0 -38.5 -15.5t-15.5 -38t15.5 -38t38.5 -15.5t38 15.5t15 38t-15 38t-38 15.5z" />
    <glyph glyph-name="xbox-controller-battery-low" unicode="&#xfc4c;" arabic-form="isolated" 
d="M1090 384v489h-326v-489h326zM1126 981q31 0 51 -20.5t23 -51.5v-727q-3 -31 -23.5 -51.5t-50.5 -20.5h-398q-31 0 -51 20.5t-23 51.5v161h-286q-76 -8 -128.5 -69.5t-128.5 -109.5q-89 -3 -108.5 140t136.5 488h13l22 43q8 8 87 37t140 -11h253v48q3 31 23.5 51.5
t50.5 20.5h89v109h220v-109h89zM547 817q-23 0 -38.5 -15.5t-15.5 -38t15.5 -38t38.5 -15.5t38 15.5t15 38t-15 38t-38 15.5z" />
    <glyph glyph-name="xbox-controller-battery-medium" unicode="&#xfc4d;" arabic-form="isolated" 
d="M1090 600v273h-326v-273h326zM1126 981q31 0 51 -20.5t23 -51.5v-727q-3 -31 -23.5 -51.5t-50.5 -20.5h-398q-31 0 -51 20.5t-23 51.5v161h-286q-76 -8 -128.5 -69.5t-128.5 -109.5q-89 -3 -108.5 140t136.5 488h13l22 43q8 8 87 37t140 -11h253v48q3 31 23.5 51.5
t50.5 20.5h89v109h220v-109h89zM547 817q-23 0 -38.5 -15.5t-15.5 -38t15.5 -38t38.5 -15.5t38 15.5t15 38t-15 38t-38 15.5z" />
    <glyph glyph-name="xbox-controller-battery-unknown" unicode="&#xfc4e;" arabic-form="isolated" 
d="M1126 981q31 0 51 -20.5t23 -51.5v-727q-3 -31 -23.5 -51.5t-50.5 -20.5h-398q-31 0 -51 20.5t-23 51.5v161h-286q-76 -8 -128.5 -69.5t-128.5 -109.5q-89 -3 -108.5 140t136.5 488h13l22 43q8 8 87 37t140 -11h253v48q3 31 23.5 51.5t50.5 20.5h89v109h220v-109h89z
M547 817q-23 0 -38.5 -15.5t-15.5 -38t15.5 -38t38.5 -15.5t38 15.5t15 38t-15 38t-38 15.5zM937 817q-71 0 -114.5 -32t-41.5 -95v-3h105q0 26 15.5 38.5t38.5 12.5t38.5 -15.5t15.5 -41t-13 -44.5t-34 -32q-43 -28 -58 -49.5t-15 -65.5h106q0 26 8 41t28 28q36 20 60 51
t24 72q0 61 -43 98t-120 37zM874 437v-110h106v110h-106z" />
    <glyph glyph-name="clipboard-plus" unicode="&#xfc4f;" arabic-form="isolated" 
d="M400 1069q3 85 59 141t141 56t141 -56.5t59 -140.5h265q57 -3 96 -40.5t39 -93.5v-866q0 -57 -39 -96t-96 -39h-930q-57 0 -96 39t-39 96v866q0 57 39 94t96 40h265zM600 1134q-28 0 -47 -18.5t-19 -46.5t19 -46.5t47 -18.5t47 18.5t19 46.5t-19 46.5t-47 18.5zM666 534
v201h-132v-201h-200v-134h200v-200h132v200h200v134h-200z" />
    <glyph glyph-name="file-plus" unicode="&#xfc50;" arabic-form="isolated" 
d="M674 825h414l-414 411v-411zM151 1347h600l449 -448v-899q-4 -64 -46 -106q-42 -41 -105 -41h-898q-63 0 -105 41.5t-46 105.5v1201q4 64 46 105t105 41zM526 376v224h-151v-224h-224v-151h224v-225h151v225h225v151h-225z" />
    <glyph glyph-name="format-align-bottom" unicode="&#xfc51;" arabic-form="isolated" 
d="M666 800l169 166l93 -93l-328 -329l-328 329l93 93l169 -166v400h132v-400zM0 401h1200v-135h-1200v135zM0 135h666v-135h-666v135z" />
    <glyph glyph-name="format-align-middle" unicode="&#xfc52;" arabic-form="isolated" 
d="M666 1001l134 134l94 -98l-294 -293l-294 293l94 98l134 -134v265h132v-265zM0 666h1200v-132h-1200v132zM666 200v-266h-132v266l-134 -134l-94 97l294 293l294 -293l-94 -97z" />
    <glyph glyph-name="format-align-top" unicode="&#xfc53;" arabic-form="isolated" 
d="M666 401l169 -166l93 93l-328 329l-328 -329l93 -93l169 166v-401h132v401zM0 1200h1200v-134h-1200v134zM0 935h666v-135h-666v135z" />
    <glyph glyph-name="format-list-checks" unicode="&#xfc54;" arabic-form="isolated" 
d="M92 1062h369v-370h-369v370zM217 941v-125h120v125h-120zM586 941h614v-125h-614v125zM586 447h614v-124h-614v124zM217 138l-217 217l86 86l131 -127l282 280l87 -87z" />
    <glyph glyph-name="format-quote-open" unicode="&#xfc55;" arabic-form="isolated" 
d="M426 1031l-169 -347h258v-515h-515v515l168 347h258zM1115 1031l-172 -347h257v-515h-515v515l173 347h257z" />
    <glyph glyph-name="grid-large" unicode="&#xfc56;" arabic-form="isolated" 
d="M118 1200h964q51 0 84.5 -33.5t33.5 -84.5v-964q0 -51 -33.5 -84.5t-84.5 -33.5h-964q-48 0 -83 33.5t-35 84.5v964q0 51 33.5 84.5t84.5 33.5zM118 1082v-423h423v423h-423zM118 118h423v423h-423v-423zM1082 118v423h-423v-423h423zM1082 1082h-423v-423h423v423z" />
    <glyph glyph-name="heart-off" unicode="&#xfc57;" arabic-form="isolated" 
d="M0 1071l75 71l1012 -1012l-72 -72l-203 203l-182 -166l-83 75q-223 196 -354 348.5t-134 310.5q0 80 35 147zM372 1142q75 0 142 -32t116 -85q48 53 115 85t142 32q134 -2 222 -90.5t91 -222.5q0 -109 -63 -212.5t-175 -215.5l-718 715q58 26 128 26z" />
    <glyph glyph-name="music" unicode="&#xfc58;" arabic-form="isolated" 
d="M1200 1167v-790q-3 -92 -65.5 -156t-155.5 -64t-156.5 64t-63.5 157t63.5 155t155.5 65q54 0 94 -20v371l-631 -134v-563q-3 -95 -65 -157t-155 -62t-157 62t-64 155.5t64 157t155 63.5q54 0 95 -20v527z" />
    <glyph glyph-name="music-off" unicode="&#xfc59;" arabic-form="isolated" 
d="M0 1058l80 81l1058 -1059l-80 -80l-617 613v-328q-3 -95 -65 -157.5t-155 -62.5t-157 62.5t-64 156t64 157t155 63.5q54 0 95 -21v258zM1200 1200v-791q-3 -98 -71 -160l-311 311q62 69 160 71q54 0 94 -20v370l-557 -119l-159 157z" />
    <glyph glyph-name="tab-plus" unicode="&#xfc5a;" arabic-form="isolated" 
d="M1065 135v665h-465v266h-465v-931h930zM1065 1200q57 0 96 -39t39 -95v-931q0 -57 -39 -96t-96 -39h-930q-57 0 -96 39t-39 96v931q0 59 39 96.5t96 37.5h930zM265 534h200v201h135v-201h200v-133h-200v-201h-135v201h-200v133z" />
    <glyph glyph-name="volume-plus" unicode="&#xfc5b;" arabic-form="isolated" 
d="M0 789h251l318 318v-1014l-318 318h-251v378zM696 662h190v190h124v-190h190v-125h-190v-189h-124v189h-190v125z" />
    <glyph glyph-name="volume-minus" unicode="&#xfc5c;" arabic-form="isolated" 
d="M0 789h251l318 318v-1014l-318 318h-251v378zM696 662h504v-125h-504v125z" />
    <glyph glyph-name="volume-mute" unicode="&#xfc5d;" arabic-form="isolated" 
d="M0 789h251l318 318v-1014l-318 318h-251v378zM859 600l-163 163l89 89l163 -163l163 163l89 -89l-163 -163l163 -163l-89 -89l-163 163l-163 -163l-89 89z" />
    <glyph glyph-name="unfold-less-vertical" unicode="&#xfc5e;" arabic-form="isolated" 
d="M105 944l344 -344l-344 -344l-105 105l239 239l-239 239zM1095 256l-344 344l344 344l105 -105l-239 -239l239 -239z" />
    <glyph glyph-name="unfold-more-vertical" unicode="&#xfc5f;" arabic-form="isolated" 
d="M1013 600l-213 213l94 93l306 -306l-306 -306l-94 93zM187 600l213 -213l-94 -93l-306 306l306 306l94 -93z" />
    <glyph glyph-name="taco" unicode="&#xfc60;" arabic-form="isolated" 
d="M980 273h-760q-95 3 -156 64t-64 153q5 186 127.5 308.5t308.5 128.5q87 0 164 -31q76 31 164 31q186 -6 308.5 -128t127.5 -309q-3 -92 -64 -153t-156 -64zM110 490q0 -47 32 -77t77.5 -30t76 30.5t30.5 76.5q3 100 41.5 183t105.5 141l-37 3q-138 -3 -230.5 -95
t-95.5 -232zM980 383q46 0 78 30.5t32 76.5q-3 140 -96 232t-230 95q-139 -3 -232 -94.5t-96 -232.5q0 -59 -30 -107h574z" />
    <glyph glyph-name="square-outline" unicode="&#xfc61;" arabic-form="isolated" 
d="M0 1200h1200v-1200h-1200v1200zM135 1066v-931h930v931h-930z" />
    <glyph glyph-name="square" unicode="&#xfc62;" arabic-form="isolated" 
d="M0 1200v-1200h1200v1200h-1200z" />
    <glyph glyph-name="circle" unicode="&#xfc63;" arabic-form="isolated" 
d="M600 1200q-257 -6 -426 -174.5t-174 -425.5q6 -257 174.5 -425.5t425.5 -174.5q257 6 426 175t174 425q-6 257 -174.5 425.5t-425.5 174.5z" />
    <glyph glyph-name="circle-outline" unicode="&#xfc64;" arabic-form="final" 
d="M600 118q-206 6 -341 141t-141 341q6 206 141 341t341 141q206 -6 341 -141t141 -341q-6 -206 -141 -341t-341 -141zM600 1200q-257 -6 -426 -174.5t-174 -425.5q6 -257 174.5 -425.5t425.5 -174.5q257 6 426 175t174 425q-6 257 -174.5 425.5t-425.5 174.5z" />
    <glyph glyph-name="alert-octagram" unicode="&#xfc65;" arabic-form="final" 
d="M0 351l103 249l-103 250l249 101l102 249l249 -103l249 103l102 -249l249 -101l-103 -250l103 -249l-249 -101l-102 -250l-249 103l-249 -103l-102 250zM660 293v124h-120v-124h120zM660 540v368h-120v-368h120z" />
    <glyph glyph-name="atom" unicode="&#xfc66;" arabic-form="final" 
d="M600 669q30 0 49.5 -19.5t19.5 -49.5t-19.5 -49.5t-49 -19.5t-49.5 19.5t-20 49.5t20 49.5t49 19.5zM53 1147q79 72 225.5 46t321.5 -141q175 115 321.5 141t222.5 -49.5t49.5 -222t-141.5 -321.5q115 -175 141.5 -321.5t-49.5 -222.5t-222.5 -49.5t-321.5 141.5
q-175 -115 -321.5 -141.5t-222 49.5t-49.5 222.5t141 321.5q-115 175 -141 321.5t46 225.5zM850 851q62 -66 120 -135q72 115 93.5 202.5t-18.5 126.5t-127 18t-203 -94q69 -56 135 -118zM350 350q-62 66 -119 135q-73 -115 -94 -202.5t18.5 -127.5t126.5 -18t203 94
q-69 57 -135 119zM152 1048q-36 -43 -14.5 -130t93.5 -202q56 69 120.5 133t133.5 120q-115 73 -202.5 94t-130.5 -15zM452 452q73 -76 148 -135q76 60 150 134t134 149q-60 76 -134 150t-150 134q-76 -60 -150 -134t-134 -150q60 -75 136 -148zM1048 152q37 43 15 130.5
t-93 202.5q-57 -69 -121.5 -133.5t-133.5 -120.5q115 -72 202.5 -94t130.5 15z" />
    <glyph glyph-name="ceiling-light" unicode="&#xfc67;" arabic-form="final" 
d="M301 823h225v376h148v-376h225l301 -600h-1200zM751 149q-4 -64 -45.5 -106t-105.5 -42t-105.5 42t-45.5 106h302z" />
    <glyph glyph-name="chart-bar-stacked" unicode="&#xfc68;" arabic-form="final" 
d="M1200 59h-1200v1082h118v-960h122v118h239v-118h121v180h240v-180h120v118h240v-240zM960 479h240v-118h-240v118zM600 961h240v-180h-240v180zM840 420h-240v301h240v-301zM240 721h239v-121h-239v121zM479 361h-239v180h239v-180z" />
    <glyph glyph-name="chart-line-stacked" unicode="&#xfc69;" arabic-form="final" 
d="M927 408l273 505v-854h-1200v1082h118v-960h155l265 453zM1200 1141v-28l-298 -454l-423 302l-239 -361v541h960z" />
    <glyph glyph-name="decagram" unicode="&#xfc6a;" arabic-form="final" 
d="M1200 600l-133 151l18 201l-197 44l-102 173l-186 -79l-186 79l-102 -173l-197 -44l18 -199l-133 -153l133 -151l-18 -201l197 -47l102 -170l186 79l186 -79l102 173l197 44l-18 201z" />
    <glyph glyph-name="decagram-outline" unicode="&#xfc6b;" arabic-form="final" 
d="M1200 600l-133 -151l18 -201l-197 -44l-102 -173l-186 79l-186 -79l-102 170l-197 47l18 201l-133 151l133 153l-18 199l197 44l102 173l186 -79l186 79l102 -173l197 -44l-18 -201zM1055 600l-100 115l12 153l-150 31l-77 132l-140 -61l-140 61l-77 -132l-150 -31
l12 -153l-100 -115l100 -115l-12 -153l150 -31l77 -132l140 61l140 -61l77 132l150 33l-12 151z" />
    <glyph glyph-name="dice-multiple" unicode="&#xfc6c;" arabic-form="final" 
d="M1119 1200h-572q-35 0 -56.5 -23.5t-25.5 -57.5v-253h401v-401h253q34 4 57.5 26t23.5 56v572q0 34 -23.5 57.5t-57.5 23.5zM628 956q-35 0 -58 24t-23 58t23 57.5t59.5 23.5t58 -23.5t21.5 -57.5t-21.5 -58t-59.5 -24zM1037 547q-34 0 -57.5 23.5t-23.5 59.5t22 58
t58 23t59.5 -22t23.5 -59t-23.5 -57.5t-58.5 -25.5zM1037 956q-34 0 -57.5 24t-23.5 58t22 57.5t58 23.5t59.5 -23.5t23.5 -57.5t-23.5 -58t-58.5 -24zM81 735h572q35 -4 56.5 -25.5t25.5 -56.5v-572q-4 -34 -25.5 -57.5t-56.5 -23.5h-572q-34 0 -57.5 23.5t-23.5 57.5v572
q0 35 23.5 56.5t57.5 25.5zM365 447q-34 0 -56 -23t-22 -57.5t22 -57t56.5 -22.5t58 22.5t23.5 57t-23.5 57.5t-58.5 23zM163 653q-35 -3 -58.5 -24.5t-23.5 -56t23.5 -58t58 -23.5t58 23.5t23.5 58t-23.5 56t-57.5 24.5zM569 244q-35 0 -56.5 -23.5t-21.5 -58t21.5 -56
t56 -21.5t58 21.5t23.5 56t-21.5 58t-56.5 23.5h-3z" />
    <glyph glyph-name="dice-d10" unicode="&#xfc6d;" arabic-form="final" 
d="M1175 673q25 -34 25 -73t-25 -73l-499 -499q-34 -31 -73 -31t-73 31l-499 499q-31 34 -31 73.5t31 72.5l499 499q34 31 73 31t73 -31zM1102 600l-499 499l-499 -499l499 -499zM505 372h-91v349l-107 -34v74l189 68h9v-457zM718 840q65 0 109 -44t47 -109v-160
q-3 -65 -47 -108.5t-108.5 -43.5t-108.5 43.5t-46 108.5v160q3 65 46 109t108 44zM718 755q-28 -3 -45 -20t-19 -45v-166q3 -28 19.5 -45t44.5 -17t46.5 17t18.5 45v166q0 28 -18.5 45t-46.5 20z" />
    <glyph glyph-name="folder-open" unicode="&#xfc6e;" arabic-form="final" 
d="M961 146h-849q-49 3 -80.5 34.5t-31.5 79.5v680q0 48 31.5 79.5t80.5 34.5h339l114 -114h396q48 0 81 -33t33 -81h-963v-566l122 454h966l-128 -483q-10 -37 -40.5 -59.5t-70.5 -25.5z" />
    <glyph glyph-name="guitar-acoustic" unicode="&#xfc6f;" arabic-form="final" 
d="M1049 1169h151v-127h-100l-267 -267q-36 54 -89 89zM569 852q106 -3 177.5 -74t74.5 -178q0 -89 -52 -155.5t-138 -90.5v-5q-3 -137 -91.5 -226t-222.5 -92q-136 3 -225 92t-92 226q3 133 92 221.5t225 91.5h6q23 86 90 138t156 52zM569 695q-41 0 -68 -26.5t-27 -68
t27 -68.5t68 -27t68 27t27 68.5t-27 68t-68 26.5zM249 458l-44 -45l177 -177l44 44z" />
    <glyph glyph-name="loading" unicode="&#xfc70;" arabic-form="final" 
d="M1200 965v235q-513 -12 -851.5 -349.5t-348.5 -850.5h237q12 411 282 682t681 283z" />
    <glyph glyph-name="lock-reset" unicode="&#xfc71;" arabic-form="final" 
d="M668 1129q227 -5 377 -155t155 -374q-5 -224 -155.5 -374t-376.5 -155q-138 0 -254 66t-188 175l84 67q58 -92 151 -146.5t209 -57.5q179 6 298.5 125t124.5 300q-5 181 -124 300.5t-299 124.5q-166 -5 -281.5 -108t-140.5 -265h147l-196 -196l-199 196h142
q24 206 171 339t355 138zM827 695q20 -3 34 -16.5t14 -33.5v-243q0 -22 -14 -36t-37 -14h-292q-20 0 -33.5 13.5t-13.5 36.5v243q0 20 13.5 33.5t33.5 16.5v52q2 62 43 104t103 42t104 -42t45 -104v-52zM678 818q-30 0 -51 -19.5t-21 -51.5v-52h147v52q-3 32 -22.5 51.5
t-52.5 19.5z" />
    <glyph glyph-name="ninja" unicode="&#xfc72;" arabic-form="final" 
d="M343 541q0 31 26 54q67 -14 127 -54q-3 -34 -24 -53.5t-52.5 -21t-52.5 19.5t-24 55zM704 541q60 39 127 54q25 -22 24 -54.5t-22 -54t-52.5 -21.5t-52.5 21t-24 55zM600 781q-254 2 -476 -122l-6 -59q0 -112 51 -214q213 34 430.5 34t431.5 -34q51 102 51 214l-6 59
q-222 124 -476 122zM600 1200q257 -6 426 -174.5t174 -425.5q-6 -257 -174.5 -425.5t-425.5 -174.5q-257 6 -426 175t-174 425q6 257 174.5 425.5t425.5 174.5z" />
    <glyph glyph-name="octagram-outline" unicode="&#xfc73;" arabic-form="final" 
d="M0 351l103 249l-103 250l249 101l102 249l249 -103l249 103l102 -249l249 -101l-103 -250l103 -249l-249 -101l-102 -250l-249 103l-249 -103l-102 250zM161 784l74 -184l-74 -183l180 -76l75 -180l184 75l184 -75l75 180l180 76l-74 183l74 184l-180 75l-75 180
l-184 -74l-184 74l-75 -180z" />
    <glyph glyph-name="pencil-circle-outline" unicode="&#xfc74;" arabic-form="final" 
d="M298 422l367 367l124 -124l-367 -366h-124v123zM600 118q206 6 341 141t141 341q-6 206 -141 341t-341 141q-206 -6 -341 -141t-141 -341q6 -206 141 -341t341 -141zM882 761l-59 -62l-125 124l63 59q22 20 45 0l76 -76q20 -23 0 -45zM600 1200q257 -6 426 -174.5
t174 -425.5q-6 -257 -174.5 -425.5t-425.5 -174.5q-257 6 -426 175t-174 425q6 257 174.5 425.5t425.5 174.5z" />
    <glyph glyph-name="selection-off" unicode="&#xfc75;" arabic-form="final" 
d="M0 1104l71 70l1103 -1103l-71 -71l-84 84h-96v97l-742 742h-97v97zM194 1200h167v-109h-65l-110 109h8zM1200 1091v-168h-110v168h-167v109h167q47 0 78.5 -31t31.5 -78zM1090 362h110v-176l-110 111v65zM84 194v168h110v-168h167v-110h-167q-47 0 -78.5 31.5t-31.5 78.5
zM529 1200h226v-109h-226v109zM529 194h226v-110h-226v110zM1090 755h110v-226h-110v226zM84 755h110v-226h-110v226z" />
    <glyph glyph-name="set-all" unicode="&#xfc76;" arabic-form="final" 
d="M419 1020q96 0 181 -40q84 39 181 40q180 -3 298 -121.5t121 -298.5q-3 -181 -121.5 -299t-297.5 -121q-96 0 -181 39q-84 -39 -181 -39q-180 3 -298 121.5t-121 298.5q3 180 121 298.5t298 121.5zM388 600q3 -85 35.5 -158t89.5 -126l62 25q-59 48 -91.5 114t-32.5 145
t32.5 145t91.5 114l-62 25q-57 -53 -89.5 -126.5t-35.5 -157.5zM812 600q-3 84 -35.5 157.5t-89.5 126.5l-62 -25q59 -48 91.5 -114t32.5 -145t-32.5 -145t-91.5 -114l62 -25q57 53 89.5 126t35.5 158z" />
    <glyph glyph-name="set-center" unicode="&#xfc77;" arabic-form="final" 
d="M419 1020q-180 -3 -298 -121.5t-121 -298.5q3 -181 121.5 -299t297.5 -121q96 0 181 39q84 -39 181 -39q180 3 298 121.5t121 298.5q-3 180 -121.5 298.5t-297.5 121.5q-96 0 -181 -40q-85 40 -181 40zM419 901q32 0 60 -5q-57 -63 -88 -137t-31 -159t31 -159.5
t88 -133.5q-28 -8 -60 -8q-126 2 -212 88t-89 213q3 126 89 212.5t212 88.5zM781 901q126 -2 212 -88t89 -213q-3 -127 -89 -213t-212 -88q-32 0 -60 5q57 62 88 136.5t31 159.5t-31 159t-88 134q28 8 60 8z" />
    <glyph glyph-name="set-center-right" unicode="&#xfc78;" arabic-form="final" 
d="M781 180q-96 0 -181 39q-84 -39 -181 -39q-180 3 -298 121.5t-121 298.5q3 180 121.5 298.5t297.5 121.5q96 0 181 -40q84 39 181 40q180 -3 298 -121.5t121 -298.5q-3 -181 -121 -299t-298 -121zM419 299l60 8q-57 59 -88 133.5t-31 159.5t31 159t88 137l-60 5
q-126 -2 -212 -88t-89 -213q3 -127 89 -213t212 -88zM812 600q-3 84 -35.5 157.5t-89.5 126.5l-62 -25q59 -48 91.5 -114t32.5 -145t-32.5 -145t-91.5 -114l62 -25q57 53 89.5 126t35.5 158z" />
    <glyph glyph-name="set-left" unicode="&#xfc79;" arabic-form="final" 
d="M419 1020q-180 -3 -298 -121.5t-121 -298.5q3 -181 121.5 -299t297.5 -121q96 0 181 39q84 -39 181 -39q180 3 298 121.5t121 298.5q-3 180 -121.5 298.5t-297.5 121.5q-96 0 -181 -40q-85 40 -181 40zM781 901q126 -2 212 -88t89 -213q-3 -127 -89 -213t-212 -88
q-32 0 -60 5q57 62 88 136.5t31 159.5t-31 159t-88 134q28 8 60 8zM600 839q56 -42 88.5 -105.5t32.5 -134t-32.5 -133.5t-88.5 -105q-56 42 -88.5 105t-32.5 133.5t32.5 134t88.5 105.5z" />
    <glyph glyph-name="set-left-center" unicode="&#xfc7a;" arabic-form="final" 
d="M419 1020q96 0 181 -40q84 39 181 40q180 -3 298 -121.5t121 -298.5q-3 -181 -121.5 -299t-297.5 -121q-96 0 -181 39q-84 -39 -181 -39q-180 3 -298 121.5t-121 298.5q3 180 121 298.5t298 121.5zM781 901l-60 -8q57 -60 88 -134t31 -159t-31 -159.5t-88 -136.5l60 -5
q126 2 212 88t89 213q-3 126 -89 212.5t-212 88.5zM388 600q3 -85 35.5 -158t89.5 -126l62 25q-59 48 -91.5 114t-32.5 145t32.5 145t91.5 114l-62 25q-57 -53 -89.5 -126.5t-35.5 -157.5z" />
    <glyph glyph-name="set-left-right" unicode="&#xfc7b;" arabic-form="final" 
d="M419 1020q96 0 181 -40q84 39 181 40q180 -3 298 -121.5t121 -298.5q-3 -181 -121.5 -299t-297.5 -121q-96 0 -181 39q-84 -39 -181 -39q-180 3 -298 121.5t-121 298.5q3 180 121 298.5t298 121.5zM419 600q0 -102 50 -183.5t131 -129.5q81 48 131 129.5t50 183t-50 183
t-131 130.5q-81 -49 -131 -130.5t-50 -182.5z" />
    <glyph glyph-name="set-none" unicode="&#xfc7c;" arabic-form="final" 
d="M419 1020q-180 -3 -298 -121.5t-121 -298.5q3 -181 121.5 -299t297.5 -121q96 0 181 39q84 -39 181 -39q180 3 298 121.5t121 298.5q-3 180 -121.5 298.5t-297.5 121.5q-96 0 -181 -40q-85 40 -181 40zM419 901q32 0 60 -5q-57 -63 -88 -137t-31 -159t31 -159.5
t88 -133.5q-28 -8 -60 -8q-126 2 -212 88t-89 213q3 126 89 212.5t212 88.5zM781 901q126 -2 212 -88t89 -213q-3 -127 -89 -213t-212 -88q-32 0 -60 5q57 62 88 136.5t31 159.5t-31 159t-88 134q28 8 60 8zM600 839q56 -42 88.5 -105.5t32.5 -134t-32.5 -133.5t-88.5 -105
q-56 42 -88.5 105t-32.5 133.5t32.5 134t88.5 105.5z" />
    <glyph glyph-name="set-right" unicode="&#xfc7d;" arabic-form="final" 
d="M781 180q-96 0 -181 39q-84 -39 -181 -39q-180 3 -298 121.5t-121 298.5q3 180 121.5 298.5t297.5 121.5q96 0 181 -40q84 39 181 40q180 -3 298 -121.5t121 -298.5q-3 -181 -121 -299t-298 -121zM419 299l60 8q-57 59 -88 133.5t-31 159.5t31 159t88 137l-60 5
q-126 -2 -212 -88t-89 -213q3 -127 89 -213t212 -88zM600 361q56 42 88.5 105t32.5 133.5t-32.5 134t-88.5 105.5q-56 -42 -88.5 -105.5t-32.5 -134t32.5 -133.5t88.5 -105z" />
    <glyph glyph-name="shield-half-full" unicode="&#xfc7e;" arabic-form="final" 
d="M1200 666q-7 -285 -172 -506.5t-428 -294.5q-263 73 -428.5 295t-171.5 506v400l600 269l600 -269v-400zM600 0q194 57 328.5 242.5t136.5 410.5v329l-465 206v-1188z" />
    <glyph glyph-name="sign-direction" unicode="&#xfc7f;" arabic-form="final" 
d="M530 600h-530l176 176l-176 179h530v282l70 69l70 -69v-282h354l176 -179l-176 -176h-354v-567q60 0 101 -39.5t41 -99.5h-424q0 60 41 99.5t101 39.5v567z" />
    <glyph glyph-name="sign-text" unicode="&#xfc80;" arabic-form="final" 
d="M534 1200l66 66l66 -66v-134h468q28 0 47 -19t19 -46v-666q0 -28 -18.5 -47t-47.5 -22h-468v-200q56 0 95 -37.5t39 -94.5h-400q0 57 39 94.5t95 37.5v200h-468q-28 3 -47 21.5t-19 47.5v666q0 27 18.5 46t47.5 19h468v134zM200 866v-131h800v131h-800zM200 600v-135h466
v135h-466z" />
    <glyph glyph-name="signal-off" unicode="&#xfc81;" arabic-form="final" 
d="M1000 1267v-878l200 -199v1077h-200zM85 1134l-85 -85l515 -516h-181v-466h200v450l132 -134v-316h200v116l249 -250l85 88zM666 868v-147l200 -201v348h-200zM0 268v-201h200v201h-200z" />
    <glyph glyph-name="square-root" unicode="&#xfc82;" arabic-form="final" 
d="M586 339l169 169l-169 172l84 85l170 -172l171 172l85 -85l-172 -172l172 -169l-85 -84l-171 169l-170 -169zM0 688h181l137 -324l161 626h721v-121h-628l-172 -659h-146l-153 360h-101v118z" />
    <glyph glyph-name="sticker-emoji" unicode="&#xfc83;" arabic-form="final" 
d="M209 1200q-88 0 -148.5 -60.5t-60.5 -147.5v-783q0 -88 60.5 -148.5t148.5 -60.5h631l360 361v631q0 87 -60.5 147.5t-148.5 60.5h-782zM225 1082h750q45 -3 74.5 -32.5t32.5 -74.5v-555h-91q-90 -3 -149 -62t-61 -149v-91h-556q-45 3 -74.5 33t-32.5 75v749
q3 45 32.5 74.5t74.5 32.5zM746 916q-14 0 -28 -6q-42 -11 -63 -47.5t-10 -81.5q3 -15 11 -26l195 51q0 17 -3 31q-11 34 -38 55t-64 24zM369 812q-14 0 -28 -3q-42 -14 -63.5 -51t-9.5 -79q3 -14 14 -28l191 53q0 14 -2 28q-9 37 -37 58.5t-65 21.5zM885 645l-550 -152
q62 -67 146.5 -94t174.5 -3t151 90t78 159z" />
    <glyph glyph-name="summit" unicode="&#xfc84;" arabic-form="final" 
d="M781 1141h121l298 -121l-298 -118v-192l298 -651h-1200l360 482l209 -284l212 453v431z" />
    <glyph glyph-name="sword-cross" unicode="&#xfc85;" arabic-form="final" 
d="M273 1143l670 -671l120 119l79 -79l-138 -138l180 -179q16 -19 16 -41.5t-16 -38.5l-42 -42q-16 -16 -38.5 -16t-40.5 16l-180 180l-138 -140l-79 79l119 121l-671 672v158h159zM819 718l267 267v158h-159l-266 -267zM539 435l-158 161l-124 -124l-120 119l-79 -79
l138 -138l-180 -182q-16 -16 -16 -38.5t16 -40.5l42 -40q16 -16 38.5 -16t40.5 16l180 180l138 -140l79 79l-119 121z" />
    <glyph glyph-name="truck-fast" unicode="&#xfc86;" arabic-form="final" 
d="M140 523l-38 75h265l-31 76h-246l-38 76h393l-31 76h-369l-45 76h190q2 43 30 71q29 28 71 31h606v-204h151l152 -202v-252h-102q0 -64 -42.5 -107t-107.5 -43t-107.5 43t-45.5 107h-201q-2 -64 -45 -107t-107 -43t-106 43t-45 107h-101v177h-50zM946 270q33 2 54.5 23
t21.5 53t-21 53.5t-53 21.5t-53.5 -21.5t-21.5 -53.5t21 -53t52 -23zM1022 724h-125v-126h225zM442 270q33 2 54.5 23t21.5 53t-21 53.5t-54 21.5t-54.5 -21.5t-21.5 -53.5t21.5 -53t53.5 -23z" />
    <glyph glyph-name="yammer" unicode="&#xfc87;" arabic-form="final" 
d="M667 1018l-297 -758q0 -16 -58.5 -89t-207.5 -83q-29 0 -50 19t-21 48t20.5 48t50.5 19q76 6 107.5 41.5t31.5 44.5l26 67l-265 643q-9 29 2 54.5t38 35t52.5 0t35.5 -39.5l210 -509l197 509q13 29 37 39t50.5 0.5t38 -35t2.5 -54.5zM1004 989q-20 0 -37 -12.5t-140 -105
t-128 -120.5q28 -7 168 55.5t159 71.5q35 12 35 54q0 23 -16 40t-41 17zM1055 279q-10 16 -29 26t-160.5 70.5t-166.5 53.5q6 -28 128.5 -120.5t141.5 -102.5q28 -25 64 -6q22 13 28 35t-6 44zM1169 645q-16 13 -38 10t-173.5 -22t-172.5 -42q22 -19 174.5 -35t175.5 -16
q35 -7 57 29q12 20 6 42t-29 34z" />
    <glyph glyph-name="cast-off" unicode="&#xfc88;" arabic-form="final" 
d="M69 1150l-69 -77l60 -53q-19 -26 -22 -62v-154h104v142l778 -703h-214v-104h326l99 -89l69 77zM321 1061l113 -103h629v-569l104 -93v662q-3 45 -31.5 74t-72.5 29h-742zM38 703v-103q197 -5 327 -134.5t134 -326.5h104q-7 240 -165.5 398.5t-399.5 165.5zM38 497v-101
q111 -2 183 -75.5t75 -181.5h102q-5 154 -105.5 254.5t-254.5 103.5zM38 293v-154h154q0 65 -43 108.5t-111 45.5z" />
    <glyph glyph-name="help-box" unicode="&#xfc89;" arabic-form="final" 
d="M534 200h132v135h-132v-135zM600 1001q-112 -4 -187.5 -79t-78.5 -187h131q4 56 41 93.5t94 37.5t94 -37.5t41 -93.5q-13 -88 -100.5 -136.5t-100.5 -197.5h132q12 103 99.5 160.5t100.5 173.5q-3 112 -78.5 187t-187.5 79zM135 1200h930q57 0 96 -39t39 -95v-931
q0 -57 -39 -96t-96 -39h-930q-57 0 -96 39t-39 96v931q0 57 39 95.5t96 38.5z" />
    <glyph glyph-name="timer-sand-full" unicode="&#xfc8a;" arabic-form="final" 
d="M15 1575v-585l388 -390l-388 -388v-587h1170v587l-388 388l388 390v585h-1170z" />
    <glyph glyph-name="waves" unicode="&#xfc8b;" arabic-form="final" 
d="M0 269q98 48 198 83t202 38q99 -8 200 -60.5t200 -60.5q101 8 201.5 60t198.5 61v-180q-98 -8 -198 -60.5t-202 -61.5q-99 9 -200 61t-200 61q-101 -3 -201.5 -38.5t-198.5 -83.5v181zM0 629q98 48 198 83.5t202 38.5q99 -9 200 -61t200 -61q101 8 201.5 60.5t198.5 61.5
v-181q-98 -8 -198 -60t-202 -61q-99 9 -200 61t-200 60q-101 -3 -201.5 -38t-198.5 -83v180zM0 990q98 48 198 83.5t202 38.5q99 -9 200 -61.5t200 -60.5q101 8 201.5 60.5t198.5 61.5v-181q-98 -8 -198 -60.5t-202 -60.5q-99 8 -200 60t-200 61q-101 -3 -201.5 -38
t-198.5 -83v180z" />
    <glyph glyph-name="alarm-bell" unicode="&#xfc8c;" arabic-form="final" 
d="M781 200v-200h-600v200q140 -82 299.5 -82t300.5 82zM1200 1082q0 51 -33.5 84.5t-84.5 33.5q-28 0 -55 -12.5t-44 -37.5q-28 -42 -21 -89t49 -78q31 -22 71 -22h14q76 -206 24 -407.5t-218 -344.5q-31 -23 -62 -43v-107h62v76q140 105 219 257t79 329q0 136 -48 262
q48 37 48 99zM960 721q-6 -205 -141 -340.5t-340 -140.5q-203 6 -339.5 141t-139.5 340q3 203 139.5 340t339.5 139q205 -3 340 -139.5t141 -339.5z" />
    <glyph glyph-name="alarm-light" unicode="&#xfc8d;" arabic-form="final" 
d="M257 862l-121 121l81 81l121 -121zM656 1200v-171h-112v171h112zM1064 983l-121 -121l-81 81l121 121zM172 656v-115h-172v115h172zM1028 656h172v-115h-172v115zM257 113h686q48 0 80 -32t35 -81h-916q3 49 35 81t80 32zM600 970q145 -3 243 -99q97 -97 100 -244v-455
h-686v455q3 147 100.5 243.5t242.5 99.5z" />
    <glyph glyph-name="android-head" unicode="&#xfc8e;" arabic-form="final" 
d="M360 584q-34 -3 -55 -24t-21 -52t21.5 -52t53.5 -21t53.5 21t21.5 52t-21.5 52t-52.5 24zM840 584q-31 -3 -52.5 -24t-21.5 -52t21.5 -52t53.5 -21t53.5 21t21.5 52t-21 52t-55 24zM600 855q135 -3 251 -56l129 129q20 20 44 20t42.5 -18.5t18.5 -42.5t-20 -43l-107 -107
q113 -85 177.5 -210t64.5 -275h-1200q0 150 64.5 275t177.5 210l-107 107q-20 20 -20 43.5t18.5 42t42.5 18.5t44 -20l129 -129q116 53 251 56z" />
    <glyph glyph-name="approval" unicode="&#xfc8f;" arabic-form="final" 
d="M1200 600l-133 151l18 201l-197 44l-102 173l-186 -79l-186 79l-102 -173l-197 -44l18 -199l-133 -153l133 -151l-18 -201l197 -47l102 -170l186 79l186 -79l102 173l197 44l-18 201zM490 327l-216 219l76 77l140 -141l360 358l76 -77z" />
    <glyph glyph-name="arrow-collapse-down" unicode="&#xfc90;" arabic-form="final" 
d="M1076 595l-476 -477l-476 477l85 84l332 -330v851h118v-851l332 333zM600 118h-600v-118h1200v118h-600z" />
    <glyph glyph-name="arrow-collapse-left" unicode="&#xfc91;" arabic-form="final" 
d="M594 124l-476 476l476 476l85 -84l-330 -333h851v-118h-851l332 -332zM118 600v600h-118v-1200h118v600z" />
    <glyph glyph-name="arrow-collapse-right" unicode="&#xfc92;" arabic-form="final" 
d="M606 1076l476 -476l-476 -476l-85 85l330 332h-851v118h851l-330 333zM1082 600v-600h118v1200h-118v-600z" />
    <glyph glyph-name="arrow-collapse-up" unicode="&#xfc93;" arabic-form="final" 
d="M124 606l476 476l476 -476l-85 -84l-332 329v-851h-118v851l-332 -329zM600 1082h600v118h-1200v-118h600z" />
    <glyph glyph-name="arrow-expand-down" unicode="&#xfc94;" arabic-form="final" 
d="M1200 1082v118h-1200v-118h541v-853l-332 332l-85 -85l476 -476l476 476l-85 85l-332 -332v853h541z" />
    <glyph glyph-name="arrow-expand-left" unicode="&#xfc95;" arabic-form="final" 
d="M1082 0h118v1200h-118v-541h-854l333 333l-85 84l-476 -476l476 -476l85 85l-333 332h854v-541z" />
    <glyph glyph-name="arrow-expand-right" unicode="&#xfc96;" arabic-form="final" 
d="M118 1200h-118v-1200h118v541h854l-333 -332l85 -85l476 476l-476 476l-85 -84l333 -333h-854v541z" />
    <glyph glyph-name="arrow-expand-up" unicode="&#xfc97;" arabic-form="initial" 
d="M0 118v-118h1200v118h-541v854l332 -332l85 84l-476 476l-476 -476l85 -84l332 332v-854h-541z" />
    <glyph glyph-name="book-secure" unicode="&#xfc98;" arabic-form="initial" 
d="M1049 1347h-449v-522l-186 112l-190 -112v522h-73q-63 0 -105 -41.5t-46 -104.5v-1201q4 -64 46 -106q42 -41 105 -41h898q63 0 105 41.5t46 105.5v1201q-4 64 -46 105t-105 41zM1049 0h-600v302h77v74q0 95 63.5 157.5t160 62.5t159.5 -63t67 -157v-74h73v-302zM825 376
v-74h-151v74q3 31 24 52t52.5 21t53 -21t21.5 -52z" />
    <glyph glyph-name="book-unsecure" unicode="&#xfc99;" arabic-form="initial" 
d="M1049 1347h-449v-522l-186 112l-190 -112v522h-73q-63 0 -105 -41.5t-46 -104.5v-1201q4 -64 46 -106q42 -41 105 -41h898q63 0 105 41.5t46 105.5v1201q-4 64 -46 105t-105 41zM1049 0h-600v302h77v147q0 98 63.5 161.5t160 63.5t159.5 -63.5t67 -161.5h-151
q0 31 -21.5 52.5t-53 21.5t-52.5 -21t-24 -53v-147h375v-302z" />
    <glyph glyph-name="bus-articulated-end" unicode="&#xfc9a;" arabic-form="initial" 
d="M1200 977l-95 -95l95 -95l-95 -94l95 -95l-95 -95l95 -94h-567q-4 -80 -57 -133t-134 -53t-135 53q-53 54 -53 133h-254v441q3 55 38.5 91t88.5 36h1073zM1011 882h-222v-157h222v157zM695 882h-252v-157h252v157zM349 882h-254v-157h254v157zM443 503q-41 0 -67.5 -26
t-26.5 -67.5t26.5 -68t66.5 -26.5t66.5 26.5t26.5 68t-26.5 67.5t-65.5 26z" />
    <glyph glyph-name="bus-articulated-front" unicode="&#xfc9b;" arabic-form="initial" 
d="M0 925l82 -81l-82 -82l82 -82l-82 -82l82 -81l-82 -82h110q3 -69 48.5 -114.5t114.5 -45.5t115 45q46 47 48 115h328q2 -69 48 -114.5t115 -45.5t114 45q46 47 49 115h110v381q-3 48 -33.5 78.5t-76.5 30.5h-1090zM164 844h137v-136h-137v136zM383 844h217v-136h-217v136
zM682 844h217v-136h-217v136zM980 844h138v-299l-138 107v192zM274 517q35 0 58 -23t23 -59t-23 -58.5t-59 -22.5t-58.5 22.5t-22.5 58.5t23 59t59 23zM926 517q36 0 59 -23t23 -59t-22.5 -58.5t-58.5 -22.5t-59 22.5t-23 58.5t23 59t58 23z" />
    <glyph glyph-name="bus-double-decker" unicode="&#xfc9c;" arabic-form="initial" 
d="M110 1035q-46 -2 -76.5 -33t-33.5 -77v-600h110q3 -69 48.5 -114.5t114.5 -45.5t115 45.5t48 114.5h328q2 -69 48 -114.5t115 -45.5t114.5 45.5t48.5 114.5h110v163q-3 49 -33.5 79.5t-76.5 30.5h-110v136h220v191q-3 47 -33.5 77.5t-76.5 32.5h-980zM82 954h219v-138
h-219v138zM383 954h217v-138h-217v138zM682 954h217v-138h-217v138zM980 954h138v-138h-138v138zM682 734h217v-136h-217v136zM82 734h219v-136h-219v136zM383 734h217v-136h-217v136zM274 407q35 0 58 -23t23 -57.5t-23 -57.5t-59 -23t-58.5 23t-22.5 57.5t23 57.5t59 23z
M926 407q36 0 59 -23t23 -57.5t-22.5 -57.5t-58.5 -23t-59 23t-23 57.5t23 57.5t58 23z" />
    <glyph glyph-name="bus-school" unicode="&#xfc9d;" arabic-form="initial" 
d="M110 925q-46 0 -76.5 -30.5t-33.5 -78.5v-381h110q3 -69 48.5 -114.5t114.5 -45.5t115 45q46 47 48 115h328q2 -69 48 -114.5t115 -45.5t114 45q46 47 49 115h110v163q-3 47 -33.5 77.5t-76.5 32.5h-110v108q0 48 -30.5 78.5t-75.5 30.5h-764zM682 844h217v-136h-217v136
zM82 844h219v-136h-219v136zM383 844h217v-136h-217v136zM274 517q35 0 58 -23t23 -59t-23 -58.5t-59 -22.5t-58.5 22.5t-22.5 58.5t23 59t59 23zM926 517q36 0 59 -23t23 -59t-22.5 -58.5t-58.5 -22.5t-59 22.5t-23 58.5t23 59t58 23z" />
    <glyph glyph-name="bus-side" unicode="&#xfc9e;" arabic-form="initial" 
d="M110 925q-46 0 -76.5 -30.5t-33.5 -78.5v-381h110q3 -69 48.5 -114.5t114.5 -45.5t115 45q46 47 48 115h328q2 -69 48 -114.5t115 -45.5t114 45q46 47 49 115h110v381q-3 48 -33.5 78.5t-76.5 30.5h-980zM82 844h219v-136h-219v136zM383 844h217v-136h-217v136zM682 844
h217v-136h-217v136zM980 844h138v-299l-138 107v192zM274 517q35 0 58 -23t23 -59t-23 -58.5t-59 -22.5t-58.5 22.5t-22.5 58.5t23 59t59 23zM926 517q36 0 59 -23t23 -59t-22.5 -58.5t-58.5 -22.5t-59 22.5t-23 58.5t23 59t58 23z" />
    <glyph glyph-name="camera-gopro" unicode="&#xfc9f;" arabic-form="initial" 
d="M1082 1020h-301q-52 0 -85.5 -34t-36.5 -85v-301q3 -51 36.5 -85t85.5 -37h301q51 3 84.5 37t33.5 85v301q0 52 -33.5 85.5t-84.5 33.5zM930 569q-76 3 -127 53.5t-51 128t51 128.5t128 51t128 -51t51 -128.5t-50.5 -128t-129.5 -53.5zM930 659q-37 3 -62 28.5t-25 63
t25 63t63 25.5t63 -25.5t25 -63t-25 -63t-64 -28.5zM600 420v600h-482q-51 0 -84.5 -34t-33.5 -85v-602q0 -52 33.5 -85.5t84.5 -33.5h964q51 0 84.5 33.5t33.5 85.5v121h-600zM479 600h-361v301h361v-301z" />
    <glyph glyph-name="camera-metering-center" unicode="&#xfca0;" arabic-form="initial" 
d="M118 1082h964q51 -3 84.5 -37t33.5 -84v-722q0 -51 -33.5 -84.5t-84.5 -36.5h-964q-51 3 -84.5 36.5t-33.5 84.5v722q0 51 33.5 84.5t84.5 36.5zM118 961v-722h964v722h-964zM600 690q39 0 64.5 -25t25.5 -65t-25.5 -65.5t-64.5 -25.5t-64.5 25.5t-25.5 65.5t25.5 65
t64.5 25zM600 870q98 -3 170.5 -60.5t94.5 -150.5h-96q-20 53 -65 87t-104 34t-104 -33.5t-65 -87.5h-96q22 93 94.5 150.5t170.5 60.5zM600 330q-98 3 -170.5 60.5t-94.5 149.5h96q20 -53 65 -86.5t104 -33.5t104 33.5t65 86.5h96q-22 -93 -94.5 -150t-170.5 -60z" />
    <glyph glyph-name="camera-metering-matrix" unicode="&#xfca1;" arabic-form="initial" 
d="M118 1082h964q51 -3 84.5 -37t33.5 -84v-722q0 -51 -33.5 -84.5t-84.5 -36.5h-964q-51 3 -84.5 36.5t-33.5 84.5v722q0 51 33.5 84.5t84.5 36.5zM118 961v-722h964v722h-964zM209 870h332v-101q-39 -14 -67.5 -42t-42.5 -68h-222v211zM991 870v-211h-222
q-14 39 -42.5 67.5t-67.5 42.5v101h332zM991 330h-332v101q39 14 67.5 42t42.5 67h222v-210zM209 330v210h222q14 -39 42.5 -67t67.5 -42v-101h-332zM600 690q39 0 64.5 -25t25.5 -65t-25.5 -65.5t-64.5 -25.5t-64.5 25.5t-25.5 65.5t25.5 65t64.5 25z" />
    <glyph glyph-name="camera-metering-partial" unicode="&#xfca2;" arabic-form="initial" 
d="M118 1082h964q51 -3 84.5 -37t33.5 -84v-722q0 -51 -33.5 -84.5t-84.5 -36.5h-964q-51 3 -84.5 36.5t-33.5 84.5v722q0 51 33.5 84.5t84.5 36.5zM118 961v-722h964v722h-964zM600 870q98 -3 170.5 -60.5t94.5 -150.5h-96q-20 53 -65 87t-104 34t-104 -33.5t-65 -87.5h-96
q22 93 94.5 150.5t170.5 60.5zM600 330q-98 3 -170.5 60.5t-94.5 149.5h96q20 -53 65 -86.5t104 -33.5t104 33.5t65 86.5h96q-22 -93 -94.5 -150t-170.5 -60z" />
    <glyph glyph-name="camera-metering-spot" unicode="&#xfca3;" arabic-form="initial" 
d="M118 1082h964q51 -3 84.5 -37t33.5 -84v-722q0 -51 -33.5 -84.5t-84.5 -36.5h-964q-51 3 -84.5 36.5t-33.5 84.5v722q0 51 33.5 84.5t84.5 36.5zM118 961v-722h964v722h-964zM600 690q39 0 64.5 -25t25.5 -65t-25.5 -65.5t-64.5 -25.5t-64.5 25.5t-25.5 65.5t25.5 65
t64.5 25z" />
    <glyph glyph-name="cannabis" unicode="&#xfca4;" arabic-form="initial" 
d="M561 -147v347q-25 -46 -86 -95t-174 -91q0 7 34 75.5t110 139.5q-74 -18 -184 -6t-261 79q7 8 121 50t275 27q-91 49 -193 170t-189 342q14 4 187.5 -80.5t317.5 -294.5q-95 291 -17.5 552.5t98.5 278.5q130 -305 132 -511.5t-48 -315.5q140 207 314 291t188 80
q-87 -221 -189 -341.5t-193 -170.5q161 14 275.5 -28t120.5 -49q-151 -66 -261 -79t-184 6q77 -70 110.5 -139t33.5 -76q-113 42 -174 91.5t-86 94.5v-347h-78z" />
    <glyph glyph-name="car-convertible" unicode="&#xfca5;" arabic-form="initial" 
d="M817 925l-53 -40l135 -177h-217v82h-82v-82h-490q-46 -2 -76.5 -32.5t-33.5 -77.5v-163h110q3 -69 48.5 -114.5t114.5 -45.5t115 45q46 47 48 115h328q2 -69 48 -114.5t115 -45.5t114 45q46 47 49 115h110v163q-3 47 -33.5 77.5t-76.5 32.5h-110zM274 517q35 0 58 -23
t23 -59t-23 -58.5t-59 -22.5t-58.5 22.5t-22.5 58.5t23 59t59 23zM926 517q36 0 59 -23t23 -59t-22.5 -58.5t-58.5 -22.5t-59 22.5t-23 58.5t23 59t58 23z" />
    <glyph glyph-name="car-estate" unicode="&#xfca6;" arabic-form="initial" 
d="M110 925h707l163 -217h110q46 -2 76.5 -32.5t33.5 -77.5v-163h-110q-3 -69 -48.5 -114.5t-114.5 -45.5t-115 45q-46 47 -48 115h-328q-2 -69 -48 -114.5t-115 -45.5t-114 45q-46 47 -49 115h-110v381q3 48 33.5 78.5t76.5 30.5zM82 844v-136h436v136h-436zM600 844v-136
h281l-105 136h-176zM274 517q-36 0 -59 -23t-23 -59t22.5 -58.5t58.5 -22.5t59 22.5t23 58.5t-23 59t-58 23zM926 517q-35 0 -58 -23t-23 -59t23 -58.5t59 -22.5t58.5 22.5t22.5 58.5t-23 59t-59 23z" />
    <glyph glyph-name="car-hatchback" unicode="&#xfca7;" arabic-form="initial" 
d="M817 925h-543l-274 -327v-163h110q3 -69 48.5 -114.5t114.5 -45.5t115 45q46 47 48 115h328q2 -69 48 -114.5t115 -45.5t114 45q46 47 49 115h110v163q-3 47 -33.5 77.5t-76.5 32.5h-110zM301 844h217v-136h-326zM600 844h192l104 -136h-296v136zM274 517q35 0 58 -23
t23 -59t-23 -58.5t-59 -22.5t-58.5 22.5t-22.5 58.5t23 59t59 23zM926 517q36 0 59 -23t23 -59t-22.5 -58.5t-58.5 -22.5t-59 22.5t-23 58.5t23 59t58 23z" />
    <glyph glyph-name="car-pickup" unicode="&#xfca8;" arabic-form="initial" 
d="M817 925h-299v-217h-518v-273h110q3 -69 48.5 -114.5t114.5 -45.5t115 45q46 47 48 115h328q2 -69 48 -114.5t115 -45.5t114 45q46 47 49 115h110v163q-3 47 -33.5 77.5t-76.5 32.5h-110zM600 844h192l104 -136h-296v136zM274 517q35 0 58 -23t23 -59t-23 -58.5
t-59 -22.5t-58.5 22.5t-22.5 58.5t23 59t59 23zM926 517q36 0 59 -23t23 -59t-22.5 -58.5t-58.5 -22.5t-59 22.5t-23 58.5t23 59t58 23z" />
    <glyph glyph-name="car-side" unicode="&#xfca9;" arabic-form="initial" 
d="M817 925l163 -217h110q46 -2 76.5 -32.5t33.5 -77.5v-163h-110q-3 -69 -48.5 -114.5t-114.5 -45.5t-115 45q-46 47 -48 115h-328q-2 -69 -48 -114.5t-115 -45.5t-114 45q-46 47 -49 115h-110v163q3 47 33.5 77.5t76.5 32.5l164 217h543zM518 844h-204l-102 -136h306v136z
M600 844v-136h281l-105 136h-176zM274 517q-36 0 -59 -23t-23 -59t22.5 -58.5t58.5 -22.5t59 22.5t23 58.5t-23 59t-58 23zM926 517q-35 0 -58 -23t-23 -59t23 -58.5t59 -22.5t58.5 22.5t22.5 58.5t-23 59t-59 23z" />
    <glyph glyph-name="car-sports" unicode="&#xfcaa;" arabic-form="initial" 
d="M600 859h-274l-162 -138h-54q-46 0 -76.5 -30.5t-33.5 -76.5v-163h120q18 -51 59 -80.5t94 -29.5t94 29t59 81h348q18 -51 59 -80.5t94 -29.5t94 29t59 81h120v53q-3 44 -36 67t-74 43zM233 667l122 110h217l220 -110h-559zM274 586q35 0 58 -23t23 -59t-23 -58.5
t-59 -22.5t-58.5 22.5t-22.5 58.5t23 59t59 23zM926 586q36 0 59 -23t23 -59t-22.5 -58.5t-58.5 -22.5t-59 22.5t-23 58.5t23 59t58 23z" />
    <glyph glyph-name="caravan" unicode="&#xfcab;" arabic-form="initial" 
d="M118 1081q-51 -3 -84.5 -37.5t-33.5 -84.5v-662h118q3 -76 54 -127t128 -51t128 51t51 127h721v121h-181v541q0 51 -33.5 85t-83.5 37h-784zM181 779h238v-181h-238v181zM600 779h240v-361h-240v361zM298 359q25 -3 42 -20t17 -42.5t-16.5 -42t-42 -16.5t-42 16.5
t-16.5 42t16.5 42.5t41.5 20z" />
    <glyph glyph-name="cctv" unicode="&#xfcac;" arabic-form="initial" 
d="M969 1053q-34 3 -67 -17l-522 -301q-42 -25 -54.5 -71.5t12.5 -91.5l90 -155q26 -45 72.5 -58t91.5 13l106 61q26 -42 71 -61v-107q0 -51 34 -83.5t87 -35.5h310v119h-310v107q39 20 63 56t25.5 79t-20.5 76l152 90q45 25 58 71.5t-13 92.5l-90 155q-34 55 -96 61z
M254 558l-254 -43l209 -363l163 197z" />
    <glyph glyph-name="chart-donut" unicode="&#xfcad;" arabic-form="initial" 
d="M659 1199v-181q158 -25 258 -139t102 -278q0 -81 -28 -152l159 -93q51 113 50 245q-6 240 -156.5 405t-384.5 193zM600 182q-181 3 -299 121t-120 298q2 164 102 278t258 139v181q-234 -28 -385 -193t-156 -405q6 -257 174.5 -425.5t425.5 -174.5q149 0 274.5 66.5
t210.5 178.5l-158 93q-56 -76 -141 -116.5t-186 -40.5z" />
    <glyph glyph-name="chart-donut-variant" unicode="&#xfcae;" arabic-form="initial" 
d="M659 1199q234 -28 385 -193t156 -405q0 -132 -50 -245l-159 93q28 71 28 152q-2 164 -102 278t-258 139v181zM600 182q101 0 186 40.5t141 116.5l158 -93q-85 -112 -210.5 -178.5t-274.5 -66.5q-257 6 -426 176t-174 424q6 240 156.5 405t384.5 193v-181
q-158 -25 -258 -139t-102 -278q2 -180 120 -298t299 -121zM600 962q152 -3 255 -106q102 -102 105 -255q-3 -138 -85.5 -235t-215.5 -120v186q53 20 87.5 65t34.5 104q-3 76 -54 127t-127 54l-34 -3l-93 160q60 23 127 23zM240 601q0 84 35 155t97 124l90 -161
q-43 -51 -43 -118q0 -59 34.5 -104t87.5 -65v-186q-133 22 -215.5 119.5t-85.5 235.5z" />
    <glyph glyph-name="chart-line-variant" unicode="&#xfcaf;" arabic-form="initial" 
d="M90 208l361 361l239 -239l510 574l-84 88l-426 -483l-239 240l-451 -450z" />
    <glyph glyph-name="chili-hot" unicode="&#xfcb0;" arabic-form="initial" 
d="M1031 817l89 56q35 -18 57.5 -53t22.5 -77v-881q-39 -14 -300 149t-300 655v77q0 39 19.5 74t54.5 52l108 -52l117 73zM751 1339q88 0 149 -55.5t76 -140.5q56 -18 98 -56.5t67 -91.5l-110 -66l-132 74l-117 -74l-126 63q49 109 165 151q-21 46 -70 50v146zM449 743
q14 -435 160 -612.5t290 -268.5q-35 -14 -299 149t-299 655v77q0 39 19.5 74t50.5 52l103 -49q-25 -35 -25 -77zM484 929l-126 63q48 109 161 151q-18 46 -70 50v146q91 0 151 -55v-91q53 -4 70 -50q-56 -18 -101.5 -66.5t-84.5 -147.5zM151 743q10 -435 157.5 -612.5
t291.5 -268.5q-39 -14 -300 149t-300 655v77q0 39 20.5 74t53.5 52l97 -49q-20 -35 -20 -77zM182 929l-123 63q46 109 162 151q-16 46 -70 50v146q88 0 150 -55v-91q49 -4 70 -50q-56 -18 -101 -66.5t-88 -147.5z" />
    <glyph glyph-name="chili-medium" unicode="&#xfcb1;" arabic-form="initial" 
d="M971 886l120 74q46 -23 73.5 -69.5t27.5 -101.5v-1163q-51 -18 -395.5 197.5t-395.5 862.5v103q0 51 28 97t69 69l143 -69l158 97zM600 1575q115 0 196.5 -73.5t100.5 -185.5q74 -23 131.5 -74t85.5 -120l-143 -88l-172 97l-158 -97l-161 83q60 143 212 199
q-23 61 -92 66v193zM206 789q14 -574 206.5 -808t386.5 -355q-51 -18 -396 197q-344 216 -395 863v103q0 51 25 97t71 69l130 -64q-28 -47 -28 -102zM249 1034l-168 83q64 143 218 199q-28 61 -93 66v193q116 0 195 -73v-120q69 -5 92 -66q-69 -23 -131 -87.5t-113 -194.5z
" />
    <glyph glyph-name="chili-mild" unicode="&#xfcb2;" arabic-form="initial" 
d="M771 886l121 74q46 -23 74 -69.5t28 -101.5v-1163q-46 -18 -394 197.5t-394 862.5v103q0 51 25.5 97t67.5 69l148 -69l153 97zM401 1575q115 0 199 -73.5t97 -185.5q74 -23 132 -74t91 -120l-149 -88l-171 97l-153 -97l-167 83q65 143 213 199q-23 61 -92 66v193z" />
    <glyph glyph-name="cloud-braces" unicode="&#xfcb3;" arabic-form="initial" 
d="M300 199q-126 5 -212 89.5t-88 210.5q2 119 77.5 201t189.5 97q49 91 136 146t197 58q138 -3 239 -86t129 -214q98 -10 164 -80t68 -171q-2 -105 -72.5 -176.5t-178.5 -74.5h-649zM926 600h-26q-21 0 -35 14t-14 35v52q-2 42 -30.5 70t-70.5 28h-75v-98h75v-52
q0 -43 29.5 -71t71.5 -28q-42 -2 -71.5 -30t-29.5 -70v-49h-75v-101h75q43 0 71 29t30 72v49q0 21 14 35t35 14h26v101zM274 600v-101h26q21 0 35 -14t14 -35v-49q2 -43 30.5 -72t70.5 -29h75v101h-75v49q0 43 -29.5 70.5t-71.5 29.5q42 0 71.5 28.5t29.5 70.5v52h75v98h-75
q-43 0 -71 -28t-30 -70v-52q0 -21 -14 -35t-35 -14h-26z" />
    <glyph glyph-name="cloud-tags" unicode="&#xfcb4;" arabic-form="initial" 
d="M300 199q-126 5 -212 89.5t-88 210.5q2 119 77.5 201t189.5 97q49 91 136 146t197 58q138 -3 239 -86t129 -214q98 -10 164 -80t68 -171q-2 -105 -72.5 -176.5t-178.5 -74.5h-649zM455 781l-230 -231l230 -229l70 70l-159 159l159 160zM745 781l-70 -71l159 -160
l-159 -159l70 -70l230 229z" />
    <glyph glyph-name="console-line" unicode="&#xfcb5;" arabic-form="initial" 
d="M681 211v195h519v-195h-519zM389 600l-389 389h274l321 -322q27 -31 27.5 -70.5t-27.5 -66.5l-319 -319h-276z" />
    <glyph glyph-name="corn" unicode="&#xfcb6;" arabic-form="initial" 
d="M541 600h-133q74 -45 133 -101v101zM298 659q17 237 99 388t203 153q121 -3 204 -156t98 -390q135 65 298 67q-228 -146 -288.5 -418t-311.5 -303q-240 31 -301.5 303t-298.5 418q163 -3 298 -62zM541 659v122h-167l-14 -122h181zM541 840v121h-119q-22 -53 -36 -121h155
zM541 1020v105q-51 -32 -90 -105h90zM600 1141v-121h59v-59h-59v-121h121v-59h-121v-122h181v-59h-181v-121h121v-59h-107q53 -65 85.5 -131t38.5 -123q48 77 75 192t27 256q-6 220 -74 370.5t-166 156.5z" />
    <glyph glyph-name="currency-chf" unicode="&#xfcb7;" arabic-form="initial" 
d="M181 1432h1019v-185h-832v-556h742v-182h-742v-277h186v-186h-186v-278h-187v278h-181v186h181v1200z" />
    <glyph glyph-name="currency-cny" unicode="&#xfcb8;" arabic-form="initial" 
d="M505 -265v483h-481v188h481v32l-81 162h-400v194h305l-329 671h217l383 -788l383 788h217l-329 -671h305v-194h-400l-81 -162v-32h481v-188h-481v-483h-190z" />
    <glyph glyph-name="currency-eth" unicode="&#xfcb9;" arabic-form="initial" 
d="M600 1575l-593 -997l593 -356l593 356zM7 457l593 -832l593 832l-593 -355z" />
    <glyph glyph-name="currency-jpy" unicode="&#xfcba;" arabic-form="initial" 
d="M505 -265v483h-481v188h481v32l-81 162h-400v194h305l-329 671h217l383 -788l383 788h217l-329 -671h305v-194h-400l-81 -162v-32h481v-188h-481v-483h-190z" />
    <glyph glyph-name="currency-krw" unicode="&#xfcbb;" arabic-form="initial" 
d="M0 1141h118l82 -360h239l82 360h158l82 -360h239l82 360h118l-78 -360h78v-122h-107l-25 -118h132v-121h-161l-79 -361h-160l-79 361h-242l-79 -361h-160l-79 361h-161v121h132l-25 118h-107v122h78zM667 659h-134l-26 -118h186zM318 240l42 180h-81zM414 659h-189
l29 -118h132zM882 240l39 180h-81zM975 659h-189l28 -118h132zM600 961l-39 -180h78z" />
    <glyph glyph-name="currency-sign" unicode="&#xfcbc;" arabic-form="initial" 
d="M1194 599q0 94 -30.5 185t-86.5 169l117 117l-122 129l-117 -121q-165 115 -355 115t-355 -117l-117 117l-128 -123l120 -117q-114 -165 -114 -354.5t117 -353.5l-117 -118l125 -126l120 118q162 -115 353.5 -115t352.5 115l120 -118l123 126l-117 118q55 78 83 168.5
t28 185.5zM600 183q-179 3 -296 120.5t-119 295.5q3 178 119.5 295.5t295.5 120.5q179 -3 296 -120.5t119 -295.5q-3 -179 -119.5 -296t-295.5 -120z" />
    <glyph glyph-name="currency-twd" unicode="&#xfcbd;" arabic-form="initial" 
d="M0 666h1200v-132h-400v-399h400v-135h-400q-56 0 -93.5 39t-40.5 96v399h-175l-310 -534l-115 66l271 468h-337v132zM135 1200h930v-134h-930v134z" />
    <glyph glyph-name="desktop-classic" unicode="&#xfcbe;" arabic-form="initial" 
d="M240 1200q-51 0 -85 -33.5t-37 -84.5v-482q3 -51 37 -85q34 -33 85 -36h720q51 3 85 37t37 84v482q-3 51 -37 85q-34 33 -85 33h-720zM240 1082h720v-482h-720v482zM118 420q-51 0 -84.5 -34t-33.5 -87v-181q0 -51 33.5 -84.5t84.5 -33.5h964q51 0 84.5 33.5t33.5 84.5
v181q0 53 -33.5 87t-84.5 34h-964zM360 299h722v-181h-722v181zM419 254v-90h240v90h-240zM781 254v-90h238v90h-238z" />
    <glyph glyph-name="dip-switch" unicode="&#xfcbf;" arabic-form="initial" 
d="M59 1082h239q25 -3 42 -20t20 -42v-840q-3 -25 -19.5 -42t-42.5 -20h-239q-25 3 -42 19.5t-17 42.5v840q0 25 17 42t42 20zM479 1082h242q25 -3 42.5 -20t17.5 -42v-840q0 -25 -17.5 -42t-42.5 -20h-242q-25 3 -42.5 19.5t-17.5 42.5v840q0 25 17.5 42t42.5 20zM902 1082
h239q25 -3 42 -20t17 -42v-840q0 -25 -16.5 -42t-42.5 -20h-239q-25 3 -42 19.5t-20 42.5v840q3 25 20 42t42 20zM118 239h122v301h-122v-301zM541 659h118v302h-118v-302zM960 239h122v301h-122v-301z" />
    <glyph glyph-name="donkey" unicode="&#xfcc0;" arabic-form="initial" 
d="M1185 718l-3 5l-206 206v62q-3 29 -31 32q-12 0 -24 -12l-230 -208h-406q-68 -3 -105 -59l-168 -168q-15 -20 -11.5 -45.5t26.5 -42.5q35 -23 71 0l65 59v-370h187v250h312v-250h188v323q3 53 38 88l88 88l127 -62q14 -8 29 -8q29 3 48.5 22t19.5 45.5t-15 44.5z" />
    <glyph glyph-name="dots-horizontal-circle" unicode="&#xfcc1;" arabic-form="initial" 
d="M600 1200q257 -6 426 -174.5t174 -425.5q-6 -257 -174.5 -425.5t-425.5 -174.5q-257 6 -426 175t-174 425q6 257 174.5 425.5t425.5 174.5zM600 690q-39 0 -64.5 -25t-25.5 -64.5t25.5 -65t64.5 -25.5t64.5 25.5t25.5 65t-25.5 64.5t-64.5 25zM270 690q-39 0 -64 -25
t-25 -64.5t25 -65t63 -25.5t63 25.5t25 65t-25 64.5t-62 25zM930 690q-37 0 -62 -25t-25 -64.5t25 -65t63 -25.5t63 25.5t25 65t-25 64.5t-64 25z" />
    <glyph glyph-name="dots-vertical-circle" unicode="&#xfcc2;" arabic-form="initial" 
d="M0 600q6 257 174.5 426t425.5 174q257 -6 426 -174.5t174 -425.5q-6 -257 -174.5 -425.5t-425.5 -174.5q-257 6 -425.5 174.5t-174.5 425.5zM510 600q0 -39 25.5 -64.5t64.5 -25.5t64.5 25.5t25.5 65t-25.5 64.5t-64.5 25t-64.5 -25.5t-25.5 -64.5zM510 271
q0 -39 25.5 -64.5t64.5 -25.5t64.5 25t25.5 63t-25.5 63.5t-64.5 25.5t-64.5 -25t-25.5 -62zM510 930q0 -37 25.5 -62t64.5 -25t64.5 25t25.5 63t-25.5 63.5t-64.5 25.5t-64.5 -25.5t-25.5 -64.5z" />
    <glyph glyph-name="ear-hearing" unicode="&#xfcc3;" arabic-form="initial" 
d="M935 39q-31 0 -53 12q-35 16 -61.5 50.5t-53.5 109.5t-68.5 119t-89.5 78q-41 31 -79.5 68.5t-76.5 100.5q-53 100 -53 197q3 143 97 237t237.5 94t236 -94t94.5 -237h135q-3 200 -134 331.5t-331 133.5q-204 -3 -333.5 -134t-136.5 -331q3 -132 72 -260
q47 -81 97 -129.5t92.5 -79.5t70.5 -61t44 -77q31 -90 73 -146.5t111 -90.5q50 -22 110 -22q112 3 187 78t78 188h-135q0 -57 -36.5 -94.5t-93.5 -40.5zM309 1199l-93 93q-100 -100 -158 -232.5t-58 -286t58 -286t158 -232.5l93 93q-84 82 -129 191.5t-45 234t46.5 234.5
t127.5 191zM566 774q3 -73 49.5 -119.5t117.5 -46.5t117.5 46.5t46.5 119t-46.5 119t-117.5 46.5t-117.5 -46.5t-49.5 -118.5z" />
    <glyph glyph-name="elephant" unicode="&#xfcc4;" arabic-form="initial" 
d="M1051 389q-3 -25 -30 -25.5t-30 25.5v422q-6 88 -77 148.5t-165 60.5h-509q-102 -3 -169.5 -70.5t-70.5 -169.5v-600h240v240h301v-240h240v270q2 25 29 25.5t30 -25.5v-89q3 -79 53.5 -130t128 -51t128 51t50.5 130v117h-149v-89z" />
    <glyph glyph-name="eventbrite" unicode="&#xfcc5;" arabic-form="initial" 
d="M1200 948q0 62 -35 109.5t-92 69.5q-93 17 -462 44t-439 30q-80 -9 -130 -71q-42 -53 -42 -121v-811q0 -48 19.5 -90t58.5 -70q51 -40 116 -38.5t400 29.5l417 34q77 6 133 57.5t56 127.5v700zM938 871q-6 -11 -11 -25q-14 -37 -54 -34h-169q-107 0 -146 3q-14 0 -17 -14
q-11 -62 -25 -127h230h20q26 -6 36 -17t7 -38t-18.5 -52.5t-46.5 -25.5h-245q-11 3 -14 -11l-29 -135v-8h322q37 3 50 -34q8 -31 -5.5 -59.5t-41.5 -45.5q-15 -3 -32 -5l-394 -6q-31 -3 -57 14q-28 26 -22 63q11 53 56 271t62 297q3 37 31.5 60t64.5 20l203 -3l192 -6
q70 -2 53 -82z" />
    <glyph glyph-name="food-croissant" unicode="&#xfcc6;" arabic-form="initial" 
d="M1200 210l-181 118l181 121v-239zM781 449l238 361l181 -240l-240 -180zM181 328l-181 -118v239zM419 449l-179 -59l-240 180l181 240zM721 990l239 -121l-301 -420h-118l-301 420l239 121h242z" />
    <glyph glyph-name="forklift" unicode="&#xfcc7;" arabic-form="initial" 
d="M240 1081v-424h-122q-51 0 -84.5 -33.5t-33.5 -84.5v-242q0 -76 50.5 -127t128 -51t128 51t53.5 127h119q3 -76 53.5 -127t128 -51t128.5 51t51 127v242l-240 542h-360zM902 1018v-839h298v90h-209v749h-89zM329 990h223l197 -451h-420v451zM181 387q37 0 62 -25.5
t25 -63.5t-25.5 -63t-63.5 -25t-63.5 25t-25.5 63t25.5 63.5t65.5 25.5zM659 387q39 0 64.5 -25.5t25.5 -63.5t-25.5 -63t-63.5 -25t-63 25t-25 63t25 63.5t62 25.5z" />
    <glyph glyph-name="fuel" unicode="&#xfcc8;" arabic-form="initial" 
d="M0 1269h212q29 0 49 -19l149 -146l56 53q44 43 99 43h424q53 0 99 -43l69 -69q44 -46 43 -99v-916q-3 -60 -43 -101t-99 -41h-705q-60 0 -100.5 41t-40.5 101v774q0 56 42 99l53 56l-126 129h-181v138zM565 1058v-138h424v138h-424zM591 635l-138 142h-100v-99l139 -142
v-225l-139 -139v-99h100l138 139h225l143 -139h99v99l-142 139v225l142 142v99h-99l-143 -142h-225zM635 496h142v-142h-142v142z" />
    <glyph glyph-name="gesture" unicode="&#xfcc9;" arabic-form="initial" 
d="M115 938q34 37 65 62t46 18q25 -12 12.5 -43t-32.5 -59t-99 -158t-88 -257q0 -131 90 -198q38 -28 82.5 -36t90.5 7q53 16 101 64t101 119q61 78 134.5 149t135.5 78q77 -3 96 -40.5t19 -77.5q-184 -41 -269 -152t-83.5 -201t60.5 -147.5t149 -60.5t187.5 85t125.5 321
h161v165h-164q-4 89 -62.5 179t-204.5 97q-111 -4 -198 -69t-127 -118q-31 -41 -84 -102l-69 -78q-12 -15 -32 -35t-42 -20t-31 35.5t9.5 92.5t57 125.5t64.5 106.5q40 56 63 103.5t23 112.5q-7 105 -62 148.5t-105 40.5q-65 -3 -114.5 -33.5t-65.5 -49.5q-34 -34 -56 -63z
M729 166q-16 0 -31.5 12.5t-18.5 37.5q0 34 43.5 91.5t146.5 91.5q-16 -134 -59.5 -183.5t-80.5 -49.5z" />
    <glyph glyph-name="google-analytics" unicode="&#xfcca;" arabic-form="initial" 
d="M1065 1200q57 0 96 -39t39 -95v-931q0 -57 -39 -96t-96 -39h-265v1066q0 57 39 95.5t96 38.5h130zM135 0q-57 0 -96 39t-39 96v131q0 57 39 96t96 39h265v265q0 56 39 95t95 39h232v-800h-631z" />
    <glyph glyph-name="google-assistant" unicode="&#xfccb;" arabic-form="initial" 
d="M360 1170q153 -3 254 -105t107 -255q-6 -152 -107 -255q-101 -102 -254 -105q-154 3 -255.5 105.5t-104.5 254.5q3 153 104.5 255t255.5 105zM1141 869q25 0 42 -17t17 -42t-16.5 -42t-42 -17t-42.5 17t-17 42t17 42t42 17zM930 751q65 -3 107 -45t42 -105.5t-42.5 -106
t-105.5 -42.5t-105.5 42.5t-42.5 106t42.5 105.5t104.5 45zM930 391q79 -3 129.5 -54t50.5 -128.5t-51 -128t-128 -50.5t-128 50.5t-51 128t51 128.5t127 54z" />
    <glyph glyph-name="headphones-off" unicode="&#xfccc;" arabic-form="initial" 
d="M554 1262q-237 -6 -393 -163t-161 -391v-432q0 -58 32 -102l337 338v72h-245v124q3 182 124 303t306 127q92 0 171.5 -34.5t139.5 -98.5l87 90q-78 78 -179 121t-219 46zM1122 1107l-1090 -1091l77 -78l153 153h107v107l370 369v-476h184q78 3 130 55t55 130v432
q0 101 -35 194l127 127zM975 804q8 -46 8 -96v-124h-227z" />
    <glyph glyph-name="high-definition" unicode="&#xfccd;" arabic-form="initial" 
d="M0 1031h168v-347h174v347h173v-862h-173v346h-174v-346h-168v862zM685 1031h258q113 -4 185 -76.5t72 -181.5v-347q0 -109 -72.5 -181t-184.5 -76h-258v862zM943 342q36 0 60.5 24t28.5 60v347q-4 36 -28.5 60.5t-60.5 24.5h-85v-516h85z" />
    <glyph glyph-name="home-assistant" unicode="&#xfcce;" arabic-form="initial" 
d="M1155 525h-102v-454h-399v188l160 160l40 -8q51 0 84 35t33 85t-33 83t-84 33t-84 -33t-36 -83l6 -40l-86 -88v312q30 16 47 43.5t17 62.5q-3 50 -36 83.5t-83.5 33.5t-84 -33.5t-35.5 -83.5q0 -35 17 -62.5t47 -43.5v-312l-85 88l5 40q-3 50 -36 83t-83.5 33t-84 -33
t-33.5 -83t33.5 -85t83.5 -35l40 8l160 -160v-188h-399v454h-99q-18 0 -31.5 1.5t-13.5 11t13.5 25t34.5 34.5l495 495q13 16 27.5 26.5t28 10.5t28.5 -10q14 -12 27 -27l230 -226v56h111v-170l160 -158l32 -34q13 -16 13 -24t-13.5 -9.5t-31.5 -1.5zM343 581q21 0 36 -14.5
t15 -36t-14.5 -35.5t-36 -14t-36 14t-14.5 35.5t14.5 36t35.5 14.5zM854 581q21 0 36 -14.5t15 -36t-15 -35.5t-36 -14t-36 14t-15 35.5t15 36t36 14.5zM599 871q21 0 35.5 -14.5t14.5 -37t-14.5 -36t-35.5 -13.5t-36 13.5t-15 36t15 37t36 14.5z" />
    <glyph glyph-name="home-automation" unicode="&#xfccf;" arabic-form="initial" 
d="M600 1111l-600 -541h181v-481h838v481h181zM600 782q107 -3 199 -41q90 -38 161 -105l-73 -74q-53 56 -128 87.5t-159 31.5t-159 -31.5t-128 -87.5l-73 74q70 67 161.5 105t198.5 41zM600 582q65 -3 120 -25.5t97 -64.5l-73 -71q-57 56 -144 56.5t-144 -56.5l-73 71
q42 42 97 64.5t120 25.5zM600 379q42 0 71.5 -28t29.5 -70.5t-29.5 -70.5t-71.5 -28t-71.5 28t-29.5 70.5t29.5 70.5t71.5 28z" />
    <glyph glyph-name="home-circle" unicode="&#xfcd0;" arabic-form="initial" 
d="M1023 1023q-84 87 -193 132t-230 45t-230 -45t-194.5 -130.5t-130.5 -194.5t-45 -230t45 -230t130.5 -194.5t194.5 -130.5t230 -45t230 45t194.5 130.5t130.5 194.5t45 230t-45 230t-132 193zM900 600v-359h-210v300h-180v-300h-210v359h-117l417 418l448 -418h-148z" />
    <glyph glyph-name="language-go" unicode="&#xfcd1;" arabic-form="initial" 
d="M700 1224q28 0 47.5 -17.5t19.5 -45.5t-19 -47.5t-47.5 -19.5t-45.5 19.5t-17 47.5t17 45.5t45 17.5zM329 1206q28 0 45.5 -19t17.5 -47t-17.5 -45.5t-45.5 -17.5t-47.5 17.5t-19.5 45.5t20 47t47 19zM1029 1335q46 0 78 -31t32 -76.5t-25 -75.5t-67 -40l-7 -11
q53 -165 51 -313.5t-6 -159.5q46 -28 85 -56t28 -56q-22 -25 -63.5 -14.5t-45.5 14.5q14 -382 -36.5 -486.5t-60.5 -94.5q7 -4 32.5 -51.5t4.5 -78.5q-35 -21 -80.5 14t-51.5 42q-8 -4 -118 -37t-219 -36q-101 3 -178 36t-81 37q-46 -42 -89 -62q-43 -19 -61 6
q-7 31 22.5 78.5t32.5 51.5q-116 87 -110.5 327t16.5 271q-17 -17 -55.5 -36.5t-56.5 19.5q-3 42 51 66.5t61 24.5q-21 203 -16 320.5t19 169.5q-38 7 -60.5 37t-22.5 75.5t31.5 77t76.5 31.5q28 0 52 -10q64 46 167 73.5t230 30.5q118 -3 216 -27.5t165 -66.5q24 17 59 17z
M767 1318q-63 0 -105 -44t-42 -107t42 -104.5t105 -41.5t105 41.5t42 104.5t-41.5 107t-105.5 44zM392 1300q-63 -3 -105 -45t-42 -105t42 -105t105 -42t107 42t44 105t-44 105t-107 45zM589 943q-35 0 -58 -10.5t-23 -28t35 -27.5v-46q0 -17 17 -17h56q18 0 22 17v46
q34 10 34 27.5t-22.5 28t-60.5 10.5z" />
    <glyph glyph-name="language-r" unicode="&#xfcd2;" arabic-form="initial" 
d="M600 1062q-254 -3 -424.5 -117t-175.5 -286q3 -150 141 -258t352 -137v-126h205v126q77 9 145 29l84 -155h231l-141 234q88 56 135.5 129t47.5 158q-6 171 -176 285.5t-424 117.5zM693 907q192 0 313 -67.5t124 -208.5q0 -79 -38 -132.5t-106 -87.5q-8 3 -14 9
q-17 8 -37 14l-19 5q11 -3 88.5 29.5t88.5 162.5q-11 129 -93 158.5t-93 24.5h-414v-431q-116 34 -186 98.5t-70 149.5q3 115 132.5 194t323.5 82zM701 668h125q3 0 28 -7t28 -50q-3 -42 -28.5 -52t-27.5 -7h-125v116zM698 403h57q14 0 25.5 -11.5t22.5 -28.5
q-48 -8 -105 -8v48z" />
    <glyph glyph-name="lava-lamp" unicode="&#xfcd3;" arabic-form="initial" 
d="M381 1575l-213 -1406h864l-213 1406h-438zM544 1276q36 0 58.5 -22.5t22.5 -56t-22.5 -56t-56 -22.5t-56 22.5t-22.5 56t22.5 56t53.5 22.5zM656 981q45 -5 76 -35.5t31 -76t-31 -76t-76 -30.5t-76 30.5t-31 76t31 76t76 35.5zM544 600q71 0 117 -45.5t46 -116.5
t-46 -116.5t-114 -45.5t-114 45.5t-46 116.5t45 116.5t112 45.5zM168 57l213 -213l-213 -219h864l-213 219l213 213h-864z" />
    <glyph glyph-name="led-strip" unicode="&#xfcd4;" arabic-form="initial" 
d="M0 833l784 -788l48 46l93 -91l92 91l-92 92l92 92l91 -92l92 92l-92 92l46 49l-786 784zM183 833l185 183l603 -600l-187 -187zM275 833l93 -95l94 95l-94 92zM416 692l92 -92l92 92l-92 92zM554 554l92 -92l92 92l-92 91zM692 416l92 -92l92 92l-92 92z" />
    <glyph glyph-name="locker" unicode="&#xfcd5;" arabic-form="initial" 
d="M210 1575h780q82 0 138.5 -54.5t56.5 -136.5v-1567q0 -83 -57 -137.5t-138 -54.5h-780q-82 0 -138.5 54.5t-56.5 137.5v1567q0 83 56.5 137t138.5 54zM210 1384v-1567h780v1567h-780zM403 504h197v-393h-197v393zM403 1187h394v-147h-394v147zM403 893h394v-146h-394v146
z" />
    <glyph glyph-name="locker-multiple" unicode="&#xfcd6;" arabic-form="initial" 
d="M110 1144h980q46 0 76.5 -30.5t33.5 -76.5v-873q-3 -47 -33.5 -77.5t-76.5 -30.5h-980q-46 0 -76.5 30.5t-33.5 77.5v873q3 46 33.5 76.5t76.5 30.5zM654 1037v-873h436v873h-436zM110 1037v-873h436v873h-436zM220 546h106v-219h-106v219zM220 927h216v-82h-216v82z
M220 764h216v-82h-216v82zM764 546h110v-219h-110v219zM764 927h216v-82h-216v82zM764 764h216v-82h-216v82z" />
    <glyph glyph-name="map-marker-outline" unicode="&#xfcd7;" arabic-form="initial" 
d="M600 1072q93 0 153.5 -60.5t60.5 -153.5t-60.5 -153.5t-153.5 -60.5t-153.5 60.5t-60.5 153.5t60.5 153.5t153.5 60.5zM600 1458q258 -4 427.5 -173t172.5 -427q-36 -367 -300 -727.5t-300 -388.5q-36 28 -300 388.5t-300 727.5q4 258 173 427t427 173zM600 1290
q-181 -4 -304.5 -127.5t-127.5 -304.5q-11 -56 55.5 -233t376.5 -601q310 424 376.5 601t55.5 233q-4 181 -127.5 304.5t-304.5 127.5z" />
    <glyph glyph-name="metronome" unicode="&#xfcd8;" arabic-form="initial" 
d="M559 1306l-239 -65l-314 -1177q-7 -13 -6 -33q4 -59 43 -98q40 -39 98 -39h837q59 0 98 39t42 98q0 20 -6 33l-95 356l-107 -107l13 -72h-266l200 199l-98 98l-298 -297h-265l246 909h235l105 -380l111 115l-95 356zM507 1078v-680l105 104v576h-105zM1102 885l-196 -200
l-49 49l-98 -97l196 -197l98 98l-49 49l196 200z" />
    <glyph glyph-name="metronome-tick" unicode="&#xfcd9;" arabic-form="initial" 
d="M600 1358l-256 -70l-340 -1274l-4 -25q4 -63 46 -105t105 -42h898q63 0 105 42t46 105l-4 25l-340 1274zM474 1190h252l264 -976h-316v375h-148v-375h-316zM526 1113v-299h-77v-151h302v151h-77v299h-148z" />
    <glyph glyph-name="micro-sd" unicode="&#xfcda;" arabic-form="initial" 
d="M301 1347q-63 0 -106.5 -41.5t-43.5 -104.5v-527l-151 -148v-526q4 -64 46 -106q42 -41 105 -41h898q63 0 105 41.5t46 105.5v1201q-4 64 -46 105t-105 41h-748zM375 1201h151v-302h-151v302zM600 1201h151v-302h-151v302zM825 1201h151v-302h-151v302z" />
    <glyph glyph-name="mixer" unicode="&#xfcdb;" arabic-form="initial" 
d="M220 1084l343 -465q14 -17 0 -37l-354 -475q-34 -37 -83.5 -38.5t-86 32.5t-39.5 80.5t25 88.5l248 332l-248 330q-28 39 -25 87t39 82l9 5q42 32 91.5 24.5t80.5 -46.5zM980 1084q31 39 80 46.5t91 -24.5l9 -5q37 -34 39.5 -82t-25.5 -87l-247 -330l247 -332
q28 -42 25 -88.5t-39.5 -80.5t-85.5 -32.5t-83 38.5l-354 475q-14 20 0 37z" />
    <glyph glyph-name="movie-roll" unicode="&#xfcdc;" arabic-form="initial" 
d="M600 1200q257 -6 426 -174.5t174 -425.5q-6 -257 -174.5 -425.5t-425.5 -174.5q-257 6 -426 175t-174 425q6 257 174.5 425.5t425.5 174.5zM600 1082q-65 -3 -107 -45.5t-42 -105.5t42 -105.5t107 -42.5t107 42.5t42 105.5t-42 105.5t-107 45.5zM144 749
q-20 -62 8.5 -115t88.5 -73t113.5 7t73.5 88.5t-8.5 114t-89 72t-113.5 -7t-73 -86.5zM1056 749q-20 60 -73 86.5t-113.5 8.5t-89 -72t-8.5 -114.5t73.5 -88.5t113.5 -8t88.5 73t8.5 115zM318 212q53 -37 112.5 -27t96 62t28.5 111t-60.5 96t-111.5 28t-97 -61t-28.5 -111
t60.5 -98zM882 212q51 39 60.5 98t-28.5 111t-97 61t-110 -28t-60.5 -96t27 -111t97 -62t111.5 27zM600 690q-39 0 -64.5 -25t-25.5 -64.5t25.5 -65t64.5 -25.5t64.5 25.5t25.5 65t-25.5 64.5t-64.5 25z" />
    <glyph glyph-name="mushroom" unicode="&#xfcdd;" arabic-form="initial" 
d="M600 1200q257 -6 426 -174.5t174 -425.5q0 -51 -33.5 -84.5t-84.5 -36.5h-964q-51 3 -84.5 37t-33.5 84q6 257 174.5 425.5t425.5 174.5zM600 840q51 3 84.5 36.5t33.5 84t-33.5 84.5t-84.5 34t-84.5 -34t-33.5 -84.5t33.5 -84t84.5 -36.5zM902 600q51 0 84 35t33 86
t-33.5 85t-84 34t-85.5 -34t-35 -85t35 -86t86 -35zM298 600q51 0 86 35t35 86t-35 85t-85.5 34t-84 -34t-33.5 -85t33 -86t84 -35zM781 420l76 -268l5 -34q-3 -51 -36.5 -84.5t-84.5 -33.5h-282q-51 0 -84.5 33.5t-36.5 84.5l5 34l76 268h362z" />
    <glyph glyph-name="mushroom-outline" unicode="&#xfcde;" arabic-form="initial" 
d="M118 600h964q-3 172 -103 297.5t-258 167.5q-8 -45 -42 -74.5t-79 -29.5t-78.5 29.5t-42.5 74.5q-158 -42 -258 -167.5t-103 -297.5zM600 1200q257 -6 426 -174.5t174 -425.5q0 -51 -33.5 -84.5t-84.5 -36.5h-964q-51 3 -84.5 37t-33.5 84q6 257 174.5 425.5t425.5 174.5
zM690 299h-180l-51 -181h282zM781 420l59 -211l17 -57l5 -34q-3 -51 -36.5 -84.5t-84.5 -33.5h-282l-28 3q-51 14 -75 54.5t-13 91.5l76 271h362zM840 902q51 -3 85.5 -36.5t34.5 -85t-35 -85t-85.5 -33.5t-84.5 33.5t-34 85t34 85t85 36.5zM360 902q51 -3 85 -36.5t34 -85
t-34 -85t-84.5 -33.5t-85.5 33.5t-35 85t34.5 85t85.5 36.5z" />
    <glyph glyph-name="nintendo-switch" unicode="&#xfcdf;" arabic-form="medial" 
d="M482 96h-175q-87 3 -148 63.5t-64 147.5v586q3 87 64 148t148 64h175v-1009zM307 1200q-132 -3 -218 -89t-89 -218v-586q3 -132 89 -218t218 -89h273v1200h-273zM186 840q0 -48 32.5 -79.5t80 -31.5t80 31.5t32.5 79.5t-32.5 80t-80 32t-80 -32t-32.5 -80zM938 659
q51 0 84.5 -33.5t33.5 -85.5t-33.5 -86t-85.5 -34t-86 34t-34 86t34 85.5t87 33.5zM893 0q132 3 218 89t89 218v586q-3 132 -89 218.5t-218 88.5h-195v-1200h195z" />
    <glyph glyph-name="null" unicode="&#xfce0;" arabic-form="medial" 
d="M600 1330q103 0 193.5 -39.5t166.5 -111.5l123 158l117 -89l-148 -186q63 -96 98.5 -212t35.5 -250q-8 -309 -172 -515.5t-414 -214.5q-103 0 -193.5 40t-166.5 112l-123 -159l-117 89l148 186q-63 96 -98.5 212.5t-35.5 249.5q8 309 172 515.5t414 214.5zM600 1187
q-185 -8 -310 -172q-124 -165 -128 -415q4 -192 82 -339l623 801q-113 121 -267 125zM600 14q185 8 310 172q124 164 128 414q-4 192 -82 339l-623 -801q113 -120 267 -124z" />
    <glyph glyph-name="passport" unicode="&#xfce1;" arabic-form="medial" 
d="M151 1347q-63 0 -105 -41.5t-46 -104.5v-1201q4 -64 46 -106q42 -41 105 -41h898q63 0 105 41.5t46 105.5v1201q-4 64 -46 105t-105 41h-898zM600 1124q158 -4 265 -109.5t111 -263.5q-4 -161 -111 -267q-107 -104 -265 -108q-158 4 -265 109t-111 266q4 158 111 263.5
t265 109.5zM600 1050q-46 -70 -70 -151h140q-21 81 -70 151zM501 1032q-105 -35 -161 -133h109q21 70 52 133zM699 1032q31 -63 52 -133h109q-56 95 -161 133zM309 825q-8 -35 -8 -74t8 -77h126q-4 38 -4 75t4 76h-126zM512 825q-7 -35 -7 -74t7 -77h176q3 38 3 77t-3 74
h-176zM765 825q4 -39 4 -76t-4 -75h126q8 38 8 77t-8 74h-126zM340 600q56 -95 161 -133q-31 64 -52 133h-109zM530 600q25 -81 70 -151q49 70 70 151h-140zM751 600q-21 -70 -52 -133q105 39 161 133h-109zM224 225h752v-148h-752v148z" />
    <glyph glyph-name="periodic-table-co2" unicode="&#xfce2;" arabic-form="medial" 
d="M139 978q-59 -3 -99 -41.5t-40 -96.5v-412q0 -58 40 -96.5t99 -42.5h205v139h-205v412h205v138h-205zM550 978q-58 -3 -98 -41.5t-40 -96.5v-412q0 -58 40 -96.5t98 -42.5h135q59 4 99 42q40 40 40 97v412q0 58 -40 96.5t-99 41.5h-135zM550 840h135v-412h-135v412z
M892 736v-103h205v-103h-102q-43 0 -71 -28q-29 -28 -32 -74v-206h308v103h-205v103h102q45 0 74 28.5t29 73.5v103q0 45 -28.5 74t-74.5 29h-205z" />
    <glyph glyph-name="pipe" unicode="&#xfce3;" arabic-form="medial" 
d="M1200 479h-118v-118h-361v180h119v118h-119v302q-3 51 -36.5 84.5t-84.5 36.5h-482v118h-118v-479h118v119h361v-181h-119v-118h119v-301q3 -51 36.5 -85t84.5 -37h482v-118h118v479z" />
    <glyph glyph-name="pipe-disconnected" unicode="&#xfce4;" arabic-form="medial" 
d="M840 781v-122h-480v122h119v59h-361v-119h-118v479h118v-118h482q51 -3 84.5 -37t36.5 -84v-180h119zM479 420v-180q3 -51 36.5 -85t84.5 -37h482v-118h118v479h-118v-118h-361v59h119v121h-480v-121h119z" />
    <glyph glyph-name="power-socket-eu" unicode="&#xfce5;" arabic-form="medial" 
d="M329 690q39 0 64.5 -25t25.5 -64.5t-25 -65t-64.5 -25.5t-64.5 25.5t-25 65t25 64.5t64 25zM871 690q39 0 64 -25t25 -64.5t-25 -65t-64.5 -25.5t-64.5 25.5t-25 65t25.5 64.5t64.5 25zM132 1200h936q56 0 94 -37.5t38 -94.5v-936q0 -56 -38 -94t-94 -38h-936
q-56 0 -94 38t-38 94v936q0 56 38 94t94 38zM600 1082q-206 -6 -341 -141t-141 -341q6 -206 141 -341t341 -141q206 6 341 141t141 341q-6 206 -141 341t-341 141z" />
    <glyph glyph-name="power-socket-uk" unicode="&#xfce6;" arabic-form="medial" 
d="M749 496h211v-135h-211v135zM240 496h211v-135h-211v135zM541 961h118v-240h-118v240zM132 1200q-56 0 -94 -37.5t-38 -94.5v-936q0 -56 38 -94t94 -38h936q56 0 94 38t38 94v936q0 56 -38 94t-94 38h-936zM600 1082q206 -6 341 -141t141 -341q-6 -206 -141 -341
t-341 -141q-206 6 -341 141t-141 341q6 206 141 341t341 141z" />
    <glyph glyph-name="power-socket-us" unicode="&#xfce7;" arabic-form="medial" 
d="M360 902h119v-302h-119v302zM132 1200h936q56 0 94 -37.5t38 -94.5v-936q0 -56 -38 -94t-94 -38h-936q-56 0 -94 38t-38 94v936q0 56 38 94t94 38zM600 1082q-206 -6 -341 -141t-141 -341q6 -206 141 -341t341 -141q206 6 341 141t141 341q-6 206 -141 341t-341 141z
M721 871h119v-240h-119v240zM510 344q0 39 25.5 64.5t64.5 25.5t64.5 -25.5t25.5 -64.5v-45h-180v45z" />
    <glyph glyph-name="rice" unicode="&#xfce8;" arabic-form="medial" 
d="M1200 644h-138q-14 51 -36.5 97t-53.5 83l206 327l-102 65l-194 -307q-17 14 -34 24t-36 18l53 217l-116 31l-48 -206q-51 11 -101 12q-169 -3 -294 -103t-168 -258h-138q3 -186 101.5 -331t258.5 -221v-108h480v108q160 76 258.5 221t101.5 331zM600 886
q118 -3 208.5 -69t126.5 -173h-670q37 107 127 173t208 69z" />
    <glyph glyph-name="ring" unicode="&#xfce9;" arabic-form="medial" 
d="M600 751l-299 418l120 178h358l120 -178zM864 990l-92 -126q127 -53 200 -162q73 -108 77 -253q-4 -190 -131.5 -316t-317.5 -133q-190 7 -318 134q-127 126 -131 315q4 144 77 253t200 162l-92 126q-151 -74 -241.5 -216t-94.5 -325q7 -253 175.5 -423t424.5 -173
q256 3 425 173t175 423q-4 182 -94.5 324.5t-241.5 216.5z" />
    <glyph glyph-name="sass" unicode="&#xfcea;" arabic-form="medial" 
d="M600 1200q257 -6 426 -174.5t174 -425.5q-6 -257 -174.5 -425.5t-425.5 -174.5q-257 6 -426 175t-174 425q6 257 174.5 425.5t425.5 174.5zM479 400q14 -48 0 -90l-3 -11l-3 -6q-11 -22 -28 -42q-28 -28 -59 -38t-46.5 0t-8.5 42t40.5 66t67.5 55t37 21zM977 944
q-25 81 -133.5 104t-237.5 -23q-76 -25 -151 -65.5t-134 -97.5q-67 -65 -87 -117t-14 -75q22 -81 101 -140l133 -99q-20 -8 -86.5 -49t-97.5 -97q-22 -53 -6.5 -90t34.5 -43q62 -14 117.5 10t87.5 73.5t35 100t-14 84.5q37 11 93 5q76 -14 101.5 -47.5t21 -56t-16 -34
t-20 -17t-7 -9.5t10 -3t31.5 18t26 56q2 51 -41.5 92t-125.5 44q-67 -3 -95 -14l-3 5q-60 51 -123 100.5t-66 119.5q-6 28 35 91.5t204 150.5q143 65 240.5 59.5t120.5 -50.5q25 -65 -51 -147t-222 -104q-53 -3 -83 9.5t-38 21.5q-11 14 -14 11q-9 -8 -3 -21t24 -28.5
t46 -25t87 -8t142 29.5q90 37 143 116t36 160z" />
    <glyph glyph-name="send-secure" unicode="&#xfceb;" arabic-form="medial" 
d="M1146 355v28q-2 56 -40.5 94.5t-96 38.5t-96 -38.5t-41.5 -94.5v-28q-23 0 -38 -15.5t-15 -38.5v-220q0 -23 15 -38.5t38 -15.5h274q23 0 38.5 15.5t15.5 38.5v220q0 23 -15.5 38.5t-38.5 15.5zM1090 355h-164v28q3 34 26 56.5t57.5 22.5t57.5 -23t23 -56v-28zM1146 682
l-1146 -491v381l819 110l-819 110v381z" />
    <glyph glyph-name="soy-sauce" unicode="&#xfcec;" arabic-form="medial" 
d="M788 1037q0 51 10 87l18 61h61l87 244h78v146h-884v-146h78l87 -244h61q28 -46 28 -148q-23 -110 -200 -400q-176 -290 -200 -589v-198q4 -107 171.5 -166t416.5 -59t417 60q167 60 171 165v198q-23 299 -200 589t-200 400zM600 302q-83 0 -138 57t-55 140t55 138t138 55
t138 -55t55 -138t-55 -140t-138 -57z" />
    <glyph glyph-name="standard-definition" unicode="&#xfced;" arabic-form="medial" 
d="M685 1031h258q113 -4 185 -76.5t72 -181.5v-347q0 -109 -72.5 -181t-184.5 -76h-258v862zM943 342q36 0 60.5 24t28.5 60v347q-4 36 -28.5 60.5t-60.5 24.5h-85v-516h85zM168 1031h347v-173h-347v-174h174q73 0 121 -48t52 -121v-173q-4 -73 -52 -121t-121 -52h-342v173
h342v173h-174q-73 0 -120.5 48.5t-47.5 120.5v174q0 73 47.5 121t120.5 52z" />
    <glyph glyph-name="surround-sound-2-0" unicode="&#xfcee;" arabic-form="medial" 
d="M935 934h130q57 -3 96 -40.5t39 -93.5v-400q0 -56 -39 -93.5t-96 -40.5h-130q-57 3 -96 40q-39 38 -39 94v400q0 56 39 93.5t96 40.5zM935 800v-400h130v400h-130zM400 266h-400v134l265 400h-265v134h265q57 -3 96 -40.5t39 -93.5q0 -44 -22 -75l-219 -325h241v-134z
M600 266q-28 3 -47 21.5t-19 46.5t19 47t47 19t47 -19t19 -47t-19 -46.5t-47 -21.5z" />
    <glyph glyph-name="surround-sound-3-1" unicode="&#xfcef;" arabic-form="medial" 
d="M674 224q-32 4 -53 25t-21 52.5t21 53t52.5 21.5t52.5 -21.5t21 -53t-21 -52.5t-52 -25zM1123 976v-600h77v-152h-301v152h77v448h-77l77 152h147zM0 976h301q64 -4 106 -46t42 -106v-448q0 -64 -42 -106t-106 -46h-301v152h301v150h-224v147h224v151h-301v152z" />
    <glyph glyph-name="surround-sound-5-1" unicode="&#xfcf0;" arabic-form="medial" 
d="M674 224q-32 4 -53 25t-21 52.5t21 53t52.5 21.5t52.5 -21.5t21 -53t-21 -52.5t-52 -25zM1123 976v-600h77v-152h-301v152h77v448h-77l77 152h147zM151 526q-63 0 -105 42.5t-46 104.5v303h449v-152h-298v-151h150q64 0 106 -42t42 -105v-150q0 -64 -42 -106t-106 -46
h-301v152h301v150h-150z" />
    <glyph glyph-name="surround-sound-7-1" unicode="&#xfcf1;" arabic-form="medial" 
d="M600 169q-36 4 -60.5 28t-24.5 60.5t24.5 60.5t60.5 24t60.5 -24t24.5 -60.5t-24.5 -60.5t-60.5 -28zM1115 1031v-689h85v-173h-342v173h85v516h-85l85 173h172zM515 1031l-258 -862h-172l205 689h-290v173h515z" />
    <glyph glyph-name="television-classic" unicode="&#xfcf2;" arabic-form="medial" 
d="M369 1141l-85 -85l155 -154h-321q-51 -3 -84.5 -36.5t-33.5 -84.5v-600q0 -54 33.5 -88t84.5 -34h964q51 0 84.5 34t33.5 88v600q0 51 -33.5 84.5t-84.5 36.5h-321l155 154l-85 85l-231 -231zM118 781h784v-600h-784v600zM1051 781q25 0 42 -17.5t17 -42.5t-17 -42
t-42.5 -17t-42.5 17t-17 42t17 42.5t43 17.5zM1051 600q25 0 42 -16.5t17 -42t-17 -42.5t-42.5 -17t-42.5 17t-17 42.5t17 42t43 16.5z" />
    <glyph glyph-name="textbox-password" unicode="&#xfcf3;" arabic-form="medial" 
d="M902 902h298v-603h-298v-118q0 -26 16.5 -43t41.5 -20h122v-118h-152q-25 0 -56 17t-34 42q-3 -25 -32.5 -42t-58.5 -17h-149v118h121q25 3 42.5 20t17.5 43v839q0 25 -17.5 42t-42.5 20h-121v118h149q29 0 58 -17q30 -17 33 -42q3 25 33.5 42t56.5 17h152v-118h-122
q-25 -3 -41.5 -20t-16.5 -42v-118zM0 902h659v-121h-541v-361h541v-121h-659v603zM1082 420v361h-180v-361h180zM388 600q0 39 -25 64.5t-63 25.5t-63.5 -25t-25.5 -64.5t25.5 -65t63.5 -25.5t63 25.5t25 64.5zM659 668q-28 25 -63 22t-62 -31t-24 -63t29.5 -60.5
t60.5 -25.5t59 23v135z" />
    <glyph glyph-name="thought-bubble" unicode="&#xfcf4;" arabic-form="medial" 
d="M90 210q37 -3 62.5 -28.5t25.5 -63t-25.5 -63t-64 -25.5t-63.5 25.5t-25 63t25.5 63t64.5 28.5zM388 391q66 -3 108 -45.5t42 -106t-42 -105.5t-105.5 -42t-106 42t-42.5 105.5t42 106t104 45.5zM749 450q-53 0 -99.5 21t-80.5 60q-34 -39 -79 -60t-102 -21
q-90 3 -153 56t-83 141q-68 25 -110 85.5t-42 136.5q3 105 70.5 172.5t169.5 70.5q22 0 44 -6q67 61 167 64q53 0 99.5 -21t80.5 -60q34 39 79 60t102 21q90 -3 153 -56t83 -140q68 -26 110 -86.5t42 -136.5q-3 -104 -70.5 -172t-169.5 -71l-44 6q-68 -61 -167 -64z" />
    <glyph glyph-name="thought-bubble-outline" unicode="&#xfcf5;" arabic-form="isolated" 
d="M90 210q37 -3 62.5 -28.5t25.5 -63t-25.5 -63t-64 -25.5t-63.5 25.5t-25 63t25.5 63t64.5 28.5zM388 391q66 -3 108 -45.5t42 -106t-42 -105.5t-105.5 -42t-106 42t-42.5 105.5t42 106t104 45.5zM749 450q-53 0 -99.5 21t-80.5 60q-34 -39 -79 -60t-102 -21
q-90 3 -153 56t-83 141q-68 25 -110 85.5t-42 136.5q3 105 70.5 172.5t169.5 70.5l44 -6q67 61 167 64q53 0 99.5 -21t80.5 -60q34 39 79 60t102 21q90 -3 153 -56t83 -140q68 -26 110 -86.5t42 -136.5q-3 -104 -70.5 -172t-169.5 -71l-44 6q-68 -61 -167 -64zM240 991
q-51 0 -85 -35.5t-34 -86.5t34 -84q34 -34 85 -34q31 0 56 11q-25 -31 -26 -73q0 -51 34 -85t87.5 -34t87.5 40l90 102l90 -102q37 -39 90 -40q49 0 81 28.5t41 73.5q33 -39 89 -42q51 0 85 35t34 86t-34 85q-34 33 -85 33q-31 0 -56 -11q25 31 26 73q0 51 -34 85t-87.5 34
t-87.5 -40l-93 -101l-87 101q-34 39 -90 40q-49 0 -81 -28t-41 -74q-33 40 -89 43zM388 300q-25 -3 -42 -20t-17 -42t17 -42t42.5 -17t42.5 17t17 42t-17 42t-43 20z" />
    <glyph glyph-name="trackpad" unicode="&#xfcf6;" arabic-form="isolated" 
d="M118 1141h964q51 0 84.5 -35t33.5 -86v-839q0 -52 -33.5 -87t-84.5 -35h-964q-51 0 -84.5 35t-33.5 87v839q0 51 33.5 86t84.5 35zM118 1020v-479h964v479h-964zM118 181h423v239h-423v-239zM1082 181v239h-423v-239h423z" />
    <glyph glyph-name="ultra-high-definition" unicode="&#xfcf7;" arabic-form="isolated" 
d="M436 873h110v-220h108v220h110v-546h-110v219h-108v-219h-110v546zM874 873h162q69 -2 115 -48t49 -115v-220q-3 -69 -49 -115t-115 -48h-162v546zM1036 437q23 0 38.5 15t15.5 38v220q0 22 -15 37.5t-39 15.5h-56v-326h56zM326 490q0 -69 -45.5 -115t-115.5 -46t-116 46
t-49 115v383h110v-383q0 -23 15 -38t38 -15t38.5 15t18.5 38v383h106v-383z" />
    <glyph glyph-name="van-passenger" unicode="&#xfcf8;" arabic-form="isolated" 
d="M110 954q-46 -3 -76.5 -33.5t-33.5 -76.5v-437h110q3 -69 48.5 -115t114.5 -46t115 46t48 115h328q2 -69 48 -115t115 -46t114.5 46t48.5 115h110v219q-3 47 -33.5 77.5t-76.5 30.5l-164 220h-816zM110 872h216v-138h-216v138zM436 872h218v-138h-218v138zM764 872h135
l107 -138h-242v138zM274 489q35 0 58 -23t23 -57.5t-23 -57.5t-59 -23t-58.5 23t-22.5 57.5t23 57.5t59 23zM926 489q36 0 59 -23t23 -57.5t-22.5 -57.5t-58.5 -23t-59 23t-23 57.5t23 57.5t58 23z" />
    <glyph glyph-name="van-utility" unicode="&#xfcf9;" arabic-form="isolated" 
d="M110 954q-46 -3 -76.5 -33.5t-33.5 -76.5v-437h110q3 -69 48.5 -115t114.5 -46t115 46t48 115h328q2 -69 48 -115t115 -46t114.5 46t48.5 115h110v219q-3 47 -33.5 77.5t-76.5 30.5l-164 220h-816zM764 872h135l107 -138h-242v138zM274 489q35 0 58 -23t23 -57.5
t-23 -57.5t-59 -23t-58.5 23t-22.5 57.5t23 57.5t59 23zM926 489q36 0 59 -23t23 -57.5t-22.5 -57.5t-58.5 -23t-59 23t-23 57.5t23 57.5t58 23z" />
    <glyph glyph-name="vanish" unicode="&#xfcfa;" arabic-form="isolated" 
d="M866 534v132h334v-132h-334zM788 882l190 190l94 -94l-190 -190zM534 335h132v-335h-132v335zM534 1200h132v-334h-132v334zM128 222l190 191l94 -95l-190 -190zM128 978l94 94l190 -190l-94 -94zM334 534h-334v132h334v-132zM1072 222l-94 -94l-190 190l94 95z" />
    <glyph glyph-name="video-3d" unicode="&#xfcfb;" arabic-form="isolated" 
d="M0 1031h342q73 -4 121 -52t52 -121v-516q-4 -73 -52 -121t-121 -52h-342v173h342v173h-257v169h257v174h-342v173zM685 1031h258q113 -4 185 -76.5t72 -181.5v-347q0 -109 -72.5 -181t-184.5 -76h-258v862zM943 342q36 0 60.5 24t28.5 60v347q-4 36 -28.5 60.5
t-60.5 24.5h-85v-516h85z" />
    <glyph glyph-name="wall" unicode="&#xfcfc;" arabic-form="isolated" 
d="M59 390h541v-302h-541v302zM0 751h360v-302h-360v302zM419 751h362v-302h-362v302zM840 751h360v-302h-360v302zM659 390h482v-302h-482v302zM59 1112h482v-302h-482v302zM600 1112h541v-302h-541v302z" />
    <glyph glyph-name="xmpp" unicode="&#xfcfd;" arabic-form="isolated" 
d="M600 363q-104 107 -170.5 256.5t-69.5 310.5l-360 121q8 -257 161.5 -451.5t351.5 -309.5q-108 -80 -215 -82v-59q56 0 134 22.5t168 70.5q90 -49 167.5 -71t134.5 -22v59q-107 3 -215 82q198 115 351.5 309.5t161.5 451.5l-360 -121q0 -161 -68 -310.5t-172 -256.5z" />
    <glyph glyph-name="account-multiple-plus-outline" unicode="&#xfcfe;" arabic-form="isolated" 
d="M675 949q-75 0 -124 -50.5t-49 -124t49 -123t124 -51.5q56 0 101 33q42 -33 98 -33q76 2 124.5 51.5t48.5 123t-49 124t-124 50.5q-56 0 -98 -33q-42 33 -101 33zM675 874q43 0 71 -28t28 -70.5t-28.5 -71.5t-70.5 -29t-70 29t-28 71.5t28 70.5t70 28zM874 874
q43 0 72 -28t29 -70.5t-29.5 -71.5t-71.5 -29q-25 0 -49 14q24 37 24 85t-24 88q24 12 49 12zM150 799v-150h-150v-99h150v-149h101v149h150v99h-150v150h-101zM675 550q-92 0 -203 -40.5t-123 -122.5v-136h851v136q-9 82 -121.5 122.5t-204.5 40.5q-42 0 -98 -11
q-57 11 -101 11zM675 475q96 -5 171 -35t80 -53v-61h-502v61q5 23 80 53t171 35zM954 466q72 -14 120 -37.5t51 -41.5v-61h-124v61q-3 47 -47 79z" />
    <glyph glyph-name="account-plus-outline" unicode="&#xfcff;" arabic-form="isolated" 
d="M764 1037q-92 -3 -153.5 -64.5t-61.5 -154.5t61.5 -154.5t153 -61.5t153 61.5t61.5 154.5t-61.5 154.5t-152.5 64.5zM764 932q48 0 80 -33.5t32 -81.5t-32 -80.5t-80.5 -32.5t-80.5 32.5t-32 80.5t32 81.5t81 33.5zM164 873v-163h-164v-110h164v-163h110v163h162v110
h-162v163h-110zM764 546q-123 0 -272.5 -54.5t-165.5 -164.5v-164h874v164q-15 110 -164.5 164.5t-271.5 54.5zM764 441q127 -2 226.5 -43t104.5 -71v-59h-663v59q5 31 104.5 71.5t227.5 42.5z" />
    <glyph glyph-name="allo" unicode="&#xfd00;" arabic-form="isolated" 
d="M1200 601v-541q0 -45 -40.5 -57.5t-66.5 23.5l-93 127q-169 -152 -400 -152q-248 0 -424 176t-176 424t176 424t424 176t424 -176t176 -424z" />
    <glyph glyph-name="artist" unicode="&#xfd01;" arabic-form="isolated" 
d="M507 472q91 0 201 -26q-77 -84 -77 -193q0 -85 51 -160h-682v128q0 112 173 181.5t334 69.5zM981 727h219v-127h-125v-347q0 -65 -47 -112.5t-112 -47.5t-111 47.5t-46 112.5t46 111.5t111 46.5q30 0 65 -16v332zM507 600q-104 0 -180 74t-76 177.5t76 179.5t179.5 76
t178 -76t74.5 -179.5t-74.5 -177.5t-177.5 -74z" />
    <glyph glyph-name="atlassian" unicode="&#xfd02;" arabic-form="isolated" 
d="M355 645q-8 11 -22.5 14t-23 -4t-13.5 -15l-293 -588q-11 -31 14 -48q9 -6 17 -3h411q20 0 31 17q65 146 31 322t-152 305zM572 1183q-113 -177 -124.5 -378.5t79.5 -389.5l197 -397q11 -17 30 -17h412q31 3 33 34q3 8 -3 17l-279 554q-242 487 -286 577q-6 11 -18.5 15
t-23.5 -1.5t-17 -13.5z" />
    <glyph glyph-name="azure" unicode="&#xfd03;" arabic-form="isolated" 
d="M662 1068l-389 -831l-273 3l304 526zM704 1000l496 -868h-916l559 102l-294 347z" />
    <glyph glyph-name="basketball" unicode="&#xfd04;" arabic-form="isolated" 
d="M19 442q54 20 113 20q122 0 211 -76l-188 -189q-97 110 -136 245zM814 732q177 -132 383 -64q3 -20 3 -68q0 -93 -42 -207t-104 -185l-381 381zM405 321q96 -139 40 -301q-129 37 -225 115zM611 526l380 -380q-197 -171 -458 -143q20 59 19 129q0 56 -25 131t-59 123z
M408 450q-84 74 -194 95t-211 -13q-3 20 -3 68q0 93 42 207t104 185l401 -403zM814 856q-122 150 -56 324q56 -14 128 -55t117 -80zM1181 758q-54 -20 -113 -20q-99 0 -189 59l186 183q79 -98 116 -222zM611 654l-402 399q197 172 458 145q-20 -60 -19.5 -127.5t30 -149.5
t71.5 -130z" />
    <glyph glyph-name="battery-charging-wireless" unicode="&#xfd05;" arabic-form="isolated" 
d="M627 1059h-113v111h-342v-111h-116q-24 -3 -40 -19.5t-16 -39.5v-914q0 -24 16 -40t40 -16h571q24 0 40 16t19 40v914q-3 23 -19 39.5t-40 19.5zM1031 1004l-80 -80q134 -142 134 -324t-134 -324l80 -80q169 176 169 404t-169 404zM871 841l-81 -80q67 -70 67 -161
t-67 -160l81 -81q99 105 99 241t-99 241z" />
    <glyph glyph-name="battery-charging-wireless-10" unicode="&#xfd06;" arabic-form="isolated" 
d="M1031 1004l-80 -80q134 -142 134 -324t-134 -324l80 -80q169 176 169 404t-169 404zM871 841l-81 -80q67 -70 67 -161t-67 -160l81 -81q99 105 99 241t-99 241zM627 1059h-113v111h-342v-111h-116q-24 -3 -40 -19.5t-16 -39.5v-914q0 -24 16 -40t40 -16h571q24 0 40 16
t19 40v914q-3 23 -19 39.5t-40 19.5zM570 228h-457v715h457v-715z" />
    <glyph glyph-name="battery-charging-wireless-20" unicode="&#xfd07;" arabic-form="isolated" 
d="M1031 1004l-80 -80q134 -142 134 -324t-134 -324l80 -80q169 176 169 404t-169 404zM871 841l-81 -80q67 -70 67 -161t-67 -160l81 -81q99 105 99 241t-99 241zM627 1059h-113v111h-342v-111h-116q-24 -3 -40 -19.5t-16 -39.5v-914q0 -24 16 -40t40 -16h571q24 0 40 16
t19 40v914q-3 23 -19 39.5t-40 19.5zM570 314h-457v629h457v-629z" />
    <glyph glyph-name="battery-charging-wireless-30" unicode="&#xfd08;" arabic-form="isolated" 
d="M1031 1004l-80 -80q134 -142 134 -324t-134 -324l80 -80q169 176 169 404t-169 404zM871 841l-81 -80q67 -70 67 -161t-67 -160l81 -81q99 105 99 241t-99 241zM627 1059h-113v111h-342v-111h-116q-24 -3 -40 -19.5t-16 -39.5v-914q0 -24 16 -40t40 -16h571q24 0 40 16
t19 40v914q-3 23 -19 39.5t-40 19.5zM570 373h-457v570h457v-570z" />
    <glyph glyph-name="battery-charging-wireless-40" unicode="&#xfd09;" arabic-form="isolated" 
d="M1031 1004l-80 -80q134 -142 134 -324t-134 -324l80 -80q169 176 169 404t-169 404zM871 841l-81 -80q67 -70 67 -161t-67 -160l81 -81q99 105 99 241t-99 241zM627 1059h-113v111h-342v-111h-116q-24 -3 -40 -19.5t-16 -39.5v-914q0 -24 16 -40t40 -16h571q24 0 40 16
t19 40v914q-3 23 -19 39.5t-40 19.5zM570 458h-457v485h457v-485z" />
    <glyph glyph-name="battery-charging-wireless-50" unicode="&#xfd0a;" arabic-form="isolated" 
d="M1031 1004l-80 -80q134 -142 134 -324t-134 -324l80 -80q169 176 169 404t-169 404zM871 841l-81 -80q67 -70 67 -161t-67 -160l81 -81q99 105 99 241t-99 241zM627 1059h-113v111h-342v-111h-116q-24 -3 -40 -19.5t-16 -39.5v-914q0 -24 16 -40t40 -16h571q24 0 40 16
t19 40v914q-3 23 -19 39.5t-40 19.5zM570 544h-457v399h457v-399z" />
    <glyph glyph-name="battery-charging-wireless-60" unicode="&#xfd0b;" arabic-form="isolated" 
d="M1031 1004l-80 -80q134 -142 134 -324t-134 -324l80 -80q169 176 169 404t-169 404zM871 841l-81 -80q67 -70 67 -161t-67 -160l81 -81q99 105 99 241t-99 241zM627 1059h-113v111h-342v-111h-116q-24 -3 -40 -19.5t-16 -39.5v-914q0 -24 16 -40t40 -16h571q24 0 40 16
t19 40v914q-3 23 -19 39.5t-40 19.5zM570 625h-457v318h457v-318z" />
    <glyph glyph-name="battery-charging-wireless-70" unicode="&#xfd0c;" arabic-form="isolated" 
d="M1031 1004l-80 -80q134 -142 134 -324t-134 -324l80 -80q169 176 169 404t-169 404zM871 841l-81 -80q67 -70 67 -161t-67 -160l81 -81q99 105 99 241t-99 241zM627 1059h-113v111h-342v-111h-116q-24 -3 -40 -19.5t-16 -39.5v-914q0 -24 16 -40t40 -16h571q24 0 40 16
t19 40v914q-3 23 -19 39.5t-40 19.5zM570 715h-457v228h457v-228z" />
    <glyph glyph-name="battery-charging-wireless-80" unicode="&#xfd0d;" arabic-form="isolated" 
d="M1031 1004l-80 -80q134 -142 134 -324t-134 -324l80 -80q169 176 169 404t-169 404zM871 841l-81 -80q67 -70 67 -161t-67 -160l81 -81q99 105 99 241t-99 241zM627 1059h-113v111h-342v-111h-116q-24 -3 -40 -19.5t-16 -39.5v-914q0 -24 16 -40t40 -16h571q24 0 40 16
t19 40v914q-3 23 -19 39.5t-40 19.5zM570 772h-457v171h457v-171z" />
    <glyph glyph-name="battery-charging-wireless-90" unicode="&#xfd0e;" arabic-form="isolated" 
d="M1031 1004l-80 -80q134 -142 134 -324t-134 -324l80 -80q169 176 169 404t-169 404zM871 841l-81 -80q67 -70 67 -161t-67 -160l81 -81q99 105 99 241t-99 241zM627 1059h-113v111h-342v-111h-116q-24 -3 -40 -19.5t-16 -39.5v-914q0 -24 16 -40t40 -16h571q24 0 40 16
t19 40v914q-3 23 -19 39.5t-40 19.5zM570 857h-457v86h457v-86z" />
    <glyph glyph-name="battery-charging-wireless-alert" unicode="&#xfd0f;" arabic-form="isolated" 
d="M627 1059h-113v111h-342v-111h-116q-24 -3 -40 -19.5t-16 -39.5v-914q0 -24 16 -40t40 -16h571q24 0 40 16t19 40v914q-3 23 -19 39.5t-40 19.5zM399 257h-116v116h116v-116zM399 485h-116v287h116v-287zM1031 1004l-80 -80q134 -142 134 -324t-134 -324l80 -80
q169 176 169 404t-169 404zM871 841l-81 -80q67 -70 67 -161t-67 -160l81 -81q99 105 99 241t-99 241z" />
    <glyph glyph-name="battery-charging-wireless-outline" unicode="&#xfd10;" arabic-form="isolated" 
d="M1031 1004l-80 -80q134 -142 134 -324t-134 -324l80 -80q169 176 169 404t-169 404zM871 841l-81 -80q67 -70 67 -161t-67 -160l81 -81q99 105 99 241t-99 241zM627 1059h-113v111h-342v-111h-116q-24 -3 -40 -19.5t-16 -39.5v-914q0 -24 16 -40t40 -16h571q24 0 40 16
t19 40v914q-3 23 -19 39.5t-40 19.5zM570 142h-457v801h457v-801z" />
    <glyph glyph-name="bitcoin" unicode="&#xfd11;" arabic-form="final" 
d="M0 1176h289v247h162v-247h124v247h167v-247q332 -27 364.5 -247t-159.5 -267q262 -28 252.5 -311.5t-457.5 -325.5v-248h-167v248h-124v-248h-162v248h-289l43 162h81q34 4 57 27t23 58v657q0 34 -23 57.5t-57 27.5h-124v162zM451 1014v-333q24 -4 186 16t186 151
q-24 130 -186 152t-186 14zM451 557v-370q31 -4 228.5 25t228.5 161q-30 135 -228 164t-229 20z" />
    <glyph glyph-name="briefcase-outline" unicode="&#xfd12;" arabic-form="final" 
d="M1082 931q51 0 84.5 -35t33.5 -86v-659q0 -51 -33.5 -86t-84.5 -35h-964q-51 0 -84.5 35t-33.5 86v659q0 51 33.5 86t84.5 35h242v122q0 51 34 84t85 33h242q51 0 85 -33.5t34 -83.5v-122h242zM118 810v-659h964v659h-964zM721 931v122h-242v-122h242z" />
    <glyph glyph-name="cellphone-wireless" unicode="&#xfd13;" arabic-form="final" 
d="M1041 986q74 -74 116.5 -173.5t42.5 -212t-42 -212.5t-117 -174l-76 76q61 61 94 139.5t33 170.5t-33 170.5t-94 139.5zM888 830q44 -43 69 -102t25 -128t-25.5 -128t-68.5 -102l-77 77q61 61 61.5 153t-61.5 154zM655 710q46 -2 78 -33t32 -77t-32 -77t-78 -31t-76.5 31
t-30.5 77t30.5 77t76.5 33zM573 1201q59 -2 97.5 -40.5t41.5 -96.5v-246h-111v220h-491v-819h491v164h111v-246q-3 -59 -41.5 -97.5t-97.5 -40.5h-435q-59 2 -97 40.5t-41 97.5v927q3 59 41 97t97 40h435z" />
    <glyph glyph-name="clover" unicode="&#xfd14;" arabic-form="final" 
d="M600 648q149 133 225.5 220t76.5 171q-3 71 -49.5 116t-117.5 45q-81 0 -135 -59q-53 59 -138 59q-71 0 -116 -47.5t-48 -115.5q0 -81 76.5 -168.5t225.5 -220.5zM552 600q-133 149 -220 225.5t-171 76.5q-71 -3 -116 -49.5t-45 -117.5q0 -81 59 -135q-59 -53 -59 -138
q0 -70 47.5 -115t116.5 -48q81 0 168 76t220 225zM651 600q130 -149 217 -225t171 -76q71 3 116 49t45 117q0 81 -59 135q59 53 59 138q0 71 -47.5 116t-116.5 48q-81 0 -168 -76.5t-217 -225.5zM600 553q-149 -133 -225.5 -220.5t-76.5 -171.5q3 -71 49.5 -116t117.5 -45
q81 0 135 59q53 -59 138 -59q71 0 116 48t48 116q0 81 -76.5 168.5t-225.5 220.5z" />
    <glyph glyph-name="comment-question" unicode="&#xfd15;" arabic-form="final" 
d="M118 1200h964q51 0 84.5 -33.5t33.5 -84.5v-721q0 -51 -33.5 -86t-84.5 -35h-367l-222 -223q-20 -17 -42 -17h-32q-25 0 -42 17t-17 42v181h-242q-51 0 -84.5 35t-33.5 86v721q0 51 33.5 84.5t84.5 33.5zM611 992q-79 0 -129.5 -34t-45.5 -98h119q0 25 17 37.5t42 12.5
t42 -15.5t17 -40.5t-14 -45t-37 -34q-48 -29 -64.5 -50t-16.5 -66h118q0 25 8.5 40.5t30.5 29.5q43 20 70 53t27 72q0 62 -50 100t-134 38zM541 600v-121h118v121h-118z" />
    <glyph glyph-name="content-save-outline" unicode="&#xfd16;" arabic-form="final" 
d="M800 1066v-266h-665v-665h287q-41 37 -64.5 87t-23.5 113q3 112 78.5 187t187.5 75t187.5 -75t78.5 -187q0 -62 -23.5 -112.5t-64.5 -87.5h287v743l-187 188h-78zM135 935h531v131h-531v-131zM935 1200l265 -265v-800q0 -57 -39 -96t-96 -39h-930q-59 0 -97 39t-38 96
v931q0 57 39 95.5t96 38.5h800zM600 465q-57 0 -94 -37t-37 -93.5t37 -95.5t94 -39t94 39t37 95.5t-37 93.5t-94 37z" />
    <glyph glyph-name="delete-restore" unicode="&#xfd17;" arabic-form="final" 
d="M774 426h169l-343 348l-343 -348h169v-341h348v341zM85 1032h1030v-1032q0 -69 -52 -121.5t-120 -52.5h-686q-69 0 -120.5 52.5t-51.5 121.5v1032zM1200 1290v-174h-1200v174h297l89 84h428l89 -84h297z" />
    <glyph glyph-name="door" unicode="&#xfd18;" arabic-form="final" 
d="M201 1501q-89 0 -145 -56t-56 -145v-1601h1200v1601q0 89 -56 145t-145 56h-798zM201 1300h798v-1399h-798v1399zM699 699v-198h202v198h-202z" />
    <glyph glyph-name="door-closed" unicode="&#xfd19;" arabic-form="final" 
d="M840 659h120v-118h-120v118zM600 1141h419q54 0 88 -34t34 -87v-839h59v-122h-1200v122h479v839q3 53 36.5 87t84.5 34zM600 1020v-839h419v839h-419z" />
    <glyph glyph-name="door-open" unicode="&#xfd1a;" arabic-form="final" 
d="M600 1141q-51 0 -84.5 -34t-36.5 -87h-420v-839h-59v-122h1200v122h-59v839q0 53 -34 87t-88 34h-419zM600 1020h419v-839h-419v839zM181 659h117v-118h-117v118z" />
    <glyph glyph-name="fan-off" unicode="&#xfd1b;" arabic-form="final" 
d="M630 1199q-130 -3 -178 -97.5t-17 -228.5l344 -343q39 -8 77 -30.5t60 -62.5q62 -110 167.5 -87t116.5 219q-8 163 -147 198t-314 -54q-28 37 -73 53q8 45 31 85.5t68 63.5q110 65 86 168.5t-221 115.5zM76 1081l-76 -76l146 -149q-56 0 -101 -55t-45 -170
q6 -160 144.5 -196.5t313.5 53.5q28 -37 73 -56q-8 -42 -31 -81.5t-65 -64.5q-110 -65 -87 -169t220 -116q104 0 156 63.5t52 165.5l227 -229l76 76z" />
    <glyph glyph-name="file-percent" unicode="&#xfd1c;" arabic-form="final" 
d="M751 1347l449 -448v-899q-4 -64 -46 -106q-42 -41 -105 -41h-898q-63 0 -105 41.5t-46 105.5v1201q4 64 46 105t105 41h600zM253 0l572 576l-102 98l-572 -573zM674 825h414l-414 411v-411zM263 674q-49 0 -80.5 -31.5t-31.5 -79t31.5 -79t80.5 -31.5t80.5 31.5t31.5 79
t-31.5 79t-80.5 31.5zM712 225q-48 0 -80 -32t-32 -79.5t32 -78.5t80.5 -31t80.5 31t32 78.5t-32 79.5t-81 32z" />
    <glyph glyph-name="finance" unicode="&#xfd1d;" arabic-form="final" 
d="M43 537h255v-645h-255v645zM492 470h259v-578h-259v578zM944 793h256v-901h-256v901zM944 1308h256v-258h-63v126l-519 -518l-253 255l-295 -295l-70 70l365 362l253 -254l450 446h-124v66z" />
    <glyph glyph-name="flash-circle" unicode="&#xfd1e;" arabic-form="final" 
d="M569 118l293 586h-203v378l-299 -586h209v-378zM600 1200q248 0 424 -176t176 -424t-176 -424t-424 -176t-424 176t-176 424t176 424t424 176z" />
    <glyph glyph-name="floor-plan" unicode="&#xfd1f;" arabic-form="final" 
d="M465 1066v-331h-65v331h-265v-532h265v66h65v-334h-65v199h-265v-330h465v131h66v-131h399v131h135v-266h-1200v1200h1200v-799h-135v334h-399v-334h-66v399h465v266h-600z" />
    <glyph glyph-name="forum-outline" unicode="&#xfd20;" arabic-form="final" 
d="M118 1200q-51 0 -84.5 -33.5t-33.5 -84.5v-783l240 242h541q51 0 84.5 34t36.5 84v423q-3 51 -37 84.5t-84 33.5h-663zM118 1082h663v-423h-541l-122 -118v541zM1019 961v-121h63v-600l-122 121h-600v59h-120v-59q0 -51 35 -86t85 -35h600l240 -240v840q0 51 -33.5 86
t-84.5 35h-63z" />
    <glyph glyph-name="golf" unicode="&#xfd21;" arabic-form="final" 
d="M1094 177q46 0 76 -30t30 -76t-29.5 -76t-76 -30t-76.5 30t-30 76t30 76t76 30zM920 1030l-424 -218v-638q152 -10 249.5 -46.5t101.5 -92.5q-4 -60 -123 -99.5t-299 -39.5t-299.5 39.5t-125.5 99.5q3 40 59 73t152 49v-122h142v1269z" />
    <glyph glyph-name="google-home" unicode="&#xfd22;" arabic-form="final" 
d="M242 979q-77 0 -89 12l-38 -553q73 -43 187.5 -70t331.5 -14.5t451 93.5l-73 855q-119 -120 -353 -222q-209 -89 -357 -101h-60zM234 1200q-94 -81 -79 -111t134 -16q149 12 337 93q127 56 221 119.5t128 106.5t25 62t-85 19q-153 0 -383 -99q-197 -85 -298 -174z
M1085 1485q9 -17 9 -38l106 -1306q0 -234 -161.5 -368.5t-436.5 -134.5t-438.5 138.5t-163.5 372.5l64 949q0 34 29.5 76.5t55.5 67.5l30 26q132 111 319 191q128 56 249 83.5t216.5 17t121.5 -74.5z" />
    <glyph glyph-name="guy-fawkes-mask" unicode="&#xfd23;" arabic-form="final" 
d="M1200 534q-7 -256 -175.5 -424.5t-424.5 -175.5q-256 7 -425 175.5t-175 424.5l3 569q132 78 283 120.5t315.5 42.5t316 -41t282.5 -115v-576zM666 72q174 28 285.5 154.5t113.5 307.5v494q-212 104 -462 107q-256 -3 -475 -113l7 -488q3 -181 114 -307.5t285 -154.5v128
h132v-128zM534 335h-200l-134 199l200 -69h65l69 69h132l69 -69h65l200 69l-134 -199h-200l-66 66zM200 797q66 66 165.5 66t168.5 -66q-69 -62 -168.5 -62t-165.5 62zM666 797q65 66 165 66t169 -66q-69 -62 -169 -62t-165 62z" />
    <glyph glyph-name="home-account" unicode="&#xfd24;" arabic-form="final" 
d="M600 1111l-600 -541h181v-481h838v481h181zM600 765q56 0 94 -38t38 -96t-38 -96t-94 -38t-94 38t-38 96t38 96t94 38zM600 391q76 0 169 -34t102 -102v-45h-542v45q8 68 101.5 102t169.5 34z" />
    <glyph glyph-name="home-heart" unicode="&#xfd25;" arabic-form="final" 
d="M0 570l600 541l600 -541h-181v-481h-838v481h-181zM600 210l42 39q119 105 188 185t72 162q-3 71 -49.5 117t-117.5 49q-39 0 -74.5 -16.5t-60.5 -47.5q-25 31 -60 47.5t-75 16.5q-71 -3 -117.5 -49t-49.5 -117q3 -81 72 -161.5t188 -185.5z" />
    <glyph glyph-name="hot-tub" unicode="&#xfd26;" arabic-form="final" 
d="M298 1112q51 -3 86 -37t35 -84.5t-35 -84.5t-85.5 -34t-84 34t-33.5 84.5t33 84.5t84 37zM549 630h651v-482q0 -51 -33.5 -84.5t-84.5 -33.5h-964q-51 0 -84.5 33.5t-33.5 84.5v482h181v45q0 59 37.5 97t96.5 38v0q31 0 56.5 -11t45.5 -34l82 -93q22 -22 50 -42zM298 148
v360h-117v-360h117zM541 148v360h-122v-360h122zM781 148v360h-122v-360h122zM1019 148v360h-117v-360h117zM1000 999q45 -45 66.5 -103t12.5 -120l-6 -25h-113l6 34q11 73 -39 132l-6 3q-45 48 -66 105.5t-12 119.5l5 25h112l-5 -36q-11 -73 39 -132zM761 999
q45 -45 66 -103t10 -120l-3 -25h-113l6 34q11 73 -43 132l-3 3q-48 48 -67.5 105.5t-10.5 119.5l3 25h115l-6 -36q-14 -73 40 -132z" />
    <glyph glyph-name="hulu" unicode="&#xfd27;" arabic-form="final" 
d="M1200 537v-736h-382v645q-4 46 -34 76t-72 30h-232q-46 0 -74 -30t-32 -76v-645h-374v1598h382v-509q38 14 75 14h383q154 -4 255 -108.5t105 -258.5z" />
    <glyph glyph-name="ice-cream" unicode="&#xfd28;" arabic-form="final" 
d="M600 1575q165 -5 275 -114.5t115 -278.5q86 -18 140.5 -85t54.5 -153q-4 -106 -72.5 -174.5t-168.5 -73.5h-688q-101 5 -169 74q-68 68 -72 174q0 86 54.5 153t140.5 90q5 164 115 273.5t275 114.5zM307 600h586l-197 -975h-192z" />
    <glyph glyph-name="image-off" unicode="&#xfd29;" arabic-form="final" 
d="M79 1200l-79 -75l121 -121v-762q0 -51 35 -86t86 -35h762l120 -121l76 79zM230 1200l970 -969v849q0 53 -35 86.5t-86 33.5h-849zM449 570l152 -179l60 75l163 -165h-582z" />
    <glyph glyph-name="karate" unicode="&#xfd2a;" arabic-form="final" 
d="M1053 1252q-48 27 -95.5 13.5t-76 -61t-15 -95.5t60 -76.5t95.5 -14.5t77.5 61.5t15 95.5t-61.5 77zM1200 738l-164 -284l-111 63l111 191l-99 84l-201 -347v-515h-129v548l-607 352l63 111l497 -287l155 264l-410 149l48 120l446 -162q36 -15 72 -33l54 -33
q33 -18 63 -45z" />
    <glyph glyph-name="ladybug" unicode="&#xfd2b;" arabic-form="final" 
d="M600 1082q84 0 161 -21l123 214q14 25 44 33.5t58 -7t35.5 -45.5t-10.5 -59l-112 -192q140 -84 221 -222h-1040q81 138 221 222l-112 192q-18 28 -10.5 58.5t35.5 46t57.5 7t44.5 -33.5l123 -214q77 21 161 21zM1200 485q-7 -243 -158 -408t-386 -188v782h513
q31 -88 31 -186zM0 485q0 98 31 186h513v-782q-235 24 -386 188.5t-158 407.5z" />
    <glyph glyph-name="notebook" unicode="&#xfd2c;" arabic-form="final" 
d="M0 935v131h135v69q0 57 37 94t93 37h401v-466l169 100l165 -100v466h65q57 0 94.5 -39t40.5 -92v-1069q-3 -54 -40.5 -93t-94.5 -39h-800q-53 0 -91.5 39t-38.5 93v69h-135v131h135v268h-135v132h135v269h-135zM265 666h-130v-132h130v132zM265 935v131h-130v-131h130z
M265 135v131h-130v-131h130z" />
    <glyph glyph-name="phone-return" unicode="&#xfd2d;" arabic-form="initial" 
d="M1200 983v-335h-100v235h-375l162 -162l-71 -73l-282 285l282 284l71 -71l-162 -163h475zM387 811q28 28 16 66q-38 119 -38 241q0 28 -18.5 46.5t-46.5 18.5h-234q-28 0 -47 -18.5t-19 -46.5q12 -482 332.5 -802.5t801.5 -332.5q28 0 47 19t19 46v235q0 28 -18.5 47
t-47.5 19q-122 0 -237 37q-41 12 -69 -16l-147 -147q-140 75 -253 186t-184 255z" />
    <glyph glyph-name="poker-chip" unicode="&#xfd2e;" arabic-form="initial" 
d="M1200 600q-7 -255 -176 -423.5t-424 -176.5q-255 7 -424 176t-176 424q7 255 176 424t424 176q255 -7 424 -176t176 -424zM654 1032q89 -10 164.5 -53.5t128.5 -115.5l95 56q-69 95 -168.5 153.5t-219.5 71.5v-112zM158 919l95 -56q53 72 128.5 115.5t164.5 53.5v112
q-120 -13 -219.5 -71.5t-168.5 -153.5zM105 378l94 54q-35 82 -35 168.5t35 168.5l-94 54q-49 -108 -49 -223t49 -222zM546 169q-89 10 -164.5 53t-128.5 115l-95 -56q69 -95 168.5 -153.5t219.5 -71.5v113zM1042 281l-95 56q-53 -72 -128.5 -115t-164.5 -53v-110
q117 13 218 70t170 152zM1095 378q49 107 49 222t-49 223l-94 -54q35 -82 35 -168.5t-35 -168.5zM764 600l-164 274l-164 -274l164 -273z" />
    <glyph glyph-name="shape" unicode="&#xfd2f;" arabic-form="initial" 
d="M508 503v-508h-508v508h508zM570 1231l348 -570h-696zM918 536q122 -3 202 -83t80 -202t-80 -202t-202 -80t-202 80t-80 202t80.5 202t201.5 83z" />
    <glyph glyph-name="shape-outline" unicode="&#xfd30;" arabic-form="initial" 
d="M508 503v-508h-508v508h508zM380 376h-252v-253h252v253zM570 1231l348 -570h-696zM570 988l-121 -199h243zM918 536q122 -3 202 -83t80 -202t-80 -202t-202 -80t-202 80t-80 202t80.5 202t201.5 83zM918 409q-65 -3 -109.5 -48t-44.5 -111.5t44.5 -111t111 -44.5
t111 44.5t44.5 111t-44 111.5t-113 48z" />
    <glyph glyph-name="ship-wheel" unicode="&#xfd31;" arabic-form="initial" 
d="M54 654l110 -5q13 95 58 172t119 131l-62 94q-12 21 -6 42.5t27 33t41.5 5.5t32.5 -27l52 -97q79 33 174 33t174 -33l52 97q12 21 32.5 27t41.5 -5.5t27 -33t-6 -42.5l-62 -94q74 -54 119 -131t58 -172l110 5q23 0 38.5 -15t15.5 -38.5t-15 -39t-39 -15.5l-110 6
q-13 -95 -58 -172.5t-119 -131.5l62 -94q12 -20 6 -42t-27 -33.5t-41.5 -5.5t-32.5 27l-52 97q-79 -33 -174 -33t-174 33l-52 -97q-12 -20 -32.5 -26.5t-41.5 5t-27 33t6 42.5l62 94q-74 54 -119 131.5t-58 172.5l-110 -6q-23 0 -38.5 15.5t-15.5 39t15.5 38.5t38.5 15z
M438 636q13 52 52 85l-90 138q-51 -38 -83 -93.5t-43 -121.5zM600 764q26 0 48 -7l78 146q-59 26 -126 26t-126 -26l78 -146q22 7 48 7zM762 636l164 8q-10 66 -42.5 121.5t-83.5 93.5l-90 -138q39 -33 52 -85zM762 564q-13 -51 -52 -85l90 -138q51 39 83 94t43 122z
M600 436q-26 0 -48 8l-78 -146q59 -26 126 -26t126 26l-78 146q-22 -8 -48 -8zM438 564l-164 -7q10 -67 42.5 -122t83.5 -94l90 138q-39 34 -52 85z" />
    <glyph glyph-name="soccer-field" unicode="&#xfd32;" arabic-form="initial" 
d="M118 1082q-51 -3 -84.5 -37t-33.5 -84v-722q0 -51 33.5 -84.5t84.5 -36.5h964q51 3 84.5 36.5t33.5 84.5v722q0 51 -33.5 84.5t-84.5 36.5h-964zM118 961h423v-128q-82 -22 -131.5 -85t-49.5 -148t49.5 -148t131.5 -86v-127h-423v122h180v478h-180v122zM659 961h423v-122
h-180v-478h180v-122h-423v127q82 22 131.5 85.5t49.5 148.5t-49.5 148t-131.5 85v128zM118 721h63v-243h-63v243zM1019 721h63v-243h-63v243zM659 704q28 -17 45 -43.5t17 -60.5t-17 -61t-45 -44v209zM541 704v-209q-28 17 -45 44t-17 61t17 60.5t45 43.5z" />
    <glyph glyph-name="table-column" unicode="&#xfd33;" arabic-form="initial" 
d="M210 1575h780q82 0 138.5 -54.5t56.5 -136.5v-1567q0 -83 -57 -137.5t-138 -54.5h-780q-82 0 -138.5 54.5t-56.5 137.5v1567q0 83 56.5 137t138.5 54zM210 797v-394h780v394h-780zM210 212v-395h780v395h-780zM210 1384v-394h780v394h-780z" />
    <glyph glyph-name="table-of-contents" unicode="&#xfd34;" arabic-form="medial" 
d="M0 800h935v134h-935v-134zM0 534h935v131h-935v-131zM0 266h935v134h-935v-134zM1065 266h135v134h-135v-134zM1065 934v-134h135v134h-135zM1065 534h135v131h-135v-131z" />
    <glyph glyph-name="table-row" unicode="&#xfd35;" arabic-form="medial" 
d="M1200 478q0 -51 -33.5 -84t-84.5 -33h-964q-51 0 -84.5 33.5t-33.5 83.5v243q0 51 33.5 84.5t84.5 33.5h964q51 0 84.5 -33.5t33.5 -84.5v-243zM118 478h242v243h-242v-243zM479 478h242v243h-242v-243zM840 478h242v243h-242v-243z" />
    <glyph glyph-name="table-settings" unicode="&#xfd36;" arabic-form="medial" 
d="M265 67h135v-135h-135v135zM534 67h132v-135h-132v135zM800 67h135v-135h-135v135zM135 1268h930q57 -4 96 -41.5t39 -93.5v-800q0 -57 -39 -94t-96 -41h-930q-57 4 -96 41t-39 94v800q0 57 39 94t96 41zM135 998v-265h399v265h-399zM666 998v-265h399v265h-399zM135 598
v-265h399v265h-399zM666 598v-265h399v265h-399z" />
    <glyph glyph-name="television-box" unicode="&#xfd37;" arabic-form="medial" 
d="M135 1200h930q57 0 96 -39t39 -95v-931q0 -57 -39 -96t-96 -39h-930q-57 0 -96 39t-39 96v931q0 57 39 95.5t96 38.5zM866 335l199 531h-165l-100 -300l-100 300h-565v-131h199v-400h131v400h119l151 -400h131z" />
    <glyph glyph-name="television-classic-off" unicode="&#xfd38;" arabic-form="medial" 
d="M0 1067l76 76l1065 -1065l-76 -79l-121 121h-826q-51 0 -84.5 33.5t-33.5 87.5v600q0 45 29.5 79t74.5 43zM369 1201l231 -230l231 230l85 -84l-155 -154h321q51 -3 84.5 -37t33.5 -85v-600q0 -31 -14 -56l-284 284v372h-372l-122 122h31l-155 154zM118 841v-600h708
l-603 600h-105zM1051 841q-26 0 -43 -17t-17 -42t17 -42t42.5 -17t42.5 17t17 42t-17 42t-42 17zM1051 661q-26 0 -43 -17t-17 -42.5t17 -42.5t42.5 -17t42.5 17t17 42.5t-17 42.5t-42 17z" />
    <glyph glyph-name="television-off" unicode="&#xfd39;" arabic-form="medial" 
d="M0 1079l68 67l1024 -1025l-67 -67l-160 160h-40v-108h-425v108h-267q-46 0 -75.5 30t-32.5 75v640q3 40 25 68zM1092 319v640h-702l-108 107h810q46 0 75.5 -31t32.5 -76v-640q-3 -33 -21.5 -60.5t-48.5 -39.5l-100 100h62zM133 319h625l-625 628v-628z" />
    <glyph glyph-name="towing" unicode="&#xfd3a;" arabic-form="medial" 
d="M764 710h293l-181 217h-112v-217zM899 245q34 0 57.5 24t23.5 57.5t-24 58t-57.5 24.5t-57.5 -24.5t-24 -58t24 -57.5t58 -24zM274 245q35 0 58 24t23 57.5t-23 58t-59 24.5t-58.5 -24.5t-22.5 -58t23 -57.5t59 -24zM926 1037l274 -327v-383h-138q0 -67 -48.5 -115.5
t-114.5 -48.5t-115 48.5t-49 115.5h-299q0 -67 -48 -115.5t-115 -48.5t-115 48.5t-48 115.5h-110v219h446l-336 266v-159h-110v327h56l598 -329v386h272z" />
    <glyph glyph-name="upload-multiple" unicode="&#xfd3b;" arabic-form="medial" 
d="M342 382v516h-342l600 605l600 -605h-342v-516h-516zM0 40v174h1200v-174h-1200zM1200 -133h-1200v-170h1200v170z" />
    <glyph glyph-name="video-4k-box" unicode="&#xfd3c;" arabic-form="final" 
d="M135 1200h930q57 0 96 -39t39 -95v-931q0 -57 -39 -96t-96 -39h-930q-57 0 -96 39t-39 96v931q0 57 39 95.5t96 38.5zM1006 401l-134 199l134 200h-115l-132 -200v200h-100v-399h100v199l132 -199h115zM591 500v100h-66v200h-100v-200h-100v200h-100v-300h200v-99h100v99
h66z" />
    <glyph glyph-name="video-input-antenna" unicode="&#xfd3d;" arabic-form="isolated" 
d="M600 964q-164 -3 -271 -110t-109 -271h106q3 115 81 193t193 81q115 -3 193 -80.5t81 -193.5h106q-3 164 -109.5 271t-270.5 110zM654 459q38 18 59.5 49.5t21.5 74.5q0 59 -38 97.5t-97 38.5t-97 -38.5t-38 -97.5q0 -41 21.5 -74t59.5 -50v-179l-186 -187l76 -76
l164 163l164 -163l76 76l-186 187v179zM600 1183q-255 -7 -424 -175.5t-176 -424.5h110q5 209 143 348q138 137 347 142q209 -5 347 -142.5t143 -347.5h110q-7 256 -176 424.5t-424 175.5z" />
    <glyph glyph-name=".notdef" 
d="M1020 2100v-2800h-840v2800h840zM912 1996h-622v-2592h622v2592zM598.5 311.5q-15.5 -13.5 -34.5 -13.5q-20 0 -35 13t-15 35v168q72 4 111 20t55 47.5t16 86.5q0 66 -26 102t-96 36q-31 0 -54.5 -5t-49.5 -17q-15 -6 -26 -6q-22 0 -35 13t-13 33q0 37 59 57.5t127 20.5
q120 0 171 -64t51 -166q0 -106 -45.5 -163.5t-144.5 -72.5v-90q0 -21 -15.5 -34.5zM514 220q20 20 50 20t50 -20t20 -50q0 -32 -20 -53t-50 -21t-50 21t-20 53q0 30 20 50z" />
    <glyph glyph-name=".null" horiz-adv-x="0" 
 />
    <glyph glyph-name="nonmarkingreturn" unicode="&#xd;" 
 />
    <glyph glyph-name="space" unicode=" " 
 />
    <glyph glyph-name="exclam" unicode="!" 
d="M672 454h-151l-20 923h188zM667 227q31 -18 48.5 -48.5t17.5 -66.5q0 -37 -17.5 -68t-48.5 -49t-69 -18q-37 0 -67.5 18t-48 49t-17.5 68q0 36 17.5 66.5t48 48.5t67.5 18q38 0 69 -18z" />
    <glyph glyph-name="quotedbl" unicode="&#x22;" 
d="M327 1477h211l-31 -520h-148zM663 1477h210l-32 -520h-148z" />
    <glyph glyph-name="numbersign" unicode="#" 
d="M858 469h162v-130h-181l-42 -339h-144l45 339h-291l-44 -339h-144l45 339h-158v130h175l61 443h-162v131h179l44 334h144l-48 -334h294l44 334h144l-47 -334h160v-131h-177zM715 469l61 443h-293l-59 -443h291z" />
    <glyph glyph-name="dollar" unicode="$" 
d="M691 1396q113 -12 206.5 -55.5t161.5 -105.5l-103 -106q-116 109 -265 128v-456q175 -57 279.5 -155.5t104.5 -266.5q0 -97 -44 -180.5t-130.5 -140.5t-209.5 -73v-291h-135v285q-131 8 -236.5 60.5t-181.5 127.5l100 111q139 -142 318 -157v554q-181 60 -273.5 152.5
t-92.5 227.5q0 83 41.5 156.5t124 123.5t200.5 61v301h135v-301zM419.5 1189q-50.5 -49 -50.5 -131q0 -49 16.5 -85t57 -67t113.5 -61v408q-86 -15 -136.5 -64zM691 130q203 41 203 247q0 87 -46 146t-157 105v-498z" />
    <glyph glyph-name="glyph8" unicode="%" 
d="M1117 1344l-947 -1384l-105 70l944 1384zM488.5 1355.5q66.5 -43.5 101.5 -116.5t35 -160t-35 -160.5t-101.5 -118t-156.5 -44.5t-157 44.5t-102.5 118.5t-35.5 160q0 88 35.5 161t102 116t157.5 43q90 0 156.5 -43.5zM230.5 1228q-39.5 -51 -39.5 -149q0 -96 39 -150.5
t102 -54.5t101 51t38 154t-38 151.5t-101 48.5q-62 0 -101.5 -51zM1028.5 588.5q66.5 -43.5 101.5 -117t35 -160.5t-35 -160.5t-101.5 -118t-156.5 -44.5t-157 44.5t-102.5 118.5t-35.5 160q0 88 35.5 161t102 116.5t157.5 43.5q90 0 156.5 -43.5zM770 461q-39 -50 -39 -150
q0 -96 39 -150.5t102 -54.5t101 51.5t38 153.5q0 103 -38 151.5t-101 48.5t-102 -50z" />
    <glyph glyph-name="ampersand" unicode="&#x26;" 
d="M735.5 1365q79.5 -32 156.5 -116l-101 -92q-53 59 -107 86.5t-128 27.5q-103 0 -157 -55t-54 -147q0 -60 33 -113t89.5 -85t123.5 -32h556v-132h-179v-544q-57 -76 -158 -131t-257 -55q-149 0 -249 58t-148.5 152t-48.5 202q0 155 81.5 254t232.5 130v6
q-127 29 -184 107.5t-57 181.5q0 89 46.5 164.5t132.5 120t199 44.5q98 0 177.5 -32zM567 707q-98 0 -164.5 -46.5t-98.5 -118t-32 -147.5t30.5 -140t94.5 -103t160 -39q84 0 150.5 27.5t107.5 78.5v488h-248z" />
    <glyph glyph-name="quotesingle" unicode="'" 
d="M495 1477h210l-31 -520h-148z" />
    <glyph glyph-name="parenleft" unicode="(" 
d="M471.5 344.5q46.5 -151.5 138 -274.5t243.5 -258l-88 -92q-175 142 -286 279.5t-170.5 308.5t-59.5 392t59.5 392t170.5 308.5t286 279.5l88 -92q-154 -137 -245 -259t-137 -273t-46 -356q0 -204 46.5 -355.5z" />
    <glyph glyph-name="parenright" unicode=")" 
d="M729 1056q-46 151 -137 273t-245 259l88 92q175 -142 286 -279.5t170.5 -308.5t59.5 -392t-59.5 -392t-170.5 -308.5t-286 -279.5l-88 92q152 135 243.5 258t138 274.5t46.5 355.5q0 205 -46 356z" />
    <glyph glyph-name="glyph13" unicode="*" 
d="M528 752l-380 135l-51 -158l387 -114l-247 -320l134 -98l229 334l229 -334l134 98l-247 320l387 114l-51 158l-380 -135l13 405h-170z" />
    <glyph glyph-name="glyph14" unicode="+" 
d="M676 692h393v-141h-393v-396h-157v396h-388v141h388v399h157v-399z" />
    <glyph glyph-name="comma" unicode="," 
d="M683 307.5q37 -21.5 58 -58t21 -80.5q0 -37 -9 -74t-30 -83l-162 -371h-152l96 395q-30 22 -47.5 57.5t-17.5 75.5q0 44 21 80.5t57.5 58t81.5 21.5q46 0 83 -21.5z" />
    <glyph glyph-name="hyphen" unicode="-" 
d="M199 699h802v-146h-802v146z" />
    <glyph glyph-name="period" unicode="." 
d="M446 242q23 40 63 63.5t89 23.5q50 0 90.5 -23.5t63.5 -63.5t23 -88q0 -49 -23 -89.5t-63.5 -64t-90.5 -23.5q-49 0 -89 23.5t-63 64t-23 89.5q0 48 23 88z" />
    <glyph glyph-name="glyph18" unicode="/" 
d="M105 -146l856 1765l134 -66l-854 -1759z" />
    <glyph glyph-name="zero" unicode="0" 
d="M936 1216q115 -183 115 -527q0 -345 -115 -528.5t-336 -183.5t-336 183.5t-115 528.5q0 344 115 527t336 183t336 -183zM327 689q0 -230 35 -360l421 846q-62 89 -183 89q-273 0 -273 -575zM874 689q0 234 -36 362l-419 -850q33 -45 77.5 -66.5t103.5 -21.5
q274 0 274 576z" />
    <glyph glyph-name="one" unicode="1" 
d="M1035 137v-137h-795v137h339v1058l-316 -192l-73 120l410 254h147v-1240h288z" />
    <glyph glyph-name="two" unicode="2" 
d="M760 1349q94 -50 144 -137t50 -197q0 -127 -59 -247t-189.5 -264t-368.5 -361h649l-21 -143h-819v137q271 260 401 405t180 248.5t50 218.5q0 117 -65.5 183.5t-180.5 66.5q-99 0 -164.5 -33.5t-132.5 -113.5l-116 90q83 101 183.5 149t237.5 48q127 0 221 -50z" />
    <glyph glyph-name="three" unicode="3" 
d="M759.5 1352.5q96.5 -46.5 148.5 -125t52 -172.5q0 -81 -36.5 -149.5t-98 -113t-134.5 -58.5q84 -7 155 -47.5t114.5 -114.5t43.5 -175q0 -119 -60.5 -214.5t-169 -150.5t-248.5 -55q-122 0 -235 46t-188 138l113 92q57 -67 138 -102t168 -35q95 0 164 34t105.5 97.5
t36.5 149.5q0 261 -285 261h-116l21 133h81q69 0 129 26.5t96.5 81t36.5 132.5q0 74 -34.5 126.5t-93.5 80t-132 27.5q-87 0 -154 -30.5t-138 -96.5l-93 103q168 158 391 158q126 0 222.5 -46.5z" />
    <glyph glyph-name="four" unicode="4" 
d="M1057 335h-178v-335h-162l-1 335h-572v122l404 942l140 -59l-366 -871h396l21 391h140v-391h178v-134z" />
    <glyph glyph-name="five" unicode="5" 
d="M949 1243h-544v-434q61 33 117 46t121 13q113 0 198 -51t131.5 -148.5t46.5 -232.5q0 -137 -57.5 -241t-163 -161t-245.5 -57q-120 0 -217.5 42.5t-181.5 123.5l104 100q62 -65 135 -96t162 -31q137 0 212.5 83t75.5 242q0 156 -67.5 225t-180.5 69q-57 0 -102.5 -10.5
t-112.5 -35.5h-135v688h729z" />
    <glyph glyph-name="six" unicode="6" 
d="M856.5 848.5q88.5 -48.5 140.5 -146t52 -239.5q0 -148 -57.5 -258t-156.5 -169t-219 -59q-241 0 -349 175t-108 499q0 227 61 396t176.5 260.5t274.5 91.5q152 0 272 -80l-66 -114q-95 58 -209 58q-104 0 -179.5 -67.5t-116.5 -191.5t-45 -293q65 96 147 141t185 45
q109 0 197.5 -48.5zM810 204.5q67 91.5 67 254.5q0 161 -63.5 230.5t-180.5 69.5q-95 0 -172.5 -52t-131.5 -143q4 -157 34.5 -256t92 -147t159.5 -48q128 0 195 91.5z" />
    <glyph glyph-name="seven" unicode="7" 
d="M304 29l537 1208h-646v140h815v-129l-549 -1267z" />
    <glyph glyph-name="eight" unicode="8" 
d="M953.5 878.5q-59.5 -73.5 -179.5 -139.5q139 -57 217 -151.5t78 -218.5q0 -112 -58 -201.5t-165 -140t-250 -50.5q-144 0 -249 51t-160.5 139.5t-55.5 198.5q0 232 276 359q-113 54 -166.5 128t-53.5 187q0 119 62.5 200t158 120t192.5 39q106 0 200 -38t153.5 -117
t59.5 -195q0 -97 -59.5 -170.5zM387.5 917q34.5 -45 93 -72t174.5 -64q68 38 109 74t62 81t21 107q0 105 -65 165.5t-182 60.5t-182 -61t-65 -170q0 -76 34.5 -121zM848 509q-44 54 -114.5 87t-210.5 81q-98 -45 -156.5 -118.5t-58.5 -193.5q0 -119 73.5 -185.5t213.5 -66.5
q94 0 161 33t101.5 90.5t34.5 130.5q0 88 -44 142z" />
    <glyph glyph-name="nine" unicode="9" 
d="M827.5 1329q100.5 -68 150.5 -194t50 -301q0 -275 -75 -440.5t-230.5 -263t-428.5 -172.5l-39 128q198 55 324 128.5t193.5 183.5t76.5 271q-134 -164 -322 -164q-115 0 -204 53t-139.5 152.5t-50.5 234.5q0 143 58.5 245t160 154.5t227.5 52.5q148 0 248.5 -68z
M717.5 684.5q70.5 45.5 135.5 133.5q-2 161 -32 258t-89.5 141t-152.5 44q-134 0 -203 -82t-69 -240q0 -153 65 -226.5t186 -73.5q89 0 159.5 45.5z" />
    <glyph glyph-name="colon" unicode=":" 
d="M458.5 942q21.5 37 58 58.5t81.5 21.5q46 0 83 -21.5t58.5 -58.5t21.5 -81t-21.5 -81.5t-58.5 -59.5t-83 -22q-45 0 -81.5 22t-58 59.5t-21.5 81.5t21.5 81zM458.5 220q21.5 37 58 59t81.5 22t82.5 -22t59 -59t21.5 -80q0 -45 -21.5 -82.5t-58.5 -59t-83 -21.5
q-45 0 -81.5 21.5t-58 59t-21.5 82.5q0 43 21.5 80z" />
    <glyph glyph-name="semicolon" unicode=";" 
d="M681 1000.5q37 -21.5 58.5 -58.5t21.5 -81t-21.5 -81.5t-58.5 -59.5t-83 -22q-45 0 -81.5 22t-58 59.5t-21.5 81.5t21.5 81t58 58.5t81.5 21.5q46 0 83 -21.5zM681 309.5q37 -21.5 58.5 -58t21.5 -80.5q0 -39 -9 -76t-31 -83l-162 -372h-152l96 397q-31 21 -48.5 56.5
t-17.5 76.5q0 44 21.5 81t58 58.5t81.5 21.5q46 0 83 -21.5z" />
    <glyph glyph-name="less" unicode="&#x3c;" 
d="M1026 1059l-706 -433l706 -437l-90 -123l-760 475v172l769 475z" />
    <glyph glyph-name="glyph32" unicode="=" 
d="M989 739h-778v145h778v-145zM989 359h-778v146h778v-146z" />
    <glyph glyph-name="greater" unicode="&#x3e;" 
d="M1026 713v-172l-759 -475l-91 124l706 436l-706 435l81 127z" />
    <glyph glyph-name="glyph34" unicode="?" 
d="M807 1356q90 -43 138 -114t48 -151q0 -77 -26 -132.5t-64 -92t-100 -82.5q-58 -44 -91 -75t-56 -77t-23 -109v-69h-169v79q0 83 28.5 143.5t69 100.5t105.5 89q52 40 82 67.5t50 64.5t20 83q0 83 -66.5 130.5t-170.5 47.5q-75 0 -149 -36.5t-134 -109.5l-120 88
q168 198 420 198q118 0 208 -43zM622 227q31 -18 49 -48.5t18 -66.5q0 -37 -18 -68t-49 -49t-69 -18q-56 0 -94 39t-38 96q0 36 17.5 66.5t47.5 48.5t67 18q38 0 69 -18z" />
    <glyph glyph-name="glyph35" unicode="@" 
d="M943.5 1283.5q133.5 -115.5 180.5 -296.5t47 -418q0 -268 -24 -428.5t-88 -241t-182 -80.5q-77 0 -130.5 47.5t-79.5 114.5t-25 122h-8q-33 -83 -98.5 -138.5t-174.5 -55.5q-156 0 -229 123t-73 335q0 257 101.5 386.5t290.5 129.5q74 0 138 -16t144 -59v-591
q0 -150 37 -206.5t104 -56.5q59 0 86 77t33 196.5t6 339.5q0 215 -33 363t-127.5 235.5t-269.5 87.5q-112 0 -224.5 -40t-229.5 -144l-96 112q129 112 268.5 165t279.5 53q243 0 376.5 -115.5zM318 715.5q-52 -43.5 -74 -129t-22 -219.5q0 -158 36.5 -245t122.5 -87
q63 0 104.5 29t61.5 63.5t40 83.5v518q-31 16 -61 23t-67 7q-89 0 -141 -43.5z" />
    <glyph glyph-name="A" unicode="A" 
d="M322 351l-110 -351h-171l448 1377h222l448 -1377h-182l-110 351h-545zM822 495l-226 736l-229 -736h455z" />
    <glyph glyph-name="B" unicode="B" 
d="M1006 163.5q-73 -87.5 -189 -125.5t-254 -38h-370v1377h339q209 0 348 -80.5t139 -266.5q0 -124 -73 -200t-183 -101q316 -54 316 -336q0 -142 -73 -229.5zM571 1237h-205v-446h222q125 0 189 55.5t64 174.5q0 216 -270 216zM816.5 590q-79.5 58 -215.5 58h-235v-505h227
q127 0 215 53t88 191q0 145 -79.5 203z" />
    <glyph glyph-name="C" unicode="C" 
d="M937.5 1366.5q91.5 -32.5 177.5 -101.5l-97 -113q-122 102 -289 102q-120 0 -214.5 -56t-151 -182t-56.5 -327q0 -197 54 -323t147.5 -183t216.5 -57q105 0 180 31t140 84l90 -114q-70 -68 -172 -109t-240 -41q-170 0 -305.5 83t-213 243.5t-77.5 385.5q0 224 79 384.5
t213 243t297 82.5q130 0 221.5 -32.5z" />
    <glyph glyph-name="D" unicode="D" 
d="M925.5 152q-179.5 -152 -442.5 -152h-316v1377h294q184 0 325 -55.5t230 -206.5t89 -420q0 -391 -179.5 -543zM859 1038q-61 119 -151.5 158t-205.5 39h-162v-1096h164q179 0 297.5 122.5t118.5 433.5q0 224 -61 343z" />
    <glyph glyph-name="E" unicode="E" 
d="M425 771h510v-143h-510v-489h626v-139h-800v1377h782l-20 -142h-588v-464z" />
    <glyph glyph-name="F" unicode="F" 
d="M449 753h540v-140h-540v-613h-172v1377h811l-21 -142h-618v-482z" />
    <glyph glyph-name="G" unicode="G" 
d="M342 56.5q-120 79.5 -185.5 239t-65.5 393.5q0 227 80 387.5t211.5 241.5t284.5 81q129 0 219 -36.5t175 -114.5l-105 -109q-63 59 -133 87t-155 28q-107 0 -195 -55.5t-142 -181.5t-54 -328q0 -295 91 -430.5t275 -135.5q139 0 262 66v420h-271l-21 144h464v-656
q-106 -58 -210.5 -89t-239.5 -31q-165 0 -285 79.5z" />
    <glyph glyph-name="H" unicode="H" 
d="M860 653h-520v-653h-173v1377h173v-582h520v582h173v-1377h-173v653z" />
    <glyph glyph-name="I" unicode="I" 
d="M994 1238h-306v-1099h306v-139h-788v139h306v1099h-306v139h788v-139z" />
    <glyph glyph-name="J" unicode="J" 
d="M993 457q0 -127 -44.5 -235t-149.5 -176.5t-276 -68.5q-103 0 -200 32t-178 93l77 115q83 -53 156.5 -74t142.5 -21q142 0 220.5 91.5t78.5 253.5v768h-408v142h581v-920z" />
    <glyph glyph-name="K" unicode="K" 
d="M210 0v1377h173v-1377h-173zM935 1377h200l-538 -631l576 -746h-216l-564 735z" />
    <glyph glyph-name="L" unicode="L" 
d="M271 1377h174v-1222h628l-20 -155h-782v1377z" />
    <glyph glyph-name="M" unicode="M" 
d="M1139 0h-167l-43 719q-11 192 -11 442v57l-232 -971h-174l-249 971q3 -60 3 -225q0 -169 -5 -272l-37 -721h-163l78 1377h242l223 -943l213 943h244z" />
    <glyph glyph-name="N" unicode="N" 
d="M305 1211q0 -8 1 -28t4 -57q18 -273 18 -436v-690h-161v1377h235l493 -1216l-4 72q-19 266 -19 455v689h161v-1377h-243z" />
    <glyph glyph-name="O" unicode="O" 
d="M1049.5 315q-57.5 -160 -171.5 -249t-278 -89t-278 87t-171.5 246.5t-57.5 374.5q0 212 57.5 373t171.5 251t278 90t278 -88t171.5 -248.5t57.5 -375.5q0 -212 -57.5 -372zM847.5 1112q-77.5 142 -247.5 142t-247.5 -143t-77.5 -426q0 -280 79 -421t246 -141
q170 0 247.5 141t77.5 423q0 283 -77.5 425z" />
    <glyph glyph-name="P" unicode="P" 
d="M971.5 617.5q-142.5 -106.5 -390.5 -106.5h-176v-511h-174v1377h352q253 0 392 -105.5t139 -317.5q0 -230 -142.5 -336.5zM841.5 1171q-86.5 68 -237.5 68h-199v-588h192q158 0 244.5 67.5t86.5 233.5q0 151 -86.5 219z" />
    <glyph glyph-name="Q" unicode="Q" 
d="M1040.5 296q-66.5 -160 -218.5 -243q98 -19 166 -57.5t115.5 -103.5t81.5 -166l-183 -72q-44 113 -96.5 183.5t-131 107t-194.5 36.5q-156 0 -266 86.5t-166.5 245t-56.5 372.5q0 212 58 373t172.5 251t277.5 90q164 0 278 -88t172 -248.5t58 -375.5q0 -231 -66.5 -391z
M848 1111.5q-79 142.5 -249 142.5t-249 -143t-79 -426q0 -279 80.5 -420.5t247.5 -141.5q171 0 249.5 141.5t78.5 422.5q0 282 -79 424.5z" />
    <glyph glyph-name="R" unicode="R" 
d="M982 745.5q-93 -97.5 -243 -134.5l408 -611h-208l-376 591h-186v-591h-174v1377h354q255 0 386.5 -98t131.5 -288q0 -148 -93 -245.5zM813.5 1180.5q-75.5 58.5 -236.5 58.5h-200v-512h200q154 0 233 62.5t79 201.5q0 131 -75.5 189.5z" />
    <glyph glyph-name="S" unicode="S" 
d="M1013.5 170.5q-59.5 -91.5 -173 -142.5t-270.5 -51q-149 0 -272 45.5t-211 130.5l103 116q75 -71 168.5 -108.5t214.5 -37.5q86 0 159 28.5t117 86t44 140.5q0 69 -26.5 115t-91.5 82.5t-184 71.5q-147 43 -243 93.5t-148.5 124.5t-52.5 180q0 102 56.5 182.5t158 126
t231.5 45.5q138 0 244.5 -39.5t195.5 -117.5l-102 -113q-71 63 -156 94t-176 31q-77 0 -139.5 -22.5t-99 -68.5t-36.5 -112q0 -61 32 -103t106 -77t209 -75q124 -36 210 -82.5t139 -127t53 -205.5q0 -119 -59.5 -210.5z" />
    <glyph glyph-name="T" unicode="T" 
d="M683 0h-173v1228h-430v149h1039l-18 -149h-418v-1228z" />
    <glyph glyph-name="U" unicode="U" 
d="M1055 446q0 -139 -56 -245t-159.5 -165t-241.5 -59q-139 0 -241.5 59t-157 165t-54.5 245v931h172v-937q0 -155 72.5 -234t208.5 -79q137 0 209.5 79t72.5 234v937h175v-931z" />
    <glyph glyph-name="V" unicode="V" 
d="M976 1377h175l-461 -1377h-180l-461 1377h187l368 -1180z" />
    <glyph glyph-name="W" unicode="W" 
d="M981 0h-228l-158 1039l-159 -1039h-233l-194 1377h174l147 -1186l165 1026h213l157 -1026l165 1186h161z" />
    <glyph glyph-name="X" unicode="X" 
d="M298 1377l302 -529l303 529h188l-391 -634l438 -743h-199l-343 622l-347 -622h-187l432 734l-395 643h199z" />
    <glyph glyph-name="Y" unicode="Y" 
d="M688 0h-176v529l-465 848h192l365 -690l369 690h180l-465 -846v-531z" />
    <glyph glyph-name="Z" unicode="Z" 
d="M1055 150l-21 -150h-891v141l728 1088h-656v148h842v-142l-723 -1085h721z" />
    <glyph glyph-name="bracketleft" unicode="[" 
d="M368 1631h501v-145h-342v-1574h342v-143h-501v1862z" />
    <glyph glyph-name="backslash" unicode="\" 
d="M239 1619l856 -1765l-136 -60l-854 1759z" />
    <glyph glyph-name="bracketright" unicode="]" 
d="M832 -231h-501v142h342v1575h-342v145h501v-1862z" />
    <glyph glyph-name="asciicircum" unicode="^" 
d="M1053 1054h-183l-272 474l-271 -474h-180l378 625h150z" />
    <glyph glyph-name="underscore" unicode="_" 
d="M100 -216h1000v-147h-1000v147z" />
    <glyph glyph-name="grave" unicode="`" 
d="M369 1430l90 143l369 -236l-55 -93z" />
    <glyph glyph-name="a" unicode="a" 
d="M975 138.5q20 -29.5 66 -43.5l-41 -118q-152 20 -193 148q-56 -73 -141.5 -110.5t-188.5 -37.5q-104 0 -181 40t-118 113.5t-41 171.5q0 163 127 250t367 87h155v88q0 110 -64 159.5t-187 49.5q-119 0 -274 -54l-44 127q176 66 344 66q193 0 293.5 -90.5t100.5 -249.5
v-505q0 -62 20 -91.5zM668.5 144.5q70.5 39.5 117.5 109.5v271h-152q-167 0 -242 -57t-75 -164q0 -199 203 -199q78 0 148.5 39.5z" />
    <glyph glyph-name="b" unicode="b" 
d="M504 1034q76 41 165 41q204 0 299.5 -144.5t95.5 -403.5q0 -161 -48 -285.5t-142 -194.5t-227 -70q-92 0 -163 32.5t-124 99.5l-12 -109h-147v1477l168 21v-582q59 77 135 118zM811 216.5q70 103.5 70 311.5q0 205 -63 308.5t-185 103.5q-81 0 -148 -48t-116 -121v-522
q42 -64 104.5 -100t133.5 -36q134 0 204 103.5z" />
    <glyph glyph-name="c" unicode="c" 
d="M951 214l82 -110q-69 -58 -166 -92.5t-190 -34.5q-155 0 -266.5 67t-169.5 190t-58 288q0 159 59 284.5t171 197t266 71.5q201 0 352 -122l-82 -112q-136 94 -272 94q-93 0 -163 -46t-109.5 -139t-39.5 -228q0 -202 84.5 -301t227.5 -99q141 0 274 92z" />
    <glyph glyph-name="d" unicode="d" 
d="M999 1477v-1477h-147l-16 139q-58 -82 -134 -122t-165 -40q-200 0 -300.5 147t-100.5 401q0 159 49.5 284t143 195.5t220.5 70.5q90 0 159.5 -31t122.5 -93v547zM389.5 835.5q-70.5 -104.5 -70.5 -310.5q0 -204 64.5 -308t188.5 -104q149 0 259 166v526
q-43 64 -104.5 99.5t-133.5 35.5q-133 0 -203.5 -104.5z" />
    <glyph glyph-name="e" unicode="e" 
d="M379 270.5q42 -78.5 110 -116t152 -37.5q78 0 143.5 23t137.5 72l79 -111q-74 -58 -169.5 -91t-192.5 -33q-151 0 -260 68t-165.5 192t-56.5 288q0 159 57 284t161 195.5t242 70.5q132 0 228.5 -62t148 -178.5t51.5 -275.5q0 -46 -4 -92h-708q4 -118 46 -196.5z
M420.5 851.5q-76.5 -85.5 -86.5 -254.5h549q-3 166 -73 253t-191 87q-122 0 -198.5 -85.5z" />
    <glyph glyph-name="f" unicode="f" 
d="M974 1483.5q69 -14.5 134 -42.5l-54 -125q-98 44 -226 44q-221 0 -221 -175v-214h357l-18 -132h-339v-839h-168v839h-251v132h251v210q0 95 50 167t137 111t197 39q82 0 151 -14.5z" />
    <glyph glyph-name="g" unicode="g" 
d="M1109 1007q-62 -19 -132.5 -25t-175.5 -6q183 -84 183 -265q0 -104 -47.5 -185.5t-137 -127t-211.5 -45.5q-52 0 -87.5 4.5t-69.5 15.5q-24 -17 -39.5 -44.5t-15.5 -57.5q0 -41 32 -64.5t109 -23.5h190q104 0 189.5 -37.5t134 -103t48.5 -145.5q0 -155 -131 -238
t-372 -83q-166 0 -263.5 34t-139.5 103.5t-42 179.5h152q0 -65 24.5 -103.5t88 -57.5t179.5 -19q172 0 253 43t81 130q0 73 -66 112t-172 39h-188q-87 0 -147 27t-89 72t-29 99q0 51 30 99t86 85q-91 48 -134 119t-43 172q0 105 53.5 188.5t149 130.5t217.5 47
q127 0 210 10.5t139.5 28.5t130.5 50zM391.5 887q-62.5 -66 -62.5 -177q0 -112 63.5 -178.5t188.5 -66.5q110 0 169.5 64.5t59.5 181.5q0 119 -59 180.5t-174 61.5q-123 0 -185.5 -66z" />
    <glyph glyph-name="h" unicode="h" 
d="M369 909q61 80 150.5 123t185.5 43q151 0 223.5 -80t72.5 -230v-765h-168v761q0 94 -44 138t-138 44q-83 0 -159 -52.5t-123 -123.5v-767h-168v1475l168 18v-584z" />
    <glyph glyph-name="i" unicode="i" 
d="M689 1512.5q34 -33.5 34 -83.5q0 -52 -34 -86t-89 -34q-53 0 -87 34.5t-34 85.5q0 50 34 83.5t87 33.5q55 0 89 -33.5zM734 133h297v-133h-790v133h325v787h-315v133h483v-920z" />
    <glyph glyph-name="j" unicode="j" 
d="M822.5 1512.5q34.5 -33.5 34.5 -83.5q0 -52 -34.5 -86t-89.5 -34q-53 0 -86.5 34t-33.5 86q0 50 33.5 83.5t86.5 33.5q55 0 89.5 -33.5zM890 169q0 -255 -170 -396.5t-501 -196.5l-28 130q255 42 393 147t138 305v762h-438v133h606v-884z" />
    <glyph glyph-name="k" unicode="k" 
d="M380 0h-168v1477l168 21v-1498zM609 579l529 -579h-221l-518 575l466 478h218z" />
    <glyph glyph-name="l" unicode="l" 
d="M611 260q0 -74 46.5 -108.5t127.5 -34.5q85 0 177 37l45 -123q-48 -24 -112 -39t-138 -15q-93 0 -164.5 35t-110.5 101t-39 156v1075h-323v133h491v-1217z" />
    <glyph glyph-name="m" unicode="m" 
d="M1042 1012.5q57 -62.5 57 -228.5v-784h-156v757q0 75 -5 112.5t-22 56t-54 18.5q-103 0 -184 -126v-818h-157v757q0 75 -5 112.5t-22 56t-54 18.5q-103 0 -184 -126v-818h-155v1053h132l10 -122q48 69 102 106.5t127 37.5q149 0 191 -139q47 68 101.5 103.5t130.5 35.5
q90 0 147 -62.5z" />
    <glyph glyph-name="n" unicode="n" 
d="M201 1053h143l13 -146q63 79 158.5 123.5t189.5 44.5q151 0 223.5 -80t72.5 -230v-765h-168v641q0 118 -12.5 180t-51 92t-116.5 30q-85 0 -160.5 -52.5t-123.5 -123.5v-767h-168v1053z" />
    </font>
</defs>
</svg>
