<svg xmlns="http://www.w3.org/2000/svg" xmlns:xlink="http://www.w3.org/1999/xlink" version="1.1"><metadata>Created by FontForge 20170731 at Mon Feb 27 14:34:17 2023 By Aleksey,,, Copyright 2020 The Roboto Serif Project Authors (https://github.com/googlefonts/RobotoSerif)</metadata><defs><font id="RobotoSerif-Bold" horiz-adv-x="560"><font-face x-height="540" ascent="800" bbox="-566 -355 1496 1242" cap-height="710" descent="-200" font-family="Roboto Serif" font-stretch="normal" font-weight="700" panose-1="0 0 0 0 0 0 0 0 0 0" underline-position="-300" underline-thickness="100" unicode-range="U+000D-FB04" units-per-em="1000"/><glyph d="M24 540h423v-78h-423v78zM411 540h412v-78h-412v78zM503 75v505q0 73 33 113.5t88.5 57.5t123.5 17q42 0 75 -4t44 -8v-84q-7 2 -20.5 5.5t-32 6t-40.5 2.5q-31 0 -52.5 -8.5t-33 -30.5t-11.5 -60v-512q0 -3 12.5 -5.5t31 -3t34.5 -0.5h17v-66h-339v66h10q15 0 28.5 0.5 t22.5 3t9 5.5zM291 75q0 -3 8.5 -5.5t22.5 -3t29 -0.5h9v-66h-327v66h18q31 0 48 11.5t17 40.5v450q0 72 28.5 112.5t76.5 57.5t107 17q34 0 61 -4t37 -7v-81q-8 2 -25 6t-37 4q-25 0 -41 -7.5t-24 -26.5t-8 -54v-510z" glyph-name="f_f" horiz-adv-x="844" unicode="ff"/><glyph d="M24 540h424v-78h-424v78zM411 540h450v-78h-450v78zM503 75v506q0 53 16 89.5t44.5 58t65.5 30.5t79 9q32 0 57.5 -4t35.5 -8v-80q-5 2 -14 4.5t-20 4t-24 1.5q-22 0 -36.5 -7.5t-22 -26t-7.5 -52.5v-525q0 -3 9 -5.5t23 -3t29 -0.5h10v-66h-315v66h10q15 0 29 0.5 t22.5 3t8.5 5.5zM291 75q0 -3 8.5 -5.5t22.5 -3t29 -0.5h9v-66h-327v66h18q31 0 48 11.5t17 40.5v450q0 72 28.5 112.5t76.5 57.5t107 17q34 0 61 -4t37 -7v-81q-8 2 -25 6t-37 4q-25 0 -41 -7.5t-24 -26.5t-8 -54v-510zM971 609q-46 0 -73 21.5t-27 63.5t27 63.5t73 21.5 q47 0 73.5 -21.5t26.5 -63.5t-26.5 -63.5t-73.5 -21.5zM889 75v355q0 8 -6 14t-16.5 10t-24 6t-29.5 2h-12l9 78h255v-424q0 -29 15.5 -39.5t41.5 -10.5h3v-66h-304v66h11q12 0 25.5 0.5t22.5 3t9 5.5z" glyph-name="f_f_i" horiz-adv-x="1146" unicode="ffi"/><glyph d="M24 540h423v-78h-423v78zM291 75q0 -3 8.5 -5.5t22.5 -3t29 -0.5h9v-66h-327v66h18q31 0 48 11.5t17 40.5v450q0 72 28.5 112.5t76.5 57.5t107 17q34 0 61 -4t37 -7v-81q-8 2 -25 6t-37 4q-25 0 -41 -7.5t-24 -26.5t-8 -54v-510zM411 540h384v-78h-384v78zM824 0v66h8 q13 0 26.5 0.5t22 3t8.5 5.5v626l-87 55h263v-640q0 -29 15.5 -39.5t41.5 -10.5h3v-66h-301zM748 0h-315v66h10q15 0 29 0.5t22.5 3t8.5 5.5v505q0 54 18.5 90t52 57.5t79 31t99.5 9.5q51 0 91 -8.5t69 -22t48 -29.5l-32 -80q-14 19 -36 31.5t-50.5 19.5t-62.5 7 q-37 0 -59.5 -8.5t-32.5 -28.5t-10 -56v-518q0 -3 9 -5.5t23 -3t29 -0.5h10v-66z" glyph-name="f_f_l" horiz-adv-x="1147" unicode="ffl"/><glyph d="M905 275q0 45 -6 78.5t-18.5 56t-32 33.5t-47.5 11q-31 0 -56 -14t-48 -42.5t-49 -72.5l-18 44q28 59 58.5 99t69.5 61t93 21q75 0 127.5 -34.5t79.5 -96.5t27 -144t-29.5 -147t-84 -102t-131.5 -37q-57 0 -98 20t-70 59t-52 97l28 40q23 -38 44 -64.5t45 -41t56 -14.5 q29 0 50 12t34.5 36.5t20.5 59.5t7 82zM503 691l-88 65h263v-633l-11 -5l-57 -128h-107v701zM24 540h384v-78h-384v78zM291 593v-518q0 -3 9.5 -5.5t24.5 -3t31 -0.5h14v-66h-337v66h18q31 0 48 11.5t17 40.5v462q0 54 18.5 90t52.5 57.5t79.5 31t99.5 9.5q51 0 90.5 -8.5 t69 -22t48.5 -29.5l-32 -80q-13 18 -35 31t-51 20t-64 7q-36 0 -58.5 -8.5t-32.5 -28.5t-10 -56z" glyph-name="f_b" horiz-adv-x="1124" unicode="fb"/><glyph d="M1291 275q0 45 -5.5 78.5t-18 56t-32 33.5t-47.5 11q-32 0 -56.5 -14t-47.5 -42.5t-49 -72.5l-18 44q28 59 58 99t69 61t93 21q76 0 128 -34.5t79.5 -96.5t27.5 -144t-30 -147t-84.5 -102t-130.5 -37q-57 0 -98 20t-70.5 59t-51.5 97l28 40q23 -38 44 -64.5t45 -41 t55 -14.5q29 0 50 12t35 36.5t20.5 59.5t6.5 82zM24 540h423v-78h-423v78zM411 540h384v-78h-384v78zM1065 756v-633l-12 -5l-56 -128h-108v699l-86 67h262zM116 118v450q0 72 28.5 112.5t76.5 57.5t107 17q34 0 61 -4t37 -7v-81q-8 2 -25 6t-37 4q-25 0 -41 -7.5t-24 -26.5 t-8 -54v-510q0 -3 8.5 -5.5t22.5 -3t29 -0.5h9v-66h-327v66h18q31 0 48 11.5t17 40.5zM752 0h-319v66h10q15 0 29 0.5t22.5 3t8.5 5.5v505q0 54 18.5 90t52 57.5t79 31t99.5 9.5q51 0 91 -8.5t69 -22t48 -29.5l-32 -80q-14 19 -36 31.5t-50.5 19.5t-62.5 7q-37 0 -59.5 -8.5 t-32.5 -28.5t-10 -56v-518q0 -3 9.5 -5.5t24 -3t29.5 -0.5h12v-66z" glyph-name="f_f_b" horiz-adv-x="1510" unicode="ffb"/><glyph d="M24 540h423v-78h-423v78zM291 75q0 -3 8.5 -5.5t22.5 -3t29 -0.5h9v-66h-327v66h18q31 0 48 11.5t17 40.5v450q0 72 28.5 112.5t76.5 57.5t107 17q34 0 61 -4t37 -7v-81q-8 2 -25 6t-37 4q-25 0 -41 -7.5t-24 -26.5t-8 -54v-510zM411 540h384v-78h-384v78zM1192 0v66h3 q10 0 21 0.5t19 3t8 5.5v305q0 23 -5.5 38t-18.5 22.5t-35 7.5q-25 0 -48 -12.5t-46 -36.5t-46 -60l-9 59q25 47 58.5 81.5t74.5 53t88 18.5q52 0 88 -18.5t55.5 -55t19.5 -90.5v-271q0 -29 15 -39.5t42 -10.5h3v-66h-287zM824 0v66h8q13 0 26.5 0.5t22 3t8.5 5.5v621 l-88 60h264v-681q0 -3 8 -5.5t19 -3t20 -0.5h4v-66h-292zM433 0v66h10q15 0 29 0.5t22.5 3t8.5 5.5v505q0 54 18.5 90t52 57.5t79 31t99.5 9.5q51 0 91 -8.5t69 -22t48 -29.5l-32 -80q-14 19 -36 31.5t-50.5 19.5t-62.5 7q-37 0 -59.5 -8.5t-32.5 -28.5t-10 -56v-518 q0 -3 9 -5.5t23 -3t29 -0.5h10v-66h-315z" glyph-name="f_f_h" horiz-adv-x="1500" unicode="ffh"/><glyph d="M24 540h420v-78h-420v78zM411 540h450v-78h-450v78zM503 75v506q0 72 28 112.5t74.5 57.5t102.5 17q32 0 57.5 -4t35.5 -8v-80q-5 2 -14 4.5t-20 4t-24 1.5q-22 0 -36.5 -7.5t-22 -26t-7.5 -52.5v-525q0 -3 9 -5.5t23 -3t28 -0.5h11v-66h-315v66h10q15 0 28.5 0.5t22.5 3 t9 5.5zM291 75q0 -3 8.5 -5.5t22.5 -3t29 -0.5h9v-66h-327v66h18q31 0 48 11.5t17 40.5v450q0 72 28.5 112.5t76.5 57.5t107 17q34 0 61 -4t37 -7v-81q-8 2 -25 6t-37 4q-25 0 -41 -7.5t-24 -26.5t-8 -54v-510zM971 609q-46 0 -73 21.5t-27 63.5t27 63.5t73 21.5t73 -21.5 t27 -63.5t-27 -63.5t-73 -21.5zM831 -243q-40 0 -70.5 5t-42.5 9v85q16 -4 38 -9t47 -5q27 0 46 10t29.5 34.5t10.5 66.5v477q0 11 -10.5 18t-27.5 10.5t-38 3.5h-17l8 78h260v-574q0 -59 -16 -99t-47 -64t-74 -35t-96 -11z" glyph-name="f_f_j" horiz-adv-x="1142" unicode="ffj"/><glyph d="M24 540h423v-78h-423v78zM291 75q0 -3 8.5 -5.5t22.5 -3t29 -0.5h9v-66h-327v66h18q31 0 48 11.5t17 40.5v450q0 72 28.5 112.5t76.5 57.5t107 17q34 0 61 -4t37 -7v-81q-8 2 -25 6t-37 4q-25 0 -41 -7.5t-24 -26.5t-8 -54v-510zM1496 0h-309v66h5q10 0 20.5 1t17.5 3 t7 5l-144 199v18l181 166q0 6 -12 9.5t-29.5 5t-32.5 1.5h-10v66h274v-66h-11q-21 0 -38 -4t-31 -12.5t-30 -22.5l-172 -160l37 87l197 -261q11 -14 22.5 -21.5t25 -10.5t27.5 -3h5v-66zM411 540h384v-78h-384v78zM1115 0h-291v66h8q13 0 26.5 0.5t22 3t8.5 5.5v614l-86 67 h262v-681q0 -3 7.5 -5.5t18.5 -3t19 -0.5h5v-66zM677 75q0 -3 9 -5.5t23 -3t29 -0.5h10v-66h-315v66h10q15 0 29 1t22.5 3t8.5 5v505q0 54 18.5 90t52 58t79 31t99.5 9q51 0 91 -8.5t69 -22t48 -29.5l-32 -80q-14 19 -36 31.5t-50.5 19.5t-62.5 7q-37 0 -59.5 -8.5 t-32.5 -28.5t-10 -56v-518z" glyph-name="f_f_k" horiz-adv-x="1514" unicode="ffk"/><glyph d="M24 540h384v-78h-384v78zM805 0v66h3q10 0 21.5 0.5t19.5 3t8 5.5v305q0 23 -6 38t-18.5 22.5t-35.5 7.5q-24 0 -47.5 -12.5t-46.5 -36.5t-46 -60l-9 59q26 47 59 81.5t74 53t88 18.5q52 0 88.5 -18.5t55.5 -55t19 -90.5v-271q0 -29 15.5 -39.5t41.5 -10.5h3v-66h-287z M438 0v66h8q13 0 26 0.5t22 3t9 5.5v613l-88 68h263v-681q0 -3 8 -5.5t19 -3t20 -0.5h4v-66h-291zM33 0v66h18q31 0 48 11.5t17 40.5v462q0 54 18.5 90t52.5 57.5t79.5 31t99.5 9.5q51 0 90.5 -8.5t69 -22t48.5 -29.5l-32 -80q-14 19 -36.5 31.5t-51 19.5t-62.5 7 q-36 0 -58.5 -8.5t-32.5 -28.5t-10 -56v-518q0 -3 9 -5.5t23.5 -3t30.5 -0.5h13v-66h-334z" glyph-name="f_h" horiz-adv-x="1113" unicode="fh"/><glyph d="M24 540h456v-78h-456v78zM585 609q-46 0 -73 21.5t-27 63.5t27 63.5t73 21.5t73 -21.5t27 -63.5t-27 -63.5t-73 -21.5zM436 0v66h10q12 0 25 1t22.5 3t9.5 5v355q0 8 -6.5 14t-17 10t-24 6t-28.5 2h-9l9 78h251v-424q0 -29 16 -39.5t42 -10.5h2v-66h-302zM363 0h-330v66 h18q31 0 48 11.5t17 40.5v463q0 72 28.5 112.5t75 57.5t101.5 17q32 0 58 -4t35 -8v-80q-4 2 -13 4.5t-20.5 4t-24.5 1.5q-22 0 -36.5 -7.5t-21.5 -26t-7 -52.5v-525q0 -3 8.5 -5.5t23 -3t29.5 -0.5h11v-66z" glyph-name="f_i" horiz-adv-x="762" unicode="fi"/><glyph d="M585 609q-47 0 -73.5 21.5t-26.5 63.5t26.5 63.5t73.5 21.5q46 0 72.5 -21.5t26.5 -63.5t-26.5 -63.5t-72.5 -21.5zM24 462v78h456v-78h-456zM444 -243q-40 0 -70 5t-42 9v85q15 -4 37 -9t47 -5q27 0 46.5 10t30 34.5t10.5 66.5v477q0 11 -10.5 18t-28 10.5t-37.5 3.5 h-18l9 78h260v-574q0 -59 -16.5 -99t-47 -64t-74 -35t-96.5 -11zM362 0h-329v66h18q31 0 48 11.5t17 40.5v463q0 72 28.5 112.5t75 57.5t101.5 17q32 0 58 -4t35 -8v-80q-4 2 -13 4.5t-20.5 4t-24.5 1.5q-22 0 -36.5 -7.5t-21.5 -26t-7 -52.5v-525q0 -3 9 -5.5t22.5 -3 t27.5 -0.5h12v-66z" glyph-name="f_j" horiz-adv-x="755" unicode="fj"/><glyph d="M1110 0h-310v66h5q10 0 21 1t18 3t7 5l-144 199v18l180 166q0 6 -12 9.5t-29 5t-33 1.5h-10v66h274v-66h-11q-21 0 -37.5 -4t-31 -12.5t-29.5 -22.5l-173 -160l38 87l196 -261q11 -14 23 -21.5t25 -10.5t28 -3h5v-66zM24 540h384v-78h-384v78zM728 0h-290v66h8 q13 0 26 0.5t22 3t9 5.5v613l-84 68h259v-681q0 -3 8 -5.5t18.5 -3t19.5 -0.5h4v-66zM291 75q0 -3 9 -5.5t23.5 -3t30.5 -0.5h13v-66h-334v66h18q31 0 48 11.5t17 40.5v462q0 54 18.5 90t52.5 57.5t79.5 31t99.5 9.5q51 0 90.5 -8.5t69 -22t48.5 -29.5l-32 -80 q-14 19 -36.5 31.5t-51 19.5t-62.5 7q-36 0 -58.5 -8.5t-32.5 -28.5t-10 -56v-518z" glyph-name="f_k" horiz-adv-x="1128" unicode="fk"/><glyph d="M24 540h384v-78h-384v78zM438 0v66h8q13 0 26 0.5t22 3t9 5.5v626l-84 55h259v-640q0 -29 15.5 -39.5t42.5 -10.5h2v-66h-300zM367 0h-334v66h18q31 0 48 11.5t17 40.5v462q0 54 19 90t52.5 57.5t79 31t99.5 9.5q51 0 90.5 -8.5t69 -22t48.5 -29.5l-32 -80 q-14 19 -36.5 31.5t-51 19.5t-62.5 7q-36 0 -58.5 -8.5t-32.5 -28.5t-10 -56v-518q0 -3 9 -5.5t23.5 -3t30.5 -0.5h13v-66z" glyph-name="f_l" horiz-adv-x="761" unicode="fl"/><glyph d="M0 0v700h400v-700h-400zM50 650v-600h300v600h-300z" glyph-name=".notdef" horiz-adv-x="400"/><glyph glyph-name=".null" horiz-adv-x="400"/><glyph glyph-name="nonmarkingreturn" horiz-adv-x="260"/><glyph glyph-name="space" horiz-adv-x="260"/><glyph d="M274 741h-193q0 -54 4 -100t10.5 -89t13 -87.5t10.5 -95t4 -111.5h109q0 61 4 111.5t10.5 95t13 87.5t10.5 89t4 100zM177 -15q-50 0 -79.5 26.5t-29.5 73.5t29.5 74t79.5 27q51 0 80.5 -27t29.5 -74t-29.5 -73.5t-80.5 -26.5z" glyph-name="exclam" horiz-adv-x="355" unicode="!"/><glyph d="M204 740h-145q0 -36 4 -65t9 -59.5t9.5 -68.5t4.5 -92h91q0 54 4 92t9.5 69t9.5 60t4 64zM406 740h-145q0 -36 4 -65t9 -59.5t9.5 -68.5t4.5 -92h91q0 54 4 92t9.5 69t9.5 60t4 64z" glyph-name="quotedbl" horiz-adv-x="465" unicode="&quot;"/><glyph d="M109 0l164 765h87l-164 -765h-87zM30 204v118h578v-118h-578zM81 466v118h579v-118h-579zM323 0l161 765h89l-163 -765h-87z" glyph-name="numbersign" horiz-adv-x="693" unicode="#"/><glyph d="M235 796h96v-133l-16 -17v-579l16 -20v-173h-96v173l16 18v577l-16 16v138zM281 84q48 0 78.5 10t45 31.5t14.5 56.5q0 28 -12 45.5t-34.5 29t-53 20t-66.5 17.5q-45 12 -83 26.5t-66.5 37t-44 58t-15.5 87.5q0 66 28.5 109.5t83.5 65t133 21.5q53 0 97.5 -8t76.5 -20 t48 -23v-135h-113v113q12 1 21.5 -4t16 -13t9.5 -15t1 -11q-18 15 -42.5 24t-53 13.5t-60.5 4.5q-48 0 -78 -9t-43.5 -27.5t-13.5 -47.5q0 -27 12 -42.5t33 -25.5t47.5 -16.5t55.5 -13.5q52 -13 94.5 -29t73.5 -39t48.5 -58.5t17.5 -88.5q0 -72 -29.5 -121t-85.5 -73.5 t-138 -24.5q-61 0 -111.5 10t-87 24.5t-57.5 27.5v147h122v-125q-12 0 -23.5 5.5t-20.5 14.5t-13.5 17.5t-3.5 11.5q18 -14 45 -27.5t64 -22t83 -8.5z" glyph-name="dollar" unicode="$"/><glyph d="M193 365q-50 0 -89 22.5t-60.5 64t-21.5 99.5q0 57 21.5 98.5t60.5 64t89 22.5q51 0 89.5 -22.5t60 -64t21.5 -98.5q0 -58 -21.5 -99.5t-60 -64t-89.5 -22.5zM193 430q18 0 29 11.5t17 38t6 71.5q0 44 -6 70t-17 37.5t-29 11.5q-17 0 -28.5 -11.5t-17 -37.5t-5.5 -70 q0 -45 5.5 -71.5t17 -38t28.5 -11.5zM586 -16q-51 0 -89.5 22.5t-60 64t-21.5 98.5t21.5 99t60 64.5t89.5 22.5t89 -22.5t60 -64t22 -99.5q0 -57 -22 -98.5t-60 -64t-89 -22.5zM50 0l575 710h101l-575 -710h-101zM586 49q17 0 28.5 11.5t17 38t5.5 70.5q0 45 -5.5 71 t-17 37.5t-28.5 11.5q-18 0 -29.5 -11.5t-17 -37.5t-5.5 -71q0 -44 5.5 -70.5t17 -38t29.5 -11.5z" glyph-name="percent" horiz-adv-x="779" unicode="%"/><glyph d="M697 298q-6 -31 -24 -71.5t-48 -82t-73.5 -76.5t-100.5 -56.5t-128 -21.5q-86 0 -149 24t-97 72t-34 121q0 48 17.5 84t50 61.5t76 42.5t94.5 28l24 -36q-30 -14 -50 -34t-30.5 -52t-10.5 -79q0 -49 17 -82.5t50.5 -50t83.5 -16.5q42 0 80.5 15.5t71 42t56.5 59.5 t37.5 68.5t13.5 68.5q0 4 -9.5 6t-22.5 3t-26 1h-7v72h215v-72h-11q-19 0 -33 -3t-21.5 -11t-11.5 -25zM779 0h-195q-65 57 -124.5 113.5t-109 111.5t-86.5 109t-57 105t-20 99q0 60 28.5 100t79.5 60.5t118 20.5q98 0 147.5 -38.5t49.5 -103.5q0 -41 -19 -71.5t-54 -53 t-81.5 -39.5t-101.5 -31l-25 54q41 13 69.5 25.5t46 27t25.5 34t8 46.5q0 38 -14 54.5t-46 16.5q-24 0 -40 -8.5t-24 -28.5t-8 -55q0 -36 13 -73t40 -76.5t67 -83.5t94 -94.5t121 -110.5q15 -12 26 -19.5t22.5 -11t26.5 -3.5h23v-76z" glyph-name="ampersand" horiz-adv-x="807" unicode="&amp;"/><glyph d="M204 740h-145q0 -36 4 -65t9 -59.5t9.5 -68.5t4.5 -92h91q0 54 4 92t9.5 69t9.5 60t4 64z" glyph-name="quotesingle" horiz-adv-x="263" unicode="'"/><glyph d="M204 310q0 78 15.5 145t42 122.5t59.5 98t68 71.5v3h-111q-47 -29 -88.5 -73.5t-73 -101t-49.5 -123.5t-18 -142t18 -142t49.5 -123.5t73 -101t88.5 -73.5h111v3q-35 29 -68 71.5t-59.5 98t-42 122.5t-15.5 145z" glyph-name="parenleft" horiz-adv-x="399" unicode="("/><glyph d="M195 310q0 -78 -15.5 -145t-42 -122.5t-59.5 -98t-68 -71.5v-3h111q47 29 88 73.5t73 101t50 123.5t18 142t-18 142t-50 123.5t-73 101t-88 73.5h-111v-3q35 -29 68 -71.5t59.5 -98t42 -122.5t15.5 -145z" glyph-name="parenright" horiz-adv-x="399" unicode=")"/><glyph d="M104 363l-59 102q23 14 44.5 21.5t44 14t48 16t55.5 26.5l30 -51q-30 -18 -50.5 -35.5t-37.5 -33.5t-34.5 -31t-40.5 -29zM210 752h117q0 -27 -4.5 -49.5t-9.5 -45t-9.5 -49.5t-4.5 -62h-61q0 35 -4.5 62t-9.5 49.5t-9.5 45t-4.5 49.5zM45 589l59 101q22 -13 40 -28 t34.5 -31t37.5 -33.5t50 -35.5l-29 -51q-30 17 -56 26.5t-48 16t-43.5 14t-44.5 21.5zM211 303q0 26 4 48.5t9.5 45.5t10 49.5t4.5 61.5h60q1 -35 5.5 -61.5t9.5 -49.5t9.5 -45.5t4.5 -48.5h-117zM301 511l-30 51q30 18 50.5 35.5t37.5 33.5t34.5 31.5t40.5 28.5l58 -102 q-23 -14 -44 -21.5t-43.5 -14t-48 -16t-55.5 -26.5zM434 364q-23 13 -40.5 28t-34 31t-37 33.5t-50.5 35.5l29 51q31 -17 56 -26.5t47.5 -16t44 -14t43.5 -21.5z" glyph-name="asterisk" horiz-adv-x="538" unicode="*"/><glyph d="M220 571h119v-466h-119v466zM506 394v-112h-452v112h452z" glyph-name="plus" unicode="+"/><glyph d="M143 -202l-95 71q55 19 91.5 40t55.5 48t20 64q1 11 3.5 15t6.5 2t9 -7t11 -12q-8 -10 -19.5 -16t-24.5 -8.5t-28 -2.5q-46 0 -74 23.5t-28 67.5q0 45 30 72.5t83 27.5q38 0 65.5 -13.5t42.5 -43.5t15 -78q0 -59 -18.5 -104.5t-55 -81t-90.5 -64.5z" glyph-name="comma" horiz-adv-x="372" unicode=","/><glyph d="M72 354h347v-129h-347v129z" glyph-name="hyphen" horiz-adv-x="491" unicode="-"/><glyph d="M177 -15q-50 0 -80 26.5t-30 73.5t30 74t80 27t80 -27t30 -74t-30 -73.5t-80 -26.5z" glyph-name="period" horiz-adv-x="354" unicode="."/><glyph d="M536 759h-120l-421 -909h120z" glyph-name="slash" horiz-adv-x="531" unicode="/"/><glyph d="M280 -11q-56 0 -103 21.5t-80.5 63.5t-52 104t-18.5 143q0 82 18.5 144t52 104t80.5 63.5t103 21.5t103 -21.5t80.5 -63.5t52 -104t18.5 -144q0 -81 -18.5 -143t-52 -104t-80.5 -63.5t-103 -21.5zM280 69q23 0 39.5 12.5t27 41t15 77t4.5 121.5q0 74 -4.5 122.5t-15 77 t-27 41t-39.5 12.5t-39.5 -12.5t-27 -41t-15 -77t-4.5 -122.5q0 -72 4.5 -121t15 -77.5t27 -41t39.5 -12.5z" glyph-name="zero" unicode="0"/><glyph d="M396 112q0 -17 13.5 -26t38 -12.5t56.5 -3.5h27v-70h-455v70h41q31 0 55 3.5t37.5 12.5t13.5 26v447l18 9q-8 -32 -24.5 -53.5t-40.5 -34.5t-54 -18.5t-66 -4.5v104q41 1 72.5 6t55 15t41 25t30.5 35h141v-530z" glyph-name="one" unicode="1"/><glyph d="M318 121h-232q-5 -4 -5.5 -9t3.5 -8t11 -2q59 31 117.5 61.5t111 63t93 69.5t63.5 80t23 94q0 59 -25.5 100t-77.5 62t-130 21q-54 0 -98 -11.5t-76.5 -29t-51.5 -34.5v-142h134v138q-10 1 -18.5 -4.5t-14.5 -14t-9 -17t-1 -15.5q10 13 26.5 24.5t38.5 18.5t48 7 q29 0 48.5 -9.5t29 -31.5t9.5 -60q0 -45 -13.5 -81t-39.5 -66t-62.5 -58t-82.5 -57t-101 -63v-147h482v227h-78l-9 -66q-2 -17 -13.5 -25.5t-35.5 -11.5t-64 -3z" glyph-name="two" unicode="2"/><glyph d="M263 313l41 -22v35l-54 -22q72 3 130.5 22.5t94 58.5t35.5 100q0 57 -28.5 94.5t-80 55.5t-120.5 18q-52 0 -95 -10.5t-75 -26.5t-52 -34v-128h130v122q-11 -1 -18.5 -6.5t-11.5 -12t-5.5 -14t0.5 -13.5q13 16 40 30t68 14q29 0 49 -9t30 -30.5t10 -56.5 q0 -46 -14.5 -75.5t-43 -43t-73.5 -13.5h-62v-81h74q52 0 81 -15.5t40.5 -43.5t11.5 -69q0 -47 -13.5 -75t-39.5 -41t-64 -13q-34 0 -59.5 11.5t-43 29.5t-29.5 39.5t-22 41.5l-77 -45q18 -45 47.5 -81t78.5 -57t124 -21q76 0 135 22.5t93 69t34 116.5q0 41 -15 74t-46.5 56 t-82 35.5t-122.5 13.5z" glyph-name="three" unicode="3"/><glyph d="M27 107v127l235 404h71l-15 -54l-243 -420l11 61h462v-118h-521zM464 -63h-164v655l5 46h159v-701z" glyph-name="four" unicode="4"/><glyph d="M262 -74q83 0 141.5 29t89.5 84.5t31 134.5q0 67 -24.5 117t-72 77.5t-114.5 27.5q-48 0 -81 -13t-55 -36.5t-38 -55.5q2 -5 6.5 -4.5t9.5 4t7 9.5v322l-21 -106h317l19 126h-401v-403h78q12 25 26.5 41.5t33.5 25t45 8.5q33 0 55 -14.5t33 -45t11 -80.5 q0 -56 -12.5 -92.5t-38 -53.5t-63.5 -17q-43 0 -71 16.5t-45.5 43t-28.5 54.5l-81 -44q17 -47 47.5 -82t79 -54t117.5 -19z" glyph-name="five" unicode="5"/><glyph d="M475 662l-12 81q-104 -14 -184.5 -50.5t-136 -93.5t-84.5 -133t-29 -170q0 -108 32.5 -176t91.5 -99t138 -31q76 0 130 29.5t83 86t29 135.5q0 72 -23 121.5t-65.5 74.5t-102.5 25q-37 0 -65.5 -11t-50 -29.5t-37.5 -43t-27 -51.5l7 -49q13 26 26 45.5t27.5 33t31 20.5 t36.5 7q30 0 47 -17.5t23 -50.5t6 -82q0 -57 -8 -94t-25 -54.5t-46 -17.5q-23 0 -40.5 10t-29 34.5t-17.5 68t-6 109.5q0 89 18 154.5t54 110t88 71t121 36.5z" glyph-name="six" unicode="6"/><glyph d="M237 516h250l-18 22q-25 -21 -61 -60t-76 -93.5t-76 -122.5t-61.5 -149t-32.5 -173h167q5 119 21 204.5t42 149t61 117t78 107.5v124h-480v-257h73l8 88q2 18 13 27.5t33.5 12.5t58.5 3z" glyph-name="seven" unicode="7"/><glyph d="M280 69q23 0 39.5 8t27.5 25t16.5 42.5t5.5 59.5q0 49 -10 78.5t-29.5 43t-49.5 13.5q-29 0 -49 -13.5t-30 -43t-10 -78.5q0 -34 5.5 -59.5t16.5 -42.5t27.5 -25t39.5 -8zM280 416q25 0 41.5 11.5t25 36.5t8.5 66t-8.5 66t-25 37t-41.5 12t-41.5 -12t-25 -37t-8.5 -66 t8.5 -66t25 -36.5t41.5 -11.5zM280 723q72 0 123 -21.5t78 -61.5t27 -95q0 -49 -21 -84.5t-59.5 -57t-92.5 -30.5l35 25v-37l-35 26q61 -9 106.5 -33t71 -63.5t25.5 -94.5q0 -63 -30.5 -109.5t-88.5 -71.5t-139 -25t-139 25t-88.5 71.5t-30.5 109.5q0 55 25.5 94.5t71 63.5 t106.5 33l-35 -26v37l35 -25q-53 9 -92 30.5t-60 57t-21 84.5q0 55 27 95t78.5 61.5t122.5 21.5z" glyph-name="eight" unicode="8"/><glyph d="M81 -9l11 -81q107 11 188.5 44.5t138 89t85.5 132.5t29 175q0 108 -31 175t-88 97.5t-139 30.5q-75 0 -130.5 -27.5t-85.5 -81t-30 -130.5q0 -70 23.5 -118.5t67.5 -74t103 -25.5q49 0 83 18.5t56.5 49.5t37.5 68l-7 49q-17 -35 -34.5 -59t-38 -36t-46.5 -12 q-31 0 -48 17t-23.5 49t-6.5 78q0 42 4.5 72t14.5 48.5t25.5 27.5t37.5 9t39 -9.5t28 -33.5t17 -67t6 -109q0 -94 -18 -160.5t-54.5 -109t-90.5 -66t-124 -30.5z" glyph-name="nine" unicode="9"/><glyph d="M177 -15q-50 0 -80 26.5t-30 73.5t30 74t80 27t80 -27t30 -74t-30 -73.5t-80 -26.5zM177 340q-50 0 -80 26.5t-30 73.5t30 74t80 27t80 -27t30 -74t-30 -73.5t-80 -26.5z" glyph-name="colon" horiz-adv-x="354" unicode=":"/><glyph d="M185 340q-50 0 -80 26.5t-30 73.5t30 74t80 27t80 -27t30 -74t-30 -73.5t-80 -26.5zM144 -202l-95 71q55 19 91.5 40t55.5 48t20 64q1 11 3.5 15t6.5 2t9 -7t11 -12q-8 -10 -19.5 -16t-24.5 -8.5t-28 -2.5q-46 0 -74 23.5t-28 67.5q0 45 30 72.5t83 27.5q38 0 65.5 -13.5 t42.5 -43.5t15 -78q0 -59 -18.5 -104.5t-55 -81t-90.5 -64.5z" glyph-name="semicolon" horiz-adv-x="376" unicode=";"/><glyph d="M476 584v-119l-348 -159l-44 24v67zM476 223v-127l-392 187v72l45 27z" glyph-name="less" unicode="&lt;"/><glyph d="M506 501v-112h-452v112h452zM506 275v-112h-452v112h452z" glyph-name="equal" unicode="="/><glyph d="M90 96v119l348 159l43 -24v-67zM90 457v127l391 -186v-73l-44 -26z" glyph-name="greater" unicode="&gt;"/><glyph d="M217 406v-150h119v103q41 9 81 23.5t73 38t52 58.5t19 84q0 60 -30.5 100.5t-89 61t-144.5 20.5q-60 0 -109.5 -12t-84.5 -28t-51 -30v-137h145v131q-13 -1 -22.5 -6t-15 -12t-7.5 -15t0 -17q13 13 30 23t41.5 16t54.5 6q36 0 60 -10t36 -32t12 -58q0 -38 -12.5 -64.5 t-35 -43.5t-53.5 -28.5t-68 -21.5zM277 -16q-50 0 -79.5 26.5t-29.5 73.5q0 48 29.5 74.5t79.5 26.5q51 0 80.5 -26.5t29.5 -74.5q0 -47 -29.5 -73.5t-80.5 -26.5z" glyph-name="question" horiz-adv-x="606" unicode="?"/><glyph d="M484 -82q54 0 103 8t90 20.5t72 26.5l23 -73q-32 -15 -78 -28.5t-100 -21.5t-110 -8q-98 0 -178.5 25.5t-138 75t-89 122.5t-31.5 167q0 102 36.5 184.5t102.5 141t154.5 90.5t192.5 32q94 0 167 -23.5t123.5 -67t76.5 -105t26 -138.5q0 -71 -18 -125t-50 -91 t-73.5 -55.5t-89.5 -18.5q-32 0 -57 7.5t-43.5 20.5t-31.5 30.5t-22 38.5l-9 -1l41 232l9 -2l43 89h100l-51 -286q-4 -21 -2.5 -35t11 -20.5t28.5 -6.5q33 0 60.5 22.5t45 71.5t17.5 128q0 80 -34 138t-100.5 89.5t-166.5 31.5q-86 0 -158 -26.5t-125 -76t-82 -117.5 t-29 -152q0 -75 24 -133t69 -99t108.5 -61.5t143.5 -20.5zM422 50q-45 0 -81 18t-56.5 55t-20.5 94q0 50 15 96.5t44 83.5t69.5 58.5t90.5 21.5q42 0 68 -16t41 -48t24 -81l-29 -45q-8 44 -18 71t-25 39.5t-37 12.5q-26 0 -45.5 -17t-32.5 -46t-19.5 -66.5t-6.5 -78.5 q0 -31 5 -50t16 -27.5t30 -8.5q21 0 39 14.5t35.5 41t36.5 61.5l31 -32q-29 -51 -53 -84.5t-51.5 -50t-69.5 -16.5z" glyph-name="at" horiz-adv-x="969" unicode="@"/><glyph d="M183 299h275l6 -75h-287zM306 654l25 -26l-168 -532q0 -6 8.5 -11t23.5 -7.5t34 -2.5h11v-75h-223v75h5q24 0 39 11t25 43l187 585h199l190 -593q9 -27 24.5 -36.5t38.5 -9.5h5v-75h-327v75h13q20 0 35 1.5t23.5 4t8.5 5.5z" glyph-name="A" horiz-adv-x="747" unicode="A"/><glyph d="M423 710q61 0 107.5 -10.5t77.5 -32t47 -54t16 -75.5q0 -53 -26 -89t-74 -54t-115 -22l25 25v-51l-21 29q74 -4 127.5 -24.5t83 -58t29.5 -95.5q0 -49 -17.5 -86t-52 -62t-84.5 -37.5t-115 -12.5h-393v75h11q27 0 44.5 7t17.5 29v488q0 22 -17.5 29t-44.5 7h-11v75h385z M254 408h128q36 0 59 12.5t33.5 39t10.5 67.5q0 33 -11 56.5t-33.5 36t-55.5 12.5h-89v-554h94q40 0 66.5 14.5t40 43t13.5 71.5q0 41 -13.5 69.5t-41.5 43t-72 14.5h-129v74z" glyph-name="B" horiz-adv-x="744" unicode="B"/><glyph d="M412 642q-43 0 -76 -18t-55 -53.5t-33 -89.5t-11 -126q0 -74 11.5 -128t34.5 -89t58 -52.5t82 -17.5q58 0 97.5 24t64.5 66.5t39 98.5l76 -33q-19 -74 -57 -128.5t-97.5 -83.5t-144.5 -29q-80 0 -145.5 24.5t-113.5 72.5t-73.5 117t-25.5 158q0 90 26.5 159.5t74 116.5 t110.5 72t135 25q73 0 121.5 -27t77.5 -76t42 -116l-43 30l19 176h83v-242h-98q-14 51 -38 89t-58.5 59t-82.5 21z" glyph-name="C" horiz-adv-x="740" unicode="C"/><glyph d="M38 635v75h359q85 0 154.5 -22t120 -66.5t78 -110.5t27.5 -153t-27.5 -153.5t-78 -112t-120 -69t-154.5 -23.5h-359v75h12q26 0 43.5 7t17.5 29v488q0 21 -17.5 28.5t-43.5 7.5h-12zM383 629h-87v-548h87q48 0 85 17t62.5 52t39 87t13.5 121t-13.5 120t-39 84.5t-62.5 50 t-85 16.5z" glyph-name="D" horiz-adv-x="820" unicode="D"/><glyph d="M637 226v-226h-599v75h11q27 0 44.5 7t17.5 29v488q0 22 -17.5 29t-44.5 7h-11v75h576v-201h-87l-9 77q-2 18 -14.5 27.5t-35 13t-55.5 3.5h-117v-550h122q30 0 51.5 2t35 7t20.5 13.5t9 21.5l13 102h90zM274 400q42 3 83.5 5.5t83 5.5t82.5 5v-103q-41 3 -82.5 5.5 l-83 5t-83.5 5.5v71z" glyph-name="E" horiz-adv-x="686" unicode="E"/><glyph d="M296 630v-532q0 -7 6.5 -12t17 -7t23.5 -3t27 -1h18v-75h-350v75h11q27 0 44.5 7t17.5 29v488q0 22 -17.5 29t-44.5 7h-11v75h579v-202h-88l-9 78q-2 18 -14 27.5t-34.5 13t-55.5 3.5h-120zM274 389q43 3 85 5.5l84 5t84 5.5v-103q-42 3 -84 5.5l-84 5t-85 5.5v71z" glyph-name="F" horiz-adv-x="660" unicode="F"/><glyph d="M711 242v-142q-15 -18 -43.5 -38.5t-68.5 -38.5t-88.5 -29t-102.5 -11q-83 0 -150 24.5t-115 72.5t-74 117t-26 158q0 88 26.5 157t75.5 117.5t113.5 73.5t141.5 25q73 0 122 -26t78.5 -72.5t43.5 -109.5l-44 31l17 164h85v-231h-96q-15 47 -40 82.5t-61 55.5t-84 20 q-46 0 -80 -18.5t-57.5 -54t-35 -89t-11.5 -125.5q0 -76 12 -130.5t35.5 -89t57.5 -51t78 -16.5q34 0 57.5 7.5t39.5 18t25 18.5v130q0 23 -19 30.5t-48 7.5h-20v75h323v-75h-15q-24 0 -38 -7.5t-14 -30.5z" glyph-name="G" horiz-adv-x="806" unicode="G"/><glyph d="M197 406h423v-81h-423v81zM38 0v75h11q27 0 44.5 7t17.5 29v488q0 22 -17.5 29t-44.5 7h-11v75h328v-75h-8q-10 0 -21 -0.5t-20 -2t-15 -3t-6 -4.5v-540q0 -3 6 -4.5t15 -3t20 -2t21 -0.5h8v-75h-328zM479 0v75h8q10 0 21 0.5t20 2t14.5 3t5.5 4.5v540q0 3 -5.5 4.5 t-14.5 3t-20 2t-21 0.5h-8v75h327v-75h-10q-27 0 -44.5 -7t-17.5 -29v-488q0 -22 17.5 -29t44.5 -7h10v-75h-327z" glyph-name="H" horiz-adv-x="845" unicode="H"/><glyph d="M115 111v488q0 22 -17.5 29t-43.5 7h-16v75h340v-75h-15q-27 0 -44.5 -7t-17.5 -29v-488q0 -22 17.5 -29t44.5 -7h15v-75h-340v75h16q26 0 43.5 7t17.5 29z" glyph-name="I" horiz-adv-x="416" unicode="I"/><glyph d="M266 710h352v-75h-15q-27 0 -44 -7t-17 -29v-365q0 -70 -20 -118t-56.5 -77.5t-87.5 -42.5t-113 -13q-59 0 -105 11.5t-78 28.5t-50 32v177h145v-171q-18 5 -31.5 15.5t-21 21.5t-6.5 17.5t13 3.5q11 -11 28 -23.5t39.5 -20.5t51.5 -8q35 0 58.5 14t36 49t12.5 99v370 q0 15 -9 22.5t-24.5 10.5t-33.5 3h-24v75z" glyph-name="J" horiz-adv-x="653" unicode="J"/><glyph d="M38 0v75h11q27 0 44.5 7t17.5 29v488q0 22 -17.5 29t-44.5 7h-11v75h337v-75h-11q-12 0 -24.5 -0.5t-22 -2t-15.5 -3t-6 -4.5v-540q0 -3 5.5 -4.5t13.5 -3t18 -2t19 -0.5h8v-75h-322zM449 0v75h8q15 0 28.5 1t22.5 3.5t9 5.5l-190 257v26l247 257q0 4 -12 5.5t-29.5 3 t-34.5 1.5h-13v75h275v-75h-22q-16 0 -29 -3t-24.5 -9.5t-23.5 -19.5l-241 -250l47 97l257 -348q8 -10 16.5 -16t19 -8.5t23.5 -2.5h12v-75h-346z" glyph-name="K" horiz-adv-x="816" unicode="K"/><glyph d="M380 710h-342v-75h11q27 0 44.5 -7t17.5 -29v-488q0 -22 -17.5 -29t-44.5 -7h-11v-75h592v250h-91l-13 -126q-1 -18 -13.5 -27.5t-37.5 -13t-65 -3.5h-114v519q0 22 19 29t49 7h16v75z" glyph-name="L" horiz-adv-x="667" unicode="L"/><glyph d="M39 0v75h10q19 0 32.5 3t21.5 11t8 22v488q0 15 -8 22.5t-22 10.5t-32 3h-10v75h331l152 -524l-35 51l147 473h324v-75h-11q-27 0 -44.5 -7t-17.5 -29v-488q0 -22 17.5 -29t44.5 -7h11v-75h-326v75h9q12 0 25.5 1t23.5 3.5t10 5.5v602l12 1l-216 -692h-95l-216 692l13 3 v-606q0 -3 9.5 -5.5t23 -3.5t23.5 -1h7v-75h-222z" glyph-name="M" horiz-adv-x="996" unicode="M"/><glyph d="M39 0v75h10q19 0 32.5 3.5t21.5 12.5t8 23v485q0 15 -8 22.5t-22 10.5t-32 3h-10v75h310l281 -560l-21 7v465q0 4 -10 6.5t-25 4.5t-29 2h-13v75h235v-75h-10q-17 0 -31.5 -3.5t-22.5 -10.5t-8 -22v-599h-185l-338 668l26 -8v-572q0 -3 10 -6t25 -5t29 -2h13v-75h-236z" glyph-name="N" horiz-adv-x="802" unicode="N"/><glyph d="M411 -17q-82 0 -149.5 24.5t-116.5 72.5t-75.5 117.5t-26.5 157.5t26.5 157.5t75.5 117t116.5 73t149.5 25.5t149.5 -25.5t116.5 -73t75.5 -117t26.5 -157.5t-26.5 -157.5t-75.5 -117.5t-116.5 -72.5t-149.5 -24.5zM411 68q42 0 74.5 17t54.5 52.5t33.5 89.5t11.5 128 t-11.5 128t-33.5 89.5t-54.5 52.5t-74.5 17t-74.5 -17t-54.5 -52.5t-33.5 -89.5t-11.5 -128t11.5 -128t33.5 -89.5t54.5 -52.5t74.5 -17z" glyph-name="O" horiz-adv-x="822" unicode="O"/><glyph d="M297 85v544h87q37 0 63 -14.5t39.5 -44t13.5 -76.5t-14 -78.5t-40.5 -47t-64.5 -15.5h-113v-80h148q81 0 141 26.5t93 77t33 120.5q0 103 -69.5 158t-193.5 55h-381v-72h10q27 0 44.5 -7t17.5 -29v-494q0 -22 -17.5 -29t-44.5 -7h-10v-72h344v75h-24q-12 0 -23 0.5t-20 2 t-14 3t-5 4.5z" glyph-name="P" horiz-adv-x="712" unicode="P"/><glyph d="M362 0l97 10q0 -45 14 -72t45 -38.5t79 -11.5q35 0 65 5.5t56 13t46 14.5v-140q-29 -10 -70 -16t-83 -6q-82 0 -138 24.5t-84 77.5t-27 139zM411 -17q-82 0 -149.5 24.5t-116.5 72.5t-75.5 117.5t-26.5 157.5t26.5 157.5t75.5 117t116.5 73t149.5 25.5t149.5 -25.5 t116.5 -73t75.5 -117t26.5 -157.5t-26.5 -157.5t-75.5 -117.5t-116.5 -72.5t-149.5 -24.5zM411 68q42 0 74 17t54 52.5t34 89.5t12 128t-11.5 128t-33.5 89.5t-54.5 52.5t-74.5 17t-74.5 -17t-54.5 -52.5t-33.5 -89.5t-11.5 -128t11.5 -128t33.5 -89.5t54.5 -52.5t74.5 -17z" glyph-name="Q" horiz-adv-x="822" unicode="Q"/><glyph d="M378 320l149 -320h223v75h-9q-15 0 -27 3.5t-22.5 13.5t-20.5 28l-124 234zM296 85v547h96q35 0 58.5 -14.5t35 -42.5t11.5 -69q0 -43 -11.5 -74.5t-36 -48.5t-63.5 -17h-114v-77h154q7 3 12 5.5l11 5.5t13 8q73 9 123.5 35.5t76.5 69.5t26 100q0 63 -31 107t-90 67 t-145 23h-384v-75h11q27 0 44.5 -7t17.5 -29v-488q0 -22 -17.5 -29t-44.5 -7h-11v-75h332v75h-13q-11 0 -22 0.5t-20 2t-14 3t-5 4.5z" glyph-name="R" horiz-adv-x="776" unicode="R"/><glyph d="M349 64q41 0 67.5 9.5t39.5 30.5t13 54q0 30 -14 49.5t-39 32.5t-60 23.5t-79 21.5q-43 12 -82.5 27.5t-70 40.5t-48.5 64t-18 97q0 71 31 118t86.5 71.5t129.5 24.5q64 0 107.5 -18.5t71 -58t41.5 -105.5l-38 34l19 135h77v-203h-90q-11 43 -35.5 73.5t-59 46 t-77.5 15.5q-38 0 -62 -10t-35 -29t-11 -47t12.5 -46t36 -29.5t56.5 -20t73 -18.5q46 -11 88.5 -26t76 -40t52.5 -64t19 -97q0 -77 -31.5 -130t-90.5 -80t-143 -27q-67 0 -120 18.5t-89 63.5t-51 123l39 -32l-19 -158h-81v232h97q16 -57 47 -94t73 -54.5t91 -17.5z" glyph-name="S" horiz-adv-x="661" unicode="S"/><glyph d="M280 111v518h-30q-40 0 -64.5 -4.5t-35.5 -15t-12 -28.5l-11 -126h-90v255h672v-255h-91l-10 126q-1 18 -12.5 28.5t-35.5 15t-64 4.5h-30v-518q0 -22 18 -29t45 -7h17v-75h-347v75h17q27 0 45.5 7t18.5 29z" glyph-name="T" horiz-adv-x="746" unicode="T"/><glyph d="M292 269q0 -53 10 -89.5t29.5 -59t47 -32.5t63.5 -10q34 0 62 10.5t48 33t30.5 59t10.5 88.5v346q0 5 -5.5 8.5t-15.5 6t-21.5 4t-22.5 1.5h-10v75h232v-75h-10q-18 0 -32 -3.5t-22 -12t-8 -24.5v-326q0 -76 -21 -130.5t-59 -89t-88 -50.5t-109 -16q-66 0 -120 16.5 t-93.5 50.5t-60 88.5t-20.5 130.5v330q0 22 -17.5 29t-44.5 7h-11v75h331v-75h-10q-10 0 -21.5 -0.5t-20.5 -2t-15 -3t-6 -4.5v-356z" glyph-name="U" horiz-adv-x="784" unicode="U"/><glyph d="M441 58l-26 26l167 530q0 7 -8 11.5t-23 7t-33 2.5h-12v75h223v-75h-5q-24 0 -39 -11t-25 -43l-187 -583h-197l-191 591q-9 28 -24.5 37t-39.5 9h-5v75h327v-75h-14q-19 0 -33.5 -1.5t-23 -3.5t-8.5 -6z" glyph-name="V" horiz-adv-x="745" unicode="V"/><glyph d="M16 710h319v-75h-14q-14 0 -27 -1.5t-21.5 -3.5t-8.5 -6l106 -509l-12 5l138 590h179l134 -591l-15 -5l110 501q0 6 -8 10.5t-20.5 7t-26.5 2.5h-14v75h209v-75h-7q-22 0 -36 -10t-19 -34l-132 -591h-187l-131 588l14 -1l-135 -587h-195l-139 605q-4 20 -18 25t-36 5h-7 v75z" glyph-name="W" horiz-adv-x="1060" unicode="W"/><glyph d="M29 635v75h336v-75h-15q-13 0 -27 -1t-23 -3t-9 -6l155 -224l10 -5l203 -286q15 -22 28 -28.5t35 -6.5h12v-75h-342v75h15q13 0 26.5 1t23 3.5t9.5 5.5l-172 246l-10 5l-186 265q-15 22 -28 28t-35 6h-6zM22 0v75h11q22 0 36.5 10t32.5 36l189 271l60 -44l-177 -255 q0 -5 9.5 -9t23.5 -6.5t27 -2.5h15v-75h-227zM464 347l-52 53l146 217q0 6 -9.5 10t-23 6t-27.5 2h-13v75h223v-75h-6q-22 0 -37.5 -9.5t-33.5 -35.5z" glyph-name="X" horiz-adv-x="755" unicode="X"/><glyph d="M268 308l13 -45l-193 333q-9 15 -18 24t-20 12t-25 3h-7v75h322v-75h-14q-17 0 -30.5 -1.5t-22 -3.5t-8.5 -6l167 -301l-47 -10l164 301q0 7 -8.5 11.5t-22.5 7t-31 2.5h-11v75h222v-75h-7q-14 0 -25.5 -4.5t-21.5 -15t-20 -30.5l-184 -326l14 49v-197q0 -22 18 -29 t45 -7h17v-75h-346v75h17q27 0 45 7t18 29v197z" glyph-name="Y" horiz-adv-x="716" unicode="Y"/><glyph d="M257 629q-25 0 -44 -1.5t-32 -6.5t-20 -13t-9 -22l-9 -96h-88v220h556v-110l-432 -574l-30 55h257q40 0 65 3.5t37 12.5t14 27l13 121h90v-245h-588v114l420 557l27 -42h-227z" glyph-name="Z" horiz-adv-x="666" unicode="Z"/><glyph d="M55 -130v880h290v-81h-148v-718h148v-81h-290z" glyph-name="bracketleft" horiz-adv-x="372" unicode="["/><glyph d="M-5 759l421 -909h120l-421 909h-120z" glyph-name="backslash" horiz-adv-x="531" unicode="\"/><glyph d="M317 -130h-290v81h148v718h-148v81h290v-880z" glyph-name="bracketright" horiz-adv-x="372" unicode="]"/><glyph d="M161 332h-129l157 379h100l-5 -46zM368 332l-123 334l-6 45h106l158 -379h-135z" glyph-name="asciicircum" horiz-adv-x="535" unicode="^"/><glyph d="M-5 -86h524v-85h-524v85z" glyph-name="underscore" horiz-adv-x="514" unicode="_"/><glyph d="M292 745l46 -112v-32h-51l-98 66q-20 12 -35.5 26.5t-23.5 31.5t-8 35q0 28 20.5 48t53.5 20q25 0 43 -10t31 -29t22 -44z" glyph-name="grave" horiz-adv-x="500" unicode="`"/><glyph d="M388 327v-65q-46 -8 -78 -17t-52.5 -20t-32 -24t-16.5 -28.5t-5 -33.5q0 -25 8 -40.5t23.5 -22.5t36.5 -7q22 0 40.5 10t37 32t37.5 56l6 -52q-20 -43 -45.5 -71t-58.5 -41.5t-78 -13.5q-55 0 -93 15.5t-57.5 47t-19.5 79.5q0 43 19 74t60.5 53.5t107 39t160.5 29.5z M392 0l-12 110l-7 -1v291q0 23 -7 39t-24.5 23.5t-50.5 7.5q-46 0 -76.5 -12.5t-42.5 -28.5q-7 6 -7.5 14t5.5 16t17 13.5t28 5.5v-116h-142v127q16 10 47 24.5t78 26t110 11.5q54 0 98 -10t75 -30.5t47.5 -53t16.5 -76.5v-275q0 -11 6 -17t17.5 -9t29.5 -6l6 -2v-72h-212z" glyph-name="a" horiz-adv-x="624" unicode="a"/><glyph d="M418 -11q-51 0 -88.5 16.5t-64.5 47.5t-48 76l4 85q26 -41 48 -69.5t46 -44t56 -15.5q29 0 50 12t34.5 36.5t20 59.5t6.5 82q0 45 -5.5 78.5t-18 56t-32 33.5t-47.5 11q-31 0 -55.5 -14t-49 -44.5t-54.5 -79.5v73q27 53 56 89t66 54t87 18q75 0 127 -34.5t79 -96.5 t27 -144t-29.5 -147t-84 -102t-130.5 -37zM81 650q0 10 -5.5 16t-16.5 10t-29 7l-9 2v73h236v-635l-13 -5l-57 -128h-106v660z" glyph-name="b" horiz-adv-x="700" unicode="b"/><glyph d="M362 74q35 0 61.5 14t46.5 37t34 47l64 -43q-19 -42 -51.5 -74t-77.5 -49t-103 -17q-89 0 -156.5 32.5t-105 95.5t-37.5 153t36.5 152.5t104.5 95t163 32.5q57 0 99.5 -8t70.5 -18.5t41 -18.5v-166h-137v147q13 0 21 -6.5t11.5 -16t3 -18.5t-2.5 -14q-17 16 -41.5 26 t-57.5 10q-46 0 -75 -21.5t-42.5 -65.5t-13.5 -110q0 -51 8.5 -88t26 -61t45 -35.5t64.5 -11.5z" glyph-name="c" horiz-adv-x="597" unicode="c"/><glyph d="M619 106q0 -16 13.5 -22t39.5 -10l7 -2v-72h-215l-14 122l-7 -9v537q0 10 -6 16t-18 9.5t-29 7.5l-9 2v73h238v-652zM281 550q49 0 86 -17.5t65 -51.5t48 -82l-1 -72q-27 43 -49 71t-45.5 42t-55.5 14q-29 0 -50 -12t-34.5 -36t-20 -59.5t-6.5 -82.5q0 -45 5.5 -78.5 t18 -56t32 -33.5t47.5 -11q31 0 55.5 14t49 45t53.5 81l1 -74q-24 -51 -53 -87.5t-66.5 -55.5t-88.5 -19q-75 0 -127.5 34.5t-80 96.5t-27.5 144q0 83 29.5 147.5t84.5 101.5t130 37z" glyph-name="d" horiz-adv-x="701" unicode="d"/><glyph d="M211 267q0 -53 9.5 -90t28 -60t46.5 -33.5t65 -10.5q38 0 65.5 12t48 32.5t35.5 45.5l67 -47q-21 -40 -54 -69t-78 -44t-106 -15q-92 0 -159.5 32t-104.5 94.5t-37 151.5q0 86 35.5 150t99.5 99.5t147 35.5q67 0 116 -20t81.5 -59t49 -97.5t17.5 -136.5h-414v71h272 l-21 -28q-1 57 -7 94t-17 58t-29.5 29.5t-44.5 8.5t-46.5 -10.5t-35 -34t-22 -63t-7.5 -96.5z" glyph-name="e" horiz-adv-x="617" unicode="e"/><glyph d="M24 540h412v-78h-412v78zM481 756v-84q-11 3 -37.5 9t-60.5 6q-30 0 -51 -9t-31 -30.5t-10 -57.5v-515q0 -3 12.5 -5.5t30.5 -3t35 -0.5h17v-66h-353v66h18q31 0 48 11.5t17 40.5v462q0 73 33.5 113.5t89 57.5t123.5 17q41 0 74 -4t45 -8z" glyph-name="f" horiz-adv-x="458" unicode="f"/><glyph d="M668 442q-41 7 -71 9.5t-54 3t-45 -3.5l-21 -5q15 34 32.5 60t40 42.5t51.5 23.5t67 2v-132zM314 173q-75 0 -130.5 22.5t-85.5 65t-30 99.5q0 58 30.5 100.5t86 66.5t129.5 24q75 0 130.5 -24t86.5 -66.5t31 -100.5q0 -57 -31 -99.5t-86.5 -65t-130.5 -22.5zM314 244 q30 0 48.5 12t27.5 37.5t9 65.5q0 41 -9 67t-27.5 38.5t-48.5 12.5q-28 0 -47 -12.5t-28 -38.5t-9 -67q0 -40 9 -65.5t28 -37.5t47 -12zM231 -245q-70 0 -119.5 11.5t-75.5 36.5t-26 66q0 29 15.5 50t49.5 37t89 31l33 -22q-21 -13 -33 -25.5t-17 -25t-5 -29.5 q0 -18 11.5 -31t37 -19.5t67.5 -6.5h104q46 0 76 8.5t44.5 25.5t14.5 41q0 21 -12.5 32t-43.5 11h-289l8 13q-38 8 -64 23.5t-39 39t-13 54.5q0 33 17 59.5t50.5 48t79.5 38.5l45 -20q-22 -13 -36 -24.5t-20.5 -22.5t-6.5 -24q0 -20 14.5 -28.5t44.5 -8.5h222q62 0 104 -16 t63 -48t21 -81q0 -66 -35 -109t-97 -64t-142 -21h-137z" glyph-name="g" horiz-adv-x="679" unicode="g"/><glyph d="M269 758v-683q0 -3 8 -5t19 -3t20 -1h4v-66h-287v66h3q18 0 30.5 4.5t20 15.5t7.5 30v534q0 10 -5.5 16t-17 10t-29.5 7l-9 2v73h236zM683 0h-287v66h3q10 0 21.5 0.5t19 3t7.5 5.5v306q0 22 -5.5 37t-18.5 22.5t-34 7.5q-25 0 -49 -13t-47.5 -39.5t-47.5 -66.5l2 79 q22 43 54.5 75t73 50t85.5 18q52 0 88 -18.5t55.5 -55t19.5 -90.5v-271q0 -19 7 -30t20 -15.5t30 -4.5h3v-66z" glyph-name="h" horiz-adv-x="704" unicode="h"/><glyph d="M176 610q-46 0 -73 22t-27 64t27 63.5t73 21.5t73 -21.5t27 -63.5t-27 -64t-73 -22zM269 540v-426q0 -28 15.5 -38t42.5 -10h2v-66h-295v66h2q27 0 42.5 10t15.5 38v317q0 16 -12.5 22t-39.5 11l-9 2v74h236z" glyph-name="i" horiz-adv-x="352" unicode="i"/><glyph d="M98 -47v478q0 10 -7.5 16.5t-21 10.5t-31.5 6l-12 2v74h247v-574q0 -59 -16.5 -99t-47 -64t-74 -35t-96.5 -11q-40 0 -70 5t-42 10v85q15 -5 37 -10.5t47 -5.5q27 0 46.5 10.5t30 35t10.5 66.5zM179 610q-46 0 -73 22t-27 64t27 63.5t73 21.5q47 0 73.5 -21.5t26.5 -63.5 t-26.5 -64t-73.5 -22z" glyph-name="j" horiz-adv-x="350" unicode="j"/><glyph d="M701 0h-310v66h5q10 0 21 1t18 3t7 5l-144 199v18l181 166q0 6 -12 9.5t-29 5t-33 1.5h-11v66h274v-66h-11q-21 0 -37.5 -4t-31 -12.5t-29.5 -22.5l-174 -160l39 87l196 -261q11 -14 22.5 -21.5t25 -10.5t28.5 -3h5v-66zM269 758v-683q0 -3 8 -5.5t18.5 -3t19.5 -0.5h4 v-66h-285v66h2q18 0 31 4.5t20 15.5t7 30v534q0 10 -5.5 16t-17 10t-29.5 7l-9 2v73h236z" glyph-name="k" horiz-adv-x="719" unicode="k"/><glyph d="M270 758v-644q0 -28 15.5 -38t41.5 -10h3v-66h-296v66h3q27 0 42.5 10t15.5 38v536q0 10 -5.5 16t-17 10t-29.5 7l-9 2v73h236z" glyph-name="l" horiz-adv-x="352" unicode="l"/><glyph d="M33 0v66h3q27 0 42 10.5t15 39.5v315q0 10 -5.5 16t-16.5 9.5t-29 7.5l-9 2v74h217l12 -124l7 -1v-340q0 -3 7.5 -5.5t17.5 -3t19 -0.5h3v-66h-283zM653 0h-271v66h3q9 0 19.5 0.5t17.5 3t7 5.5v305q0 23 -4.5 38t-15.5 22.5t-31 7.5q-22 0 -43 -12t-43.5 -37.5 t-47.5 -66.5l3 79q23 42 54 73.5t69 49t81 17.5q49 0 83.5 -18.5t52.5 -55t18 -90.5v-312q0 -3 7.5 -5.5t18 -3t19.5 -0.5h3v-66zM1001 0h-283v66h3q10 0 20 1t17 3t7 5v305q0 23 -4.5 38t-15.5 22.5t-31 7.5q-22 0 -43.5 -12.5t-43.5 -38t-47 -64.5l3 79q24 42 55 73 t68.5 48.5t80.5 17.5q49 0 83.5 -18.5t52.5 -55t18 -90.5v-271q0 -29 15.5 -39.5t41.5 -10.5h3v-66z" glyph-name="m" horiz-adv-x="1023" unicode="m"/><glyph d="M33 0v66h3q18 0 30.5 4.5t19.5 15.5t7 30v315q0 11 -5.5 16.5t-16.5 9t-29 7.5l-9 2v74h217l12 -122l7 -3v-340q0 -3 8 -5t19 -3t20 -1h4v-66h-287zM683 0h-287v66h3q10 0 21 0.5t19 3t8 5.5v306q0 22 -5.5 37t-18.5 22.5t-35 7.5q-24 0 -48 -13.5t-47.5 -39.5t-48.5 -67 l3 79q22 44 54.5 76t73 50t85.5 18q52 0 88 -18.5t55.5 -55t19.5 -90.5v-271q0 -19 7 -30t19.5 -15.5t30.5 -4.5h3v-66z" glyph-name="n" horiz-adv-x="705" unicode="n"/><glyph d="M632 269q0 -86 -35.5 -149t-102 -97.5t-159.5 -34.5q-94 0 -160.5 34.5t-102 97.5t-35.5 149q0 65 20 117t59 89t94 56.5t125 19.5t124.5 -19.5t93.5 -56.5t59 -89t20 -117zM218 269q0 -69 12 -113.5t38 -65t67 -20.5t66.5 20.5t37.5 65t12 113.5t-12 113t-37.5 64.5 t-66.5 20.5t-67 -20.5t-38 -64.5t-12 -113z" glyph-name="o" horiz-adv-x="669" unicode="o"/><glyph d="M348 -223h-315v66h3q18 0 30.5 4.5t19 15.5t6.5 30v538q0 10 -5.5 16t-16.5 9.5t-29 7.5l-9 2v74h216l14 -143l6 -2v-543q0 -3 10.5 -5t26 -3t30.5 -1h13v-66zM429 -11q-44 0 -79 15t-62.5 44.5t-48.5 70.5l1 82q23 -36 43.5 -62t44 -40t54.5 -14q28 0 49.5 12t35 36.5 t20 59.5t6.5 82q0 45 -5.5 78.5t-18 56t-32 33.5t-47.5 11q-31 0 -55.5 -13.5t-47 -41.5t-48.5 -72v75q24 48 52 81t64 50t85 17q75 0 127 -34.5t79 -96.5t27 -144t-29 -147t-84 -102t-131 -37z" glyph-name="p" horiz-adv-x="711" unicode="p"/><glyph d="M363 -223v66h13q16 0 31 1t25.5 3t10.5 5v574l12 -6l58 124h106v-651q0 -29 15 -39.5t41 -10.5h3v-66h-315zM281 550q53 0 90.5 -17.5t65 -51t46.5 -82.5l-4 -72q-27 43 -49 71t-45.5 42t-55.5 14q-29 0 -50 -12t-34.5 -36t-20 -59.5t-6.5 -82.5q0 -45 5.5 -78.5t18 -56 t32 -33.5t47.5 -11q31 0 55.5 14t49 45t53.5 81l1 -74q-24 -52 -53 -88t-66.5 -55t-88.5 -19q-75 0 -127.5 34.5t-80 96.5t-27.5 144q0 83 29.5 147.5t84.5 101.5t130 37z" glyph-name="q" horiz-adv-x="696" unicode="q"/><glyph d="M465 544v-159q-8 1 -21.5 2.5t-29 2.5t-29.5 1q-22 0 -41.5 -3t-36 -10t-30.5 -17.5t-27 -27.5l-3 38q24 57 47.5 97t54 61t75.5 21q14 0 25 -2t16 -4zM33 0v66h3q27 0 42 10.5t15 39.5v315q0 10 -5.5 16t-16.5 9.5t-29 7.5l-9 2v74h216l14 -156l6 3v-307q0 -6 10.5 -9 t26.5 -4t31 -1h11v-66h-315z" glyph-name="r" horiz-adv-x="496" unicode="r"/><glyph d="M362 134q0 20 -10.5 33t-28.5 21t-41 13.5t-48 11.5q-34 8 -67 18.5t-60 28.5t-43 47t-16 73q0 59 29.5 96.5t83 56.5t125.5 19q58 0 100.5 -7t69 -16t36.5 -15v-122h-126v96q15 2 23 -2t11 -10.5t2.5 -14.5t-2.5 -16q-12 10 -29 16.5t-38 10t-47 3.5q-45 0 -66.5 -14.5 t-21.5 -43.5q0 -19 10 -31t28.5 -20t42.5 -14t51 -12q35 -8 69 -19t62 -29.5t45 -47.5t17 -72q0 -61 -28.5 -102t-86.5 -61.5t-145 -20.5q-56 0 -101 7.5t-76.5 18.5t-48.5 21v132h129v-128q-19 7 -29.5 16.5t-14 19.5t-1 16.5t9.5 6.5q13 -9 32.5 -16.5t45 -12t55.5 -4.5 q34 0 55.5 7t32 22.5t10.5 39.5z" glyph-name="s" horiz-adv-x="556" unicode="s"/><glyph d="M12 460v75h8q25 0 43.5 4t29 16.5t10.5 36.5l104 -52h219v-80h-414zM271 171q0 -35 10 -55t29 -27.5t45 -7.5q24 0 43.5 3.5t26.5 5.5v-85q-10 -4 -29 -7.5t-42 -6t-49 -2.5q-60 0 -107 15t-74.5 53t-27.5 106v359l7 8v162h168v-521z" glyph-name="t" horiz-adv-x="455" unicode="t"/><glyph d="M260 540v-379q0 -22 5.5 -37.5t18.5 -23t34 -7.5q24 0 47 12.5t46.5 39t47.5 67.5l-2 -80q-23 -44 -55.5 -76t-72 -49t-83.5 -17q-51 0 -87 18.5t-55 55.5t-19 89v278q0 16 -12.5 22.5t-39.5 10.5l-12 2v74h239zM610 540v-434q0 -11 6 -17t18 -9t29 -6l7 -2v-72h-215 l-14 124l-7 6v301q0 16 -16 23t-42 10l-18 3v73h252z" glyph-name="u" horiz-adv-x="694" unicode="u"/><glyph d="M489 449q0 5 -9 10t-22.5 8t-30.5 3h-4v70h212v-72h-5q-16 0 -27.5 -4.5t-20 -15.5t-16.5 -30l-153 -421h-177l-151 426q-6 18 -14.5 27.5t-20.5 13.5t-29 4h-5v72h303v-70h-5q-16 0 -31 -1t-24.5 -2.5t-9.5 -5.5l138 -402l-25 36z" glyph-name="v" horiz-adv-x="651" unicode="v"/><glyph d="M490 422l-29 3l113 -428h175l115 420q6 19 14.5 30t21 16t28.5 5h4v72h-211v-70h4q17 0 30.5 -3t22 -8t8.5 -10l-97 -374l28 -4l-125 469h-148l-129 -466l29 -3l-96 390q0 4 9 5.5t24 2.5t31 1h5v70h-301v-72h5q17 0 29 -4t20.5 -13.5t13.5 -27.5l112 -426h175z" glyph-name="w" horiz-adv-x="949" unicode="w"/><glyph d="M641 0h-314v68h2q16 0 29 0.5t21.5 2.5t8.5 5l-135 173l-11 2l-149 188q-8 11 -17 17.5t-19.5 9.5t-27.5 3h-4v71h315v-68h-3q-15 0 -28.5 -0.5t-22 -2t-8.5 -4.5l125 -163l11 -3l158 -197q9 -11 17.5 -18.5t20 -11t28.5 -3.5h3v-69zM18 0v69h2q23 0 39 9.5t32 30.5 l146 183l65 -35l-128 -167q0 -6 8.5 -11t22.5 -8t29 -3h2v-68h-218zM419 259l-64 38l123 154q0 6 -8 11t-20.5 7.5t-27.5 2.5h-4v68h212v-70h-4q-13 0 -24 -3.5t-21.5 -12t-22.5 -22.5z" glyph-name="x" horiz-adv-x="658" unicode="x"/><glyph d="M399 103l-46 -81l-57 -73l-211 478q-7 16 -15 25t-19.5 12t-28.5 3h-6v73h304v-71h-5q-16 0 -31 -0.5t-24 -2t-9 -5.5zM399 17q-30 -69 -58.5 -118t-58 -79.5t-65 -44.5t-81.5 -14q-33 0 -59.5 6.5t-38.5 14.5v121q4 -1 20 -6.5t40 -10.5t50 -5q28 0 50.5 7t42 24.5 t37 48.5t34.5 78l28 42l157 368q0 6 -9 10.5t-23 7t-31 2.5h-5v71h215v-73h-5q-16 0 -27.5 -4.5t-20.5 -15t-18 -29.5z" glyph-name="y" horiz-adv-x="660" unicode="y"/><glyph d="M202 60l-13 19h157q25 0 43 1.5t29.5 6t18 13.5t7.5 23l11 85h75v-208h-492v108l314 372l50 -18h-177q-26 0 -43.5 -1.5t-28.5 -6t-17.5 -12.5t-8.5 -23l-9 -72h-74v193h469v-104z" glyph-name="z" horiz-adv-x="558" unicode="z"/><glyph d="M333 210q0 -18 -9.5 -36.5t-24 -38t-29.5 -40t-24.5 -41t-9.5 -40.5q0 -30 17.5 -47t51.5 -23.5t85 -5.5l-17 -72q-56 -4 -108 -0.5t-92.5 18t-64 43t-23.5 75.5q0 36 15 66.5t38 59t47.5 57t43.5 59.5l2 -29l-182 57v71l182 57l-2 -28q-19 31 -43.5 59t-47.5 56.5 t-38 59.5t-15 66q0 47 23.5 75.5t64 43t92.5 18t108 -0.5l17 -72q-51 2 -85 -5t-51.5 -24t-17.5 -47q0 -20 9.5 -40.5t24.5 -40.5t29.5 -40t24 -38.5t9.5 -36.5t-7.5 -31.5t-26 -24t-51.5 -19.5t-85 -17v-10q52 -9 85 -18t51.5 -19t26 -23.5t7.5 -32.5z" glyph-name="braceleft" horiz-adv-x="417" unicode="{"/><glyph d="M101 771h112v-927h-112v927z" glyph-name="bar" horiz-adv-x="313" unicode="|"/><glyph d="M83 210q0 19 7.5 32.5t26 23.5t52 19t85.5 18v10q-52 8 -85.5 17t-52 19.5t-26 24t-7.5 31.5t10 36.5t24.5 38.5l29 40t24.5 40.5t10 40.5q0 30 -17.5 47t-52 24t-84.5 5l17 72q56 4 107.5 0.5t92 -18t64 -43t23.5 -75.5q0 -35 -15 -66t-37.5 -59.5t-47 -56.5t-43.5 -59 l-2 28l182 -57v-71l-182 -57l2 29q19 -31 43.5 -59.5t47 -57t37.5 -59t15 -66.5q0 -47 -23.5 -75.5t-64 -43t-92 -18t-107.5 0.5l-17 72q50 -1 84.5 5.5t52 23.5t17.5 47q0 20 -10 40.5t-24.5 41t-29 40t-24.5 38t-10 36.5z" glyph-name="braceright" horiz-adv-x="417" unicode="}"/><glyph d="M355 241q-31 0 -53 10.5t-38 26.5t-29 31.5t-26 26t-29 10.5q-19 0 -30 -14.5t-17 -38.5t-12 -52l-84 21q10 64 27 110.5t47.5 72.5t77.5 26q31 0 53 -10.5t38 -26.5t29 -31.5t26 -26t30 -10.5q20 0 31.5 16t19 41t13.5 51l82 -21q-8 -47 -20.5 -85.5t-30.5 -67t-44 -44 t-61 -15.5z" glyph-name="asciitilde" horiz-adv-x="546" unicode="~"/><glyph glyph-name="uni00A0" horiz-adv-x="260"/><glyph d="M268 -192q0 54 -4 99.5t-10.5 88.5t-13 87.5t-10.5 95t-4 112.5h-109q0 -62 -4 -112.5t-10.5 -95t-13 -87.5t-10.5 -88.5t-4 -99.5h193zM171 564q51 0 80.5 -26.5t29.5 -74.5q0 -47 -29.5 -73.5t-80.5 -26.5q-50 0 -79.5 26.5t-29.5 73.5q0 48 29.5 74.5t79.5 26.5z" glyph-name="exclamdown" horiz-adv-x="343" unicode="¡"/><glyph d="M333 66q29 0 51 8.5t38.5 23t29 33.5t23.5 39l68 -40q-19 -45 -50 -77t-74.5 -48.5t-101.5 -16.5q-86 0 -151 32t-101.5 95t-36.5 153q0 91 35 154t100 95.5t154 32.5q56 0 100.5 -8.5t74 -19.5t42.5 -19v-164h-114v148q18 -3 27 -10.5t11 -16t-0.5 -15t-7.5 -7.5 q-12 10 -28.5 18t-39.5 13t-55 5q-39 0 -67 -11.5t-45 -36t-24.5 -63.5t-7.5 -95q0 -57 9 -95.5t28 -62t47 -34t66 -10.5zM269 663h95v-144l-17 -18v-464l17 -14v-169h-95v166l18 17v460l-18 14v152z" glyph-name="cent" unicode="¢"/><glyph d="M25 -12v111q46 15 75 35t43 47.5t14 62.5q0 39 -9.5 69t-23 56t-27.5 51.5t-23 53.5t-9 63q0 60 30.5 102.5t88 65t137.5 22.5q49 0 87.5 -7.5t65.5 -18.5t40 -21v-159h-134v137q13 -1 23.5 -7.5t17 -16t9 -18.5t0.5 -15q-17 19 -41.5 30.5t-59.5 11.5q-31 0 -51 -10.5 t-30 -32.5t-10 -58q0 -37 8.5 -68t19 -62t19 -67t8.5 -84q0 -46 -17.5 -88.5t-51.5 -79t-84 -63.5t-115 -42zM386 -10q-32 0 -55.5 10t-44 29.5t-43 48.5t-52.5 66q-4 5 -1.5 16t10 23t17.5 21t22 12q27 -30 48.5 -50t44 -29.5t51.5 -9.5q26 0 42 9.5t27 31t20 57.5l82 -24 q-10 -56 -30.5 -104t-53.5 -77.5t-84 -29.5zM28 395h410v-88h-410v88z" glyph-name="sterling" unicode="£"/><glyph d="M377 373q0 34 -11.5 57.5t-33 35.5t-52.5 12q-30 0 -52 -12t-33.5 -35.5t-11.5 -57.5t11.5 -57.5t33.5 -35.5t52 -12q31 0 52.5 12t33 35.5t11.5 57.5zM64 373q0 45 17.5 84t48 68.5t69.5 46t81 16.5q43 0 81.5 -16.5t69 -46t48 -68.5t17.5 -84q0 -44 -17.5 -83 t-48 -68.5t-69 -46t-81.5 -16.5q-42 0 -81 16.5t-69.5 46t-48 68.5t-17.5 83zM10 573l77 76l117 -117l-84 -69zM550 573l-110 -110l-84 69l117 117zM10 173l110 110l84 -69l-117 -117zM550 173l-77 -76l-117 117l84 69z" glyph-name="currency" unicode="¤"/><glyph d="M50 381h462v-76h-462v76zM50 233h462v-76h-462v76zM195 375h172v-263q0 -23 18 -30t45 -7h19v-75h-336v75h19q27 0 45 7.5t18 29.5v263zM352 329l-143 1l-146 274q-9 20 -20.5 25.5t-29.5 5.5h-5v75h273v-75h-10q-12 0 -22 -1.5t-16.5 -3.5t-6.5 -6l121 -242l-46 -7 l120 239q0 7 -7 11.5t-18 7t-23 2.5h-6v75h185v-75h-5q-18 0 -31 -9.5t-26 -34.5z" glyph-name="yen" unicode="¥"/><glyph d="M101 771h112v-385h-112v385zM101 229h112v-385h-112v385z" glyph-name="brokenbar" horiz-adv-x="313" unicode="¦"/><glyph d="M291 408l16 -34q-41 -4 -70.5 -14t-45.5 -27t-16 -44q0 -25 13.5 -42t37 -29t54.5 -23t66 -24q38 -14 74 -33t64 -43.5t44.5 -57.5t16.5 -76q0 -62 -30 -106t-84.5 -67.5t-129.5 -23.5q-58 0 -105 10t-80.5 26t-56.5 35v131h142v-126q-12 8 -22.5 19.5t-17.5 23 t-9.5 19.5t0.5 9q18 -22 39 -36.5t47 -22t61 -7.5t57.5 8.5t33.5 26t11 45.5q0 26 -13.5 44t-37 31t-54 24t-64.5 24q-38 15 -74.5 32t-64.5 39t-45 53t-17 74q0 42 18 73.5t51.5 51.5t82 29t108.5 8zM377 83l-12 49q34 8 57 17.5t35.5 25t12.5 38.5q0 22 -14 38t-39 29 t-56.5 25.5t-65.5 25.5q-36 15 -70 34t-62 43.5t-44.5 58t-16.5 77.5q0 57 29.5 96.5t85 59.5t132.5 20q52 0 92.5 -8.5t69.5 -22t43 -28.5v-124h-134v110q10 0 20 -7.5t18 -17.5t11 -20t-1 -15q-13 15 -29 27t-38.5 19t-52.5 7q-37 0 -59.5 -8t-32.5 -23.5t-10 -37.5 q0 -24 13.5 -40.5t36.5 -29t52.5 -23.5t60.5 -24q39 -16 76 -33t66 -38t46 -50t17 -70q0 -55 -26 -92t-79 -58t-132 -30z" glyph-name="section" horiz-adv-x="650" unicode="§"/><glyph d="M214 696q0 -41 -26.5 -63t-71.5 -22t-71 21.5t-26 63.5t26 64t71 22t71.5 -22t26.5 -64zM481 696q0 -41 -26 -63t-72 -22q-44 0 -70.5 21.5t-26.5 63.5t26.5 64t70.5 22q46 0 72 -22t26 -64z" glyph-name="dieresis" horiz-adv-x="500" unicode="¨"/><glyph d="M461 499q-23 0 -40 -8.5t-28 -26t-17 -45t-6 -65.5q0 -50 10.5 -82t32 -46.5t54.5 -14.5q31 0 51.5 12t33.5 34.5t22 51.5l54 -22q-11 -42 -34 -73t-58.5 -48t-84.5 -17q-60 0 -106 24t-72 70t-26 112t25.5 112t70 70t99.5 24q42 0 71 -15.5t46.5 -46.5t23.5 -77l-29 25 l12 105h53v-146h-61q-7 29 -19 50t-31 32t-47 11zM132 355q0 -70 22.5 -128.5t64.5 -101.5t99.5 -66.5t128.5 -23.5q70 0 128 23.5t100 66.5t64.5 101.5t22.5 128.5t-22.5 128.5t-64.5 101.5t-100 66.5t-128 23.5q-71 0 -128.5 -23.5t-99.5 -66.5t-64.5 -101.5t-22.5 -128.5 zM49 355q0 85 29.5 156.5t83 124t126 81.5t159.5 29q86 0 159 -29t126.5 -81.5t83 -124t29.5 -156.5t-29.5 -156.5t-83 -124t-126.5 -81.5t-159 -29q-87 0 -159.5 29t-126 81.5t-83 124t-29.5 156.5z" glyph-name="copyright" horiz-adv-x="894" unicode="©"/><glyph d="M317 558v-53q-39 -5 -63.5 -13.5t-38 -19t-19 -24t-5.5 -30.5t5.5 -27.5t15.5 -15.5t24 -5q25 0 42 16.5t34 50.5l15 -30q-16 -37 -36 -60.5t-46.5 -34.5t-64.5 -11q-42 0 -72 11.5t-45 36t-15 61.5q0 33 14.5 56.5t46 40t83 29t125.5 22.5zM322 309l-9 87l-6 -4v213 q0 17 -5.5 28.5t-18.5 17.5t-38 6q-21 0 -38.5 -4.5t-30.5 -11t-19 -14.5q-2 7 2 16t13.5 16t22.5 8v-79h-123v84q12 12 37.5 24.5t64 20.5t89.5 8q57 0 99.5 -13.5t66.5 -41.5t24 -73v-202q0 -13 10.5 -17t29.5 -8l4 -1v-60h-175z" glyph-name="ordfeminine" horiz-adv-x="540" unicode="ª"/><glyph d="M179 236l1 77l150 -247h-98l-184 179v63l184 179h98zM439 236l1 77l150 -247h-98l-184 179v63l184 179h98z" glyph-name="guillemotleft" horiz-adv-x="636" unicode="«"/><glyph d="M383 366l69 -58h-390v112h436v-273h-115v219z" glyph-name="logicalnot" unicode="¬"/><glyph d="M72 354h347v-129h-347v129z" glyph-name="softhyphen" horiz-adv-x="441" unicode="­"/><glyph d="M451 35q70 0 128 23.5t100 66.5t64.5 101.5t22.5 128.5t-22.5 128.5t-64.5 101.5t-100 66.5t-128 23.5q-71 0 -128.5 -23.5t-99.5 -66.5t-64.5 -101.5t-22.5 -128.5t22.5 -128.5t64.5 -101.5t99.5 -66.5t128.5 -23.5zM451 -36q-87 0 -159.5 29t-126 81.5t-83 124 t-29.5 156.5t29.5 156.5t83 124t126 81.5t159.5 29q86 0 159 -29t126.5 -81.5t83 -124t29.5 -156.5t-29.5 -156.5t-83 -124t-126.5 -81.5t-159 -29zM263 154v56h5q15 0 25.5 4t10.5 16v248q0 12 -10.5 16t-25.5 4h-5v56h205q85 0 125.5 -30.5t40.5 -87.5q0 -29 -11.5 -52 t-33.5 -39.5t-53 -25t-71 -8.5h-49v-95q0 -2 4 -3.5t10.5 -2t13.5 -0.5h7v-56h-188zM455 492h-39v-132h36q35 0 51.5 17.5t16.5 53.5q0 34 -16 47.5t-49 13.5zM448 336l97 33l66 -143q5 -10 12.5 -13t18.5 -3h9v-56h-129z" glyph-name="registered" horiz-adv-x="894" unicode="®"/><glyph d="M66 741h368v-103h-368v103z" glyph-name="macron" horiz-adv-x="500" unicode="¯"/><glyph d="M366 541q0 53 -27 80t-75 27q-47 0 -74 -27t-27 -80q0 -34 12.5 -58t35 -36.5t53.5 -12.5q48 0 75 28t27 79zM55 541q0 62 27.5 106.5t75 69t106.5 24.5q60 0 107.5 -24.5t75 -69t27.5 -106.5q0 -61 -27.5 -106t-75 -69.5t-107.5 -24.5q-59 0 -106.5 24.5t-75 69.5 t-27.5 106z" glyph-name="degree" horiz-adv-x="529" unicode="°"/><glyph d="M220 638h119v-466h-119v466zM506 461v-112h-452v112h452zM506 101v-112h-452v112h452z" glyph-name="plusminus" unicode="±"/><glyph d="M242 443h-160q-2 -1 -3 -5.5t0.5 -7.5t7.5 -2q38 17 77.5 34t75.5 35t65 39.5t45.5 47.5t16.5 58q0 39 -19 64t-54.5 36.5t-86.5 11.5q-37 0 -67.5 -7t-53 -18.5t-36.5 -25.5v-84h99v87q-9 -1 -17.5 -8t-14 -17t-6.5 -19q13 14 33 26t45 12q27 0 39.5 -12.5t12.5 -46.5 q0 -31 -14 -54.5t-40 -44t-62.5 -40.5t-82.5 -44v-101h338v146h-60l-6 -33q-2 -11 -9.5 -17t-22.5 -8t-40 -2z" glyph-name="two.sup" horiz-adv-x="419" unicode="²"/><glyph d="M188 408q-31 0 -52 13.5t-34 32.5t-21 35l-56 -30q10 -29 30.5 -54t55.5 -39.5t89 -14.5q53 0 94 12t64.5 38t23.5 66q0 33 -19.5 55t-62.5 33t-114 11l-11 -7q54 0 98 9.5t70 31.5t26 58q0 50 -44.5 73t-116.5 23q-37 0 -67.5 -7.5t-52.5 -19t-32 -22.5v-70h93v70 q-8 -1 -15 -6t-11 -12.5t-5 -17.5q11 12 31 21.5t45 9.5q29 0 42.5 -10.5t13.5 -39.5q0 -35 -18.5 -49t-57.5 -14h-35v-53h41q31 0 47.5 -6.5t23.5 -20t7 -34.5q0 -36 -17 -50.5t-53 -14.5z" glyph-name="three.sup" horiz-adv-x="416" unicode="³"/><glyph d="M241 745q10 25 22.5 43.5t30 29t42.5 10.5q34 0 54 -19.5t20 -47.5q0 -19 -8.5 -35.5t-23.5 -31t-35 -26.5l-99 -67h-50v32z" glyph-name="acute" horiz-adv-x="500" unicode="´"/><glyph d="M578 -10q-50 0 -83.5 16.5t-50.5 47.5t-20 76l-7 3v407h176v-412q0 -23 7.5 -32.5t26.5 -9.5q14 0 23 7t16.5 20t14.5 31l61 -35q-12 -32 -33 -59t-53 -43.5t-78 -16.5zM243 540v-368q0 -28 6 -45.5t19 -26t34 -8.5q24 0 46.5 12.5t45 37t44.5 59.5l13 -52 q-25 -50 -53.5 -86t-60.5 -55t-69 -19q-31 0 -56 10t-44 30.5t-33 52.5t-22 77l10 23q4 -52 13.5 -95t23 -78.5t28.5 -67.5t27.5 -62t20 -61.5t7.5 -67.5h-175v790h175z" glyph-name="micro" horiz-adv-x="717" unicode="µ"/><glyph d="M362 0v710h-114q-67 0 -116 -24t-74.5 -69t-25.5 -105q0 -62 26.5 -109t76.5 -73.5t118 -26.5h6v-303h103zM475 710h-176v-74h176v74zM551 0v599q0 15 8 22.5t22 10.5t32 3h10v75h-176v-710h104z" glyph-name="paragraph" horiz-adv-x="655" unicode="¶"/><glyph d="M171 247q-50 0 -80 26.5t-30 73.5t30 74t80 27t80 -27t30 -74t-30 -73.5t-80 -26.5z" glyph-name="periodcentered" horiz-adv-x="341" unicode="·"/><glyph d="M318 5l-69 -84l-4 15q53 1 89 -9.5t55 -32.5t19 -55q0 -30 -12 -50.5t-32 -33.5t-47.5 -19t-58.5 -6q-53 0 -88 15.5t-58 39.5l44 52q10 -9 22.5 -19t28.5 -16.5t36 -6.5q25 0 37 11t12 32q0 22 -16 34t-62 12h-27l40 121h91z" glyph-name="cedilla" horiz-adv-x="550" unicode="¸"/><glyph d="M290 435q0 -16 18.5 -21t50.5 -5h17v-52h-310v52h26q29 0 47.5 5t18.5 21v249l10 2q-6 -26 -21.5 -41t-38.5 -21t-55 -6v73q37 1 60.5 6.5t39 18.5t25.5 33h112v-314z" glyph-name="one.sup" horiz-adv-x="416" unicode="¹"/><glyph d="M510 513q0 -65 -28 -113t-79.5 -74t-124.5 -26t-125 26t-80 74t-28 113t28 113t80 73.5t125 25.5t124.5 -25.5t79.5 -73.5t28 -113zM195 513q0 -51 8.5 -82.5t27 -45.5t47.5 -14t47 14t27 45.5t9 82.5q0 50 -9 81t-27 45.5t-47 14.5t-47.5 -14.5t-27 -45.5t-8.5 -81z" glyph-name="ordmasculine" horiz-adv-x="555" unicode="º"/><glyph d="M457 233l-151 251h98l184 -179v-63l-184 -179h-98l150 247zM196 233l-150 251h98l184 -179v-63l-184 -179h-98l149 247z" glyph-name="guillemotright" horiz-adv-x="636" unicode="»"/><glyph d="M295 435q0 -16 18.5 -21t50.5 -5h17v-52h-310v52h26q29 0 47.5 5t18.5 21v249l10 2q-6 -26 -21.5 -41t-38.5 -21t-55 -6v73q37 1 60.5 6.5t39 18.5t25.5 33h112v-314zM760 710h100l-599 -710h-99zM566 84v92l167 216h47l-3 -35l-177 -229l3 42h348v-86h-385zM884 0h-122 v365l1 27h121v-392z" glyph-name="onequarter" horiz-adv-x="999" unicode="¼"/><glyph d="M295 435q0 -16 18.5 -21t50.5 -5h17v-52h-310v52h26q29 0 47.5 5t18.5 21v249l10 2q-6 -26 -21.5 -41t-38.5 -21t-55 -6v73q37 1 60.5 6.5t39 18.5t25.5 33h112v-314zM760 710h100l-599 -710h-99zM830 86h-160q-2 -1 -3 -5.5t0.5 -7.5t7.5 -2q38 17 77.5 34t75.5 35 t65 39.5t45.5 47.5t16.5 58q0 39 -19 64t-54.5 36.5t-86.5 11.5q-37 0 -67.5 -7t-53 -18.5t-36.5 -25.5v-84h99v87q-9 -1 -17.5 -8t-14 -17t-6.5 -19q13 14 33 26t45 12q27 0 39.5 -12.5t12.5 -46.5q0 -31 -14 -54.5t-40 -44t-62.5 -40.5t-82.5 -44v-101h338v146h-60l-6 -33 q-2 -11 -9.5 -17t-22.5 -8t-40 -2z" glyph-name="onehalf" horiz-adv-x="1017" unicode="½"/><glyph d="M209 408q-31 0 -52 13.5t-34 32.5t-21 35l-56 -30q10 -29 30.5 -54t55.5 -39.5t89 -14.5q53 0 94 12t64.5 38t23.5 66q0 33 -19.5 55t-62.5 33t-114 11l-11 -7q54 0 98 9.5t70 31.5t26 58q0 50 -44.5 73t-116.5 23q-37 0 -67.5 -7.5t-52.5 -19t-32 -22.5v-70h93v70 q-8 -1 -15 -6t-11 -12.5t-5 -17.5q11 12 31 21.5t45 9.5q29 0 42.5 -10.5t13.5 -39.5q0 -35 -18.5 -49t-57.5 -14h-35v-53h41q31 0 47.5 -6.5t23.5 -20t7 -34.5q0 -36 -17 -50.5t-53 -14.5zM759 710h100l-599 -710h-99zM566 84v92l167 216h47l-3 -35l-177 -229l3 42h348v-86 h-385zM884 0h-122v365l1 27h121v-392z" glyph-name="threequarters" horiz-adv-x="998" unicode="¾"/><glyph d="M387 142v149h-119v-102q-41 -9 -81 -23.5t-72.5 -38.5t-52 -59t-19.5 -84q0 -60 30.5 -100.5t89.5 -61t145 -20.5q60 0 109.5 12t84.5 29t51 29v137h-145v-131q13 2 22 7t14.5 12t8 15t0.5 16q-13 -12 -30.5 -22.5t-41.5 -16.5t-55 -6q-35 0 -59 10.5t-36.5 32.5 t-12.5 57q0 38 12.5 64.5t35 44t53.5 29t68 21.5zM327 564q51 0 80.5 -27t29.5 -74t-29.5 -74t-80.5 -27q-50 0 -80 27t-30 74t30 74t80 27z" glyph-name="questiondown" horiz-adv-x="578" unicode="¿"/><glyph d="M183 299h275l6 -75h-287zM306 654l25 -26l-168 -532q0 -6 8.5 -11t23.5 -7.5t34 -2.5h11v-75h-223v75h5q24 0 39 11t25 43l187 585h199l190 -593q9 -27 24.5 -36.5t38.5 -9.5h5v-75h-327v75h13q20 0 35 1.5t23.5 4t8.5 5.5zM386 899q-14 20 -28.5 35.5t-31.5 24t-40 8.5 q-33 0 -53 -19.5t-20 -47.5q0 -22 10 -38.5t31 -29t51 -22.5l100 -38h50v32z" glyph-name="Agrave" horiz-adv-x="747" unicode="À"/><glyph d="M183 299h275l6 -75h-287zM306 654l25 -26l-168 -532q0 -6 8.5 -11t23.5 -7.5t34 -2.5h11v-75h-223v75h5q24 0 39 11t25 43l187 585h199l190 -593q9 -27 24.5 -36.5t38.5 -9.5h5v-75h-327v75h13q20 0 35 1.5t23.5 4t8.5 5.5zM368 899l-69 -95v-32h51l100 38 q30 10 50.5 22.5t31 29t10.5 38.5q0 28 -20 47.5t-53 19.5q-23 0 -40.5 -8.5t-31.5 -24t-29 -35.5z" glyph-name="Aacute" horiz-adv-x="747" unicode="Á"/><glyph d="M183 299h275l6 -75h-287zM306 654l25 -26l-168 -532q0 -6 8.5 -11t23.5 -7.5t34 -2.5h11v-75h-223v75h5q24 0 39 11t25 43l187 585h199l190 -593q9 -27 24.5 -36.5t38.5 -9.5h5v-75h-327v75h13q20 0 35 1.5t23.5 4t8.5 5.5zM442 945h-131l-128 -152v-29h72l158 103 l-83 -1l159 -102h80v29z" glyph-name="Acircumflex" horiz-adv-x="747" unicode="Â"/><glyph d="M183 299h275l6 -75h-287zM306 654l25 -26l-168 -532q0 -6 8.5 -11t23.5 -7.5t34 -2.5h11v-75h-223v75h5q24 0 39 11t25 43l187 585h199l190 -593q9 -27 24.5 -36.5t38.5 -9.5h5v-75h-327v75h13q20 0 35 1.5t23.5 4t8.5 5.5zM445 767q-27 0 -46.5 7.5t-34 18.5t-26.5 22 t-22.5 18.5t-23.5 7.5q-14 0 -22.5 -8.5t-13 -25t-9.5 -42.5l-76 18q9 59 24 96t40.5 55t66.5 18q25 0 43.5 -7t32.5 -18t26 -22t24 -18t26 -7q15 0 23 8.5t14 25.5t11 43l76 -19q-9 -60 -26 -98t-43 -55.5t-64 -17.5z" glyph-name="Atilde" horiz-adv-x="747" unicode="Ã"/><glyph d="M183 299h275l6 -75h-287zM306 654l25 -26l-168 -532q0 -6 8.5 -11t23.5 -7.5t34 -2.5h11v-75h-223v75h5q24 0 39 11t25 43l187 585h199l190 -593q9 -27 24.5 -36.5t38.5 -9.5h5v-75h-327v75h13q20 0 35 1.5t23.5 4t8.5 5.5zM338 866q0 -42 -26.5 -63.5t-71.5 -21.5 t-71 21.5t-26 63.5t26 63.5t71 21.5t71.5 -21.5t26.5 -63.5zM603 866q0 -42 -26 -63.5t-72 -21.5q-44 0 -70.5 21.5t-26.5 63.5t26.5 63.5t70.5 21.5q46 0 72 -21.5t26 -63.5z" glyph-name="Adieresis" horiz-adv-x="747" unicode="Ä"/><glyph d="M183 299h275l6 -75h-287zM306 654l25 -26l-168 -532q0 -6 8.5 -11t23.5 -7.5t34 -2.5h11v-75h-223v75h5q24 0 39 11t25 43l187 585h199l190 -593q9 -27 24.5 -36.5t38.5 -9.5h5v-75h-327v75h13q20 0 35 1.5t23.5 4t8.5 5.5zM316 885q0 -29 15 -44t41 -15t41 15t15 44 q0 30 -15 44.5t-41 14.5t-41 -14.5t-15 -44.5zM524 885q0 -56 -41.5 -89.5t-110.5 -33.5q-68 0 -110 33t-42 90q0 39 19 66.5t53.5 42.5t79.5 15q46 0 80 -15t53 -42.5t19 -66.5z" glyph-name="Aring" horiz-adv-x="747" unicode="Å"/><glyph d="M241 299h259l6 -75h-291zM643 399q40 3 80 5t80.5 5t80.5 6v-102q-39 3 -79 5t-80.5 5t-81.5 5v71zM408 0v75h9q18 0 32 3t22.5 9t8.5 17v521h-13l-302 -529q0 -6 8 -11t22.5 -7.5t34.5 -2.5h10v-75h-232v75h5q16 0 28 5t22.5 17t22.5 32l273 472q0 13 -10.5 20 t-28.5 10.5t-41 3.5h-13v75h704v-201h-87l-9 77q-2 18 -14.5 27.5t-35 13t-55.5 3.5h-104v-550h109q30 0 51.5 2t35 7t20.5 13.5t9 21.5l13 102h90v-226h-585z" glyph-name="AE" horiz-adv-x="1042" unicode="Æ"/><glyph d="M412 642q-43 0 -76 -18t-55 -53.5t-33 -89.5t-11 -126q0 -74 11.5 -128t34.5 -89t58 -52.5t82 -17.5q58 0 97.5 24t64.5 66.5t39 98.5l76 -33q-19 -74 -57 -128.5t-97.5 -83.5t-144.5 -29q-80 0 -145.5 24.5t-113.5 72.5t-73.5 117t-25.5 158q0 90 26.5 159.5t74 116.5 t110.5 72t135 25q73 0 121.5 -27t77.5 -76t42 -116l-43 30l19 176h83v-242h-98q-14 51 -38 89t-58.5 59t-82.5 21zM418 5l-69 -84l-4 15q53 1 89 -9.5t55 -32.5t19 -55q0 -30 -12 -50.5t-32 -33.5t-47.5 -19t-58.5 -6q-53 0 -88 15.5t-58 39.5l44 52q10 -9 22.5 -19 t28.5 -16.5t36 -6.5q25 0 37 11t12 32q0 22 -16 34t-62 12h-27l40 121h91z" glyph-name="Ccedilla" horiz-adv-x="740" unicode="Ç"/><glyph d="M637 226v-226h-599v75h11q27 0 44.5 7t17.5 29v488q0 22 -17.5 29t-44.5 7h-11v75h576v-201h-87l-9 77q-2 18 -14.5 27.5t-35 13t-55.5 3.5h-117v-550h122q30 0 51.5 2t35 7t20.5 13.5t9 21.5l13 102h90zM274 400q42 3 83.5 5.5t83 5.5t82.5 5v-103q-41 3 -82.5 5.5 l-83 5t-83.5 5.5v71zM383 899q-14 20 -28.5 35.5t-31.5 24t-40 8.5q-33 0 -53 -19.5t-20 -47.5q0 -22 10 -38.5t31 -29t51 -22.5l100 -38h50v32z" glyph-name="Egrave" horiz-adv-x="686" unicode="È"/><glyph d="M637 226v-226h-599v75h11q27 0 44.5 7t17.5 29v488q0 22 -17.5 29t-44.5 7h-11v75h576v-201h-87l-9 77q-2 18 -14.5 27.5t-35 13t-55.5 3.5h-117v-550h122q30 0 51.5 2t35 7t20.5 13.5t9 21.5l13 102h90zM274 400q42 3 83.5 5.5t83 5.5t82.5 5v-103q-41 3 -82.5 5.5 l-83 5t-83.5 5.5v71zM334 899l-69 -95v-32h51l100 38q30 10 50.5 22.5t31 29t10.5 38.5q0 28 -20 47.5t-53 19.5q-23 0 -40.5 -8.5t-31.5 -24t-29 -35.5z" glyph-name="Eacute" horiz-adv-x="686" unicode="É"/><glyph d="M637 226v-226h-599v75h11q27 0 44.5 7t17.5 29v488q0 22 -17.5 29t-44.5 7h-11v75h576v-201h-87l-9 77q-2 18 -14.5 27.5t-35 13t-55.5 3.5h-117v-550h122q30 0 51.5 2t35 7t20.5 13.5t9 21.5l13 102h90zM274 400q42 3 83.5 5.5t83 5.5t82.5 5v-103q-41 3 -82.5 5.5 l-83 5t-83.5 5.5v71zM410 945h-131l-128 -152v-29h72l158 103l-83 -1l159 -102h80v29z" glyph-name="Ecircumflex" horiz-adv-x="686" unicode="Ê"/><glyph d="M637 226v-226h-599v75h11q27 0 44.5 7t17.5 29v488q0 22 -17.5 29t-44.5 7h-11v75h576v-201h-87l-9 77q-2 18 -14.5 27.5t-35 13t-55.5 3.5h-117v-550h122q30 0 51.5 2t35 7t20.5 13.5t9 21.5l13 102h90zM274 400q42 3 83.5 5.5t83 5.5t82.5 5v-103q-41 3 -82.5 5.5 l-83 5t-83.5 5.5v71zM303 866q0 -42 -26.5 -63.5t-71.5 -21.5t-71 21.5t-26 63.5t26 63.5t71 21.5t71.5 -21.5t26.5 -63.5zM568 866q0 -42 -26 -63.5t-72 -21.5q-44 0 -70.5 21.5t-26.5 63.5t26.5 63.5t70.5 21.5q46 0 72 -21.5t26 -63.5z" glyph-name="Edieresis" horiz-adv-x="686" unicode="Ë"/><glyph d="M115 111v488q0 22 -17.5 29t-43.5 7h-16v75h340v-75h-15q-27 0 -44.5 -7t-17.5 -29v-488q0 -22 17.5 -29t44.5 -7h15v-75h-340v75h16q26 0 43.5 7t17.5 29zM242 899q-14 20 -28.5 35.5t-31.5 24t-40 8.5q-33 0 -53 -19.5t-20 -47.5q0 -22 10 -38.5t31 -29t51 -22.5 l100 -38h50v32z" glyph-name="Igrave" horiz-adv-x="416" unicode="Ì"/><glyph d="M115 111v488q0 22 -17.5 29t-43.5 7h-16v75h340v-75h-15q-27 0 -44.5 -7t-17.5 -29v-488q0 -22 17.5 -29t44.5 -7h15v-75h-340v75h16q26 0 43.5 7t17.5 29zM205 899l-69 -95v-32h51l100 38q30 10 50.5 22.5t31 29t10.5 38.5q0 28 -20 47.5t-53 19.5q-23 0 -40.5 -8.5 t-31.5 -24t-29 -35.5z" glyph-name="Iacute" horiz-adv-x="416" unicode="Í"/><glyph d="M115 111v488q0 22 -17.5 29t-43.5 7h-16v75h340v-75h-15q-27 0 -44.5 -7t-17.5 -29v-488q0 -22 17.5 -29t44.5 -7h15v-75h-340v75h16q26 0 43.5 7t17.5 29zM278 945h-131l-128 -152v-29h72l158 103l-83 -1l159 -102h80v29z" glyph-name="Icircumflex" horiz-adv-x="416" unicode="Î"/><glyph d="M115 111v488q0 22 -17.5 29t-43.5 7h-16v75h340v-75h-15q-27 0 -44.5 -7t-17.5 -29v-488q0 -22 17.5 -29t44.5 -7h15v-75h-340v75h16q26 0 43.5 7t17.5 29zM173 866q0 -42 -26.5 -63.5t-71.5 -21.5t-71 21.5t-26 63.5t26 63.5t71 21.5t71.5 -21.5t26.5 -63.5zM438 866 q0 -42 -26 -63.5t-72 -21.5q-44 0 -70.5 21.5t-26.5 63.5t26.5 63.5t70.5 21.5q46 0 72 -21.5t26 -63.5z" glyph-name="Idieresis" horiz-adv-x="416" unicode="Ï"/><glyph d="M36 400h408v-82h-408v82zM38 635v75h359q85 0 154.5 -22t120 -66.5t78 -110.5t27.5 -153t-27.5 -153.5t-78 -112t-120 -69t-154.5 -23.5h-359v75h12q26 0 43.5 7t17.5 29v488q0 21 -17.5 28.5t-43.5 7.5h-12zM383 629h-87v-548h87q48 0 85 17t62.5 52t39 87t13.5 121 t-13.5 120t-39 84.5t-62.5 50t-85 16.5z" glyph-name="Eth" horiz-adv-x="820" unicode="Ð"/><glyph d="M39 0v75h10q19 0 32.5 3.5t21.5 12.5t8 23v485q0 15 -8 22.5t-22 10.5t-32 3h-10v75h310l281 -560l-21 7v465q0 4 -10 6.5t-25 4.5t-29 2h-13v75h235v-75h-10q-17 0 -31.5 -3.5t-22.5 -10.5t-8 -22v-599h-185l-338 668l26 -8v-572q0 -3 10 -6t25 -5t29 -2h13v-75h-236z M489 767q-27 0 -46.5 7.5t-34 18.5t-26.5 22t-22.5 18.5t-23.5 7.5q-14 0 -22.5 -8.5t-13 -25t-9.5 -42.5l-76 18q9 59 24 96t40.5 55t66.5 18q25 0 43.5 -7t32.5 -18t26 -22t24 -18t26 -7q15 0 23 8.5t14 25.5t11 43l76 -19q-9 -60 -26 -98t-43 -55.5t-64 -17.5z" glyph-name="Ntilde" horiz-adv-x="802" unicode="Ñ"/><glyph d="M411 -17q-82 0 -149.5 24.5t-116.5 72.5t-75.5 117.5t-26.5 157.5t26.5 157.5t75.5 117t116.5 73t149.5 25.5t149.5 -25.5t116.5 -73t75.5 -117t26.5 -157.5t-26.5 -157.5t-75.5 -117.5t-116.5 -72.5t-149.5 -24.5zM411 68q42 0 74.5 17t54.5 52.5t33.5 89.5t11.5 128 t-11.5 128t-33.5 89.5t-54.5 52.5t-74.5 17t-74.5 -17t-54.5 -52.5t-33.5 -89.5t-11.5 -128t11.5 -128t33.5 -89.5t54.5 -52.5t74.5 -17zM448 899q-14 20 -28.5 35.5t-31.5 24t-40 8.5q-33 0 -53 -19.5t-20 -47.5q0 -22 10 -38.5t31 -29t51 -22.5l100 -38h50v32z" glyph-name="Ograve" horiz-adv-x="822" unicode="Ò"/><glyph d="M411 -17q-82 0 -149.5 24.5t-116.5 72.5t-75.5 117.5t-26.5 157.5t26.5 157.5t75.5 117t116.5 73t149.5 25.5t149.5 -25.5t116.5 -73t75.5 -117t26.5 -157.5t-26.5 -157.5t-75.5 -117.5t-116.5 -72.5t-149.5 -24.5zM411 68q42 0 74.5 17t54.5 52.5t33.5 89.5t11.5 128 t-11.5 128t-33.5 89.5t-54.5 52.5t-74.5 17t-74.5 -17t-54.5 -52.5t-33.5 -89.5t-11.5 -128t11.5 -128t33.5 -89.5t54.5 -52.5t74.5 -17zM412 899l-69 -95v-32h51l100 38q30 10 50.5 22.5t31 29t10.5 38.5q0 28 -20 47.5t-53 19.5q-23 0 -40.5 -8.5t-31.5 -24t-29 -35.5z" glyph-name="Oacute" horiz-adv-x="822" unicode="Ó"/><glyph d="M411 -17q-82 0 -149.5 24.5t-116.5 72.5t-75.5 117.5t-26.5 157.5t26.5 157.5t75.5 117t116.5 73t149.5 25.5t149.5 -25.5t116.5 -73t75.5 -117t26.5 -157.5t-26.5 -157.5t-75.5 -117.5t-116.5 -72.5t-149.5 -24.5zM411 68q42 0 74.5 17t54.5 52.5t33.5 89.5t11.5 128 t-11.5 128t-33.5 89.5t-54.5 52.5t-74.5 17t-74.5 -17t-54.5 -52.5t-33.5 -89.5t-11.5 -128t11.5 -128t33.5 -89.5t54.5 -52.5t74.5 -17zM481 945h-131l-128 -152v-29h72l158 103l-83 -1l159 -102h80v29z" glyph-name="Ocircumflex" horiz-adv-x="822" unicode="Ô"/><glyph d="M411 -17q-82 0 -149.5 24.5t-116.5 72.5t-75.5 117.5t-26.5 157.5t26.5 157.5t75.5 117t116.5 73t149.5 25.5t149.5 -25.5t116.5 -73t75.5 -117t26.5 -157.5t-26.5 -157.5t-75.5 -117.5t-116.5 -72.5t-149.5 -24.5zM411 68q42 0 74.5 17t54.5 52.5t33.5 89.5t11.5 128 t-11.5 128t-33.5 89.5t-54.5 52.5t-74.5 17t-74.5 -17t-54.5 -52.5t-33.5 -89.5t-11.5 -128t11.5 -128t33.5 -89.5t54.5 -52.5t74.5 -17zM482 767q-27 0 -46.5 7.5t-34 18.5t-26.5 22t-22.5 18.5t-23.5 7.5q-14 0 -22.5 -8.5t-13 -25t-9.5 -42.5l-76 18q9 59 24 96t40.5 55 t66.5 18q25 0 43.5 -7t32.5 -18t26 -22t24 -18t26 -7q15 0 23 8.5t14 25.5t11 43l76 -19q-9 -60 -26 -98t-43 -55.5t-64 -17.5z" glyph-name="Otilde" horiz-adv-x="822" unicode="Õ"/><glyph d="M411 -17q-82 0 -149.5 24.5t-116.5 72.5t-75.5 117.5t-26.5 157.5t26.5 157.5t75.5 117t116.5 73t149.5 25.5t149.5 -25.5t116.5 -73t75.5 -117t26.5 -157.5t-26.5 -157.5t-75.5 -117.5t-116.5 -72.5t-149.5 -24.5zM411 68q42 0 74.5 17t54.5 52.5t33.5 89.5t11.5 128 t-11.5 128t-33.5 89.5t-54.5 52.5t-74.5 17t-74.5 -17t-54.5 -52.5t-33.5 -89.5t-11.5 -128t11.5 -128t33.5 -89.5t54.5 -52.5t74.5 -17zM376 866q0 -42 -26.5 -63.5t-71.5 -21.5t-71 21.5t-26 63.5t26 63.5t71 21.5t71.5 -21.5t26.5 -63.5zM641 866q0 -42 -26 -63.5 t-72 -21.5q-44 0 -70.5 21.5t-26.5 63.5t26.5 63.5t70.5 21.5q46 0 72 -21.5t26 -63.5z" glyph-name="Odieresis" horiz-adv-x="822" unicode="Ö"/><glyph d="M66 203l349 351l75 -75l-349 -351zM66 479l75 75l349 -351l-75 -75z" glyph-name="multiply" unicode="×"/><glyph d="M412 642q-44 0 -78 -17t-57 -52.5t-35 -89.5t-12 -128q0 -79 10 -133.5t32 -88.5t56 -49.5t81 -15.5q44 0 78 17t57.5 52.5t35.5 89.5t12 128q0 79 -10 133.5t-32 88.5t-56 49.5t-82 15.5zM411 -17q-77 0 -144 26t-117.5 75t-78.5 117.5t-28 153.5q0 88 26.5 157.5 t75.5 117.5t116.5 73t149.5 25q78 0 144.5 -26.5t117 -75.5t78.5 -117.5t28 -153.5q0 -88 -26.5 -157.5t-75.5 -117.5t-116.5 -72.5t-149.5 -24.5zM-11 -20l724 750h110l-724 -750h-110z" glyph-name="Oslash" horiz-adv-x="821" unicode="Ø"/><glyph d="M292 269q0 -53 10 -89.5t29.5 -59t47 -32.5t63.5 -10q34 0 62 10.5t48 33t30.5 59t10.5 88.5v346q0 5 -5.5 8.5t-15.5 6t-21.5 4t-22.5 1.5h-10v75h232v-75h-10q-18 0 -32 -3.5t-22 -12t-8 -24.5v-326q0 -76 -21 -130.5t-59 -89t-88 -50.5t-109 -16q-66 0 -120 16.5 t-93.5 50.5t-60 88.5t-20.5 130.5v330q0 22 -17.5 29t-44.5 7h-11v75h331v-75h-10q-10 0 -21.5 -0.5t-20.5 -2t-15 -3t-6 -4.5v-356zM450 899q-14 20 -28.5 35.5t-31.5 24t-40 8.5q-33 0 -53 -19.5t-20 -47.5q0 -22 10 -38.5t31 -29t51 -22.5l100 -38h50v32z" glyph-name="Ugrave" horiz-adv-x="784" unicode="Ù"/><glyph d="M292 269q0 -53 10 -89.5t29.5 -59t47 -32.5t63.5 -10q34 0 62 10.5t48 33t30.5 59t10.5 88.5v346q0 5 -5.5 8.5t-15.5 6t-21.5 4t-22.5 1.5h-10v75h232v-75h-10q-18 0 -32 -3.5t-22 -12t-8 -24.5v-326q0 -76 -21 -130.5t-59 -89t-88 -50.5t-109 -16q-66 0 -120 16.5 t-93.5 50.5t-60 88.5t-20.5 130.5v330q0 22 -17.5 29t-44.5 7h-11v75h331v-75h-10q-10 0 -21.5 -0.5t-20.5 -2t-15 -3t-6 -4.5v-356zM424 899l-69 -95v-32h51l100 38q30 10 50.5 22.5t31 29t10.5 38.5q0 28 -20 47.5t-53 19.5q-23 0 -40.5 -8.5t-31.5 -24t-29 -35.5z" glyph-name="Uacute" horiz-adv-x="784" unicode="Ú"/><glyph d="M292 269q0 -53 10 -89.5t29.5 -59t47 -32.5t63.5 -10q34 0 62 10.5t48 33t30.5 59t10.5 88.5v346q0 5 -5.5 8.5t-15.5 6t-21.5 4t-22.5 1.5h-10v75h232v-75h-10q-18 0 -32 -3.5t-22 -12t-8 -24.5v-326q0 -76 -21 -130.5t-59 -89t-88 -50.5t-109 -16q-66 0 -120 16.5 t-93.5 50.5t-60 88.5t-20.5 130.5v330q0 22 -17.5 29t-44.5 7h-11v75h331v-75h-10q-10 0 -21.5 -0.5t-20.5 -2t-15 -3t-6 -4.5v-356zM491 945h-131l-128 -152v-29h72l158 103l-83 -1l159 -102h80v29z" glyph-name="Ucircumflex" horiz-adv-x="784" unicode="Û"/><glyph d="M292 269q0 -53 10 -89.5t29.5 -59t47 -32.5t63.5 -10q34 0 62 10.5t48 33t30.5 59t10.5 88.5v346q0 5 -5.5 8.5t-15.5 6t-21.5 4t-22.5 1.5h-10v75h232v-75h-10q-18 0 -32 -3.5t-22 -12t-8 -24.5v-326q0 -76 -21 -130.5t-59 -89t-88 -50.5t-109 -16q-66 0 -120 16.5 t-93.5 50.5t-60 88.5t-20.5 130.5v330q0 22 -17.5 29t-44.5 7h-11v75h331v-75h-10q-10 0 -21.5 -0.5t-20.5 -2t-15 -3t-6 -4.5v-356zM384 866q0 -42 -26.5 -63.5t-71.5 -21.5t-71 21.5t-26 63.5t26 63.5t71 21.5t71.5 -21.5t26.5 -63.5zM649 866q0 -42 -26 -63.5t-72 -21.5 q-44 0 -70.5 21.5t-26.5 63.5t26.5 63.5t70.5 21.5q46 0 72 -21.5t26 -63.5z" glyph-name="Udieresis" horiz-adv-x="784" unicode="Ü"/><glyph d="M268 308l13 -45l-193 333q-9 15 -18 24t-20 12t-25 3h-7v75h322v-75h-14q-17 0 -30.5 -1.5t-22 -3.5t-8.5 -6l167 -301l-47 -10l164 301q0 7 -8.5 11.5t-22.5 7t-31 2.5h-11v75h222v-75h-7q-14 0 -25.5 -4.5t-21.5 -15t-20 -30.5l-184 -326l14 49v-197q0 -22 18 -29 t45 -7h17v-75h-346v75h17q27 0 45 7t18 29v197zM392 899l-69 -95v-32h51l100 38q30 10 50.5 22.5t31 29t10.5 38.5q0 28 -20 47.5t-53 19.5q-23 0 -40.5 -8.5t-31.5 -24t-29 -35.5z" glyph-name="Yacute" horiz-adv-x="716" unicode="Ý"/><glyph d="M382 710h-344v-72h11q27 0 44 -7t17 -29v-494q0 -22 -17 -29t-44 -7h-11v-72h344v75h-24q-11 0 -22 0.5t-20 2t-14.5 3t-5.5 4.5v540q0 3 5.5 4.5t14.5 3t20 2t22 0.5h24v75zM693 365q0 64 -31.5 108t-89.5 66.5t-141 22.5h-212v-81h175q37 0 62 -12.5t38.5 -39 t13.5 -67.5t-13.5 -68t-39.5 -41t-64 -14h-163v-80h199q81 0 141 24.5t92.5 70.5t32.5 111z" glyph-name="Thorn" horiz-adv-x="729" unicode="Þ"/><glyph d="M24 540h146v-78h-146v78zM397 431l48 23v-40l-25 25q56 -7 103 -25.5t81.5 -48.5t53 -71t18.5 -92q0 -55 -15 -95t-43 -66t-67.5 -38.5t-87.5 -12.5q-36 0 -64 5.5t-42 11.5v81q4 -1 12 -4t20.5 -5.5t25.5 -2.5q24 0 41.5 11t28 40t10.5 84q0 43 -10 75.5t-27.5 54 t-42.5 33t-55 12.5h-3v81q21 3 39 10t32 21.5t21.5 39t7.5 60.5q0 46 -19 67.5t-61 21.5q-29 0 -48 -10t-28.5 -34.5t-9.5 -69.5v-573h-258v66h18q31 0 48 11.5t17 40.5v448q0 71 31 115t89.5 65.5t139.5 21.5q84 0 139 -19.5t83 -56.5t28 -89q0 -44 -20 -76.5t-53 -53.5 t-73.5 -31.5t-82.5 -10.5z" glyph-name="germandbls" horiz-adv-x="711" unicode="ß"/><glyph d="M388 327v-65q-46 -8 -78 -17t-52.5 -20t-32 -24t-16.5 -28.5t-5 -33.5q0 -25 8 -40.5t23.5 -22.5t36.5 -7q22 0 40.5 10t37 32t37.5 56l6 -52q-20 -43 -45.5 -71t-58.5 -41.5t-78 -13.5q-55 0 -93 15.5t-57.5 47t-19.5 79.5q0 43 19 74t60.5 53.5t107 39t160.5 29.5z M392 0l-12 110l-7 -1v291q0 23 -7 39t-24.5 23.5t-50.5 7.5q-46 0 -76.5 -12.5t-42.5 -28.5q-7 6 -7.5 14t5.5 16t17 13.5t28 5.5v-116h-142v127q16 10 47 24.5t78 26t110 11.5q54 0 98 -10t75 -30.5t47.5 -53t16.5 -76.5v-275q0 -11 6 -17t17.5 -9t29.5 -6l6 -2v-72h-212z M352 746l46 -112v-32h-51l-98 66q-20 12 -35.5 26.5t-23.5 31.5t-8 35q0 28 20.5 48t53.5 20q25 0 43 -10t31 -29t22 -44z" glyph-name="agrave" horiz-adv-x="624" unicode="à"/><glyph d="M388 327v-65q-46 -8 -78 -17t-52.5 -20t-32 -24t-16.5 -28.5t-5 -33.5q0 -25 8 -40.5t23.5 -22.5t36.5 -7q22 0 40.5 10t37 32t37.5 56l6 -52q-20 -43 -45.5 -71t-58.5 -41.5t-78 -13.5q-55 0 -93 15.5t-57.5 47t-19.5 79.5q0 43 19 74t60.5 53.5t107 39t160.5 29.5z M392 0l-12 110l-7 -1v291q0 23 -7 39t-24.5 23.5t-50.5 7.5q-46 0 -76.5 -12.5t-42.5 -28.5q-7 6 -7.5 14t5.5 16t17 13.5t28 5.5v-116h-142v127q16 10 47 24.5t78 26t110 11.5q54 0 98 -10t75 -30.5t47.5 -53t16.5 -76.5v-275q0 -11 6 -17t17.5 -9t29.5 -6l6 -2v-72h-212z M293 746q10 25 22.5 43.5t30 29t42.5 10.5q34 0 54 -19.5t20 -47.5q0 -19 -8.5 -35.5t-23.5 -31t-35 -26.5l-99 -67h-50v32z" glyph-name="aacute" horiz-adv-x="624" unicode="á"/><glyph d="M388 327v-65q-46 -8 -78 -17t-52.5 -20t-32 -24t-16.5 -28.5t-5 -33.5q0 -25 8 -40.5t23.5 -22.5t36.5 -7q22 0 40.5 10t37 32t37.5 56l6 -52q-20 -43 -45.5 -71t-58.5 -41.5t-78 -13.5q-55 0 -93 15.5t-57.5 47t-19.5 79.5q0 43 19 74t60.5 53.5t107 39t160.5 29.5z M392 0l-12 110l-7 -1v291q0 23 -7 39t-24.5 23.5t-50.5 7.5q-46 0 -76.5 -12.5t-42.5 -28.5q-7 6 -7.5 14t5.5 16t17 13.5t28 5.5v-116h-142v127q16 10 47 24.5t78 26t110 11.5q54 0 98 -10t75 -30.5t47.5 -53t16.5 -76.5v-275q0 -11 6 -17t17.5 -9t29.5 -6l6 -2v-72h-212z M373 797h-125l-129 -169v-29h62l167 119l-85 -1l168 -118h70v29z" glyph-name="acircumflex" horiz-adv-x="624" unicode="â"/><glyph d="M388 327v-65q-46 -8 -78 -17t-52.5 -20t-32 -24t-16.5 -28.5t-5 -33.5q0 -25 8 -40.5t23.5 -22.5t36.5 -7q22 0 40.5 10t37 32t37.5 56l6 -52q-20 -43 -45.5 -71t-58.5 -41.5t-78 -13.5q-55 0 -93 15.5t-57.5 47t-19.5 79.5q0 43 19 74t60.5 53.5t107 39t160.5 29.5z M392 0l-12 110l-7 -1v291q0 23 -7 39t-24.5 23.5t-50.5 7.5q-46 0 -76.5 -12.5t-42.5 -28.5q-7 6 -7.5 14t5.5 16t17 13.5t28 5.5v-116h-142v127q16 10 47 24.5t78 26t110 11.5q54 0 98 -10t75 -30.5t47.5 -53t16.5 -76.5v-275q0 -11 6 -17t17.5 -9t29.5 -6l6 -2v-72h-212z M381 601q-26 0 -45 9t-33 21.5t-25.5 25.5t-22 21.5t-23.5 8.5q-22 0 -29.5 -21.5t-14.5 -64.5l-74 17q9 62 23 101.5t39 59.5t65 20q24 0 41.5 -8.5t31.5 -21t26 -25t24 -21t26 -8.5t22 10t13 29t11 48l75 -18q-10 -63 -26 -103t-41 -60t-63 -20z" glyph-name="atilde" horiz-adv-x="624" unicode="ã"/><glyph d="M388 327v-65q-46 -8 -78 -17t-52.5 -20t-32 -24t-16.5 -28.5t-5 -33.5q0 -25 8 -40.5t23.5 -22.5t36.5 -7q22 0 40.5 10t37 32t37.5 56l6 -52q-20 -43 -45.5 -71t-58.5 -41.5t-78 -13.5q-55 0 -93 15.5t-57.5 47t-19.5 79.5q0 43 19 74t60.5 53.5t107 39t160.5 29.5z M392 0l-12 110l-7 -1v291q0 23 -7 39t-24.5 23.5t-50.5 7.5q-46 0 -76.5 -12.5t-42.5 -28.5q-7 6 -7.5 14t5.5 16t17 13.5t28 5.5v-116h-142v127q16 10 47 24.5t78 26t110 11.5q54 0 98 -10t75 -30.5t47.5 -53t16.5 -76.5v-275q0 -11 6 -17t17.5 -9t29.5 -6l6 -2v-72h-212z M272 697q0 -41 -26.5 -63t-71.5 -22t-71 21.5t-26 63.5t26 64t71 22t71.5 -22t26.5 -64zM539 697q0 -41 -26 -63t-72 -22q-44 0 -70.5 21.5t-26.5 63.5t26.5 64t70.5 22q46 0 72 -22t26 -64z" glyph-name="adieresis" horiz-adv-x="624" unicode="ä"/><glyph d="M388 327v-65q-46 -8 -78 -17t-52.5 -20t-32 -24t-16.5 -28.5t-5 -33.5q0 -25 8 -40.5t23.5 -22.5t36.5 -7q22 0 40.5 10t37 32t37.5 56l6 -52q-20 -43 -45.5 -71t-58.5 -41.5t-78 -13.5q-55 0 -93 15.5t-57.5 47t-19.5 79.5q0 43 19 74t60.5 53.5t107 39t160.5 29.5z M392 0l-12 110l-7 -1v291q0 23 -7 39t-24.5 23.5t-50.5 7.5q-46 0 -76.5 -12.5t-42.5 -28.5q-7 6 -7.5 14t5.5 16t17 13.5t28 5.5v-116h-142v127q16 10 47 24.5t78 26t110 11.5q54 0 98 -10t75 -30.5t47.5 -53t16.5 -76.5v-275q0 -11 6 -17t17.5 -9t29.5 -6l6 -2v-72h-212z M254 711q0 -30 15.5 -44.5t41.5 -14.5q27 0 42 14.5t15 44.5q0 31 -15.5 45.5t-41.5 14.5t-41.5 -14.5t-15.5 -45.5zM460 711q0 -36 -19 -63.5t-52 -42.5t-78 -15q-44 0 -77.5 15t-52.5 42.5t-19 63.5q0 37 19 64t52.5 42t77.5 15q45 0 78 -15t52 -42t19 -64z" glyph-name="aring" horiz-adv-x="624" unicode="å"/><glyph d="M394 324l-1 -66q-46 -7 -79 -15.5t-54.5 -19t-33.5 -23t-17 -27.5t-5 -32q0 -26 8.5 -41.5t25.5 -23t41 -7.5q26 0 48.5 11t42.5 34.5t38 60.5l42 -28q-17 -39 -37.5 -68.5t-47 -49.5t-60.5 -30t-78 -10q-60 0 -102 15.5t-63 47.5t-21 80q0 43 19.5 73.5t61.5 52.5 t109 38t163 28zM299 551q52 0 89 -9.5t60 -30t34 -53.5t11 -80l-115 -85v106q0 24 -7.5 40t-26 23.5t-51.5 7.5q-47 0 -77.5 -12.5t-43.5 -27.5q-7 6 -7.5 14t5.5 16t17 13.5t28 5.5v-116h-142v126q15 11 46.5 25.5t77 25.5t102.5 11zM694 74q38 0 64.5 12t46 32.5 t34.5 45.5l68 -48q-22 -40 -54 -68.5t-76 -43.5t-105 -15q-90 0 -156 32t-102 96t-36 158q0 24 5.5 39.5t15.5 26t22 18.5t26 17q10 41 29 73.5t46.5 55.5t63 34.5t79.5 11.5q61 0 107 -19.5t77 -58.5t47 -97t17 -136h-439l-1 71h301l-23 -29q-2 56 -7.5 93t-16 58t-28 30 t-41.5 9q-25 0 -45 -10.5t-34 -34.5t-21 -63t-7 -97q0 -52 9 -89.5t26.5 -60t44.5 -33t63 -10.5z" glyph-name="ae" horiz-adv-x="946" unicode="æ"/><glyph d="M362 74q35 0 61.5 14t46.5 37t34 47l64 -43q-19 -42 -51.5 -74t-77.5 -49t-103 -17q-89 0 -156.5 32.5t-105 95.5t-37.5 153t36.5 152.5t104.5 95t163 32.5q57 0 99.5 -8t70.5 -18.5t41 -18.5v-166h-137v147q13 0 21 -6.5t11.5 -16t3 -18.5t-2.5 -14q-17 16 -41.5 26 t-57.5 10q-46 0 -75 -21.5t-42.5 -65.5t-13.5 -110q0 -51 8.5 -88t26 -61t45 -35.5t64.5 -11.5zM351 5l-69 -84l-4 15q53 1 89 -9.5t55 -32.5t19 -55q0 -30 -12 -50.5t-32 -33.5t-47.5 -19t-58.5 -6q-53 0 -88 15.5t-58 39.5l44 52q10 -9 22.5 -19t28.5 -16.5t36 -6.5 q25 0 37 11t12 32q0 22 -16 34t-62 12h-27l40 121h91z" glyph-name="ccedilla" horiz-adv-x="597" unicode="ç"/><glyph d="M211 267q0 -53 9.5 -90t28 -60t46.5 -33.5t65 -10.5q38 0 65.5 12t48 32.5t35.5 45.5l67 -47q-21 -40 -54 -69t-78 -44t-106 -15q-92 0 -159.5 32t-104.5 94.5t-37 151.5q0 86 35.5 150t99.5 99.5t147 35.5q67 0 116 -20t81.5 -59t49 -97.5t17.5 -136.5h-414v71h272 l-21 -28q-1 57 -7 94t-17 58t-29.5 29.5t-44.5 8.5t-46.5 -10.5t-35 -34t-22 -63t-7.5 -96.5zM347 746l46 -112v-32h-51l-98 66q-20 12 -35.5 26.5t-23.5 31.5t-8 35q0 28 20.5 48t53.5 20q25 0 43 -10t31 -29t22 -44z" glyph-name="egrave" horiz-adv-x="617" unicode="è"/><glyph d="M211 267q0 -53 9.5 -90t28 -60t46.5 -33.5t65 -10.5q38 0 65.5 12t48 32.5t35.5 45.5l67 -47q-21 -40 -54 -69t-78 -44t-106 -15q-92 0 -159.5 32t-104.5 94.5t-37 151.5q0 86 35.5 150t99.5 99.5t147 35.5q67 0 116 -20t81.5 -59t49 -97.5t17.5 -136.5h-414v71h272 l-21 -28q-1 57 -7 94t-17 58t-29.5 29.5t-44.5 8.5t-46.5 -10.5t-35 -34t-22 -63t-7.5 -96.5zM296 746q10 25 22.5 43.5t30 29t42.5 10.5q34 0 54 -19.5t20 -47.5q0 -19 -8.5 -35.5t-23.5 -31t-35 -26.5l-99 -67h-50v32z" glyph-name="eacute" horiz-adv-x="617" unicode="é"/><glyph d="M211 267q0 -53 9.5 -90t28 -60t46.5 -33.5t65 -10.5q38 0 65.5 12t48 32.5t35.5 45.5l67 -47q-21 -40 -54 -69t-78 -44t-106 -15q-92 0 -159.5 32t-104.5 94.5t-37 151.5q0 86 35.5 150t99.5 99.5t147 35.5q67 0 116 -20t81.5 -59t49 -97.5t17.5 -136.5h-414v71h272 l-21 -28q-1 57 -7 94t-17 58t-29.5 29.5t-44.5 8.5t-46.5 -10.5t-35 -34t-22 -63t-7.5 -96.5zM380 797h-125l-129 -169v-29h62l167 119l-85 -1l168 -118h70v29z" glyph-name="ecircumflex" horiz-adv-x="617" unicode="ê"/><glyph d="M211 267q0 -53 9.5 -90t28 -60t46.5 -33.5t65 -10.5q38 0 65.5 12t48 32.5t35.5 45.5l67 -47q-21 -40 -54 -69t-78 -44t-106 -15q-92 0 -159.5 32t-104.5 94.5t-37 151.5q0 86 35.5 150t99.5 99.5t147 35.5q67 0 116 -20t81.5 -59t49 -97.5t17.5 -136.5h-414v71h272 l-21 -28q-1 57 -7 94t-17 58t-29.5 29.5t-44.5 8.5t-46.5 -10.5t-35 -34t-22 -63t-7.5 -96.5zM277 697q0 -41 -26.5 -63t-71.5 -22t-71 21.5t-26 63.5t26 64t71 22t71.5 -22t26.5 -64zM544 697q0 -41 -26 -63t-72 -22q-44 0 -70.5 21.5t-26.5 63.5t26.5 64t70.5 22 q46 0 72 -22t26 -64z" glyph-name="edieresis" horiz-adv-x="617" unicode="ë"/><glyph d="M269 540v-426q0 -28 15.5 -38t42.5 -10h2v-66h-295v66h2q27 0 42.5 10t15.5 38v317q0 16 -12.5 22t-39.5 11l-9 2v74h236zM208 746l46 -112v-32h-51l-98 66q-20 12 -35.5 26.5t-23.5 31.5t-8 35q0 28 20.5 48t53.5 20q25 0 43 -10t31 -29t22 -44z" glyph-name="igrave" horiz-adv-x="352" unicode="ì"/><glyph d="M269 540v-426q0 -28 15.5 -38t42.5 -10h2v-66h-295v66h2q27 0 42.5 10t15.5 38v317q0 16 -12.5 22t-39.5 11l-9 2v74h236zM163 746q10 25 22.5 43.5t30 29t42.5 10.5q34 0 54 -19.5t20 -47.5q0 -19 -8.5 -35.5t-23.5 -31t-35 -26.5l-99 -67h-50v32z" glyph-name="iacute" horiz-adv-x="352" unicode="í"/><glyph d="M237 797h-125l-125 -169v-30h63l163 120l-86 -1l164 -119h71v30zM269 540v-426q0 -28 15.5 -38t42.5 -10h2v-66h-295v66h2q27 0 42.5 10t15.5 38v317q0 16 -12.5 22t-39.5 11l-9 2v74h236z" glyph-name="icircumflex" horiz-adv-x="352" unicode="î"/><glyph d="M47 608q-45 0 -71 21.5t-26 64.5q0 41 26 63t71 22t71.5 -22t26.5 -63q0 -42 -26.5 -64t-71.5 -22zM303 608q-45 0 -71 21.5t-26 64.5q0 41 26 63t71 22q46 0 72 -22t26 -63q0 -42 -26 -64t-72 -22zM269 540v-426q0 -28 15.5 -38t42.5 -10h2v-66h-295v66h2q27 0 42.5 10 t15.5 38v317q0 16 -12.5 22t-39.5 11l-9 2v74h236z" glyph-name="idieresis" horiz-adv-x="352" unicode="ï"/><glyph d="M468 423l5 -78q-17 33 -35.5 57t-43 37.5t-56.5 13.5t-54.5 -12.5t-37 -36.5t-21.5 -59t-7 -81q0 -69 12.5 -111.5t38 -62t63.5 -19.5q31 0 53 12t36 39.5t20.5 74t6.5 114.5q0 76 -8.5 133.5t-28.5 99.5t-53 73.5t-83 55.5t-118 45l30 69q118 -29 201.5 -72t136.5 -101 t78 -132t25 -164q0 -108 -36 -181.5t-102.5 -111t-157.5 -37.5q-92 0 -158 34.5t-101.5 97t-35.5 147.5q0 83 31.5 143.5t89.5 93.5t137 33q43 0 75.5 -14t57 -39.5t40.5 -60.5zM125 611l417 164l21 -60l-417 -164z" glyph-name="eth" horiz-adv-x="664" unicode="ð"/><glyph d="M33 0v66h3q18 0 30.5 4.5t19.5 15.5t7 30v315q0 11 -5.5 16.5t-16.5 9t-29 7.5l-9 2v74h217l12 -122l7 -3v-340q0 -3 8 -5t19 -3t20 -1h4v-66h-287zM683 0h-287v66h3q10 0 21 0.5t19 3t8 5.5v306q0 22 -5.5 37t-18.5 22.5t-35 7.5q-24 0 -48 -13.5t-47.5 -39.5t-48.5 -67 l3 79q22 44 54.5 76t73 50t85.5 18q52 0 88 -18.5t55.5 -55t19.5 -90.5v-271q0 -19 7 -30t19.5 -15.5t30.5 -4.5h3v-66zM431 601q-26 0 -45 9t-33 21.5t-25.5 25.5t-22 21.5t-23.5 8.5q-22 0 -29.5 -21.5t-14.5 -64.5l-74 17q9 62 23 101.5t39 59.5t65 20q24 0 41.5 -8.5 t31.5 -21t26 -25t24 -21t26 -8.5t22 10t13 29t11 48l75 -18q-10 -63 -26 -103t-41 -60t-63 -20z" glyph-name="ntilde" horiz-adv-x="705" unicode="ñ"/><glyph d="M632 269q0 -86 -35.5 -149t-102 -97.5t-159.5 -34.5q-94 0 -160.5 34.5t-102 97.5t-35.5 149q0 65 20 117t59 89t94 56.5t125 19.5t124.5 -19.5t93.5 -56.5t59 -89t20 -117zM218 269q0 -69 12 -113.5t38 -65t67 -20.5t66.5 20.5t37.5 65t12 113.5t-12 113t-37.5 64.5 t-66.5 20.5t-67 -20.5t-38 -64.5t-12 -113zM367 746l46 -112v-32h-51l-98 66q-20 12 -35.5 26.5t-23.5 31.5t-8 35q0 28 20.5 48t53.5 20q25 0 43 -10t31 -29t22 -44z" glyph-name="ograve" horiz-adv-x="669" unicode="ò"/><glyph d="M632 269q0 -86 -35.5 -149t-102 -97.5t-159.5 -34.5q-94 0 -160.5 34.5t-102 97.5t-35.5 149q0 65 20 117t59 89t94 56.5t125 19.5t124.5 -19.5t93.5 -56.5t59 -89t20 -117zM218 269q0 -69 12 -113.5t38 -65t67 -20.5t66.5 20.5t37.5 65t12 113.5t-12 113t-37.5 64.5 t-66.5 20.5t-67 -20.5t-38 -64.5t-12 -113zM324 746q10 25 22.5 43.5t30 29t42.5 10.5q34 0 54 -19.5t20 -47.5q0 -19 -8.5 -35.5t-23.5 -31t-35 -26.5l-99 -67h-50v32z" glyph-name="oacute" horiz-adv-x="669" unicode="ó"/><glyph d="M632 269q0 -86 -35.5 -149t-102 -97.5t-159.5 -34.5q-94 0 -160.5 34.5t-102 97.5t-35.5 149q0 65 20 117t59 89t94 56.5t125 19.5t124.5 -19.5t93.5 -56.5t59 -89t20 -117zM218 269q0 -69 12 -113.5t38 -65t67 -20.5t66.5 20.5t37.5 65t12 113.5t-12 113t-37.5 64.5 t-66.5 20.5t-67 -20.5t-38 -64.5t-12 -113zM400 797h-125l-129 -169v-29h62l167 119l-85 -1l168 -118h70v29z" glyph-name="ocircumflex" horiz-adv-x="669" unicode="ô"/><glyph d="M632 269q0 -86 -35.5 -149t-102 -97.5t-159.5 -34.5q-94 0 -160.5 34.5t-102 97.5t-35.5 149q0 65 20 117t59 89t94 56.5t125 19.5t124.5 -19.5t93.5 -56.5t59 -89t20 -117zM218 269q0 -69 12 -113.5t38 -65t67 -20.5t66.5 20.5t37.5 65t12 113.5t-12 113t-37.5 64.5 t-66.5 20.5t-67 -20.5t-38 -64.5t-12 -113zM404 601q-26 0 -45 9t-33 21.5t-25.5 25.5t-22 21.5t-23.5 8.5q-22 0 -29.5 -21.5t-14.5 -64.5l-74 17q9 62 23 101.5t39 59.5t65 20q24 0 41.5 -8.5t31.5 -21t26 -25t24 -21t26 -8.5t22 10t13 29t11 48l75 -18q-10 -63 -26 -103 t-41 -60t-63 -20z" glyph-name="otilde" horiz-adv-x="669" unicode="õ"/><glyph d="M632 269q0 -86 -35.5 -149t-102 -97.5t-159.5 -34.5q-94 0 -160.5 34.5t-102 97.5t-35.5 149q0 65 20 117t59 89t94 56.5t125 19.5t124.5 -19.5t93.5 -56.5t59 -89t20 -117zM218 269q0 -69 12 -113.5t38 -65t67 -20.5t66.5 20.5t37.5 65t12 113.5t-12 113t-37.5 64.5 t-66.5 20.5t-67 -20.5t-38 -64.5t-12 -113zM299 697q0 -41 -26.5 -63t-71.5 -22t-71 21.5t-26 63.5t26 64t71 22t71.5 -22t26.5 -64zM566 697q0 -41 -26 -63t-72 -22q-44 0 -70.5 21.5t-26.5 63.5t26.5 64t70.5 22q46 0 72 -22t26 -64z" glyph-name="odieresis" horiz-adv-x="669" unicode="ö"/><glyph d="M379 569q0 -41 -27 -65.5t-72 -24.5t-72 24.5t-27 65.5q0 43 27 67t72 24t72 -24t27 -67zM379 129q0 -42 -27 -66t-72 -24t-72 24t-27 66q0 43 27 67t72 24t72 -24.5t27 -66.5zM506 405v-112h-452v112h452z" glyph-name="divide" unicode="÷"/><glyph d="M-11 -13l586 565h103l-586 -565h-103zM209 269q0 -71 11 -115t38.5 -63.5t74.5 -19.5q46 0 74 20.5t40.5 64t12.5 113.5q0 72 -11 115.5t-38 63t-76 19.5q-45 0 -73 -20.5t-40.5 -64.5t-12.5 -113zM37 269q0 65 20 117t59 89t94 56.5t125 19.5q67 0 121.5 -21t94 -59 t60.5 -89.5t21 -112.5q0 -86 -35.5 -149t-102 -97.5t-159.5 -34.5q-90 0 -157 36.5t-104 100t-37 144.5z" glyph-name="oslash" horiz-adv-x="669" unicode="ø"/><glyph d="M260 540v-379q0 -22 5.5 -37.5t18.5 -23t34 -7.5q24 0 47 12.5t46.5 39t47.5 67.5l-2 -80q-23 -44 -55.5 -76t-72 -49t-83.5 -17q-51 0 -87 18.5t-55 55.5t-19 89v278q0 16 -12.5 22.5t-39.5 10.5l-12 2v74h239zM610 540v-434q0 -11 6 -17t18 -9t29 -6l7 -2v-72h-215 l-14 124l-7 6v301q0 16 -16 23t-42 10l-18 3v73h252zM370 746l46 -112v-32h-51l-98 66q-20 12 -35.5 26.5t-23.5 31.5t-8 35q0 28 20.5 48t53.5 20q25 0 43 -10t31 -29t22 -44z" glyph-name="ugrave" horiz-adv-x="694" unicode="ù"/><glyph d="M260 540v-379q0 -22 5.5 -37.5t18.5 -23t34 -7.5q24 0 47 12.5t46.5 39t47.5 67.5l-2 -80q-23 -44 -55.5 -76t-72 -49t-83.5 -17q-51 0 -87 18.5t-55 55.5t-19 89v278q0 16 -12.5 22.5t-39.5 10.5l-12 2v74h239zM610 540v-434q0 -11 6 -17t18 -9t29 -6l7 -2v-72h-215 l-14 124l-7 6v301q0 16 -16 23t-42 10l-18 3v73h252zM333 746q10 25 22.5 43.5t30 29t42.5 10.5q34 0 54 -19.5t20 -47.5q0 -19 -8.5 -35.5t-23.5 -31t-35 -26.5l-99 -67h-50v32z" glyph-name="uacute" horiz-adv-x="694" unicode="ú"/><glyph d="M260 540v-379q0 -22 5.5 -37.5t18.5 -23t34 -7.5q24 0 47 12.5t46.5 39t47.5 67.5l-2 -80q-23 -44 -55.5 -76t-72 -49t-83.5 -17q-51 0 -87 18.5t-55 55.5t-19 89v278q0 16 -12.5 22.5t-39.5 10.5l-12 2v74h239zM610 540v-434q0 -11 6 -17t18 -9t29 -6l7 -2v-72h-215 l-14 124l-7 6v301q0 16 -16 23t-42 10l-18 3v73h252zM407 797h-125l-129 -169v-29h62l167 119l-85 -1l168 -118h70v29z" glyph-name="ucircumflex" horiz-adv-x="694" unicode="û"/><glyph d="M260 540v-379q0 -22 5.5 -37.5t18.5 -23t34 -7.5q24 0 47 12.5t46.5 39t47.5 67.5l-2 -80q-23 -44 -55.5 -76t-72 -49t-83.5 -17q-51 0 -87 18.5t-55 55.5t-19 89v278q0 16 -12.5 22.5t-39.5 10.5l-12 2v74h239zM610 540v-434q0 -11 6 -17t18 -9t29 -6l7 -2v-72h-215 l-14 124l-7 6v301q0 16 -16 23t-42 10l-18 3v73h252zM305 697q0 -41 -26.5 -63t-71.5 -22t-71 21.5t-26 63.5t26 64t71 22t71.5 -22t26.5 -64zM572 697q0 -41 -26 -63t-72 -22q-44 0 -70.5 21.5t-26.5 63.5t26.5 64t70.5 22q46 0 72 -22t26 -64z" glyph-name="udieresis" horiz-adv-x="694" unicode="ü"/><glyph d="M399 103l-46 -81l-57 -73l-211 478q-7 16 -15 25t-19.5 12t-28.5 3h-6v73h304v-71h-5q-16 0 -31 -0.5t-24 -2t-9 -5.5zM399 17q-30 -69 -58.5 -118t-58 -79.5t-65 -44.5t-81.5 -14q-33 0 -59.5 6.5t-38.5 14.5v121q4 -1 20 -6.5t40 -10.5t50 -5q28 0 50.5 7t42 24.5 t37 48.5t34.5 78l28 42l157 368q0 6 -9 10.5t-23 7t-31 2.5h-5v71h215v-73h-5q-16 0 -27.5 -4.5t-20.5 -15t-18 -29.5zM354 746q10 25 22.5 43.5t30 29t42.5 10.5q34 0 54 -19.5t20 -47.5q0 -19 -8.5 -35.5t-23.5 -31t-35 -26.5l-99 -67h-50v32z" glyph-name="yacute" horiz-adv-x="660" unicode="ý"/><glyph d="M346 -223h-315v66h3q18 0 30.5 4.5t19 15.5t6.5 30v757q0 10 -5.5 16t-16.5 9.5t-29 7.5l-9 2v73h236v-906q0 -3 10.5 -5t26 -3t30.5 -1h13v-66zM427 -11q-40 0 -72 11t-58.5 33.5t-47 55.5t-38.5 76l25 40q23 -37 44 -64t44.5 -41.5t55.5 -14.5q28 0 49.5 12t35 36.5 t20 59.5t6.5 82q0 45 -5.5 78.5t-18 56t-32 33.5t-47.5 11q-31 0 -55.5 -14t-47.5 -42.5t-49 -72.5l-18 44q28 59 58 99t69 61t93 21q75 0 127 -34.5t79 -96.5t27 -144t-29 -147t-84 -102t-131 -37z" glyph-name="thorn" horiz-adv-x="710" unicode="þ"/><glyph d="M399 103l-46 -81l-57 -73l-211 478q-7 16 -15 25t-19.5 12t-28.5 3h-6v73h304v-71h-5q-16 0 -31 -0.5t-24 -2t-9 -5.5zM399 17q-30 -69 -58.5 -118t-58 -79.5t-65 -44.5t-81.5 -14q-33 0 -59.5 6.5t-38.5 14.5v121q4 -1 20 -6.5t40 -10.5t50 -5q28 0 50.5 7t42 24.5 t37 48.5t34.5 78l28 42l157 368q0 6 -9 10.5t-23 7t-31 2.5h-5v71h215v-73h-5q-16 0 -27.5 -4.5t-20.5 -15t-18 -29.5zM319 697q0 -41 -26.5 -63t-71.5 -22t-71 21.5t-26 63.5t26 64t71 22t71.5 -22t26.5 -64zM586 697q0 -41 -26 -63t-72 -22q-44 0 -70.5 21.5t-26.5 63.5 t26.5 64t70.5 22q46 0 72 -22t26 -64z" glyph-name="ydieresis" horiz-adv-x="660" unicode="ÿ"/><glyph d="M183 299h275l6 -75h-287zM306 654l25 -26l-168 -532q0 -6 8.5 -11t23.5 -7.5t34 -2.5h11v-75h-223v75h5q24 0 39 11t25 43l187 585h199l190 -593q9 -27 24.5 -36.5t38.5 -9.5h5v-75h-327v75h13q20 0 35 1.5t23.5 4t8.5 5.5zM187 901h368v-103h-368v103z" glyph-name="Amacron" horiz-adv-x="747" unicode="Ā"/><glyph d="M388 327v-65q-46 -8 -78 -17t-52.5 -20t-32 -24t-16.5 -28.5t-5 -33.5q0 -25 8 -40.5t23.5 -22.5t36.5 -7q22 0 40.5 10t37 32t37.5 56l6 -52q-20 -43 -45.5 -71t-58.5 -41.5t-78 -13.5q-55 0 -93 15.5t-57.5 47t-19.5 79.5q0 43 19 74t60.5 53.5t107 39t160.5 29.5z M392 0l-12 110l-7 -1v291q0 23 -7 39t-24.5 23.5t-50.5 7.5q-46 0 -76.5 -12.5t-42.5 -28.5q-7 6 -7.5 14t5.5 16t17 13.5t28 5.5v-116h-142v127q16 10 47 24.5t78 26t110 11.5q54 0 98 -10t75 -30.5t47.5 -53t16.5 -76.5v-275q0 -11 6 -17t17.5 -9t29.5 -6l6 -2v-72h-212z M123 742h368v-103h-368v103z" glyph-name="amacron" horiz-adv-x="624" unicode="ā"/><glyph d="M183 299h275l6 -75h-287zM306 654l25 -26l-168 -532q0 -6 8.5 -11t23.5 -7.5t34 -2.5h11v-75h-223v75h5q24 0 39 11t25 43l187 585h199l190 -593q9 -27 24.5 -36.5t38.5 -9.5h5v-75h-327v75h13q20 0 35 1.5t23.5 4t8.5 5.5zM373 772q58 0 97.5 19t61 58.5t22.5 101.5h-86 q-3 -27 -12 -42t-28 -21.5t-52 -6.5t-52 6.5t-28.5 21.5t-12.5 42h-91q2 -62 23 -101.5t61.5 -58.5t96.5 -19z" glyph-name="Abreve" horiz-adv-x="747" unicode="Ă"/><glyph d="M388 327v-65q-46 -8 -78 -17t-52.5 -20t-32 -24t-16.5 -28.5t-5 -33.5q0 -25 8 -40.5t23.5 -22.5t36.5 -7q22 0 40.5 10t37 32t37.5 56l6 -52q-20 -43 -45.5 -71t-58.5 -41.5t-78 -13.5q-55 0 -93 15.5t-57.5 47t-19.5 79.5q0 43 19 74t60.5 53.5t107 39t160.5 29.5z M392 0l-12 110l-7 -1v291q0 23 -7 39t-24.5 23.5t-50.5 7.5q-46 0 -76.5 -12.5t-42.5 -28.5q-7 6 -7.5 14t5.5 16t17 13.5t28 5.5v-116h-142v127q16 10 47 24.5t78 26t110 11.5q54 0 98 -10t75 -30.5t47.5 -53t16.5 -76.5v-275q0 -11 6 -17t17.5 -9t29.5 -6l6 -2v-72h-212z M308 604q55 0 94 20t59.5 62t19.5 106h-85q-2 -30 -10.5 -46.5t-26 -23t-48.5 -6.5t-49 6.5t-26.5 23t-11.5 46.5h-90q1 -64 21 -106t59 -62t94 -20z" glyph-name="abreve" horiz-adv-x="624" unicode="ă"/><glyph d="M185 299h272l7 -75h-290zM563 54l30 -44q-52 -31 -78.5 -53.5t-35.5 -41.5t-9 -39q0 -23 11.5 -34.5t33.5 -11.5q24 0 41 12.5t28 24.5l41 -45q-26 -31 -62 -50t-96 -19q-64 0 -104 24.5t-40 77.5q0 30 13 54.5t41.5 46.5t74.5 45.5t111 52.5zM730 0h-222l-203 656 l29 -12l-172 -548q0 -6 8.5 -11t23.5 -7.5t34 -2.5h11v-75h-222v75h5q24 0 39 11t25 43l186 587h199l190 -595q9 -27 25 -36.5t39 -9.5h5v-75z" glyph-name="Aogonek" horiz-adv-x="747" unicode="Ą"/><glyph d="M234 -148q0 28 13.5 50.5t42 43t74.5 43t110 51.5l32 -31q-39 -23 -63.5 -41.5t-38 -34t-18.5 -29.5t-5 -29q0 -22 12 -33.5t33 -11.5q24 0 40.5 12.5t27.5 23.5l41 -45q-26 -31 -61.5 -49.5t-96.5 -18.5q-64 0 -103.5 24.5t-39.5 74.5zM604 0h-212l-12 110l-7 -1v291 q0 23 -7 39t-24.5 23.5t-50.5 7.5q-46 0 -76.5 -12.5t-42.5 -28.5q-7 6 -7.5 14t5.5 16t17 13.5t28 5.5v-116h-142v127q16 10 47 24.5t78 26t110 11.5q54 0 98 -10t75 -30.5t47.5 -53t16.5 -76.5v-275q0 -11 6 -17t17.5 -9t29.5 -6l6 -2v-72zM41 131q0 43 19 74t60.5 53.5 t107 39t160.5 29.5v-65q-46 -8 -78 -17t-52.5 -20t-32 -24t-16.5 -28.5t-5 -33.5q0 -25 8 -40.5t23.5 -22.5t36.5 -7q22 0 40.5 10t37 32t37.5 56l6 -52q-20 -43 -45.5 -71t-58.5 -41.5t-78 -13.5q-55 0 -93 15.5t-57.5 47t-19.5 79.5z" glyph-name="aogonek" horiz-adv-x="624" unicode="ą"/><glyph d="M412 642q-43 0 -76 -18t-55 -53.5t-33 -89.5t-11 -126q0 -74 11.5 -128t34.5 -89t58 -52.5t82 -17.5q58 0 97.5 24t64.5 66.5t39 98.5l76 -33q-19 -74 -57 -128.5t-97.5 -83.5t-144.5 -29q-80 0 -145.5 24.5t-113.5 72.5t-73.5 117t-25.5 158q0 90 26.5 159.5t74 116.5 t110.5 72t135 25q73 0 121.5 -27t77.5 -76t42 -116l-43 30l19 176h83v-242h-98q-14 51 -38 89t-58.5 59t-82.5 21zM388 899l-69 -95v-32h51l100 38q30 10 50.5 22.5t31 29t10.5 38.5q0 28 -20 47.5t-53 19.5q-23 0 -40.5 -8.5t-31.5 -24t-29 -35.5z" glyph-name="Cacute" horiz-adv-x="740" unicode="Ć"/><glyph d="M362 74q35 0 61.5 14t46.5 37t34 47l64 -43q-19 -42 -51.5 -74t-77.5 -49t-103 -17q-89 0 -156.5 32.5t-105 95.5t-37.5 153t36.5 152.5t104.5 95t163 32.5q57 0 99.5 -8t70.5 -18.5t41 -18.5v-166h-137v147q13 0 21 -6.5t11.5 -16t3 -18.5t-2.5 -14q-17 16 -41.5 26 t-57.5 10q-46 0 -75 -21.5t-42.5 -65.5t-13.5 -110q0 -51 8.5 -88t26 -61t45 -35.5t64.5 -11.5zM307 746q10 25 22.5 43.5t30 29t42.5 10.5q34 0 54 -19.5t20 -47.5q0 -19 -8.5 -35.5t-23.5 -31t-35 -26.5l-99 -67h-50v32z" glyph-name="cacute" horiz-adv-x="597" unicode="ć"/><glyph d="M412 642q-43 0 -76 -18t-55 -53.5t-33 -89.5t-11 -126q0 -74 11.5 -128t34.5 -89t58 -52.5t82 -17.5q58 0 97.5 24t64.5 66.5t39 98.5l76 -33q-19 -74 -57 -128.5t-97.5 -83.5t-144.5 -29q-80 0 -145.5 24.5t-113.5 72.5t-73.5 117t-25.5 158q0 90 26.5 159.5t74 116.5 t110.5 72t135 25q73 0 121.5 -27t77.5 -76t42 -116l-43 30l19 176h83v-242h-98q-14 51 -38 89t-58.5 59t-82.5 21zM455 945h-131l-128 -152v-29h72l158 103l-83 -1l159 -102h80v29z" glyph-name="Ccircumflex" horiz-adv-x="740" unicode="Ĉ"/><glyph d="M362 74q35 0 61.5 14t46.5 37t34 47l64 -43q-19 -42 -51.5 -74t-77.5 -49t-103 -17q-89 0 -156.5 32.5t-105 95.5t-37.5 153t36.5 152.5t104.5 95t163 32.5q57 0 99.5 -8t70.5 -18.5t41 -18.5v-166h-137v147q13 0 21 -6.5t11.5 -16t3 -18.5t-2.5 -14q-17 16 -41.5 26 t-57.5 10q-46 0 -75 -21.5t-42.5 -65.5t-13.5 -110q0 -51 8.5 -88t26 -61t45 -35.5t64.5 -11.5zM386 797h-125l-129 -169v-29h62l167 119l-85 -1l168 -118h70v29z" glyph-name="ccircumflex" horiz-adv-x="597" unicode="ĉ"/><glyph d="M412 642q-43 0 -76 -18t-55 -53.5t-33 -89.5t-11 -126q0 -74 11.5 -128t34.5 -89t58 -52.5t82 -17.5q58 0 97.5 24t64.5 66.5t39 98.5l76 -33q-19 -74 -57 -128.5t-97.5 -83.5t-144.5 -29q-80 0 -145.5 24.5t-113.5 72.5t-73.5 117t-25.5 158q0 90 26.5 159.5t74 116.5 t110.5 72t135 25q73 0 121.5 -27t77.5 -76t42 -116l-43 30l19 176h83v-242h-98q-14 51 -38 89t-58.5 59t-82.5 21zM386 772q-46 0 -73 21.5t-27 63.5t27 64t73 22q47 0 73.5 -22t26.5 -64t-26.5 -63.5t-73.5 -21.5z" glyph-name="Cdotaccent" horiz-adv-x="740" unicode="Ċ"/><glyph d="M362 74q35 0 61.5 14t46.5 37t34 47l64 -43q-19 -42 -51.5 -74t-77.5 -49t-103 -17q-89 0 -156.5 32.5t-105 95.5t-37.5 153t36.5 152.5t104.5 95t163 32.5q57 0 99.5 -8t70.5 -18.5t41 -18.5v-166h-137v147q13 0 21 -6.5t11.5 -16t3 -18.5t-2.5 -14q-17 16 -41.5 26 t-57.5 10q-46 0 -75 -21.5t-42.5 -65.5t-13.5 -110q0 -51 8.5 -88t26 -61t45 -35.5t64.5 -11.5zM324 615q-46 0 -73 21.5t-27 63.5t27 64t73 22q47 0 73.5 -22t26.5 -64t-26.5 -63.5t-73.5 -21.5z" glyph-name="cdotaccent" horiz-adv-x="597" unicode="ċ"/><glyph d="M321 772h131l127 152v29h-72l-157 -102l82 1l-159 101h-80v-29zM412 642q-43 0 -76 -18t-55 -53.5t-33 -89.5t-11 -126q0 -74 11.5 -128t34.5 -89t58 -52.5t82 -17.5q58 0 97.5 24t64.5 66.5t39 98.5l76 -33q-19 -74 -57 -128.5t-97.5 -83.5t-144.5 -29 q-80 0 -145.5 24.5t-113.5 72.5t-73.5 117t-25.5 158q0 90 26.5 159.5t74 116.5t110.5 72t135 25q73 0 121.5 -27t77.5 -76t42 -116l-43 30l19 176h83v-242h-98q-14 51 -38 89t-58.5 59t-82.5 21z" glyph-name="Ccaron" horiz-adv-x="740" unicode="Č"/><glyph d="M259 605h125l129 169v30h-63l-167 -120l86 1l-168 119h-71v-30zM362 74q35 0 61.5 14t46.5 37t34 47l64 -43q-19 -42 -51.5 -74t-77.5 -49t-103 -17q-89 0 -156.5 32.5t-105 95.5t-37.5 153t36.5 152.5t104.5 95t163 32.5q57 0 99.5 -8t70.5 -18.5t41 -18.5v-166h-137 v147q13 0 21 -6.5t11.5 -16t3 -18.5t-2.5 -14q-17 16 -41.5 26t-57.5 10q-46 0 -75 -21.5t-42.5 -65.5t-13.5 -110q0 -51 8.5 -88t26 -61t45 -35.5t64.5 -11.5z" glyph-name="ccaron" horiz-adv-x="597" unicode="č"/><glyph d="M326 772h131l128 152v29h-72l-158 -102l83 1l-159 101h-80v-29zM38 635v75h359q85 0 154.5 -22t120 -66.5t78 -110.5t27.5 -153t-27.5 -153.5t-78 -112t-120 -69t-154.5 -23.5h-359v75h12q26 0 43.5 7t17.5 29v488q0 21 -17.5 28.5t-43.5 7.5h-12zM383 629h-87v-548h87 q48 0 85 17t62.5 52t39 87t13.5 121t-13.5 120t-39 84.5t-62.5 50t-85 16.5z" glyph-name="Dcaron" horiz-adv-x="820" unicode="Ď"/><glyph d="M619 106q0 -16 13.5 -22t39.5 -10l7 -2v-72h-215l-14 122l-7 -9v537q0 10 -6 16t-18 9.5t-29 7.5l-9 2v73h238v-652zM281 550q49 0 86 -17.5t65 -51.5t48 -82l-1 -72q-27 43 -49 71t-45.5 42t-55.5 14q-29 0 -50 -12t-34.5 -36t-20 -59.5t-6.5 -82.5q0 -45 5.5 -78.5 t18 -56t32 -33.5t47.5 -11q31 0 55.5 14t49 45t53.5 81l1 -74q-24 -51 -53 -87.5t-66.5 -55.5t-88.5 -19q-75 0 -127.5 34.5t-80 96.5t-27.5 144q0 83 29.5 147.5t84.5 101.5t130 37zM775 577l67 181h-148l-17 -158v-23h98z" glyph-name="dcaron" horiz-adv-x="701" unicode="ď"/><glyph d="M36 400h408v-82h-408v82zM38 635v75h359q85 0 154.5 -22t120 -66.5t78 -110.5t27.5 -153t-27.5 -153.5t-78 -112t-120 -69t-154.5 -23.5h-359v75h12q26 0 43.5 7t17.5 29v488q0 21 -17.5 28.5t-43.5 7.5h-12zM383 629h-87v-548h87q48 0 85 17t62.5 52t39 87t13.5 121 t-13.5 120t-39 84.5t-62.5 50t-85 16.5z" glyph-name="Dcroat" horiz-adv-x="820" unicode="Đ"/><glyph d="M281 550q55 0 94.5 -21.5t69 -63.5t49.5 -103l-22 -28q-22 39 -43 65.5t-44.5 40.5t-55.5 14q-29 0 -50 -12t-34.5 -36t-20 -59.5t-6.5 -82.5q0 -45 5.5 -78.5t18 -56t32 -33.5t47.5 -11q23 0 42.5 8t37.5 23.5t35 40.5t37 57l17 -44q-26 -58 -56 -98.5t-69 -61.5 t-93 -21q-75 0 -127.5 34.5t-80 96.5t-27.5 144q0 83 29.5 147.5t84.5 101.5t130 37zM443 758h176v-652q0 -16 13.5 -22t39.5 -10l7 -2v-72h-216l-14 122l-6 -9v645zM686 680v-76h-428v76h428z" glyph-name="dcroat" horiz-adv-x="701" unicode="đ"/><glyph d="M637 226v-226h-599v75h11q27 0 44.5 7t17.5 29v488q0 22 -17.5 29t-44.5 7h-11v75h576v-201h-87l-9 77q-2 18 -14.5 27.5t-35 13t-55.5 3.5h-117v-550h122q30 0 51.5 2t35 7t20.5 13.5t9 21.5l13 102h90zM274 400q42 3 83.5 5.5t83 5.5t82.5 5v-103q-41 3 -82.5 5.5 l-83 5t-83.5 5.5v71zM154 901h368v-103h-368v103z" glyph-name="Emacron" horiz-adv-x="686" unicode="Ē"/><glyph d="M211 267q0 -53 9.5 -90t28 -60t46.5 -33.5t65 -10.5q38 0 65.5 12t48 32.5t35.5 45.5l67 -47q-21 -40 -54 -69t-78 -44t-106 -15q-92 0 -159.5 32t-104.5 94.5t-37 151.5q0 86 35.5 150t99.5 99.5t147 35.5q67 0 116 -20t81.5 -59t49 -97.5t17.5 -136.5h-414v71h272 l-21 -28q-1 57 -7 94t-17 58t-29.5 29.5t-44.5 8.5t-46.5 -10.5t-35 -34t-22 -63t-7.5 -96.5zM129 742h368v-103h-368v103z" glyph-name="emacron" horiz-adv-x="617" unicode="ē"/><glyph d="M637 226v-226h-599v75h11q27 0 44.5 7t17.5 29v488q0 22 -17.5 29t-44.5 7h-11v75h576v-201h-87l-9 77q-2 18 -14.5 27.5t-35 13t-55.5 3.5h-117v-550h122q30 0 51.5 2t35 7t20.5 13.5t9 21.5l13 102h90zM274 400q42 3 83.5 5.5t83 5.5t82.5 5v-103q-41 3 -82.5 5.5 l-83 5t-83.5 5.5v71zM338 769q58 0 97.5 19t61 58.5t22.5 101.5h-86q-3 -27 -12 -42t-28 -21.5t-52 -6.5t-52 6.5t-28.5 21.5t-12.5 42h-91q2 -62 23 -101.5t61.5 -58.5t96.5 -19z" glyph-name="Ebreve" horiz-adv-x="686" unicode="Ĕ"/><glyph d="M211 267q0 -53 9.5 -90t28 -60t46.5 -33.5t65 -10.5q38 0 65.5 12t48 32.5t35.5 45.5l67 -47q-21 -40 -54 -69t-78 -44t-106 -15q-92 0 -159.5 32t-104.5 94.5t-37 151.5q0 86 35.5 150t99.5 99.5t147 35.5q67 0 116 -20t81.5 -59t49 -97.5t17.5 -136.5h-414v71h272 l-21 -28q-1 57 -7 94t-17 58t-29.5 29.5t-44.5 8.5t-46.5 -10.5t-35 -34t-22 -63t-7.5 -96.5zM313 604q55 0 94 20t59.5 62t19.5 106h-85q-2 -30 -10.5 -46.5t-26 -23t-48.5 -6.5t-49 6.5t-26.5 23t-11.5 46.5h-90q1 -64 21 -106t59 -62t94 -20z" glyph-name="ebreve" horiz-adv-x="617" unicode="ĕ"/><glyph d="M637 226v-226h-599v75h11q27 0 44.5 7t17.5 29v488q0 22 -17.5 29t-44.5 7h-11v75h576v-201h-87l-9 77q-2 18 -14.5 27.5t-35 13t-55.5 3.5h-117v-550h122q30 0 51.5 2t35 7t20.5 13.5t9 21.5l13 102h90zM274 400q42 3 83.5 5.5t83 5.5t82.5 5v-103q-41 3 -82.5 5.5 l-83 5t-83.5 5.5v71zM340 772q-46 0 -73 21.5t-27 63.5t27 64t73 22q47 0 73.5 -22t26.5 -64t-26.5 -63.5t-73.5 -21.5z" glyph-name="Edotaccent" horiz-adv-x="686" unicode="Ė"/><glyph d="M211 267q0 -53 9.5 -90t28 -60t46.5 -33.5t65 -10.5q38 0 65.5 12t48 32.5t35.5 45.5l67 -47q-21 -40 -54 -69t-78 -44t-106 -15q-92 0 -159.5 32t-104.5 94.5t-37 151.5q0 86 35.5 150t99.5 99.5t147 35.5q67 0 116 -20t81.5 -59t49 -97.5t17.5 -136.5h-414v71h272 l-21 -28q-1 57 -7 94t-17 58t-29.5 29.5t-44.5 8.5t-46.5 -10.5t-35 -34t-22 -63t-7.5 -96.5zM315 615q-46 0 -73 21.5t-27 63.5t27 64t73 22q47 0 73.5 -22t26.5 -64t-26.5 -63.5t-73.5 -21.5z" glyph-name="edotaccent" horiz-adv-x="617" unicode="ė"/><glyph d="M637 226v-226h-599v75h11q27 0 44.5 7t17.5 29v488q0 22 -17.5 29t-44.5 7h-11v75h576v-201h-87l-9 77q-2 18 -14.5 27.5t-35 13t-55.5 3.5h-117v-550h122q30 0 51.5 2t35 7t20.5 13.5t9 21.5l13 102h90zM274 400q42 3 83.5 5.5t83 5.5t82.5 5v-103q-41 3 -82.5 5.5 l-83 5t-83.5 5.5v71zM529 40l31 -31q-39 -23 -63.5 -41.5t-37.5 -34t-18.5 -29.5t-5.5 -29q0 -22 12.5 -33.5t33.5 -11.5q24 0 40.5 12.5t27.5 23.5l41 -45q-26 -31 -61.5 -49.5t-96.5 -18.5q-65 0 -104 24.5t-39 74.5q0 28 13.5 50.5t42 43t74.5 43t110 51.5z" glyph-name="Eogonek" horiz-adv-x="686" unicode="Ę"/><glyph d="M461 37l-8 -30q-25 -9 -53.5 -14t-61.5 -5q-92 0 -159.5 32t-104.5 94.5t-37 151.5q0 86 35.5 150t99.5 99.5t147 35.5q67 0 116 -20t81.5 -59t49 -97.5t17.5 -136.5h-449v71h307l-21 -28q-1 57 -7 94t-17 58t-29.5 29.5t-44.5 8.5t-46.5 -10.5t-35 -34t-22 -63 t-7.5 -96.5q0 -53 9.5 -90t28 -60t46.5 -33.5t65 -10.5q38 0 65.5 12t48 32.5t35.5 45.5l67 -47q-12 -23 -27.5 -42t-39.5 -37q-30 -24 -56.5 -44.5t-47.5 -39.5t-32.5 -38t-11.5 -40q0 -22 12 -33.5t34 -11.5q23 0 40 12.5t27 23.5l42 -45q-27 -31 -62 -49.5t-94 -18.5 q-44 0 -77 11t-51 33t-18 55q0 29 13.5 51t43 42t76.5 42.5t114 49.5z" glyph-name="eogonek" horiz-adv-x="617" unicode="ę"/><glyph d="M274 772h131l128 152v29h-72l-158 -102l82 1l-158 101h-80v-29zM637 226v-226h-599v75h11q27 0 44.5 7t17.5 29v488q0 22 -17.5 29t-44.5 7h-11v75h576v-201h-87l-9 77q-2 18 -14.5 27.5t-35 13t-55.5 3.5h-117v-550h122q30 0 51.5 2t35 7t20.5 13.5t9 21.5l13 102h90z M274 400q42 3 83.5 5.5t83 5.5t82.5 5v-103q-41 3 -82.5 5.5l-83 5t-83.5 5.5v71z" glyph-name="Ecaron" horiz-adv-x="686" unicode="Ě"/><glyph d="M248 605h125l129 169v30h-62l-167 -120l86 1l-169 119h-70v-30zM211 267q0 -53 9.5 -90t28 -60t46.5 -33.5t65 -10.5q38 0 65.5 12t48 32.5t35.5 45.5l67 -47q-21 -40 -54 -69t-78 -44t-106 -15q-92 0 -159.5 32t-104.5 94.5t-37 151.5q0 86 35.5 150t99.5 99.5t147 35.5 q67 0 116 -20t81.5 -59t49 -97.5t17.5 -136.5h-414v71h272l-21 -28q-1 57 -7 94t-17 58t-29.5 29.5t-44.5 8.5t-46.5 -10.5t-35 -34t-22 -63t-7.5 -96.5z" glyph-name="ecaron" horiz-adv-x="617" unicode="ě"/><glyph d="M711 242v-142q-15 -18 -43.5 -38.5t-68.5 -38.5t-88.5 -29t-102.5 -11q-83 0 -150 24.5t-115 72.5t-74 117t-26 158q0 88 26.5 157t75.5 117.5t113.5 73.5t141.5 25q73 0 122 -26t78.5 -72.5t43.5 -109.5l-44 31l17 164h85v-231h-96q-15 47 -40 82.5t-61 55.5t-84 20 q-46 0 -80 -18.5t-57.5 -54t-35 -89t-11.5 -125.5q0 -76 12 -130.5t35.5 -89t57.5 -51t78 -16.5q34 0 57.5 7.5t39.5 18t25 18.5v130q0 23 -19 30.5t-48 7.5h-20v75h323v-75h-15q-24 0 -38 -7.5t-14 -30.5zM475 945h-131l-128 -152v-29h72l158 103l-83 -1l159 -102h80v29z" glyph-name="Gcircumflex" horiz-adv-x="806" unicode="Ĝ"/><glyph d="M668 442q-41 7 -71 9.5t-54 3t-45 -3.5l-21 -5q15 34 32.5 60t40 42.5t51.5 23.5t67 2v-132zM314 173q-75 0 -130.5 22.5t-85.5 65t-30 99.5q0 58 30.5 100.5t86 66.5t129.5 24q75 0 130.5 -24t86.5 -66.5t31 -100.5q0 -57 -31 -99.5t-86.5 -65t-130.5 -22.5zM314 244 q30 0 48.5 12t27.5 37.5t9 65.5q0 41 -9 67t-27.5 38.5t-48.5 12.5q-28 0 -47 -12.5t-28 -38.5t-9 -67q0 -40 9 -65.5t28 -37.5t47 -12zM231 -245q-70 0 -119.5 11.5t-75.5 36.5t-26 66q0 29 15.5 50t49.5 37t89 31l33 -22q-21 -13 -33 -25.5t-17 -25t-5 -29.5 q0 -18 11.5 -31t37 -19.5t67.5 -6.5h104q46 0 76 8.5t44.5 25.5t14.5 41q0 21 -12.5 32t-43.5 11h-289l8 13q-38 8 -64 23.5t-39 39t-13 54.5q0 33 17 59.5t50.5 48t79.5 38.5l45 -20q-22 -13 -36 -24.5t-20.5 -22.5t-6.5 -24q0 -20 14.5 -28.5t44.5 -8.5h222q62 0 104 -16 t63 -48t21 -81q0 -66 -35 -109t-97 -64t-142 -21h-137zM389 797h-125l-129 -169v-29h62l167 119l-85 -1l168 -118h70v29z" glyph-name="gcircumflex" horiz-adv-x="679" unicode="ĝ"/><glyph d="M711 242v-142q-15 -18 -43.5 -38.5t-68.5 -38.5t-88.5 -29t-102.5 -11q-83 0 -150 24.5t-115 72.5t-74 117t-26 158q0 88 26.5 157t75.5 117.5t113.5 73.5t141.5 25q73 0 122 -26t78.5 -72.5t43.5 -109.5l-44 31l17 164h85v-231h-96q-15 47 -40 82.5t-61 55.5t-84 20 q-46 0 -80 -18.5t-57.5 -54t-35 -89t-11.5 -125.5q0 -76 12 -130.5t35.5 -89t57.5 -51t78 -16.5q34 0 57.5 7.5t39.5 18t25 18.5v130q0 23 -19 30.5t-48 7.5h-20v75h323v-75h-15q-24 0 -38 -7.5t-14 -30.5zM403 769q58 0 97.5 19t61 58.5t22.5 101.5h-86q-3 -27 -12 -42 t-28 -21.5t-52 -6.5t-52 6.5t-28.5 21.5t-12.5 42h-91q2 -62 23 -101.5t61.5 -58.5t96.5 -19z" glyph-name="Gbreve" horiz-adv-x="806" unicode="Ğ"/><glyph d="M668 442q-41 7 -71 9.5t-54 3t-45 -3.5l-21 -5q15 34 32.5 60t40 42.5t51.5 23.5t67 2v-132zM314 173q-75 0 -130.5 22.5t-85.5 65t-30 99.5q0 58 30.5 100.5t86 66.5t129.5 24q75 0 130.5 -24t86.5 -66.5t31 -100.5q0 -57 -31 -99.5t-86.5 -65t-130.5 -22.5zM314 244 q30 0 48.5 12t27.5 37.5t9 65.5q0 41 -9 67t-27.5 38.5t-48.5 12.5q-28 0 -47 -12.5t-28 -38.5t-9 -67q0 -40 9 -65.5t28 -37.5t47 -12zM231 -245q-70 0 -119.5 11.5t-75.5 36.5t-26 66q0 29 15.5 50t49.5 37t89 31l33 -22q-21 -13 -33 -25.5t-17 -25t-5 -29.5 q0 -18 11.5 -31t37 -19.5t67.5 -6.5h104q46 0 76 8.5t44.5 25.5t14.5 41q0 21 -12.5 32t-43.5 11h-289l8 13q-38 8 -64 23.5t-39 39t-13 54.5q0 33 17 59.5t50.5 48t79.5 38.5l45 -20q-22 -13 -36 -24.5t-20.5 -22.5t-6.5 -24q0 -20 14.5 -28.5t44.5 -8.5h222q62 0 104 -16 t63 -48t21 -81q0 -66 -35 -109t-97 -64t-142 -21h-137zM323 604q55 0 94 20t59.5 62t19.5 106h-85q-2 -30 -10.5 -46.5t-26 -23t-48.5 -6.5t-49 6.5t-26.5 23t-11.5 46.5h-90q1 -64 21 -106t59 -62t94 -20z" glyph-name="gbreve" horiz-adv-x="679" unicode="ğ"/><glyph d="M711 242v-142q-15 -18 -43.5 -38.5t-68.5 -38.5t-88.5 -29t-102.5 -11q-83 0 -150 24.5t-115 72.5t-74 117t-26 158q0 88 26.5 157t75.5 117.5t113.5 73.5t141.5 25q73 0 122 -26t78.5 -72.5t43.5 -109.5l-44 31l17 164h85v-231h-96q-15 47 -40 82.5t-61 55.5t-84 20 q-46 0 -80 -18.5t-57.5 -54t-35 -89t-11.5 -125.5q0 -76 12 -130.5t35.5 -89t57.5 -51t78 -16.5q34 0 57.5 7.5t39.5 18t25 18.5v130q0 23 -19 30.5t-48 7.5h-20v75h323v-75h-15q-24 0 -38 -7.5t-14 -30.5zM409 772q-46 0 -73 21.5t-27 63.5t27 64t73 22q47 0 73.5 -22 t26.5 -64t-26.5 -63.5t-73.5 -21.5z" glyph-name="Gdotaccent" horiz-adv-x="806" unicode="Ġ"/><glyph d="M668 442q-41 7 -71 9.5t-54 3t-45 -3.5l-21 -5q15 34 32.5 60t40 42.5t51.5 23.5t67 2v-132zM314 173q-75 0 -130.5 22.5t-85.5 65t-30 99.5q0 58 30.5 100.5t86 66.5t129.5 24q75 0 130.5 -24t86.5 -66.5t31 -100.5q0 -57 -31 -99.5t-86.5 -65t-130.5 -22.5zM314 244 q30 0 48.5 12t27.5 37.5t9 65.5q0 41 -9 67t-27.5 38.5t-48.5 12.5q-28 0 -47 -12.5t-28 -38.5t-9 -67q0 -40 9 -65.5t28 -37.5t47 -12zM231 -245q-70 0 -119.5 11.5t-75.5 36.5t-26 66q0 29 15.5 50t49.5 37t89 31l33 -22q-21 -13 -33 -25.5t-17 -25t-5 -29.5 q0 -18 11.5 -31t37 -19.5t67.5 -6.5h104q46 0 76 8.5t44.5 25.5t14.5 41q0 21 -12.5 32t-43.5 11h-289l8 13q-38 8 -64 23.5t-39 39t-13 54.5q0 33 17 59.5t50.5 48t79.5 38.5l45 -20q-22 -13 -36 -24.5t-20.5 -22.5t-6.5 -24q0 -20 14.5 -28.5t44.5 -8.5h222q62 0 104 -16 t63 -48t21 -81q0 -66 -35 -109t-97 -64t-142 -21h-137zM321 615q-46 0 -73 21.5t-27 63.5t27 64t73 22q47 0 73.5 -22t26.5 -64t-26.5 -63.5t-73.5 -21.5z" glyph-name="gdotaccent" horiz-adv-x="679" unicode="ġ"/><glyph d="M711 242v-142q-15 -18 -43.5 -38.5t-68.5 -38.5t-88.5 -29t-102.5 -11q-83 0 -150 24.5t-115 72.5t-74 117t-26 158q0 88 26.5 157t75.5 117.5t113.5 73.5t141.5 25q73 0 122 -26t78.5 -72.5t43.5 -109.5l-44 31l17 164h85v-231h-96q-15 47 -40 82.5t-61 55.5t-84 20 q-46 0 -80 -18.5t-57.5 -54t-35 -89t-11.5 -125.5q0 -76 12 -130.5t35.5 -89t57.5 -51t78 -16.5q34 0 57.5 7.5t39.5 18t25 18.5v130q0 23 -19 30.5t-48 7.5h-20v75h323v-75h-15q-24 0 -38 -7.5t-14 -30.5zM370 -355l-62 64q36 13 65 27t46 32.5t18 45.5l15 -10 q-11 -7 -25 -9.5t-29 -2.5q-39 0 -60 18.5t-21 49.5t22.5 51t68.5 20q50 0 75 -26t25 -75q0 -47 -17.5 -80.5t-48.5 -58t-72 -46.5z" glyph-name="Gcommaaccent" horiz-adv-x="806" unicode="Ģ"/><glyph d="M365 905l63 -64q-37 -14 -65.5 -27.5t-45.5 -32t-18 -45.5l-16 10q12 7 25.5 9t28.5 2q40 0 60.5 -18t20.5 -50q0 -30 -22.5 -50t-68.5 -20q-49 0 -74.5 25.5t-25.5 75.5q0 47 17.5 80.5t48.5 58.5t72 46zM668 442q-41 7 -71 9.5t-54 3t-45 -3.5l-21 -5q15 34 32.5 60 t40 42.5t51.5 23.5t67 2v-132zM314 173q-75 0 -130.5 22.5t-85.5 65t-30 99.5q0 58 30.5 100.5t86 66.5t129.5 24q75 0 130.5 -24t86.5 -66.5t31 -100.5q0 -57 -31 -99.5t-86.5 -65t-130.5 -22.5zM314 244q30 0 48.5 12t27.5 37.5t9 65.5q0 41 -9 67t-27.5 38.5t-48.5 12.5 q-28 0 -47 -12.5t-28 -38.5t-9 -67q0 -40 9 -65.5t28 -37.5t47 -12zM231 -245q-70 0 -119.5 11.5t-75.5 36.5t-26 66q0 29 15.5 50t49.5 37t89 31l33 -22q-21 -13 -33 -25.5t-17 -25t-5 -29.5q0 -18 11.5 -31t37 -19.5t67.5 -6.5h104q46 0 76 8.5t44.5 25.5t14.5 41 q0 21 -12.5 32t-43.5 11h-289l8 13q-38 8 -64 23.5t-39 39t-13 54.5q0 33 17 59.5t50.5 48t79.5 38.5l45 -20q-22 -13 -36 -24.5t-20.5 -22.5t-6.5 -24q0 -20 14.5 -28.5t44.5 -8.5h222q62 0 104 -16t63 -48t21 -81q0 -66 -35 -109t-97 -64t-142 -21h-137z" glyph-name="gcommaaccent" horiz-adv-x="679" unicode="ģ"/><glyph d="M197 406h423v-81h-423v81zM38 0v75h11q27 0 44.5 7t17.5 29v488q0 22 -17.5 29t-44.5 7h-11v75h328v-75h-8q-10 0 -21 -0.5t-20 -2t-15 -3t-6 -4.5v-540q0 -3 6 -4.5t15 -3t20 -2t21 -0.5h8v-75h-328zM479 0v75h8q10 0 21 0.5t20 2t14.5 3t5.5 4.5v540q0 3 -5.5 4.5 t-14.5 3t-20 2t-21 0.5h-8v75h327v-75h-10q-27 0 -44.5 -7t-17.5 -29v-488q0 -22 17.5 -29t44.5 -7h10v-75h-327zM491 954h-131l-128 -152v-29h72l158 103l-83 -1l159 -102h80v29z" glyph-name="Hcircumflex" horiz-adv-x="845" unicode="Ĥ"/><glyph d="M269 758v-683q0 -3 8 -5t19 -3t20 -1h4v-66h-287v66h3q18 0 30.5 4.5t20 15.5t7.5 30v534q0 10 -5.5 16t-17 10t-29.5 7l-9 2v73h236zM683 0h-287v66h3q10 0 21.5 0.5t19 3t7.5 5.5v306q0 22 -5.5 37t-18.5 22.5t-34 7.5q-25 0 -49 -13t-47.5 -39.5t-47.5 -66.5l2 79 q22 43 54.5 75t73 50t85.5 18q52 0 88 -18.5t55.5 -55t19.5 -90.5v-271q0 -19 7 -30t20 -15.5t30 -4.5h3v-66zM428 989h-131l-128 -152v-29h72l158 103l-83 -1l159 -102h80v29z" glyph-name="hcircumflex" horiz-adv-x="704" unicode="ĥ"/><glyph d="M197 376h423v-71h-423v71zM38 0v75h11q27 0 44.5 7t17.5 29v488q0 22 -17.5 29t-44.5 7h-11v75h328v-75h-8q-10 0 -21 -0.5t-20 -2t-15 -3t-6 -4.5v-540q0 -3 6 -4.5t15 -3t20 -2t21 -0.5h8v-75h-328zM479 0v75h8q10 0 21 0.5t20 2t14.5 3t5.5 4.5v540q0 3 -5.5 4.5 t-14.5 3t-20 2t-21 0.5h-8v75h327v-75h-10q-27 0 -44.5 -7t-17.5 -29v-488q0 -22 17.5 -29t44.5 -7h10v-75h-327zM30 469v70h784v-70h-784z" glyph-name="Hbar" horiz-adv-x="843" unicode="Ħ"/><glyph d="M683 0h-287v66h3q10 0 21.5 0.5t19 3t7.5 5.5v306q0 23 -5 37.5t-18 22t-35 7.5q-25 0 -48.5 -12.5t-46.5 -36.5t-46 -60l-7 62q24 45 57.5 79t74 52.5t87.5 18.5q52 0 88 -18.5t55.5 -55t19.5 -90.5v-271q0 -19 7 -30t20 -15.5t30 -4.5h3v-66zM94 758h175v-683 q0 -3 8 -5t19 -3t20 -1h4v-66h-287v66h3q18 0 30.5 4.5t20 15.5t7.5 30v642zM451 680v-76h-425v76h425z" glyph-name="hbar" horiz-adv-x="704" unicode="ħ"/><glyph d="M115 111v488q0 22 -17.5 29t-43.5 7h-16v75h340v-75h-15q-27 0 -44.5 -7t-17.5 -29v-488q0 -22 17.5 -29t44.5 -7h15v-75h-340v75h16q26 0 43.5 7t17.5 29zM280 767q-27 0 -46.5 7.5t-34 18.5t-26.5 22t-22.5 18.5t-23.5 7.5q-14 0 -22.5 -8.5t-13 -25t-9.5 -42.5l-76 18 q9 59 24 96t40.5 55t66.5 18q25 0 43.5 -7t32.5 -18t26 -22t24 -18t26 -7q15 0 23 8.5t14 25.5t11 43l76 -19q-9 -60 -26 -98t-43 -55.5t-64 -17.5z" glyph-name="Itilde" horiz-adv-x="416" unicode="Ĩ"/><glyph d="M238 601q-27 0 -45.5 8.5t-31.5 21.5t-24 25.5t-20.5 21t-22.5 8.5q-21 0 -28 -21t-13 -65l-75 18q8 61 22 101t38.5 59.5t64.5 19.5q24 0 41 -8t30.5 -20.5t24.5 -25t22.5 -21t24.5 -8.5q21 0 28.5 21.5t15.5 65.5l74 -19q-8 -62 -24 -102.5t-40.5 -60t-61.5 -19.5z M269 540v-426q0 -28 15.5 -38t42.5 -10h2v-66h-295v66h2q27 0 42.5 10t15.5 38v317q0 16 -12.5 22t-39.5 11l-9 2v74h236z" glyph-name="itilde" horiz-adv-x="352" unicode="ĩ"/><glyph d="M115 111v488q0 22 -17.5 29t-43.5 7h-16v75h340v-75h-15q-27 0 -44.5 -7t-17.5 -29v-488q0 -22 17.5 -29t44.5 -7h15v-75h-340v75h16q26 0 43.5 7t17.5 29zM24 901h368v-103h-368v103z" glyph-name="Imacron" horiz-adv-x="416" unicode="Ī"/><glyph d="M-11 742h352v-105h-352v105zM269 540v-426q0 -28 15.5 -38t42.5 -10h2v-66h-295v66h2q27 0 42.5 10t15.5 38v317q0 16 -12.5 22t-39.5 11l-9 2v74h236z" glyph-name="imacron" horiz-adv-x="352" unicode="ī"/><glyph d="M115 111v488q0 22 -17.5 29t-43.5 7h-16v75h340v-75h-15q-27 0 -44.5 -7t-17.5 -29v-488q0 -22 17.5 -29t44.5 -7h15v-75h-340v75h16q26 0 43.5 7t17.5 29zM208 769q58 0 97.5 19t61 58.5t22.5 101.5h-86q-3 -27 -12 -42t-28 -21.5t-52 -6.5t-52 6.5t-28.5 21.5t-12.5 42 h-91q2 -62 23 -101.5t61.5 -58.5t96.5 -19z" glyph-name="Ibreve" horiz-adv-x="416" unicode="Ĭ"/><glyph d="M175 603q55 0 93 20.5t58 62t20 106.5h-85q-2 -31 -10.5 -47.5t-25.5 -23t-47 -6.5t-47.5 6.5t-25.5 23t-11 47.5h-90q1 -65 20.5 -106.5t57.5 -62t93 -20.5zM269 540v-426q0 -28 15.5 -38t42.5 -10h2v-66h-295v66h2q27 0 42.5 10t15.5 38v317q0 16 -12.5 22t-39.5 11 l-9 2v74h236z" glyph-name="ibreve" horiz-adv-x="352" unicode="ĭ"/><glyph d="M115 111v488q0 22 -17.5 29t-43.5 7h-16v75h340v-75h-15q-27 0 -44.5 -7t-17.5 -29v-488q0 -22 17.5 -29t44.5 -7h15v-75h-340v75h16q26 0 43.5 7t17.5 29zM318 40l31 -31q-39 -23 -63.5 -41.5t-37.5 -34t-18.5 -29.5t-5.5 -29q0 -22 12.5 -33.5t33.5 -11.5 q24 0 40.5 12.5t27.5 23.5l41 -45q-26 -31 -61.5 -49.5t-96.5 -18.5q-65 0 -104 24.5t-39 74.5q0 28 13.5 50.5t42 43t74.5 43t110 51.5z" glyph-name="Iogonek" horiz-adv-x="416" unicode="Į"/><glyph d="M176 610q-46 0 -73 22t-27 64t27 63.5t73 21.5t73 -21.5t27 -63.5t-27 -64t-73 -22zM269 540v-426q0 -28 15.5 -38t42.5 -10h2v-66h-295v66h2q27 0 42.5 10t15.5 38v317q0 16 -12.5 22t-39.5 11l-9 2v74h236zM273 40l31 -31q-39 -23 -63.5 -41.5t-37.5 -34t-18.5 -29.5 t-5.5 -29q0 -22 12.5 -33.5t33.5 -11.5q24 0 40.5 12.5t27.5 23.5l41 -45q-26 -31 -61.5 -49.5t-96.5 -18.5q-65 0 -104 24.5t-39 74.5q0 28 13.5 50.5t42 43t74.5 43t110 51.5z" glyph-name="iogonek" horiz-adv-x="352" unicode="į"/><glyph d="M115 111v488q0 22 -17.5 29t-43.5 7h-16v75h340v-75h-15q-27 0 -44.5 -7t-17.5 -29v-488q0 -22 17.5 -29t44.5 -7h15v-75h-340v75h16q26 0 43.5 7t17.5 29zM207 772q-46 0 -73 21.5t-27 63.5t27 64t73 22q47 0 73.5 -22t26.5 -64t-26.5 -63.5t-73.5 -21.5z" glyph-name="Idotaccent" horiz-adv-x="416" unicode="İ"/><glyph d="M269 540v-426q0 -28 15.5 -38t42.5 -10h2v-66h-295v66h2q27 0 42.5 10t15.5 38v317q0 16 -12.5 22t-39.5 11l-9 2v74h236z" glyph-name="dotlessi" horiz-adv-x="352" unicode="ı"/><glyph d="M115 111v488q0 22 -17.5 29t-43.5 7h-16v75h340v-75h-15q-27 0 -44.5 -7t-17.5 -29v-488q0 -22 17.5 -29t44.5 -7h15v-75h-340v75h16q26 0 43.5 7t17.5 29zM675 710h352v-75h-15q-27 0 -44 -7t-17 -29v-365q0 -70 -20 -118t-56.5 -77.5t-87.5 -42.5t-113 -13 q-59 0 -105 11.5t-78 28.5t-50 32v177h145v-171q-18 5 -31.5 15.5t-21 21.5t-6.5 17.5t13 3.5q11 -11 28 -23.5t39.5 -20.5t51.5 -8q35 0 58.5 14t36 49t12.5 99v370q0 15 -9 22.5t-24.5 10.5t-33.5 3h-24v75z" glyph-name="IJ" horiz-adv-x="1048" unicode="Ĳ"/><glyph d="M176 610q-46 0 -73 22t-27 64t27 63.5t73 21.5t73 -21.5t27 -63.5t-27 -64t-73 -22zM269 540v-426q0 -28 15.5 -38t42.5 -10h2v-66h-295v66h2q27 0 42.5 10t15.5 38v317q0 16 -12.5 22t-39.5 11l-9 2v74h236zM452 -47v478q0 10 -7.5 16.5t-21 10.5t-31.5 6l-12 2v74h247 v-574q0 -59 -16.5 -99t-47 -64t-74 -35t-96.5 -11q-40 0 -70 5t-42 10v85q15 -5 37 -10.5t47 -5.5q27 0 46.5 10.5t30 35t10.5 66.5zM533 610q-46 0 -73 22t-27 64t27 63.5t73 21.5q47 0 73.5 -21.5t26.5 -63.5t-26.5 -64t-73.5 -22z" glyph-name="ij" horiz-adv-x="704" unicode="ĳ"/><glyph d="M266 710h352v-75h-15q-27 0 -44 -7t-17 -29v-365q0 -70 -20 -118t-56.5 -77.5t-87.5 -42.5t-113 -13q-59 0 -105 11.5t-78 28.5t-50 32v177h145v-171q-18 5 -31.5 15.5t-21 21.5t-6.5 17.5t13 3.5q11 -11 28 -23.5t39.5 -20.5t51.5 -8q35 0 58.5 14t36 49t12.5 99v370 q0 15 -9 22.5t-24.5 10.5t-33.5 3h-24v75zM505 945h-131l-128 -152v-29h72l158 103l-83 -1l159 -102h80v29z" glyph-name="Jcircumflex" horiz-adv-x="653" unicode="Ĵ"/><glyph d="M98 -47v478q0 10 -7.5 16.5t-21 10.5t-31.5 6l-12 2v74h247v-574q0 -59 -16.5 -99t-47 -64t-74 -35t-96.5 -11q-40 0 -70 5t-42 9v85q15 -4 37 -9.5t47 -5.5q27 0 46.5 10.5t30 35t10.5 66.5zM226 797h-125l-129 -169v-29h62l167 119l-85 -1l168 -118h70v29z" glyph-name="jcircumflex" horiz-adv-x="350" unicode="ĵ"/><glyph d="M38 0v75h11q27 0 44.5 7t17.5 29v488q0 22 -17.5 29t-44.5 7h-11v75h337v-75h-11q-12 0 -24.5 -0.5t-22 -2t-15.5 -3t-6 -4.5v-540q0 -3 5.5 -4.5t13.5 -3t18 -2t19 -0.5h8v-75h-322zM449 0v75h8q15 0 28.5 1t22.5 3.5t9 5.5l-190 257v26l247 257q0 4 -12 5.5t-29.5 3 t-34.5 1.5h-13v75h275v-75h-22q-16 0 -29 -3t-24.5 -9.5t-23.5 -19.5l-241 -250l47 97l257 -348q8 -10 16.5 -16t19 -8.5t23.5 -2.5h12v-75h-346zM371 -355l-62 64q36 13 65 27t46 32.5t18 45.5l15 -10q-11 -7 -25 -9.5t-29 -2.5q-39 0 -60 18.5t-21 49.5t22.5 51t68.5 20 q50 0 75 -26t25 -75q0 -47 -17.5 -80.5t-48.5 -58t-72 -46.5z" glyph-name="Kcommaaccent" horiz-adv-x="816" unicode="Ķ"/><glyph d="M701 0h-310v66h5q10 0 21 1t18 3t7 5l-144 199v18l181 166q0 6 -12 9.5t-29 5t-33 1.5h-11v66h274v-66h-11q-21 0 -37.5 -4t-31 -12.5t-29.5 -22.5l-174 -160l39 87l196 -261q11 -14 22.5 -21.5t25 -10.5t28.5 -3h5v-66zM269 758v-683q0 -3 8 -5.5t18.5 -3t19.5 -0.5h4 v-66h-285v66h2q18 0 31 4.5t20 15.5t7 30v534q0 10 -5.5 16t-17 10t-29.5 7l-9 2v73h236zM320 -355l-62 64q36 13 65 27t46 32.5t18 45.5l15 -10q-11 -7 -25 -9.5t-29 -2.5q-39 0 -60 18.5t-21 49.5t22.5 51t68.5 20q50 0 75 -26t25 -75q0 -47 -17.5 -80.5t-48.5 -58 t-72 -46.5z" glyph-name="kcommaaccent" horiz-adv-x="719" unicode="ķ"/><glyph d="M701 0h-310v66h5q10 0 21 1t18 3t7 5l-144 199v18l180 166q0 5 -7 8t-18.5 5t-24 2.5t-24.5 0.5h-10v66h274v-66h-11q-21 0 -37.5 -4t-31 -12.5t-29.5 -22.5l-173 -160l38 87l196 -261q11 -14 22.5 -21.5t25 -10.5t28.5 -3h5v-66zM269 540v-465q0 -3 8 -5.5t18.5 -3 t19.5 -0.5h4v-66h-285v66h2q27 0 42.5 10.5t15.5 39.5v316q0 11 -5.5 17t-17 9.5t-29.5 7.5l-9 2v72h236z" glyph-name="kgreenlandic" horiz-adv-x="719" unicode="ĸ"/><glyph d="M380 710h-342v-75h11q27 0 44.5 -7t17.5 -29v-488q0 -22 -17.5 -29t-44.5 -7h-11v-75h592v250h-91l-13 -126q-1 -18 -13.5 -27.5t-37.5 -13t-65 -3.5h-114v519q0 22 19 29t49 7h16v75zM209 899l-69 -95v-32h51l100 38q30 10 50.5 22.5t31 29t10.5 38.5q0 28 -20 47.5 t-53 19.5q-23 0 -40.5 -8.5t-31.5 -24t-29 -35.5z" glyph-name="Lacute" horiz-adv-x="667" unicode="Ĺ"/><glyph d="M270 758v-644q0 -28 15.5 -38t41.5 -10h3v-66h-296v66h3q27 0 42.5 10t15.5 38v536q0 10 -5.5 16t-17 10t-29.5 7l-9 2v73h236zM180 933l-69 -95v-32h51l100 38q30 10 50.5 22.5t31 29t10.5 38.5q0 28 -20 47.5t-53 19.5q-23 0 -40.5 -8.5t-31.5 -24t-29 -35.5z" glyph-name="lacute" horiz-adv-x="352" unicode="ĺ"/><glyph d="M380 710h-342v-75h11q27 0 44.5 -7t17.5 -29v-488q0 -22 -17.5 -29t-44.5 -7h-11v-75h592v250h-91l-13 -126q-1 -18 -13.5 -27.5t-37.5 -13t-65 -3.5h-114v519q0 22 19 29t49 7h16v75zM304 -355l-62 64q36 13 65 27t46 32.5t18 45.5l15 -10q-11 -7 -25 -9.5t-29 -2.5 q-39 0 -60 18.5t-21 49.5t22.5 51t68.5 20q50 0 75 -26t25 -75q0 -47 -17.5 -80.5t-48.5 -58t-72 -46.5z" glyph-name="Lcommaaccent" horiz-adv-x="667" unicode="Ļ"/><glyph d="M270 758v-644q0 -28 15.5 -38t41.5 -10h3v-66h-296v66h3q27 0 42.5 10t15.5 38v536q0 10 -5.5 16t-17 10t-29.5 7l-9 2v73h236zM144 -355l-62 64q36 13 65 27t46 32.5t18 45.5l15 -10q-11 -7 -25 -9.5t-29 -2.5q-39 0 -60 18.5t-21 49.5t22.5 51t68.5 20q50 0 75 -26 t25 -75q0 -47 -17.5 -80.5t-48.5 -58t-72 -46.5z" glyph-name="lcommaaccent" horiz-adv-x="352" unicode="ļ"/><glyph d="M380 710h-342v-75h11q27 0 44.5 -7t17.5 -29v-488q0 -22 -17.5 -29t-44.5 -7h-11v-75h592v250h-91l-13 -126q-1 -18 -13.5 -27.5t-37.5 -13t-65 -3.5h-114v519q0 22 19 29t49 7h16v75zM542 529l67 181h-148l-17 -158v-23h98z" glyph-name="Lcaron" horiz-adv-x="667" unicode="Ľ"/><glyph d="M270 758v-644q0 -28 15.5 -38t41.5 -10h3v-66h-296v66h3q27 0 42.5 10t15.5 38v536q0 10 -5.5 16t-17 10t-29.5 7l-9 2v73h236zM427 577l67 181h-148l-17 -158v-23h98z" glyph-name="lcaron" horiz-adv-x="352" unicode="ľ"/><glyph d="M380 710h-342v-75h11q27 0 44.5 -7t17.5 -29v-488q0 -22 -17.5 -29t-44.5 -7h-11v-75h592v232h-91l-13 -108q-2 -18 -14.5 -27.5t-37 -13t-64.5 -3.5h-114v519q0 22 19 29t49 7h16v75zM551 330q-50 0 -79.5 27t-29.5 74t29.5 73.5t79.5 26.5q51 0 80.5 -26.5t29.5 -73.5 t-29.5 -74t-80.5 -27z" glyph-name="Ldot" horiz-adv-x="686" unicode="Ŀ"/><glyph d="M270 758v-644q0 -28 15.5 -38t41.5 -10h3v-66h-296v66h3q27 0 42.5 10t15.5 38v536q0 10 -5.5 16t-17 10t-29.5 7l-9 2v73h236zM457 267q-50 0 -80 26.5t-30 73.5t30 74t80 27t80 -27t30 -74t-30 -73.5t-80 -26.5z" glyph-name="ldot" horiz-adv-x="553" unicode="ŀ"/><glyph d="M23 179l477 273v90l-477 -273v-90zM385 710h-342v-75h11q26 0 43.5 -7t17.5 -29v-488q0 -22 -17.5 -29t-43.5 -7h-11v-75h592v250h-91l-13 -126q-2 -18 -14 -27.5t-37 -13t-66 -3.5h-113v519q0 22 18.5 29t48.5 7h17v75z" glyph-name="Lslash" horiz-adv-x="672" unicode="Ł"/><glyph d="M28 201v92l356 260v-92zM291 758v-644q0 -28 15.5 -38t42.5 -10h2v-66h-295v66h2q27 0 42.5 10t15.5 38v536q0 10 -5.5 16t-17 10t-29.5 7l-8 2v73h235z" glyph-name="lslash" horiz-adv-x="400" unicode="ł"/><glyph d="M39 0v75h10q19 0 32.5 3.5t21.5 12.5t8 23v485q0 15 -8 22.5t-22 10.5t-32 3h-10v75h310l281 -560l-21 7v465q0 4 -10 6.5t-25 4.5t-29 2h-13v75h235v-75h-10q-17 0 -31.5 -3.5t-22.5 -10.5t-8 -22v-599h-185l-338 668l26 -8v-572q0 -3 10 -6t25 -5t29 -2h13v-75h-236z M416 899l-69 -95v-32h51l100 38q30 10 50.5 22.5t31 29t10.5 38.5q0 28 -20 47.5t-53 19.5q-23 0 -40.5 -8.5t-31.5 -24t-29 -35.5z" glyph-name="Nacute" horiz-adv-x="802" unicode="Ń"/><glyph d="M33 0v66h3q18 0 30.5 4.5t19.5 15.5t7 30v315q0 11 -5.5 16.5t-16.5 9t-29 7.5l-9 2v74h217l12 -122l7 -3v-340q0 -3 8 -5t19 -3t20 -1h4v-66h-287zM683 0h-287v66h3q10 0 21 0.5t19 3t8 5.5v306q0 22 -5.5 37t-18.5 22.5t-35 7.5q-24 0 -48 -13.5t-47.5 -39.5t-48.5 -67 l3 79q22 44 54.5 76t73 50t85.5 18q52 0 88 -18.5t55.5 -55t19.5 -90.5v-271q0 -19 7 -30t19.5 -15.5t30.5 -4.5h3v-66zM343 746q10 25 22.5 43.5t30 29t42.5 10.5q34 0 54 -19.5t20 -47.5q0 -19 -8.5 -35.5t-23.5 -31t-35 -26.5l-99 -67h-50v32z" glyph-name="nacute" horiz-adv-x="705" unicode="ń"/><glyph d="M39 0v75h10q19 0 32.5 3.5t21.5 12.5t8 23v485q0 15 -8 22.5t-22 10.5t-32 3h-10v75h310l281 -560l-21 7v465q0 4 -10 6.5t-25 4.5t-29 2h-13v75h235v-75h-10q-17 0 -31.5 -3.5t-22.5 -10.5t-8 -22v-599h-185l-338 668l26 -8v-572q0 -3 10 -6t25 -5t29 -2h13v-75h-236z M360 -355l-62 64q36 13 65 27t46 32.5t18 45.5l15 -10q-11 -7 -25 -9.5t-29 -2.5q-39 0 -60 18.5t-21 49.5t22.5 51t68.5 20q50 0 75 -26t25 -75q0 -47 -17.5 -80.5t-48.5 -58t-72 -46.5z" glyph-name="Ncommaaccent" horiz-adv-x="802" unicode="Ņ"/><glyph d="M33 0v66h3q18 0 30.5 4.5t19.5 15.5t7 30v315q0 11 -5.5 16.5t-16.5 9t-29 7.5l-9 2v74h217l12 -122l7 -3v-340q0 -3 8 -5t19 -3t20 -1h4v-66h-287zM683 0h-287v66h3q10 0 21 0.5t19 3t8 5.5v306q0 22 -5.5 37t-18.5 22.5t-35 7.5q-24 0 -48 -13.5t-47.5 -39.5t-48.5 -67 l3 79q22 44 54.5 76t73 50t85.5 18q52 0 88 -18.5t55.5 -55t19.5 -90.5v-271q0 -19 7 -30t19.5 -15.5t30.5 -4.5h3v-66zM319 -355l-62 64q36 13 65 27t46 32.5t18 45.5l15 -10q-11 -7 -25 -9.5t-29 -2.5q-39 0 -60 18.5t-21 49.5t22.5 51t68.5 20q50 0 75 -26t25 -75 q0 -47 -17.5 -80.5t-48.5 -58t-72 -46.5z" glyph-name="ncommaaccent" horiz-adv-x="705" unicode="ņ"/><glyph d="M346 772h131l128 152v29h-72l-158 -102l83 1l-159 101h-80v-29zM39 0v75h10q19 0 32.5 3.5t21.5 12.5t8 23v485q0 15 -8 22.5t-22 10.5t-32 3h-10v75h310l281 -560l-21 7v465q0 4 -10 6.5t-25 4.5t-29 2h-13v75h235v-75h-10q-17 0 -31.5 -3.5t-22.5 -10.5t-8 -22v-599 h-185l-338 668l26 -8v-572q0 -3 10 -6t25 -5t29 -2h13v-75h-236z" glyph-name="Ncaron" horiz-adv-x="802" unicode="Ň"/><glyph d="M294 605h125l129 169v30h-63l-166 -120l85 1l-168 119h-71v-30zM33 0v66h3q18 0 30.5 4.5t19.5 15.5t7 30v315q0 10 -5.5 16t-16.5 9.5t-29 7.5l-9 2v74h217l12 -122l7 -3v-340q0 -3 8 -5.5t19 -3t20 -0.5h4v-66h-287zM683 0h-287v66h3q10 0 21 0.5t19 3t8 5.5v306 q0 22 -5.5 37t-18.5 22.5t-35 7.5q-24 0 -48 -13t-47.5 -39.5t-48.5 -67.5l3 79q22 44 54.5 76t73 50t85.5 18q52 0 88 -18.5t55.5 -55t19.5 -90.5v-271q0 -19 7 -30t19.5 -15.5t30.5 -4.5h3v-66z" glyph-name="ncaron" horiz-adv-x="705" unicode="ň"/><glyph d="M37 0v66h3q18 0 30.5 4.5t19.5 15.5t7 30v315q0 11 -5.5 16.5t-16.5 9t-29 7.5l-9 2v74h217l12 -122l7 -3v-340q0 -3 8 -5t19 -3t20 -1h4v-66h-287zM687 0h-287v66h3q10 0 21 0.5t19 3t8 5.5v306q0 22 -5.5 37t-18.5 22.5t-35 7.5q-24 0 -48 -13.5t-47.5 -39.5t-48.5 -67 l3 79q22 44 54.5 76t73 50t85.5 18q52 0 88 -18.5t55.5 -55t19.5 -90.5v-271q0 -19 7 -30t19.5 -15.5t30.5 -4.5h3v-66zM-159 393l-80 64q31 14 56.5 29.5t44 34.5t29 43t11.5 55l23 -14q-11 -8 -23 -10.5t-25 -2.5q-40 0 -64 20.5t-24 56.5t25 58.5t70 22.5q47 0 75 -26 t28 -84q0 -46 -11 -83t-30.5 -66.5t-46 -53.5t-58.5 -44z" glyph-name="napostrophe" horiz-adv-x="692" unicode="ŉ"/><glyph d="M695 -12q0 -55 -14 -96.5t-41 -68.5t-64.5 -40.5t-83.5 -13.5q-35 0 -66 5t-53 13v91q12 -4 29 -8.5t39 -8t46 -3.5q37 0 63 12.5t39.5 41t13.5 75.5v85l33 -163l-463 759l25 -2v-578q0 -3 10 -6t25 -5t29 -2h13v-75h-236v75h11q18 0 31.5 3.5t21.5 12.5t8 23v485 q0 15 -8 22.5t-21.5 10.5t-31.5 3h-11v75h311l317 -510l-58 -61v483q0 4 -10 6.5t-25 4.5t-29 2h-13v75h235v-75h-10q-17 0 -31.5 -3t-22.5 -10.5t-8 -22.5v-611z" glyph-name="Eng" horiz-adv-x="802" unicode="Ŋ"/><glyph d="M33 0v66h3q18 0 30.5 4.5t19.5 15.5t7 30v315q0 10 -5.5 16t-16.5 9.5t-29 7.5l-9 2v74h217l12 -121l7 -4v-340q0 -3 8 -5.5t19 -3t20 -0.5h4v-66h-287zM447 -47v427q0 23 -5.5 38t-18.5 22.5t-35 7.5q-24 0 -47.5 -12.5t-46.5 -36.5t-46 -60l-9 59q26 47 59 81.5t74 53 t88 18.5q52 0 88 -18.5t55.5 -55t19.5 -90.5v-421q0 -59 -16.5 -99t-47.5 -64t-74 -35t-96 -11q-40 0 -70.5 5t-41.5 9v85q15 -4 37 -9.5t47 -5.5q27 0 46 10.5t29.5 35t10.5 66.5z" glyph-name="eng" horiz-adv-x="687" unicode="ŋ"/><glyph d="M411 -17q-82 0 -149.5 24.5t-116.5 72.5t-75.5 117.5t-26.5 157.5t26.5 157.5t75.5 117t116.5 73t149.5 25.5t149.5 -25.5t116.5 -73t75.5 -117t26.5 -157.5t-26.5 -157.5t-75.5 -117.5t-116.5 -72.5t-149.5 -24.5zM411 68q42 0 74.5 17t54.5 52.5t33.5 89.5t11.5 128 t-11.5 128t-33.5 89.5t-54.5 52.5t-74.5 17t-74.5 -17t-54.5 -52.5t-33.5 -89.5t-11.5 -128t11.5 -128t33.5 -89.5t54.5 -52.5t74.5 -17zM227 901h368v-103h-368v103z" glyph-name="Omacron" horiz-adv-x="822" unicode="Ō"/><glyph d="M632 269q0 -86 -35.5 -149t-102 -97.5t-159.5 -34.5q-94 0 -160.5 34.5t-102 97.5t-35.5 149q0 65 20 117t59 89t94 56.5t125 19.5t124.5 -19.5t93.5 -56.5t59 -89t20 -117zM218 269q0 -69 12 -113.5t38 -65t67 -20.5t66.5 20.5t37.5 65t12 113.5t-12 113t-37.5 64.5 t-66.5 20.5t-67 -20.5t-38 -64.5t-12 -113zM151 742h368v-103h-368v103z" glyph-name="omacron" horiz-adv-x="669" unicode="ō"/><glyph d="M411 -17q-82 0 -149.5 24.5t-116.5 72.5t-75.5 117.5t-26.5 157.5t26.5 157.5t75.5 117t116.5 73t149.5 25.5t149.5 -25.5t116.5 -73t75.5 -117t26.5 -157.5t-26.5 -157.5t-75.5 -117.5t-116.5 -72.5t-149.5 -24.5zM411 68q42 0 74.5 17t54.5 52.5t33.5 89.5t11.5 128 t-11.5 128t-33.5 89.5t-54.5 52.5t-74.5 17t-74.5 -17t-54.5 -52.5t-33.5 -89.5t-11.5 -128t11.5 -128t33.5 -89.5t54.5 -52.5t74.5 -17zM411 769q58 0 97.5 19t61 58.5t22.5 101.5h-86q-3 -27 -12 -42t-28 -21.5t-52 -6.5t-52 6.5t-28.5 21.5t-12.5 42h-91q2 -62 23 -101.5 t61.5 -58.5t96.5 -19z" glyph-name="Obreve" horiz-adv-x="822" unicode="Ŏ"/><glyph d="M632 269q0 -86 -35.5 -149t-102 -97.5t-159.5 -34.5q-94 0 -160.5 34.5t-102 97.5t-35.5 149q0 65 20 117t59 89t94 56.5t125 19.5t124.5 -19.5t93.5 -56.5t59 -89t20 -117zM218 269q0 -69 12 -113.5t38 -65t67 -20.5t66.5 20.5t37.5 65t12 113.5t-12 113t-37.5 64.5 t-66.5 20.5t-67 -20.5t-38 -64.5t-12 -113zM335 604q55 0 94 20t59.5 62t19.5 106h-85q-2 -30 -10.5 -46.5t-26 -23t-48.5 -6.5t-49 6.5t-26.5 23t-11.5 46.5h-90q1 -64 21 -106t59 -62t94 -20z" glyph-name="obreve" horiz-adv-x="669" unicode="ŏ"/><glyph d="M411 -17q-82 0 -149.5 24.5t-116.5 72.5t-75.5 117.5t-26.5 157.5t26.5 157.5t75.5 117t116.5 73t149.5 25.5t149.5 -25.5t116.5 -73t75.5 -117t26.5 -157.5t-26.5 -157.5t-75.5 -117.5t-116.5 -72.5t-149.5 -24.5zM411 68q42 0 74.5 17t54.5 52.5t33.5 89.5t11.5 128 t-11.5 128t-33.5 89.5t-54.5 52.5t-74.5 17t-74.5 -17t-54.5 -52.5t-33.5 -89.5t-11.5 -128t11.5 -128t33.5 -89.5t54.5 -52.5t74.5 -17zM289 888q7 27 17.5 46t27 29t41.5 10q33 0 51 -17.5t18 -43.5q0 -28 -17 -49t-47 -47l-65 -51h-53v31zM499 888q7 27 17.5 46t27 29 t41.5 10q34 0 51.5 -17.5t17.5 -43.5q0 -28 -17 -49t-47 -47l-64 -51h-54v31z" glyph-name="Ohungarumlaut" horiz-adv-x="822" unicode="Ő"/><glyph d="M632 269q0 -86 -35.5 -149t-102 -97.5t-159.5 -34.5q-94 0 -160.5 34.5t-102 97.5t-35.5 149q0 65 20 117t59 89t94 56.5t125 19.5t124.5 -19.5t93.5 -56.5t59 -89t20 -117zM218 269q0 -69 12 -113.5t38 -65t67 -20.5t66.5 20.5t37.5 65t12 113.5t-12 113t-37.5 64.5 t-66.5 20.5t-67 -20.5t-38 -64.5t-12 -113zM207 747q5 41 25 64.5t58 23.5q34 0 51.5 -18t17.5 -44q0 -25 -14 -46.5t-40 -50.5l-67 -72h-51v30zM410 747q6 41 25.5 64.5t57.5 23.5q34 0 51.5 -18t17.5 -44q0 -25 -14 -46.5t-40 -50.5l-67 -72h-52v30z" glyph-name="ohungarumlaut" horiz-adv-x="669" unicode="ő"/><glyph d="M683 400q40 3 80 5.5l80 5t79 5.5v-103q-39 3 -79 5.5l-80 5t-80 5.5v71zM437 80h82v550h-82q-48 0 -85.5 -17.5t-63 -52.5t-38.5 -87t-13 -121t13 -120t38.5 -85t63 -50.5t85.5 -16.5zM423 0q-85 0 -155 22t-120.5 66.5t-77.5 110.5t-27 153t27 153.5t77.5 112t120.5 69 t155 23.5h586v-201h-83l-9 77q-2 18 -14.5 27.5t-34.5 13t-56 3.5h-107v-550h112q31 0 52 2t34.5 7t21 13.5t8.5 21.5l14 102h84v-226h-608z" glyph-name="OE" horiz-adv-x="1080" unicode="Œ"/><glyph d="M625 267q0 -53 9 -90t27.5 -60t46.5 -33.5t66 -10.5t65.5 12t47.5 32.5t36 45.5l67 -47q-21 -40 -53.5 -69t-77.5 -44t-103 -15q-68 0 -117.5 22t-82 60.5t-48.5 89t-16 106.5q0 54 16 105t47 91.5t77.5 64.5t106.5 24q64 0 112 -19.5t80 -59t48 -98t17 -136.5h-449v72 h309l-23 -29q-2 76 -11.5 117t-30 57t-54.5 16q-27 0 -47.5 -10.5t-35 -34t-22 -63t-7.5 -96.5zM584 269q0 -53 -15.5 -103.5t-47 -90.5t-79.5 -63.5t-114 -23.5q-90 0 -155 34.5t-100.5 97.5t-35.5 149q0 65 20 117t58 89t91.5 56.5t121.5 19.5q70 0 119 -23.5t79 -63.5 t44 -90.5t14 -104.5zM218 269q0 -69 12 -113t37.5 -64.5t66.5 -20.5t66.5 20.5t37.5 64t12 113.5q0 69 -12 113t-37.5 64.5t-66.5 20.5t-66.5 -20.5t-37.5 -64.5t-12 -113z" glyph-name="oe" horiz-adv-x="1030" unicode="œ"/><glyph d="M378 320l149 -320h223v75h-9q-15 0 -27 3.5t-22.5 13.5t-20.5 28l-124 234zM296 85v547h96q35 0 58.5 -14.5t35 -42.5t11.5 -69q0 -43 -11.5 -74.5t-36 -48.5t-63.5 -17h-114v-77h154q7 3 12 5.5l11 5.5t13 8q73 9 123.5 35.5t76.5 69.5t26 100q0 63 -31 107t-90 67 t-145 23h-384v-75h11q27 0 44.5 -7t17.5 -29v-488q0 -22 -17.5 -29t-44.5 -7h-11v-75h332v75h-13q-11 0 -22 0.5t-20 2t-14 3t-5 4.5zM370 899l-69 -95v-32h51l100 38q30 10 50.5 22.5t31 29t10.5 38.5q0 28 -20 47.5t-53 19.5q-23 0 -40.5 -8.5t-31.5 -24t-29 -35.5z" glyph-name="Racute" horiz-adv-x="776" unicode="Ŕ"/><glyph d="M465 544v-159q-8 1 -21.5 2.5t-29 2.5t-29.5 1q-22 0 -41.5 -3t-36 -10t-30.5 -17.5t-27 -27.5l-3 38q24 57 47.5 97t54 61t75.5 21q14 0 25 -2t16 -4zM33 0v66h3q27 0 42 10.5t15 39.5v315q0 10 -5.5 16t-16.5 9.5t-29 7.5l-9 2v74h216l14 -156l6 3v-307q0 -6 10.5 -9 t26.5 -4t31 -1h11v-66h-315zM244 746q10 25 22.5 43.5t30 29t42.5 10.5q34 0 54 -19.5t20 -47.5q0 -19 -8.5 -35.5t-23.5 -31t-35 -26.5l-99 -67h-50v32z" glyph-name="racute" horiz-adv-x="496" unicode="ŕ"/><glyph d="M378 320l149 -320h223v75h-9q-15 0 -27 3.5t-22.5 13.5t-20.5 28l-124 234zM296 85v547h96q35 0 58.5 -14.5t35 -42.5t11.5 -69q0 -43 -11.5 -74.5t-36 -48.5t-63.5 -17h-114v-77h154q7 3 12 5.5l11 5.5t13 8q73 9 123.5 35.5t76.5 69.5t26 100q0 63 -31 107t-90 67 t-145 23h-384v-75h11q27 0 44.5 -7t17.5 -29v-488q0 -22 -17.5 -29t-44.5 -7h-11v-75h332v75h-13q-11 0 -22 0.5t-20 2t-14 3t-5 4.5zM357 -355l-62 64q36 13 65 27t46 32.5t18 45.5l15 -10q-11 -7 -25 -9.5t-29 -2.5q-39 0 -60 18.5t-21 49.5t22.5 51t68.5 20q50 0 75 -26 t25 -75q0 -47 -17.5 -80.5t-48.5 -58t-72 -46.5z" glyph-name="Rcommaaccent" horiz-adv-x="776" unicode="Ŗ"/><glyph d="M465 544v-159q-8 1 -21.5 2.5t-29 2.5t-29.5 1q-22 0 -41.5 -3t-36 -10t-30.5 -17.5t-27 -27.5l-3 38q24 57 47.5 97t54 61t75.5 21q14 0 25 -2t16 -4zM33 0v66h3q27 0 42 10.5t15 39.5v315q0 10 -5.5 16t-16.5 9.5t-29 7.5l-9 2v74h216l14 -156l6 3v-307q0 -6 10.5 -9 t26.5 -4t31 -1h11v-66h-315zM146 -355l-62 64q36 13 65 27t46 32.5t18 45.5l15 -10q-11 -7 -25 -9.5t-29 -2.5q-39 0 -60 18.5t-21 49.5t22.5 51t68.5 20q50 0 75 -26t25 -75q0 -47 -17.5 -80.5t-48.5 -58t-72 -46.5z" glyph-name="rcommaaccent" horiz-adv-x="496" unicode="ŗ"/><glyph d="M310 772h131l127 152v29h-72l-157 -102l82 1l-159 101h-80v-29zM378 320l149 -320h223v75h-9q-15 0 -27 3.5t-22.5 13.5t-20.5 28l-124 234zM296 85v547h96q35 0 58.5 -14.5t35 -42.5t11.5 -69q0 -43 -11.5 -74.5t-36 -48.5t-63.5 -17h-114v-77h154q7 3 12 5.5l11 5.5 t13 8q73 9 123.5 35.5t76.5 69.5t26 100q0 63 -31 107t-90 67t-145 23h-384v-75h11q27 0 44.5 -7t17.5 -29v-488q0 -22 -17.5 -29t-44.5 -7h-11v-75h332v75h-13q-12 0 -22.5 0.5t-19.5 2t-14 3t-5 4.5z" glyph-name="Rcaron" horiz-adv-x="776" unicode="Ř"/><glyph d="M186 605h125l129 169v30h-63l-167 -120l86 1l-168 119h-71v-30zM465 544v-159q-8 1 -21.5 2.5t-29 2.5t-29.5 1q-22 0 -41.5 -3t-36 -10t-30.5 -17.5t-27 -27.5l-3 38q24 57 47.5 97t54 61t75.5 21q14 0 25 -2t16 -4zM33 0v66h3q27 0 42 10.5t15 39.5v315q0 10 -5.5 16 t-16.5 9.5t-29 7.5l-9 2v74h216l14 -156l6 3v-307q0 -6 10.5 -9t26.5 -4t31 -1h11v-66h-315z" glyph-name="rcaron" horiz-adv-x="496" unicode="ř"/><glyph d="M349 64q41 0 67.5 9.5t39.5 30.5t13 54q0 30 -14 49.5t-39 32.5t-60 23.5t-79 21.5q-43 12 -82.5 27.5t-70 40.5t-48.5 64t-18 97q0 71 31 118t86.5 71.5t129.5 24.5q64 0 107.5 -18.5t71 -58t41.5 -105.5l-38 34l19 135h77v-203h-90q-11 43 -35.5 73.5t-59 46 t-77.5 15.5q-38 0 -62 -10t-35 -29t-11 -47t12.5 -46t36 -29.5t56.5 -20t73 -18.5q46 -11 88.5 -26t76 -40t52.5 -64t19 -97q0 -77 -31.5 -130t-90.5 -80t-143 -27q-67 0 -120 18.5t-89 63.5t-51 123l39 -32l-19 -158h-81v232h97q16 -57 47 -94t73 -54.5t91 -17.5zM329 899 l-69 -95v-32h51l100 38q30 10 50.5 22.5t31 29t10.5 38.5q0 28 -20 47.5t-53 19.5q-23 0 -40.5 -8.5t-31.5 -24t-29 -35.5z" glyph-name="Sacute" horiz-adv-x="661" unicode="Ś"/><glyph d="M362 134q0 20 -10.5 33t-28.5 21t-41 13.5t-48 11.5q-34 8 -67 18.5t-60 28.5t-43 47t-16 73q0 59 29.5 96.5t83 56.5t125.5 19q58 0 100.5 -7t69 -16t36.5 -15v-122h-126v96q15 2 23 -2t11 -10.5t2.5 -14.5t-2.5 -16q-12 10 -29 16.5t-38 10t-47 3.5q-45 0 -66.5 -14.5 t-21.5 -43.5q0 -19 10 -31t28.5 -20t42.5 -14t51 -12q35 -8 69 -19t62 -29.5t45 -47.5t17 -72q0 -61 -28.5 -102t-86.5 -61.5t-145 -20.5q-56 0 -101 7.5t-76.5 18.5t-48.5 21v132h129v-128q-19 7 -29.5 16.5t-14 19.5t-1 16.5t9.5 6.5q13 -9 32.5 -16.5t45 -12t55.5 -4.5 q34 0 55.5 7t32 22.5t10.5 39.5zM266 746q10 25 22.5 43.5t30 29t42.5 10.5q34 0 54 -19.5t20 -47.5q0 -19 -8.5 -35.5t-23.5 -31t-35 -26.5l-99 -67h-50v32z" glyph-name="sacute" horiz-adv-x="556" unicode="ś"/><glyph d="M349 64q41 0 67.5 9.5t39.5 30.5t13 54q0 30 -14 49.5t-39 32.5t-60 23.5t-79 21.5q-43 12 -82.5 27.5t-70 40.5t-48.5 64t-18 97q0 71 31 118t86.5 71.5t129.5 24.5q64 0 107.5 -18.5t71 -58t41.5 -105.5l-38 34l19 135h77v-203h-90q-11 43 -35.5 73.5t-59 46 t-77.5 15.5q-38 0 -62 -10t-35 -29t-11 -47t12.5 -46t36 -29.5t56.5 -20t73 -18.5q46 -11 88.5 -26t76 -40t52.5 -64t19 -97q0 -77 -31.5 -130t-90.5 -80t-143 -27q-67 0 -120 18.5t-89 63.5t-51 123l39 -32l-19 -158h-81v232h97q16 -57 47 -94t73 -54.5t91 -17.5zM401 945 h-131l-128 -152v-29h72l158 103l-83 -1l159 -102h80v29z" glyph-name="Scircumflex" horiz-adv-x="661" unicode="Ŝ"/><glyph d="M362 134q0 20 -10.5 33t-28.5 21t-41 13.5t-48 11.5q-34 8 -67 18.5t-60 28.5t-43 47t-16 73q0 59 29.5 96.5t83 56.5t125.5 19q58 0 100.5 -7t69 -16t36.5 -15v-122h-126v96q15 2 23 -2t11 -10.5t2.5 -14.5t-2.5 -16q-12 10 -29 16.5t-38 10t-47 3.5q-45 0 -66.5 -14.5 t-21.5 -43.5q0 -19 10 -31t28.5 -20t42.5 -14t51 -12q35 -8 69 -19t62 -29.5t45 -47.5t17 -72q0 -61 -28.5 -102t-86.5 -61.5t-145 -20.5q-56 0 -101 7.5t-76.5 18.5t-48.5 21v132h129v-128q-19 7 -29.5 16.5t-14 19.5t-1 16.5t9.5 6.5q13 -9 32.5 -16.5t45 -12t55.5 -4.5 q34 0 55.5 7t32 22.5t10.5 39.5zM347 797h-125l-129 -169v-29h62l167 119l-85 -1l168 -118h70v29z" glyph-name="scircumflex" horiz-adv-x="556" unicode="ŝ"/><glyph d="M349 64q41 0 67.5 9.5t39.5 30.5t13 54q0 30 -14 49.5t-39 32.5t-60 23.5t-79 21.5q-43 12 -82.5 27.5t-70 40.5t-48.5 64t-18 97q0 71 31 118t86.5 71.5t129.5 24.5q64 0 107.5 -18.5t71 -58t41.5 -105.5l-38 34l19 135h77v-203h-90q-11 43 -35.5 73.5t-59 46 t-77.5 15.5q-38 0 -62 -10t-35 -29t-11 -47t12.5 -46t36 -29.5t56.5 -20t73 -18.5q46 -11 88.5 -26t76 -40t52.5 -64t19 -97q0 -77 -31.5 -130t-90.5 -80t-143 -27q-67 0 -120 18.5t-89 63.5t-51 123l39 -32l-19 -158h-81v232h97q16 -57 47 -94t73 -54.5t91 -17.5zM368 5 l-69 -84l-4 15q53 1 89 -9.5t55 -32.5t19 -55q0 -30 -12 -50.5t-32 -33.5t-47.5 -19t-58.5 -6q-53 0 -88 15.5t-58 39.5l44 52q10 -9 22.5 -19t28.5 -16.5t36 -6.5q25 0 37 11t12 32q0 22 -16 34t-62 12h-27l40 121h91z" glyph-name="Scedilla" horiz-adv-x="661" unicode="Ş"/><glyph d="M362 134q0 20 -10.5 33t-28.5 21t-41 13.5t-48 11.5q-34 8 -67 18.5t-60 28.5t-43 47t-16 73q0 59 29.5 96.5t83 56.5t125.5 19q58 0 100.5 -7t69 -16t36.5 -15v-122h-126v96q15 2 23 -2t11 -10.5t2.5 -14.5t-2.5 -16q-12 10 -29 16.5t-38 10t-47 3.5q-45 0 -66.5 -14.5 t-21.5 -43.5q0 -19 10 -31t28.5 -20t42.5 -14t51 -12q35 -8 69 -19t62 -29.5t45 -47.5t17 -72q0 -61 -28.5 -102t-86.5 -61.5t-145 -20.5q-56 0 -101 7.5t-76.5 18.5t-48.5 21v132h129v-128q-19 7 -29.5 16.5t-14 19.5t-1 16.5t9.5 6.5q13 -9 32.5 -16.5t45 -12t55.5 -4.5 q34 0 55.5 7t32 22.5t10.5 39.5zM311 5l-69 -84l-4 15q53 1 89 -9.5t55 -32.5t19 -55q0 -30 -12 -50.5t-32 -33.5t-47.5 -19t-58.5 -6q-53 0 -88 15.5t-58 39.5l44 52q10 -9 22.5 -19t28.5 -16.5t36 -6.5q25 0 37 11t12 32q0 22 -16 34t-62 12h-27l40 121h91z" glyph-name="scedilla" horiz-adv-x="556" unicode="ş"/><glyph d="M261 772h131l128 152v29h-72l-158 -102l83 1l-159 101h-80v-29zM349 64q41 0 67.5 9.5t39.5 30.5t13 54q0 30 -14 49.5t-39 32.5t-60 23.5t-79 21.5q-43 12 -82.5 27.5t-70 40.5t-48.5 64t-18 97q0 71 31 118t86.5 71.5t129.5 24.5q64 0 107.5 -18.5t71 -58t41.5 -105.5 l-38 34l19 135h77v-203h-90q-11 43 -35.5 73.5t-59 46t-77.5 15.5q-38 0 -62 -10t-35 -29t-11 -47t12.5 -46t36 -29.5t56.5 -20t73 -18.5q46 -11 88.5 -26t76 -40t52.5 -64t19 -97q0 -77 -31.5 -130t-90.5 -80t-143 -27q-67 0 -120 18.5t-89 63.5t-51 123l39 -32l-19 -158 h-81v232h97q16 -57 47 -94t73 -54.5t91 -17.5z" glyph-name="Scaron" horiz-adv-x="661" unicode="Š"/><glyph d="M213 605h125l128 169v30h-62l-167 -120l86 1l-168 119h-71v-30zM362 134q0 20 -10.5 33t-28.5 21t-41 13.5t-48 11.5q-34 8 -67 18.5t-60 28.5t-43 47t-16 73q0 59 29.5 96.5t83 56.5t125.5 19q58 0 100.5 -7t69 -16t36.5 -15v-122h-126v96q15 2 23 -2t11 -10.5 t2.5 -14.5t-2.5 -16q-12 10 -29 16.5t-38 10t-47 3.5q-45 0 -66.5 -14.5t-21.5 -43.5q0 -19 10 -31t28.5 -20t42.5 -14t51 -12q35 -8 69 -19t62 -29.5t45 -47.5t17 -72q0 -61 -28.5 -102t-86.5 -61.5t-145 -20.5q-56 0 -101 7.5t-76.5 18.5t-48.5 21v132h129v-128 q-19 7 -29.5 16.5t-14 19.5t-1 16.5t9.5 6.5q13 -9 32.5 -16.5t45 -12t55.5 -4.5q34 0 55.5 7t32 22.5t10.5 39.5z" glyph-name="scaron" horiz-adv-x="556" unicode="š"/><glyph d="M280 111v518h-30q-40 0 -64.5 -4.5t-35.5 -15t-12 -28.5l-11 -126h-90v255h672v-255h-91l-10 126q-1 18 -12.5 28.5t-35.5 15t-64 4.5h-30v-518q0 -22 18 -29t45 -7h17v-75h-347v75h17q27 0 45.5 7t18.5 29zM421 5l-69 -84l-4 15q53 1 89 -9.5t55 -32.5t19 -55 q0 -30 -12 -50.5t-32 -33.5t-47.5 -19t-58.5 -6q-53 0 -88 15.5t-58 39.5l44 52q10 -9 22.5 -19t28.5 -16.5t36 -6.5q25 0 37 11t12 32q0 22 -16 34t-62 12h-27l40 121h91z" glyph-name="Tcedilla" horiz-adv-x="746" unicode="Ţ"/><glyph d="M12 460v75h8q25 0 43.5 4t29 16.5t10.5 36.5l104 -52h219v-80h-414zM271 171q0 -35 10 -55t29 -27.5t45 -7.5q24 0 43.5 3.5t26.5 5.5v-85q-10 -4 -29 -7.5t-42 -6t-49 -2.5q-60 0 -107 15t-74.5 53t-27.5 106v359l7 8v162h168v-521zM293 4l-69 -84l-4 15q53 1 89 -9.5 t55 -32.5t19 -55q0 -30 -12 -50.5t-32 -33.5t-47.5 -19t-58.5 -6q-53 0 -88 15.5t-58 39.5l44 52q10 -9 22.5 -19t28.5 -16.5t36 -6.5q25 0 37 11t12 32q0 22 -16 34t-62 12h-27l40 121h91z" glyph-name="tcedilla" horiz-adv-x="455" unicode="ţ"/><glyph d="M304 772h131l128 152v29h-72l-158 -102l83 1l-159 101h-80v-29zM280 111v518h-30q-40 0 -64.5 -4.5t-35.5 -15t-12 -28.5l-11 -126h-90v255h672v-255h-91l-10 126q-1 18 -12.5 28.5t-35.5 15t-64 4.5h-30v-518q0 -22 18 -29t45 -7h17v-75h-347v75h17q27 0 45.5 7t18.5 29 z" glyph-name="Tcaron" horiz-adv-x="746" unicode="Ť"/><glyph d="M12 460v75h8q25 0 43.5 4t29 16.5t10.5 36.5l104 -52h219v-80h-414zM271 171q0 -35 10 -55t29 -27.5t45 -7.5q24 0 43.5 3.5t26.5 5.5v-85q-10 -4 -29 -7.5t-42 -6t-49 -2.5q-60 0 -107 15t-74.5 53t-27.5 106v359l7 8v162h168v-521zM434 618l67 181h-148l-17 -158v-23 h98z" glyph-name="tcaron" horiz-adv-x="456" unicode="ť"/><glyph d="M130 346h485v-84h-485v84zM280 111v518h-30q-40 0 -64.5 -4.5t-35.5 -15t-12 -28.5l-11 -126h-90v255h672v-255h-91l-10 126q-1 18 -12.5 28.5t-35.5 15t-64 4.5h-30v-518q0 -22 18 -29t45 -7h17v-75h-347v75h17q27 0 45.5 7t18.5 29z" glyph-name="Tbar" horiz-adv-x="746" unicode="Ŧ"/><glyph d="M12 259v80h411v-80h-411zM12 460v75h8q25 0 43.5 4t29 16.5t10.5 36.5l104 -52h219v-80h-414zM271 171q0 -35 10 -55t29 -27.5t45 -7.5q24 0 43.5 3.5t26.5 5.5v-85q-10 -4 -29 -7.5t-42 -6t-49 -2.5q-60 0 -107 15t-74.5 53t-27.5 106v359l7 8v162h168v-521z" glyph-name="tbar" horiz-adv-x="455" unicode="ŧ"/><glyph d="M292 269q0 -53 10 -89.5t29.5 -59t47 -32.5t63.5 -10q34 0 62 10.5t48 33t30.5 59t10.5 88.5v346q0 5 -5.5 8.5t-15.5 6t-21.5 4t-22.5 1.5h-10v75h232v-75h-10q-18 0 -32 -3.5t-22 -12t-8 -24.5v-326q0 -76 -21 -130.5t-59 -89t-88 -50.5t-109 -16q-66 0 -120 16.5 t-93.5 50.5t-60 88.5t-20.5 130.5v330q0 22 -17.5 29t-44.5 7h-11v75h331v-75h-10q-10 0 -21.5 -0.5t-20.5 -2t-15 -3t-6 -4.5v-356zM488 767q-27 0 -46.5 7.5t-34 18.5t-26.5 22t-22.5 18.5t-23.5 7.5q-14 0 -22.5 -8.5t-13 -25t-9.5 -42.5l-76 18q9 59 24 96t40.5 55 t66.5 18q25 0 43.5 -7t32.5 -18t26 -22t24 -18t26 -7q15 0 23 8.5t14 25.5t11 43l76 -19q-9 -60 -26 -98t-43 -55.5t-64 -17.5z" glyph-name="Utilde" horiz-adv-x="784" unicode="Ũ"/><glyph d="M260 540v-379q0 -22 5.5 -37.5t18.5 -23t34 -7.5q24 0 47 12.5t46.5 39t47.5 67.5l-2 -80q-23 -44 -55.5 -76t-72 -49t-83.5 -17q-51 0 -87 18.5t-55 55.5t-19 89v278q0 16 -12.5 22.5t-39.5 10.5l-12 2v74h239zM610 540v-434q0 -11 6 -17t18 -9t29 -6l7 -2v-72h-215 l-14 124l-7 6v301q0 16 -16 23t-42 10l-18 3v73h252zM417 601q-26 0 -45 9t-33 21.5t-25.5 25.5t-22 21.5t-23.5 8.5q-22 0 -29.5 -21.5t-14.5 -64.5l-74 17q9 62 23 101.5t39 59.5t65 20q24 0 41.5 -8.5t31.5 -21t26 -25t24 -21t26 -8.5t22 10t13 29t11 48l75 -18 q-10 -63 -26 -103t-41 -60t-63 -20z" glyph-name="utilde" horiz-adv-x="694" unicode="ũ"/><glyph d="M292 269q0 -53 10 -89.5t29.5 -59t47 -32.5t63.5 -10q34 0 62 10.5t48 33t30.5 59t10.5 88.5v346q0 5 -5.5 8.5t-15.5 6t-21.5 4t-22.5 1.5h-10v75h232v-75h-10q-18 0 -32 -3.5t-22 -12t-8 -24.5v-326q0 -76 -21 -130.5t-59 -89t-88 -50.5t-109 -16q-66 0 -120 16.5 t-93.5 50.5t-60 88.5t-20.5 130.5v330q0 22 -17.5 29t-44.5 7h-11v75h331v-75h-10q-10 0 -21.5 -0.5t-20.5 -2t-15 -3t-6 -4.5v-356zM236 901h368v-103h-368v103z" glyph-name="Umacron" horiz-adv-x="784" unicode="Ū"/><glyph d="M260 540v-379q0 -22 5.5 -37.5t18.5 -23t34 -7.5q24 0 47 12.5t46.5 39t47.5 67.5l-2 -80q-23 -44 -55.5 -76t-72 -49t-83.5 -17q-51 0 -87 18.5t-55 55.5t-19 89v278q0 16 -12.5 22.5t-39.5 10.5l-12 2v74h239zM610 540v-434q0 -11 6 -17t18 -9t29 -6l7 -2v-72h-215 l-14 124l-7 6v301q0 16 -16 23t-42 10l-18 3v73h252zM158 742h368v-103h-368v103z" glyph-name="umacron" horiz-adv-x="694" unicode="ū"/><glyph d="M292 269q0 -53 10 -89.5t29.5 -59t47 -32.5t63.5 -10q34 0 62 10.5t48 33t30.5 59t10.5 88.5v346q0 5 -5.5 8.5t-15.5 6t-21.5 4t-22.5 1.5h-10v75h232v-75h-10q-18 0 -32 -3.5t-22 -12t-8 -24.5v-326q0 -76 -21 -130.5t-59 -89t-88 -50.5t-109 -16q-66 0 -120 16.5 t-93.5 50.5t-60 88.5t-20.5 130.5v330q0 22 -17.5 29t-44.5 7h-11v75h331v-75h-10q-10 0 -21.5 -0.5t-20.5 -2t-15 -3t-6 -4.5v-356zM425 769q58 0 97.5 19t61 58.5t22.5 101.5h-86q-3 -27 -12 -42t-28 -21.5t-52 -6.5t-52 6.5t-28.5 21.5t-12.5 42h-91q2 -62 23 -101.5 t61.5 -58.5t96.5 -19z" glyph-name="Ubreve" horiz-adv-x="784" unicode="Ŭ"/><glyph d="M260 540v-379q0 -22 5.5 -37.5t18.5 -23t34 -7.5q24 0 47 12.5t46.5 39t47.5 67.5l-2 -80q-23 -44 -55.5 -76t-72 -49t-83.5 -17q-51 0 -87 18.5t-55 55.5t-19 89v278q0 16 -12.5 22.5t-39.5 10.5l-12 2v74h239zM610 540v-434q0 -11 6 -17t18 -9t29 -6l7 -2v-72h-215 l-14 124l-7 6v301q0 16 -16 23t-42 10l-18 3v73h252zM340 604q55 0 94 20t59.5 62t19.5 106h-85q-2 -30 -10.5 -46.5t-26 -23t-48.5 -6.5t-49 6.5t-26.5 23t-11.5 46.5h-90q1 -64 21 -106t59 -62t94 -20z" glyph-name="ubreve" horiz-adv-x="694" unicode="ŭ"/><glyph d="M292 269q0 -53 10 -89.5t29.5 -59t47 -32.5t63.5 -10q34 0 62 10.5t48 33t30.5 59t10.5 88.5v346q0 5 -5.5 8.5t-15.5 6t-21.5 4t-22.5 1.5h-10v75h232v-75h-10q-18 0 -32 -3.5t-22 -12t-8 -24.5v-326q0 -76 -21 -130.5t-59 -89t-88 -50.5t-109 -16q-66 0 -120 16.5 t-93.5 50.5t-60 88.5t-20.5 130.5v330q0 22 -17.5 29t-44.5 7h-11v75h331v-75h-10q-10 0 -21.5 -0.5t-20.5 -2t-15 -3t-6 -4.5v-356zM376 885q0 -29 15 -44t41 -15t41 15t15 44q0 30 -15 44.5t-41 14.5t-41 -14.5t-15 -44.5zM584 885q0 -56 -41.5 -89.5t-110.5 -33.5 q-68 0 -110 33t-42 90q0 39 19 66.5t53.5 42.5t79.5 15q46 0 80 -15t53 -42.5t19 -66.5z" glyph-name="Uring" horiz-adv-x="784" unicode="Ů"/><glyph d="M260 540v-379q0 -22 5.5 -37.5t18.5 -23t34 -7.5q24 0 47 12.5t46.5 39t47.5 67.5l-2 -80q-23 -44 -55.5 -76t-72 -49t-83.5 -17q-51 0 -87 18.5t-55 55.5t-19 89v278q0 16 -12.5 22.5t-39.5 10.5l-12 2v74h239zM610 540v-434q0 -11 6 -17t18 -9t29 -6l7 -2v-72h-215 l-14 124l-7 6v301q0 16 -16 23t-42 10l-18 3v73h252zM284 711q0 -30 15.5 -44.5t41.5 -14.5q27 0 42 14.5t15 44.5q0 31 -15.5 45.5t-41.5 14.5t-41.5 -14.5t-15.5 -45.5zM490 711q0 -36 -19 -63.5t-52 -42.5t-78 -15q-44 0 -77.5 15t-52.5 42.5t-19 63.5q0 37 19 64 t52.5 42t77.5 15q45 0 78 -15t52 -42t19 -64z" glyph-name="uring" horiz-adv-x="694" unicode="ů"/><glyph d="M292 269q0 -53 10 -89.5t29.5 -59t47 -32.5t63.5 -10q34 0 62 10.5t48 33t30.5 59t10.5 88.5v346q0 5 -5.5 8.5t-15.5 6t-21.5 4t-22.5 1.5h-10v75h232v-75h-10q-18 0 -32 -3.5t-22 -12t-8 -24.5v-326q0 -76 -21 -130.5t-59 -89t-88 -50.5t-109 -16q-66 0 -120 16.5 t-93.5 50.5t-60 88.5t-20.5 130.5v330q0 22 -17.5 29t-44.5 7h-11v75h331v-75h-10q-10 0 -21.5 -0.5t-20.5 -2t-15 -3t-6 -4.5v-356zM297 888q7 27 17.5 46t27 29t41.5 10q33 0 51 -17.5t18 -43.5q0 -28 -17 -49t-47 -47l-65 -51h-53v31zM507 888q7 27 17.5 46t27 29 t41.5 10q34 0 51.5 -17.5t17.5 -43.5q0 -28 -17 -49t-47 -47l-64 -51h-54v31z" glyph-name="Uhungarumlaut" horiz-adv-x="784" unicode="Ű"/><glyph d="M260 540v-379q0 -22 5.5 -37.5t18.5 -23t34 -7.5q24 0 47 12.5t46.5 39t47.5 67.5l-2 -80q-23 -44 -55.5 -76t-72 -49t-83.5 -17q-51 0 -87 18.5t-55 55.5t-19 89v278q0 16 -12.5 22.5t-39.5 10.5l-12 2v74h239zM610 540v-434q0 -11 6 -17t18 -9t29 -6l7 -2v-72h-215 l-14 124l-7 6v301q0 16 -16 23t-42 10l-18 3v73h252zM216 747q5 41 25 64.5t58 23.5q34 0 51.5 -18t17.5 -44q0 -25 -14 -46.5t-40 -50.5l-67 -72h-51v30zM419 747q6 41 25.5 64.5t57.5 23.5q34 0 51.5 -18t17.5 -44q0 -25 -14 -46.5t-40 -50.5l-67 -72h-52v30z" glyph-name="uhungarumlaut" horiz-adv-x="694" unicode="ű"/><glyph d="M546 44l-19 -39q-27 -11 -59 -16.5t-67 -5.5q-66 0 -120 16.5t-93.5 50.5t-60 88.5t-20.5 130.5v330q0 22 -17.5 29t-44.5 7h-11v75h331v-75h-10q-10 0 -21 -0.5t-20.5 -2t-15.5 -3t-6 -4.5v-356q0 -53 10 -89.5t29.5 -59t47 -32.5t64.5 -10q33 0 61 10.5t48 33t30.5 59 t10.5 88.5v346q0 5 -5.5 8.5t-15.5 6t-21.5 4t-22.5 1.5h-10v75h232v-75h-10q-18 0 -32 -3.5t-22 -12t-8 -24.5v-326q0 -49 -9 -89t-26 -72t-43 -56q-23 -23 -48.5 -45t-47 -43.5t-35 -43t-13.5 -45.5q0 -22 12 -33.5t34 -11.5q24 0 40.5 12.5t27.5 23.5l41 -45 q-26 -31 -61.5 -49.5t-96.5 -18.5q-43 0 -75.5 10.5t-50.5 32.5t-18 56q0 28 14 50.5t42.5 43.5t73.5 44.5t107 53.5z" glyph-name="Uogonek" horiz-adv-x="784" unicode="Ų"/><glyph d="M260 540v-379q0 -22 5.5 -37.5t18.5 -23t34 -7.5q24 0 47 12.5t46.5 39t47.5 67.5l-2 -80q-23 -44 -55.5 -76t-72 -49t-83.5 -17q-51 0 -87 18.5t-55 55.5t-19 89v278q0 16 -12.5 22.5t-39.5 10.5l-12 2v74h239zM610 540v-434q0 -11 6 -17t18 -9t29 -6l7 -2v-72h-215 l-14 124l-7 6v301q0 16 -16 23t-42 10l-18 3v73h252zM538 40l32 -31q-39 -23 -63.5 -41.5t-38 -34t-18.5 -29.5t-5 -29q0 -22 12 -33.5t33 -11.5q16 0 28.5 6t22.5 14.5t17 15.5l41 -45q-26 -31 -61.5 -49.5t-96.5 -18.5q-64 0 -103.5 24.5t-39.5 74.5q0 28 13.5 50.5t42 43 t74.5 43t110 51.5z" glyph-name="uogonek" horiz-adv-x="694" unicode="ų"/><glyph d="M16 710h319v-75h-14q-14 0 -27 -1.5t-21.5 -3.5t-8.5 -6l106 -509l-12 5l138 590h179l134 -591l-15 -5l110 501q0 6 -8 10.5t-20.5 7t-26.5 2.5h-14v75h209v-75h-7q-22 0 -36 -10t-19 -34l-132 -591h-187l-131 588l14 -1l-135 -587h-195l-139 605q-4 20 -18 25t-36 5h-7 v75zM652 945h-131l-128 -152v-29h72l158 103l-83 -1l159 -102h80v29z" glyph-name="Wcircumflex" horiz-adv-x="1060" unicode="Ŵ"/><glyph d="M490 422l-29 3l113 -428h175l115 420q6 19 14.5 30t21 16t28.5 5h4v72h-211v-70h4q17 0 30.5 -3t22 -8t8.5 -10l-97 -374l28 -4l-125 469h-148l-129 -466l29 -3l-96 390q0 4 9 5.5t24 2.5t31 1h5v70h-301v-72h5q17 0 29 -4t20.5 -13.5t13.5 -27.5l112 -426h175zM575 797 h-125l-129 -169v-29h62l167 119l-85 -1l168 -118h70v29z" glyph-name="wcircumflex" horiz-adv-x="949" unicode="ŵ"/><glyph d="M268 308l13 -45l-193 333q-9 15 -18 24t-20 12t-25 3h-7v75h322v-75h-14q-17 0 -30.5 -1.5t-22 -3.5t-8.5 -6l167 -301l-47 -10l164 301q0 7 -8.5 11.5t-22.5 7t-31 2.5h-11v75h222v-75h-7q-14 0 -25.5 -4.5t-21.5 -15t-20 -30.5l-184 -326l14 49v-197q0 -22 18 -29 t45 -7h17v-75h-346v75h17q27 0 45 7t18 29v197zM462 945h-131l-128 -152v-29h72l158 103l-83 -1l159 -102h80v29z" glyph-name="Ycircumflex" horiz-adv-x="716" unicode="Ŷ"/><glyph d="M399 103l-46 -81l-57 -73l-211 478q-7 16 -15 25t-19.5 12t-28.5 3h-6v73h304v-71h-5q-16 0 -31 -0.5t-24 -2t-9 -5.5zM399 17q-30 -69 -58.5 -118t-58 -79.5t-65 -44.5t-81.5 -14q-33 0 -59.5 6.5t-38.5 14.5v121q4 -1 20 -6.5t40 -10.5t50 -5q28 0 50.5 7t42 24.5 t37 48.5t34.5 78l28 42l157 368q0 6 -9 10.5t-23 7t-31 2.5h-5v71h215v-73h-5q-16 0 -27.5 -4.5t-20.5 -15t-18 -29.5zM420 797h-125l-129 -169v-29h62l167 119l-85 -1l168 -118h70v29z" glyph-name="ycircumflex" horiz-adv-x="660" unicode="ŷ"/><glyph d="M268 308l13 -45l-193 333q-9 15 -18 24t-20 12t-25 3h-7v75h322v-75h-14q-17 0 -30.5 -1.5t-22 -3.5t-8.5 -6l167 -301l-47 -10l164 301q0 7 -8.5 11.5t-22.5 7t-31 2.5h-11v75h222v-75h-7q-14 0 -25.5 -4.5t-21.5 -15t-20 -30.5l-184 -326l14 49v-197q0 -22 18 -29 t45 -7h17v-75h-346v75h17q27 0 45 7t18 29v197zM360 866q0 -42 -26.5 -63.5t-71.5 -21.5t-71 21.5t-26 63.5t26 63.5t71 21.5t71.5 -21.5t26.5 -63.5zM625 866q0 -42 -26 -63.5t-72 -21.5q-44 0 -70.5 21.5t-26.5 63.5t26.5 63.5t70.5 21.5q46 0 72 -21.5t26 -63.5z" glyph-name="Ydieresis" horiz-adv-x="716" unicode="Ÿ"/><glyph d="M257 629q-25 0 -44 -1.5t-32 -6.5t-20 -13t-9 -22l-9 -96h-88v220h556v-110l-432 -574l-30 55h257q40 0 65 3.5t37 12.5t14 27l13 121h90v-245h-588v114l420 557l27 -42h-227zM336 899l-69 -95v-32h51l100 38q30 10 50.5 22.5t31 29t10.5 38.5q0 28 -20 47.5t-53 19.5 q-23 0 -40.5 -8.5t-31.5 -24t-29 -35.5z" glyph-name="Zacute" horiz-adv-x="666" unicode="Ź"/><glyph d="M202 60l-13 19h157q25 0 43 1.5t29.5 6t18 13.5t7.5 23l11 85h75v-208h-492v108l314 372l50 -18h-177q-26 0 -43.5 -1.5t-28.5 -6t-17.5 -12.5t-8.5 -23l-9 -72h-74v193h469v-104zM275 746q10 25 22.5 43.5t30 29t42.5 10.5q34 0 54 -19.5t20 -47.5q0 -19 -8.5 -35.5 t-23.5 -31t-35 -26.5l-99 -67h-50v32z" glyph-name="zacute" horiz-adv-x="558" unicode="ź"/><glyph d="M257 629q-25 0 -44 -1.5t-32 -6.5t-20 -13t-9 -22l-9 -96h-88v220h556v-110l-432 -574l-30 55h257q40 0 65 3.5t37 12.5t14 27l13 121h90v-245h-588v114l420 557l27 -42h-227zM342 772q-46 0 -73 21.5t-27 63.5t27 64t73 22q47 0 73.5 -22t26.5 -64t-26.5 -63.5 t-73.5 -21.5z" glyph-name="Zdotaccent" horiz-adv-x="666" unicode="Ż"/><glyph d="M202 60l-13 19h157q25 0 43 1.5t29.5 6t18 13.5t7.5 23l11 85h75v-208h-492v108l314 372l50 -18h-177q-26 0 -43.5 -1.5t-28.5 -6t-17.5 -12.5t-8.5 -23l-9 -72h-74v193h469v-104zM287 615q-46 0 -73 21.5t-27 63.5t27 64t73 22q47 0 73.5 -22t26.5 -64t-26.5 -63.5 t-73.5 -21.5z" glyph-name="zdotaccent" horiz-adv-x="558" unicode="ż"/><glyph d="M275 772h131l128 152v29h-72l-158 -102l83 1l-159 101h-80v-29zM257 629q-25 0 -44 -1.5t-32 -6.5t-20 -13t-9 -22l-9 -96h-88v220h556v-110l-432 -574l-30 55h257q40 0 65 3.5t37 12.5t14 27l13 121h90v-245h-588v114l420 557l27 -42h-227z" glyph-name="Zcaron" horiz-adv-x="666" unicode="Ž"/><glyph d="M224 605h125l129 169v30h-63l-167 -120l86 1l-168 119h-71v-30zM202 60l-13 19h157q25 0 43 1.5t29.5 6t17.5 13.5t8 23l11 85h75v-208h-492v108l314 372l50 -18h-177q-25 0 -43 -1.5t-29 -6t-17.5 -13t-8.5 -22.5l-9 -72h-74v193h469v-104z" glyph-name="zcaron" horiz-adv-x="558" unicode="ž"/><glyph d="M359 408h127q37 0 59.5 12.5t33.5 39t11 67.5q0 33 -11.5 56.5t-33.5 36t-56 12.5h-88v-554h94q39 0 65.5 14.5t40 43t13.5 71.5q0 41 -13.5 69.5t-41.5 43t-72 14.5h-128v74zM198 710h330q60 0 106.5 -10.5t78 -32t47.5 -54t16 -75.5q0 -53 -26 -89t-74.5 -54 t-115.5 -22l25 25v-51l-21 29q74 -4 128 -24.5t83 -58t29 -95.5q0 -49 -17.5 -86t-52 -62t-84 -37.5t-114.5 -12.5h-393v75h10q27 0 44.5 7t17.5 29v521h-19q-25 0 -42.5 -8.5t-26 -29.5t-8.5 -59q0 -26 4 -49t11 -42h-124q-3 15 -6.5 37t-3.5 43q0 59 21 100.5t64.5 63.5 t112.5 22z" glyph-name="Bhook" horiz-adv-x="848" unicode="Ɓ"/><glyph d="M198 710h303q85 0 155 -22t120.5 -66.5t77.5 -110.5t27 -153t-27 -153.5t-77.5 -112t-120.5 -69t-155 -23.5h-358v75h11q26 0 43.5 7t17.5 29v521h-19q-25 0 -42.5 -8.5t-26 -28.5t-8.5 -57q0 -25 4 -47.5t11 -40.5h-124q-3 14 -6.5 35.5t-3.5 41.5q0 58 21 99t64.5 62.5 t112.5 21.5zM487 629h-86v-548h86q48 0 85.5 17t63 52t38.5 87t13 121t-13 120t-38.5 84.5t-63 50t-85.5 16.5z" glyph-name="Dhook" horiz-adv-x="924" unicode="Ɗ"/><glyph d="M370 731q110 0 190 -43t123.5 -125t43.5 -202q0 -85 -25.5 -154.5t-71.5 -119.5t-109.5 -77t-140.5 -27q-112 0 -185.5 45.5t-109.5 137t-38 228.5h582l1 -80h-414l24 24q1 -79 9.5 -131.5t25 -82.5t42.5 -42.5t62 -12.5t64.5 15t48.5 49t30.5 90.5t10.5 139.5 q0 77 -11.5 131t-34.5 87.5t-57 48.5t-80 15q-52 0 -91 -18t-69 -49t-54 -70l-77 52q31 51 74 89.5t101.5 60t135.5 21.5z" glyph-name="Schwa" horiz-adv-x="769" unicode="Ə"/><glyph d="M108 537h401l-11 -77h-401zM277 -4q-13 -89 -45 -141t-81 -75t-114 -23q-31 0 -55.5 5t-41.5 10l9 85q15 -5 34 -9.5t37 -4.5q20 0 35.5 5t27 20.5t20.5 45t17 77.5l96 612q9 59 36.5 96t73.5 54.5t109 17.5q41 0 71.5 -5.5t49.5 -12.5l-8 -83q-16 5 -38 9.5t-49 4.5 q-26 0 -44 -8t-29 -27t-16 -52z" glyph-name="florin" unicode="ƒ"/><glyph d="M38 0v75h11q27 0 44.5 7t17.5 29v488q0 22 -17.5 29t-44.5 7h-11v75h337v-75h-11q-12 0 -24.5 -0.5t-22 -2t-15.5 -3t-6 -4.5v-540q0 -3 5.5 -4.5t13.5 -3t18 -2t19 -0.5h8v-75h-322zM730 719q42 0 68 -18t37.5 -49t11.5 -72q0 -36 -6 -71t-13 -54h-125q7 14 12.5 33 t9 41t3.5 42q0 27 -6.5 41t-22.5 14q-11 0 -21.5 -6t-25 -20t-39.5 -39l-193 -208l47 97l257 -348q8 -10 16.5 -16t19 -8.5t23.5 -2.5h12v-75h-346v75h8q15 0 28.5 1t22.5 3.5t9 5.5l-190 257v26l218 232q29 32 52 54t43.5 36.5t42 21.5t47.5 7z" glyph-name="Khook" horiz-adv-x="851" unicode="Ƙ"/><glyph d="M701 0h-310v66h5q10 0 21 1t18 3t7 5l-144 199v18l181 166q0 6 -12 9.5t-29 5t-33 1.5h-11v66h274v-66h-11q-21 0 -37.5 -4t-31 -12.5t-29.5 -22.5l-174 -160l39 87l196 -261q11 -14 22.5 -21.5t25 -10.5t28.5 -3h5v-66zM94 549q0 62 20.5 104.5t58 68t87 37t107.5 11.5 q44 0 79 -4t50 -8v-99q-18 9 -47 17.5t-68 8.5q-24 0 -45 -5.5t-35.5 -20.5t-23 -42t-8.5 -70v-472q0 -3 8 -5.5t18.5 -3t19.5 -0.5h4v-66h-285v66h2q18 0 31 4.5t20 15.5t7 30v433z" glyph-name="khook" horiz-adv-x="719" unicode="ƙ"/><glyph d="M411 68q42 0 74.5 17t54.5 52.5t33.5 89.5t11.5 128t-11.5 128t-33.5 89.5t-54.5 52.5t-74.5 17t-74.5 -17t-54.5 -52.5t-33.5 -89.5t-11.5 -128t11.5 -128t33.5 -89.5t54.5 -52.5t74.5 -17zM631 601l-49 48q44 -20 80 -47.5t62 -63.5t40.5 -82t14.5 -104q0 -86 -27 -155 t-75.5 -117t-116 -72.5t-149.5 -24.5t-149.5 24.5t-116.5 72.5t-75.5 117.5t-26.5 157.5t26.5 157.5t75.5 117t116.5 73t149.5 25.5q37 0 67 -4.5t55.5 -10t47.5 -10t42 -4.5q31 0 51.5 12.5t33.5 36.5t20 58.5t10 78.5h134q-2 -71 -15 -121.5t-36 -84t-54.5 -49 t-70.5 -15.5q-15 0 -33 3t-37 8.5t-36 12t-30 12.5l71 -11v-39z" glyph-name="Ohorn" horiz-adv-x="874" unicode="Ơ"/><glyph d="M218 269q0 -69 12 -113t38 -64.5t67 -20.5t66.5 20.5t37.5 64t12 113.5q0 69 -12 113t-37.5 64.5t-66.5 20.5t-67 -20.5t-38 -64.5t-12 -113zM511 452l-29 29q43 -17 77 -47.5t53.5 -72.5t19.5 -95q0 -84 -35.5 -146.5t-102 -97t-159.5 -34.5q-94 0 -160.5 34.5 t-102 97.5t-35.5 149q0 65 20 117t58.5 89t94 56.5t125.5 19.5q28 0 49.5 -3t39 -6.5t33.5 -6t31 -2.5q33 0 52 21.5t28 62t12 97.5h129q-3 -83 -20.5 -139.5t-52 -84.5t-87.5 -28q-8 0 -15.5 0.5t-15.5 2.5t-15.5 4t-14.5 4.5t-15 5.5l38 4v-31z" glyph-name="ohorn" horiz-adv-x="716" unicode="ơ"/><glyph d="M107 269v330q0 22 -17.5 29t-44.5 7h-11v75h331v-75h-10q-10 0 -21 -0.5t-20.5 -2t-15.5 -3t-6 -4.5v-356q0 -53 10 -89.5t29.5 -59t47 -32.5t63.5 -10q46 0 79.5 19t52.5 61t19 111v346q0 5 -5.5 8.5t-15.5 6t-21.5 4t-22.5 1.5h-10v75h116q50 0 78.5 8.5t43 28t20 53 t7.5 85.5h134q-1 -54 -10 -93.5t-26 -67t-40 -45t-51 -27t-61 -14.5q-15 -2 -27 -6t-18 -12.5t-6 -22.5v-328q0 -76 -21 -130.5t-59 -89t-88 -50.5t-109 -16q-66 0 -120 16.5t-93.5 50.5t-60 88.5t-20.5 130.5z" glyph-name="Uhorn" horiz-adv-x="887" unicode="Ư"/><glyph d="M260 540v-379q0 -22 5.5 -37.5t18.5 -23t34 -7.5q24 0 47 12t45.5 36.5t45.5 60.5l12 -50q-25 -51 -59 -87.5t-75 -55.5t-88 -19q-51 0 -87 18.5t-55 55.5t-19 89v277q0 16 -12.5 23t-39.5 11l-12 2v74h239zM488 540q48 0 77.5 8t46 27.5t23.5 53.5t9 85h128 q-1 -68 -15.5 -114t-44 -72.5t-75.5 -38.5t-110 -14l83 36v-405q0 -11 6 -17t18 -9t29 -6l7 -2v-72h-215l-14 124l-7 6v300q0 16 -16 23.5t-42 10.5l-18 2v74h130z" glyph-name="uhorn" horiz-adv-x="758" unicode="ư"/><glyph d="M537 597q23 41 46 68t51 40.5t64 13.5q45 0 72.5 -18.5t39.5 -50.5t12 -72q0 -34 -6 -69t-13 -54h-124q6 14 11.5 33t9 40.5t3.5 39.5q0 29 -7 43t-25 14q-10 0 -19.5 -6t-19.5 -20t-23 -36l-170 -304l14 49v-197q0 -22 18.5 -29t44.5 -7h18v-75h-347v75h17q27 0 45.5 7 t18.5 29v197l12 -45l-192 333q-9 15 -18 24t-20 12t-25 3h-7v75h322v-75h-14q-17 0 -30.5 -1.5t-22 -3.5t-8.5 -6l166 -301l-47 -10z" glyph-name="Yhook" horiz-adv-x="817" unicode="Ƴ"/><glyph d="M399 103l-46 -81l-57 -73l-211 478q-7 16 -15 25t-19.5 12t-28.5 3h-6v73h304v-71h-5q-16 0 -31 -0.5t-24 -2t-9 -5.5zM562 618q26 61 50.5 93.5t54 45.5t66.5 13q12 0 25 -1.5t21 -3.5v-117q-10 4 -21.5 7t-24.5 3q-20 0 -36 -9t-30 -31t-31 -59l-237 -542 q-30 -70 -58.5 -119t-58.5 -79t-65 -44t-81 -14q-33 0 -59.5 6.5t-38.5 14.5v121q4 -1 20 -6.5t40 -10.5t50 -5q28 0 50.5 7t42 24.5t37 48.5t34.5 78l28 42z" glyph-name="yhook" horiz-adv-x="673" unicode="ƴ"/><glyph d="M303 772h131l128 152v29h-72l-158 -102l83 1l-159 101h-80v-29zM183 299h275l6 -75h-287zM306 654l25 -26l-168 -532q0 -6 8.5 -11t23.5 -7.5t34 -2.5h11v-75h-223v75h5q24 0 39 11t25 43l187 585h199l190 -593q9 -27 24.5 -36.5t38.5 -9.5h5v-75h-327v75h13q20 0 35 1.5 t23.5 4t8.5 5.5z" glyph-name="Acaron" horiz-adv-x="747" unicode="Ǎ"/><glyph d="M247 604h125l129 170v29h-63l-167 -119l86 1l-168 118h-71v-29zM388 327v-65q-46 -8 -78 -17t-52.5 -20t-32 -24t-16.5 -28.5t-5 -33.5q0 -25 8 -40.5t23.5 -22.5t36.5 -7q22 0 40.5 10t37 32t37.5 56l6 -52q-20 -43 -45.5 -71t-58.5 -41.5t-78 -13.5q-55 0 -93 15.5 t-57.5 47t-19.5 79.5q0 43 19 74t60.5 53.5t107 39t160.5 29.5zM392 0l-12 110l-7 -1v291q0 23 -7 39t-24.5 23.5t-50.5 7.5q-46 0 -76.5 -12.5t-42.5 -28.5q-7 6 -7.5 14t5.5 16t17 13.5t28 5.5v-116h-142v127q16 10 47 24.5t78 26t110 11.5q54 0 98 -10t75 -30.5t47.5 -53 t16.5 -76.5v-275q0 -11 6 -17t17.5 -9t29.5 -6l6 -2v-72h-212z" glyph-name="acaron" horiz-adv-x="624" unicode="ǎ"/><glyph d="M142 772h131l128 152v29h-72l-158 -102l83 1l-159 101h-80v-29zM115 111v488q0 22 -17.5 29t-43.5 7h-16v75h340v-75h-15q-27 0 -44.5 -7t-17.5 -29v-488q0 -22 17.5 -29t44.5 -7h15v-75h-340v75h16q26 0 43.5 7t17.5 29z" glyph-name="Icaron" horiz-adv-x="416" unicode="Ǐ"/><glyph d="M117 604h125l126 170v29h-62l-164 -119l85 1l-165 118h-70v-29zM269 540v-426q0 -28 15.5 -38t42.5 -10h2v-66h-295v66h2q27 0 42.5 10t15.5 38v317q0 16 -12.5 22t-39.5 11l-9 2v74h236z" glyph-name="icaron" horiz-adv-x="352" unicode="ǐ"/><glyph d="M344 772h131l128 152v29h-73l-157 -102l82 1l-159 101h-79v-29zM411 -17q-82 0 -149.5 24.5t-116.5 72.5t-75.5 117.5t-26.5 157.5t26.5 157.5t75.5 117t116.5 73t149.5 25.5t149 -25.5t116 -73t76 -117t27 -157.5t-27 -157.5t-76 -117.5t-116 -72.5t-149 -24.5zM411 68 q42 0 74 17t54.5 52.5t34 89.5t11.5 128t-11.5 128t-34 89.5t-54.5 52.5t-74 17t-74.5 -17t-54.5 -52.5t-33.5 -89.5t-11.5 -128t11.5 -128t33.5 -89.5t54.5 -52.5t74.5 -17z" glyph-name="Ocaron" horiz-adv-x="819" unicode="Ǒ"/><glyph d="M272 604h125l129 170v29h-63l-166 -119l85 1l-168 118h-71v-29zM632 269q0 -86 -35.5 -149t-102 -97.5t-159.5 -34.5q-94 0 -160.5 34.5t-102 97.5t-35.5 149q0 65 20 117t59 89t94 56.5t125 19.5t124.5 -19.5t93.5 -56.5t59 -89t20 -117zM218 269q0 -69 12 -113.5 t38 -65t67 -20.5t66.5 20.5t37.5 65t12 113.5t-12 113t-37.5 64.5t-66.5 20.5t-67 -20.5t-38 -64.5t-12 -113z" glyph-name="ocaron" horiz-adv-x="669" unicode="ǒ"/><glyph d="M371 772h131l128 152v29h-72l-158 -102l83 1l-159 101h-80v-29zM292 269q0 -53 10 -89.5t29.5 -59t47 -32.5t64.5 -10q33 0 61 10.5t48 33t30.5 59t10.5 88.5v346q0 5 -5.5 8.5t-15.5 6t-21.5 4t-22.5 1.5h-10v75h232v-75h-10q-18 0 -32 -3.5t-22 -12t-8 -24.5v-326 q0 -76 -21 -130.5t-59 -89t-88 -50.5t-109 -16q-66 0 -120 16.5t-93.5 50.5t-60 88.5t-20.5 130.5v330q0 22 -17.5 29t-44.5 7h-11v75h331v-75h-10q-10 0 -21 -0.5t-20.5 -2t-15.5 -3t-6 -4.5v-356z" glyph-name="Ucaron" horiz-adv-x="784" unicode="Ǔ"/><glyph d="M265 604h125l129 170v29h-62l-167 -119l86 1l-169 118h-70v-29zM260 540v-379q0 -22 5.5 -37.5t18.5 -23t34 -7.5q24 0 47 12.5t46.5 39t47.5 67.5l-2 -80q-23 -44 -55.5 -76t-72 -49t-83.5 -17q-51 0 -87 18.5t-55 55.5t-19 89v278q0 16 -12.5 22.5t-39.5 10.5l-12 2v74 h239zM610 540v-434q0 -11 6 -17t18 -9t29 -6l7 -2v-72h-215l-14 124l-7 6v301q0 16 -16 23t-42 10l-18 3v73h252z" glyph-name="ucaron" horiz-adv-x="694" unicode="ǔ"/><glyph d="M357 987h131l128 151v30h-72l-158 -103l82 1l-158 102h-80v-30zM292 269q0 -53 10 -89.5t29.5 -59t47 -32.5t63.5 -10q34 0 62 10.5t48 33t30.5 59t10.5 88.5v346q0 5 -5.5 8.5t-15.5 6t-21.5 4t-22.5 1.5h-10v75h232v-75h-10q-18 0 -32 -3.5t-22 -12t-8 -24.5v-326 q0 -76 -21 -130.5t-59 -89t-88 -50.5t-109 -16q-66 0 -120 16.5t-93.5 50.5t-60 88.5t-20.5 130.5v330q0 22 -17.5 29t-44.5 7h-11v75h331v-75h-10q-10 0 -21 -0.5t-20.5 -2t-15.5 -3t-6 -4.5v-356zM387 873q0 -42 -26 -63.5t-72 -21.5q-45 0 -71 21.5t-26 63.5t26 63.5 t71 21.5q46 0 72 -21.5t26 -63.5zM652 873q0 -42 -26 -63.5t-72 -21.5q-44 0 -70.5 21.5t-26.5 63.5t26.5 63.5t70.5 21.5q46 0 72 -21.5t26 -63.5z" glyph-name="Udieresiscaron" horiz-adv-x="801" unicode="Ǚ"/><glyph d="M279 813h125l129 169v29h-63l-167 -119l86 1l-168 118h-71v-29zM260 540v-379q0 -22 5.5 -37.5t18.5 -23t34 -7.5q24 0 47 12.5t46.5 39t47.5 67.5l-2 -80q-23 -44 -55.5 -76t-72 -49t-83.5 -17q-51 0 -87 18.5t-55 55.5t-19 89v278q0 15 -12.5 22t-39.5 11l-12 2v74h239 zM610 540v-434q0 -11 6 -17t18 -9t29 -6l7 -2v-72h-215l-14 124l-7 6v301q0 16 -16 23t-42 10l-18 3v73h252zM305 697q0 -42 -26 -63.5t-71 -21.5t-71.5 21.5t-26.5 63.5t26.5 63.5t71.5 21.5t71 -21.5t26 -63.5zM573 697q0 -42 -26.5 -63.5t-71.5 -21.5t-71.5 21.5 t-26.5 63.5t26.5 63.5t71.5 21.5t71.5 -21.5t26.5 -63.5z" glyph-name="udieresiscaron" horiz-adv-x="694" unicode="ǚ"/><glyph d="M339 772h131l128 152v29h-72l-158 -102l82 1l-158 101h-80v-29zM711 242v-142q-15 -18 -43.5 -38.5t-68.5 -38.5t-88.5 -29t-102.5 -11q-83 0 -150 24.5t-115 72.5t-74 117t-26 158q0 88 26.5 157t75.5 117.5t113.5 73.5t141.5 25q73 0 122 -26t78.5 -72.5t43.5 -109.5 l-44 31l17 164h85v-231h-96q-15 47 -40 82.5t-61 55.5t-84 20q-46 0 -80 -18.5t-57.5 -54t-35 -89t-11.5 -125.5q0 -76 12 -130.5t35.5 -89t57.5 -51t78 -16.5q34 0 57.5 7.5t39.5 18t25 18.5v130q0 23 -19 30.5t-48 7.5h-20v75h323v-75h-15q-24 0 -38 -7.5t-14 -30.5z" glyph-name="Gcaron" horiz-adv-x="806" unicode="Ǧ"/><glyph d="M260 605h125l129 169v30h-63l-167 -120l86 1l-168 119h-71v-30zM668 442q-41 7 -71 9.5t-54 3t-45 -3.5l-21 -5q15 34 32.5 60t40 42.5t51.5 23.5t67 2v-132zM314 173q-75 0 -130.5 22.5t-85.5 65t-30 99.5q0 58 30.5 100.5t86 66.5t129.5 24q75 0 130.5 -24t86.5 -66.5 t31 -100.5q0 -57 -31 -99.5t-86.5 -65t-130.5 -22.5zM314 244q30 0 48.5 12t27.5 37.5t9 65.5q0 41 -9 67t-27.5 38.5t-48.5 12.5q-28 0 -47 -12.5t-28 -38.5t-9 -67q0 -40 9 -65.5t28 -37.5t47 -12zM231 -245q-70 0 -119.5 11.5t-75.5 36.5t-26 66q0 29 15.5 50t49.5 37 t89 31l33 -22q-21 -13 -33 -25.5t-17 -25t-5 -29.5q0 -18 11.5 -31t37 -19.5t67.5 -6.5h104q46 0 76 8.5t44.5 25.5t14.5 41q0 21 -12.5 32t-43.5 11h-289l8 13q-38 8 -64 23.5t-39 39t-13 54.5q0 33 17 59.5t50.5 48t79.5 38.5l45 -20q-22 -13 -36 -24.5t-20.5 -22.5 t-6.5 -24q0 -20 14.5 -28.5t44.5 -8.5h222q62 0 104 -16t63 -48t21 -81q0 -66 -35 -109t-97 -64t-142 -21h-137z" glyph-name="gcaron" horiz-adv-x="679" unicode="ǧ"/><glyph d="M411 68q42 0 74.5 17t54.5 52.5t33.5 89.5t11.5 128t-11.5 128t-33.5 89.5t-54.5 52.5t-74.5 17t-74.5 -17t-54.5 -52.5t-33.5 -89.5t-11.5 -128t11.5 -128t33.5 -89.5t54.5 -52.5t74.5 -17zM676 79q-26 -26 -56 -46.5t-58 -39t-51.5 -36t-37 -37.5t-13.5 -45 q0 -23 12 -34t34 -11q23 0 40 12.5t27 23.5l42 -45q-17 -20 -38.5 -35.5t-50.5 -24t-70 -8.5q-42 0 -74.5 10.5t-50.5 32.5t-18 56q0 28 14 50.5t44.5 42t78 40.5t114.5 47l-21 -31q-20 -6 -41.5 -10t-44 -6t-46.5 -2q-82 0 -149.5 24.5t-116.5 72.5t-75.5 117.5 t-26.5 157.5t26.5 157.5t75.5 117t116.5 73t149.5 25.5t149.5 -25.5t116.5 -73t75.5 -117t26.5 -157.5q0 -58 -12 -108.5t-35 -92.5t-56 -75z" glyph-name="Oogonek" horiz-adv-x="822" unicode="Ǫ"/><glyph d="M218 269q0 -70 12 -113.5t38 -64t67 -20.5t66.5 20t37.5 64t12 114q0 69 -12 113t-37.5 64.5t-66.5 20.5t-67 -20.5t-38 -64.5t-12 -113zM479 41l-11 -30q-19 -8 -40.5 -13t-44.5 -7.5t-48 -2.5q-94 0 -160.5 34t-102 97.5t-35.5 149.5q0 65 20 117t59 89t94 56.5 t125 19.5t124.5 -19.5t93.5 -56.5t59 -89t20 -117q0 -46 -10.5 -85.5t-31 -72t-50.5 -58.5q-29 -27 -57.5 -49t-52 -42t-37 -41t-13.5 -46q0 -22 12 -33.5t34 -11.5q23 0 40 12.5t27 23.5l42 -45q-27 -31 -62 -49.5t-94 -18.5q-66 0 -106 24.5t-40 74.5q0 28 13.5 50t43 43 t76.5 44t113 52z" glyph-name="oogonek" horiz-adv-x="669" unicode="ǫ"/><glyph d="M183 299h275l6 -75h-287zM306 654l25 -26l-168 -532q0 -6 8.5 -11t23.5 -7.5t34 -2.5h11v-75h-223v75h5q24 0 39 11t25 43l187 585h199l190 -593q9 -27 24.5 -36.5t38.5 -9.5h5v-75h-327v75h13q20 0 35 1.5t23.5 4t8.5 5.5zM314 885q0 -29 15 -44t41 -15t41 15t15 44 q0 30 -15 44.5t-41 14.5t-41 -14.5t-15 -44.5zM522 885q0 -56 -41.5 -89.5t-110.5 -33.5q-68 0 -110 33t-42 90q0 39 19 66.5t53.5 42.5t79.5 15q46 0 80 -15t53 -42.5t19 -66.5zM374 1174l-69 -95v-32h51l100 38q30 10 50.5 22.5t31 29t10.5 38.5q0 28 -20 47.5t-53 19.5 q-23 0 -40.5 -8.5t-31.5 -24t-29 -35.5z" glyph-name="Aringacute" horiz-adv-x="735" unicode="Ǻ"/><glyph d="M388 327v-65q-46 -8 -78 -17t-52.5 -20t-32 -24t-16.5 -28.5t-5 -33.5q0 -25 8 -40.5t23.5 -22.5t36.5 -7q22 0 40.5 10t37 32t37.5 56l6 -52q-20 -43 -45.5 -71t-58.5 -41.5t-78 -13.5q-55 0 -93 15.5t-57.5 47t-19.5 79.5q0 43 19 74t60.5 53.5t107 39t160.5 29.5z M392 0l-12 110l-7 -1v291q0 23 -7 39t-24.5 23.5t-50.5 7.5q-46 0 -76.5 -12.5t-42.5 -28.5q-7 6 -7.5 14t5.5 16t17 13.5t28 5.5v-116h-142v127q16 10 47 24.5t78 26t110 11.5q54 0 98 -10t75 -30.5t47.5 -53t16.5 -76.5v-275q0 -11 6 -17t17.5 -9t29.5 -6l6 -2v-72h-212z M254 705q0 -30 15.5 -44.5t41.5 -14.5q27 0 42 14.5t15 44.5q0 31 -15.5 45.5t-41.5 14.5t-41.5 -14.5t-15.5 -45.5zM460 705q0 -36 -19 -63.5t-52 -42.5t-78 -15q-44 0 -77.5 15t-52.5 42.5t-19 63.5q0 37 19 64t52.5 42t77.5 15q45 0 78 -15t52 -42t19 -64zM316 986 l-69 -95v-32h51l100 38q30 10 50.5 22.5t31 29t10.5 38.5q0 28 -20 47.5t-53 19.5q-23 0 -40.5 -8.5t-31.5 -24t-29 -35.5z" glyph-name="aringacute" horiz-adv-x="624" unicode="ǻ"/><glyph d="M241 299h259l6 -75h-291zM643 399q40 3 80 5t80.5 5t80.5 6v-102q-39 3 -79 5t-80.5 5t-81.5 5v71zM408 0v75h9q18 0 32 3t22.5 9t8.5 17v521h-13l-302 -529q0 -6 8 -11t22.5 -7.5t34.5 -2.5h10v-75h-232v75h5q16 0 28 5t22.5 17t22.5 32l273 472q0 13 -10.5 20 t-28.5 10.5t-41 3.5h-13v75h704v-201h-87l-9 77q-2 18 -14.5 27.5t-35 13t-55.5 3.5h-104v-550h109q30 0 51.5 2t35 7t20.5 13.5t9 21.5l13 102h90v-226h-585zM606 899l-69 -95v-32h51l100 38q30 10 50.5 22.5t31 29t10.5 38.5q0 28 -20 47.5t-53 19.5q-23 0 -40.5 -8.5 t-31.5 -24t-29 -35.5z" glyph-name="AEacute" horiz-adv-x="1040" unicode="Ǽ"/><glyph d="M393 324l-1 -66q-46 -7 -79 -15.5t-54.5 -19t-33.5 -23t-17 -27.5t-5 -32q0 -26 8.5 -41.5t25.5 -23t41 -7.5q26 0 48.5 11t42.5 34.5t38 60.5l42 -28q-17 -39 -37.5 -68.5t-47 -49.5t-60.5 -30t-78 -10q-60 0 -102 15.5t-63 47.5t-21 80q0 43 19.5 73.5t61.5 52.5 t109 38t163 28zM298 551q52 0 89 -9.5t60 -30t34 -53.5t11 -80l-115 -85v106q0 24 -7.5 40t-26 23.5t-51.5 7.5q-47 0 -77.5 -12.5t-43.5 -27.5q-7 6 -7.5 14t5.5 16t17 13.5t28 5.5v-116h-142v126q15 11 46.5 25.5t77 25.5t102.5 11zM693 74q38 0 64.5 12t46 32.5 t34.5 45.5l68 -48q-22 -40 -54 -68.5t-76 -43.5t-105 -15q-90 0 -156 32t-102 96t-36 158q0 24 5.5 39.5t15.5 26t22 18.5t26 17q10 41 29 73.5t46.5 55.5t63 34.5t79.5 11.5q61 0 107 -19.5t77 -58.5t47 -97t17 -136h-439l-1 71h301l-23 -29q-2 56 -7.5 93t-16 58t-28 30 t-41.5 9q-25 0 -45 -10.5t-34 -34.5t-21 -63t-7 -97q0 -52 9 -89.5t26.5 -60t44.5 -33t63 -10.5zM485 740q10 25 22.5 43.5t30 29t42.5 10.5q34 0 54 -19.5t20 -47.5q0 -19 -8.5 -35.5t-23.5 -31t-35 -26.5l-99 -67h-50v32z" glyph-name="aeacute" horiz-adv-x="931" unicode="ǽ"/><glyph d="M412 642q-44 0 -78 -17t-57 -52.5t-35 -89.5t-12 -128q0 -79 10 -133.5t32 -88.5t56 -49.5t81 -15.5q44 0 78 17t57.5 52.5t35.5 89.5t12 128q0 79 -10 133.5t-32 88.5t-56 49.5t-82 15.5zM411 -17q-77 0 -144 26t-117.5 75t-78.5 117.5t-28 153.5q0 88 26.5 157.5 t75.5 117.5t116.5 73t149.5 25q78 0 144.5 -26.5t117 -75.5t78.5 -117.5t28 -153.5q0 -88 -26.5 -157.5t-75.5 -117.5t-116.5 -72.5t-149.5 -24.5zM-11 -20l724 750h110l-724 -750h-110zM412 899l-69 -95v-32h51l100 38q30 10 50.5 22.5t31 29t10.5 38.5q0 28 -20 47.5 t-53 19.5q-23 0 -40.5 -8.5t-31.5 -24t-29 -35.5z" glyph-name="Oslashacute" horiz-adv-x="821" unicode="Ǿ"/><glyph d="M-11 -13l586 565h103l-586 -565h-103zM209 269q0 -71 11 -115t38.5 -63.5t74.5 -19.5q46 0 74 20.5t40.5 64t12.5 113.5q0 72 -11 115.5t-38 63t-76 19.5q-45 0 -73 -20.5t-40.5 -64.5t-12.5 -113zM37 269q0 65 20 117t59 89t94 56.5t125 19.5q67 0 121.5 -21t94 -59 t60.5 -89.5t21 -112.5q0 -86 -35.5 -149t-102 -97.5t-159.5 -34.5q-90 0 -157 36.5t-104 100t-37 144.5zM324 746q10 25 22.5 43.5t30 29t42.5 10.5q34 0 54 -19.5t20 -47.5q0 -19 -8.5 -35.5t-23.5 -31t-35 -26.5l-99 -67h-50v32z" glyph-name="oslashacute" horiz-adv-x="669" unicode="ǿ"/><glyph d="M499 888l27 -92v-31h-53l-65 51q-30 26 -47 47t-17 49q0 26 18 43.5t52 17.5q24 0 40.5 -10t27.5 -29t17 -46zM289 888l27 -92v-31h-53l-65 51q-30 26 -47 47t-17 49q0 26 18 43.5t51 17.5q25 0 41.5 -10t27.5 -29t17 -46zM183 299h275l6 -75h-287zM306 654l25 -26 l-168 -532q0 -6 8.5 -11t23.5 -7.5t34 -2.5h11v-75h-223v75h5q24 0 39 11t25 43l187 585h199l190 -593q9 -27 24.5 -36.5t38.5 -9.5h5v-75h-327v75h13q20 0 35 1.5t23.5 4t8.5 5.5z" glyph-name="Adblgrave" horiz-adv-x="747" unicode="Ȁ"/><glyph d="M438 746l20 -112v-31h-52l-66 72q-27 29 -40.5 51t-13.5 47q0 26 17.5 44t51.5 18q38 0 57.5 -23.5t25.5 -65.5zM235 746l20 -112v-31h-52l-66 72q-27 29 -40.5 51t-13.5 47q0 26 17.5 44t51.5 18q38 0 57.5 -23.5t25.5 -65.5zM388 327v-65q-46 -8 -78 -17t-52.5 -20 t-32 -24t-16.5 -28.5t-5 -33.5q0 -25 8 -40.5t23.5 -22.5t36.5 -7q22 0 40.5 10t37 32t37.5 56l6 -52q-20 -43 -45.5 -71t-58.5 -41.5t-78 -13.5q-55 0 -93 15.5t-57.5 47t-19.5 79.5q0 43 19 74t60.5 53.5t107 39t160.5 29.5zM392 0l-12 110l-7 -1v291q0 23 -7 39 t-24.5 23.5t-50.5 7.5q-46 0 -76.5 -12.5t-42.5 -28.5q-7 6 -7.5 14t5.5 16t17 13.5t28 5.5v-116h-142v127q16 10 47 24.5t78 26t110 11.5q54 0 98 -10t75 -30.5t47.5 -53t16.5 -76.5v-275q0 -11 6 -17t17.5 -9t29.5 -6l6 -2v-72h-212z" glyph-name="adblgrave" horiz-adv-x="624" unicode="ȁ"/><glyph d="M370 941q-57 0 -97 -18.5t-61 -58t-23 -102.5h87q2 28 11.5 43t28.5 21t52 6q32 0 51.5 -6t29 -21t11.5 -43h92q-2 63 -23.5 102.5t-61.5 58t-97 18.5zM183 299h275l6 -75h-287zM306 654l25 -26l-168 -532q0 -6 8.5 -11t23.5 -7.5t34 -2.5h11v-75h-223v75h5q24 0 39 11 t25 43l187 585h199l190 -593q9 -27 24.5 -36.5t38.5 -9.5h5v-75h-327v75h13q20 0 35 1.5t23.5 4t8.5 5.5z" glyph-name="Ainvertedbreve" horiz-adv-x="747" unicode="Ȃ"/><glyph d="M307 792q-55 0 -94 -20t-59 -62t-21 -107h85q3 32 11.5 48t26 22.5t48.5 6.5t49 -6.5t27 -22.5t10 -48h90q1 65 -19.5 107t-59.5 62t-94 20zM388 327v-65q-46 -8 -78 -17t-52.5 -20t-32 -24t-16.5 -28.5t-5 -33.5q0 -25 8 -40.5t23.5 -22.5t36.5 -7q22 0 40.5 10t37 32 t37.5 56l6 -52q-20 -43 -45.5 -71t-58.5 -41.5t-78 -13.5q-55 0 -93 15.5t-57.5 47t-19.5 79.5q0 43 19 74t60.5 53.5t107 39t160.5 29.5zM392 0l-12 110l-7 -1v291q0 23 -7 39t-24.5 23.5t-50.5 7.5q-46 0 -76.5 -12.5t-42.5 -28.5q-7 6 -7.5 14t5.5 16t17 13.5t28 5.5 v-116h-142v127q16 10 47 24.5t78 26t110 11.5q54 0 98 -10t75 -30.5t47.5 -53t16.5 -76.5v-275q0 -11 6 -17t17.5 -9t29.5 -6l6 -2v-72h-212z" glyph-name="ainvertedbreve" horiz-adv-x="624" unicode="ȃ"/><glyph d="M483 888l27 -92v-31h-53l-65 51q-30 26 -46.5 47t-16.5 49q0 26 17.5 43.5t51.5 17.5q24 0 41 -10t27.5 -29t16.5 -46zM274 888l26 -92v-31h-53l-65 51q-30 26 -47 47t-17 49q0 26 18 43.5t52 17.5q24 0 41 -10t28 -29t17 -46zM637 226v-226h-599v75h11q27 0 44.5 7 t17.5 29v488q0 22 -17.5 29t-44.5 7h-11v75h576v-201h-87l-9 77q-2 18 -14.5 27.5t-35 13t-55.5 3.5h-117v-550h122q30 0 51.5 2t35 7t20.5 13.5t9 21.5l13 102h90zM274 400q42 3 83.5 5.5l83 5t82.5 5.5v-103q-41 3 -82.5 5.5l-83 5t-83.5 5.5v71z" glyph-name="Edblgrave" horiz-adv-x="686" unicode="Ȅ"/><glyph d="M446 746l20 -112v-31h-51l-67 72q-27 29 -40.5 51t-13.5 47q0 26 17.5 44t51.5 18q38 0 57.5 -23.5t25.5 -65.5zM243 746l20 -112v-31h-51l-67 72q-27 29 -40.5 51t-13.5 47q0 26 17.5 44t51.5 18q38 0 57.5 -23.5t25.5 -65.5zM211 267q0 -53 9.5 -90t28 -60t46.5 -33.5 t65 -10.5q38 0 65.5 12t48 32.5t35.5 45.5l67 -47q-21 -40 -54 -69t-78 -44t-106 -15q-92 0 -159.5 32t-104.5 94.5t-37 151.5q0 86 35.5 150t99.5 99.5t147 35.5q67 0 116 -20t81.5 -59t49 -97.5t17.5 -136.5h-414v71h272l-21 -28q-1 57 -7 94t-17 58t-29.5 29.5t-44.5 8.5 t-46.5 -10.5t-35 -34t-22 -63t-7.5 -96.5z" glyph-name="edblgrave" horiz-adv-x="617" unicode="ȅ"/><glyph d="M340 941q-57 0 -97 -18.5t-61 -58t-23 -102.5h87q2 28 11.5 43t28.5 21t52 6q32 0 51.5 -6t29 -21t11.5 -43h92q-2 63 -23.5 102.5t-61.5 58t-97 18.5zM637 226v-226h-599v75h11q27 0 44.5 7t17.5 29v488q0 22 -17.5 29t-44.5 7h-11v75h576v-201h-87l-9 77 q-2 18 -14.5 27.5t-35 13t-55.5 3.5h-117v-550h122q30 0 51.5 2t35 7t20.5 13.5t9 21.5l13 102h90zM274 400q42 3 83.5 5.5l83 5t82.5 5.5v-103q-41 3 -82.5 5.5l-83 5t-83.5 5.5v71z" glyph-name="Einvertedbreve" horiz-adv-x="686" unicode="Ȇ"/><glyph d="M314 792q-55 0 -94 -20t-59 -62t-20 -107h85q2 32 10.5 48t26.5 22.5t48 6.5q31 0 49 -6.5t27 -22.5t11 -48h90q0 65 -20.5 107t-59 62t-94.5 20zM211 267q0 -53 9.5 -90t28 -60t46.5 -33.5t65 -10.5q38 0 65.5 12t48 32.5t35.5 45.5l67 -47q-21 -40 -54 -69t-78 -44 t-106 -15q-92 0 -159.5 32t-104.5 94.5t-37 151.5q0 86 35.5 150t99.5 99.5t147 35.5q67 0 116 -20t81.5 -59t49 -97.5t17.5 -136.5h-414v71h272l-21 -28q-1 57 -7 94t-17 58t-29.5 29.5t-44.5 8.5t-46.5 -10.5t-35 -34t-22 -63t-7.5 -96.5z" glyph-name="einvertedbreve" horiz-adv-x="617" unicode="ȇ"/><glyph d="M340 888l28 -92v-31h-54l-64 51q-31 26 -47.5 47t-16.5 49q0 26 17.5 43.5t51.5 17.5q24 0 41 -10t27.5 -29t16.5 -46zM131 888l26 -92v-31h-53l-65 51q-30 26 -47 47t-17 49q0 26 18 43.5t52 17.5q24 0 41 -10t28 -29t17 -46zM115 111v488q0 22 -17.5 29t-43.5 7h-16v75 h340v-75h-16q-26 0 -43.5 -7t-17.5 -29v-488q0 -22 17.5 -29t43.5 -7h16v-75h-340v75h16q26 0 43.5 7t17.5 29z" glyph-name="Idblgrave" horiz-adv-x="416" unicode="Ȉ"/><glyph d="M299 746l20 -112v-31h-52l-66 72q-27 29 -40.5 51t-13.5 47q0 26 17.5 44t51.5 18q38 0 57.5 -23.5t25.5 -65.5zM96 746l20 -112v-31h-52l-66 72q-27 29 -40.5 51t-13.5 47q0 26 17.5 44t51.5 18q38 0 57.5 -23.5t25.5 -65.5zM269 540v-426q0 -28 15.5 -38t42.5 -10h2 v-66h-295v66h2q27 0 42.5 10t15.5 38v317q0 16 -12.5 22t-39.5 11l-9 2v74h236z" glyph-name="idblgrave" horiz-adv-x="352" unicode="ȉ"/><glyph d="M208 941q-57 0 -97 -18.5t-61 -58t-23 -102.5h87q2 28 11 43t28.5 21t52.5 6q32 0 51.5 -6t28.5 -21t12 -43h92q-2 63 -23.5 102.5t-61.5 58t-97 18.5zM115 111v488q0 22 -17.5 29t-43.5 7h-16v75h340v-75h-16q-26 0 -43.5 -7t-17.5 -29v-488q0 -22 17.5 -29t43.5 -7h16 v-75h-340v75h16q26 0 43.5 7t17.5 29z" glyph-name="Iinvertedbreve" horiz-adv-x="416" unicode="Ȋ"/><glyph d="M172 792q-55 0 -93 -20t-58 -62t-20 -107h85q3 32 11 48t25 22.5t47 6.5t47.5 -6.5t26 -22.5t9.5 -48h90q1 65 -19 107t-58 62t-93 20zM269 540v-426q0 -28 15.5 -38t42.5 -10h2v-66h-295v66h2q27 0 42.5 10t15.5 38v317q0 16 -12.5 22t-39.5 11l-9 2v74h236z" glyph-name="iinvertedbreve" horiz-adv-x="352" unicode="ȋ"/><glyph d="M547 888l27 -92v-31h-54l-64 51q-30 26 -47 47t-17 49q0 26 18 43.5t51 17.5q25 0 41.5 -10t27 -29t17.5 -46zM337 888l26 -92v-31h-53l-64 51q-31 26 -47.5 47t-16.5 49q0 26 17.5 43.5t51.5 17.5q25 0 41.5 -10t27.5 -29t17 -46zM411 -17q-82 0 -149.5 24.5 t-116.5 72.5t-75.5 117.5t-26.5 157.5t26.5 157.5t75.5 117t116.5 73t149.5 25.5t149.5 -25.5t116.5 -73t75.5 -117t26.5 -157.5t-26.5 -157.5t-75.5 -117.5t-116.5 -72.5t-149.5 -24.5zM411 68q42 0 74.5 17t54.5 52.5t33.5 89.5t11.5 128t-11.5 128t-33.5 89.5t-54.5 52.5 t-74.5 17t-74.5 -17t-54.5 -52.5t-33.5 -89.5t-11.5 -128t11.5 -128t33.5 -89.5t54.5 -52.5t74.5 -17z" glyph-name="Odblgrave" horiz-adv-x="822" unicode="Ȍ"/><glyph d="M470 746l20 -112v-31h-52l-67 72q-26 29 -40 51t-14 47q0 26 17.5 44t51.5 18q39 0 58.5 -23.5t25.5 -65.5zM266 746l21 -112v-31h-52l-67 72q-26 29 -40 51t-14 47q0 26 17.5 44t51.5 18q38 0 58 -23.5t25 -65.5zM632 269q0 -86 -35.5 -149t-102 -97.5t-159.5 -34.5 q-94 0 -160.5 34.5t-102 97.5t-35.5 149q0 65 20 117t59 89t94 56.5t125 19.5t124.5 -19.5t93.5 -56.5t59 -89t20 -117zM218 269q0 -69 12 -113.5t38 -65t67 -20.5t66.5 20.5t37.5 65t12 113.5t-12 113t-37.5 64.5t-66.5 20.5t-67 -20.5t-38 -64.5t-12 -113z" glyph-name="odblgrave" horiz-adv-x="669" unicode="ȍ"/><glyph d="M411 941q-57 0 -97 -18.5t-61.5 -58t-22.5 -102.5h86q3 28 12 43t28.5 21t52.5 6q32 0 51.5 -6t28.5 -21t12 -43h92q-2 63 -23.5 102.5t-61.5 58t-97 18.5zM411 -17q-82 0 -149.5 24.5t-116.5 72.5t-75.5 117.5t-26.5 157.5t26.5 157.5t75.5 117t116.5 73t149.5 25.5 t149.5 -25.5t116.5 -73t75.5 -117t26.5 -157.5t-26.5 -157.5t-75.5 -117.5t-116.5 -72.5t-149.5 -24.5zM411 68q42 0 74.5 17t54.5 52.5t33.5 89.5t11.5 128t-11.5 128t-33.5 89.5t-54.5 52.5t-74.5 17t-74.5 -17t-54.5 -52.5t-33.5 -89.5t-11.5 -128t11.5 -128t33.5 -89.5 t54.5 -52.5t74.5 -17z" glyph-name="Oinvertedbreve" horiz-adv-x="822" unicode="Ȏ"/><glyph d="M334 792q-54 0 -93 -20t-59.5 -62t-20.5 -107h85q2 32 10.5 48t26.5 22.5t48 6.5q31 0 49.5 -6.5t27 -22.5t10.5 -48h90q1 65 -20 107t-59.5 62t-94.5 20zM632 269q0 -86 -35.5 -149t-102 -97.5t-159.5 -34.5q-94 0 -160.5 34.5t-102 97.5t-35.5 149q0 65 20 117t59 89 t94 56.5t125 19.5t124.5 -19.5t93.5 -56.5t59 -89t20 -117zM218 269q0 -69 12 -113.5t38 -65t67 -20.5t66.5 20.5t37.5 65t12 113.5t-12 113t-37.5 64.5t-66.5 20.5t-67 -20.5t-38 -64.5t-12 -113z" glyph-name="oinvertedbreve" horiz-adv-x="669" unicode="ȏ"/><glyph d="M504 888l27 -92v-31h-53l-65 51q-30 26 -47 47t-17 49q0 26 18 43.5t52 17.5q24 0 41 -10t27.5 -29t16.5 -46zM294 888l27 -92v-31h-53l-65 51q-30 26 -47 47t-17 49q0 26 18 43.5t51 17.5q25 0 41.5 -10t27.5 -29t17 -46zM378 320l149 -320h223v75h-9q-15 0 -27 3.5 t-22.5 13.5t-20.5 28l-124 234zM296 85v547h96q35 0 58.5 -14.5t35 -42.5t11.5 -69q0 -43 -11.5 -74.5t-36 -48.5t-63.5 -17h-114v-77h154q7 3 12 5.5l11 5.5t13 8q73 9 123.5 35.5t76.5 69.5t26 100q0 63 -31 107t-90 67t-145 23h-384v-75h11q27 0 44.5 -7t17.5 -29v-488 q0 -22 -17.5 -29t-44.5 -7h-11v-75h332v75h-13q-12 0 -22.5 0.5t-19.5 2t-14 3t-5 4.5z" glyph-name="Rdblgrave" horiz-adv-x="776" unicode="Ȑ"/><glyph d="M386 746l20 -112v-31h-51l-67 72q-27 29 -40.5 51t-13.5 47q0 26 17.5 44t51.5 18q38 0 57.5 -23.5t25.5 -65.5zM183 746l20 -112v-31h-51l-67 72q-27 29 -40.5 51t-13.5 47q0 26 17.5 44t51.5 18q38 0 57.5 -23.5t25.5 -65.5zM465 544v-159q-8 1 -21.5 2.5t-29 2.5 t-29.5 1q-22 0 -41.5 -3t-36 -10t-30.5 -17.5t-27 -27.5l-3 38q24 57 47.5 97t54 61t75.5 21q14 0 25 -2t16 -4zM33 0v66h3q27 0 42 10.5t15 39.5v315q0 10 -5.5 16t-16.5 9.5t-29 7.5l-9 2v74h216l14 -156l6 3v-307q0 -6 10.5 -9t26.5 -4t31 -1h11v-66h-315z" glyph-name="rdblgrave" horiz-adv-x="496" unicode="ȑ"/><glyph d="M375 941q-57 0 -97 -18.5t-61 -58t-23 -102.5h87q2 28 11.5 43t28.5 21t52 6q32 0 51.5 -6t29 -21t11.5 -43h92q-2 63 -23.5 102.5t-61.5 58t-97 18.5zM378 320l149 -320h223v75h-9q-15 0 -27 3.5t-22.5 13.5t-20.5 28l-124 234zM296 85v547h96q35 0 58.5 -14.5t35 -42.5 t11.5 -69q0 -43 -11.5 -74.5t-36 -48.5t-63.5 -17h-114v-77h154q7 3 12 5.5l11 5.5t13 8q73 9 123.5 35.5t76.5 69.5t26 100q0 63 -31 107t-90 67t-145 23h-384v-75h11q27 0 44.5 -7t17.5 -29v-488q0 -22 -17.5 -29t-44.5 -7h-11v-75h332v75h-13q-12 0 -22.5 0.5t-19.5 2 t-14 3t-5 4.5z" glyph-name="Rinvertedbreve" horiz-adv-x="776" unicode="Ȓ"/><glyph d="M250 792q-55 0 -94 -20t-59.5 -62t-20.5 -107h85q3 32 11 48t26 22.5t49 6.5q30 0 48.5 -6.5t27 -22.5t10.5 -48h90q1 65 -19.5 107t-59.5 62t-94 20zM465 544v-159q-8 1 -21.5 2.5t-29 2.5t-29.5 1q-22 0 -41.5 -3t-36 -10t-30.5 -17.5t-27 -27.5l-3 38q24 57 47.5 97 t54 61t75.5 21q14 0 25 -2t16 -4zM33 0v66h3q27 0 42 10.5t15 39.5v315q0 10 -5.5 16t-16.5 9.5t-29 7.5l-9 2v74h216l14 -156l6 3v-307q0 -6 10.5 -9t26.5 -4t31 -1h11v-66h-315z" glyph-name="rinvertedbreve" horiz-adv-x="496" unicode="ȓ"/><glyph d="M559 888l27 -92v-31h-53l-65 51q-30 26 -47 47t-17 49q0 26 18 43.5t52 17.5q24 0 40.5 -10t27.5 -29t17 -46zM349 888l27 -92v-31h-54l-64 51q-30 26 -47 47t-17 49q0 26 18 43.5t51 17.5q25 0 41.5 -10t27.5 -29t17 -46zM292 269q0 -53 10 -89.5t29.5 -59t47 -32.5 t64.5 -10q33 0 61 10.5t48 33t30.5 59t10.5 88.5v346q0 5 -5.5 8.5t-15.5 6t-21.5 4t-22.5 1.5h-10v75h232v-75h-10q-18 0 -32 -3.5t-22 -12t-8 -24.5v-326q0 -76 -21 -130.5t-59 -89t-88 -50.5t-109 -16q-66 0 -120 16.5t-93.5 50.5t-60 88.5t-20.5 130.5v330 q0 22 -17.5 29t-44.5 7h-11v75h331v-75h-10q-10 0 -21 -0.5t-20.5 -2t-15.5 -3t-6 -4.5v-356z" glyph-name="Udblgrave" horiz-adv-x="784" unicode="Ȕ"/><glyph d="M463 746l20 -112v-31h-51l-67 72q-27 29 -40.5 51t-13.5 47q0 26 17.5 44t51.5 18q38 0 57.5 -23.5t25.5 -65.5zM260 746l20 -112v-31h-51l-67 72q-27 29 -40.5 51t-13.5 47q0 26 17.5 44t51.5 18q38 0 57.5 -23.5t25.5 -65.5zM260 540v-379q0 -22 5.5 -37.5t18.5 -23 t34 -7.5q24 0 47 12.5t46.5 39t47.5 67.5l-2 -80q-23 -44 -55.5 -76t-72 -49t-83.5 -17q-51 0 -87 18.5t-55 55.5t-19 89v278q0 16 -12.5 22.5t-39.5 10.5l-12 2v74h239zM610 540v-434q0 -11 6 -17t18 -9t29 -6l7 -2v-72h-215l-14 124l-7 6v301q0 16 -16 23t-42 10l-18 3v73 h252z" glyph-name="udblgrave" horiz-adv-x="694" unicode="ȕ"/><glyph d="M432 941q-57 0 -97 -18.5t-61.5 -58t-22.5 -102.5h86q3 28 12 43t28 21t52 6t52 -6t28.5 -21t12.5 -43h91q-1 63 -22.5 102.5t-61.5 58t-97 18.5zM292 269q0 -53 10 -89.5t29.5 -59t47 -32.5t64.5 -10q33 0 61 10.5t48 33t30.5 59t10.5 88.5v346q0 5 -5.5 8.5t-15.5 6 t-21.5 4t-22.5 1.5h-10v75h232v-75h-10q-18 0 -32 -3.5t-22 -12t-8 -24.5v-326q0 -76 -21 -130.5t-59 -89t-88 -50.5t-109 -16q-66 0 -120 16.5t-93.5 50.5t-60 88.5t-20.5 130.5v330q0 22 -17.5 29t-44.5 7h-11v75h331v-75h-10q-10 0 -21 -0.5t-20.5 -2t-15.5 -3t-6 -4.5 v-356z" glyph-name="Uinvertedbreve" horiz-adv-x="784" unicode="Ȗ"/><glyph d="M342 792q-55 0 -94 -20t-59.5 -62t-20.5 -107h85q3 32 11 48t26 22.5t49 6.5t49 -6.5t27 -22.5t10 -48h90q1 65 -20 107t-59.5 62t-93.5 20zM260 540v-379q0 -22 5.5 -37.5t18.5 -23t34 -7.5q24 0 47 12.5t46.5 39t47.5 67.5l-2 -80q-23 -44 -55.5 -76t-72 -49t-83.5 -17 q-51 0 -87 18.5t-55 55.5t-19 89v278q0 16 -12.5 22.5t-39.5 10.5l-12 2v74h239zM610 540v-434q0 -11 6 -17t18 -9t29 -6l7 -2v-72h-215l-14 124l-7 6v301q0 16 -16 23t-42 10l-18 3v73h252z" glyph-name="uinvertedbreve" horiz-adv-x="694" unicode="ȗ"/><glyph d="M349 64q41 0 67.5 9.5t39.5 30.5t13 54q0 30 -14 49.5t-39 32.5t-60 23.5t-79 21.5q-43 12 -82.5 27.5t-70 40.5t-48.5 64t-18 97q0 71 31 118t86.5 71.5t129.5 24.5q64 0 107.5 -18.5t71 -58t41.5 -105.5l-38 34l19 135h77v-203h-90q-11 43 -35.5 73.5t-59 46 t-77.5 15.5q-38 0 -62 -10t-35 -29t-11 -47t12.5 -46t36 -29.5t56.5 -20t73 -18.5q46 -11 88.5 -26t76 -40t52.5 -64t19 -97q0 -77 -31.5 -130t-90.5 -80t-143 -27q-67 0 -120 18.5t-89 63.5t-51 123l39 -32l-19 -158h-81v232h97q16 -57 47 -94t73 -54.5t91 -17.5zM291 -355 l-62 64q36 13 65 27t46 32.5t18 45.5l15 -10q-11 -7 -25 -9.5t-29 -2.5q-39 0 -60 18.5t-21 49.5t22.5 51t68.5 20q50 0 75 -26t25 -75q0 -47 -17.5 -80.5t-48.5 -58t-72 -46.5z" glyph-name="Scommaaccent" horiz-adv-x="661" unicode="Ș"/><glyph d="M362 134q0 20 -10.5 33t-28.5 21t-41 13.5t-48 11.5q-34 8 -67 18.5t-60 28.5t-43 47t-16 73q0 59 29.5 96.5t83 56.5t125.5 19q58 0 100.5 -7t69 -16t36.5 -15v-122h-126v96q15 2 23 -2t11 -10.5t2.5 -14.5t-2.5 -16q-12 10 -29 16.5t-38 10t-47 3.5q-45 0 -66.5 -14.5 t-21.5 -43.5q0 -19 10 -31t28.5 -20t42.5 -14t51 -12q35 -8 69 -19t62 -29.5t45 -47.5t17 -72q0 -61 -28.5 -102t-86.5 -61.5t-145 -20.5q-56 0 -101 7.5t-76.5 18.5t-48.5 21v132h129v-128q-19 7 -29.5 16.5t-14 19.5t-1 16.5t9.5 6.5q13 -9 32.5 -16.5t45 -12t55.5 -4.5 q34 0 55.5 7t32 22.5t10.5 39.5zM236 -355l-62 64q36 13 65 27t46 32.5t18 45.5l15 -10q-11 -7 -25 -9.5t-29 -2.5q-39 0 -60 18.5t-21 49.5t22.5 51t68.5 20q50 0 75 -26t25 -75q0 -47 -17.5 -80.5t-48.5 -58t-72 -46.5z" glyph-name="scommaaccent" horiz-adv-x="556" unicode="ș"/><glyph d="M280 111v518h-30q-40 0 -64.5 -4.5t-35.5 -15t-12 -28.5l-11 -126h-90v255h672v-255h-91l-10 126q-1 18 -12.5 28.5t-35.5 15t-64 4.5h-30v-518q0 -22 18 -29t45 -7h17v-75h-347v75h17q27 0 45.5 7t18.5 29zM336 -355l-62 64q36 13 65 27t46 32.5t18 45.5l15 -10 q-11 -7 -25 -9.5t-29 -2.5q-39 0 -60 18.5t-21 49.5t22.5 51t68.5 20q50 0 75 -26t25 -75q0 -47 -17.5 -80.5t-48.5 -58t-72 -46.5z" glyph-name="Tcommaaccent" horiz-adv-x="746" unicode="Ț"/><glyph d="M12 460v75h8q25 0 43.5 4t29 16.5t10.5 36.5l104 -52h219v-80h-414zM271 171q0 -35 10 -55t29 -27.5t45 -7.5q24 0 43.5 3.5t26.5 5.5v-85q-10 -4 -29 -7.5t-42 -6t-49 -2.5q-60 0 -107 15t-74.5 53t-27.5 106v359l7 8v162h168v-521zM160 -355l-62 64q36 13 65 27 t46 32.5t18 45.5l15 -10q-11 -7 -25 -9.5t-29 -2.5q-39 0 -60 18.5t-21 49.5t22.5 51t68.5 20q50 0 75 -26t25 -75q0 -47 -17.5 -80.5t-48.5 -58t-72 -46.5z" glyph-name="tcommaaccent" horiz-adv-x="455" unicode="ț"/><glyph d="M411 -17q-82 0 -149.5 24.5t-116.5 72.5t-75.5 117.5t-26.5 157.5t26.5 157.5t75.5 117t116.5 73t149.5 25.5t149.5 -25.5t116.5 -73t75.5 -117t26.5 -157.5t-26.5 -157.5t-75.5 -117.5t-116.5 -72.5t-149.5 -24.5zM411 68q42 0 74.5 17t54.5 52.5t33.5 89.5t11.5 128 t-11.5 128t-33.5 89.5t-54.5 52.5t-74.5 17t-74.5 -17t-54.5 -52.5t-33.5 -89.5t-11.5 -128t11.5 -128t33.5 -89.5t54.5 -52.5t74.5 -17zM376 866q0 -42 -26.5 -63.5t-71.5 -21.5t-71 21.5t-26 63.5t26 63.5t71 21.5t71.5 -21.5t26.5 -63.5zM641 866q0 -42 -26 -63.5 t-72 -21.5q-44 0 -70.5 21.5t-26.5 63.5t26.5 63.5t70.5 21.5q46 0 72 -21.5t26 -63.5zM227 1104h368v-103h-368v103z" glyph-name="Odieresismacron" horiz-adv-x="822" unicode="Ȫ"/><glyph d="M632 269q0 -86 -35.5 -149t-102 -97.5t-159.5 -34.5q-94 0 -160.5 34.5t-102 97.5t-35.5 149q0 65 20 117t59 89t94 56.5t125 19.5t124.5 -19.5t93.5 -56.5t59 -89t20 -117zM218 269q0 -69 12 -113.5t38 -65t67 -20.5t66.5 20.5t37.5 65t12 113.5t-12 113t-37.5 64.5 t-66.5 20.5t-67 -20.5t-38 -64.5t-12 -113zM299 697q0 -41 -26.5 -63t-71.5 -22t-71 21.5t-26 63.5t26 64t71 22t71.5 -22t26.5 -64zM566 697q0 -41 -26 -63t-72 -22q-44 0 -70.5 21.5t-26.5 63.5t26.5 64t70.5 22q46 0 72 -22t26 -64zM151 950h368v-103h-368v103z" glyph-name="odieresismacron" horiz-adv-x="669" unicode="ȫ"/><glyph d="M411 -17q-82 0 -149.5 24.5t-116.5 72.5t-75.5 117.5t-26.5 157.5t26.5 157.5t75.5 117t116.5 73t149.5 25.5t149.5 -25.5t116.5 -73t75.5 -117t26.5 -157.5t-26.5 -157.5t-75.5 -117.5t-116.5 -72.5t-149.5 -24.5zM411 68q42 0 74.5 17t54.5 52.5t33.5 89.5t11.5 128 t-11.5 128t-33.5 89.5t-54.5 52.5t-74.5 17t-74.5 -17t-54.5 -52.5t-33.5 -89.5t-11.5 -128t11.5 -128t33.5 -89.5t54.5 -52.5t74.5 -17zM483 767q-27 0 -46.5 7.5t-34 18.5t-26.5 22t-22.5 18.5t-23.5 7.5q-14 0 -22.5 -8.5t-13 -25t-9.5 -42.5l-76 18q9 59 24 96t40.5 55 t66.5 18q25 0 43.5 -7t32.5 -18t26 -22t24 -18t26 -7q15 0 23 8.5t14 25.5t11 43l76 -19q-9 -60 -26 -98t-43 -55.5t-64 -17.5zM227 1109h368v-103h-368v103z" glyph-name="Otildemacron" horiz-adv-x="822" unicode="Ȭ"/><glyph d="M632 269q0 -86 -35.5 -149t-102 -97.5t-159.5 -34.5q-94 0 -160.5 34.5t-102 97.5t-35.5 149q0 65 20 117t59 89t94 56.5t125 19.5t124.5 -19.5t93.5 -56.5t59 -89t20 -117zM218 269q0 -69 12 -113.5t38 -65t67 -20.5t66.5 20.5t37.5 65t12 113.5t-12 113t-37.5 64.5 t-66.5 20.5t-67 -20.5t-38 -64.5t-12 -113zM403 601q-26 0 -45 9t-33 21.5t-25.5 25.5t-22 21.5t-23.5 8.5q-22 0 -29.5 -21.5t-14.5 -64.5l-74 17q9 62 23 101.5t39 59.5t65 20q24 0 41.5 -8.5t31.5 -21t26 -25t24 -21t26 -8.5t22 10t13 29t11 48l75 -18q-10 -63 -26 -103 t-41 -60t-63 -20zM149 967h368v-103h-368v103z" glyph-name="otildemacron" horiz-adv-x="669" unicode="ȭ"/><glyph d="M411 -17q-82 0 -149.5 24.5t-116.5 72.5t-75.5 117.5t-26.5 157.5t26.5 157.5t75.5 117t116.5 73t149.5 25.5t149.5 -25.5t116.5 -73t75.5 -117t26.5 -157.5t-26.5 -157.5t-75.5 -117.5t-116.5 -72.5t-149.5 -24.5zM411 68q42 0 74.5 17t54.5 52.5t33.5 89.5t11.5 128 t-11.5 128t-33.5 89.5t-54.5 52.5t-74.5 17t-74.5 -17t-54.5 -52.5t-33.5 -89.5t-11.5 -128t11.5 -128t33.5 -89.5t54.5 -52.5t74.5 -17zM411 772q-46 0 -73 21.5t-27 63.5t27 64t73 22q47 0 73.5 -22t26.5 -64t-26.5 -63.5t-73.5 -21.5zM227 1100h368v-103h-368v103z" glyph-name="Odotaccentmacron" horiz-adv-x="822" unicode="Ȱ"/><glyph d="M632 269q0 -86 -35.5 -149t-102 -97.5t-159.5 -34.5q-94 0 -160.5 34.5t-102 97.5t-35.5 149q0 65 20 117t59 89t94 56.5t125 19.5t124.5 -19.5t93.5 -56.5t59 -89t20 -117zM218 269q0 -69 12 -113.5t38 -65t67 -20.5t66.5 20.5t37.5 65t12 113.5t-12 113t-37.5 64.5 t-66.5 20.5t-67 -20.5t-38 -64.5t-12 -113zM334 615q-46 0 -73 21.5t-27 63.5t27 64t73 22q47 0 73.5 -22t26.5 -64t-26.5 -63.5t-73.5 -21.5zM151 948h368v-103h-368v103z" glyph-name="odotaccentmacron" horiz-adv-x="669" unicode="ȱ"/><glyph d="M268 308l13 -45l-193 333q-9 15 -18 24t-20 12t-25 3h-7v75h322v-75h-14q-17 0 -30.5 -1.5t-22 -3.5t-8.5 -6l167 -301l-47 -10l164 301q0 7 -8.5 11.5t-22.5 7t-31 2.5h-11v75h222v-75h-7q-14 0 -25.5 -4.5t-21.5 -15t-20 -30.5l-184 -326l14 49v-197q0 -22 18 -29 t45 -7h17v-75h-346v75h17q27 0 45 7t18 29v197zM206 901h368v-103h-368v103z" glyph-name="Ymacron" horiz-adv-x="716" unicode="Ȳ"/><glyph d="M399 103l-46 -81l-57 -73l-211 478q-7 16 -15 25t-19.5 12t-28.5 3h-6v73h304v-71h-5q-16 0 -31 -0.5t-24 -2t-9 -5.5zM399 17q-30 -69 -58.5 -118t-58 -79.5t-65 -44.5t-81.5 -14q-33 0 -59.5 6.5t-38.5 14.5v121q4 -1 20 -6.5t40 -10.5t50 -5q28 0 50.5 7t42 24.5 t37 48.5t34.5 78l28 42l157 368q0 6 -9 10.5t-23 7t-31 2.5h-5v71h215v-73h-5q-16 0 -27.5 -4.5t-20.5 -15t-18 -29.5zM173 742h368v-103h-368v103z" glyph-name="ymacron" horiz-adv-x="660" unicode="ȳ"/><glyph d="M98 -47v478q0 10 -7.5 16.5t-21 10.5t-31.5 6l-12 2v74h247v-574q0 -59 -16.5 -99t-47 -64t-74 -35t-96.5 -11q-40 0 -70 5t-42 9v85q15 -4 37 -9.5t47 -5.5q27 0 46.5 10.5t30 35t10.5 66.5z" glyph-name="dotlessj" horiz-adv-x="350" unicode="ȷ"/><glyph d="M253 547v-424l-13 -5l-57 -128h-106v559q0 62 21 104.5t58.5 68t86.5 37t108 11.5q44 0 79 -4t49 -8v-99q-17 9 -46 17.5t-68 8.5q-24 0 -45 -5.5t-35.5 -20.5t-23 -42t-8.5 -70zM414 -11q-51 0 -88.5 16.5t-64.5 47.5t-48 76l4 85q26 -41 48 -69.5t46 -44t56 -15.5 q29 0 50 12t34.5 36.5t20 59.5t6.5 82q0 45 -5.5 78.5t-18 56t-32 33.5t-47.5 11q-31 0 -55.5 -14t-49 -44.5t-54.5 -79.5v73q27 53 56 89t66 54t87 18q75 0 127 -34.5t79 -96.5t27 -144t-29.5 -147t-84 -102t-130.5 -37z" glyph-name="bhook" horiz-adv-x="696" unicode="ɓ"/><glyph d="M619 551v-445q0 -16 13.5 -22t39.5 -10l7 -2v-72h-215l-14 122l-7 -9v439q0 60 15.5 101.5t45 67t71 37.5t92.5 12q30 0 53.5 -3t34.5 -6v-92q-10 5 -26 10.5t-35 5.5t-33 -5.5t-23.5 -20t-14 -41t-4.5 -67.5zM281 550q49 0 86 -17.5t65 -51.5t48 -82l-1 -72 q-27 43 -49 71t-45.5 42t-55.5 14q-29 0 -50 -12t-34.5 -36t-20 -59.5t-6.5 -82.5q0 -45 5.5 -78.5t18 -56t32 -33.5t47.5 -11q31 0 55.5 14t49 45t53.5 81l1 -74q-24 -51 -53 -87.5t-66.5 -55.5t-88.5 -19q-75 0 -127.5 34.5t-80 96.5t-27.5 144q0 83 29.5 147.5 t84.5 101.5t130 37z" glyph-name="dhook" horiz-adv-x="706" unicode="ɗ"/><glyph d="M409 272q0 53 -8.5 90t-25.5 60t-43.5 33t-62.5 10q-37 0 -66 -12t-51 -32.5t-39 -45.5l-68 48q24 40 58 68.5t80.5 44t106.5 15.5q92 0 157.5 -32.5t100.5 -94t35 -152.5q0 -85 -35 -149t-98.5 -99.5t-147.5 -35.5q-67 0 -116 19.5t-81.5 58.5t-49 97t-17.5 136h448 l1 -72h-308l23 29q2 -74 12 -115.5t31 -57t55 -15.5q25 0 45.5 10t34.5 34t21.5 63.5t7.5 96.5z" glyph-name="schwa" horiz-adv-x="617" unicode="ə"/><glyph d="M235 740h-146q-7 -33 -9 -61t-3 -58.5t-4.5 -70t-13.5 -95.5h91q10 52 22 89.5t24 68t22 60.5t17 67z" glyph-name="primemod" horiz-adv-x="251" unicode="ʹ"/><glyph d="M235 740h-146q-7 -33 -9 -61t-3 -58.5t-4.5 -70t-13.5 -95.5h91q10 52 22 89.5t24 68t22 60.5t17 67zM432 740h-146q-7 -33 -9 -61t-3 -58.5t-4.5 -70t-13.5 -95.5h91q10 52 22 89.5t24 68t22 60.5t17 67z" glyph-name="doubleprimemod" horiz-adv-x="403" unicode="ʺ"/><glyph d="M188 758l80 -64q-31 -14 -56 -30t-44 -34.5t-29.5 -43t-10.5 -55.5l-24 15q11 8 23 10t25 2q41 0 64.5 -20t23.5 -56t-25 -59t-70 -23q-46 0 -74 26t-28 85q0 46 10.5 83t30 66.5t46.5 53.5t58 44z" glyph-name="commaturnedmod" horiz-adv-x="265" unicode="ʻ"/><glyph d="M107 393l-80 64q31 14 56.5 29.5t44 34.5t29 43t11.5 55l23 -14q-11 -8 -23 -10.5t-25 -2.5q-40 0 -64 20.5t-24 56.5t25 58.5t70 22.5q47 0 75 -26t28 -84q0 -46 -11 -83t-30.5 -66.5t-46 -53.5t-58.5 -44z" glyph-name="apostrophemod" horiz-adv-x="265" unicode="ʼ"/><glyph d="M251 831v-61q26 0 41.5 -14.5t15.5 -45.5q0 -30 -15 -44.5t-42 -14.5v-62q45 0 78 15t52 42.5t19 63.5q0 37 -19 64t-52 42t-78 15z" glyph-name="ringhalfright" horiz-adv-x="500" unicode="ʾ"/><glyph d="M251 651v-62q-44 0 -77.5 15t-52.5 42.5t-19 63.5q0 37 19 64t52.5 42t77.5 15v-61q-26 0 -41.5 -14.5t-15.5 -45.5q0 -30 15.5 -44.5t41.5 -14.5z" glyph-name="ringhalfleft" horiz-adv-x="500" unicode="ʿ"/><glyph d="M319 796h-125l-129 -169v-29h62l167 119l-85 -1l168 -118h70v29z" glyph-name="circumflex" horiz-adv-x="500" unicode="ˆ"/><glyph d="M181 604h125l129 170v29h-62l-167 -119l85 1l-168 118h-70v-29z" glyph-name="caron" horiz-adv-x="500" unicode="ˇ"/><glyph d="M200 506v244h99v-244h-99z" glyph-name="verticallinemod" horiz-adv-x="500" unicode="ˈ"/><glyph d="M66 741h368v-103h-368v103z" glyph-name="firsttonechinese" horiz-adv-x="500" unicode="ˉ"/><glyph d="M241 745q10 25 22.5 43.5t30 29t42.5 10.5q34 0 54 -19.5t20 -47.5q0 -19 -8.5 -35.5t-23.5 -31t-35 -26.5l-99 -67h-50v32z" glyph-name="secondtonechinese" horiz-adv-x="500" unicode="ˊ"/><glyph d="M319 745l46 -112v-32h-51l-98 66q-20 12 -35.5 26.5t-23.5 31.5t-8 35q0 28 20.5 48t53.5 20q25 0 43 -10t31 -29t22 -44z" glyph-name="fourthtonechinese" horiz-adv-x="500" unicode="ˋ"/><glyph d="M200 -292v244h99v-244h-99z" glyph-name="verticallinelowmod" horiz-adv-x="500" unicode="ˌ"/><glyph d="M252 603q55 0 94 20t59.5 62t19.5 106h-85q-2 -30 -10.5 -46.5t-26 -23t-48.5 -6.5t-49 6.5t-26.5 23t-11.5 46.5h-90q1 -64 21 -106t59 -62t94 -20z" glyph-name="breve" horiz-adv-x="500" unicode="˘"/><glyph d="M249 614q-46 0 -73 21.5t-27 63.5t27 64t73 22q47 0 73.5 -22t26.5 -64t-26.5 -63.5t-73.5 -21.5z" glyph-name="dotaccent" horiz-adv-x="500" unicode="˙"/><glyph d="M194 710q0 -30 15.5 -44.5t41.5 -14.5q27 0 42 14.5t15 44.5q0 31 -15.5 45.5t-41.5 14.5t-41.5 -14.5t-15.5 -45.5zM400 710q0 -36 -19 -63.5t-52 -42.5t-78 -15q-44 0 -77.5 15t-52.5 42.5t-19 63.5q0 37 19 64t52.5 42t77.5 15q45 0 78 -15t52 -42t19 -64z" glyph-name="ring" horiz-adv-x="500" unicode="˚"/><glyph d="M389 40l31 -31q-39 -23 -63.5 -41.5t-37.5 -34t-18.5 -29.5t-5.5 -29q0 -22 12.5 -33.5t33.5 -11.5q24 0 40.5 12.5t27.5 23.5l41 -45q-26 -31 -61.5 -49.5t-96.5 -18.5q-65 0 -104 24.5t-39 74.5q0 28 13.5 50.5t42 43t74.5 43t110 51.5z" glyph-name="ogonek" horiz-adv-x="600" unicode="˛"/><glyph d="M320 600q-26 0 -45 9t-33 21.5t-25.5 25.5t-22 21.5t-23.5 8.5q-22 0 -29.5 -21.5t-14.5 -64.5l-74 17q9 62 23 101.5t39 59.5t65 20q24 0 41.5 -8.5t31.5 -21t26 -25t24 -21t26 -8.5t22 10t13 29t11 48l75 -18q-10 -63 -26 -103t-41 -60t-63 -20z" glyph-name="tilde" horiz-adv-x="500" unicode="˜"/><glyph d="M100 746q5 41 25 64.5t58 23.5q34 0 51.5 -18t17.5 -44q0 -25 -14 -46.5t-40 -50.5l-67 -72h-51v30zM303 746q6 41 25.5 64.5t57.5 23.5q34 0 51.5 -18t17.5 -44q0 -25 -14 -46.5t-40 -50.5l-67 -72h-52v30z" glyph-name="hungarumlaut" horiz-adv-x="500" unicode="˝"/><glyph d="M-273 745l46 -112v-32h-49l-99 67q-20 12 -35.5 26.5t-23.5 31t-8 35.5q0 28 20 47.5t54 19.5q25 0 42.5 -10.5t30.5 -29t22 -43.5z" glyph-name="gravecomb" horiz-adv-x="150" unicode="̀"/><glyph d="M-396 745q10 25 22.5 43.5t30 29t42.5 10.5q34 0 54 -19.5t20 -47.5q0 -19 -8.5 -35.5t-23.5 -31t-35 -26.5l-99 -67h-50v32z" glyph-name="acutecomb" horiz-adv-x="150" unicode="́"/><glyph d="M-272 796h-125l-129 -169v-29h62l167 119l-85 -1l168 -118h70v29z" glyph-name="circumflexcomb" horiz-adv-x="150" unicode="̂"/><glyph d="M-266 600q-26 0 -45 9t-33 21.5t-25.5 25.5t-22 21.5t-23.5 8.5q-22 0 -29.5 -21.5t-14.5 -64.5l-74 17q9 62 23 101.5t39 59.5t65 20q24 0 41.5 -8.5t31.5 -21t26 -25t24 -21t26 -8.5t22 10t13 29t11 48l75 -18q-10 -63 -26 -103t-41 -60t-63 -20z" glyph-name="tildecomb" horiz-adv-x="150" unicode="̃"/><glyph d="M-519 741h368v-103h-368v103z" glyph-name="macroncomb" horiz-adv-x="150" unicode="̄"/><glyph d="M-334 603q55 0 94 20t59.5 62t19.5 106h-85q-2 -30 -10.5 -46.5t-26 -23t-48.5 -6.5t-49 6.5t-26.5 23t-11.5 46.5h-90q1 -64 21 -106t59 -62t94 -20z" glyph-name="brevecomb" horiz-adv-x="150" unicode="̆"/><glyph d="M-335 614q-46 0 -73 21.5t-27 63.5t27 64t73 22q47 0 73.5 -22t26.5 -64t-26.5 -63.5t-73.5 -21.5z" glyph-name="dotaccentcomb" horiz-adv-x="150" unicode="̇"/><glyph d="M-371 696q0 -41 -26.5 -63t-71.5 -22t-71 21.5t-26 63.5t26 64t71 22t71.5 -22t26.5 -64zM-104 696q0 -41 -26 -63t-72 -22q-44 0 -70.5 21.5t-26.5 63.5t26.5 64t70.5 22q46 0 72 -22t26 -64z" glyph-name="dieresiscomb" horiz-adv-x="150" unicode="̈"/><glyph d="M-489 747h110q2 16 8 26.5t17.5 15t29.5 4.5q26 0 37.5 -11t11.5 -33t-10 -34t-32.5 -17.5t-60.5 -7.5v-91h96v82l-53 -40q51 2 91 13.5t64 36t24 64.5q0 37 -20 61.5t-56.5 36.5t-87.5 12q-50 0 -87 -14.5t-58 -41t-24 -62.5z" glyph-name="hookabovecomb" horiz-adv-x="150" unicode="̉"/><glyph d="M-392 710q0 -30 15.5 -44.5t41.5 -14.5q27 0 42 14.5t15 44.5q0 31 -15.5 45.5t-41.5 14.5t-41.5 -14.5t-15.5 -45.5zM-186 710q0 -36 -19 -63.5t-52 -42.5t-78 -15q-44 0 -77.5 15t-52.5 42.5t-19 63.5q0 37 19 64t52.5 42t77.5 15q45 0 78 -15t52 -42t19 -64z" glyph-name="ringcomb" horiz-adv-x="150" unicode="̊"/><glyph d="M-502 746q5 41 25 64.5t58 23.5q34 0 51.5 -18t17.5 -44q0 -25 -14 -46.5t-40 -50.5l-67 -72h-51v30zM-299 746q6 41 25.5 64.5t57.5 23.5q34 0 51.5 -18t17.5 -44q0 -25 -14 -46.5t-40 -50.5l-67 -72h-52v30z" glyph-name="hungarumlautcomb" horiz-adv-x="150" unicode="̋"/><glyph d="M-397 604h125l129 170v29h-63l-167 -119l86 1l-168 118h-71v-29z" glyph-name="caroncomb" horiz-adv-x="150" unicode="̌"/><glyph d="M-167 745l20 -113v-30h-52l-66 72q-27 29 -40.5 50.5t-13.5 46.5q0 26 17.5 44t51.5 18q38 0 57.5 -23t25.5 -65zM-370 745l20 -113v-30h-52l-66 72q-27 29 -40.5 50.5t-13.5 46.5q0 26 17.5 44t51.5 18q38 0 57.5 -23t25.5 -65z" glyph-name="dblgravecomb" horiz-adv-x="150" unicode="̏"/><glyph d="M-336 794q-55 0 -94 -20t-59.5 -61.5t-20.5 -106.5h90q3 31 11 47.5t26.5 22.5t49.5 6t48.5 -6t26 -22.5t10.5 -47.5h85q1 65 -20 106.5t-59.5 61.5t-93.5 20z" glyph-name="breveinvertedcomb" horiz-adv-x="150" unicode="̑"/><glyph d="M-289 965l79 -64q-30 -14 -55.5 -30t-44 -34.5t-29 -43t-11.5 -55.5l-23 15q11 8 23 10t24 2q42 0 65.5 -20t23.5 -56t-25 -59t-70 -23q-47 0 -75 26t-28 85q0 46 11 83t30.5 66t46 53.5t58.5 44.5z" glyph-name="commaturnedabovecomb" horiz-adv-x="150" unicode="̒"/><glyph d="M-450 479l-38 66q54 0 88 8t53 27t27 51.5t10 80.5h129q-1 -69 -17 -115t-48 -72.5t-83 -36.5t-121 -9z" glyph-name="horncomb" horiz-adv-x="150" unicode="̛"/><glyph d="M-335 -240q-46 0 -73 21.5t-27 63.5t27 64t73 22q47 0 73.5 -22t26.5 -64t-26.5 -63.5t-73.5 -21.5z" glyph-name="dotbelowcomb" horiz-adv-x="150" unicode="̣"/><glyph d="M-371 -165q0 -41 -26.5 -63t-71.5 -22t-71 21.5t-26 63.5t26 64t71 22t71.5 -22t26.5 -64zM-104 -165q0 -41 -26 -63t-72 -22q-44 0 -70.5 21.5t-26.5 63.5t26.5 64t70.5 22q46 0 72 -22t26 -64z" glyph-name="dieresisbelowcomb" horiz-adv-x="150" unicode="̤"/><glyph d="M-372 -355l-62 64q36 13 65 27t46 32.5t18 45.5l15 -10q-11 -7 -25 -9.5t-29 -2.5q-39 0 -60 18.5t-21 49.5t22.5 51t68.5 20q50 0 75 -26t25 -75q0 -47 -17.5 -80.5t-48.5 -58t-72 -46.5z" glyph-name="commaaccentcomb" horiz-adv-x="150" unicode="̦"/><glyph d="M-276 5l-69 -84l-4 15q53 1 89 -9.5t55 -32.5t19 -55q0 -30 -12 -50.5t-32 -33.5t-47.5 -19t-58.5 -6q-53 0 -88 15.5t-58 39.5l44 52q10 -9 22.5 -19t28.5 -16.5t36 -6.5q25 0 37 11t12 32q0 22 -16 34t-62 12h-27l40 121h91z" glyph-name="cedillacomb" horiz-adv-x="150" unicode="̧"/><glyph d="M-250 40l31 -31q-39 -23 -63.5 -41.5t-37.5 -34t-18.5 -29.5t-5.5 -29q0 -22 12.5 -33.5t33.5 -11.5q24 0 40.5 12.5t27.5 23.5l41 -45q-26 -31 -61.5 -49.5t-96.5 -18.5q-65 0 -104 24.5t-39 74.5q0 28 13.5 50.5t42 43t74.5 43t110 51.5z" glyph-name="ogonekcomb" horiz-adv-x="150" unicode="̨"/><glyph d="M-340 -257q55 0 94 20t59.5 62t19.5 106h-85q-2 -30 -10.5 -46.5t-26 -23t-48.5 -6.5t-49 6.5t-26.5 23t-11.5 46.5h-90q1 -64 21 -106t59 -62t94 -20z" glyph-name="brevebelowcomb" horiz-adv-x="150" unicode="̮"/><glyph d="M-519 -105h368v-103h-368v103z" glyph-name="macronbelowcomb" horiz-adv-x="150" unicode="̱"/><glyph d="M40 0v124l270 586h151l270 -586v-124h-691zM571 79l-255 576l65 35l-274 -602l-30 44h581z" glyph-name="Delta" horiz-adv-x="771" unicode="Δ"/><glyph d="M439 728q-87 0 -153.5 -19.5t-110.5 -54.5t-66 -83t-22 -107q0 -45 14.5 -84.5t41 -75.5t61 -71.5t74.5 -71.5t81 -76l-1 33h-109q-39 0 -63 3.5t-36.5 13t-15.5 27.5l-10 63h-77v-225h345v146q-27 39 -50.5 73t-41.5 68.5t-28 76t-10 93.5q0 64 19.5 105t59 61t98.5 20 q60 0 99.5 -20t58.5 -61t19 -105q0 -52 -10 -93.5t-28 -76t-41.5 -68.5t-50.5 -73v-146h345v225h-77l-10 -63q-3 -18 -15 -27.5t-36.5 -13t-63.5 -3.5h-108l-2 -33q41 40 81 76t75 71.5t61 71.5t40.5 75.5t14.5 84.5q0 59 -22 107t-66 83t-110 54.5t-154 19.5z" glyph-name="Omega" horiz-adv-x="878" unicode="Ω"/><glyph d="M578 -10q-50 0 -83.5 16.5t-50.5 47.5t-20 76l-7 3v407h176v-412q0 -23 7.5 -32.5t26.5 -9.5q14 0 23 7t16.5 20t14.5 31l61 -35q-12 -32 -33 -59t-53 -43.5t-78 -16.5zM243 540v-368q0 -28 6 -45.5t19 -26t34 -8.5q24 0 46.5 12.5t45 37t44.5 59.5l13 -52 q-25 -50 -53.5 -86t-60.5 -55t-69 -19q-31 0 -56 10t-44 30.5t-33 52.5t-22 77l10 23q4 -52 13.5 -95t23 -78.5t28.5 -67.5t27.5 -62t20 -61.5t7.5 -67.5h-175v790h175z" glyph-name="mu" horiz-adv-x="754" unicode="μ"/><glyph d="M363 0h-152q0 45 2.5 78.5t7.5 62t10.5 57.5t11 64t10 83t6.5 114h104v-459zM754 397h-506q-40 0 -65 -14t-40 -41t-25 -66l-88 32q10 46 27.5 84t45 66t68 43.5t95.5 15.5h488v-120zM615 137q0 -27 10 -37t28 -10q15 0 25.5 8.5t19 24t16.5 36.5l66 -29q-13 -44 -34 -75 t-53.5 -48t-78.5 -17q-45 0 -79 14t-52.5 43.5t-18.5 75.5q0 22 3.5 43t9 46t11.5 58t12 79t9 110h106v-322z" glyph-name="pi" horiz-adv-x="812" unicode="π"/><glyph d="M637 226v-226h-599v75h11q27 0 44.5 7t17.5 29v488q0 22 -17.5 29t-44.5 7h-11v75h576v-201h-87l-9 77q-2 18 -14.5 27.5t-35 13t-55.5 3.5h-117v-550h122q30 0 51.5 2t35 7t20.5 13.5t9 21.5l13 102h90zM274 400q42 3 83.5 5.5t83 5.5t82.5 5v-103q-41 3 -82.5 5.5 l-83 5t-83.5 5.5v71zM383 899q-14 20 -28.5 35.5t-31.5 24t-40 8.5q-33 0 -53 -19.5t-20 -47.5q0 -22 10 -38.5t31 -29t51 -22.5l100 -38h50v32z" glyph-name="Iegravecyr" horiz-adv-x="686" unicode="Ѐ"/><glyph d="M637 226v-226h-599v75h11q27 0 44.5 7t17.5 29v488q0 22 -17.5 29t-44.5 7h-11v75h576v-201h-87l-9 77q-2 18 -14.5 27.5t-35 13t-55.5 3.5h-117v-550h122q30 0 51.5 2t35 7t20.5 13.5t9 21.5l13 102h90zM274 400q42 3 83.5 5.5t83 5.5t82.5 5v-103q-41 3 -82.5 5.5 l-83 5t-83.5 5.5v71zM303 866q0 -42 -26.5 -63.5t-71.5 -21.5t-71 21.5t-26 63.5t26 63.5t71 21.5t71.5 -21.5t26.5 -63.5zM568 866q0 -42 -26 -63.5t-72 -21.5q-44 0 -70.5 21.5t-26.5 63.5t26.5 63.5t70.5 21.5q46 0 72 -21.5t26 -63.5z" glyph-name="Iocyr" horiz-adv-x="686" unicode="Ё"/><glyph d="M879 198q0 -57 -19 -98.5t-55.5 -68.5t-90 -40t-121.5 -13v80q32 0 55 14.5t35.5 45.5t12.5 80q0 64 -33.5 99t-96.5 35q-39 0 -72 -7t-68 -25v76q37 17 88 27.5t113 10.5q80 0 136.5 -24.5t86 -72.5t29.5 -119zM188 0v75h17q27 0 45.5 7t18.5 29v518h-19q-40 0 -64.5 -4 t-35.5 -15t-12 -29l-11 -126h-90v255h681v-225h-91l-10 96q-2 18 -13 29t-35 15t-64 4h-50v-544q0 -3 8.5 -5.5t21 -3.5t25.5 -1h11v-75h-333z" glyph-name="Djecyr" horiz-adv-x="912" unicode="Ђ"/><glyph d="M296 629v-518q0 -15 10 -23t25.5 -10.5t32.5 -2.5h24v-75h-350v75h11q27 0 44.5 7t17.5 29v488q0 22 -17.5 29t-44.5 7h-11v75h571v-255h-91l-10 126q-1 18 -12.5 29t-33 15t-55.5 4h-111zM363 899l-69 -95v-32h51l100 38q30 10 50.5 22.5t31 29t10.5 38.5q0 28 -20 47.5 t-53 19.5q-23 0 -40.5 -8.5t-31.5 -24t-29 -35.5z" glyph-name="Gjecyr" horiz-adv-x="646" unicode="Ѓ"/><glyph d="M214 400q24 1 48 2.5l48 3t48 2.5t48 2.5t48 2.5t48 3v-103q-24 1 -48 2.5l-48 3t-48 2.5l-48 2t-48 2.5t-48 3.5v71zM412 642q-43 0 -76 -18t-55 -53.5t-33 -89.5t-11 -126q0 -74 11.5 -128t34.5 -89t58 -52.5t82 -17.5q58 0 97.5 24t64.5 66.5t39 98.5l76 -33 q-19 -74 -57 -128.5t-97.5 -83.5t-144.5 -29q-80 0 -145.5 24.5t-113.5 72.5t-73.5 117t-25.5 158q0 90 26.5 159.5t74 116.5t110.5 72t135 25q73 0 121.5 -27t77.5 -76t42 -116l-43 30l19 176h83v-242h-98q-14 51 -38 89t-58.5 59t-82.5 21z" glyph-name="Eukrcyr" horiz-adv-x="740" unicode="Є"/></font>
</defs>
</svg>
