<svg xmlns="http://www.w3.org/2000/svg" xmlns:xlink="http://www.w3.org/1999/xlink" version="1.1"><metadata>Created by FontForge 20170731 at Mon Feb 27 14:34:17 2023 By Aleksey,,, Copyright 2020 The Roboto Serif Project Authors (https://github.com/googlefonts/RobotoSerif)</metadata><defs><font id="RobotoSerif-Italic" horiz-adv-x="560"><font-face x-height="537" ascent="800" bbox="-504 -325 1282 1191" cap-height="710" descent="-200" font-family="Roboto Serif" font-stretch="normal" font-style="italic" font-weight="400" panose-1="0 0 0 0 0 0 0 0 0 0" slope="-10" underline-position="-300" underline-thickness="100" unicode-range="U+000D-FB04" units-per-em="1000"/><glyph d="M396 537l-12 -58h361l12 58h-361zM712 710q36 0 63 -7.5t43 -14.5l13 65q-9 5 -25.5 9t-39 6.5t-51.5 2.5q-57 0 -100 -17.5t-69.5 -55.5t-36.5 -100l-127 -806h72l146 803q8 44 22 68.5t36 35.5t54 11zM265 581q9 45 20.5 69.5t29.5 34.5t45 10q24 0 43 -4.5t32 -8.5 l12 63q-10 4 -33.5 8t-51.5 4q-38 0 -69 -9.5t-55.5 -30t-40.5 -53.5t-23 -81l-126 -806h72zM64 537l-12 -58h389l12 58h-389z" glyph-name="f_f" horiz-adv-x="742" unicode="ff"/><glyph d="M360 695q-27 0 -45 -10t-29.5 -34.5t-20.5 -69.5l-145 -804h-72l126 806q7 48 23 81t40.5 53.5t55.5 30t69 9.5q28 0 51.5 -4t33.5 -8l-12 -63q-13 4 -32 8.5t-43 4.5zM64 537h389l-12 -58h-389zM382 -208l129 816q6 44 21 75t37.5 50.5t52.5 28.5t68 9q25 0 45.5 -3 t28.5 -6l-13 -61q-8 2 -24 5.5t-37 3.5q-26 0 -43 -10t-27.5 -32.5t-17.5 -62.5l-148 -813h-72zM839 -3q-26 0 -46.5 7.5t-31.5 23t-11 37.5q0 14 2.5 30t8.5 43t17 73l47 224q3 12 -8 22t-32.5 16t-50.5 6h-350l12 58h538l-70 -332q-8 -40 -14 -65.5t-8 -40t-2 -21.5 q0 -10 5.5 -15t18.5 -5q16 0 32 2.5t31 5t26 3.5l-10 -58q-15 -3 -31.5 -6.5t-34.5 -5.5t-38 -2zM901 650q-28 0 -46.5 16t-18.5 48q0 31 18.5 47t46.5 16t46.5 -16t18.5 -47q0 -32 -18.5 -48t-46.5 -16z" glyph-name="f_f_i" horiz-adv-x="1008" unicode="ffi"/><glyph d="M265 581q9 45 20.5 69.5t29.5 34.5t45 10q24 0 43 -4.5t32 -8.5l12 63q-10 4 -33.5 8t-51.5 4q-38 0 -69 -9.5t-55.5 -30t-40.5 -53.5t-23 -81l-126 -806h72zM64 537l-12 -58h389l12 58h-389zM396 537l-12 -58h351l12 58h-351zM726 710q40 0 70.5 -7.5t54 -19.5t41.5 -27 l21 58q-13 9 -31 19t-41 18.5t-51.5 14t-61.5 5.5q-61 0 -107 -17.5t-74 -55.5t-38 -100l-127 -806h72l146 803q8 44 22 69t39 35.5t65 10.5zM882 706l-109 -522q-8 -35 -13 -57t-7.5 -35.5t-2.5 -24.5q0 -23 11 -38.5t30.5 -23.5t46.5 -8q20 0 38 2t34.5 5.5t31.5 6.5 l10 58q-13 -2 -28 -4.5t-30.5 -4.5t-31.5 -2q-12 0 -17.5 4.5t-5.5 14.5q0 5 2 16t6.5 31t12.5 52l120 582h-191z" glyph-name="f_f_l" horiz-adv-x="1017" unicode="ffl"/><glyph d="M64 537h351l-12 -58h-351zM120 -223h-72l129 821q7 47 25 79.5t46 53.5t65 30.5t83 9.5q33 0 61.5 -5.5t51.5 -14t41 -18.5t31 -19l-21 -58q-18 15 -41.5 27t-54 19.5t-70.5 7.5t-64.5 -10.5t-39 -35.5t-22.5 -69zM645 50q38 0 70 18t57 48.5t42.5 69.5t26.5 82.5t9 85.5 q0 43 -9 72t-29 44.5t-57 15.5q-40 0 -74 -20t-67.5 -58.5t-71.5 -96.5l-19 29q36 63 74.5 109t82 72t94.5 26q59 0 96 -24t55.5 -68t18.5 -104q0 -51 -13 -103t-38.5 -98.5t-62.5 -83t-84 -57.5t-104 -21q-53 0 -95.5 13.5t-74.5 35t-53 44.5l131 625l-98 52h197l-144 -688 q-7 9 -11 18t-5.5 18t-1 19t2.5 21q9 -24 29 -46.5t51 -36t75 -13.5z" glyph-name="f_b" horiz-adv-x="989" unicode="fb"/><glyph d="M360 695q-27 0 -45 -10t-29.5 -34.5t-20.5 -69.5l-145 -804h-72l126 806q7 48 23 81t40.5 53.5t55.5 30t69 9.5q28 0 51.5 -4t33.5 -8l-12 -63q-13 4 -32 8.5t-43 4.5zM64 537h389l-12 -58h-389zM396 537h351l-12 -58h-351zM726 710q-40 0 -65 -10.5t-39 -35.5t-22 -69 l-146 -803h-72l127 806q10 62 38 100t74 55.5t107 17.5q33 0 61.5 -5.5t51.5 -14t41 -18.5t31 -19l-21 -58q-18 15 -41.5 27t-54 19.5t-70.5 7.5zM837 70q-7 9 -11.5 18t-6.5 18t-1 19t4 21q9 -24 29 -46.5t51 -36t75 -13.5q38 0 70 18t57 48.5t42.5 69.5t26.5 82.5t9 85.5 q0 43 -9 72t-29 44.5t-57 15.5q-40 0 -74 -20t-67.5 -58.5t-71.5 -96.5l-19 29q36 63 74.5 109t82 72t94.5 26q59 0 96 -24t55.5 -68t18.5 -104q0 -51 -13 -103t-38.5 -98.5t-62.5 -83t-84 -57.5t-104 -21q-53 0 -95.5 13.5t-74.5 35t-53 44.5l131 625l-98 52h197z" glyph-name="f_f_b" horiz-adv-x="1321" unicode="ffb"/><glyph d="M733 0l149 706l-98 52h197l-160 -758h-88zM120 -223h-72l126 806q7 48 23 81t40.5 53.5t55.5 30t69 9.5q28 0 51.5 -4t33.5 -8l-12 -63q-13 4 -32 8.5t-43 4.5q-27 0 -45 -10t-29.5 -34.5t-20.5 -69.5zM64 537h389l-12 -58h-389zM396 537h351l-12 -58h-351zM454 -208h-72 l127 806q10 62 38 100t74 55.5t107 17.5q33 0 61.5 -5.5t51.5 -14t41 -18.5t31 -19l-21 -58q-18 15 -41.5 27t-54 19.5t-70.5 7.5t-65 -10.5t-39 -35.5t-22 -69zM1160 -3q-26 0 -46 7.5t-31 23t-11 37.5q0 14 2.5 30t9 43t17.5 73l35 147q6 26 9 43.5t3 30.5 q0 23 -13.5 35.5t-44.5 12.5q-34 0 -68.5 -19t-70.5 -56t-77 -91l-15 30q40 61 80.5 106.5t86 71t99.5 25.5q36 0 61.5 -11.5t39 -32t13.5 -50.5q0 -17 -4 -42.5t-10 -52.5l-35 -153q-10 -40 -16.5 -65.5t-9 -40t-2.5 -21.5q0 -10 5.5 -15t18.5 -5q16 0 32 2.5t31 5t26 3.5 l-11 -58q-14 -3 -31 -6.5t-35 -5.5t-38 -2z" glyph-name="f_f_h" horiz-adv-x="1326" unicode="ffh"/><glyph d="M360 695q-27 0 -45 -10t-29.5 -34.5t-20.5 -69.5l-145 -804h-72l126 806q7 48 23 81t40.5 53.5t55.5 30t69 9.5q28 0 51.5 -4t33.5 -8l-12 -63q-13 4 -32 8.5t-43 4.5zM64 537h389l-12 -58h-389zM690 710q-26 0 -43 -10t-27.5 -32.5t-17.5 -62.5l-148 -813h-72l129 816 q6 44 21 75t37.5 50.5t52.5 28.5t68 9q25 0 45.5 -3t28.5 -6l-13 -61q-8 2 -24 5.5t-37 3.5zM901 650q-29 0 -47 16t-18 48q0 31 18 47t47 16q28 0 46.5 -16t18.5 -47q0 -32 -18.5 -48t-46.5 -16zM825 436q2 12 -9 22t-32 15.5t-50 5.5h-350l12 58h537l-117 -596 q-9 -47 -24 -81.5t-36.5 -57.5t-51.5 -34t-69 -11q-16 0 -31.5 2.5t-28 6t-21.5 6.5l13 62q11 -4 28 -9t38 -5q29 0 46.5 11t29 37t19.5 69z" glyph-name="f_f_j" horiz-adv-x="986" unicode="ffj"/><glyph d="M265 581q9 45 20.5 69.5t29.5 34.5t45 10q24 0 43 -4.5t32 -8.5l12 63q-10 4 -33.5 8t-51.5 4q-38 0 -69 -9.5t-55.5 -30t-40.5 -53.5t-23 -81l-126 -806h72zM64 537l-12 -58h389l12 58h-389zM396 537l-12 -58h351l12 58h-351zM382 -208h72l146 803q8 44 22 69t39 35.5 t65 10.5t70.5 -7.5t54 -19.5t41.5 -27l21 58q-13 9 -31 19t-41 18.5t-51.5 14t-61.5 5.5q-61 0 -107 -17.5t-74 -55.5t-38 -100zM1093 120l-92 206l-41 -62q51 44 102.5 87.5t103 86.5t103.5 86v13h-95q-41 -40 -82.5 -79.5l-83 -79t-83.5 -79.5l-1 -5l85 -198 q14 -34 29 -56t35.5 -32.5t50.5 -10.5q16 0 31 2.5t29.5 6.5t26.5 8l10 57q-8 -1 -19.5 -3t-23.5 -3.5t-25 -1.5q-10 0 -19 4t-16 11t-13 18t-12 24zM733 0h89l159 758h-192l92 -52z" glyph-name="f_f_k" horiz-adv-x="1269" unicode="ffk"/><glyph d="M64 537l-12 -58h351l12 58h-351zM394 710q40 0 70.5 -7.5t54 -19.5t41.5 -27l21 58q-13 9 -31 19t-41 18.5t-51.5 14t-61.5 5.5q-46 0 -83 -9.5t-65 -30.5t-46 -53.5t-25 -79.5l-129 -821h72l148 818q8 44 22.5 69t39 35.5t64.5 10.5zM858 205l35 153q6 27 10 52.5 t4 42.5q0 30 -13.5 50.5t-39 32t-61.5 11.5q-54 0 -99.5 -25.5t-86 -71t-80.5 -106.5l15 -30q41 54 77 91t70.5 56t68.5 19q31 0 44.5 -12.5t13.5 -35.5q0 -13 -3 -30.5t-9 -43.5l-35 -147q-11 -46 -17.5 -73t-9 -43t-2.5 -30q0 -22 11 -37.5t31 -23t46 -7.5q20 0 38 2 t35 5.5t31 6.5l11 58q-11 -1 -26 -3.5t-31 -5t-32 -2.5q-13 0 -18.5 5t-5.5 15q0 7 2.5 21.5t9 40t16.5 65.5zM452 758l98 -52l-149 -706h88l160 758h-197z" glyph-name="f_h" horiz-adv-x="994" unicode="fh"/><glyph d="M120 -223h-72l131 831q6 44 21 75t37.5 50.5t52.5 28.5t68 9q25 0 45.5 -3t28.5 -6l-13 -61q-8 2 -24 5.5t-37 3.5q-26 0 -43 -10t-27.5 -32.5t-17.5 -62.5zM507 -3q-26 0 -46.5 7.5t-31.5 23t-11 37.5q0 14 2.5 30t8.5 43t17 73l47 224q3 12 -8 22t-32.5 16t-50.5 6 h-350l12 58h538l-70 -332q-8 -40 -14 -65.5t-8 -40t-2 -21.5q0 -10 5.5 -15t18.5 -5q16 0 32 2.5t31 5t26 3.5l-10 -58q-15 -3 -31.5 -6.5t-34.5 -5.5t-38 -2zM569 650q-28 0 -46.5 16t-18.5 48q0 31 18.5 47t46.5 16t46.5 -16t18.5 -47q0 -32 -18.5 -48t-46.5 -16z" glyph-name="f_i" horiz-adv-x="676" unicode="fi"/><glyph d="M358 710q-26 0 -43 -10t-27.5 -32.5t-17.5 -62.5l-150 -828h-72l131 831q6 44 21 75t37.5 50.5t52.5 28.5t68 9q25 0 45.5 -3t28.5 -6l-13 -61q-8 2 -24 5.5t-37 3.5zM569 650q-29 0 -47 16t-18 48q0 31 18 47t47 16q28 0 46.5 -16t18.5 -47q0 -32 -18.5 -48t-46.5 -16z M493 436q2 12 -9 22t-32 15.5t-50 5.5h-350l12 58h537l-117 -596q-12 -63 -34.5 -103.5t-58.5 -60.5t-88 -20q-16 0 -31.5 2.5t-28 6t-21.5 6.5l13 62q11 -4 28 -9t38 -5q29 0 46.5 11t29 37t19.5 69z" glyph-name="f_j" horiz-adv-x="654" unicode="fj"/><glyph d="M64 537l-12 -58h351l12 58h-351zM394 710q40 0 70.5 -7.5t54 -19.5t41.5 -27l21 58q-13 9 -31 19t-41 18.5t-51.5 14t-61.5 5.5q-46 0 -83 -9.5t-65 -30.5t-46 -53.5t-25 -79.5l-129 -821h72l148 818q8 44 22.5 69t39 35.5t64.5 10.5zM761 120l-92 206l-41 -62 q51 44 102.5 87.5t103 86.5t103.5 86v13h-95q-41 -40 -82.5 -79.5l-83 -79t-83.5 -79.5l-1 -5l85 -198q14 -34 29 -56t35.5 -32.5t50.5 -10.5q16 0 31 2.5t29.5 6.5t26.5 8l10 57q-8 -1 -19.5 -3t-23.5 -3.5t-25 -1.5q-10 0 -19 4t-16 11t-13 18t-12 24zM401 0h89l159 758 h-192l92 -52z" glyph-name="f_k" horiz-adv-x="937" unicode="fk"/><glyph d="M64 537l-12 -58h351l12 58h-351zM394 710q40 0 70.5 -7.5t54 -19.5t41.5 -27l21 58q-13 9 -31 19t-41 18.5t-51.5 14t-61.5 5.5q-46 0 -83 -9.5t-65 -30.5t-46 -53.5t-25 -79.5l-129 -821h72l148 818q8 44 22.5 69t39 35.5t64.5 10.5zM550 706l-109 -522q-8 -35 -13 -57 t-7.5 -35.5t-2.5 -24.5q0 -23 11 -38.5t30.5 -23.5t46.5 -8q20 0 38 2t34.5 5.5t31.5 6.5l10 58q-13 -2 -28 -4.5t-30.5 -4.5t-31.5 -2q-12 0 -17.5 4.5t-5.5 14.5q0 5 2 16t6.5 31t12.5 52l120 582h-191z" glyph-name="f_l" horiz-adv-x="685" unicode="fl"/><glyph d="M0 0v700h400v-700h-400zM50 650v-600h300v600h-300z" glyph-name=".notdef" horiz-adv-x="400"/><glyph glyph-name=".null" horiz-adv-x="400"/><glyph glyph-name="nonmarkingreturn" horiz-adv-x="260"/><glyph glyph-name="space" horiz-adv-x="260"/><glyph d="M308 745h-114q-12 -54 -19 -101t-12.5 -91.5t-12 -91.5t-15 -102t-23.5 -123h62q15 68 29.5 121.5t28.5 100t27 90.5t25.5 92t23.5 105zM197 64q0 -32 -22 -52t-56 -20t-55.5 20t-21.5 52t21.5 52t55.5 20t56 -20t22 -52z" glyph-name="exclam" horiz-adv-x="316" unicode="!"/><glyph d="M233 740h-102q-7 -33 -10 -60t-4.5 -56.5t-6.5 -65.5t-16 -87h58q11 50 22 86.5t22 65.5t20.5 56.5t16.5 60.5zM406 740h-102q-7 -33 -10 -60t-4.5 -56.5t-6.5 -65.5t-16 -87h58q11 50 22 86.5t22 65.5t20.5 56.5t16.5 60.5z" glyph-name="quotedbl" horiz-adv-x="425" unicode="&quot;"/><glyph d="M114 0l225 765h63l-225 -765h-63zM51 235l5 70h560l-4 -70h-561zM125 480l5 70h561l-6 -70h-560zM328 0l223 765h65l-225 -765h-63z" glyph-name="numbersign" horiz-adv-x="705" unicode="#"/><glyph d="M255 5q-64 0 -118 14t-91 35.5t-54 41.5l27 122h88l-28 -131q-11 1 -18.5 8.5t-12.5 17.5t-6 20t2 17q14 -25 45 -45.5t74 -32.5t93 -12q38 0 68.5 8.5t52 25.5t33 43t11.5 61q0 31 -13.5 52t-36 36.5t-50.5 28.5t-58 27q-44 20 -80.5 42t-58 54.5t-21.5 83.5q0 40 15 73 t44.5 57t73.5 37t102 13q60 0 106 -11t76.5 -26t42.5 -29l-29 -129h-86l28 124q9 -3 16.5 -8.5t12.5 -12.5t6.5 -14.5t-0.5 -14.5q-13 18 -36.5 33t-58 24t-80.5 9q-38 0 -67 -7.5t-49 -21.5t-30.5 -35.5t-10.5 -50.5q0 -38 20 -62t54 -40.5t74 -35.5q33 -15 64 -31 t56 -37.5t40 -50.5t15 -69q0 -47 -18 -84t-50.5 -63.5t-77.5 -40t-101 -13.5zM147 -135l35 165l9 11l134 630l-4 9l27 125h72l-27 -124l-8 -10l-135 -633l3 -13l-34 -160h-72z" glyph-name="dollar" unicode="$"/><glyph d="M297 607q0 27 -6.5 45t-19.5 26.5t-33 8.5q-21 0 -37 -11.5t-27.5 -31t-19.5 -43.5t-11.5 -50t-3.5 -50q0 -27 6 -45t19 -26.5t33 -8.5q21 0 37.5 11.5t28 31t19 43.5t11.5 50t4 50zM61 516q0 36 10.5 74.5t32.5 71.5t55.5 53t80.5 20q41 0 71 -17.5t46.5 -49.5t16.5 -76 q0 -36 -10.5 -74.5t-32.5 -71.5t-56 -53t-80 -20q-41 0 -71 17.5t-46.5 50t-16.5 75.5zM653 221q0 28 -6.5 45.5t-19.5 26t-33 8.5q-21 0 -37.5 -11.5t-28 -31t-19 -43.5t-11 -49.5t-3.5 -49.5q0 -28 6 -45.5t19 -26t33 -8.5t36.5 11.5t28.5 31t19.5 43.5t11.5 49.5t4 49.5z M417 130q0 36 10.5 74.5t32.5 71.5t55.5 53.5t80.5 20.5q41 0 71 -18t46.5 -50t16.5 -75q0 -36 -10.5 -74.5t-32.5 -71.5t-56 -53.5t-80 -20.5q-41 0 -71 18t-46.5 50t-16.5 75zM694 710h70l-681 -710h-70z" glyph-name="percent" horiz-adv-x="779" unicode="%"/><glyph d="M652 0h-141q-52 71 -95 131t-77 112.5t-58 99t-36 90t-12 86.5q0 59 22.5 104t66 70t106.5 25q49 0 84.5 -16t55 -45t19.5 -70q0 -55 -31.5 -94t-89 -63.5t-133.5 -38.5l-16 47q72 15 112.5 33t57.5 44.5t17 67.5q0 27 -8 44.5t-25 26.5t-44 9q-36 0 -59.5 -16t-35.5 -48 t-12 -80q0 -31 8 -63t24.5 -67t42 -76.5t61.5 -91.5t84 -113q15 -19 28 -29.5t29 -14.5t39 -4h28zM273 48q53 0 100 21.5t85.5 55.5t67 73.5t45.5 76.5t20 63q0 3 -11.5 5t-26.5 3.5t-27 1.5h-6l12 53h218l-11 -53h-6q-34 0 -54 -9t-33 -39q-12 -28 -35.5 -68t-57.5 -81.5 t-77.5 -78.5t-96.5 -59.5t-114 -22.5q-76 0 -128.5 25.5t-80 71t-27.5 104.5q0 52 19.5 93t54 71t81 49.5t101.5 28.5l15 -47q-53 -10 -92 -36t-60 -66t-21 -95q0 -46 16.5 -77.5t49 -47.5t80.5 -16z" glyph-name="ampersand" horiz-adv-x="763" unicode="&amp;"/><glyph d="M233 740h-102q-7 -33 -10 -60t-4.5 -56.5t-6.5 -65.5t-16 -87h58q11 50 22 86.5t22 65.5t20.5 56.5t16.5 60.5z" glyph-name="quotesingle" horiz-adv-x="252" unicode="'"/><glyph d="M155 227q0 95 26 174.5t69.5 144.5t98 115.5t111.5 85.5l1 3h-75q-58 -26 -114.5 -74.5t-103.5 -115t-75 -150t-28 -180.5q0 -80 21.5 -148.5t57 -122t75.5 -89.5h71l1 3q-33 35 -64 85.5t-51.5 117.5t-20.5 151z" glyph-name="parenleft" horiz-adv-x="395" unicode="("/><glyph d="M232 393q0 -94 -26 -173.5t-69.5 -144.5t-97.5 -115.5t-112 -86.5l-1 -3h75q58 27 115 75t103.5 115t74.5 150.5t28 180.5q0 80 -21.5 148t-56.5 122t-76 89h-71l-1 -3q33 -34 64 -84.5t51.5 -117.5t20.5 -152z" glyph-name="parenright" horiz-adv-x="387" unicode=")"/><glyph d="M88 631q18 -14 34.5 -23t34.5 -17t37 -18.5t42 -29.5l26 29q-23 18 -38 34t-27 31t-25 29t-32 28zM85 430q24 10 41.5 20.5t35 22t38.5 23.5t51 25l-12 34q-30 -13 -53.5 -19.5t-43.5 -11t-40 -9.5t-43 -15zM261 347q5 23 6 42.5t1.5 39t2.5 43t8 52.5l-38 4 q-6 -29 -14 -51.5t-16 -42t-15.5 -40.5t-13.5 -47h79zM270 745q-5 -23 -6.5 -43t-2 -39.5t-2 -42t-8.5 -53.5l38 -4q6 30 14 52t16.5 41.5t15.5 40.5t13 48h-78zM389 397l52 63q-17 14 -33.5 23t-34 17t-37 18.5t-42.5 29.5l-26 -29q23 -18 38.5 -34t27.5 -30.5t24.5 -28.5 t30.5 -29zM472 593l-26 70q-23 -10 -41 -21t-35.5 -22.5t-39 -24.5t-50.5 -26l12 -33q29 13 52.5 20t44 12t40.5 10.5t43 14.5z" glyph-name="asterisk" horiz-adv-x="461" unicode="*"/><glyph d="M293 565h74l-96 -448h-74zM507 375l-14 -67h-434l14 67h434z" glyph-name="plus" unicode="+"/><glyph d="M44 -172l-56 51q51 15 85.5 34t55 44t27.5 57q2 5 6 7.5t7 3t5 -0.5q-7 -14 -18.5 -19.5t-28.5 -5.5q-32 0 -51 18t-19 46q0 34 23 54t58 20q39 0 61 -23t22 -63q0 -31 -11 -63.5t-33.5 -61.5t-55.5 -54t-77 -44z" glyph-name="comma" horiz-adv-x="305" unicode=","/><glyph d="M90 333h305l-16 -75h-305z" glyph-name="hyphen" horiz-adv-x="468" unicode="-"/><glyph d="M200 64q0 -32 -22 -52t-57 -20q-33 0 -54.5 20t-21.5 52t21.5 52t54.5 20q35 0 57 -20t22 -52z" glyph-name="period" horiz-adv-x="281" unicode="."/><glyph d="M536 765h80l-610 -908h-80z" glyph-name="slash" horiz-adv-x="543" unicode="/"/><glyph d="M233 -11q-37 0 -68 10.5t-55.5 31t-41.5 49.5t-25.5 67t-8.5 83q0 57 12.5 116t37 113.5t60 98t82 68.5t103.5 25q37 0 68 -10t55.5 -30.5t41.5 -49.5t25.5 -67t8.5 -84q0 -56 -12.5 -115t-37 -113.5t-60 -98t-82 -69t-103.5 -25.5zM236 47q37 0 67 20t53 57t39.5 87 t27.5 110q5 24 8 45.5t4.5 40.5t1.5 35q0 50 -12 83.5t-36.5 50.5t-62.5 17q-37 0 -66.5 -20t-52.5 -56.5t-39.5 -86.5t-27.5 -110q-5 -25 -8 -46.5t-5 -40t-2 -35.5q0 -48 12 -82t36.5 -51.5t62.5 -17.5z" glyph-name="zero" unicode="0"/><glyph d="M311 88q-3 -14 9.5 -22t37.5 -11t60 -3h41l-12 -52h-407l11 52h55q33 0 57 3t38.5 11t17.5 22l103 480l18 12q-16 -33 -49 -55t-76.5 -33.5t-91.5 -10.5l14 66q39 1 73 6t62.5 16t52 28t42.5 41h62z" glyph-name="one" unicode="1"/><glyph d="M-12 0h456l42 202h-61l-29 -89q-6 -17 -20 -26t-40 -12t-67 -3h-238l1 -23q73 43 142.5 85t130 83t106.5 84t72 89.5t26 98.5q0 51 -22 87t-66.5 55.5t-112.5 19.5q-45 0 -82.5 -9.5t-65.5 -24t-47 -28.5l-31 -146h89l32 150q-8 0 -17 -5t-17 -14t-13.5 -20t-8.5 -21 q16 15 38.5 28.5t51.5 22t63 8.5q38 0 63.5 -11t38.5 -33t13 -56q0 -44 -18 -82t-52 -74t-83.5 -73t-113 -77.5t-139.5 -89.5z" glyph-name="two" unicode="2"/><glyph d="M237 -74q72 0 127.5 25.5t87 72.5t31.5 113q0 35 -12 64.5t-37.5 52t-67 36.5t-100.5 18l32 -15l3 23l-24 -13q56 0 99.5 13.5t75 38.5t48 59.5t16.5 75.5q0 50 -24 86t-69.5 55.5t-108.5 19.5q-43 0 -79.5 -9t-63.5 -22t-45 -24l-26 -141h88l24 130q-11 0 -20 -4 t-16 -10.5t-12 -15.5t-7 -19q15 14 36 26.5t49 21t63 8.5q41 0 67.5 -12.5t39 -36t12.5 -57.5q0 -32 -9.5 -59.5t-30.5 -48t-53.5 -32t-78.5 -11.5h-72l-13 -61h67q59 0 92.5 -16.5t48 -46t14.5 -68.5q0 -45 -16 -80.5t-49.5 -56t-84.5 -20.5q-61 0 -98.5 22t-58.5 57.5 t-32 75.5l-61 -26q13 -56 44 -98.5t81.5 -66.5t122.5 -24z" glyph-name="three" unicode="3"/><glyph d="M2 129l17 76l362 433h69l-26 -37l-372 -445l-5 40h481l-14 -67h-512zM357 -63h-88l145 680l7 21h84z" glyph-name="four" unicode="4"/><glyph d="M233 -74q-68 0 -115 23.5t-75.5 63t-41.5 87.5l60 33q7 -26 20 -52t32.5 -47.5t49.5 -34.5t72 -13q41 0 72.5 17t52 47t31 71t10.5 88q0 39 -13 67.5t-38 43.5t-63 15q-30 0 -57.5 -9.5t-50 -27t-40.5 -43.5h-56l82 383h365l-36 -77h-307l38 57l-70 -327l-25 -5 q21 37 47 61t59 36t72 12q57 0 99 -23t65 -65.5t23 -99.5t-17 -107.5t-50.5 -89.5t-82 -61.5t-112.5 -22.5z" glyph-name="five" unicode="5"/><glyph d="M258 -10q-50 0 -91 16t-69.5 46.5t-44 72.5t-15.5 94q0 76 20.5 148.5t61.5 136.5t102 115t142.5 82.5t183.5 38.5l-4 -62q-83 -6 -147.5 -31.5t-112 -66.5t-79 -92t-49.5 -107q-7 -23 -11.5 -45.5t-7.5 -44.5t-4.5 -43.5t-1.5 -40.5q0 -50 15.5 -85t44.5 -53.5t69 -18.5 t70 19.5t50 53.5t28 78q4 12 5.5 25t3 26.5t1.5 27.5q0 37 -11 64t-33 42t-56 15q-36 0 -69.5 -15.5t-65.5 -49.5t-66 -90l1 56q28 49 61 85t73 55t89 19q53 0 92 -22.5t60 -64t21 -99.5t-18 -110t-51.5 -91t-80.5 -61.5t-106 -22.5z" glyph-name="six" unicode="6"/><glyph d="M306 561h227l-9 14q-24 -20 -64.5 -60t-88.5 -97.5t-95.5 -130.5t-87.5 -161t-64 -187h97q23 101 50.5 178t60 138t70.5 111.5t81.5 97t93.5 97.5l16 77h-466l-45 -215h59l31 95q4 14 13.5 22t25.5 13t39.5 6.5t55.5 1.5z" glyph-name="seven" unicode="7"/><glyph d="M260 49q36 0 63 12.5t46.5 37.5t29.5 62q5 17 7 33.5t2 31.5q0 40 -16.5 67t-47 41.5t-74.5 14.5q-39 0 -69.5 -12.5t-51 -38.5t-30.5 -68q-3 -12 -4 -24.5t-1 -23.5q0 -42 17 -72t49.5 -45.5t79.5 -15.5zM325 403q32 0 56.5 11t41 34t23.5 60q3 10 4 23.5t1 24.5 q0 34 -13.5 58t-39.5 37t-63 13q-35 0 -61 -12t-42 -35.5t-24 -58.5q-2 -10 -3 -20t-1 -20q0 -38 15 -63.5t42.5 -38.5t63.5 -13zM257 -10q-54 0 -98 14t-76 40t-49.5 62t-17.5 81q0 60 28.5 103.5t80 68t120.5 27.5l-28 -9l4 16l24 -15q-38 11 -67 33.5t-45 53.5t-16 70 q0 52 26 94.5t75 68t118 25.5q63 0 108 -21t69.5 -59t24.5 -89q0 -42 -13.5 -75.5t-38 -56.5t-58.5 -37t-74 -18l24 9l-4 -14l-21 13q43 -11 77.5 -35t55 -59t20.5 -81q0 -57 -29 -104.5t-84.5 -76.5t-135.5 -29z" glyph-name="eight" unicode="8"/><glyph d="M304 651q-59 0 -106 -22t-80 -60t-50 -86.5t-17 -100.5q0 -55 21.5 -97t61 -65.5t91.5 -23.5q53 0 93 19t72 53.5t59 81.5l-4 51q-31 -52 -61.5 -84t-63 -46.5t-70.5 -14.5q-33 0 -56 15t-35 42t-12 66q0 11 1 21.5t2.5 21.5t2.5 20q6 33 19 60t32 47.5t43.5 31 t54.5 10.5q42 0 70.5 -17.5t43 -52.5t14.5 -88q0 -24 -1.5 -49t-5 -49.5t-9.5 -49.5q-12 -46 -32 -90t-51 -81.5t-75.5 -66t-103.5 -45.5t-134 -19l-4 -62q106 3 189 30.5t143 74.5t99.5 109t58.5 134.5t19 149.5q0 57 -14.5 100t-43 72.5t-69.5 44.5t-92 15z" glyph-name="nine" unicode="9"/><glyph d="M179 64q0 -32 -22 -52t-57 -20q-33 0 -54.5 20t-21.5 52t21.5 52t54.5 20q35 0 57 -20t22 -52zM263 449q0 -32 -22 -52t-57 -20q-33 0 -54.5 20t-21.5 52t21.5 52t54.5 20q35 0 57 -20t22 -52z" glyph-name="colon" horiz-adv-x="291" unicode=":"/><glyph d="M285 449q0 -32 -22 -52t-57 -20q-33 0 -54.5 20t-21.5 52t21.5 52t54.5 20q35 0 57 -20t22 -52zM33 -172l-56 51q51 15 85.5 34t55 44t27.5 57q2 5 6 7.5t7 3t5 -0.5q-7 -14 -18.5 -19.5t-28.5 -5.5q-32 0 -51 18t-19 46q0 34 23 54t58 20q39 0 61 -23t22 -63 q0 -31 -11 -63.5t-33.5 -61.5t-55.5 -54t-77 -44z" glyph-name="semicolon" horiz-adv-x="325" unicode=";"/><glyph d="M430 124l16 75l-333 163l-10 -51l403 165l17 80l-429 -179l-16 -74z" glyph-name="less" unicode="&lt;"/><glyph d="M528 467l-14 -67h-434l14 67h434zM486 267l-14 -67h-434l14 67h434z" glyph-name="equal" unicode="="/><glyph d="M153 558l-16 -75l333 -163l10 51l-403 -165l-17 -80l429 179l16 74z" glyph-name="greater" unicode="&gt;"/><glyph d="M210 392q54 10 97.5 22.5t74.5 32t47.5 52t16.5 83.5q0 41 -15.5 65t-43.5 34.5t-67 10.5t-72 -8t-57 -20t-39 -25q2 9 6.5 17t12.5 14.5t18.5 11t24.5 5.5l-27 -124h-88l31 140q15 9 42.5 20.5t66 20t84.5 8.5q66 0 114 -19t74.5 -56.5t26.5 -94.5q0 -60 -22.5 -101.5 t-60.5 -67.5t-83.5 -40.5t-90.5 -22.5l-25 -118h-80zM274 63q0 -32 -22 -52t-57 -20q-33 0 -55 20t-22 52t22 52t55 20q35 0 57 -20t22 -52z" glyph-name="question" horiz-adv-x="557" unicode="?"/><glyph d="M460 -155q-89 0 -164 25t-130 72t-85.5 114t-30.5 151q0 77 24 147t67.5 129t104.5 102t136.5 67t161.5 24q89 0 158.5 -21t119 -61t75 -97t25.5 -130q0 -66 -18 -123.5t-51 -100.5t-77 -67t-96 -24q-44 0 -72.5 12t-43 33.5t-18.5 50.5l-6 3l70 230l7 -2l56 89h47 l-86 -279q-5 -18 -7.5 -28t-2.5 -19q0 -21 16.5 -31.5t49.5 -10.5q38 0 69 21.5t53.5 59t34.5 85.5t12 101q0 79 -36.5 136t-106.5 87.5t-172 30.5q-97 0 -176 -32.5t-136 -89t-88 -132t-31 -160.5q0 -71 26.5 -127.5t74 -97t112 -61.5t140.5 -21q43 0 81.5 6.5t71 17 t58.5 21.5l8 -53q-25 -12 -60 -23t-77 -17.5t-88 -6.5zM421 49q-39 0 -70.5 17.5t-49 50t-17.5 78.5q0 44 15 92.5t44 91t71.5 69t96.5 26.5q43 0 69.5 -16t41.5 -50t22 -88l-32 -24q-3 47 -15 75t-32 40.5t-50 12.5q-29 0 -52.5 -16.5t-42 -44t-30.5 -60t-18.5 -65.5 t-6.5 -60t8.5 -44.5t24.5 -26t38 -8.5q25 0 48 14t46 40.5t50 61.5l23 -17q-37 -48 -64.5 -81.5t-54 -50.5t-63.5 -17z" glyph-name="at" horiz-adv-x="961" unicode="@"/><glyph d="M196 296h268l-1 -56h-291zM402 670l15 -5l-312 -590q-1 -5 10 -10t30.5 -7.5t42.5 -2.5h12l-12 -55h-244l12 55h6q28 0 49.5 9t38.5 41l326 611h107l72 -613q3 -31 19.5 -39.5t46.5 -8.5h5l-12 -55h-261l12 55h13q24 0 44 1t33 3.5t13 5.5z" glyph-name="A" horiz-adv-x="697" unicode="A"/><glyph d="M372 343h-129l-60 -283h149q50 0 85 11t56.5 32.5t31.5 51t10 65.5q0 37 -15 64.5t-46.5 43t-81.5 15.5zM422 651h-113l-53 -250h134q39 0 68 10.5t48 30t28.5 46.5t9.5 59q0 31 -12 54.5t-38.5 36.5t-71.5 13zM418 369l48 16l-6 -28l-58 23q68 -4 115 -26.5t71 -58.5 t24 -82q0 -52 -18.5 -91.5t-54.5 -66.5t-90 -41t-125 -14h-343l12 55h11q36 0 62 6.5t31 28.5l112 530q5 20 -16.5 28t-60.5 8h-11l12 54h292q72 0 119.5 -20.5t71 -56t23.5 -82.5q0 -53 -25 -93t-74 -63.5t-122 -25.5z" glyph-name="B" horiz-adv-x="692" unicode="B"/><glyph d="M371 45q48 0 87 15.5t69.5 42.5t54 64t40.5 79l57 -33q-28 -68 -71 -120t-103.5 -81t-139.5 -29q-70 0 -127.5 21.5t-100 63t-65.5 100t-23 131.5q0 68 17 131.5t49.5 117.5t79 94.5t104.5 63t126 22.5q52 0 92.5 -13t69 -39t46 -62.5t24.5 -84.5l-27 22l49 164h65 l-51 -238h-70q-7 60 -31.5 102t-66.5 64.5t-103 22.5q-53 0 -96.5 -21t-76.5 -57.5t-55.5 -84.5t-34 -103t-11.5 -112q0 -58 15 -103t43 -76t70 -47.5t95 -16.5z" glyph-name="C" horiz-adv-x="740" unicode="C"/><glyph d="M133 710h249q82 0 148 -19.5t113 -58t72.5 -93.5t25.5 -126t-18 -133.5t-53 -113.5t-86 -88.5t-118.5 -57.5t-149.5 -20h-335l12 55h12q37 0 62.5 7t29.5 29l112 529q5 21 -17.5 28.5t-59.5 7.5h-12zM381 650h-72l-126 -589h127q60 0 107.5 12t84.5 34.5t63.5 54t43.5 71 t25 85t8 96.5q0 76 -28 129t-85.5 80t-147.5 27z" glyph-name="D" horiz-adv-x="787" unicode="D"/><glyph d="M586 222l-47 -222h-558l12 55h11q36 0 62 6.5t31 30.5l111 528q5 22 -17.5 29t-59.5 7h-11l12 54h522l-38 -197h-60l5 93q1 18 -10.5 27.5t-37 13t-68.5 3.5h-137l-125 -589h169q43 0 70 3.5t42.5 13t21.5 27.5l39 117h61zM230 392q45 3 90 4.5t89.5 3.5t89.5 4l-17 -79 q-43 2 -87.5 4t-88.5 4.5t-88 3.5z" glyph-name="E" horiz-adv-x="668" unicode="E"/><glyph d="M240 387q45 3 90.5 4.5t91 3.5t90.5 4l-17 -79q-44 2 -89 4t-89.5 4t-89.5 4zM-19 0l12 55h11q36 0 62 7t31 29l112 529q4 22 -18.5 29t-59.5 7h-11l13 54h530l-40 -197h-61l7 93q2 18 -9 27.5t-37 13t-69 3.5h-145l-123 -572q-2 -10 11.5 -15.5t35.5 -6.5t44 -1h19 l-13 -55h-302z" glyph-name="F" horiz-adv-x="639" unicode="F"/><glyph d="M146 289q0 54 9 102.5t25.5 90.5t41 75.5t56 58t69.5 37.5t83 13q61 0 102 -21.5t65 -60.5t33 -93h70l48 224h-65l-46 -150l24 -10q-7 41 -25.5 73t-47.5 54.5t-68 34t-87 11.5q-68 0 -127 -21t-106.5 -59.5t-81.5 -91.5t-52.5 -118t-18.5 -137t23.5 -130.5t66.5 -100.5 t102.5 -64.5t132.5 -22.5q54 0 97 11t76 28t57 35.5t39 32.5l36 164q5 23 26 30.5t56 7.5h13l12 54h-288l-12 -54h16q30 0 50 -3.5t30 -12t7 -24.5l-32 -146q-8 -6 -30 -21t-58.5 -27.5t-90.5 -12.5q-53 0 -95.5 16.5t-72.5 48t-46 76.5t-16 103z" glyph-name="G" horiz-adv-x="799" unicode="G"/><glyph d="M228 396h419l-13 -60h-418zM-19 0l12 55h11q37 0 62.5 7t30.5 29l112 529q5 22 -17.5 29t-59.5 7h-11l12 54h285l-13 -54h-9q-19 0 -39 -1t-34 -3t-15 -6l-124 -581q-1 -3 12.5 -5.5t33.5 -3.5t39 -1h9l-12 -55h-285zM440 0l13 55h9q19 0 39 1t34.5 3.5t14.5 5.5l124 581 q1 4 -12.5 6t-33.5 3t-39 1h-9l12 54h285l-12 -54h-11q-37 0 -62.5 -7t-30.5 -29l-112 -529q-5 -22 17.5 -29t59.5 -7h11l-12 -55h-285z" glyph-name="H" horiz-adv-x="850" unicode="H"/><glyph d="M101 88l112 532q4 22 -18.5 29t-59.5 7h-15l12 54h294l-13 -54h-15q-36 0 -62 -6.5t-30 -27.5l-112 -531q-5 -22 17.5 -29t59.5 -7h16l-13 -55h-293l12 55h16q36 0 61.5 6.5t30.5 26.5z" glyph-name="I" horiz-adv-x="399" unicode="I"/><glyph d="M437 620q5 22 -17.5 29t-59.5 7h-23l12 54h301l-12 -54h-16q-37 0 -62.5 -7t-29.5 -29l-89 -414q-17 -80 -49 -129.5t-80.5 -71.5t-112.5 -22q-57 0 -99 14t-69 34t-42 37l29 130h99l-31 -140q-17 6 -26 17.5t-11 22.5t2.5 15.5t13.5 -3.5q13 -25 46.5 -45.5t88.5 -20.5 q40 0 68.5 15.5t48.5 52t33 99.5z" glyph-name="J" horiz-adv-x="624" unicode="J"/><glyph d="M-19 0l12 55h11q37 0 62.5 7t30.5 29l112 529q4 22 -18.5 29t-59.5 7h-11l13 54h282l-13 -54h-9q-17 0 -37 -1t-34 -3t-15 -6l-123 -581q-1 -3 12.5 -5.5t33 -3.5t37.5 -1h9l-13 -55h-282zM395 0l12 55h9q20 0 39 1t32 3.5t13 5.5l-215 280l5 24l313 276q1 3 -5.5 5 t-18 3.5t-25 2t-28.5 0.5h-9l12 54h253l-13 -54h-18q-17 0 -31 -2.5t-26.5 -9t-25.5 -17.5l-316 -275v48l248 -318q10 -12 20 -17.5t24 -7.5t33 -2h17l-13 -55h-286z" glyph-name="K" horiz-adv-x="769" unicode="K"/><glyph d="M425 710l-13 -54h-13q-25 0 -46 -3t-34.5 -10t-16.5 -21l-119 -561h152q32 0 55.5 1.5t39.5 6.5t25.5 14t13.5 22l40 125h63l-48 -230h-543l12 55h11q36 0 62 6.5t30 26.5l113 532q4 22 -18.5 29t-59.5 7h-11l13 54h292z" glyph-name="L" horiz-adv-x="639" unicode="L"/><glyph d="M-19 0l11 55h11q25 0 45 3t33 11t15 22l112 529q3 15 -6.5 22.5t-28 10.5t-43.5 3h-11l13 54h239l68 -616l-16 -3l336 619h238l-12 -54h-11q-37 0 -62.5 -7t-30.5 -29l-112 -531q-2 -13 7.5 -20.5t28.5 -10.5t42 -3h11l-12 -55h-277l12 55h9q16 0 35.5 1t34 3.5t14.5 5.5 l133 625l10 4l-387 -696h-61l-87 697l9 -1l-133 -629q-1 -3 12 -5.5t31 -3.5t31 -1h4l-11 -55h-244z" glyph-name="M" horiz-adv-x="970" unicode="M"/><glyph d="M-19 0l12 55h11q24 0 44 2.5t33 10.5t16 22l111 530q4 15 -6 22.5t-28 10.5t-43 3h-11l12 54h221l218 -625l-12 -4l119 565q1 4 -12.5 6t-33.5 3t-39 1h-14l12 54h265l-13 -54h-11q-36 0 -62 -6.5t-30 -27.5l-132 -622h-98l-237 674l14 3l-129 -612q0 -3 13 -5.5 t33.5 -3.5t39.5 -1h14l-13 -55h-264z" glyph-name="N" horiz-adv-x="825" unicode="N"/><glyph d="M362 -17q-76 0 -134.5 24.5t-98 68t-60 101t-20.5 123.5q0 63 16.5 125t49 116.5t79.5 96.5t109.5 66t138.5 24t134.5 -24.5t98 -68t60 -101.5t20.5 -123q0 -64 -16.5 -126t-49 -116.5t-79.5 -96t-109.5 -65.5t-138.5 -24zM439 666q-47 0 -87.5 -13.5t-73 -40t-58 -66 t-42.5 -91.5q-11 -26 -17.5 -54t-9.5 -56.5t-3 -56.5q0 -53 13 -97.5t39.5 -77.5t67.5 -50.5t97 -17.5q47 0 87.5 13t73 39.5t58 66t42.5 91.5q11 28 17.5 55.5t9.5 55.5t3 56q0 54 -13 98t-39.5 77t-67.5 51t-97 18z" glyph-name="O" horiz-adv-x="802" unicode="O"/><glyph d="M293 55l-12 -55h-300l13 55h10q37 0 62.5 7t29.5 27l113 531q4 14 -5.5 22t-27.5 11t-44 3h-11l12 54h287q77 0 129 -22.5t79.5 -63.5t27.5 -98q0 -51 -19 -95.5t-57 -77t-94 -51t-130 -18.5h-125l-47 -219q-1 -3 11.5 -5.5t32 -3.5t40.5 -1h25zM557 528q0 38 -15 65 t-45 42t-77 15h-111l-66 -307h124q49 0 85 13.5t59 38t34.5 58.5t11.5 75z" glyph-name="P" horiz-adv-x="670" unicode="P"/><glyph d="M755 411q0 -64 -16.5 -126t-49 -116.5t-79.5 -96t-109.5 -65.5t-138.5 -24t-134.5 24.5t-98 68t-60 101t-20.5 123.5q0 63 16.5 125t49 116.5t79.5 96.5t109.5 66t138.5 24t134.5 -24.5t98 -68t60 -101.5t20.5 -123zM365 45q47 0 87.5 13t73 39.5t58 66t42.5 91.5 q11 28 17.5 55.5t9.5 55.5t3 56q0 54 -13 98t-39.5 77t-67.5 51t-97 18q-47 0 -87.5 -13.5t-73 -40t-58 -66t-42.5 -91.5q-11 -26 -17.5 -54t-9.5 -56.5t-3 -56.5q0 -53 13 -97.5t39.5 -77.5t67.5 -50.5t97 -17.5zM519 -211q-49 0 -86.5 9t-62.5 27t-38 44t-13 58 q0 20 5 39.5t10 35.5l63 13q-4 -13 -6.5 -27t-2.5 -29q0 -32 16.5 -52.5t47.5 -29.5t75 -9q30 0 56.5 3.5t52.5 10.5t53 14l-20 -89q-30 -9 -69 -13.5t-81 -4.5z" glyph-name="Q" horiz-adv-x="802" unicode="Q"/><glyph d="M373 321l86 22l100 -240q9 -21 19 -31.5t24 -13.5t35 -3h14l-13 -55h-142zM284 55l-12 -55h-291l12 55h11q36 0 62 6.5t30 27.5l113 531q4 21 -17.5 28.5t-60.5 7.5h-11l13 54h279q79 0 131.5 -23t79.5 -63.5t27 -92.5q0 -46 -15 -83.5t-43.5 -65.5t-68.5 -45.5 t-90 -24.5q-11 -3 -21.5 -5.5t-19.5 -4t-18 -1.5h-140l-50 -236q0 -3 12.5 -5.5t32.5 -3.5t40 -1h15zM414 650h-106l-62 -292h133q44 0 76.5 12t54 34.5t32 54.5t10.5 73q0 36 -14.5 62.5t-45 41t-78.5 14.5z" glyph-name="R" horiz-adv-x="729" unicode="R"/><glyph d="M317 -17q-49 0 -91 11t-74 33.5t-53 57t-31 82.5q2 5 8.5 7t13.5 -0.5t8 -12.5l-45 -166h-66l52 237h69q3 -45 17.5 -80.5t41 -59.5t64.5 -36t87 -12q52 0 86.5 17.5t52 48t17.5 71.5q0 35 -15.5 59t-41.5 41t-57.5 30.5t-64.5 27.5q-47 21 -87 44t-64 58.5t-24 92.5 q0 60 29 103.5t80 67t118 23.5q55 0 95.5 -17t65.5 -52.5t33 -91.5q-2 -6 -8.5 -6.5t-12 4t-6.5 12.5l41 137h62l-44 -204h-67q-3 53 -23 88t-54.5 52.5t-82.5 17.5q-46 0 -77.5 -15.5t-48 -42.5t-16.5 -64q0 -33 13 -54t35 -35.5t52 -27t64 -27.5q35 -15 70 -32.5t63 -41 t45 -56.5t17 -79q0 -48 -18.5 -87t-51 -66.5t-77.5 -42t-99 -14.5z" glyph-name="S" horiz-adv-x="644" unicode="S"/><glyph d="M247 90l119 560h-57q-47 0 -75 -4.5t-42.5 -15t-20.5 -28.5l-37 -111h-61l48 219h609l-48 -219h-60l15 111q2 18 -9 28.5t-38 15t-73 4.5h-58l-119 -559q-5 -22 19 -29t61 -7h18l-13 -55h-304l13 55h18q37 0 63.5 7t31.5 28z" glyph-name="T" horiz-adv-x="697" unicode="T"/><glyph d="M224 340q-7 -32 -11.5 -56.5t-6.5 -44t-2 -38.5q0 -35 11 -62.5t33 -46.5t52.5 -28.5t70.5 -9.5q56 0 97 22t68.5 71t44.5 130l77 359q2 6 -11 10.5t-33 7t-39 2.5h-9l12 54h260l-12 -54h-11q-37 0 -63 -10t-31 -36l-73 -338q-22 -105 -63.5 -168.5t-99.5 -92t-128 -28.5 q-54 0 -99.5 14t-78 41.5t-50 68t-17.5 92.5q0 21 2 42.5t6.5 48.5t12.5 61l56 271q4 21 -19 27.5t-59 6.5h-11l12 54h286l-12 -54h-9q-19 0 -39.5 -1t-34.5 -3t-15 -6z" glyph-name="U" horiz-adv-x="800" unicode="U"/><glyph d="M292 34l-19 7l322 595q3 6 -8.5 10t-31 7t-43.5 3h-12l12 54h244l-12 -54h-6q-29 0 -50 -9.5t-39 -43.5l-333 -609h-106l-67 613q-3 32 -20 40.5t-46 8.5h-5l12 54h261l-12 -54h-13q-24 0 -44.5 -1.5t-33 -3.5t-12.5 -6z" glyph-name="V" horiz-adv-x="685" unicode="V"/><glyph d="M84 710h254l-13 -54h-17q-17 0 -35.5 -1.5t-32 -3.5t-14.5 -6l28 -595h-19l315 660h101l32 -657l-18 -1l277 583q1 6 -10 11t-28.5 7.5t-34.5 2.5h-15l12 54h230l-12 -54h-6q-27 0 -47 -10t-32 -34l-294 -612h-101l-34 653l16 -2l-313 -651h-100l-33 621q-2 25 -18 30 t-44 5h-6z" glyph-name="W" horiz-adv-x="1034" unicode="W"/><glyph d="M103 656l12 54h269l-13 -54h-17q-18 0 -37 -1t-32 -3t-14 -6l133 -256l7 -2l163 -299q8 -15 18 -22.5t23.5 -9.5t31.5 -2h17l-13 -55h-275l12 55h17q18 0 37.5 1t33 3.5t13.5 5.5l-147 272l-7 4l-149 282q-7 15 -17 22t-23.5 9t-32.5 2h-10zM-48 0l13 55h15q18 0 33 4 t30 14t32 28l262 281l34 -45l-245 -265q-1 -4 11.5 -8.5t31.5 -6.5t37 -2h17l-13 -55h-258zM410 355l-35 42l222 241q1 6 -11 10t-30.5 6t-37.5 2h-15l12 54h254l-12 -54h-10q-18 0 -34.5 -3.5t-31.5 -13t-33 -28.5z" glyph-name="X" horiz-adv-x="751" unicode="X"/><glyph d="M113 0l13 55h18q38 0 64 7t30 29l47 221v-45l-133 359q-5 14 -14.5 20.5t-23 8t-31.5 1.5h-9l12 54h257l-13 -54h-16q-16 0 -34 -1.5t-30.5 -3.5t-13.5 -6l120 -331l-28 2l246 319q1 7 -10 11.5t-28 7t-34 2.5h-14l12 54h241l-12 -54h-9q-17 0 -32 -3.5t-29 -13 t-29 -27.5l-271 -346l19 46l-47 -221q-3 -14 6.5 -22t28.5 -11t44 -3h18l-12 -55h-303z" glyph-name="Y" horiz-adv-x="683" unicode="Y"/><glyph d="M42 61h284q32 0 55.5 1.5t39.5 6.5t25.5 14t13.5 22l39 117h62l-47 -222h-542l16 72l569 604l14 -26h-249q-32 0 -55.5 -2t-39.5 -7t-25.5 -13t-14.5 -22l-33 -98h-60l44 202h508l-15 -68l-584 -620z" glyph-name="Z" horiz-adv-x="642" unicode="Z"/><glyph d="M263 -77l-12 -53h-262l188 880h252l-12 -52h-167l-165 -775h178z" glyph-name="bracketleft" horiz-adv-x="375" unicode="["/><glyph d="M115 765l249 -908h-72l-249 908h72z" glyph-name="backslash" horiz-adv-x="408" unicode="\"/><glyph d="M115 698l12 52h262l-188 -880h-252l12 53h167l165 775h-178z" glyph-name="bracketright" horiz-adv-x="375" unicode="]"/><glyph d="M124 339h-76l243 371h59l-4 -25zM394 339l-73 347l8 24h57l84 -371h-76z" glyph-name="asciicircum" horiz-adv-x="522" unicode="^"/><glyph d="M-5 -95h529l-5 -60h-529z" glyph-name="underscore" horiz-adv-x="514" unicode="_"/><glyph d="M258 753q-8 20 -16.5 34t-20 21t-28.5 7q-23 0 -37.5 -14.5t-14.5 -34.5q0 -11 4.5 -21t12 -19.5t17.5 -19.5l96 -92h33l2 23z" glyph-name="grave" horiz-adv-x="500" unicode="`"/><glyph d="M497 376l-34 -43q-8 47 -24.5 81t-42.5 52.5t-65 18.5q-34 0 -63.5 -18t-53 -48.5t-40 -70t-25.5 -83t-9 -85.5t8.5 -71t28 -44.5t51.5 -15.5q38 0 69.5 20.5t63 60t66.5 98.5l19 -30q-33 -63 -69 -110t-76.5 -73.5t-91.5 -26.5q-55 0 -91.5 24t-54 67.5t-17.5 103.5 q0 52 13 103.5t38 98.5t60 83.5t78.5 57.5t94.5 21q50 0 83 -23t53 -61.5t31 -86.5zM572 538l-71 -333q-8 -40 -14.5 -65.5t-9.5 -40t-3 -21.5q0 -10 6 -15t18 -5q25 0 49.5 4.5t42.5 6.5l-11 -58q-14 -3 -31 -6.5t-34.5 -5.5t-37.5 -2q-23 0 -39.5 8t-25.5 23t-9 37 q0 12 2 37t6 60l-8 -8l52 255l5 6l53 123h60z" glyph-name="a" horiz-adv-x="635" unicode="a"/><glyph d="M280 50q39 0 71 18t57 48.5t42 69.5t26 82.5t9 85.5q0 43 -8.5 72t-29 44.5t-56.5 15.5q-40 0 -74 -20t-67.5 -58.5t-72.5 -96.5l-18 29q36 63 74.5 109t82 72t94.5 26q58 0 95.5 -24t55.5 -68t18 -104q0 -51 -13 -103t-38.5 -98.5t-62 -83t-84 -57.5t-103.5 -21 q-54 0 -96.5 13.5t-74 35t-53.5 44.5l121 578q2 12 -7.5 20t-27.5 14t-44 11l-10 2l11 52h187l-144 -688q-7 8 -11 17t-6 18.5t-1 19.5t4 21q9 -24 28.5 -46.5t51 -36t74.5 -13.5z" glyph-name="b" horiz-adv-x="625" unicode="b"/><glyph d="M283 48q43 0 74 17t54 42.5t37 50.5l49 -33q-25 -46 -59 -77t-75 -45.5t-87 -14.5q-50 0 -92.5 14.5t-73.5 43.5t-47.5 71t-16.5 97q0 68 21.5 128.5t62 106.5t97 72t127.5 26q45 0 81 -7.5t63.5 -20t46.5 -25.5l-35 -148h-89l31 131q12 -2 21 -8t14.5 -14t7 -17 t-1.5 -17q-12 18 -31.5 33t-48 23.5t-65.5 8.5q-43 0 -77 -15.5t-59 -43.5t-41 -63.5t-23.5 -76.5t-7.5 -82q0 -52 16.5 -87t49 -52.5t77.5 -17.5z" glyph-name="c" horiz-adv-x="559" unicode="c"/><glyph d="M216 -12q-57 0 -95 24t-56.5 68t-18.5 104q0 51 13 103t38.5 98.5t61.5 83t81.5 57.5t99.5 21q51 0 88 -19.5t62 -53t40 -76.5l-37 -41q-11 40 -31 68.5t-50 44t-72 15.5q-37 0 -68 -18t-55.5 -49t-41.5 -70t-26 -82t-9 -86q0 -42 9 -71.5t30 -44.5t56 -15q31 0 57 11.5 t51.5 34t51.5 56t55 78.5l18 -30q-35 -63 -74 -111t-83 -74t-95 -26zM497 -3q-34 0 -54 17.5t-20 50.5q0 8 1 21.5t3 31.5t5 39l-8 -1l106 503q3 15 -4.5 22.5t-23.5 12.5t-42 10l-11 2l12 52h178l-116 -553q-9 -40 -15 -65.5t-9 -40t-3 -21.5q0 -10 5.5 -15t18.5 -5 q25 0 49.5 4.5t41.5 6.5l-10 -58q-15 -3 -31.5 -6.5t-34.5 -5.5t-38 -2z" glyph-name="d" horiz-adv-x="660" unicode="d"/><glyph d="M266 -12q-66 0 -115.5 26.5t-77 76.5t-27.5 121q0 66 20.5 126t58.5 107t91.5 74.5t118.5 27.5q57 0 95 -18t57 -48.5t19 -69.5q0 -48 -24.5 -85t-73.5 -62.5t-122 -38t-171 -13.5l6 52q85 1 143 11.5t92.5 28.5t49.5 44.5t15 60.5q0 25 -10.5 42t-31 26t-51.5 9 q-43 0 -78.5 -22t-61 -61t-39.5 -89.5t-14 -108.5q0 -53 16 -87.5t46.5 -51.5t74.5 -17q39 0 69 14.5t52.5 38t38.5 50.5l48 -34q-23 -42 -55.5 -71t-72.5 -44t-86 -15z" glyph-name="e" horiz-adv-x="540" unicode="e"/><glyph d="M63 537h357l-12 -58h-357zM376 710q-30 0 -51 -10.5t-35 -35t-22 -68.5l-148 -819h-72l129 821q10 63 36.5 101t68.5 55t97 17q24 0 46 -2.5t39 -6.5t25 -8l-12 -66q-16 8 -43 15t-58 7z" glyph-name="f" horiz-adv-x="405" unicode="f"/><glyph d="M385 -24l93 445l7 2l47 115h61l-120 -569q-15 -70 -49.5 -117.5t-89 -71t-129.5 -23.5q-55 0 -99.5 11t-75 29t-45.5 36l20 98h90l-25 -121q-11 2 -19 11t-12.5 21t-5 23.5t3.5 18.5q14 -18 37 -34.5t56 -26t78 -9.5q51 0 86 16t56.5 52t34.5 94zM524 384l-36 -44 q-9 44 -27.5 76.5t-48 50.5t-72.5 18q-36 0 -67 -18t-55.5 -48t-42 -68.5t-26.5 -80t-9 -82.5q0 -40 9 -68.5t30.5 -43.5t57.5 -15q41 0 75 21t68 61t72 97l19 -32q-35 -61 -74 -108.5t-82.5 -73.5t-94.5 -26q-59 0 -97.5 23.5t-57.5 66.5t-19 102q0 49 13.5 99.5t39 96 t61.5 81.5t81.5 57t98.5 21q40 0 71 -12.5t53 -35t36.5 -52t23.5 -63.5z" glyph-name="g" horiz-adv-x="623" unicode="g"/><glyph d="M53 0h89l159 758h-187l-11 -52l10 -2q26 -5 44 -11t27.5 -14t7.5 -20zM510 205l34 150q6 26 10 49t4 42q0 31 -13 53.5t-38 35t-62 12.5q-54 0 -99.5 -25.5t-86 -71t-80.5 -106.5l15 -30q41 54 77 91t70 56t68 19q31 0 44.5 -14.5t13.5 -39.5q0 -13 -3 -29t-9 -43 l-34 -143q-11 -46 -17.5 -73t-9 -43t-2.5 -30q0 -22 11 -37.5t31 -23t46 -7.5q20 0 38 2t35 5.5t31 6.5l11 58q-11 -1 -26 -3.5t-31 -5t-32 -2.5q-13 0 -18.5 5t-5.5 15q0 7 2.5 21.5t9 40t16.5 65.5z" glyph-name="h" horiz-adv-x="646" unicode="h"/><glyph d="M74 65q0 14 2.5 30t8.5 43t17 73l47 226q3 12 -6.5 20.5t-28 15t-44.5 10.5l-12 2l12 52h188l-70 -332q-8 -40 -14 -65.5t-8 -40t-2 -21.5q0 -10 5.5 -15t18.5 -5q16 0 32 2.5t31 5t26 3.5l-10 -58q-15 -3 -31.5 -6.5t-34.5 -5.5t-38 -2q-26 0 -46.5 7.5t-31.5 23 t-11 37.5zM160 714q0 31 18.5 47t46.5 16t46.5 -16t18.5 -47q0 -32 -18.5 -48t-46.5 -16t-46.5 16t-18.5 48z" glyph-name="i" horiz-adv-x="332" unicode="i"/><glyph d="M246 650q-29 0 -47 16t-18 48q0 31 18 47t47 16q28 0 46.5 -16t18.5 -47q0 -32 -18.5 -48t-46.5 -16zM-161 -221l13 63q18 -6 42.5 -14t55.5 -8q32 0 54.5 11.5t37 37.5t23.5 69l106 500q2 12 -7.5 20t-28 14.5t-45.5 10.5l-12 2l11 52h189l-126 -596 q-14 -67 -42.5 -107.5t-69.5 -58.5t-94 -18q-36 0 -64 7.5t-43 14.5z" glyph-name="j" horiz-adv-x="331" unicode="j"/><glyph d="M413 120l-92 206l-41 -62q51 44 102.5 87.5t103 86.5t103.5 86v13h-95q-41 -40 -82.5 -79.5l-83 -79t-83.5 -79.5l-1 -5l85 -198q14 -34 29 -56t35.5 -32.5t50.5 -10.5q16 0 31 2.5t29.5 6.5t26.5 8l10 57q-8 -1 -19.5 -3t-23.5 -3.5t-25 -1.5q-10 0 -19 4t-16 11t-13 18 t-12 24zM53 0h89l159 758h-187l-11 -52l10 -2q26 -5 44 -11t27.5 -14t7.5 -20z" glyph-name="k" horiz-adv-x="589" unicode="k"/><glyph d="M186 659q2 12 -7.5 20t-27.5 14t-44 11l-10 2l11 52h186l-117 -553q-8 -40 -14 -65.5t-8 -40t-2 -21.5q0 -10 5.5 -15t18.5 -5q17 0 33 2.5t30.5 5t26.5 3.5l-11 -58q-14 -3 -30.5 -6.5t-35 -5.5t-37.5 -2q-27 0 -47 7.5t-31 23t-11 37.5q0 14 2.5 30t9 43.5t16.5 73.5z" glyph-name="l" horiz-adv-x="329" unicode="l"/><glyph d="M59 0h88l79 375l-5 11l17 151h-165l-11 -52l12 -2q25 -4 43.5 -10.5t28 -14.5t7.5 -20zM785 205l34 150q7 26 10.5 48.5t3.5 41.5q0 31 -12 54t-35.5 35.5t-56.5 12.5q-51 0 -92.5 -26t-79.5 -71.5t-76 -105.5l15 -30q38 54 71.5 91t64.5 56t61 19q27 0 37.5 -14.5 t10.5 -39.5q0 -13 -2.5 -29t-9.5 -43l-33 -143q-12 -46 -18 -73t-9 -43t-3 -30q0 -22 11 -37.5t31 -23t47 -7.5q20 0 38 2t35 5.5t32 6.5l10 58q-11 -1 -25.5 -3.5t-31 -5t-32.5 -2.5q-12 0 -18 5t-6 15q0 7 3 21.5t9 40t16 65.5zM353 0h89l77 347q1 6 2.5 21.5t2 33t1.5 32 t1 19.5q0 30 -11 50.5t-32 32t-52 11.5q-51 0 -93 -25.5t-79 -71t-75 -106.5l15 -30q39 54 72 91t64.5 56t63.5 19q27 0 37 -12.5t10 -35.5q0 -13 -3 -30.5t-9 -43.5z" glyph-name="m" horiz-adv-x="922" unicode="m"/><glyph d="M59 0h88l79 375l-5 11l17 151h-165l-11 -52l12 -2q25 -4 43.5 -10.5t28 -14.5t7.5 -20zM515 205l34 150q7 26 10.5 49t3.5 42q0 47 -29 74t-83 27t-99.5 -25.5t-86.5 -71.5t-81 -106l15 -30q41 54 77.5 91t70.5 56t68 19q31 0 44 -14.5t13 -39.5q0 -13 -2.5 -29t-9.5 -43 l-33 -143q-12 -46 -18 -73t-9 -43t-3 -30q0 -22 11 -37.5t31 -23t47 -7.5q19 0 37.5 2t35 5.5t31.5 6.5l10 58q-11 -1 -25.5 -3.5t-31 -5t-32.5 -2.5q-12 0 -18 5t-6 15q0 7 3 21.5t9 40t16 65.5z" glyph-name="n" horiz-adv-x="652" unicode="n"/><glyph d="M450 188q9 23 14 47t7.5 49t2.5 50q0 48 -15.5 82t-46.5 52t-78 18q-33 0 -59.5 -10.5t-47 -29.5t-36.5 -44.5t-27 -54.5q-8 -23 -13.5 -47.5t-8 -49.5t-2.5 -49q0 -49 15.5 -83t46.5 -52t78 -18q33 0 59.5 11t47 29.5t36.5 44t27 55.5zM46 212q0 55 13.5 105t39 92 t61.5 73t81 48t98 17q69 0 120.5 -27.5t80 -78.5t28.5 -120q0 -55 -13.5 -104.5t-39 -91.5t-61.5 -72.5t-81 -47.5t-98 -17q-69 0 -120.5 27.5t-80 78t-28.5 118.5z" glyph-name="o" horiz-adv-x="614" unicode="o"/><glyph d="M-74 -223l10 48h2q39 0 64 10.5t32 44.5l119 558q3 12 -6.5 20t-28 14.5t-44.5 10.5l-11 2l11 52h165l-19 -160l8 4l-116 -546q0 -3 7.5 -4.5t20 -3t26 -2t24.5 -0.5h27l-10 -48h-281zM121 138l37 41q11 -40 31.5 -69t51.5 -44.5t72 -15.5q37 0 68 18t55 48.5t40.5 69.5 t25 82.5t8.5 85.5q0 43 -9.5 72t-31 44.5t-57.5 15.5q-40 0 -73.5 -20t-66.5 -58.5t-72 -96.5l-18 29q36 63 73.5 109t80.5 72t94 26q58 0 96.5 -24t58 -68t19.5 -104q0 -51 -12.5 -103t-37.5 -98.5t-60.5 -83t-81 -57.5t-99.5 -21q-50 0 -88 19.5t-63.5 54t-40.5 76.5z" glyph-name="p" horiz-adv-x="650" unicode="p"/><glyph d="M238 -223l10 48h27q15 0 32.5 1t31.5 3.5t14 5.5l128 598l4 2l47 103h61l-140 -657q-4 -22 3 -34.5t24.5 -17t42.5 -4.5h3l-10 -48h-278zM524 384l-34 -41q-9 44 -28 75.5t-49 49t-73 17.5q-37 0 -68 -18t-55.5 -49t-41.5 -70t-26 -82t-9 -86q0 -42 9 -71.5t30 -44.5 t56 -15q40 0 74.5 20t68.5 59.5t72 96.5l18 -29q-35 -62 -74 -109t-83 -73t-95 -26q-57 0 -95 24t-56.5 68t-18.5 104q0 51 13 103t38.5 98.5t61.5 83t81.5 57.5t99.5 21t91 -22t59.5 -58.5t33.5 -82.5z" glyph-name="q" horiz-adv-x="622" unicode="q"/><glyph d="M59 0h88l79 375l-6 5l18 157h-165l-11 -52l12 -2q25 -4 43.5 -10.5t28 -14.5t7.5 -20zM450 542q-4 2 -16.5 4t-27.5 2q-34 0 -61.5 -14t-53 -41.5t-52 -68.5t-57.5 -96l19 -23q25 42 46.5 70.5t42 45.5t43 25t48.5 8q15 0 27.5 -2t26.5 -5z" glyph-name="r" horiz-adv-x="458" unicode="r"/><glyph d="M232 -11q-51 0 -93.5 9t-74 24.5t-52.5 33.5l25 124h90l-29 -140q-18 8 -24 17.5t-4 21t8 25.5q13 -17 37 -29.5t55.5 -19.5t65.5 -7q35 0 62 9.5t43 29.5t16 51q0 20 -10 35t-28 26.5t-40 21.5t-45 20q-35 17 -67.5 36t-53 47t-20.5 71q0 45 23 79.5t67.5 53.5t110.5 19 q42 0 77.5 -8t61.5 -20t37 -26l-22 -114h-88l22 110q9 -1 18.5 -8t15 -19t2.5 -29q-11 18 -29.5 30t-43 18.5t-56.5 6.5q-60 0 -86.5 -22.5t-26.5 -57.5q0 -25 16.5 -43t44 -31.5t58.5 -28.5q36 -16 69.5 -35t55.5 -47t22 -72q0 -51 -27 -87.5t-74 -55.5t-109 -19z" glyph-name="s" horiz-adv-x="503" unicode="s"/><glyph d="M214 -5q-44 0 -72 11t-41.5 33.5t-13.5 58.5q0 16 3 36t7.5 42t8.5 42l62 304l49 15h201l-13 -60h-353l12 55h11q33 0 57 5t39.5 19.5t21.5 42.5l19 91h80l-106 -504q-2 -13 -5 -28t-4.5 -28.5t-1.5 -23.5q0 -26 12.5 -36t38.5 -10q13 0 33.5 2t42 4.5t35.5 3.5l-13 -64 q-22 -4 -50.5 -7.5t-59.5 -3.5z" glyph-name="t" horiz-adv-x="416" unicode="t"/><glyph d="M185 183q-5 -26 -8.5 -42.5t-3.5 -29.5q0 -16 6 -28.5t18.5 -19t33.5 -6.5q35 0 68.5 19t68.5 57t74 93l14 -30q-36 -61 -76 -107.5t-85.5 -72.5t-99.5 -26t-83.5 27.5t-29.5 73.5q0 19 4.5 41.5t9.5 48.5l57 256q3 12 -6.5 20.5t-28 15t-44.5 10.5l-12 2l11 52h190z M507 205q-8 -40 -14.5 -65.5t-9.5 -40t-3 -21.5q0 -10 6 -15t18 -5q25 0 49.5 4.5t42.5 6.5l-11 -58q-14 -3 -31 -6.5t-34.5 -5.5t-37.5 -2q-34 0 -54 17.5t-20 50.5q0 8 1 21.5t3 31.5t4 39l-9 -5l82 385h88z" glyph-name="u" horiz-adv-x="642" unicode="u"/><glyph d="M189 537h-153l-11 -52l12 -3q23 -4 40.5 -10t28 -14t11.5 -20l53 -438h92q34 66 69 132t69 131.5t69 131.5t69 132v10h-84q-28 -62 -56.5 -124t-56.5 -124t-56.5 -124t-57.5 -125l18 -8z" glyph-name="v" horiz-adv-x="532" unicode="v"/><glyph d="M239 0h-91l-31 438q0 12 -11 20t-28.5 14t-40.5 10l-12 3l11 52h152l32 -505l-17 8q27 63 54 125t54.5 124t54.5 124l54 124h72l48 -506l-14 9q25 63 50 125l50 124l50 124l50 124h84v-10q-31 -66 -62.5 -132t-62.5 -131.5t-62.5 -131.5t-62.5 -132h-90l-44 438l24 17 q-35 -75 -70 -151t-70 -151.5t-71 -152.5z" glyph-name="w" horiz-adv-x="805" unicode="w"/><glyph d="M305 260l-14 50l152 227h89v-11zM1 0l1 11l240 285l17 -53l-168 -243h-90zM411 -5q-31 0 -51.5 10.5t-36 35.5t-32.5 70l-117 324q-5 14 -17.5 23t-32 14.5t-45.5 9.5l-15 3l11 52h151l148 -414q11 -26 18.5 -40.5t17.5 -20.5t26 -6q19 0 37 4.5t31 6.5l-8 -57 q-17 -6 -38 -10.5t-47 -4.5z" glyph-name="x" horiz-adv-x="544" unicode="x"/><glyph d="M194 -22l41 38l25 54l-70 467h-154l-11 -52l12 -3q24 -4 41 -10t27.5 -14t12.5 -20zM237 65l-13 -5q-35 -66 -63.5 -108t-53.5 -64t-49 -30.5t-48 -8.5q-31 0 -54 7t-31 10l-17 -79q8 -4 31.5 -11.5t57.5 -7.5q35 0 67.5 12t64 40t66.5 76t74 120q29 53 57 104.5 t56.5 103t56 102l55 101t54.5 100.5v10h-85q-28 -59 -56.5 -118t-56.5 -118l-56 -118t-57 -118z" glyph-name="y" horiz-adv-x="537" unicode="y"/><glyph d="M339 -12q-31 0 -58.5 10t-53 28.5t-49 44t-47.5 56.5l28 33q30 -27 56 -47.5t55.5 -31.5t66.5 -11q34 0 56.5 12.5t36.5 42t23 79.5l47 -10q2 -54 -8 -93t-30.5 -64t-51.5 -37t-71 -12zM62 0h-49l8 63l407 425l13 -10h-134q-46 0 -74.5 -3t-43.5 -12.5t-21 -27.5l-25 -73 h-57l35 175h403l-12 -63z" glyph-name="z" horiz-adv-x="546" unicode="z"/><glyph d="M293 213q0 -20 -17 -40.5t-41.5 -41.5t-49.5 -44t-41.5 -47.5t-16.5 -52.5t14.5 -46t42.5 -27.5t67 -12.5q17 0 30.5 1.5t23.5 3.5l-19 -48q-7 -2 -22.5 -3.5t-28.5 -1.5q-59 1 -104 14t-70.5 41t-25.5 75q0 32 15.5 59.5t39.5 52t51.5 47t53 44t42.5 44.5l7 -19l-195 77 l11 48l205 59l-12 -19q-8 24 -23 51.5t-31 58t-27 61t-11 59.5q0 40 23 73t71.5 52t125.5 19q16 0 30.5 -2t27.5 -6l5 -50q-11 3 -24.5 4.5t-28.5 1.5q-50 -1 -80.5 -13t-45 -33t-14.5 -50q0 -20 7 -41.5t17 -44t19.5 -44t16 -40t6.5 -33.5t-7 -27t-27 -22t-57.5 -19 t-97.5 -17l-2 -9q51 -12 83.5 -22.5t50.5 -20.5t25.5 -21.5t7.5 -27.5z" glyph-name="braceleft" horiz-adv-x="401" unicode="{"/><glyph d="M127 765h74v-908h-74v908z" glyph-name="bar" horiz-adv-x="328" unicode="|"/><glyph d="M111 390q0 20 16.5 40.5t41.5 41.5t49.5 44t41.5 47.5t17 52.5q0 29 -15 46.5t-42.5 27t-67.5 12.5q-16 0 -30 -1.5t-24 -3.5l19 48q8 2 23.5 3.5t28.5 1.5q59 -1 103.5 -14t70 -41t25.5 -75q0 -32 -15 -59.5t-39 -52t-51.5 -47t-53 -44t-43.5 -44.5l-6 19l195 -77 l-11 -48l-206 -59l12 19q8 -23 23 -51t31 -58.5t27 -61t11 -59.5q0 -40 -23 -73t-71 -52t-125 -19q-16 0 -31 2t-28 6l-5 50q12 -3 25 -4.5t28 -1.5q51 1 81.5 13t44.5 33.5t14 49.5q0 20 -6.5 41.5t-16 44t-19.5 44t-17 40t-7 33.5t7.5 27t27.5 22t57 19t97 17l2 9 q-50 12 -83 22.5t-51 20.5t-25 21.5t-7 27.5z" glyph-name="braceright" horiz-adv-x="401" unicode="}"/><glyph d="M206 438q29 0 49 -10t33.5 -25.5t24.5 -30.5t23.5 -25.5t30.5 -10.5q15 0 26.5 9.5t20.5 25t15.5 34t12.5 38.5l55 -18q-14 -56 -34.5 -93.5t-48 -56.5t-63.5 -19q-30 0 -50 10.5t-33.5 26t-24 30.5t-23 25.5t-30.5 10.5q-22 0 -35.5 -14.5t-22 -38t-17.5 -52.5l-57 17 q15 52 33 89.5t46 57.5t69 20z" glyph-name="asciitilde" horiz-adv-x="538" unicode="~"/><glyph glyph-name="uni00A0" horiz-adv-x="260"/><glyph d="M3 -196h113q12 54 19 101t13 91.5t12 91.5t15 102t24 123h-63q-14 -68 -28.5 -121.5t-28.5 -100t-27 -90.5t-25.5 -92t-23.5 -105zM113 485q0 32 22.5 52t56.5 20q33 0 55 -20t22 -52t-22 -52t-55 -20q-34 0 -56.5 20t-22.5 52z" glyph-name="exclamdown" horiz-adv-x="316" unicode="¡"/><glyph d="M271 -12q-52 0 -95 16t-74.5 46t-49 73t-17.5 97q0 66 21.5 125t61 104.5t96 71.5t126.5 26q55 0 96.5 -10t69.5 -24t40 -27l-31 -140h-85l31 138q11 -2 19 -9t14 -16t8 -18t-1 -17q-13 18 -33.5 32.5t-52 23.5t-79.5 9q-42 0 -76 -14.5t-59 -41t-42 -62t-25 -77 t-8 -86.5q0 -56 19 -92.5t53 -53.5t79 -17q46 0 77.5 17t53.5 42.5t37 49.5l49 -35q-22 -42 -56.5 -71.5t-76.5 -44.5t-90 -15zM172 -146l34 156l10 17l103 477l-5 12l31 147h71l-30 -138l-11 -19l-102 -474l4 -13l-35 -165h-70z" glyph-name="cent" unicode="¢"/><glyph d="M361 666q-53 0 -83 -21.5t-42 -57.5t-12 -79q0 -30 4 -56t9.5 -51t9.5 -52.5t4 -58.5q0 -56 -16 -105.5t-51 -89t-89.5 -67t-130.5 -41.5l17 72q52 11 88 30.5t58 46.5t32.5 61t10.5 75q0 28 -4 53t-10 48.5l-12 47t-10 47.5t-4 50q0 58 25.5 105.5t77.5 75.5t129 28 q39 0 70 -5.5t54.5 -13.5t40 -17t25.5 -15l-31 -142h-92l29 130q11 -1 19.5 -6t15 -12.5t10.5 -16t4 -16.5q-15 14 -34.5 26t-47 19.5t-64.5 7.5zM47 372h387l-11 -57h-387zM343 -10q-32 0 -55.5 9t-44 27t-41.5 46.5t-48 68.5l41 49q28 -39 53 -63t50 -35t54 -11t49 10.5 t35.5 34.5t30.5 63l51 -24q-12 -40 -28.5 -72t-37 -55t-48 -35.5t-61.5 -12.5z" glyph-name="sterling" unicode="£"/><glyph d="M36 112l-44 55l132 107l52 -48zM80 589l61 49l89 -113l-66 -42zM286 242q45 0 76 18t47 51t16 78q0 35 -14 61.5t-40.5 41t-65.5 14.5q-44 0 -75 -18t-47 -51t-16 -78q0 -36 13.5 -62t40 -40.5t65.5 -14.5zM284 172q-47 0 -83 15.5t-61.5 42t-38.5 61t-13 71.5 q0 42 17 80t47 68t70 47.5t86 17.5t82.5 -15t61.5 -42t38.5 -61t13.5 -72q0 -41 -17.5 -79.5t-47.5 -68.5t-70 -47.5t-85 -17.5zM450 110l-90 113l66 42l85 -106zM598 577l-132 -106l-52 48l140 113z" glyph-name="currency" horiz-adv-x="565" unicode="¤"/><glyph d="M30 221h451l-12 -55h-451zM63 372h451l-12 -55h-451zM244 371h88l-60 -280q-4 -22 19 -29t60 -7h20l-12 -55h-301l12 55h20q38 0 64 7t30 29zM307 326h-57l-113 300q-7 20 -21.5 25t-36.5 5h-6l12 54h227l-13 -54h-14q-16 0 -31 -1.5t-25.5 -3.5t-11.5 -6l100 -276l-36 1 l200 265q1 7 -8 11.5t-24 7t-31 2.5h-11l13 54h210l-12 -54h-7q-20 0 -39.5 -9t-40.5 -35z" glyph-name="yen" unicode="¥"/><glyph d="M127 765h74v-373h-74v373zM127 230h74v-373h-74v373z" glyph-name="brokenbar" horiz-adv-x="328" unicode="¦"/><glyph d="M229 -236q-62 0 -107.5 13t-76 32t-49.5 36l27 122h93l-29 -133q-10 7 -17 13.5t-10.5 13.5t-3.5 14.5t4 15.5q16 -19 38 -34.5t54.5 -24t77.5 -8.5q50 0 84 14.5t51.5 41t17.5 61.5q0 27 -13 48.5t-35 39.5t-50 35t-59 36q-33 20 -65 41t-57.5 44.5t-40 51t-14.5 61.5 q0 35 13.5 62t39.5 45.5t62.5 28t81.5 8.5l37 -45q-51 1 -84.5 -8t-49.5 -28.5t-16 -52.5q0 -31 22.5 -55.5t59.5 -47t81 -49.5q44 -26 83 -55.5t63.5 -66t24.5 -84.5q0 -57 -31 -98.5t-85 -64.5t-122 -23zM385 51l-38 50q50 2 84.5 10t52.5 27t18 50q0 24 -14.5 44 t-38.5 38.5t-54 36.5t-61 38q-41 26 -79 56t-62.5 67t-24.5 84q0 38 15.5 69t45.5 53t73 34t99 12t96 -10t67.5 -25t41.5 -30l-25 -116h-88l25 116q9 -1 18 -11t14 -24t2 -25q-11 20 -31 35t-49.5 23.5t-71.5 8.5q-49 0 -82 -13t-49.5 -36.5t-16.5 -54.5q0 -33 22 -59 t56.5 -49t73.5 -48q44 -29 86 -56t69 -60.5t27 -80.5q0 -38 -14.5 -67t-41 -48.5t-63 -29t-82.5 -9.5z" glyph-name="section" horiz-adv-x="640" unicode="§"/><glyph d="M159 645q28 0 46.5 16t18.5 47q0 32 -18.5 48t-46.5 16t-46.5 -16t-18.5 -48q0 -31 18.5 -47t46.5 -16zM403 645q28 0 46.5 16t18.5 47q0 32 -18.5 48t-46.5 16t-46.5 -16t-18.5 -48q0 -31 18.5 -47t46.5 -16z" glyph-name="dieresis" horiz-adv-x="500" unicode="¨"/><glyph d="M435 510q-27 0 -49 -9.5t-37.5 -28.5t-24 -48.5t-8.5 -69.5q0 -52 14.5 -86.5t43.5 -51.5t69 -17t64.5 14.5t39.5 39.5t25 55l48 -19q-11 -41 -36 -72.5t-62 -49.5t-85 -18q-57 0 -102.5 24t-71.5 70t-26 111t25.5 111t69.5 70.5t98 24.5q38 0 68 -15t50 -44t26 -73 l-21 21l8 103h48v-146h-52q-9 32 -24.5 55t-40 36t-57.5 13zM113 355q0 -70 24 -130.5t67.5 -106t102 -71t128.5 -25.5t129 25.5t102.5 71t67.5 106t24 130.5t-24 130.5t-67.5 106t-102.5 71t-129 25.5t-128.5 -25.5t-102 -71t-67.5 -106t-24 -130.5zM55 355q0 81 29 151 t80.5 122t120.5 81t150 29t150.5 -29t121 -81t80.5 -122t29 -151t-29 -151t-80.5 -122t-121 -81t-150.5 -29t-150 29t-120.5 81t-80.5 122t-29 151z" glyph-name="copyright" horiz-adv-x="871" unicode="©"/><glyph d="M411 317q-28 0 -45 12.5t-17 38.5q0 12 2.5 31.5t5.5 41.5l-8 -8l38 191l4 4l48 91h48l-51 -243q-6 -27 -10.5 -44.5t-6.5 -27.5t-2 -16q0 -8 5 -12t14 -4q18 0 35 3.5t30 4.5l-8 -52q-11 -3 -24 -5.5t-27.5 -4t-30.5 -1.5zM210 310q-42 0 -69.5 18t-41 50.5t-13.5 76.5 q0 48 15.5 96t44.5 87.5t68.5 63t87.5 23.5q40 0 65.5 -17t40 -45.5t19.5 -63.5l-33 -36q-6 33 -17 57.5t-28 37.5t-44 13q-30 0 -55 -19t-43.5 -51t-28.5 -70.5t-10 -76.5q0 -29 5.5 -49t19 -30.5t35.5 -10.5q27 0 49 15t43.5 45t45.5 74l18 -31q-24 -47 -50 -82t-56 -55 t-68 -20z" glyph-name="ordfeminine" horiz-adv-x="574" unicode="ª"/><glyph d="M109 227l20 93l119 -250h-61l-133 190l10 45l214 175h63zM337 227l20 93l119 -250h-61l-133 190l10 45l214 175h63z" glyph-name="guillemotleft" horiz-adv-x="573" unicode="«"/><glyph d="M431 372l35 -41h-390l13 61h410l-51 -235h-64z" glyph-name="logicalnot" unicode="¬"/><glyph d="M90 333h305l-16 -75h-305z" glyph-name="softhyphen" horiz-adv-x="441" unicode="­"/><glyph d="M445 22q70 0 129 25.5t102.5 71t67.5 106t24 130.5t-24 130.5t-67.5 106t-102.5 71t-129 25.5t-128.5 -25.5t-102 -71t-67.5 -106t-24 -130.5t24 -130.5t67.5 -106t102 -71t128.5 -25.5zM445 -28q-81 0 -150 29t-120.5 81t-80.5 122t-29 151t29 151t80.5 122t120.5 81 t150 29t150.5 -29t121 -81t80.5 -122t29 -151t-29 -151t-80.5 -122t-121 -81t-150.5 -29zM271 153v45h6q20 0 33.5 3.5t13.5 15.5v273q0 12 -13.5 16t-34.5 4h-5v45h186q73 0 114 -31t41 -86q0 -36 -19.5 -63t-54.5 -42.5t-83 -15.5h-59v-114q0 -2 7 -3t18 -1.5t22 -0.5h8 v-45h-180zM456 508h-60v-147h59q42 0 62 18.5t20 57.5q0 38 -20 54.5t-61 16.5zM450 337l68 10l67 -134q5 -10 15.5 -13t24.5 -3h15v-43h-105z" glyph-name="registered" horiz-adv-x="871" unicode="®"/><glyph d="M113 735h325l-15 -68h-325z" glyph-name="macron" horiz-adv-x="500" unicode="¯"/><glyph d="M281 429q35 0 60.5 14.5t39.5 41t14 63.5q0 56 -30.5 87.5t-83.5 31.5q-35 0 -60.5 -14.5t-39 -40.5t-13.5 -64q0 -37 13.5 -63.5t39 -41t60.5 -14.5zM281 364q-55 0 -98.5 22.5t-68.5 64t-25 97.5q0 57 25 98t68.5 63.5t98.5 22.5q56 0 99.5 -22.5t68.5 -63.5t25 -98 q0 -56 -25 -97.5t-68.5 -64t-99.5 -22.5z" glyph-name="degree" horiz-adv-x="523" unicode="°"/><glyph d="M302 602h74l-96 -448h-74zM516 412l-14 -67h-434l14 67h434zM461 70l-14 -67h-434l14 67h434z" glyph-name="plusminus" unicode="±"/><glyph d="M260 430h-156q-3 -1 -5 -4.5t-1 -6.5t6 -3q49 24 94 45t82.5 41t65.5 42t43 48.5t15 59.5q0 51 -36 75.5t-101 24.5q-40 0 -73 -12t-53 -24l-18 -87h69l14 74q-8 -1 -15 -5.5t-12 -10t-9 -12.5q12 9 26 17t30.5 12.5t35.5 4.5q28 0 43.5 -13t15.5 -43q0 -34 -16.5 -59.5 t-47.5 -48t-76.5 -46.5t-103.5 -55l-16 -75h308l26 127h-44l-14 -40q-6 -16 -23 -21t-54 -5z" glyph-name="two.sup" horiz-adv-x="404" unicode="²"/><glyph d="M260 708q37 0 49.5 -12.5t12.5 -37.5q0 -23 -8.5 -39t-26.5 -24t-50 -8h-47l-8 -42h39q32 0 50 -7.5t26 -20.5t8 -30q0 -27 -8.5 -45.5t-27 -28.5t-47.5 -10q-38 0 -62 16t-36.5 37.5t-17.5 38.5l-49 -21q9 -30 28 -56.5t53 -42.5t86 -16q50 0 86.5 13.5t57 39t20.5 62.5 q0 21 -9 38t-27.5 29.5t-48 19.5t-70.5 8l10 -5q48 0 84 8.5t56 30t20 58.5q0 43 -36.5 67t-99.5 24q-27 0 -51 -5t-43.5 -13t-30.5 -17l-17 -81h68l14 70q-8 0 -15 -5t-12.5 -11.5t-10.5 -13.5q16 14 40 23t51 9z" glyph-name="three.sup" horiz-adv-x="404" unicode="³"/><glyph d="M262 753q12 20 23 34t24 21t29 7q21 0 34.5 -13t13.5 -32q0 -15 -7 -26.5t-19 -22t-27 -21.5l-118 -86h-30l4 23z" glyph-name="acute" horiz-adv-x="500" unicode="´"/><glyph d="M221 -10q-26 0 -47 7t-35.5 22t-22 37t-7.5 52l12 48q-8 -54 -11 -98.5t-3.5 -83.5t-1.5 -75t-4.5 -72.5t-11.5 -76.5h-94l168 787h89l-74 -345q-4 -22 -6.5 -38.5t-2.5 -30.5q0 -32 19 -50t56 -18q24 0 47 9.5t46 28t48 46t52 63.5l8 -30q-27 -41 -53 -74.5t-53 -57.5 t-55.5 -37t-62.5 -13zM498 -10q-29 0 -50 9t-32.5 28t-11.5 47q0 10 1 20t3 19t3 16l-5 6l87 402h89l-91 -422q-1 -8 -2.5 -15t-2.5 -12.5t-1 -10.5q0 -15 8 -21.5t22 -6.5q15 0 26 7t21 19t20 26l38 -30q-15 -25 -34 -43.5t-40.5 -28t-47.5 -9.5z" glyph-name="micro" horiz-adv-x="661" unicode="µ"/><glyph d="M684 710h-161l-152 -710h65l132 620q4 15 16.5 22.5t32.5 10.5t44 3h11zM552 710h-175l-12 -54h175zM256 0l152 710h-70q-81 0 -137.5 -26t-85.5 -73t-29 -108q0 -49 20.5 -86.5t59 -59t91.5 -21.5h4l-70 -336h65z" glyph-name="paragraph" horiz-adv-x="648" unicode="¶"/><glyph d="M229 339q0 -32 -22 -52t-57 -20q-33 0 -54.5 20t-21.5 52t21.5 52t54.5 20q35 0 57 -20t22 -52z" glyph-name="periodcentered" horiz-adv-x="284" unicode="·"/><glyph d="M239 -262q-35 0 -60.5 9.5t-43 26t-27.5 36.5l45 31q8 -13 18 -26t27 -21t42 -8q27 0 40 15t13 40q0 15 -7.5 27t-24.5 18.5t-46 6.5h-25l60 112h74l-84 -83l6 16q44 0 71.5 -11.5t41 -32.5t13.5 -48q0 -36 -17.5 -60t-47.5 -36t-68 -12z" glyph-name="cedilla" horiz-adv-x="550" unicode="¸"/><glyph d="M273 429q-3 -14 15 -19t50 -5h23l-7 -36h-272l7 36h32q29 0 48.5 5t22.5 19l57 265q6 4 8.5 6t3 1.5t-1.5 -4.5q-10 -19 -28 -31t-43.5 -17.5t-57.5 -5.5l11 50q37 1 62.5 6.5t43.5 17.5t33 30h62z" glyph-name="one.sup" horiz-adv-x="404" unicode="¹"/><glyph d="M269 312q-52 0 -92.5 20.5t-63 58.5t-22.5 89t16 95t45.5 78t71 53t93.5 19q53 0 93.5 -21t63 -59t22.5 -89q0 -50 -16 -94.5t-46 -78.5t-71.5 -52.5t-93.5 -18.5zM315 672q-24 0 -43.5 -8t-35 -22t-26.5 -33t-19 -42q-4 -15 -7.5 -31.5t-5 -32.5t-1.5 -33 q0 -33 10.5 -56.5t32 -36t52.5 -12.5q24 0 43.5 8t35 22t26.5 33t19 42q5 15 8 31t4.5 32.5t1.5 33.5q0 33 -10.5 56.5t-32 36t-52.5 12.5z" glyph-name="ordmasculine" horiz-adv-x="533" unicode="º"/><glyph d="M469 323l-20 -93l-119 250h61l133 -189l-10 -46l-214 -175h-63zM241 323l-20 -93l-119 250h61l134 -189l-10 -46l-214 -175h-63z" glyph-name="guillemotright" horiz-adv-x="573" unicode="»"/><glyph d="M272 429q-3 -14 15 -19t50 -5h23l-7 -36h-272l7 36h32q29 0 48.5 5t22.5 19l57 265q6 4 8.5 6t3 1.5t-1.5 -4.5q-10 -19 -28 -31t-43.5 -17.5t-57.5 -5.5l11 50q37 1 62.5 6.5t43.5 17.5t33 30h62zM799 710h70l-680 -710h-70zM494 93l14 63l224 222h41l-18 -36l-226 -225 l6 33h321l-12 -57h-350zM747 0h-76l77 354l8 24h73z" glyph-name="onequarter" horiz-adv-x="954" unicode="¼"/><glyph d="M272 429q-3 -14 15 -19t50 -5h23l-7 -36h-272l7 36h32q29 0 48.5 5t22.5 19l57 265q6 4 8.5 6t3 1.5t-1.5 -4.5q-10 -19 -28 -31t-43.5 -17.5t-57.5 -5.5l11 50q37 1 62.5 6.5t43.5 17.5t33 30h62zM799 710h70l-680 -710h-70zM752 61h-156q-3 -1 -5 -4.5t-1 -6.5t6 -3 q49 24 94 45t82.5 41t65.5 42t43 48.5t15 59.5q0 51 -36 75.5t-101 24.5q-40 0 -73 -12t-53 -24l-18 -87h69l14 74q-8 -1 -15 -5.5t-12 -10t-9 -12.5q12 9 26 17t30.5 12.5t35.5 4.5q28 0 43.5 -13t15.5 -43q0 -34 -16.5 -59.5t-47.5 -48t-76.5 -46.5t-103.5 -55l-16 -75 h308l26 127h-44l-14 -40q-6 -16 -23 -21t-54 -5z" glyph-name="onehalf" horiz-adv-x="978" unicode="½"/><glyph d="M269 708q37 0 49.5 -12.5t12.5 -37.5q0 -23 -8.5 -39t-26.5 -24t-50 -8h-47l-8 -42h39q32 0 50 -7.5t26 -20.5t8 -30q0 -27 -8.5 -45.5t-27 -28.5t-47.5 -10q-38 0 -62 16t-36.5 37.5t-17.5 38.5l-49 -21q9 -30 28 -56.5t53 -42.5t86 -16q50 0 86.5 13.5t57 39t20.5 62.5 q0 21 -9 38t-27.5 29.5t-48 19.5t-70.5 8l10 -5q48 0 84 8.5t56 30t20 58.5q0 43 -36.5 67t-99.5 24q-27 0 -51 -5t-43.5 -13t-30.5 -17l-17 -81h68l14 70q-8 0 -15 -5t-12.5 -11.5t-10.5 -13.5q16 14 40 23t51 9zM801 710h70l-680 -710h-70zM496 93l14 63l224 222h41 l-18 -36l-226 -225l6 33h321l-12 -57h-350zM749 0h-76l77 354l8 24h73z" glyph-name="threequarters" horiz-adv-x="956" unicode="¾"/><glyph d="M335 156q-53 -10 -96.5 -22.5t-75 -32t-48 -52t-16.5 -83.5q0 -40 15.5 -64.5t44 -35t67.5 -10.5t71.5 8t57 20t39.5 25q-3 -9 -7.5 -17t-12 -14.5t-18 -11t-25.5 -5.5l28 124h88l-31 -140q-15 -9 -42.5 -20.5t-66 -20t-85.5 -8.5q-65 0 -113.5 19t-75 57t-26.5 94 q0 60 23 101.5t60.5 67.5t83 40.5t90.5 22.5l25 118h80zM272 485q0 32 22 52t56 20t55.5 -20t21.5 -52t-21.5 -52t-55.5 -20t-56 20t-22 52z" glyph-name="questiondown" horiz-adv-x="537" unicode="¿"/><glyph d="M196 296h268l-1 -56h-291zM402 670l15 -5l-312 -590q-1 -5 10 -10t30.5 -7.5t42.5 -2.5h12l-12 -55h-244l12 55h6q28 0 49.5 9t38.5 41l326 611h107l72 -613q3 -31 19.5 -39.5t46.5 -8.5h5l-12 -55h-261l12 55h13q24 0 44 1t33 3.5t13 5.5zM444 780h34v24l-72 91 q-12 15 -21.5 26t-20.5 16.5t-27 5.5q-26 0 -39 -15.5t-13 -33.5q0 -14 7 -25t20 -20.5t30 -17.5z" glyph-name="Agrave" horiz-adv-x="697" unicode="À"/><glyph d="M196 296h268l-1 -56h-291zM402 670l15 -5l-312 -590q-1 -5 10 -10t30.5 -7.5t42.5 -2.5h12l-12 -55h-244l12 55h6q28 0 49.5 9t38.5 41l326 611h107l72 -613q3 -31 19.5 -39.5t46.5 -8.5h5l-12 -55h-261l12 55h13q24 0 44 1t33 3.5t13 5.5zM482 899q14 14 25.5 24t23 15 t25.5 5q21 0 33 -12t12 -30q0 -16 -9 -28t-25 -21.5t-38 -20.5l-108 -51h-33l5 24z" glyph-name="Aacute" horiz-adv-x="697" unicode="Á"/><glyph d="M196 296h268l-1 -56h-291zM402 670l15 -5l-312 -590q-1 -5 10 -10t30.5 -7.5t42.5 -2.5h12l-12 -55h-244l12 55h6q28 0 49.5 9t38.5 41l326 611h107l72 -613q3 -31 19.5 -39.5t46.5 -8.5h5l-12 -55h-261l12 55h13q24 0 44 1t33 3.5t13 5.5zM500 932h-82l-153 -145l-3 -17 h45l174 110l-61 2l123 -112h44l4 17z" glyph-name="Acircumflex" horiz-adv-x="697" unicode="Â"/><glyph d="M196 296h268l-1 -56h-291zM402 670l15 -5l-312 -590q-1 -5 10 -10t30.5 -7.5t42.5 -2.5h12l-12 -55h-244l12 55h6q28 0 49.5 9t38.5 41l326 611h107l72 -613q3 -31 19.5 -39.5t46.5 -8.5h5l-12 -55h-261l12 55h13q24 0 44 1t33 3.5t13 5.5zM497 777q-25 0 -43 8.5 t-30.5 21t-23 24.5t-21 20.5t-23.5 8.5q-21 0 -33.5 -19.5t-26.5 -66.5l-52 19q15 51 31 81.5t38 43t53 12.5q24 0 41.5 -8t29.5 -20t22.5 -24.5t21.5 -20.5t26 -8t25 9.5t19 28.5t20 48l51 -20q-15 -52 -33 -82t-40 -43t-52 -13z" glyph-name="Atilde" horiz-adv-x="697" unicode="Ã"/><glyph d="M196 296h268l-1 -56h-291zM402 670l15 -5l-312 -590q-1 -5 10 -10t30.5 -7.5t42.5 -2.5h12l-12 -55h-244l12 55h6q28 0 49.5 9t38.5 41l326 611h107l72 -613q3 -31 19.5 -39.5t46.5 -8.5h5l-12 -55h-261l12 55h13q24 0 44 1t33 3.5t13 5.5zM308 791q-28 0 -46.5 16 t-18.5 47q0 32 18.5 48t46.5 16t46.5 -16t18.5 -48q0 -31 -18.5 -47t-46.5 -16zM547 791q-28 0 -46.5 16t-18.5 47q0 32 18.5 48t46.5 16t46.5 -16t18.5 -48q0 -31 -18.5 -47t-46.5 -16z" glyph-name="Adieresis" horiz-adv-x="697" unicode="Ä"/><glyph d="M196 296h268l-1 -56h-291zM402 670l15 -5l-312 -590q-1 -5 10 -10t30.5 -7.5t42.5 -2.5h12l-12 -55h-244l12 55h6q28 0 49.5 9t38.5 41l326 611h107l72 -613q3 -31 19.5 -39.5t46.5 -8.5h5l-12 -55h-261l12 55h13q24 0 44 1t33 3.5t13 5.5zM449 947q-22 0 -36.5 -10.5 t-22 -27.5t-7.5 -38q0 -27 16 -41.5t42 -14.5q22 0 36.5 10.5t22 27.5t7.5 37q0 28 -16 42.5t-42 14.5zM441 772q-38 0 -66 13t-43 36t-15 53q0 35 17 60.5t47 40t68 14.5t66 -12.5t43 -35.5t15 -54q0 -34 -17 -60t-47 -40.5t-68 -14.5z" glyph-name="Aring" horiz-adv-x="697" unicode="Å"/><glyph d="M-43 55h6q29 0 50 11.5t46 41.5l424 514q3 14 -8.5 21t-31.5 10t-45 3h-11l13 54h633l-38 -196h-60l5 93q1 18 -10.5 27.5t-37 13t-68.5 3.5h-134l-126 -591h167q43 0 70 3.5t42.5 13t21.5 27.5l39 117h61l-47 -221h-556l13 55h11q36 0 62 6.5t30 30.5l119 556h-16 l-472 -573q-1 -5 10 -10t30 -7.5t43 -2.5h12l-12 -55h-247zM249 296h297v-56h-335zM612 392q44 2 88.5 4l89 4t88.5 3l-17 -78q-43 3 -87 5t-87.5 4t-87.5 3z" glyph-name="AE" horiz-adv-x="1047" unicode="Æ"/><glyph d="M371 45q48 0 87 15.5t69.5 42.5t54 64t40.5 79l57 -33q-28 -68 -71 -120t-103.5 -81t-139.5 -29q-70 0 -127.5 21.5t-100 63t-65.5 100t-23 131.5q0 68 17 131.5t49.5 117.5t79 94.5t104.5 63t126 22.5q52 0 92.5 -13t69 -39t46 -62.5t24.5 -84.5l-27 22l49 164h65 l-51 -238h-70q-7 60 -31.5 102t-66.5 64.5t-103 22.5q-53 0 -96.5 -21t-76.5 -57.5t-55.5 -84.5t-34 -103t-11.5 -112q0 -58 15 -103t43 -76t70 -47.5t95 -16.5zM290 -262q-35 0 -60.5 9.5t-43 26t-27.5 36.5l45 31q8 -13 18 -26t27 -21t42 -8q27 0 40 15t13 40 q0 15 -7.5 27t-24.5 18.5t-46 6.5h-25l60 112h74l-84 -83l6 16q44 0 71.5 -11.5t41 -32.5t13.5 -48q0 -36 -17.5 -60t-47.5 -36t-68 -12z" glyph-name="Ccedilla" horiz-adv-x="740" unicode="Ç"/><glyph d="M586 222l-47 -222h-558l12 55h11q36 0 62 6.5t31 30.5l111 528q5 22 -17.5 29t-59.5 7h-11l12 54h522l-38 -197h-60l5 93q1 18 -10.5 27.5t-37 13t-68.5 3.5h-137l-125 -589h169q43 0 70 3.5t42.5 13t21.5 27.5l39 117h61zM230 392q45 3 90 4.5t89.5 3.5t89.5 4l-17 -79 q-43 2 -87.5 4t-88.5 4.5t-88 3.5zM449 780h34v24l-72 91q-12 15 -21.5 26t-20.5 16.5t-27 5.5q-26 0 -39 -15.5t-13 -33.5q0 -14 7 -25t20 -20.5t30 -17.5z" glyph-name="Egrave" horiz-adv-x="668" unicode="È"/><glyph d="M586 222l-47 -222h-558l12 55h11q36 0 62 6.5t31 30.5l111 528q5 22 -17.5 29t-59.5 7h-11l12 54h522l-38 -197h-60l5 93q1 18 -10.5 27.5t-37 13t-68.5 3.5h-137l-125 -589h169q43 0 70 3.5t42.5 13t21.5 27.5l39 117h61zM230 392q45 3 90 4.5t89.5 3.5t89.5 4l-17 -79 q-43 2 -87.5 4t-88.5 4.5t-88 3.5zM436 899q14 14 25.5 24t23 15t25.5 5q21 0 33 -12t12 -30q0 -16 -9 -28t-25 -21.5t-38 -20.5l-108 -51h-33l5 24z" glyph-name="Eacute" horiz-adv-x="668" unicode="É"/><glyph d="M586 222l-47 -222h-558l12 55h11q36 0 62 6.5t31 30.5l111 528q5 22 -17.5 29t-59.5 7h-11l12 54h522l-38 -197h-60l5 93q1 18 -10.5 27.5t-37 13t-68.5 3.5h-137l-125 -589h169q43 0 70 3.5t42.5 13t21.5 27.5l39 117h61zM230 392q45 3 90 4.5t89.5 3.5t89.5 4l-17 -79 q-43 2 -87.5 4t-88.5 4.5t-88 3.5zM484 932h-82l-153 -145l-3 -17h45l174 110l-61 2l123 -112h44l4 17z" glyph-name="Ecircumflex" horiz-adv-x="668" unicode="Ê"/><glyph d="M586 222l-47 -222h-558l12 55h11q36 0 62 6.5t31 30.5l111 528q5 22 -17.5 29t-59.5 7h-11l12 54h522l-38 -197h-60l5 93q1 18 -10.5 27.5t-37 13t-68.5 3.5h-137l-125 -589h169q43 0 70 3.5t42.5 13t21.5 27.5l39 117h61zM230 392q45 3 90 4.5t89.5 3.5t89.5 4l-17 -79 q-43 2 -87.5 4t-88.5 4.5t-88 3.5zM296 791q-28 0 -46.5 16t-18.5 47q0 32 18.5 48t46.5 16t46.5 -16t18.5 -48q0 -31 -18.5 -47t-46.5 -16zM535 791q-28 0 -46.5 16t-18.5 47q0 32 18.5 48t46.5 16t46.5 -16t18.5 -48q0 -31 -18.5 -47t-46.5 -16z" glyph-name="Edieresis" horiz-adv-x="668" unicode="Ë"/><glyph d="M101 88l112 532q4 22 -18.5 29t-59.5 7h-15l12 54h294l-13 -54h-15q-36 0 -62 -6.5t-30 -27.5l-112 -531q-5 -22 17.5 -29t59.5 -7h16l-13 -55h-293l12 55h16q36 0 61.5 6.5t30.5 26.5zM325 780h34v24l-72 91q-12 15 -21.5 26t-20.5 16.5t-27 5.5q-26 0 -39 -15.5 t-13 -33.5q0 -14 7 -25t20 -20.5t30 -17.5z" glyph-name="Igrave" horiz-adv-x="399" unicode="Ì"/><glyph d="M101 88l112 532q4 22 -18.5 29t-59.5 7h-15l12 54h294l-13 -54h-15q-36 0 -62 -6.5t-30 -27.5l-112 -531q-5 -22 17.5 -29t59.5 -7h16l-13 -55h-293l12 55h16q36 0 61.5 6.5t30.5 26.5zM315 899q14 14 25.5 24t23 15t25.5 5q21 0 33 -12t12 -30q0 -16 -9 -28t-25 -21.5 t-38 -20.5l-108 -51h-33l5 24z" glyph-name="Iacute" horiz-adv-x="399" unicode="Í"/><glyph d="M101 88l112 532q4 22 -18.5 29t-59.5 7h-15l12 54h294l-13 -54h-15q-36 0 -62 -6.5t-30 -27.5l-112 -531q-5 -22 17.5 -29t59.5 -7h16l-13 -55h-293l12 55h16q36 0 61.5 6.5t30.5 26.5zM359 932h-82l-153 -145l-3 -17h45l174 110l-61 2l123 -112h44l4 17z" glyph-name="Icircumflex" horiz-adv-x="399" unicode="Î"/><glyph d="M101 88l112 532q4 22 -18.5 29t-59.5 7h-15l12 54h294l-13 -54h-15q-36 0 -62 -6.5t-30 -27.5l-112 -531q-5 -22 17.5 -29t59.5 -7h16l-13 -55h-293l12 55h16q36 0 61.5 6.5t30.5 26.5zM175 791q-28 0 -46.5 16t-18.5 47q0 32 18.5 48t46.5 16t46.5 -16t18.5 -48 q0 -31 -18.5 -47t-46.5 -16zM414 791q-28 0 -46.5 16t-18.5 47q0 32 18.5 48t46.5 16t46.5 -16t18.5 -48q0 -31 -18.5 -47t-46.5 -16z" glyph-name="Idieresis" horiz-adv-x="399" unicode="Ï"/><glyph d="M41 329l13 57h400l-13 -57h-400zM133 710h249q82 0 148 -19.5t113 -58t72.5 -93.5t25.5 -126t-18 -133.5t-53 -113.5t-86 -88.5t-118.5 -57.5t-149.5 -20h-335l12 55h12q37 0 62.5 7t29.5 29l112 529q5 21 -17.5 28.5t-59.5 7.5h-12zM381 650h-72l-126 -589h127 q60 0 107.5 12t84.5 34.5t63.5 54t43.5 71t25 85t8 96.5q0 76 -28 129t-85.5 80t-147.5 27z" glyph-name="Eth" horiz-adv-x="787" unicode="Ð"/><glyph d="M-19 0l12 55h11q24 0 44 2.5t33 10.5t16 22l111 530q4 15 -6 22.5t-28 10.5t-43 3h-11l12 54h221l218 -625l-12 -4l119 565q1 4 -12.5 6t-33.5 3t-39 1h-14l12 54h265l-13 -54h-11q-36 0 -62 -6.5t-30 -27.5l-132 -622h-98l-237 674l14 3l-129 -612q0 -3 13 -5.5 t33.5 -3.5t39.5 -1h14l-13 -55h-264zM572 777q-25 0 -43 8.5t-30.5 21t-23 24.5t-21 20.5t-23.5 8.5q-21 0 -33.5 -19.5t-26.5 -66.5l-52 19q15 51 31 81.5t38 43t53 12.5q24 0 41.5 -8t29.5 -20t22.5 -24.5t21.5 -20.5t26 -8t25 9.5t19 28.5t20 48l51 -20q-15 -52 -33 -82 t-40 -43t-52 -13z" glyph-name="Ntilde" horiz-adv-x="825" unicode="Ñ"/><glyph d="M362 -17q-76 0 -134.5 24.5t-98 68t-60 101t-20.5 123.5q0 63 16.5 125t49 116.5t79.5 96.5t109.5 66t138.5 24t134.5 -24.5t98 -68t60 -101.5t20.5 -123q0 -64 -16.5 -126t-49 -116.5t-79.5 -96t-109.5 -65.5t-138.5 -24zM439 666q-47 0 -87.5 -13.5t-73 -40t-58 -66 t-42.5 -91.5q-11 -26 -17.5 -54t-9.5 -56.5t-3 -56.5q0 -53 13 -97.5t39.5 -77.5t67.5 -50.5t97 -17.5q47 0 87.5 13t73 39.5t58 66t42.5 91.5q11 28 17.5 55.5t9.5 55.5t3 56q0 54 -13 98t-39.5 77t-67.5 51t-97 18zM501 780h34v24l-72 91q-12 15 -21.5 26t-20.5 16.5 t-27 5.5q-26 0 -39 -15.5t-13 -33.5q0 -14 7 -25t20 -20.5t30 -17.5z" glyph-name="Ograve" horiz-adv-x="802" unicode="Ò"/><glyph d="M362 -17q-76 0 -134.5 24.5t-98 68t-60 101t-20.5 123.5q0 63 16.5 125t49 116.5t79.5 96.5t109.5 66t138.5 24t134.5 -24.5t98 -68t60 -101.5t20.5 -123q0 -64 -16.5 -126t-49 -116.5t-79.5 -96t-109.5 -65.5t-138.5 -24zM439 666q-47 0 -87.5 -13.5t-73 -40t-58 -66 t-42.5 -91.5q-11 -26 -17.5 -54t-9.5 -56.5t-3 -56.5q0 -53 13 -97.5t39.5 -77.5t67.5 -50.5t97 -17.5q47 0 87.5 13t73 39.5t58 66t42.5 91.5q11 28 17.5 55.5t9.5 55.5t3 56q0 54 -13 98t-39.5 77t-67.5 51t-97 18zM495 899q14 14 25.5 24t23 15t25.5 5q21 0 33 -12 t12 -30q0 -16 -9 -28t-25 -21.5t-38 -20.5l-108 -51h-33l5 24z" glyph-name="Oacute" horiz-adv-x="802" unicode="Ó"/><glyph d="M362 -17q-76 0 -134.5 24.5t-98 68t-60 101t-20.5 123.5q0 63 16.5 125t49 116.5t79.5 96.5t109.5 66t138.5 24t134.5 -24.5t98 -68t60 -101.5t20.5 -123q0 -64 -16.5 -126t-49 -116.5t-79.5 -96t-109.5 -65.5t-138.5 -24zM439 666q-47 0 -87.5 -13.5t-73 -40t-58 -66 t-42.5 -91.5q-11 -26 -17.5 -54t-9.5 -56.5t-3 -56.5q0 -53 13 -97.5t39.5 -77.5t67.5 -50.5t97 -17.5q47 0 87.5 13t73 39.5t58 66t42.5 91.5q11 28 17.5 55.5t9.5 55.5t3 56q0 54 -13 98t-39.5 77t-67.5 51t-97 18zM536 932h-82l-153 -145l-3 -17h45l174 110l-61 2 l123 -112h44l4 17z" glyph-name="Ocircumflex" horiz-adv-x="802" unicode="Ô"/><glyph d="M362 -17q-76 0 -134.5 24.5t-98 68t-60 101t-20.5 123.5q0 63 16.5 125t49 116.5t79.5 96.5t109.5 66t138.5 24t134.5 -24.5t98 -68t60 -101.5t20.5 -123q0 -64 -16.5 -126t-49 -116.5t-79.5 -96t-109.5 -65.5t-138.5 -24zM439 666q-47 0 -87.5 -13.5t-73 -40t-58 -66 t-42.5 -91.5q-11 -26 -17.5 -54t-9.5 -56.5t-3 -56.5q0 -53 13 -97.5t39.5 -77.5t67.5 -50.5t97 -17.5q47 0 87.5 13t73 39.5t58 66t42.5 91.5q11 28 17.5 55.5t9.5 55.5t3 56q0 54 -13 98t-39.5 77t-67.5 51t-97 18zM528 777q-25 0 -43 8.5t-30.5 21t-23 24.5t-21 20.5 t-23.5 8.5q-21 0 -33.5 -19.5t-26.5 -66.5l-52 19q15 51 31 81.5t38 43t53 12.5q24 0 41.5 -8t29.5 -20t22.5 -24.5t21.5 -20.5t26 -8t25 9.5t19 28.5t20 48l51 -20q-15 -52 -33 -82t-40 -43t-52 -13z" glyph-name="Otilde" horiz-adv-x="802" unicode="Õ"/><glyph d="M362 -17q-76 0 -134.5 24.5t-98 68t-60 101t-20.5 123.5q0 63 16.5 125t49 116.5t79.5 96.5t109.5 66t138.5 24t134.5 -24.5t98 -68t60 -101.5t20.5 -123q0 -64 -16.5 -126t-49 -116.5t-79.5 -96t-109.5 -65.5t-138.5 -24zM439 666q-47 0 -87.5 -13.5t-73 -40t-58 -66 t-42.5 -91.5q-11 -26 -17.5 -54t-9.5 -56.5t-3 -56.5q0 -53 13 -97.5t39.5 -77.5t67.5 -50.5t97 -17.5q47 0 87.5 13t73 39.5t58 66t42.5 91.5q11 28 17.5 55.5t9.5 55.5t3 56q0 54 -13 98t-39.5 77t-67.5 51t-97 18zM341 791q-28 0 -46.5 16t-18.5 47q0 32 18.5 48t46.5 16 t46.5 -16t18.5 -48q0 -31 -18.5 -47t-46.5 -16zM580 791q-28 0 -46.5 16t-18.5 47q0 32 18.5 48t46.5 16t46.5 -16t18.5 -48q0 -31 -18.5 -47t-46.5 -16z" glyph-name="Odieresis" horiz-adv-x="802" unicode="Ö"/><glyph d="M95 141l-39 51l416 348l39 -51zM393 141l-273 355l55 44l273 -355z" glyph-name="multiply" unicode="×"/><glyph d="M362 -17q-76 0 -134.5 24.5t-98 68t-60 101t-20.5 123.5q0 63 16.5 125t49 116.5t79.5 96.5t109.5 66t138.5 24t134.5 -24.5t98 -68t60 -101.5t20.5 -123q0 -64 -16.5 -126t-49 -116.5t-79.5 -96t-109.5 -65.5t-138.5 -24zM365 45q51 0 93.5 15t76.5 44.5t59.5 73 t41.5 100.5q8 25 12.5 49t6 48t1.5 47q0 60 -11.5 105.5t-37 76.5t-67 46.5t-101.5 15.5q-51 0 -93.5 -15.5t-76.5 -45t-59.5 -73t-41.5 -99.5q-7 -24 -12 -48.5t-6.5 -48.5t-1.5 -48q0 -59 11.5 -104.5t37 -76.5t67 -46.5t101.5 -15.5zM-64 -20l837 750h86l-837 -750h-86z" glyph-name="Oslash" horiz-adv-x="802" unicode="Ø"/><glyph d="M224 340q-7 -32 -11.5 -56.5t-6.5 -44t-2 -38.5q0 -35 11 -62.5t33 -46.5t52.5 -28.5t70.5 -9.5q56 0 97 22t68.5 71t44.5 130l77 359q2 6 -11 10.5t-33 7t-39 2.5h-9l12 54h260l-12 -54h-11q-37 0 -63 -10t-31 -36l-73 -338q-22 -105 -63.5 -168.5t-99.5 -92t-128 -28.5 q-54 0 -99.5 14t-78 41.5t-50 68t-17.5 92.5q0 21 2 42.5t6.5 48.5t12.5 61l56 271q4 21 -19 27.5t-59 6.5h-11l12 54h286l-12 -54h-9q-19 0 -39.5 -1t-34.5 -3t-15 -6zM515 780h34v24l-72 91q-12 15 -21.5 26t-20.5 16.5t-27 5.5q-26 0 -39 -15.5t-13 -33.5q0 -14 7 -25 t20 -20.5t30 -17.5z" glyph-name="Ugrave" horiz-adv-x="800" unicode="Ù"/><glyph d="M224 340q-7 -32 -11.5 -56.5t-6.5 -44t-2 -38.5q0 -35 11 -62.5t33 -46.5t52.5 -28.5t70.5 -9.5q56 0 97 22t68.5 71t44.5 130l77 359q2 6 -11 10.5t-33 7t-39 2.5h-9l12 54h260l-12 -54h-11q-37 0 -63 -10t-31 -36l-73 -338q-22 -105 -63.5 -168.5t-99.5 -92t-128 -28.5 q-54 0 -99.5 14t-78 41.5t-50 68t-17.5 92.5q0 21 2 42.5t6.5 48.5t12.5 61l56 271q4 21 -19 27.5t-59 6.5h-11l12 54h286l-12 -54h-9q-19 0 -39.5 -1t-34.5 -3t-15 -6zM541 899q14 14 25.5 24t23 15t25.5 5q21 0 33 -12t12 -30q0 -16 -9 -28t-25 -21.5t-38 -20.5l-108 -51 h-33l5 24z" glyph-name="Uacute" horiz-adv-x="800" unicode="Ú"/><glyph d="M224 340q-7 -32 -11.5 -56.5t-6.5 -44t-2 -38.5q0 -35 11 -62.5t33 -46.5t52.5 -28.5t70.5 -9.5q56 0 97 22t68.5 71t44.5 130l77 359q2 6 -11 10.5t-33 7t-39 2.5h-9l12 54h260l-12 -54h-11q-37 0 -63 -10t-31 -36l-73 -338q-22 -105 -63.5 -168.5t-99.5 -92t-128 -28.5 q-54 0 -99.5 14t-78 41.5t-50 68t-17.5 92.5q0 21 2 42.5t6.5 48.5t12.5 61l56 271q4 21 -19 27.5t-59 6.5h-11l12 54h286l-12 -54h-9q-19 0 -39.5 -1t-34.5 -3t-15 -6zM577 932h-82l-153 -145l-3 -17h45l174 110l-61 2l123 -112h44l4 17z" glyph-name="Ucircumflex" horiz-adv-x="800" unicode="Û"/><glyph d="M224 340q-7 -32 -11.5 -56.5t-6.5 -44t-2 -38.5q0 -35 11 -62.5t33 -46.5t52.5 -28.5t70.5 -9.5q56 0 97 22t68.5 71t44.5 130l77 359q2 6 -11 10.5t-33 7t-39 2.5h-9l12 54h260l-12 -54h-11q-37 0 -63 -10t-31 -36l-73 -338q-22 -105 -63.5 -168.5t-99.5 -92t-128 -28.5 q-54 0 -99.5 14t-78 41.5t-50 68t-17.5 92.5q0 21 2 42.5t6.5 48.5t12.5 61l56 271q4 21 -19 27.5t-59 6.5h-11l12 54h286l-12 -54h-9q-19 0 -39.5 -1t-34.5 -3t-15 -6zM400 791q-28 0 -46.5 16t-18.5 47q0 32 18.5 48t46.5 16t46.5 -16t18.5 -48q0 -31 -18.5 -47t-46.5 -16 zM639 791q-28 0 -46.5 16t-18.5 47q0 32 18.5 48t46.5 16t46.5 -16t18.5 -48q0 -31 -18.5 -47t-46.5 -16z" glyph-name="Udieresis" horiz-adv-x="800" unicode="Ü"/><glyph d="M113 0l13 55h18q38 0 64 7t30 29l47 221v-45l-133 359q-5 14 -14.5 20.5t-23 8t-31.5 1.5h-9l12 54h257l-13 -54h-16q-16 0 -34 -1.5t-30.5 -3.5t-13.5 -6l120 -331l-28 2l246 319q1 7 -10 11.5t-28 7t-34 2.5h-14l12 54h241l-12 -54h-9q-17 0 -32 -3.5t-29 -13 t-29 -27.5l-271 -346l19 46l-47 -221q-3 -14 6.5 -22t28.5 -11t44 -3h18l-12 -55h-303zM466 899q14 14 25.5 24t23 15t25.5 5q21 0 33 -12t12 -30q0 -16 -9 -28t-25 -21.5t-38 -20.5l-108 -51h-33l5 24z" glyph-name="Yacute" horiz-adv-x="683" unicode="Ý"/><glyph d="M307 646l-123 -581q-1 -3 11.5 -5.5t32.5 -3.5t40 -1h24l-13 -55h-298l12 55h11q37 0 62.5 7t30.5 29l112 529q4 22 -18.5 29t-59.5 7h-11l13 54h288l-12 -54h-18q-18 0 -37.5 -1t-32.5 -3t-14 -6zM160 165l12 58h178q45 0 77.5 12t54.5 33.5t32.5 51t10.5 63.5 q0 36 -15.5 62t-46 40.5t-79.5 14.5h-145l-2 59h150q77 0 129.5 -22t79.5 -61t27 -91q0 -66 -33.5 -115.5t-97 -77t-152.5 -27.5h-180z" glyph-name="Thorn" horiz-adv-x="667" unicode="Þ"/><glyph d="M65 537h159l-12 -58h-159zM48 -223l127 808q10 67 40 108t75 59.5t101 18.5q64 0 105 -20t60.5 -54.5t19.5 -77.5q0 -47 -18.5 -83.5t-50.5 -61t-72.5 -37t-84.5 -12.5l48 13l-7 -24l-25 19q65 -12 112 -40.5t73 -71t26 -99.5q0 -55 -17 -98t-47.5 -73t-71.5 -45.5 t-87 -15.5q-39 0 -67.5 8t-41.5 15l13 61q5 -1 19 -7.5t35 -12t44 -5.5q28 0 51.5 11.5t40.5 34.5t27 56t10 75q0 41 -12.5 71t-35 51.5t-54.5 33t-72 15.5l14 63q38 1 68 10.5t51.5 29t33 50t11.5 71.5q0 31 -11 51.5t-32.5 30.5t-55.5 10q-37 0 -61.5 -12t-39.5 -39 t-23 -73l-146 -812h-72z" glyph-name="germandbls" horiz-adv-x="627" unicode="ß"/><glyph d="M497 376l-34 -43q-8 47 -24.5 81t-42.5 52.5t-65 18.5q-34 0 -63.5 -18t-53 -48.5t-40 -70t-25.5 -83t-9 -85.5t8.5 -71t28 -44.5t51.5 -15.5q38 0 69.5 20.5t63 60t66.5 98.5l19 -30q-33 -63 -69 -110t-76.5 -73.5t-91.5 -26.5q-55 0 -91.5 24t-54 67.5t-17.5 103.5 q0 52 13 103.5t38 98.5t60 83.5t78.5 57.5t94.5 21q50 0 83 -23t53 -61.5t31 -86.5zM572 538l-71 -333q-8 -40 -14.5 -65.5t-9.5 -40t-3 -21.5q0 -10 6 -15t18 -5q25 0 49.5 4.5t42.5 6.5l-11 -58q-14 -3 -31 -6.5t-34.5 -5.5t-37.5 -2q-23 0 -39.5 8t-25.5 23t-9 37 q0 12 2 37t6 60l-8 -8l52 255l5 6l53 123h60zM365 753q-8 20 -16.5 34t-20 21t-28.5 7q-23 0 -37.5 -14.5t-14.5 -34.5q0 -11 4.5 -21t12 -19.5t17.5 -19.5l96 -92h33l2 23z" glyph-name="agrave" horiz-adv-x="635" unicode="à"/><glyph d="M497 376l-34 -43q-8 47 -24.5 81t-42.5 52.5t-65 18.5q-34 0 -63.5 -18t-53 -48.5t-40 -70t-25.5 -83t-9 -85.5t8.5 -71t28 -44.5t51.5 -15.5q38 0 69.5 20.5t63 60t66.5 98.5l19 -30q-33 -63 -69 -110t-76.5 -73.5t-91.5 -26.5q-55 0 -91.5 24t-54 67.5t-17.5 103.5 q0 52 13 103.5t38 98.5t60 83.5t78.5 57.5t94.5 21q50 0 83 -23t53 -61.5t31 -86.5zM572 538l-71 -333q-8 -40 -14.5 -65.5t-9.5 -40t-3 -21.5q0 -10 6 -15t18 -5q25 0 49.5 4.5t42.5 6.5l-11 -58q-14 -3 -31 -6.5t-34.5 -5.5t-37.5 -2q-23 0 -39.5 8t-25.5 23t-9 37 q0 12 2 37t6 60l-8 -8l52 255l5 6l53 123h60zM377 753q12 20 23 34t24 21t29 7q21 0 34.5 -13t13.5 -32q0 -15 -7 -26.5t-19 -22t-27 -21.5l-118 -86h-30l4 23z" glyph-name="aacute" horiz-adv-x="635" unicode="á"/><glyph d="M497 376l-34 -43q-8 47 -24.5 81t-42.5 52.5t-65 18.5q-34 0 -63.5 -18t-53 -48.5t-40 -70t-25.5 -83t-9 -85.5t8.5 -71t28 -44.5t51.5 -15.5q38 0 69.5 20.5t63 60t66.5 98.5l19 -30q-33 -63 -69 -110t-76.5 -73.5t-91.5 -26.5q-55 0 -91.5 24t-54 67.5t-17.5 103.5 q0 52 13 103.5t38 98.5t60 83.5t78.5 57.5t94.5 21q50 0 83 -23t53 -61.5t31 -86.5zM572 538l-71 -333q-8 -40 -14.5 -65.5t-9.5 -40t-3 -21.5q0 -10 6 -15t18 -5q25 0 49.5 4.5t42.5 6.5l-11 -58q-14 -3 -31 -6.5t-34.5 -5.5t-37.5 -2q-23 0 -39.5 8t-25.5 23t-9 37 q0 12 2 37t6 60l-8 -8l52 255l5 6l53 123h60zM429 798h-72l-154 -165l-4 -15h43l157 120l-45 13l115 -133h40l3 15z" glyph-name="acircumflex" horiz-adv-x="635" unicode="â"/><glyph d="M497 376l-34 -43q-8 47 -24.5 81t-42.5 52.5t-65 18.5q-34 0 -63.5 -18t-53 -48.5t-40 -70t-25.5 -83t-9 -85.5t8.5 -71t28 -44.5t51.5 -15.5q38 0 69.5 20.5t63 60t66.5 98.5l19 -30q-33 -63 -69 -110t-76.5 -73.5t-91.5 -26.5q-55 0 -91.5 24t-54 67.5t-17.5 103.5 q0 52 13 103.5t38 98.5t60 83.5t78.5 57.5t94.5 21q50 0 83 -23t53 -61.5t31 -86.5zM572 538l-71 -333q-8 -40 -14.5 -65.5t-9.5 -40t-3 -21.5q0 -10 6 -15t18 -5q25 0 49.5 4.5t42.5 6.5l-11 -58q-14 -3 -31 -6.5t-34.5 -5.5t-37.5 -2q-23 0 -39.5 8t-25.5 23t-9 37 q0 12 2 37t6 60l-8 -8l52 255l5 6l53 123h60zM424 625q-27 0 -45.5 9.5t-31 24t-22.5 28.5t-19.5 23.5t-21.5 9.5q-22 0 -34 -23t-27 -74l-52 18q15 56 32.5 88t39.5 45.5t52 13.5q26 0 43.5 -9.5t29.5 -23.5t22 -28t20.5 -23t23.5 -9q17 0 27 11t18.5 32.5t19.5 53.5 l51 -20q-16 -56 -33.5 -88t-40 -45.5t-52.5 -13.5z" glyph-name="atilde" horiz-adv-x="635" unicode="ã"/><glyph d="M497 376l-34 -43q-8 47 -24.5 81t-42.5 52.5t-65 18.5q-34 0 -63.5 -18t-53 -48.5t-40 -70t-25.5 -83t-9 -85.5t8.5 -71t28 -44.5t51.5 -15.5q38 0 69.5 20.5t63 60t66.5 98.5l19 -30q-33 -63 -69 -110t-76.5 -73.5t-91.5 -26.5q-55 0 -91.5 24t-54 67.5t-17.5 103.5 q0 52 13 103.5t38 98.5t60 83.5t78.5 57.5t94.5 21q50 0 83 -23t53 -61.5t31 -86.5zM572 538l-71 -333q-8 -40 -14.5 -65.5t-9.5 -40t-3 -21.5q0 -10 6 -15t18 -5q25 0 49.5 4.5t42.5 6.5l-11 -58q-14 -3 -31 -6.5t-34.5 -5.5t-37.5 -2q-23 0 -39.5 8t-25.5 23t-9 37 q0 12 2 37t6 60l-8 -8l52 255l5 6l53 123h60zM244 645q28 0 46.5 16t18.5 47q0 32 -18.5 48t-46.5 16t-46.5 -16t-18.5 -48q0 -31 18.5 -47t46.5 -16zM488 645q28 0 46.5 16t18.5 47q0 32 -18.5 48t-46.5 16t-46.5 -16t-18.5 -48q0 -31 18.5 -47t46.5 -16z" glyph-name="adieresis" horiz-adv-x="635" unicode="ä"/><glyph d="M497 376l-34 -43q-8 47 -24.5 81t-42.5 52.5t-65 18.5q-34 0 -63.5 -18t-53 -48.5t-40 -70t-25.5 -83t-9 -85.5t8.5 -71t28 -44.5t51.5 -15.5q38 0 69.5 20.5t63 60t66.5 98.5l19 -30q-33 -63 -69 -110t-76.5 -73.5t-91.5 -26.5q-55 0 -91.5 24t-54 67.5t-17.5 103.5 q0 52 13 103.5t38 98.5t60 83.5t78.5 57.5t94.5 21q50 0 83 -23t53 -61.5t31 -86.5zM572 538l-71 -333q-8 -40 -14.5 -65.5t-9.5 -40t-3 -21.5q0 -10 6 -15t18 -5q25 0 49.5 4.5t42.5 6.5l-11 -58q-14 -3 -31 -6.5t-34.5 -5.5t-37.5 -2q-23 0 -39.5 8t-25.5 23t-9 37 q0 12 2 37t6 60l-8 -8l52 255l5 6l53 123h60zM364 776q-22 0 -36.5 -10.5t-22 -27.5t-7.5 -38q0 -27 16 -41.5t42 -14.5q22 0 36.5 10.5t22 27.5t7.5 37q0 28 -16 42.5t-42 14.5zM488 716q0 -34 -17 -60t-47 -40.5t-68 -14.5t-66 13t-43 36t-15 53q0 35 17 60.5t47 40 t68 14.5t66 -12.5t43 -35.5t15 -54z" glyph-name="aring" horiz-adv-x="635" unicode="å"/><glyph d="M302 487q-37 0 -66 -8t-49.5 -19t-33.5 -21q1 9 6.5 19t14.5 19.5t20 15t23 6.5l-27 -125h-88l28 130q16 8 43 18t62.5 17.5t76.5 7.5q51 0 90 -12t62 -39t23 -73l-3 -49l-90 -74l15 65q5 18 6.5 29t1.5 21q0 24 -12.5 39.5t-37.5 24t-65 8.5zM207 -11q-50 0 -88 16.5 t-59.5 47.5t-21.5 71q0 48 21.5 81.5t68 55.5t122 34t182.5 16l-12 -52q-71 -4 -121.5 -11t-83 -18t-51 -25.5t-26 -34t-7.5 -43.5q0 -36 23 -57t67 -21q38 0 68 15.5t58.5 45.5t60.5 75l28 -38q-36 -51 -69.5 -86t-71.5 -53.5t-88 -18.5zM605 -12q-67 0 -117 27t-77.5 77.5 t-27.5 120.5q0 26 5 52t14 48t22 39.5t29 26.5q12 34 32 64.5t48.5 53.5t63.5 36.5t75 13.5q55 0 92.5 -17.5t57 -48t19.5 -69.5q0 -46 -23.5 -81.5t-71 -60t-120.5 -36t-174 -11.5l6 52q88 0 145.5 9.5t91 26.5t47 42.5t13.5 57.5q0 37 -23 56t-68 19q-44 0 -79.5 -22 t-60.5 -60.5t-38.5 -89t-13.5 -107.5q0 -56 17 -91t49 -51t75 -16q37 0 67 11.5t54 32t45 45.5l33 -48q-23 -29 -54.5 -52t-69.5 -36.5t-83 -13.5z" glyph-name="ae" horiz-adv-x="873" unicode="æ"/><glyph d="M283 48q43 0 74 17t54 42.5t37 50.5l49 -33q-25 -46 -59 -77t-75 -45.5t-87 -14.5q-50 0 -92.5 14.5t-73.5 43.5t-47.5 71t-16.5 97q0 68 21.5 128.5t62 106.5t97 72t127.5 26q45 0 81 -7.5t63.5 -20t46.5 -25.5l-35 -148h-89l31 131q12 -2 21 -8t14.5 -14t7 -17 t-1.5 -17q-12 18 -31.5 33t-48 23.5t-65.5 8.5q-43 0 -77 -15.5t-59 -43.5t-41 -63.5t-23.5 -76.5t-7.5 -82q0 -52 16.5 -87t49 -52.5t77.5 -17.5zM215 -262q-35 0 -60.5 9.5t-43 26t-27.5 36.5l45 31q8 -13 18 -26t27 -21t42 -8q27 0 40 15t13 40q0 15 -7.5 27t-24.5 18.5 t-46 6.5h-25l60 112h74l-84 -83l6 16q44 0 71.5 -11.5t41 -32.5t13.5 -48q0 -36 -17.5 -60t-47.5 -36t-68 -12z" glyph-name="ccedilla" horiz-adv-x="559" unicode="ç"/><glyph d="M266 -12q-66 0 -115.5 26.5t-77 76.5t-27.5 121q0 66 20.5 126t58.5 107t91.5 74.5t118.5 27.5q57 0 95 -18t57 -48.5t19 -69.5q0 -48 -24.5 -85t-73.5 -62.5t-122 -38t-171 -13.5l6 52q85 1 143 11.5t92.5 28.5t49.5 44.5t15 60.5q0 25 -10.5 42t-31 26t-51.5 9 q-43 0 -78.5 -22t-61 -61t-39.5 -89.5t-14 -108.5q0 -53 16 -87.5t46.5 -51.5t74.5 -17q39 0 69 14.5t52.5 38t38.5 50.5l48 -34q-23 -42 -55.5 -71t-72.5 -44t-86 -15zM332 753q-8 20 -16.5 34t-20 21t-28.5 7q-23 0 -37.5 -14.5t-14.5 -34.5q0 -11 4.5 -21t12 -19.5 t17.5 -19.5l96 -92h33l2 23z" glyph-name="egrave" horiz-adv-x="540" unicode="è"/><glyph d="M266 -12q-66 0 -115.5 26.5t-77 76.5t-27.5 121q0 66 20.5 126t58.5 107t91.5 74.5t118.5 27.5q57 0 95 -18t57 -48.5t19 -69.5q0 -48 -24.5 -85t-73.5 -62.5t-122 -38t-171 -13.5l6 52q85 1 143 11.5t92.5 28.5t49.5 44.5t15 60.5q0 25 -10.5 42t-31 26t-51.5 9 q-43 0 -78.5 -22t-61 -61t-39.5 -89.5t-14 -108.5q0 -53 16 -87.5t46.5 -51.5t74.5 -17q39 0 69 14.5t52.5 38t38.5 50.5l48 -34q-23 -42 -55.5 -71t-72.5 -44t-86 -15zM344 753q12 20 23 34t24 21t29 7q21 0 34.5 -13t13.5 -32q0 -15 -7 -26.5t-19 -22t-27 -21.5l-118 -86 h-30l4 23z" glyph-name="eacute" horiz-adv-x="540" unicode="é"/><glyph d="M266 -12q-66 0 -115.5 26.5t-77 76.5t-27.5 121q0 66 20.5 126t58.5 107t91.5 74.5t118.5 27.5q57 0 95 -18t57 -48.5t19 -69.5q0 -48 -24.5 -85t-73.5 -62.5t-122 -38t-171 -13.5l6 52q85 1 143 11.5t92.5 28.5t49.5 44.5t15 60.5q0 25 -10.5 42t-31 26t-51.5 9 q-43 0 -78.5 -22t-61 -61t-39.5 -89.5t-14 -108.5q0 -53 16 -87.5t46.5 -51.5t74.5 -17q39 0 69 14.5t52.5 38t38.5 50.5l48 -34q-23 -42 -55.5 -71t-72.5 -44t-86 -15zM404 798h-72l-154 -165l-4 -15h43l157 120l-45 13l115 -133h40l3 15z" glyph-name="ecircumflex" horiz-adv-x="540" unicode="ê"/><glyph d="M266 -12q-66 0 -115.5 26.5t-77 76.5t-27.5 121q0 66 20.5 126t58.5 107t91.5 74.5t118.5 27.5q57 0 95 -18t57 -48.5t19 -69.5q0 -48 -24.5 -85t-73.5 -62.5t-122 -38t-171 -13.5l6 52q85 1 143 11.5t92.5 28.5t49.5 44.5t15 60.5q0 25 -10.5 42t-31 26t-51.5 9 q-43 0 -78.5 -22t-61 -61t-39.5 -89.5t-14 -108.5q0 -53 16 -87.5t46.5 -51.5t74.5 -17q39 0 69 14.5t52.5 38t38.5 50.5l48 -34q-23 -42 -55.5 -71t-72.5 -44t-86 -15zM210 645q28 0 46.5 16t18.5 47q0 32 -18.5 48t-46.5 16t-46.5 -16t-18.5 -48q0 -31 18.5 -47t46.5 -16z M454 645q28 0 46.5 16t18.5 47q0 32 -18.5 48t-46.5 16t-46.5 -16t-18.5 -48q0 -31 18.5 -47t46.5 -16z" glyph-name="edieresis" horiz-adv-x="540" unicode="ë"/><glyph d="M163 -3q-26 0 -46.5 7.5t-31.5 23t-11 37.5q0 14 2.5 30t8.5 43t17 73l47 226q3 12 -6.5 20.5t-28 15t-44.5 10.5l-12 2l12 52h188l-70 -332q-8 -40 -14 -65.5t-8 -40t-2 -21.5q0 -10 5.5 -15t18.5 -5q16 0 32 2.5t31 5t26 3.5l-10 -58q-15 -3 -31.5 -6.5t-34.5 -5.5 t-38 -2zM212 753q-8 20 -16.5 34t-20 21t-28.5 7q-23 0 -37.5 -14.5t-14.5 -34.5q0 -11 4.5 -21t12 -19.5t17.5 -19.5l96 -92h33l2 23z" glyph-name="igrave" horiz-adv-x="332" unicode="ì"/><glyph d="M163 -3q-26 0 -46.5 7.5t-31.5 23t-11 37.5q0 14 2.5 30t8.5 43t17 73l47 226q3 12 -6.5 20.5t-28 15t-44.5 10.5l-12 2l12 52h188l-70 -332q-8 -40 -14 -65.5t-8 -40t-2 -21.5q0 -10 5.5 -15t18.5 -5q16 0 32 2.5t31 5t26 3.5l-10 -58q-15 -3 -31.5 -6.5t-34.5 -5.5 t-38 -2zM236 753q12 20 23 34t24 21t29 7q21 0 34.5 -13t13.5 -32q0 -15 -7 -26.5t-19 -22t-27 -21.5l-118 -86h-30l4 23z" glyph-name="iacute" horiz-adv-x="332" unicode="í"/><glyph d="M273 798h-72l-149 -165l-4 -15h43l152 120l-45 13l110 -133h40l3 15zM163 -3q-26 0 -46.5 7.5t-31.5 23t-11 37.5q0 14 2.5 30t8.5 43t17 73l47 226q3 12 -6.5 20.5t-28 15t-44.5 10.5l-12 2l12 52h188l-70 -332q-8 -40 -14 -65.5t-8 -40t-2 -21.5q0 -10 5.5 -15t18.5 -5 q16 0 32 2.5t31 5t26 3.5l-10 -58q-15 -3 -31.5 -6.5t-34.5 -5.5t-38 -2z" glyph-name="icircumflex" horiz-adv-x="332" unicode="î"/><glyph d="M96 645q28 0 46.5 16t18.5 48q0 31 -18.5 47t-46.5 16q-29 0 -47 -16t-18 -47q0 -32 18 -48t47 -16zM323 645q28 0 46.5 16t18.5 48q0 31 -18.5 47t-46.5 16q-29 0 -47 -16t-18 -47q0 -32 18 -48t47 -16zM163 -3q-26 0 -46.5 7.5t-31.5 23t-11 37.5q0 14 2.5 30t8.5 43 t17 73l47 226q3 12 -6.5 20.5t-28 15t-44.5 10.5l-12 2l12 52h188l-70 -332q-8 -40 -14 -65.5t-8 -40t-2 -21.5q0 -10 5.5 -15t18.5 -5q16 0 32 2.5t31 5t26 3.5l-10 -58q-15 -3 -31.5 -6.5t-34.5 -5.5t-38 -2z" glyph-name="idieresis" horiz-adv-x="332" unicode="ï"/><glyph d="M179 616l404 119l10 -51l-403 -119zM499 397l3 -60q-16 41 -38 71.5t-54.5 47t-80.5 16.5q-32 0 -57.5 -9.5t-46.5 -28t-37 -46t-27 -63.5q-7 -20 -12 -40.5t-7 -40.5t-2 -40q0 -43 10 -72.5t28 -48t44.5 -27t58.5 -8.5q39 0 69 15.5t53 45t39 72t26 96.5q6 27 9.5 52 t5.5 48t2 45q0 57 -14 103t-43 83t-76 69t-112 61l38 46q79 -33 135.5 -72t92.5 -86.5t53 -104t17 -123.5q0 -61 -12.5 -121t-37 -112t-61 -92t-84 -62.5t-106.5 -22.5q-73 0 -124.5 28.5t-78 79.5t-26.5 118t20.5 125t58.5 101t89.5 67.5t112.5 24.5q39 0 68.5 -10t50 -28 t34 -42.5t19.5 -54.5z" glyph-name="eth" horiz-adv-x="617" unicode="ð"/><glyph d="M59 0h88l79 375l-5 11l17 151h-165l-11 -52l12 -2q25 -4 43.5 -10.5t28 -14.5t7.5 -20zM515 205l34 150q7 26 10.5 49t3.5 42q0 47 -29 74t-83 27t-99.5 -25.5t-86.5 -71.5t-81 -106l15 -30q41 54 77.5 91t70.5 56t68 19q31 0 44 -14.5t13 -39.5q0 -13 -2.5 -29t-9.5 -43 l-33 -143q-12 -46 -18 -73t-9 -43t-3 -30q0 -22 11 -37.5t31 -23t47 -7.5q19 0 37.5 2t35 5.5t31.5 6.5l10 58q-11 -1 -25.5 -3.5t-31 -5t-32.5 -2.5q-12 0 -18 5t-6 15q0 7 3 21.5t9 40t16 65.5zM443 625q-27 0 -45.5 9.5t-31 24t-22.5 28.5t-19.5 23.5t-21.5 9.5 q-22 0 -34 -23t-27 -74l-52 18q15 56 32.5 88t39.5 45.5t52 13.5q26 0 43.5 -9.5t29.5 -23.5t22 -28t20.5 -23t23.5 -9q17 0 27 11t18.5 32.5t19.5 53.5l51 -20q-16 -56 -33.5 -88t-40 -45.5t-52.5 -13.5z" glyph-name="ntilde" horiz-adv-x="652" unicode="ñ"/><glyph d="M450 188q9 23 14 47t7.5 49t2.5 50q0 48 -15.5 82t-46.5 52t-78 18q-33 0 -59.5 -10.5t-47 -29.5t-36.5 -44.5t-27 -54.5q-8 -23 -13.5 -47.5t-8 -49.5t-2.5 -49q0 -49 15.5 -83t46.5 -52t78 -18q33 0 59.5 11t47 29.5t36.5 44t27 55.5zM46 212q0 55 13.5 105t39 92 t61.5 73t81 48t98 17q69 0 120.5 -27.5t80 -78.5t28.5 -120q0 -55 -13.5 -104.5t-39 -91.5t-61.5 -72.5t-81 -47.5t-98 -17q-69 0 -120.5 27.5t-80 78t-28.5 118.5zM355 753q-8 20 -16.5 34t-20 21t-28.5 7q-23 0 -37.5 -14.5t-14.5 -34.5q0 -11 4.5 -21t12 -19.5 t17.5 -19.5l96 -92h33l2 23z" glyph-name="ograve" horiz-adv-x="614" unicode="ò"/><glyph d="M450 188q9 23 14 47t7.5 49t2.5 50q0 48 -15.5 82t-46.5 52t-78 18q-33 0 -59.5 -10.5t-47 -29.5t-36.5 -44.5t-27 -54.5q-8 -23 -13.5 -47.5t-8 -49.5t-2.5 -49q0 -49 15.5 -83t46.5 -52t78 -18q33 0 59.5 11t47 29.5t36.5 44t27 55.5zM46 212q0 55 13.5 105t39 92 t61.5 73t81 48t98 17q69 0 120.5 -27.5t80 -78.5t28.5 -120q0 -55 -13.5 -104.5t-39 -91.5t-61.5 -72.5t-81 -47.5t-98 -17q-69 0 -120.5 27.5t-80 78t-28.5 118.5zM372 753q12 20 23 34t24 21t29 7q21 0 34.5 -13t13.5 -32q0 -15 -7 -26.5t-19 -22t-27 -21.5l-118 -86h-30 l4 23z" glyph-name="oacute" horiz-adv-x="614" unicode="ó"/><glyph d="M450 188q9 23 14 47t7.5 49t2.5 50q0 48 -15.5 82t-46.5 52t-78 18q-33 0 -59.5 -10.5t-47 -29.5t-36.5 -44.5t-27 -54.5q-8 -23 -13.5 -47.5t-8 -49.5t-2.5 -49q0 -49 15.5 -83t46.5 -52t78 -18q33 0 59.5 11t47 29.5t36.5 44t27 55.5zM46 212q0 55 13.5 105t39 92 t61.5 73t81 48t98 17q69 0 120.5 -27.5t80 -78.5t28.5 -120q0 -55 -13.5 -104.5t-39 -91.5t-61.5 -72.5t-81 -47.5t-98 -17q-69 0 -120.5 27.5t-80 78t-28.5 118.5zM423 798h-72l-154 -165l-4 -15h43l157 120l-45 13l115 -133h40l3 15z" glyph-name="ocircumflex" horiz-adv-x="614" unicode="ô"/><glyph d="M450 188q9 23 14 47t7.5 49t2.5 50q0 48 -15.5 82t-46.5 52t-78 18q-33 0 -59.5 -10.5t-47 -29.5t-36.5 -44.5t-27 -54.5q-8 -23 -13.5 -47.5t-8 -49.5t-2.5 -49q0 -49 15.5 -83t46.5 -52t78 -18q33 0 59.5 11t47 29.5t36.5 44t27 55.5zM46 212q0 55 13.5 105t39 92 t61.5 73t81 48t98 17q69 0 120.5 -27.5t80 -78.5t28.5 -120q0 -55 -13.5 -104.5t-39 -91.5t-61.5 -72.5t-81 -47.5t-98 -17q-69 0 -120.5 27.5t-80 78t-28.5 118.5zM416 625q-27 0 -45.5 9.5t-31 24t-22.5 28.5t-19.5 23.5t-21.5 9.5q-22 0 -34 -23t-27 -74l-52 18 q15 56 32.5 88t39.5 45.5t52 13.5q26 0 43.5 -9.5t29.5 -23.5t22 -28t20.5 -23t23.5 -9q17 0 27 11t18.5 32.5t19.5 53.5l51 -20q-16 -56 -33.5 -88t-40 -45.5t-52.5 -13.5z" glyph-name="otilde" horiz-adv-x="614" unicode="õ"/><glyph d="M450 188q9 23 14 47t7.5 49t2.5 50q0 48 -15.5 82t-46.5 52t-78 18q-33 0 -59.5 -10.5t-47 -29.5t-36.5 -44.5t-27 -54.5q-8 -23 -13.5 -47.5t-8 -49.5t-2.5 -49q0 -49 15.5 -83t46.5 -52t78 -18q33 0 59.5 11t47 29.5t36.5 44t27 55.5zM46 212q0 55 13.5 105t39 92 t61.5 73t81 48t98 17q69 0 120.5 -27.5t80 -78.5t28.5 -120q0 -55 -13.5 -104.5t-39 -91.5t-61.5 -72.5t-81 -47.5t-98 -17q-69 0 -120.5 27.5t-80 78t-28.5 118.5zM236 645q28 0 46.5 16t18.5 47q0 32 -18.5 48t-46.5 16t-46.5 -16t-18.5 -48q0 -31 18.5 -47t46.5 -16z M480 645q28 0 46.5 16t18.5 47q0 32 -18.5 48t-46.5 16t-46.5 -16t-18.5 -48q0 -31 18.5 -47t46.5 -16z" glyph-name="odieresis" horiz-adv-x="614" unicode="ö"/><glyph d="M400 540q0 -30 -21.5 -49.5t-53.5 -19.5q-33 0 -54 19.5t-21 49.5q0 32 21 51t54 19q32 0 53.5 -19t21.5 -51zM315 141q0 -30 -22 -49.5t-54 -19.5t-53 19.5t-21 49.5q0 32 21 51.5t53 19.5t54 -19.5t22 -51.5zM507 375l-14 -67h-434l14 67h434z" glyph-name="divide" unicode="÷"/><glyph d="M287 48q35 0 62 11t48.5 29.5t37 44t26.5 55.5q9 23 14 47t8 49t3 50q0 52 -13.5 86t-45 50t-85.5 16q-34 0 -61 -10.5t-48 -29.5t-36.5 -44.5t-26.5 -54.5q-8 -23 -13.5 -47.5t-8.5 -49.5t-3 -49q0 -53 13 -86.5t44.5 -50t84.5 -16.5zM284 -12q-69 0 -121.5 29.5 t-81.5 80.5t-29 114q0 55 14 105t39.5 92t61.5 73t81.5 48t98.5 17q70 0 122 -30t81 -81t29 -115q0 -55 -13.5 -104.5t-39 -91.5t-62 -72.5t-82 -47.5t-98.5 -17zM-33 -14l618 563h81l-618 -563h-81z" glyph-name="oslash" horiz-adv-x="628" unicode="ø"/><glyph d="M185 183q-5 -26 -8.5 -42.5t-3.5 -29.5q0 -16 6 -28.5t18.5 -19t33.5 -6.5q35 0 68.5 19t68.5 57t74 93l14 -30q-36 -61 -76 -107.5t-85.5 -72.5t-99.5 -26t-83.5 27.5t-29.5 73.5q0 19 4.5 41.5t9.5 48.5l57 256q3 12 -6.5 20.5t-28 15t-44.5 10.5l-12 2l11 52h190z M507 205q-8 -40 -14.5 -65.5t-9.5 -40t-3 -21.5q0 -10 6 -15t18 -5q25 0 49.5 4.5t42.5 6.5l-11 -58q-14 -3 -31 -6.5t-34.5 -5.5t-37.5 -2q-34 0 -54 17.5t-20 50.5q0 8 1 21.5t3 31.5t4 39l-9 -5l82 385h88zM373 753q-8 20 -16.5 34t-20 21t-28.5 7q-23 0 -37.5 -14.5 t-14.5 -34.5q0 -11 4.5 -21t12 -19.5t17.5 -19.5l96 -92h33l2 23z" glyph-name="ugrave" horiz-adv-x="642" unicode="ù"/><glyph d="M185 183q-5 -26 -8.5 -42.5t-3.5 -29.5q0 -16 6 -28.5t18.5 -19t33.5 -6.5q35 0 68.5 19t68.5 57t74 93l14 -30q-36 -61 -76 -107.5t-85.5 -72.5t-99.5 -26t-83.5 27.5t-29.5 73.5q0 19 4.5 41.5t9.5 48.5l57 256q3 12 -6.5 20.5t-28 15t-44.5 10.5l-12 2l11 52h190z M507 205q-8 -40 -14.5 -65.5t-9.5 -40t-3 -21.5q0 -10 6 -15t18 -5q25 0 49.5 4.5t42.5 6.5l-11 -58q-14 -3 -31 -6.5t-34.5 -5.5t-37.5 -2q-34 0 -54 17.5t-20 50.5q0 8 1 21.5t3 31.5t4 39l-9 -5l82 385h88zM415 753q12 20 23 34t24 21t29 7q21 0 34.5 -13t13.5 -32 q0 -15 -7 -26.5t-19 -22t-27 -21.5l-118 -86h-30l4 23z" glyph-name="uacute" horiz-adv-x="642" unicode="ú"/><glyph d="M185 183q-5 -26 -8.5 -42.5t-3.5 -29.5q0 -16 6 -28.5t18.5 -19t33.5 -6.5q35 0 68.5 19t68.5 57t74 93l14 -30q-36 -61 -76 -107.5t-85.5 -72.5t-99.5 -26t-83.5 27.5t-29.5 73.5q0 19 4.5 41.5t9.5 48.5l57 256q3 12 -6.5 20.5t-28 15t-44.5 10.5l-12 2l11 52h190z M507 205q-8 -40 -14.5 -65.5t-9.5 -40t-3 -21.5q0 -10 6 -15t18 -5q25 0 49.5 4.5t42.5 6.5l-11 -58q-14 -3 -31 -6.5t-34.5 -5.5t-37.5 -2q-34 0 -54 17.5t-20 50.5q0 8 1 21.5t3 31.5t4 39l-9 -5l82 385h88zM442 798h-72l-154 -165l-4 -15h43l157 120l-45 13l115 -133h40 l3 15z" glyph-name="ucircumflex" horiz-adv-x="642" unicode="û"/><glyph d="M185 183q-5 -26 -8.5 -42.5t-3.5 -29.5q0 -16 6 -28.5t18.5 -19t33.5 -6.5q35 0 68.5 19t68.5 57t74 93l14 -30q-36 -61 -76 -107.5t-85.5 -72.5t-99.5 -26t-83.5 27.5t-29.5 73.5q0 19 4.5 41.5t9.5 48.5l57 256q3 12 -6.5 20.5t-28 15t-44.5 10.5l-12 2l11 52h190z M507 205q-8 -40 -14.5 -65.5t-9.5 -40t-3 -21.5q0 -10 6 -15t18 -5q25 0 49.5 4.5t42.5 6.5l-11 -58q-14 -3 -31 -6.5t-34.5 -5.5t-37.5 -2q-34 0 -54 17.5t-20 50.5q0 8 1 21.5t3 31.5t4 39l-9 -5l82 385h88zM253 645q28 0 46.5 16t18.5 47q0 32 -18.5 48t-46.5 16 t-46.5 -16t-18.5 -48q0 -31 18.5 -47t46.5 -16zM497 645q28 0 46.5 16t18.5 47q0 32 -18.5 48t-46.5 16t-46.5 -16t-18.5 -48q0 -31 18.5 -47t46.5 -16z" glyph-name="udieresis" horiz-adv-x="642" unicode="ü"/><glyph d="M194 -22l41 38l25 54l-70 467h-154l-11 -52l12 -3q24 -4 41 -10t27.5 -14t12.5 -20zM237 65l-13 -5q-35 -66 -63.5 -108t-53.5 -64t-49 -30.5t-48 -8.5q-31 0 -54 7t-31 10l-17 -79q8 -4 31.5 -11.5t57.5 -7.5q35 0 67.5 12t64 40t66.5 76t74 120q29 53 57 104.5 t56.5 103t56 102l55 101t54.5 100.5v10h-85q-28 -59 -56.5 -118t-56.5 -118l-56 -118t-57 -118zM362 753q12 20 23 34t24 21t29 7q21 0 34.5 -13t13.5 -32q0 -15 -7 -26.5t-19 -22t-27 -21.5l-118 -86h-30l4 23z" glyph-name="yacute" horiz-adv-x="535" unicode="ý"/><glyph d="M310 50q37 0 68 18t55.5 48.5t41.5 69.5t26 82.5t9 85.5q0 43 -9 72t-29.5 44.5t-56.5 15.5q-40 0 -74.5 -20t-68 -58.5t-72.5 -96.5l-18 29q36 63 74.5 109t82.5 72t95 26q58 0 95.5 -24t56 -68t18.5 -104q0 -51 -13 -103t-38.5 -98.5t-61.5 -83t-81.5 -57.5t-99.5 -21 q-50 0 -87.5 19.5t-62.5 54t-40 76.5l37 41q11 -40 31 -69t50.5 -44.5t71.5 -15.5zM207 -223h-281l10 48h3q38 0 63 10.5t33 44.5l163 779q3 12 -6.5 20t-28 14t-44.5 11l-10 2l11 52h187l-195 -923q0 -3 7.5 -4.5t20 -3t26 -2t24.5 -0.5h27z" glyph-name="thorn" horiz-adv-x="650" unicode="þ"/><glyph d="M194 -22l41 38l25 54l-70 467h-154l-11 -52l12 -3q24 -4 41 -10t27.5 -14t12.5 -20zM237 65l-13 -5q-35 -66 -63.5 -108t-53.5 -64t-49 -30.5t-48 -8.5q-31 0 -54 7t-31 10l-17 -79q8 -4 31.5 -11.5t57.5 -7.5q35 0 67.5 12t64 40t66.5 76t74 120q29 53 57 104.5 t56.5 103t56 102l55 101t54.5 100.5v10h-85q-28 -59 -56.5 -118t-56.5 -118l-56 -118t-57 -118zM204 645q28 0 46.5 16t18.5 47q0 32 -18.5 48t-46.5 16t-46.5 -16t-18.5 -48q0 -31 18.5 -47t46.5 -16zM448 645q28 0 46.5 16t18.5 47q0 32 -18.5 48t-46.5 16t-46.5 -16 t-18.5 -48q0 -31 18.5 -47t46.5 -16z" glyph-name="ydieresis" horiz-adv-x="535" unicode="ÿ"/><glyph d="M196 296h268l-1 -56h-291zM402 670l15 -5l-312 -590q-1 -5 10 -10t30.5 -7.5t42.5 -2.5h12l-12 -55h-244l12 55h6q28 0 49.5 9t38.5 41l326 611h107l72 -613q3 -31 19.5 -39.5t46.5 -8.5h5l-12 -55h-261l12 55h13q24 0 44 1t33 3.5t13 5.5zM276 888h325l-15 -68h-325z" glyph-name="Amacron" horiz-adv-x="697" unicode="Ā"/><glyph d="M497 376l-34 -43q-8 47 -24.5 81t-42.5 52.5t-65 18.5q-34 0 -63.5 -18t-53 -48.5t-40 -70t-25.5 -83t-9 -85.5t8.5 -71t28 -44.5t51.5 -15.5q38 0 69.5 20.5t63 60t66.5 98.5l19 -30q-33 -63 -69 -110t-76.5 -73.5t-91.5 -26.5q-55 0 -91.5 24t-54 67.5t-17.5 103.5 q0 52 13 103.5t38 98.5t60 83.5t78.5 57.5t94.5 21q50 0 83 -23t53 -61.5t31 -86.5zM572 538l-71 -333q-8 -40 -14.5 -65.5t-9.5 -40t-3 -21.5q0 -10 6 -15t18 -5q25 0 49.5 4.5t42.5 6.5l-11 -58q-14 -3 -31 -6.5t-34.5 -5.5t-37.5 -2q-23 0 -39.5 8t-25.5 23t-9 37 q0 12 2 37t6 60l-8 -8l52 255l5 6l53 123h60zM206 735h325l-15 -68h-325z" glyph-name="amacron" horiz-adv-x="635" unicode="ā"/><glyph d="M196 296h268l-1 -56h-291zM402 670l15 -5l-312 -590q-1 -5 10 -10t30.5 -7.5t42.5 -2.5h12l-12 -55h-244l12 55h6q28 0 49.5 9t38.5 41l326 611h107l72 -613q3 -31 19.5 -39.5t46.5 -8.5h5l-12 -55h-261l12 55h13q24 0 44 1t33 3.5t13 5.5zM432 778q46 0 80.5 15.5 t57 49.5t30.5 91h-62q-7 -31 -19 -49t-32 -25t-50 -7q-36 0 -55 8t-26 26t-6 47h-65q-1 -7 -2 -13.5t-1 -15.5q0 -39 16 -67.5t49 -44t85 -15.5z" glyph-name="Abreve" horiz-adv-x="697" unicode="Ă"/><glyph d="M497 376l-34 -43q-8 47 -24.5 81t-42.5 52.5t-65 18.5q-34 0 -63.5 -18t-53 -48.5t-40 -70t-25.5 -83t-9 -85.5t8.5 -71t28 -44.5t51.5 -15.5q38 0 69.5 20.5t63 60t66.5 98.5l19 -30q-33 -63 -69 -110t-76.5 -73.5t-91.5 -26.5q-55 0 -91.5 24t-54 67.5t-17.5 103.5 q0 52 13 103.5t38 98.5t60 83.5t78.5 57.5t94.5 21q50 0 83 -23t53 -61.5t31 -86.5zM572 538l-71 -333q-8 -40 -14.5 -65.5t-9.5 -40t-3 -21.5q0 -10 6 -15t18 -5q25 0 49.5 4.5t42.5 6.5l-11 -58q-14 -3 -31 -6.5t-34.5 -5.5t-37.5 -2q-23 0 -39.5 8t-25.5 23t-9 37 q0 12 2 37t6 60l-8 -8l52 255l5 6l53 123h60zM354 622q45 0 79 15t56 50.5t30 97.5h-62q-7 -35 -18.5 -55.5t-30 -28.5t-49.5 -8q-34 0 -50.5 11t-20.5 31.5t-1 49.5h-64q-3 -11 -3.5 -20t-0.5 -20q0 -37 14 -65t44.5 -43t76.5 -15z" glyph-name="abreve" horiz-adv-x="635" unicode="ă"/><glyph d="M196 296h268l-1 -56h-291zM614 0h-139l-72 668l13 -5l-311 -588q-1 -5 10 -10t30.5 -7.5t42.5 -2.5h12l-12 -55h-244l12 55h6q28 0 49.5 9t38.5 41l326 611h107l72 -613q3 -31 19.5 -39.5t46.5 -8.5h5zM501 46l23 -37q-49 -28 -79.5 -50t-47 -40.5t-22.5 -34.5t-6 -32 q0 -20 12 -30.5t32 -10.5q16 0 28.5 5.5t23 13.5t19.5 16l26 -38q-22 -21 -50.5 -36.5t-70.5 -15.5q-54 0 -85 22.5t-31 67.5q0 26 11 48.5t37 45t70 48t110 58.5z" glyph-name="Aogonek" horiz-adv-x="697" unicode="Ą"/><glyph d="M497 376l-34 -43q-8 47 -24.5 81t-42.5 52.5t-65 18.5q-34 0 -63.5 -18t-53 -48.5t-40 -70t-25.5 -83t-9 -85.5t8.5 -71t28 -44.5t51.5 -15.5q38 0 69.5 20.5t63 60t66.5 98.5l19 -30q-33 -63 -69 -110t-76.5 -73.5t-91.5 -26.5q-55 0 -91.5 24t-54 67.5t-17.5 103.5 q0 52 13 103.5t38 98.5t60 83.5t78.5 57.5t94.5 21q50 0 83 -23t53 -61.5t31 -86.5zM572 538l-71 -333q-8 -40 -14.5 -65.5t-9.5 -40t-3 -21.5q0 -10 6 -15t18 -5q25 0 49.5 4.5t42.5 6.5l-11 -58q-14 -3 -31 -6.5t-34.5 -5.5t-37.5 -2q-23 0 -39.5 8t-25.5 23t-9 37 q0 12 2 37t6 60l-8 -8l52 255l5 6l53 123h60zM534 38l22 -30q-49 -28 -79 -50.5t-47 -41t-23 -34t-6 -31.5q0 -20 12 -30t33 -10q23 0 40.5 11.5t30.5 23.5l26 -38q-22 -21 -51 -36.5t-71 -15.5q-53 0 -84 22.5t-31 65.5q0 26 11 47t36.5 42t70 46t110.5 59z" glyph-name="aogonek" horiz-adv-x="635" unicode="ą"/><glyph d="M371 45q48 0 87 15.5t69.5 42.5t54 64t40.5 79l57 -33q-28 -68 -71 -120t-103.5 -81t-139.5 -29q-70 0 -127.5 21.5t-100 63t-65.5 100t-23 131.5q0 68 17 131.5t49.5 117.5t79 94.5t104.5 63t126 22.5q52 0 92.5 -13t69 -39t46 -62.5t24.5 -84.5l-27 22l49 164h65 l-51 -238h-70q-7 60 -31.5 102t-66.5 64.5t-103 22.5q-53 0 -96.5 -21t-76.5 -57.5t-55.5 -84.5t-34 -103t-11.5 -112q0 -58 15 -103t43 -76t70 -47.5t95 -16.5zM473 899q14 14 25.5 24t23 15t25.5 5q21 0 33 -12t12 -30q0 -16 -9 -28t-25 -21.5t-38 -20.5l-108 -51h-33 l5 24z" glyph-name="Cacute" horiz-adv-x="740" unicode="Ć"/><glyph d="M283 48q43 0 74 17t54 42.5t37 50.5l49 -33q-25 -46 -59 -77t-75 -45.5t-87 -14.5q-50 0 -92.5 14.5t-73.5 43.5t-47.5 71t-16.5 97q0 68 21.5 128.5t62 106.5t97 72t127.5 26q45 0 81 -7.5t63.5 -20t46.5 -25.5l-35 -148h-89l31 131q12 -2 21 -8t14.5 -14t7 -17 t-1.5 -17q-12 18 -31.5 33t-48 23.5t-65.5 8.5q-43 0 -77 -15.5t-59 -43.5t-41 -63.5t-23.5 -76.5t-7.5 -82q0 -52 16.5 -87t49 -52.5t77.5 -17.5zM373 753q12 20 23 34t24 21t29 7q21 0 34.5 -13t13.5 -32q0 -15 -7 -26.5t-19 -22t-27 -21.5l-118 -86h-30l4 23z" glyph-name="cacute" horiz-adv-x="559" unicode="ć"/><glyph d="M371 45q48 0 87 15.5t69.5 42.5t54 64t40.5 79l57 -33q-28 -68 -71 -120t-103.5 -81t-139.5 -29q-70 0 -127.5 21.5t-100 63t-65.5 100t-23 131.5q0 68 17 131.5t49.5 117.5t79 94.5t104.5 63t126 22.5q52 0 92.5 -13t69 -39t46 -62.5t24.5 -84.5l-27 22l49 164h65 l-51 -238h-70q-7 60 -31.5 102t-66.5 64.5t-103 22.5q-53 0 -96.5 -21t-76.5 -57.5t-55.5 -84.5t-34 -103t-11.5 -112q0 -58 15 -103t43 -76t70 -47.5t95 -16.5zM514 932h-82l-153 -145l-3 -17h45l174 110l-61 2l123 -112h44l4 17z" glyph-name="Ccircumflex" horiz-adv-x="740" unicode="Ĉ"/><glyph d="M283 48q43 0 74 17t54 42.5t37 50.5l49 -33q-25 -46 -59 -77t-75 -45.5t-87 -14.5q-50 0 -92.5 14.5t-73.5 43.5t-47.5 71t-16.5 97q0 68 21.5 128.5t62 106.5t97 72t127.5 26q45 0 81 -7.5t63.5 -20t46.5 -25.5l-35 -148h-89l31 131q12 -2 21 -8t14.5 -14t7 -17 t-1.5 -17q-12 18 -31.5 33t-48 23.5t-65.5 8.5q-43 0 -77 -15.5t-59 -43.5t-41 -63.5t-23.5 -76.5t-7.5 -82q0 -52 16.5 -87t49 -52.5t77.5 -17.5zM424 798h-72l-154 -165l-4 -15h43l157 120l-45 13l115 -133h40l3 15z" glyph-name="ccircumflex" horiz-adv-x="559" unicode="ĉ"/><glyph d="M371 45q48 0 87 15.5t69.5 42.5t54 64t40.5 79l57 -33q-28 -68 -71 -120t-103.5 -81t-139.5 -29q-70 0 -127.5 21.5t-100 63t-65.5 100t-23 131.5q0 68 17 131.5t49.5 117.5t79 94.5t104.5 63t126 22.5q52 0 92.5 -13t69 -39t46 -62.5t24.5 -84.5l-27 22l49 164h65 l-51 -238h-70q-7 60 -31.5 102t-66.5 64.5t-103 22.5q-53 0 -96.5 -21t-76.5 -57.5t-55.5 -84.5t-34 -103t-11.5 -112q0 -58 15 -103t43 -76t70 -47.5t95 -16.5zM447 786q28 0 46.5 16t18.5 47q0 32 -18.5 48t-46.5 16t-46.5 -16t-18.5 -48q0 -31 18.5 -47t46.5 -16z" glyph-name="Cdotaccent" horiz-adv-x="740" unicode="Ċ"/><glyph d="M283 48q43 0 74 17t54 42.5t37 50.5l49 -33q-25 -46 -59 -77t-75 -45.5t-87 -14.5q-50 0 -92.5 14.5t-73.5 43.5t-47.5 71t-16.5 97q0 68 21.5 128.5t62 106.5t97 72t127.5 26q45 0 81 -7.5t63.5 -20t46.5 -25.5l-35 -148h-89l31 131q12 -2 21 -8t14.5 -14t7 -17 t-1.5 -17q-12 18 -31.5 33t-48 23.5t-65.5 8.5q-43 0 -77 -15.5t-59 -43.5t-41 -63.5t-23.5 -76.5t-7.5 -82q0 -52 16.5 -87t49 -52.5t77.5 -17.5zM358 647q28 0 46.5 16t18.5 47q0 32 -18.5 48t-46.5 16t-46.5 -16t-18.5 -48q0 -31 18.5 -47t46.5 -16z" glyph-name="cdotaccent" horiz-adv-x="559" unicode="ċ"/><glyph d="M395 776h82l153 145l3 16h-45l-174 -109l61 -3l-123 112h-44l-4 -16zM371 45q48 0 87 15.5t69.5 42.5t54 64t40.5 79l57 -33q-28 -68 -71 -120t-103.5 -81t-139.5 -29q-70 0 -127.5 21.5t-100 63t-65.5 100t-23 131.5q0 68 17 131.5t49.5 117.5t79 94.5t104.5 63 t126 22.5q52 0 92.5 -13t69 -39t46 -62.5t24.5 -84.5l-27 22l49 164h65l-51 -238h-70q-7 60 -31.5 102t-66.5 64.5t-103 22.5q-53 0 -96.5 -21t-76.5 -57.5t-55.5 -84.5t-34 -103t-11.5 -112q0 -58 15 -103t43 -76t70 -47.5t95 -16.5z" glyph-name="Ccaron" horiz-adv-x="740" unicode="Č"/><glyph d="M316 611h72l154 165l3 15h-43l-156 -120l44 -13l-114 133h-40l-4 -15zM283 48q43 0 74 17t54 42.5t37 50.5l49 -33q-25 -46 -59 -77t-75 -45.5t-87 -14.5q-50 0 -92.5 14.5t-73.5 43.5t-47.5 71t-16.5 97q0 68 21.5 128.5t62 106.5t97 72t127.5 26q45 0 81 -7.5t63.5 -20 t46.5 -25.5l-35 -148h-89l31 131q12 -2 21 -8t14.5 -14t7 -17t-1.5 -17q-12 18 -31.5 33t-48 23.5t-65.5 8.5q-43 0 -77 -15.5t-59 -43.5t-41 -63.5t-23.5 -76.5t-7.5 -82q0 -52 16.5 -87t49 -52.5t77.5 -17.5z" glyph-name="ccaron" horiz-adv-x="559" unicode="č"/><glyph d="M407 776h82l153 145l3 16h-45l-174 -109l61 -3l-123 112h-44l-4 -16zM133 710h249q82 0 148 -19.5t113 -58t72.5 -93.5t25.5 -126t-18 -133.5t-53 -113.5t-86 -88.5t-118.5 -57.5t-149.5 -20h-335l12 55h12q37 0 62.5 7t29.5 29l112 529q5 21 -17.5 28.5t-59.5 7.5h-12z M381 650h-72l-126 -589h127q60 0 107.5 12t84.5 34.5t63.5 54t43.5 71t25 85t8 96.5q0 76 -28 129t-85.5 80t-147.5 27z" glyph-name="Dcaron" horiz-adv-x="787" unicode="Ď"/><glyph d="M727 570l96 188h-98l-53 -171l-4 -17h59zM216 -12q-57 0 -95 24t-56.5 68t-18.5 104q0 51 13 103t38.5 98.5t61.5 83t81.5 57.5t99.5 21q51 0 88 -19.5t62 -53t40 -76.5l-37 -41q-11 40 -31 68.5t-50 44t-72 15.5q-37 0 -68 -18t-55.5 -49t-41.5 -70t-26 -82t-9 -86 q0 -42 9 -71.5t30 -44.5t56 -15q31 0 57 11.5t51.5 34t51.5 56t55 78.5l18 -30q-35 -63 -74 -111t-83 -74t-95 -26zM497 -3q-34 0 -54 17.5t-20 50.5q0 8 1 21.5t3 31.5t5 39l-8 -1l106 503q3 15 -4.5 22.5t-23.5 12.5t-42 10l-11 2l12 52h178l-116 -553q-9 -40 -15 -65.5 t-9 -40t-3 -21.5q0 -10 5.5 -15t18.5 -5q25 0 49.5 4.5t41.5 6.5l-10 -58q-15 -3 -31.5 -6.5t-34.5 -5.5t-38 -2z" glyph-name="dcaron" horiz-adv-x="668" unicode="ď"/><glyph d="M41 329l13 57h400l-13 -57h-400zM133 710h249q82 0 148 -19.5t113 -58t72.5 -93.5t25.5 -126t-18 -133.5t-53 -113.5t-86 -88.5t-118.5 -57.5t-149.5 -20h-335l12 55h12q37 0 62.5 7t29.5 29l112 529q5 21 -17.5 28.5t-59.5 7.5h-12zM381 650h-72l-126 -589h127 q60 0 107.5 12t84.5 34.5t63.5 54t43.5 71t25 85t8 96.5q0 76 -28 129t-85.5 80t-147.5 27z" glyph-name="Dcroat" horiz-adv-x="787" unicode="Đ"/><glyph d="M530 398q-15 43 -40 76.5t-62 53t-88 19.5q-54 0 -99.5 -21t-81.5 -57.5t-61.5 -83t-38.5 -98.5t-13 -103q0 -60 18.5 -104t56.5 -68t95 -24q51 0 95 26t83 73t74 109l-18 29q-38 -57 -72 -96.5t-68.5 -59.5t-74.5 -20q-35 0 -56 15t-30 44.5t-9 71.5q0 43 9 86t26 82 t41.5 70t55.5 49t68 18q42 0 72 -15.5t50 -44t31 -68.5zM309 670l-12 -55h410l12 55h-410zM551 758l-127 -602l5 1q-5 -32 -7 -56t-2 -36q0 -33 20.5 -50.5t56.5 -17.5q20 0 38 2t34.5 5.5t31.5 6.5l10 58q-18 -2 -42.5 -6.5t-48.5 -4.5q-13 0 -18.5 5t-5.5 15q0 7 3 21.5 t9 40t15 65.5l116 553h-88z" glyph-name="dcroat" horiz-adv-x="660" unicode="đ"/><glyph d="M586 222l-47 -222h-558l12 55h11q36 0 62 6.5t31 30.5l111 528q5 22 -17.5 29t-59.5 7h-11l12 54h522l-38 -197h-60l5 93q1 18 -10.5 27.5t-37 13t-68.5 3.5h-137l-125 -589h169q43 0 70 3.5t42.5 13t21.5 27.5l39 117h61zM230 392q45 3 90 4.5t89.5 3.5t89.5 4l-17 -79 q-43 2 -87.5 4t-88.5 4.5t-88 3.5zM265 888h325l-15 -68h-325z" glyph-name="Emacron" horiz-adv-x="668" unicode="Ē"/><glyph d="M266 -12q-66 0 -115.5 26.5t-77 76.5t-27.5 121q0 66 20.5 126t58.5 107t91.5 74.5t118.5 27.5q57 0 95 -18t57 -48.5t19 -69.5q0 -48 -24.5 -85t-73.5 -62.5t-122 -38t-171 -13.5l6 52q85 1 143 11.5t92.5 28.5t49.5 44.5t15 60.5q0 25 -10.5 42t-31 26t-51.5 9 q-43 0 -78.5 -22t-61 -61t-39.5 -89.5t-14 -108.5q0 -53 16 -87.5t46.5 -51.5t74.5 -17q39 0 69 14.5t52.5 38t38.5 50.5l48 -34q-23 -42 -55.5 -71t-72.5 -44t-86 -15zM174 735h325l-15 -68h-325z" glyph-name="emacron" horiz-adv-x="540" unicode="ē"/><glyph d="M586 222l-47 -222h-558l12 55h11q36 0 62 6.5t31 30.5l111 528q5 22 -17.5 29t-59.5 7h-11l12 54h522l-38 -197h-60l5 93q1 18 -10.5 27.5t-37 13t-68.5 3.5h-137l-125 -589h169q43 0 70 3.5t42.5 13t21.5 27.5l39 117h61zM230 392q45 3 90 4.5t89.5 3.5t89.5 4l-17 -79 q-43 2 -87.5 4t-88.5 4.5t-88 3.5zM417 778q46 0 80.5 15.5t57 49.5t30.5 91h-62q-7 -31 -19 -49t-32 -25t-50 -7q-36 0 -55 8t-26 26t-6 47h-65q-1 -7 -2 -13.5t-1 -15.5q0 -39 16 -67.5t49 -44t85 -15.5z" glyph-name="Ebreve" horiz-adv-x="668" unicode="Ĕ"/><glyph d="M266 -12q-66 0 -115.5 26.5t-77 76.5t-27.5 121q0 66 20.5 126t58.5 107t91.5 74.5t118.5 27.5q57 0 95 -18t57 -48.5t19 -69.5q0 -48 -24.5 -85t-73.5 -62.5t-122 -38t-171 -13.5l6 52q85 1 143 11.5t92.5 28.5t49.5 44.5t15 60.5q0 25 -10.5 42t-31 26t-51.5 9 q-43 0 -78.5 -22t-61 -61t-39.5 -89.5t-14 -108.5q0 -53 16 -87.5t46.5 -51.5t74.5 -17q39 0 69 14.5t52.5 38t38.5 50.5l48 -34q-23 -42 -55.5 -71t-72.5 -44t-86 -15zM325 622q45 0 79 15t56 50.5t30 97.5h-62q-7 -35 -18.5 -55.5t-30 -28.5t-49.5 -8q-34 0 -50.5 11 t-20.5 31.5t-1 49.5h-64q-3 -11 -3.5 -20t-0.5 -20q0 -37 14 -65t44.5 -43t76.5 -15z" glyph-name="ebreve" horiz-adv-x="540" unicode="ĕ"/><glyph d="M586 222l-47 -222h-558l12 55h11q36 0 62 6.5t31 30.5l111 528q5 22 -17.5 29t-59.5 7h-11l12 54h522l-38 -197h-60l5 93q1 18 -10.5 27.5t-37 13t-68.5 3.5h-137l-125 -589h169q43 0 70 3.5t42.5 13t21.5 27.5l39 117h61zM230 392q45 3 90 4.5t89.5 3.5t89.5 4l-17 -79 q-43 2 -87.5 4t-88.5 4.5t-88 3.5zM421 786q28 0 46.5 16t18.5 47q0 32 -18.5 48t-46.5 16t-46.5 -16t-18.5 -48q0 -31 18.5 -47t46.5 -16z" glyph-name="Edotaccent" horiz-adv-x="668" unicode="Ė"/><glyph d="M266 -12q-66 0 -115.5 26.5t-77 76.5t-27.5 121q0 66 20.5 126t58.5 107t91.5 74.5t118.5 27.5q57 0 95 -18t57 -48.5t19 -69.5q0 -48 -24.5 -85t-73.5 -62.5t-122 -38t-171 -13.5l6 52q85 1 143 11.5t92.5 28.5t49.5 44.5t15 60.5q0 25 -10.5 42t-31 26t-51.5 9 q-43 0 -78.5 -22t-61 -61t-39.5 -89.5t-14 -108.5q0 -53 16 -87.5t46.5 -51.5t74.5 -17q39 0 69 14.5t52.5 38t38.5 50.5l48 -34q-23 -42 -55.5 -71t-72.5 -44t-86 -15zM328 647q28 0 46.5 16t18.5 47q0 32 -18.5 48t-46.5 16t-46.5 -16t-18.5 -48q0 -31 18.5 -47t46.5 -16z" glyph-name="edotaccent" horiz-adv-x="540" unicode="ė"/><glyph d="M586 222l-47 -222h-558l12 55h11q36 0 62 6.5t31 30.5l111 528q5 22 -17.5 29t-59.5 7h-11l12 54h522l-38 -197h-60l5 93q1 18 -10.5 27.5t-37 13t-68.5 3.5h-137l-125 -589h169q43 0 70 3.5t42.5 13t21.5 27.5l39 117h61zM230 392q45 3 90 4.5t89.5 3.5t89.5 4l-17 -79 q-43 2 -87.5 4t-88.5 4.5t-88 3.5zM451 38l22 -30q-49 -28 -79 -50.5t-47 -41t-23 -34t-6 -31.5q0 -20 12 -30t33 -10q23 0 40.5 11.5t30.5 23.5l26 -38q-22 -21 -51 -36.5t-71 -15.5q-53 0 -84 22.5t-31 65.5q0 26 11 47t36.5 42t70 46t110.5 59z" glyph-name="Eogonek" horiz-adv-x="668" unicode="Ę"/><glyph d="M274 49q40 0 70 15t52.5 38.5t38.5 50.5l48 -34q-7 -13 -15.5 -25t-18 -23.5t-21.5 -21.5q-20 -19 -44.5 -38t-48 -38t-43 -38.5t-31 -40t-11.5 -41.5q0 -22 12 -32t33 -10q15 0 28 5.5t23.5 13.5t19.5 16l26 -38q-22 -21 -51 -36.5t-71 -15.5q-53 0 -84 22t-31 64 q0 25 11.5 46.5t38 43.5t73 50t116.5 66l-20 -36q-23 -12 -49.5 -18t-55.5 -6q-66 0 -116 26.5t-78.5 77.5t-28.5 122q0 65 20 125t57.5 106.5t90.5 74t120 27.5q56 0 93.5 -18t57 -49t19.5 -70q0 -48 -24 -85t-72.5 -62t-121.5 -37.5t-171 -13.5l6 52q85 1 142.5 11.5 t91.5 28.5t49 44.5t15 60.5q0 25 -10.5 42t-31 26t-51.5 9q-44 0 -79.5 -22t-60 -60.5t-38 -89t-13.5 -107.5q0 -53 16.5 -88.5t47.5 -52.5t75 -17z" glyph-name="eogonek" horiz-adv-x="540" unicode="ę"/><glyph d="M381 776h82l152 145l4 16h-46l-173 -109l60 -3l-122 112h-45l-3 -16zM586 222l-47 -222h-558l12 55h11q36 0 62 6.5t31 30.5l111 528q5 22 -17.5 29t-59.5 7h-11l12 54h522l-38 -197h-60l5 93q1 18 -10.5 27.5t-37 13t-68.5 3.5h-137l-125 -589h169q43 0 70 3.5t42.5 13 t21.5 27.5l39 117h61zM230 392q45 3 90 4.5t89.5 3.5t89.5 4l-17 -79q-43 2 -87.5 4t-88.5 4.5t-88 3.5z" glyph-name="Ecaron" horiz-adv-x="668" unicode="Ě"/><glyph d="M287 611h72l154 165l3 15h-43l-156 -120l44 -13l-114 133h-40l-4 -15zM266 -12q-66 0 -115.5 26.5t-77 76.5t-27.5 121q0 66 20.5 126t58.5 107t91.5 74.5t118.5 27.5q57 0 95 -18t57 -48.5t19 -69.5q0 -48 -24.5 -85t-73.5 -62.5t-122 -38t-171 -13.5l6 52 q85 1 143 11.5t92.5 28.5t49.5 44.5t15 60.5q0 25 -10.5 42t-31 26t-51.5 9q-43 0 -78.5 -22t-61 -61t-39.5 -89.5t-14 -108.5q0 -53 16 -87.5t46.5 -51.5t74.5 -17q39 0 69 14.5t52.5 38t38.5 50.5l48 -34q-23 -42 -55.5 -71t-72.5 -44t-86 -15z" glyph-name="ecaron" horiz-adv-x="540" unicode="ě"/><glyph d="M146 289q0 54 9 102.5t25.5 90.5t41 75.5t56 58t69.5 37.5t83 13q61 0 102 -21.5t65 -60.5t33 -93h70l48 224h-65l-46 -150l24 -10q-7 41 -25.5 73t-47.5 54.5t-68 34t-87 11.5q-68 0 -127 -21t-106.5 -59.5t-81.5 -91.5t-52.5 -118t-18.5 -137t23.5 -130.5t66.5 -100.5 t102.5 -64.5t132.5 -22.5q54 0 97 11t76 28t57 35.5t39 32.5l36 164q5 23 26 30.5t56 7.5h13l12 54h-288l-12 -54h16q30 0 50 -3.5t30 -12t7 -24.5l-32 -146q-8 -6 -30 -21t-58.5 -27.5t-90.5 -12.5q-53 0 -95.5 16.5t-72.5 48t-46 76.5t-16 103zM519 932h-82l-153 -145 l-3 -17h45l174 110l-61 2l123 -112h44l4 17z" glyph-name="Gcircumflex" horiz-adv-x="799" unicode="Ĝ"/><glyph d="M385 -24l93 445l7 2l47 115h61l-120 -569q-15 -70 -49.5 -117.5t-89 -71t-129.5 -23.5q-55 0 -99.5 11t-75 29t-45.5 36l20 98h90l-25 -121q-11 2 -19 11t-12.5 21t-5 23.5t3.5 18.5q14 -18 37 -34.5t56 -26t78 -9.5q51 0 86 16t56.5 52t34.5 94zM524 384l-36 -44 q-9 44 -27.5 76.5t-48 50.5t-72.5 18q-36 0 -67 -18t-55.5 -48t-42 -68.5t-26.5 -80t-9 -82.5q0 -40 9 -68.5t30.5 -43.5t57.5 -15q41 0 75 21t68 61t72 97l19 -32q-35 -61 -74 -108.5t-82.5 -73.5t-94.5 -26q-59 0 -97.5 23.5t-57.5 66.5t-19 102q0 49 13.5 99.5t39 96 t61.5 81.5t81.5 57t98.5 21q40 0 71 -12.5t53 -35t36.5 -52t23.5 -63.5zM434 798h-72l-154 -165l-4 -15h43l157 120l-45 13l115 -133h40l3 15z" glyph-name="gcircumflex" horiz-adv-x="623" unicode="ĝ"/><glyph d="M146 289q0 54 9 102.5t25.5 90.5t41 75.5t56 58t69.5 37.5t83 13q61 0 102 -21.5t65 -60.5t33 -93h70l48 224h-65l-46 -150l24 -10q-7 41 -25.5 73t-47.5 54.5t-68 34t-87 11.5q-68 0 -127 -21t-106.5 -59.5t-81.5 -91.5t-52.5 -118t-18.5 -137t23.5 -130.5t66.5 -100.5 t102.5 -64.5t132.5 -22.5q54 0 97 11t76 28t57 35.5t39 32.5l36 164q5 23 26 30.5t56 7.5h13l12 54h-288l-12 -54h16q30 0 50 -3.5t30 -12t7 -24.5l-32 -146q-8 -6 -30 -21t-58.5 -27.5t-90.5 -12.5q-53 0 -95.5 16.5t-72.5 48t-46 76.5t-16 103zM451 778q46 0 80.5 15.5 t57 49.5t30.5 91h-62q-7 -31 -19 -49t-32 -25t-50 -7q-36 0 -55 8t-26 26t-6 47h-65q-1 -7 -2 -13.5t-1 -15.5q0 -39 16 -67.5t49 -44t85 -15.5z" glyph-name="Gbreve" horiz-adv-x="799" unicode="Ğ"/><glyph d="M385 -24l93 445l7 2l47 115h61l-120 -569q-15 -70 -49.5 -117.5t-89 -71t-129.5 -23.5q-55 0 -99.5 11t-75 29t-45.5 36l20 98h90l-25 -121q-11 2 -19 11t-12.5 21t-5 23.5t3.5 18.5q14 -18 37 -34.5t56 -26t78 -9.5q51 0 86 16t56.5 52t34.5 94zM524 384l-36 -44 q-9 44 -27.5 76.5t-48 50.5t-72.5 18q-36 0 -67 -18t-55.5 -48t-42 -68.5t-26.5 -80t-9 -82.5q0 -40 9 -68.5t30.5 -43.5t57.5 -15q41 0 75 21t68 61t72 97l19 -32q-35 -61 -74 -108.5t-82.5 -73.5t-94.5 -26q-59 0 -97.5 23.5t-57.5 66.5t-19 102q0 49 13.5 99.5t39 96 t61.5 81.5t81.5 57t98.5 21q40 0 71 -12.5t53 -35t36.5 -52t23.5 -63.5zM368 622q45 0 79 15t56 50.5t30 97.5h-62q-7 -35 -18.5 -55.5t-30 -28.5t-49.5 -8q-34 0 -50.5 11t-20.5 31.5t-1 49.5h-64q-3 -11 -3.5 -20t-0.5 -20q0 -37 14 -65t44.5 -43t76.5 -15z" glyph-name="gbreve" horiz-adv-x="623" unicode="ğ"/><glyph d="M146 289q0 54 9 102.5t25.5 90.5t41 75.5t56 58t69.5 37.5t83 13q61 0 102 -21.5t65 -60.5t33 -93h70l48 224h-65l-46 -150l24 -10q-7 41 -25.5 73t-47.5 54.5t-68 34t-87 11.5q-68 0 -127 -21t-106.5 -59.5t-81.5 -91.5t-52.5 -118t-18.5 -137t23.5 -130.5t66.5 -100.5 t102.5 -64.5t132.5 -22.5q54 0 97 11t76 28t57 35.5t39 32.5l36 164q5 23 26 30.5t56 7.5h13l12 54h-288l-12 -54h16q30 0 50 -3.5t30 -12t7 -24.5l-32 -146q-8 -6 -30 -21t-58.5 -27.5t-90.5 -12.5q-53 0 -95.5 16.5t-72.5 48t-46 76.5t-16 103zM455 786q28 0 46.5 16 t18.5 47q0 32 -18.5 48t-46.5 16t-46.5 -16t-18.5 -48q0 -31 18.5 -47t46.5 -16z" glyph-name="Gdotaccent" horiz-adv-x="799" unicode="Ġ"/><glyph d="M385 -24l93 445l7 2l47 115h61l-120 -569q-15 -70 -49.5 -117.5t-89 -71t-129.5 -23.5q-55 0 -99.5 11t-75 29t-45.5 36l20 98h90l-25 -121q-11 2 -19 11t-12.5 21t-5 23.5t3.5 18.5q14 -18 37 -34.5t56 -26t78 -9.5q51 0 86 16t56.5 52t34.5 94zM524 384l-36 -44 q-9 44 -27.5 76.5t-48 50.5t-72.5 18q-36 0 -67 -18t-55.5 -48t-42 -68.5t-26.5 -80t-9 -82.5q0 -40 9 -68.5t30.5 -43.5t57.5 -15q41 0 75 21t68 61t72 97l19 -32q-35 -61 -74 -108.5t-82.5 -73.5t-94.5 -26q-59 0 -97.5 23.5t-57.5 66.5t-19 102q0 49 13.5 99.5t39 96 t61.5 81.5t81.5 57t98.5 21q40 0 71 -12.5t53 -35t36.5 -52t23.5 -63.5zM367 647q28 0 46.5 16t18.5 47q0 32 -18.5 48t-46.5 16t-46.5 -16t-18.5 -48q0 -31 18.5 -47t46.5 -16z" glyph-name="gdotaccent" horiz-adv-x="623" unicode="ġ"/><glyph d="M146 289q0 54 9 102.5t25.5 90.5t41 75.5t56 58t69.5 37.5t83 13q61 0 102 -21.5t65 -60.5t33 -93h70l48 224h-65l-46 -150l24 -10q-7 41 -25.5 73t-47.5 54.5t-68 34t-87 11.5q-68 0 -127 -21t-106.5 -59.5t-81.5 -91.5t-52.5 -118t-18.5 -137t23.5 -130.5t66.5 -100.5 t102.5 -64.5t132.5 -22.5q54 0 97 11t76 28t57 35.5t39 32.5l36 164q5 23 26 30.5t56 7.5h13l12 54h-288l-12 -54h16q30 0 50 -3.5t30 -12t7 -24.5l-32 -146q-8 -6 -30 -21t-58.5 -27.5t-90.5 -12.5q-53 0 -95.5 16.5t-72.5 48t-46 76.5t-16 103zM268 -325l-36 46 q36 10 62.5 22t43.5 29.5t23 41.5q1 4 5 6t7.5 1t4.5 -7q-3 -5 -12 -9t-20 -4q-33 0 -51.5 14t-18.5 39q0 23 17 39.5t51 16.5q37 0 54.5 -17.5t17.5 -47.5q0 -37 -16 -69t-48.5 -57.5t-83.5 -43.5z" glyph-name="Gcommaaccent" horiz-adv-x="799" unicode="Ģ"/><glyph d="M437 881l37 -46q-36 -8 -62.5 -21t-43.5 -30t-23 -41q-2 -4 -6 -6t-7.5 -1t-4.5 6q3 6 12 9.5t20 3.5q33 0 51.5 -14t18.5 -38t-17 -40.5t-50 -16.5q-38 0 -55 18t-17 48q0 36 15.5 68t48.5 58t83 43zM385 -24l93 445l7 2l47 115h61l-120 -569q-15 -70 -49.5 -117.5 t-89 -71t-129.5 -23.5q-55 0 -99.5 11t-75 29t-45.5 36l20 98h90l-25 -121q-11 2 -19 11t-12.5 21t-5 23.5t3.5 18.5q14 -18 37 -34.5t56 -26t78 -9.5q51 0 86 16t56.5 52t34.5 94zM524 384l-36 -44q-9 44 -27.5 76.5t-48 50.5t-72.5 18q-36 0 -67 -18t-55.5 -48t-42 -68.5 t-26.5 -80t-9 -82.5q0 -40 9 -68.5t30.5 -43.5t57.5 -15q41 0 75 21t68 61t72 97l19 -32q-35 -61 -74 -108.5t-82.5 -73.5t-94.5 -26q-59 0 -97.5 23.5t-57.5 66.5t-19 102q0 49 13.5 99.5t39 96t61.5 81.5t81.5 57t98.5 21q40 0 71 -12.5t53 -35t36.5 -52t23.5 -63.5z" glyph-name="gcommaaccent" horiz-adv-x="623" unicode="ģ"/><glyph d="M228 396h419l-13 -60h-418zM-19 0l12 55h11q37 0 62.5 7t30.5 29l112 529q5 22 -17.5 29t-59.5 7h-11l12 54h285l-13 -54h-9q-19 0 -39 -1t-34 -3t-15 -6l-124 -581q-1 -3 12.5 -5.5t33.5 -3.5t39 -1h9l-12 -55h-285zM440 0l13 55h9q19 0 39 1t34.5 3.5t14.5 5.5l124 581 q1 4 -12.5 6t-33.5 3t-39 1h-9l12 54h285l-12 -54h-11q-37 0 -62.5 -7t-30.5 -29l-112 -529q-5 -22 17.5 -29t59.5 -7h11l-12 -55h-285zM583 932h-82l-153 -145l-3 -17h45l174 110l-61 2l123 -112h44l4 17z" glyph-name="Hcircumflex" horiz-adv-x="850" unicode="Ĥ"/><glyph d="M53 0h89l159 758h-187l-11 -52l10 -2q26 -5 44 -11t27.5 -14t7.5 -20zM510 205l34 150q6 26 10 49t4 42q0 31 -13 53.5t-38 35t-62 12.5q-54 0 -99.5 -25.5t-86 -71t-80.5 -106.5l15 -30q41 54 77 91t70 56t68 19q31 0 44.5 -14.5t13.5 -39.5q0 -13 -3 -29t-9 -43 l-34 -143q-11 -46 -17.5 -73t-9 -43t-2.5 -30q0 -22 11 -37.5t31 -23t46 -7.5q20 0 38 2t35 5.5t31 6.5l11 58q-11 -1 -26 -3.5t-31 -5t-32 -2.5q-13 0 -18.5 5t-5.5 15q0 7 2.5 21.5t9 40t16.5 65.5zM472 989h-82l-153 -145l-3 -17h45l174 110l-61 2l123 -112h44l4 17z" glyph-name="hcircumflex" horiz-adv-x="646" unicode="ĥ"/><glyph d="M224 380h421l-11 -56h-421zM-19 0l12 55h11q37 0 62.5 7t30.5 29l112 529q5 22 -17.5 29t-59.5 7h-11l12 54h285l-13 -54h-9q-19 0 -39 -1t-34 -3t-15 -6l-124 -581q0 -3 13 -5.5t33 -3.5t39 -1h9l-12 -55h-285zM443 0l12 55h9q19 0 39 1t34.5 3.5t15.5 5.5l123 581 q1 4 -12.5 6t-33.5 3t-39 1h-9l13 54h285l-13 -54h-11q-37 0 -62.5 -7t-29.5 -29l-113 -529q-4 -22 18.5 -29t59.5 -7h11l-13 -55h-284zM81 490l11 53h758l-11 -53h-758z" glyph-name="Hbar" horiz-adv-x="853" unicode="Ħ"/><glyph d="M97 670l-12 -55h396l13 55h-397zM510 205l35 153q6 27 10 52.5t4 42.5q0 30 -13.5 50.5t-39 32t-61.5 11.5q-54 0 -99.5 -25.5t-86.5 -71t-80 -106.5l16 -30q40 54 75.5 91.5t69.5 56.5t68 19q33 0 46.5 -12.5t13.5 -35.5q0 -13 -3 -31t-9 -44l-35 -147 q-11 -46 -17.5 -73t-9 -43t-2.5 -30q0 -22 11 -37.5t31 -23t46 -7.5q20 0 38 2t35 5.5t31 6.5l11 58q-11 -1 -26 -3.5t-31 -5t-32 -2.5q-13 0 -18.5 5t-5.5 15q0 7 2.5 21.5t9 40t16.5 65.5zM213 758l-160 -758h89l159 758h-88z" glyph-name="hbar" horiz-adv-x="646" unicode="ħ"/><glyph d="M101 88l112 532q4 22 -18.5 29t-59.5 7h-15l12 54h294l-13 -54h-15q-36 0 -62 -6.5t-30 -27.5l-112 -531q-5 -22 17.5 -29t59.5 -7h16l-13 -55h-293l12 55h16q36 0 61.5 6.5t30.5 26.5zM358 777q-25 0 -43 8.5t-30.5 21t-23 24.5t-21 20.5t-23.5 8.5q-21 0 -33.5 -19.5 t-26.5 -66.5l-52 19q15 51 31 81.5t38 43t53 12.5q24 0 41.5 -8t29.5 -20t22.5 -24.5t21.5 -20.5t26 -8t25 9.5t19 28.5t20 48l51 -20q-15 -52 -33 -82t-40 -43t-52 -13z" glyph-name="Itilde" horiz-adv-x="399" unicode="Ĩ"/><glyph d="M261 625q-25 0 -42.5 9.5t-29 24t-20.5 28.5t-17.5 23.5t-21.5 9.5t-22.5 -10.5t-18 -31.5t-18.5 -55l-51 18q15 56 31.5 88t38 45.5t51.5 13.5q24 0 40.5 -9.5t27.5 -23.5t20.5 -28t19 -23t22.5 -9q15 0 25 11t18 32.5t18 53.5l51 -20q-15 -56 -32.5 -88t-39 -45.5 t-50.5 -13.5zM163 -3q-26 0 -46.5 7.5t-31.5 23t-11 37.5q0 14 2.5 30t8.5 43t17 73l47 226q3 12 -6.5 20.5t-28 15t-44.5 10.5l-12 2l12 52h188l-70 -332q-8 -40 -14 -65.5t-8 -40t-2 -21.5q0 -10 5.5 -15t18.5 -5q16 0 32 2.5t31 5t26 3.5l-10 -58q-15 -3 -31.5 -6.5 t-34.5 -5.5t-38 -2z" glyph-name="itilde" horiz-adv-x="332" unicode="ĩ"/><glyph d="M101 88l112 532q4 22 -18.5 29t-59.5 7h-15l12 54h294l-13 -54h-15q-36 0 -62 -6.5t-30 -27.5l-112 -531q-5 -22 17.5 -29t59.5 -7h16l-13 -55h-293l12 55h16q36 0 61.5 6.5t30.5 26.5zM142 888h325l-15 -68h-325z" glyph-name="Imacron" horiz-adv-x="399" unicode="Ī"/><glyph d="M62 735h291l-15 -68h-291zM163 -3q-26 0 -46.5 7.5t-31.5 23t-11 37.5q0 14 2.5 30t8.5 43t17 73l47 226q3 12 -6.5 20.5t-28 15t-44.5 10.5l-12 2l12 52h188l-70 -332q-8 -40 -14 -65.5t-8 -40t-2 -21.5q0 -10 5.5 -15t18.5 -5q16 0 32 2.5t31 5t26 3.5l-10 -58 q-15 -3 -31.5 -6.5t-34.5 -5.5t-38 -2z" glyph-name="imacron" horiz-adv-x="332" unicode="ī"/><glyph d="M101 88l112 532q4 22 -18.5 29t-59.5 7h-15l12 54h294l-13 -54h-15q-36 0 -62 -6.5t-30 -27.5l-112 -531q-5 -22 17.5 -29t59.5 -7h16l-13 -55h-293l12 55h16q36 0 61.5 6.5t30.5 26.5zM295 778q46 0 80.5 15.5t57 49.5t30.5 91h-62q-7 -31 -19 -49t-32 -25t-50 -7 q-36 0 -55 8t-26 26t-6 47h-65q-1 -7 -2 -13.5t-1 -15.5q0 -39 16 -67.5t49 -44t85 -15.5z" glyph-name="Ibreve" horiz-adv-x="399" unicode="Ĭ"/><glyph d="M210 622q45 0 79 15t55.5 50.5t29.5 97.5h-61q-8 -35 -19 -55.5t-29.5 -28.5t-49.5 -8q-35 0 -51.5 11t-20 31.5t-1.5 49.5h-64q-2 -11 -3 -20t-1 -20q0 -37 14.5 -65t44.5 -43t77 -15zM163 -3q-26 0 -46.5 7.5t-31.5 23t-11 37.5q0 14 2.5 30t8.5 43t17 73l47 226 q3 12 -6.5 20.5t-28 15t-44.5 10.5l-12 2l12 52h188l-70 -332q-8 -40 -14 -65.5t-8 -40t-2 -21.5q0 -10 5.5 -15t18.5 -5q16 0 32 2.5t31 5t26 3.5l-10 -58q-15 -3 -31.5 -6.5t-34.5 -5.5t-38 -2z" glyph-name="ibreve" horiz-adv-x="332" unicode="ĭ"/><glyph d="M216 38l23 -30q-49 -28 -79.5 -50.5t-47 -41t-22.5 -34t-6 -31.5q0 -20 12 -30t32 -10q23 0 40.5 11.5t30.5 23.5l26 -38q-22 -21 -50.5 -36.5t-70.5 -15.5q-54 0 -85 22.5t-31 65.5q0 26 11 47t37 42t70 46t110 59zM101 88l112 532q4 22 -18.5 29t-59.5 7h-15l12 54h294 l-13 -54h-15q-36 0 -62 -6.5t-30 -27.5l-112 -531q-5 -22 17.5 -29t59.5 -7h16l-13 -55h-293l12 55h16q36 0 61.5 6.5t30.5 26.5z" glyph-name="Iogonek" horiz-adv-x="399" unicode="Į"/><glyph d="M227 38l23 -30q-48 -28 -77.5 -50.5t-45.5 -40.5t-22 -33.5t-6 -31.5q0 -20 12 -30.5t33 -10.5q15 0 27.5 5.5t23.5 13.5t20 16l26 -38q-22 -21 -51 -36.5t-71 -15.5q-53 0 -84 22.5t-31 66.5q0 26 10.5 47t36 42t68.5 46t108 58zM74 65q0 14 2.5 30t8.5 43t17 73l47 226 q3 12 -6.5 20.5t-28 15t-44.5 10.5l-12 2l12 52h188l-70 -332q-8 -40 -14 -65.5t-8 -40t-2 -21.5q0 -10 5.5 -15t18.5 -5q16 0 32 2.5t31 5t26 3.5l-10 -58q-15 -3 -31.5 -6.5t-34.5 -5.5t-38 -2q-26 0 -46.5 7.5t-31.5 23t-11 37.5zM160 714q0 31 18.5 47t46.5 16t46.5 -16 t18.5 -47q0 -32 -18.5 -48t-46.5 -16t-46.5 16t-18.5 48z" glyph-name="iogonek" horiz-adv-x="332" unicode="į"/><glyph d="M101 88l112 532q4 22 -18.5 29t-59.5 7h-15l12 54h294l-13 -54h-15q-36 0 -62 -6.5t-30 -27.5l-112 -531q-5 -22 17.5 -29t59.5 -7h16l-13 -55h-293l12 55h16q36 0 61.5 6.5t30.5 26.5zM296 786q28 0 46.5 16t18.5 47q0 32 -18.5 48t-46.5 16t-46.5 -16t-18.5 -48 q0 -31 18.5 -47t46.5 -16z" glyph-name="Idotaccent" horiz-adv-x="399" unicode="İ"/><glyph d="M163 -3q-26 0 -46.5 7.5t-31.5 23t-11 37.5q0 14 2.5 30t8.5 43t17 73l47 226q3 12 -6.5 20.5t-28 15t-44.5 10.5l-12 2l12 52h188l-70 -332q-8 -40 -14 -65.5t-8 -40t-2 -21.5q0 -10 5.5 -15t18.5 -5q16 0 32 2.5t31 5t26 3.5l-10 -58q-15 -3 -31.5 -6.5t-34.5 -5.5 t-38 -2z" glyph-name="dotlessi" horiz-adv-x="332" unicode="ı"/><glyph d="M101 88l112 532q4 22 -18.5 29t-59.5 7h-15l12 54h294l-13 -54h-15q-36 0 -62 -6.5t-30 -27.5l-112 -531q-5 -22 17.5 -29t59.5 -7h16l-13 -55h-293l12 55h16q36 0 61.5 6.5t30.5 26.5zM836 620q5 22 -17.5 29t-59.5 7h-23l12 54h301l-12 -54h-16q-37 0 -62.5 -7 t-29.5 -29l-89 -414q-17 -80 -49 -129.5t-80.5 -71.5t-112.5 -22q-57 0 -99 14t-69 34t-42 37l29 130h99l-31 -140q-17 6 -26 17.5t-11 22.5t2.5 15.5t13.5 -3.5q13 -25 46.5 -45.5t88.5 -20.5q40 0 68.5 15.5t48.5 52t33 99.5z" glyph-name="IJ" horiz-adv-x="1023" unicode="Ĳ"/><glyph d="M74 65q0 14 2.5 30t8.5 43t17 73l47 226q3 12 -6.5 20.5t-28 15t-44.5 10.5l-12 2l12 52h188l-70 -332q-8 -40 -14 -65.5t-8 -40t-2 -21.5q0 -10 5.5 -15t18.5 -5q16 0 32 2.5t31 5t26 3.5l-10 -58q-15 -3 -31.5 -6.5t-34.5 -5.5t-38 -2q-26 0 -46.5 7.5t-31.5 23 t-11 37.5zM160 714q0 31 18.5 47t46.5 16t46.5 -16t18.5 -47q0 -32 -18.5 -48t-46.5 -16t-46.5 16t-18.5 48zM578 650q-29 0 -47 16t-18 48q0 31 18 47t47 16q28 0 46.5 -16t18.5 -47q0 -32 -18.5 -48t-46.5 -16zM171 -221l13 63q18 -6 42.5 -14t55.5 -8q32 0 54.5 11.5 t37 37.5t23.5 69l106 500q2 12 -7.5 20t-28 14.5t-45.5 10.5l-12 2l11 52h189l-126 -596q-14 -67 -42.5 -107.5t-69.5 -58.5t-94 -18q-36 0 -64 7.5t-43 14.5z" glyph-name="ij" horiz-adv-x="663" unicode="ĳ"/><glyph d="M437 620q5 22 -17.5 29t-59.5 7h-23l12 54h301l-12 -54h-16q-37 0 -62.5 -7t-29.5 -29l-89 -414q-17 -80 -49 -129.5t-80.5 -71.5t-112.5 -22q-57 0 -99 14t-69 34t-42 37l29 130h99l-31 -140q-17 6 -26 17.5t-11 22.5t2.5 15.5t13.5 -3.5q13 -25 46.5 -45.5t88.5 -20.5 q40 0 68.5 15.5t48.5 52t33 99.5zM577 932h-82l-153 -145l-3 -17h45l174 110l-61 2l123 -112h44l4 17z" glyph-name="Jcircumflex" horiz-adv-x="624" unicode="Ĵ"/><glyph d="M-161 -221l13 63q18 -6 42.5 -14t55.5 -8q32 0 54.5 11.5t37 37.5t23.5 69l106 500q2 12 -7.5 20t-28 14.5t-45.5 10.5l-12 2l11 52h189l-126 -596q-14 -67 -42.5 -107.5t-69.5 -58.5t-94 -18q-23 0 -44 3.5t-37 8.5t-26 10zM270 798h-72l-154 -165l-4 -15h43l157 120 l-45 13l115 -133h40l3 15z" glyph-name="jcircumflex" horiz-adv-x="331" unicode="ĵ"/><glyph d="M-19 0l12 55h11q37 0 62.5 7t30.5 29l112 529q4 22 -18.5 29t-59.5 7h-11l13 54h282l-13 -54h-9q-17 0 -37 -1t-34 -3t-15 -6l-123 -581q-1 -3 12.5 -5.5t33 -3.5t37.5 -1h9l-13 -55h-282zM395 0l12 55h9q20 0 39 1t32 3.5t13 5.5l-215 280l5 24l313 276q1 3 -5.5 5 t-18 3.5t-25 2t-28.5 0.5h-9l12 54h253l-13 -54h-18q-17 0 -31 -2.5t-26.5 -9t-25.5 -17.5l-316 -275v48l248 -318q10 -12 20 -17.5t24 -7.5t33 -2h17l-13 -55h-286zM247 -325l-36 46q36 10 62.5 22t43.5 29.5t23 41.5q1 4 5 6t7.5 1t4.5 -7q-3 -5 -12 -9t-20 -4 q-33 0 -51.5 14t-18.5 39q0 23 17 39.5t51 16.5q37 0 54.5 -17.5t17.5 -47.5q0 -37 -16 -69t-48.5 -57.5t-83.5 -43.5z" glyph-name="Kcommaaccent" horiz-adv-x="769" unicode="Ķ"/><glyph d="M413 120l-92 206l-41 -62q51 44 102.5 87.5t103 86.5t103.5 86v13h-95q-41 -40 -82.5 -79.5l-83 -79t-83.5 -79.5l-1 -5l85 -198q14 -34 29 -56t35.5 -32.5t50.5 -10.5q16 0 31 2.5t29.5 6.5t26.5 8l10 57q-8 -1 -19.5 -3t-23.5 -3.5t-25 -1.5q-10 0 -19 4t-16 11t-13 18 t-12 24zM53 0h89l159 758h-187l-11 -52l10 -2q26 -5 44 -11t27.5 -14t7.5 -20zM191 -325l-36 46q36 10 62.5 22t43.5 29.5t23 41.5q1 4 5 6t7.5 1t4.5 -7q-3 -5 -12 -9t-20 -4q-33 0 -51.5 14t-18.5 39q0 23 17 39.5t51 16.5q37 0 54.5 -17.5t17.5 -47.5q0 -37 -16 -69 t-48.5 -57.5t-83.5 -43.5z" glyph-name="kcommaaccent" horiz-adv-x="589" unicode="ķ"/><glyph d="M326 326l-41 -62q38 33 77 65.5t77.5 65l77 65t77.5 64.5v13h-95q-41 -40 -82.5 -79.5l-83 -79t-83.5 -79.5l-1 -5l85 -198q14 -34 29 -56t35.5 -32.5t50.5 -10.5q16 0 31 2.5t29.5 6.5t26.5 8l10 57q-8 -1 -19.5 -3t-23.5 -3.5t-25 -1.5q-10 0 -19 4t-16 11t-13 18 t-12 24zM147 0h-89l93 438q2 12 -7.5 20t-27.5 14t-44 11l-10 2l11 52h187z" glyph-name="kgreenlandic" horiz-adv-x="594" unicode="ĸ"/><glyph d="M425 710l-13 -54h-13q-25 0 -46 -3t-34.5 -10t-16.5 -21l-119 -561h152q32 0 55.5 1.5t39.5 6.5t25.5 14t13.5 22l40 125h63l-48 -230h-543l12 55h11q36 0 62 6.5t30 26.5l113 532q4 22 -18.5 29t-59.5 7h-11l13 54h292zM329 899q14 14 25.5 24t23 15t25.5 5q21 0 33 -12 t12 -30q0 -16 -9 -28t-25 -21.5t-38 -20.5l-108 -51h-33l5 24z" glyph-name="Lacute" horiz-adv-x="639" unicode="Ĺ"/><glyph d="M186 659q2 12 -7.5 20t-27.5 14t-44 11l-10 2l11 52h186l-117 -553q-8 -40 -14 -65.5t-8 -40t-2 -21.5q0 -10 5.5 -15t18.5 -5q17 0 33 2.5t30.5 5t26.5 3.5l-11 -58q-14 -3 -30.5 -6.5t-35 -5.5t-37.5 -2q-27 0 -47 7.5t-31 23t-11 37.5q0 14 2.5 30t9 43.5t16.5 73.5z M280 951q14 14 25.5 24t23 15t25.5 5q21 0 33 -12t12 -30q0 -16 -9 -28t-25 -21.5t-38 -20.5l-108 -51h-33l5 24z" glyph-name="lacute" horiz-adv-x="329" unicode="ĺ"/><glyph d="M425 710l-13 -54h-13q-25 0 -46 -3t-34.5 -10t-16.5 -21l-119 -561h152q32 0 55.5 1.5t39.5 6.5t25.5 14t13.5 22l40 125h63l-48 -230h-543l12 55h11q36 0 62 6.5t30 26.5l113 532q4 22 -18.5 29t-59.5 7h-11l13 54h292zM197 -325l-36 46q36 10 62.5 22t43.5 29.5 t23 41.5q1 4 5 6t7.5 1t4.5 -7q-3 -5 -12 -9t-20 -4q-33 0 -51.5 14t-18.5 39q0 23 17 39.5t51 16.5q37 0 54.5 -17.5t17.5 -47.5q0 -37 -16 -69t-48.5 -57.5t-83.5 -43.5z" glyph-name="Lcommaaccent" horiz-adv-x="639" unicode="Ļ"/><glyph d="M186 659q2 12 -7.5 20t-27.5 14t-44 11l-10 2l11 52h186l-117 -553q-8 -40 -14 -65.5t-8 -40t-2 -21.5q0 -10 5.5 -15t18.5 -5q17 0 33 2.5t30.5 5t26.5 3.5l-11 -58q-14 -3 -30.5 -6.5t-35 -5.5t-37.5 -2q-27 0 -47 7.5t-31 23t-11 37.5q0 14 2.5 30t9 43.5t16.5 73.5z M66 -325l-36 46q36 10 62.5 22t43.5 29.5t23 41.5q1 4 5 6t7.5 1t4.5 -7q-3 -5 -12 -9t-20 -4q-33 0 -51.5 14t-18.5 39q0 23 17 39.5t51 16.5q37 0 54.5 -17.5t17.5 -47.5q0 -37 -16 -69t-48.5 -57.5t-83.5 -43.5z" glyph-name="lcommaaccent" horiz-adv-x="329" unicode="ļ"/><glyph d="M425 710l-13 -54h-13q-25 0 -46 -3t-34.5 -10t-16.5 -21l-119 -561h152q32 0 55.5 1.5t39.5 6.5t25.5 14t13.5 22l40 125h63l-48 -230h-543l12 55h11q36 0 62 6.5t30 26.5l113 532q4 22 -18.5 29t-59.5 7h-11l13 54h292zM514 522l96 188h-98l-53 -171l-4 -17h59z" glyph-name="Lcaron" horiz-adv-x="639" unicode="Ľ"/><glyph d="M186 659q2 12 -7.5 20t-27.5 14t-44 11l-10 2l11 52h186l-117 -553q-8 -40 -14 -65.5t-8 -40t-2 -21.5q0 -10 5.5 -15t18.5 -5q17 0 33 2.5t30.5 5t26.5 3.5l-11 -58q-14 -3 -30.5 -6.5t-35 -5.5t-37.5 -2q-27 0 -47 7.5t-31 23t-11 37.5q0 14 2.5 30t9 43.5t16.5 73.5z M381 570l96 188h-98l-53 -171l-4 -17h59z" glyph-name="lcaron" horiz-adv-x="338" unicode="ľ"/><glyph d="M425 710l-13 -54h-13q-25 0 -46 -3t-34.5 -10t-16.5 -21l-119 -561h152q32 0 55.5 1.5t39.5 6.5t25.5 14t13.5 22l37 118h64l-46 -223h-543l12 55h11q36 0 62 6.5t30 26.5l113 532q4 22 -18.5 29t-59.5 7h-11l13 54h292zM621 416q0 -31 -22 -51t-56 -20t-55.5 20 t-21.5 51q0 33 21.5 52.5t55.5 19.5t56 -19.5t22 -52.5z" glyph-name="Ldot" horiz-adv-x="639" unicode="Ŀ"/><glyph d="M186 659q2 12 -7.5 20t-27.5 14t-44 11l-10 2l11 52h186l-117 -553q-8 -40 -14 -65.5t-8 -40t-2 -21.5q0 -10 5.5 -15t18.5 -5q17 0 33 2.5t30.5 5t26.5 3.5l-11 -58q-14 -3 -30.5 -6.5t-35 -5.5t-37.5 -2q-27 0 -47 7.5t-31 23t-11 37.5q0 14 2.5 30t9 43.5t16.5 73.5z M480 359q0 -32 -22 -52t-57 -20q-33 0 -54.5 20t-21.5 52t21.5 52t54.5 20q35 0 57 -20t22 -52z" glyph-name="ldot" horiz-adv-x="467" unicode="ŀ"/><glyph d="M1 188l15 70l512 278l-16 -70zM425 710l-13 -54h-13q-25 0 -46 -3t-34.5 -10t-16.5 -21l-119 -561h152q32 0 55.5 1.5t39.5 6.5t25.5 14t13.5 22l40 125h63l-48 -230h-543l12 55h11q36 0 62 6.5t30 26.5l113 532q4 22 -18.5 29t-59.5 7h-11l13 54h292z" glyph-name="Lslash" horiz-adv-x="639" unicode="Ł"/><glyph d="M12 212l15 80l364 263l-15 -80zM206 659q2 12 -7.5 20t-27.5 14t-44 11l-10 2l11 52h186l-117 -553q-8 -40 -14 -65.5t-8 -40t-2 -21.5q0 -10 5.5 -15t18.5 -5q17 0 33 2.5t31 5t26 3.5l-11 -58q-14 -3 -30.5 -6.5t-35 -5.5t-37.5 -2q-27 0 -47 7.5t-31 23t-11 37.5 q0 14 2.5 30t9 43.5t16.5 73.5z" glyph-name="lslash" horiz-adv-x="383" unicode="ł"/><glyph d="M-19 0l12 55h11q24 0 44 2.5t33 10.5t16 22l111 530q4 15 -6 22.5t-28 10.5t-43 3h-11l12 54h221l218 -625l-12 -4l119 565q1 4 -12.5 6t-33.5 3t-39 1h-14l12 54h265l-13 -54h-11q-36 0 -62 -6.5t-30 -27.5l-132 -622h-98l-237 674l14 3l-129 -612q0 -3 13 -5.5 t33.5 -3.5t39.5 -1h14l-13 -55h-264zM541 892q14 14 25.5 24t23 15t25.5 5q21 0 33 -12t12 -30q0 -16 -9 -28t-25 -21.5t-38 -20.5l-108 -51h-33l5 24z" glyph-name="Nacute" horiz-adv-x="825" unicode="Ń"/><glyph d="M59 0h88l79 375l-5 11l17 151h-165l-11 -52l12 -2q25 -4 43.5 -10.5t28 -14.5t7.5 -20zM515 205l34 150q7 26 10.5 49t3.5 42q0 47 -29 74t-83 27t-99.5 -25.5t-86.5 -71.5t-81 -106l15 -30q41 54 77.5 91t70.5 56t68 19q31 0 44 -14.5t13 -39.5q0 -13 -2.5 -29t-9.5 -43 l-33 -143q-12 -46 -18 -73t-9 -43t-3 -30q0 -22 11 -37.5t31 -23t47 -7.5q19 0 37.5 2t35 5.5t31.5 6.5l10 58q-11 -1 -25.5 -3.5t-31 -5t-32.5 -2.5q-12 0 -18 5t-6 15q0 7 3 21.5t9 40t16 65.5zM404 753q12 20 23 34t24 21t29 7q21 0 34.5 -13t13.5 -32q0 -15 -7 -26.5 t-19 -22t-27 -21.5l-118 -86h-30l4 23z" glyph-name="nacute" horiz-adv-x="652" unicode="ń"/><glyph d="M-19 0l12 55h11q24 0 44 2.5t33 10.5t16 22l111 530q4 15 -6 22.5t-28 10.5t-43 3h-11l12 54h221l218 -625l-12 -4l119 565q1 4 -12.5 6t-33.5 3t-39 1h-14l12 54h265l-13 -54h-11q-36 0 -62 -6.5t-30 -27.5l-132 -622h-98l-237 674l14 3l-129 -612q0 -3 13 -5.5 t33.5 -3.5t39.5 -1h14l-13 -55h-264zM264 -325l-36 46q36 10 62.5 22t43.5 29.5t23 41.5q1 4 5 6t7.5 1t4.5 -7q-3 -5 -12 -9t-20 -4q-33 0 -51.5 14t-18.5 39q0 23 17 39.5t51 16.5q37 0 54.5 -17.5t17.5 -47.5q0 -37 -16 -69t-48.5 -57.5t-83.5 -43.5z" glyph-name="Ncommaaccent" horiz-adv-x="825" unicode="Ņ"/><glyph d="M59 0h88l79 375l-5 11l17 151h-165l-11 -52l12 -2q25 -4 43.5 -10.5t28 -14.5t7.5 -20zM515 205l34 150q7 26 10.5 49t3.5 42q0 47 -29 74t-83 27t-99.5 -25.5t-86.5 -71.5t-81 -106l15 -30q41 54 77.5 91t70.5 56t68 19q31 0 44 -14.5t13 -39.5q0 -13 -2.5 -29t-9.5 -43 l-33 -143q-12 -46 -18 -73t-9 -43t-3 -30q0 -22 11 -37.5t31 -23t47 -7.5q19 0 37.5 2t35 5.5t31.5 6.5l10 58q-11 -1 -25.5 -3.5t-31 -5t-32.5 -2.5q-12 0 -18 5t-6 15q0 7 3 21.5t9 40t16 65.5zM204 -325l-36 46q36 10 62.5 22t43.5 29.5t23 41.5q1 4 5 6t7.5 1t4.5 -7 q-3 -5 -12 -9t-20 -4q-33 0 -51.5 14t-18.5 39q0 23 17 39.5t51 16.5q37 0 54.5 -17.5t17.5 -47.5q0 -37 -16 -69t-48.5 -57.5t-83.5 -43.5z" glyph-name="ncommaaccent" horiz-adv-x="652" unicode="ņ"/><glyph d="M455 776h82l152 145l4 16h-46l-173 -109l60 -3l-122 112h-45l-3 -16zM-19 0l12 55h11q24 0 44 2.5t33 10.5t16 22l111 530q4 15 -6 22.5t-28 10.5t-43 3h-11l12 54h221l218 -625l-12 -4l119 565q1 4 -12.5 6t-33.5 3t-39 1h-14l12 54h265l-13 -54h-11q-36 0 -62 -6.5 t-30 -27.5l-132 -622h-98l-237 674l14 3l-129 -612q0 -3 13 -5.5t33.5 -3.5t39.5 -1h14l-13 -55h-264z" glyph-name="Ncaron" horiz-adv-x="825" unicode="Ň"/><glyph d="M333 611h72l154 165l4 15h-43l-157 -120l45 -13l-115 133h-40l-3 -15zM59 0h88l79 375l-5 11l17 151h-165l-11 -52l12 -2q25 -4 43.5 -10.5t28 -14.5t7.5 -20zM515 205l34 150q7 26 10.5 49t3.5 42q0 47 -29 74t-83 27t-99.5 -25.5t-86.5 -71.5t-81 -106l15 -30 q41 54 77.5 91t70.5 56t68 19q31 0 44 -14.5t13 -39.5q0 -13 -2.5 -29t-9.5 -43l-33 -143q-12 -46 -18 -73t-9 -43t-3 -30q0 -22 11 -37.5t31 -23t47 -7.5q19 0 37.5 2t35 5.5t31.5 6.5l10 58q-11 -1 -25.5 -3.5t-31 -5t-32.5 -2.5q-12 0 -18 5t-6 15q0 7 3 21.5t9 40 t16 65.5z" glyph-name="ncaron" horiz-adv-x="652" unicode="ň"/><glyph d="M54 0h88l79 375l-5 11l17 151h-165l-11 -52l12 -2q25 -4 43.5 -10.5t28 -14.5t7.5 -20zM510 205l34 150q7 26 10.5 49t3.5 42q0 47 -29 74t-83 27t-99.5 -25.5t-86.5 -71.5t-81 -106l15 -30q41 54 77.5 91t70.5 56t68 19q31 0 44 -14.5t13 -39.5q0 -13 -2.5 -29t-9.5 -43 l-33 -143q-12 -46 -18 -73t-9 -43t-3 -30q0 -22 11 -37.5t31 -23t47 -7.5q19 0 37.5 2t35 5.5t31.5 6.5l10 58q-11 -1 -25.5 -3.5t-31 -5t-32.5 -2.5q-12 0 -18 5t-6 15q0 7 3 21.5t9 40t16 65.5zM35 675q0 -28 -7 -55t-21 -52t-33.5 -47.5t-45 -40.5t-55.5 -31l-49 49 q42 15 74.5 37t52.5 49.5t23 60.5l15 -5q-7 -6 -14 -8.5t-14 -2.5q-30 0 -49 16.5t-19 41.5q0 26 18 43.5t50 17.5q24 0 40.5 -9t25 -25t8.5 -39z" glyph-name="napostrophe" horiz-adv-x="670" unicode="ŉ"/><glyph d="M603 -22q-18 -82 -52.5 -127.5t-80.5 -63.5t-98 -18q-35 0 -66.5 6.5t-48.5 14.5l14 67q17 -7 46 -15t63 -8q40 0 71 14t52.5 49.5t34.5 98.5l11 52l6 -67l-282 693l14 3l-129 -612q0 -3 13 -5.5t33.5 -3.5t39.5 -1h14l-13 -55h-264l12 55h11q24 0 44 2.5t33 10.5t16 22 l111 530q4 15 -6 22.5t-28 10.5t-43 3h-11l12 54h221l253 -626l-47 -3l119 565q1 4 -12.5 6t-33.5 3t-39 1h-14l12 54h265l-13 -54h-11q-36 0 -62 -6.5t-30 -27.5z" glyph-name="Eng" horiz-adv-x="825" unicode="Ŋ"/><glyph d="M59 0h88l79 375l-5 11l17 151h-165l-11 -52l12 -2q25 -4 43.5 -10.5t28 -14.5t7.5 -20zM368 -63q-9 -42 -23.5 -68t-37 -37.5t-55.5 -11.5q-21 0 -38.5 3.5t-32.5 9t-26 9.5l-14 -63q15 -7 43.5 -14.5t64.5 -7.5q53 0 94.5 18t70.5 58.5t43 107.5l92 413q7 27 10.5 50 t3.5 42q0 31 -13 53.5t-38 35t-61 12.5q-56 0 -101.5 -25.5t-85.5 -71t-80 -106.5l15 -30q41 54 77 91t70.5 56t68.5 19q31 0 44 -14.5t13 -39.5q0 -13 -2.5 -29.5t-8.5 -42.5z" glyph-name="eng" horiz-adv-x="637" unicode="ŋ"/><glyph d="M362 -17q-76 0 -134.5 24.5t-98 68t-60 101t-20.5 123.5q0 63 16.5 125t49 116.5t79.5 96.5t109.5 66t138.5 24t134.5 -24.5t98 -68t60 -101.5t20.5 -123q0 -64 -16.5 -126t-49 -116.5t-79.5 -96t-109.5 -65.5t-138.5 -24zM439 666q-47 0 -87.5 -13.5t-73 -40t-58 -66 t-42.5 -91.5q-11 -26 -17.5 -54t-9.5 -56.5t-3 -56.5q0 -53 13 -97.5t39.5 -77.5t67.5 -50.5t97 -17.5q47 0 87.5 13t73 39.5t58 66t42.5 91.5q11 28 17.5 55.5t9.5 55.5t3 56q0 54 -13 98t-39.5 77t-67.5 51t-97 18zM308 888h325l-15 -68h-325z" glyph-name="Omacron" horiz-adv-x="802" unicode="Ō"/><glyph d="M450 188q9 23 14 47t7.5 49t2.5 50q0 48 -15.5 82t-46.5 52t-78 18q-33 0 -59.5 -10.5t-47 -29.5t-36.5 -44.5t-27 -54.5q-8 -23 -13.5 -47.5t-8 -49.5t-2.5 -49q0 -49 15.5 -83t46.5 -52t78 -18q33 0 59.5 11t47 29.5t36.5 44t27 55.5zM46 212q0 55 13.5 105t39 92 t61.5 73t81 48t98 17q69 0 120.5 -27.5t80 -78.5t28.5 -120q0 -55 -13.5 -104.5t-39 -91.5t-61.5 -72.5t-81 -47.5t-98 -17q-69 0 -120.5 27.5t-80 78t-28.5 118.5zM202 735h325l-15 -68h-325z" glyph-name="omacron" horiz-adv-x="614" unicode="ō"/><glyph d="M362 -17q-76 0 -134.5 24.5t-98 68t-60 101t-20.5 123.5q0 63 16.5 125t49 116.5t79.5 96.5t109.5 66t138.5 24t134.5 -24.5t98 -68t60 -101.5t20.5 -123q0 -64 -16.5 -126t-49 -116.5t-79.5 -96t-109.5 -65.5t-138.5 -24zM439 666q-47 0 -87.5 -13.5t-73 -40t-58 -66 t-42.5 -91.5q-11 -26 -17.5 -54t-9.5 -56.5t-3 -56.5q0 -53 13 -97.5t39.5 -77.5t67.5 -50.5t97 -17.5q47 0 87.5 13t73 39.5t58 66t42.5 91.5q11 28 17.5 55.5t9.5 55.5t3 56q0 54 -13 98t-39.5 77t-67.5 51t-97 18zM467 778q46 0 80.5 15.5t57 49.5t30.5 91h-62 q-7 -31 -19 -49t-32 -25t-50 -7q-36 0 -55 8t-26 26t-6 47h-65q-1 -7 -2 -13.5t-1 -15.5q0 -39 16 -67.5t49 -44t85 -15.5z" glyph-name="Obreve" horiz-adv-x="802" unicode="Ŏ"/><glyph d="M450 188q9 23 14 47t7.5 49t2.5 50q0 48 -15.5 82t-46.5 52t-78 18q-33 0 -59.5 -10.5t-47 -29.5t-36.5 -44.5t-27 -54.5q-8 -23 -13.5 -47.5t-8 -49.5t-2.5 -49q0 -49 15.5 -83t46.5 -52t78 -18q33 0 59.5 11t47 29.5t36.5 44t27 55.5zM46 212q0 55 13.5 105t39 92 t61.5 73t81 48t98 17q69 0 120.5 -27.5t80 -78.5t28.5 -120q0 -55 -13.5 -104.5t-39 -91.5t-61.5 -72.5t-81 -47.5t-98 -17q-69 0 -120.5 27.5t-80 78t-28.5 118.5zM354 622q45 0 79 15t56 50.5t30 97.5h-62q-7 -35 -18.5 -55.5t-30 -28.5t-49.5 -8q-34 0 -50.5 11 t-20.5 31.5t-1 49.5h-64q-3 -11 -3.5 -20t-0.5 -20q0 -37 14 -65t44.5 -43t76.5 -15z" glyph-name="obreve" horiz-adv-x="618" unicode="ŏ"/><glyph d="M362 -17q-76 0 -134.5 24.5t-98 68t-60 101t-20.5 123.5q0 63 16.5 125t49 116.5t79.5 96.5t109.5 66t138.5 24t134.5 -24.5t98 -68t60 -101.5t20.5 -123q0 -64 -16.5 -126t-49 -116.5t-79.5 -96t-109.5 -65.5t-138.5 -24zM439 666q-47 0 -87.5 -13.5t-73 -40t-58 -66 t-42.5 -91.5q-11 -26 -17.5 -54t-9.5 -56.5t-3 -56.5q0 -53 13 -97.5t39.5 -77.5t67.5 -50.5t97 -17.5q47 0 87.5 13t73 39.5t58 66t42.5 91.5q11 28 17.5 55.5t9.5 55.5t3 56q0 54 -13 98t-39.5 77t-67.5 51t-97 18zM374 892q11 26 25.5 38t34.5 12t32.5 -12t12.5 -30 q0 -12 -5.5 -23t-17.5 -22.5t-30 -26.5l-66 -52h-34l3 24zM555 892q11 26 25.5 38t34.5 12t32.5 -12t12.5 -30q0 -12 -5.5 -23t-17.5 -22.5t-30 -26.5l-66 -52h-34l3 24z" glyph-name="Ohungarumlaut" horiz-adv-x="802" unicode="Ő"/><glyph d="M450 188q9 23 14 47t7.5 49t2.5 50q0 48 -15.5 82t-46.5 52t-78 18q-33 0 -59.5 -10.5t-47 -29.5t-36.5 -44.5t-27 -54.5q-8 -23 -13.5 -47.5t-8 -49.5t-2.5 -49q0 -49 15.5 -83t46.5 -52t78 -18q33 0 59.5 11t47 29.5t36.5 44t27 55.5zM46 212q0 55 13.5 105t39 92 t61.5 73t81 48t98 17q69 0 120.5 -27.5t80 -78.5t28.5 -120q0 -55 -13.5 -104.5t-39 -91.5t-61.5 -72.5t-81 -47.5t-98 -17q-69 0 -120.5 27.5t-80 78t-28.5 118.5zM269 755q10 31 23.5 45.5t36.5 14.5q22 0 34.5 -12t12.5 -30q0 -13 -4.5 -23.5t-13 -21t-21.5 -25.5 l-82 -89h-30l5 23zM447 755q11 31 24.5 45.5t36.5 14.5q22 0 34 -12t12 -30q0 -13 -4 -23.5t-12.5 -21t-21.5 -25.5l-82 -89h-30l4 23z" glyph-name="ohungarumlaut" horiz-adv-x="614" unicode="ő"/><glyph d="M619 392q44 2 88.5 4l89 4t88.5 3l-16 -78q-44 3 -87.5 5t-87.5 4t-88 3zM489 710h551l-38 -196h-60l5 93q2 18 -9.5 27.5t-37.5 13t-69 3.5h-134l-125 -591h166q43 0 70.5 3.5t43 13t20.5 27.5l39 117h62l-48 -221h-522q-81 0 -146.5 20t-112 59t-71 95t-24.5 128 q0 70 18 132t54.5 112.5t89.5 87.5t122.5 56.5t155.5 19.5zM409 60h70l126 591h-115q-61 0 -110 -12t-87 -34t-65.5 -53.5t-45 -70.5t-26 -84.5t-8.5 -95.5q0 -78 27 -131.5t84.5 -81.5t149.5 -28z" glyph-name="OE" horiz-adv-x="1054" unicode="Œ"/><glyph d="M694 -12q-49 0 -87.5 15.5t-65 44.5t-41 70.5t-14.5 94.5q0 51 12 99.5t34.5 91t55.5 74.5t76 50.5t95 18.5q56 0 93.5 -18t57 -49t19.5 -70q0 -48 -24 -85t-72.5 -62t-121.5 -37.5t-171 -13.5l6 52q85 1 142.5 11.5t91.5 28.5t49 44.5t15 60.5q0 25 -10.5 42t-31 26 t-51.5 9q-44 0 -80 -22t-61 -60.5t-38 -89t-13 -107.5q0 -56 17.5 -91t49.5 -51t75 -16q38 0 68 11.5t54 32t45 45.5l33 -48q-23 -29 -54.5 -52t-70 -36.5t-82.5 -13.5zM342 547q50 0 89 -16.5t66 -45.5t41 -69.5t14 -89.5q0 -54 -12 -104.5t-35.5 -93t-57.5 -74t-77.5 -49 t-96.5 -17.5q-68 0 -119 27.5t-79.5 78t-28.5 118.5q0 55 13.5 105t39.5 92t62.5 73t81.5 48t99 17zM164 347q-8 -23 -13.5 -47.5t-8 -49.5t-2.5 -49q0 -49 15.5 -83t46.5 -52t78 -18q33 0 59.5 11t47 29.5t36.5 44t27 55.5q9 23 14 47t7.5 49t2.5 50q0 48 -15.5 82 t-46.5 52t-78 18q-33 0 -59.5 -10.5t-47 -29.5t-36.5 -44.5t-27 -54.5z" glyph-name="oe" horiz-adv-x="965" unicode="œ"/><glyph d="M373 321l86 22l100 -240q9 -21 19 -31.5t24 -13.5t35 -3h14l-13 -55h-142zM284 55l-12 -55h-291l12 55h11q36 0 62 6.5t30 27.5l113 531q4 21 -17.5 28.5t-60.5 7.5h-11l13 54h279q79 0 131.5 -23t79.5 -63.5t27 -92.5q0 -46 -15 -83.5t-43.5 -65.5t-68.5 -45.5 t-90 -24.5q-11 -3 -21.5 -5.5t-19.5 -4t-18 -1.5h-140l-50 -236q0 -3 12.5 -5.5t32.5 -3.5t40 -1h15zM414 650h-106l-62 -292h133q44 0 76.5 12t54 34.5t32 54.5t10.5 73q0 36 -14.5 62.5t-45 41t-78.5 14.5zM461 899q14 14 25.5 24t23 15t25.5 5q21 0 33 -12t12 -30 q0 -16 -9 -28t-25 -21.5t-38 -20.5l-108 -51h-33l5 24z" glyph-name="Racute" horiz-adv-x="729" unicode="Ŕ"/><glyph d="M59 0h88l79 375l-6 5l18 157h-165l-11 -52l12 -2q25 -4 43.5 -10.5t28 -14.5t7.5 -20zM450 542q-4 2 -16.5 4t-27.5 2q-34 0 -61.5 -14t-53 -41.5t-52 -68.5t-57.5 -96l19 -23q25 42 46.5 70.5t42 45.5t43 25t48.5 8q15 0 27.5 -2t26.5 -5zM322 753q12 20 23 34t24 21 t29 7q21 0 34.5 -13t13.5 -32q0 -15 -7 -26.5t-19 -22t-27 -21.5l-118 -86h-30l4 23z" glyph-name="racute" horiz-adv-x="453" unicode="ŕ"/><glyph d="M373 321l86 22l100 -240q9 -21 19 -31.5t24 -13.5t35 -3h14l-13 -55h-142zM284 55l-12 -55h-291l12 55h11q36 0 62 6.5t30 27.5l113 531q4 21 -17.5 28.5t-60.5 7.5h-11l13 54h279q79 0 131.5 -23t79.5 -63.5t27 -92.5q0 -46 -15 -83.5t-43.5 -65.5t-68.5 -45.5 t-90 -24.5q-11 -3 -21.5 -5.5t-19.5 -4t-18 -1.5h-140l-50 -236q0 -3 12.5 -5.5t32.5 -3.5t40 -1h15zM414 650h-106l-62 -292h133q44 0 76.5 12t54 34.5t32 54.5t10.5 73q0 36 -14.5 62.5t-45 41t-78.5 14.5zM263 -325l-36 46q36 10 62.5 22t43.5 29.5t23 41.5q1 4 5 6 t7.5 1t4.5 -7q-3 -5 -12 -9t-20 -4q-33 0 -51.5 14t-18.5 39q0 23 17 39.5t51 16.5q37 0 54.5 -17.5t17.5 -47.5q0 -37 -16 -69t-48.5 -57.5t-83.5 -43.5z" glyph-name="Rcommaaccent" horiz-adv-x="729" unicode="Ŗ"/><glyph d="M59 0h88l79 375l-6 5l18 157h-165l-11 -52l12 -2q25 -4 43.5 -10.5t28 -14.5t7.5 -20zM450 542q-4 2 -16.5 4t-27.5 2q-34 0 -61.5 -14t-53 -41.5t-52 -68.5t-57.5 -96l19 -23q25 42 46.5 70.5t42 45.5t43 25t48.5 8q15 0 27.5 -2t26.5 -5zM12 -325l-36 46q36 10 62.5 22 t43.5 29.5t23 41.5q1 4 5 6t7.5 1t4.5 -7q-3 -5 -12 -9t-20 -4q-33 0 -51.5 14t-18.5 39q0 23 17 39.5t51 16.5q37 0 54.5 -17.5t17.5 -47.5q0 -37 -16 -69t-48.5 -57.5t-83.5 -43.5z" glyph-name="rcommaaccent" horiz-adv-x="453" unicode="ŗ"/><glyph d="M380 776h82l152 145l4 16h-46l-173 -109l60 -3l-122 112h-45l-3 -16zM373 321l86 22l100 -240q9 -21 19 -31.5t24 -13.5t35 -3h14l-13 -55h-142zM284 55l-12 -55h-291l12 55h11q36 0 62 6.5t30 27.5l113 531q4 21 -17.5 28.5t-60.5 7.5h-11l13 54h279q79 0 131.5 -23 t79.5 -63.5t27 -92.5q0 -46 -15 -83.5t-43.5 -65.5t-68.5 -45.5t-90 -24.5q-11 -3 -21.5 -5.5t-19.5 -4t-18 -1.5h-140l-50 -236q0 -3 12.5 -5.5t32.5 -3.5t40 -1h15zM414 650h-106l-62 -292h133q44 0 76.5 12t54 34.5t32 54.5t10.5 73q0 36 -14.5 62.5t-45 41t-78.5 14.5z" glyph-name="Rcaron" horiz-adv-x="729" unicode="Ř"/><glyph d="M257 611h72l154 165l3 15h-43l-156 -120l44 -13l-114 133h-40l-4 -15zM59 0h88l79 375l-6 5l18 157h-165l-11 -52l12 -2q25 -4 43.5 -10.5t28 -14.5t7.5 -20zM450 542q-4 2 -16.5 4t-27.5 2q-34 0 -61.5 -14t-53 -41.5t-52 -68.5t-57.5 -96l19 -23q25 42 46.5 70.5 t42 45.5t43 25t48.5 8q15 0 27.5 -2t26.5 -5z" glyph-name="rcaron" horiz-adv-x="453" unicode="ř"/><glyph d="M317 -17q-49 0 -91 11t-74 33.5t-53 57t-31 82.5q2 5 8.5 7t13.5 -0.5t8 -12.5l-45 -166h-66l52 237h69q3 -45 17.5 -80.5t41 -59.5t64.5 -36t87 -12q52 0 86.5 17.5t52 48t17.5 71.5q0 35 -15.5 59t-41.5 41t-57.5 30.5t-64.5 27.5q-47 21 -87 44t-64 58.5t-24 92.5 q0 60 29 103.5t80 67t118 23.5q55 0 95.5 -17t65.5 -52.5t33 -91.5q-2 -6 -8.5 -6.5t-12 4t-6.5 12.5l41 137h62l-44 -204h-67q-3 53 -23 88t-54.5 52.5t-82.5 17.5q-46 0 -77.5 -15.5t-48 -42.5t-16.5 -64q0 -33 13 -54t35 -35.5t52 -27t64 -27.5q35 -15 70 -32.5t63 -41 t45 -56.5t17 -79q0 -48 -18.5 -87t-51 -66.5t-77.5 -42t-99 -14.5zM401 899q14 14 25.5 24t23 15t25.5 5q21 0 33 -12t12 -30q0 -16 -9 -28t-25 -21.5t-38 -20.5l-108 -51h-33l5 24z" glyph-name="Sacute" horiz-adv-x="644" unicode="Ś"/><glyph d="M232 -11q-51 0 -93.5 9t-74 24.5t-52.5 33.5l25 124h90l-29 -140q-18 8 -24 17.5t-4 21t8 25.5q13 -17 37 -29.5t55.5 -19.5t65.5 -7q35 0 62 9.5t43 29.5t16 51q0 20 -10 35t-28 26.5t-40 21.5t-45 20q-35 17 -67.5 36t-53 47t-20.5 71q0 45 23 79.5t67.5 53.5t110.5 19 q42 0 77.5 -8t61.5 -20t37 -26l-22 -114h-88l22 110q9 -1 18.5 -8t15 -19t2.5 -29q-11 18 -29.5 30t-43 18.5t-56.5 6.5q-60 0 -86.5 -22.5t-26.5 -57.5q0 -25 16.5 -43t44 -31.5t58.5 -28.5q36 -16 69.5 -35t55.5 -47t22 -72q0 -51 -27 -87.5t-74 -55.5t-109 -19zM324 753 q12 20 23 34t24 21t29 7q21 0 34.5 -13t13.5 -32q0 -15 -7 -26.5t-19 -22t-27 -21.5l-118 -86h-30l4 23z" glyph-name="sacute" horiz-adv-x="503" unicode="ś"/><glyph d="M317 -17q-49 0 -91 11t-74 33.5t-53 57t-31 82.5q2 5 8.5 7t13.5 -0.5t8 -12.5l-45 -166h-66l52 237h69q3 -45 17.5 -80.5t41 -59.5t64.5 -36t87 -12q52 0 86.5 17.5t52 48t17.5 71.5q0 35 -15.5 59t-41.5 41t-57.5 30.5t-64.5 27.5q-47 21 -87 44t-64 58.5t-24 92.5 q0 60 29 103.5t80 67t118 23.5q55 0 95.5 -17t65.5 -52.5t33 -91.5q-2 -6 -8.5 -6.5t-12 4t-6.5 12.5l41 137h62l-44 -204h-67q-3 53 -23 88t-54.5 52.5t-82.5 17.5q-46 0 -77.5 -15.5t-48 -42.5t-16.5 -64q0 -33 13 -54t35 -35.5t52 -27t64 -27.5q35 -15 70 -32.5t63 -41 t45 -56.5t17 -79q0 -48 -18.5 -87t-51 -66.5t-77.5 -42t-99 -14.5zM439 932h-82l-153 -145l-3 -17h45l174 110l-61 2l123 -112h44l4 17z" glyph-name="Scircumflex" horiz-adv-x="644" unicode="Ŝ"/><glyph d="M232 -11q-51 0 -93.5 9t-74 24.5t-52.5 33.5l25 124h90l-29 -140q-18 8 -24 17.5t-4 21t8 25.5q13 -17 37 -29.5t55.5 -19.5t65.5 -7q35 0 62 9.5t43 29.5t16 51q0 20 -10 35t-28 26.5t-40 21.5t-45 20q-35 17 -67.5 36t-53 47t-20.5 71q0 45 23 79.5t67.5 53.5t110.5 19 q42 0 77.5 -8t61.5 -20t37 -26l-22 -114h-88l22 110q9 -1 18.5 -8t15 -19t2.5 -29q-11 18 -29.5 30t-43 18.5t-56.5 6.5q-60 0 -86.5 -22.5t-26.5 -57.5q0 -25 16.5 -43t44 -31.5t58.5 -28.5q36 -16 69.5 -35t55.5 -47t22 -72q0 -51 -27 -87.5t-74 -55.5t-109 -19zM376 798 h-72l-154 -165l-4 -15h43l157 120l-45 13l115 -133h40l3 15z" glyph-name="scircumflex" horiz-adv-x="503" unicode="ŝ"/><glyph d="M317 -17q-49 0 -91 11t-74 33.5t-53 57t-31 82.5q2 5 8.5 7t13.5 -0.5t8 -12.5l-45 -166h-66l52 237h69q3 -45 17.5 -80.5t41 -59.5t64.5 -36t87 -12q52 0 86.5 17.5t52 48t17.5 71.5q0 35 -15.5 59t-41.5 41t-57.5 30.5t-64.5 27.5q-47 21 -87 44t-64 58.5t-24 92.5 q0 60 29 103.5t80 67t118 23.5q55 0 95.5 -17t65.5 -52.5t33 -91.5q-2 -6 -8.5 -6.5t-12 4t-6.5 12.5l41 137h62l-44 -204h-67q-3 53 -23 88t-54.5 52.5t-82.5 17.5q-46 0 -77.5 -15.5t-48 -42.5t-16.5 -64q0 -33 13 -54t35 -35.5t52 -27t64 -27.5q35 -15 70 -32.5t63 -41 t45 -56.5t17 -79q0 -48 -18.5 -87t-51 -66.5t-77.5 -42t-99 -14.5zM229 -262q-35 0 -60.5 9.5t-43 26t-27.5 36.5l45 31q8 -13 18 -26t27 -21t42 -8q27 0 40 15t13 40q0 15 -7.5 27t-24.5 18.5t-46 6.5h-25l60 112h74l-84 -83l6 16q44 0 71.5 -11.5t41 -32.5t13.5 -48 q0 -36 -17.5 -60t-47.5 -36t-68 -12z" glyph-name="Scedilla" horiz-adv-x="644" unicode="Ş"/><glyph d="M232 -11q-51 0 -93.5 9t-74 24.5t-52.5 33.5l25 124h90l-29 -140q-18 8 -24 17.5t-4 21t8 25.5q13 -17 37 -29.5t55.5 -19.5t65.5 -7q35 0 62 9.5t43 29.5t16 51q0 20 -10 35t-28 26.5t-40 21.5t-45 20q-35 17 -67.5 36t-53 47t-20.5 71q0 45 23 79.5t67.5 53.5t110.5 19 q42 0 77.5 -8t61.5 -20t37 -26l-22 -114h-88l22 110q9 -1 18.5 -8t15 -19t2.5 -29q-11 18 -29.5 30t-43 18.5t-56.5 6.5q-60 0 -86.5 -22.5t-26.5 -57.5q0 -25 16.5 -43t44 -31.5t58.5 -28.5q36 -16 69.5 -35t55.5 -47t22 -72q0 -51 -27 -87.5t-74 -55.5t-109 -19zM178 -262 q-35 0 -60.5 9.5t-43 26t-27.5 36.5l45 31q8 -13 18 -26t27 -21t42 -8q27 0 40 15t13 40q0 15 -7.5 27t-24.5 18.5t-46 6.5h-25l60 112h74l-84 -83l6 16q44 0 71.5 -11.5t41 -32.5t13.5 -48q0 -36 -17.5 -60t-47.5 -36t-68 -12z" glyph-name="scedilla" horiz-adv-x="503" unicode="ş"/><glyph d="M332 776h82l153 145l3 16h-45l-174 -109l61 -3l-123 112h-44l-4 -16zM317 -17q-49 0 -91 11t-74 33.5t-53 57t-31 82.5q2 5 8.5 7t13.5 -0.5t8 -12.5l-45 -166h-66l52 237h69q3 -45 17.5 -80.5t41 -59.5t64.5 -36t87 -12q52 0 86.5 17.5t52 48t17.5 71.5q0 35 -15.5 59 t-41.5 41t-57.5 30.5t-64.5 27.5q-47 21 -87 44t-64 58.5t-24 92.5q0 60 29 103.5t80 67t118 23.5q55 0 95.5 -17t65.5 -52.5t33 -91.5q-2 -6 -8.5 -6.5t-12 4t-6.5 12.5l41 137h62l-44 -204h-67q-3 53 -23 88t-54.5 52.5t-82.5 17.5q-46 0 -77.5 -15.5t-48 -42.5t-16.5 -64 q0 -33 13 -54t35 -35.5t52 -27t64 -27.5q35 -15 70 -32.5t63 -41t45 -56.5t17 -79q0 -48 -18.5 -87t-51 -66.5t-77.5 -42t-99 -14.5z" glyph-name="Scaron" horiz-adv-x="644" unicode="Š"/><glyph d="M265 611h72l154 165l3 15h-43l-156 -120l44 -13l-114 133h-40l-4 -15zM232 -11q-51 0 -93.5 9t-74 24.5t-52.5 33.5l25 124h90l-29 -140q-18 8 -24 17.5t-4 21t8 25.5q13 -17 37 -29.5t55.5 -19.5t65.5 -7q35 0 62 9.5t43 29.5t16 51q0 20 -10 35t-28 26.5t-40 21.5 t-45 20q-35 17 -67.5 36t-53 47t-20.5 71q0 45 23 79.5t67.5 53.5t110.5 19q42 0 77.5 -8t61.5 -20t37 -26l-22 -114h-88l22 110q9 -1 18.5 -8t15 -19t2.5 -29q-11 18 -29.5 30t-43 18.5t-56.5 6.5q-60 0 -86.5 -22.5t-26.5 -57.5q0 -25 16.5 -43t44 -31.5t58.5 -28.5 q36 -16 69.5 -35t55.5 -47t22 -72q0 -51 -27 -87.5t-74 -55.5t-109 -19z" glyph-name="scaron" horiz-adv-x="503" unicode="š"/><glyph d="M247 90l119 560h-57q-47 0 -75 -4.5t-42.5 -15t-20.5 -28.5l-37 -111h-61l48 219h609l-48 -219h-60l15 111q2 18 -9 28.5t-38 15t-73 4.5h-58l-119 -559q-5 -22 19 -29t61 -7h18l-13 -55h-304l13 55h18q37 0 63.5 7t31.5 28zM235 -262q-35 0 -60.5 9.5t-43 26t-27.5 36.5 l45 31q8 -13 18 -26t27 -21t42 -8q27 0 40 15t13 40q0 15 -7.5 27t-24.5 18.5t-46 6.5h-25l60 112h74l-84 -83l6 16q44 0 71.5 -11.5t41 -32.5t13.5 -48q0 -36 -17.5 -60t-47.5 -36t-68 -12z" glyph-name="Tcedilla" horiz-adv-x="697" unicode="Ţ"/><glyph d="M214 -5q-44 0 -72 11t-41.5 33.5t-13.5 58.5q0 16 3 36t7.5 42t8.5 42l62 304l49 15h201l-13 -60h-353l12 55h11q33 0 57 5t39.5 19.5t21.5 42.5l19 91h80l-106 -504q-2 -13 -5 -28t-4.5 -28.5t-1.5 -23.5q0 -26 12.5 -36t38.5 -10q13 0 33.5 2t42 4.5t35.5 3.5l-13 -64 q-22 -4 -50.5 -7.5t-59.5 -3.5zM157 -262q-35 0 -60.5 9.5t-43 26t-27.5 36.5l45 31q8 -13 18 -26t27 -21t42 -8q27 0 40 15t13 40q0 15 -7.5 27t-24.5 18.5t-46 6.5h-25l60 112h74l-84 -83l6 16q44 0 71.5 -11.5t41 -32.5t13.5 -48q0 -36 -17.5 -60t-47.5 -36t-68 -12z" glyph-name="tcedilla" horiz-adv-x="416" unicode="ţ"/><glyph d="M391 776h82l152 145l4 16h-46l-173 -109l60 -3l-122 112h-45l-3 -16zM247 90l119 560h-57q-47 0 -75 -4.5t-42.5 -15t-20.5 -28.5l-37 -111h-61l48 219h609l-48 -219h-60l15 111q2 18 -9 28.5t-38 15t-73 4.5h-58l-119 -559q-5 -22 19 -29t61 -7h18l-13 -55h-304l13 55 h18q37 0 63.5 7t31.5 28z" glyph-name="Tcaron" horiz-adv-x="697" unicode="Ť"/><glyph d="M214 -5q-44 0 -72 11t-41.5 33.5t-13.5 58.5q0 16 3 36t7.5 42t8.5 42l62 304l49 15h201l-13 -60h-353l12 55h11q33 0 57 5t39.5 19.5t21.5 42.5l19 91h80l-106 -504q-2 -13 -5 -28t-4.5 -28.5t-1.5 -23.5q0 -26 12.5 -36t38.5 -10q13 0 33.5 2t42 4.5t35.5 3.5l-13 -64 q-22 -4 -50.5 -7.5t-59.5 -3.5zM406 611l96 188h-98l-53 -171l-4 -17h59z" glyph-name="tcaron" horiz-adv-x="412" unicode="ť"/><glyph d="M136 357h426l-11 -56h-427zM247 90l119 560h-57q-47 0 -75 -4.5t-42.5 -15t-20.5 -28.5l-37 -111h-61l48 219h609l-48 -219h-60l15 111q2 18 -9 28.5t-38 15t-73 4.5h-58l-119 -559q-5 -22 19 -29t61 -7h18l-13 -55h-304l13 55h18q37 0 63.5 7t31.5 28z" glyph-name="Tbar" horiz-adv-x="697" unicode="Ŧ"/><glyph d="M396 330l-13 -58h-368l13 58h368zM214 -5q-44 0 -72 11t-41.5 33.5t-13.5 58.5q0 16 3 36t7.5 42t8.5 42l62 304l49 15h201l-13 -60h-353l12 55h11q33 0 57 5t39.5 19.5t21.5 42.5l19 91h80l-106 -504q-2 -13 -5 -28t-4.5 -28.5t-1.5 -23.5q0 -26 12.5 -36t38.5 -10 q13 0 33.5 2t42 4.5t35.5 3.5l-13 -64q-22 -4 -50.5 -7.5t-59.5 -3.5z" glyph-name="tbar" horiz-adv-x="432" unicode="ŧ"/><glyph d="M224 340q-7 -32 -11.5 -56.5t-6.5 -44t-2 -38.5q0 -35 11 -62.5t33 -46.5t52.5 -28.5t70.5 -9.5q56 0 97 22t68.5 71t44.5 130l77 359q2 6 -11 10.5t-33 7t-39 2.5h-9l12 54h260l-12 -54h-11q-37 0 -63 -10t-31 -36l-73 -338q-22 -105 -63.5 -168.5t-99.5 -92t-128 -28.5 q-54 0 -99.5 14t-78 41.5t-50 68t-17.5 92.5q0 21 2 42.5t6.5 48.5t12.5 61l56 271q4 21 -19 27.5t-59 6.5h-11l12 54h286l-12 -54h-9q-19 0 -39.5 -1t-34.5 -3t-15 -6zM570 777q-25 0 -43 8.5t-30.5 21t-23 24.5t-21 20.5t-23.5 8.5q-21 0 -33.5 -19.5t-26.5 -66.5l-52 19 q15 51 31 81.5t38 43t53 12.5q24 0 41.5 -8t29.5 -20t22.5 -24.5t21.5 -20.5t26 -8t25 9.5t19 28.5t20 48l51 -20q-15 -52 -33 -82t-40 -43t-52 -13z" glyph-name="Utilde" horiz-adv-x="800" unicode="Ũ"/><glyph d="M185 183q-5 -26 -8.5 -42.5t-3.5 -29.5q0 -16 6 -28.5t18.5 -19t33.5 -6.5q35 0 68.5 19t68.5 57t74 93l14 -30q-36 -61 -76 -107.5t-85.5 -72.5t-99.5 -26t-83.5 27.5t-29.5 73.5q0 19 4.5 41.5t9.5 48.5l57 256q3 12 -6.5 20.5t-28 15t-44.5 10.5l-12 2l11 52h190z M507 205q-8 -40 -14.5 -65.5t-9.5 -40t-3 -21.5q0 -10 6 -15t18 -5q25 0 49.5 4.5t42.5 6.5l-11 -58q-14 -3 -31 -6.5t-34.5 -5.5t-37.5 -2q-34 0 -54 17.5t-20 50.5q0 8 1 21.5t3 31.5t4 39l-9 -5l82 385h88zM436 625q-27 0 -45.5 9.5t-31 24t-22.5 28.5t-19.5 23.5 t-21.5 9.5q-22 0 -34 -23t-27 -74l-52 18q15 56 32.5 88t39.5 45.5t52 13.5q26 0 43.5 -9.5t29.5 -23.5t22 -28t20.5 -23t23.5 -9q17 0 27 11t18.5 32.5t19.5 53.5l51 -20q-16 -56 -33.5 -88t-40 -45.5t-52.5 -13.5z" glyph-name="utilde" horiz-adv-x="642" unicode="ũ"/><glyph d="M224 340q-7 -32 -11.5 -56.5t-6.5 -44t-2 -38.5q0 -35 11 -62.5t33 -46.5t52.5 -28.5t70.5 -9.5q56 0 97 22t68.5 71t44.5 130l77 359q2 6 -11 10.5t-33 7t-39 2.5h-9l12 54h260l-12 -54h-11q-37 0 -63 -10t-31 -36l-73 -338q-22 -105 -63.5 -168.5t-99.5 -92t-128 -28.5 q-54 0 -99.5 14t-78 41.5t-50 68t-17.5 92.5q0 21 2 42.5t6.5 48.5t12.5 61l56 271q4 21 -19 27.5t-59 6.5h-11l12 54h286l-12 -54h-9q-19 0 -39.5 -1t-34.5 -3t-15 -6zM352 888h325l-15 -68h-325z" glyph-name="Umacron" horiz-adv-x="800" unicode="Ū"/><glyph d="M185 183q-5 -26 -8.5 -42.5t-3.5 -29.5q0 -16 6 -28.5t18.5 -19t33.5 -6.5q35 0 68.5 19t68.5 57t74 93l14 -30q-36 -61 -76 -107.5t-85.5 -72.5t-99.5 -26t-83.5 27.5t-29.5 73.5q0 19 4.5 41.5t9.5 48.5l57 256q3 12 -6.5 20.5t-28 15t-44.5 10.5l-12 2l11 52h190z M507 205q-8 -40 -14.5 -65.5t-9.5 -40t-3 -21.5q0 -10 6 -15t18 -5q25 0 49.5 4.5t42.5 6.5l-11 -58q-14 -3 -31 -6.5t-34.5 -5.5t-37.5 -2q-34 0 -54 17.5t-20 50.5q0 8 1 21.5t3 31.5t4 39l-9 -5l82 385h88zM217 735h325l-15 -68h-325z" glyph-name="umacron" horiz-adv-x="642" unicode="ū"/><glyph d="M224 340q-7 -32 -11.5 -56.5t-6.5 -44t-2 -38.5q0 -35 11 -62.5t33 -46.5t52.5 -28.5t70.5 -9.5q56 0 97 22t68.5 71t44.5 130l77 359q2 6 -11 10.5t-33 7t-39 2.5h-9l12 54h260l-12 -54h-11q-37 0 -63 -10t-31 -36l-73 -338q-22 -105 -63.5 -168.5t-99.5 -92t-128 -28.5 q-54 0 -99.5 14t-78 41.5t-50 68t-17.5 92.5q0 21 2 42.5t6.5 48.5t12.5 61l56 271q4 21 -19 27.5t-59 6.5h-11l12 54h286l-12 -54h-9q-19 0 -39.5 -1t-34.5 -3t-15 -6zM503 778q46 0 80.5 15.5t57 49.5t30.5 91h-62q-7 -31 -19 -49t-32 -25t-50 -7q-36 0 -55 8t-26 26 t-6 47h-65q-1 -7 -2 -13.5t-1 -15.5q0 -39 16 -67.5t49 -44t85 -15.5z" glyph-name="Ubreve" horiz-adv-x="800" unicode="Ŭ"/><glyph d="M185 183q-5 -26 -8.5 -42.5t-3.5 -29.5q0 -16 6 -28.5t18.5 -19t33.5 -6.5q35 0 68.5 19t68.5 57t74 93l14 -30q-36 -61 -76 -107.5t-85.5 -72.5t-99.5 -26t-83.5 27.5t-29.5 73.5q0 19 4.5 41.5t9.5 48.5l57 256q3 12 -6.5 20.5t-28 15t-44.5 10.5l-12 2l11 52h190z M507 205q-8 -40 -14.5 -65.5t-9.5 -40t-3 -21.5q0 -10 6 -15t18 -5q25 0 49.5 4.5t42.5 6.5l-11 -58q-14 -3 -31 -6.5t-34.5 -5.5t-37.5 -2q-34 0 -54 17.5t-20 50.5q0 8 1 21.5t3 31.5t4 39l-9 -5l82 385h88zM374 622q45 0 79 15t56 50.5t30 97.5h-62q-7 -35 -18.5 -55.5 t-30 -28.5t-49.5 -8q-34 0 -50.5 11t-20.5 31.5t-1 49.5h-64q-3 -11 -3.5 -20t-0.5 -20q0 -37 14 -65t44.5 -43t76.5 -15z" glyph-name="ubreve" horiz-adv-x="642" unicode="ŭ"/><glyph d="M224 340q-7 -32 -11.5 -56.5t-6.5 -44t-2 -38.5q0 -35 11 -62.5t33 -46.5t52.5 -28.5t70.5 -9.5q56 0 97 22t68.5 71t44.5 130l77 359q2 6 -11 10.5t-33 7t-39 2.5h-9l12 54h260l-12 -54h-11q-37 0 -63 -10t-31 -36l-73 -338q-22 -105 -63.5 -168.5t-99.5 -92t-128 -28.5 q-54 0 -99.5 14t-78 41.5t-50 68t-17.5 92.5q0 21 2 42.5t6.5 48.5t12.5 61l56 271q4 21 -19 27.5t-59 6.5h-11l12 54h286l-12 -54h-9q-19 0 -39.5 -1t-34.5 -3t-15 -6zM511 947q-22 0 -36.5 -10.5t-22 -27.5t-7.5 -38q0 -27 16 -41.5t42 -14.5q22 0 36.5 10.5t22 27.5 t7.5 37q0 28 -16 42.5t-42 14.5zM503 772q-38 0 -66 13t-43 36t-15 53q0 35 17 60.5t47 40t68 14.5t66 -12.5t43 -35.5t15 -54q0 -34 -17 -60t-47 -40.5t-68 -14.5z" glyph-name="Uring" horiz-adv-x="800" unicode="Ů"/><glyph d="M185 183q-5 -26 -8.5 -42.5t-3.5 -29.5q0 -16 6 -28.5t18.5 -19t33.5 -6.5q35 0 68.5 19t68.5 57t74 93l14 -30q-36 -61 -76 -107.5t-85.5 -72.5t-99.5 -26t-83.5 27.5t-29.5 73.5q0 19 4.5 41.5t9.5 48.5l57 256q3 12 -6.5 20.5t-28 15t-44.5 10.5l-12 2l11 52h190z M507 205q-8 -40 -14.5 -65.5t-9.5 -40t-3 -21.5q0 -10 6 -15t18 -5q25 0 49.5 4.5t42.5 6.5l-11 -58q-14 -3 -31 -6.5t-34.5 -5.5t-37.5 -2q-34 0 -54 17.5t-20 50.5q0 8 1 21.5t3 31.5t4 39l-9 -5l82 385h88zM381 776q-22 0 -36.5 -10.5t-22 -27.5t-7.5 -38q0 -27 16 -41.5 t42 -14.5q22 0 36.5 10.5t22 27.5t7.5 37q0 28 -16 42.5t-42 14.5zM505 716q0 -34 -17 -60t-47 -40.5t-68 -14.5t-66 13t-43 36t-15 53q0 35 17 60.5t47 40t68 14.5t66 -12.5t43 -35.5t15 -54z" glyph-name="uring" horiz-adv-x="642" unicode="ů"/><glyph d="M224 340q-7 -32 -11.5 -56.5t-6.5 -44t-2 -38.5q0 -35 11 -62.5t33 -46.5t52.5 -28.5t70.5 -9.5q56 0 97 22t68.5 71t44.5 130l77 359q2 6 -11 10.5t-33 7t-39 2.5h-9l12 54h260l-12 -54h-11q-37 0 -63 -10t-31 -36l-73 -338q-22 -105 -63.5 -168.5t-99.5 -92t-128 -28.5 q-54 0 -99.5 14t-78 41.5t-50 68t-17.5 92.5q0 21 2 42.5t6.5 48.5t12.5 61l56 271q4 21 -19 27.5t-59 6.5h-11l12 54h286l-12 -54h-9q-19 0 -39.5 -1t-34.5 -3t-15 -6zM419 892q11 26 25.5 38t34.5 12t32.5 -12t12.5 -30q0 -12 -5.5 -23t-17.5 -22.5t-30 -26.5l-66 -52h-34 l3 24zM600 892q11 26 25.5 38t34.5 12t32.5 -12t12.5 -30q0 -12 -5.5 -23t-17.5 -22.5t-30 -26.5l-66 -52h-34l3 24z" glyph-name="Uhungarumlaut" horiz-adv-x="800" unicode="Ű"/><glyph d="M185 183q-5 -26 -8.5 -42.5t-3.5 -29.5q0 -16 6 -28.5t18.5 -19t33.5 -6.5q35 0 68.5 19t68.5 57t74 93l14 -30q-36 -61 -76 -107.5t-85.5 -72.5t-99.5 -26t-83.5 27.5t-29.5 73.5q0 19 4.5 41.5t9.5 48.5l57 256q3 12 -6.5 20.5t-28 15t-44.5 10.5l-12 2l11 52h190z M507 205q-8 -40 -14.5 -65.5t-9.5 -40t-3 -21.5q0 -10 6 -15t18 -5q25 0 49.5 4.5t42.5 6.5l-11 -58q-14 -3 -31 -6.5t-34.5 -5.5t-37.5 -2q-34 0 -54 17.5t-20 50.5q0 8 1 21.5t3 31.5t4 39l-9 -5l82 385h88zM290 755q10 31 23.5 45.5t36.5 14.5q22 0 34.5 -12t12.5 -30 q0 -13 -4.5 -23.5t-13 -21t-21.5 -25.5l-82 -89h-30l5 23zM468 755q11 31 24.5 45.5t36.5 14.5q22 0 34 -12t12 -30q0 -13 -4 -23.5t-12.5 -21t-21.5 -25.5l-82 -89h-30l4 23z" glyph-name="uhungarumlaut" horiz-adv-x="642" unicode="ű"/><glyph d="M487 37l-35 -39q-14 -5 -29.5 -8.5t-32 -5t-33.5 -1.5q-54 0 -99.5 14t-78 41.5t-50 68t-17.5 92.5q0 21 2 42.5t6.5 48.5t12.5 61l56 271q3 14 -7 21t-28 10t-43 3h-11l12 54h286l-12 -54h-9q-19 0 -39.5 -1t-34.5 -3t-15 -6l-64 -306q-7 -32 -11.5 -56.5t-6.5 -44 t-2 -38.5q0 -35 11 -62.5t33 -46.5t52.5 -28.5t70.5 -9.5q56 0 97 22t68.5 71t44.5 130l77 359q2 6 -11 10.5t-33 7t-39 2.5h-9l12 54h260l-12 -54h-11q-37 0 -63 -10t-31 -36l-73 -338q-11 -53 -27.5 -96t-38.5 -76t-50 -56q-33 -27 -62.5 -48.5t-53.5 -39t-42 -34 t-27 -33.5t-9 -38q0 -20 12 -30t32 -10q23 0 40.5 11.5t30.5 23.5l26 -38q-22 -21 -50.5 -36.5t-70.5 -15.5q-35 0 -61.5 10t-40.5 29t-14 47q0 24 11.5 45.5t39 43t75 47t119.5 59.5z" glyph-name="Uogonek" horiz-adv-x="800" unicode="Ų"/><glyph d="M185 183q-5 -26 -8.5 -42.5t-3.5 -29.5q0 -16 6 -28.5t18.5 -19t33.5 -6.5q35 0 68.5 19t68.5 57t74 93l14 -30q-36 -61 -76 -107.5t-85.5 -72.5t-99.5 -26t-83.5 27.5t-29.5 73.5q0 19 4.5 41.5t9.5 48.5l57 256q3 12 -6.5 20.5t-28 15t-44.5 10.5l-12 2l11 52h190z M507 205q-8 -40 -14.5 -65.5t-9.5 -40t-3 -21.5q0 -10 6 -15t18 -5q25 0 49.5 4.5t42.5 6.5l-11 -58q-14 -3 -31 -6.5t-34.5 -5.5t-37.5 -2q-34 0 -54 17.5t-20 50.5q0 8 1 21.5t3 31.5t4 39l-9 -5l82 385h88zM540 38l22 -30q-49 -28 -79 -50.5t-47 -41t-23 -34t-6 -31.5 q0 -20 12 -30t33 -10q23 0 40.5 11.5t30.5 23.5l26 -38q-22 -21 -51 -36.5t-71 -15.5q-53 0 -84 22.5t-31 65.5q0 26 11 47t36.5 42t70 46t110.5 59z" glyph-name="uogonek" horiz-adv-x="642" unicode="ų"/><glyph d="M84 710h254l-13 -54h-17q-17 0 -35.5 -1.5t-32 -3.5t-14.5 -6l28 -595h-19l315 660h101l32 -657l-18 -1l277 583q1 6 -10 11t-28.5 7.5t-34.5 2.5h-15l12 54h230l-12 -54h-6q-27 0 -47 -10t-32 -34l-294 -612h-101l-34 653l16 -2l-313 -651h-100l-33 621q-2 25 -18 30 t-44 5h-6zM679 932h-82l-153 -145l-3 -17h45l174 110l-61 2l123 -112h44l4 17z" glyph-name="Wcircumflex" horiz-adv-x="1034" unicode="Ŵ"/><glyph d="M239 0h-91l-31 438q0 12 -11 20t-28.5 14t-40.5 10l-12 3l11 52h152l32 -505l-17 8q27 63 54 125t54.5 124t54.5 124l54 124h72l48 -506l-14 9q25 63 50 125l50 124l50 124l50 124h84v-10q-31 -66 -62.5 -132t-62.5 -131.5t-62.5 -131.5t-62.5 -132h-90l-44 438l24 17 q-35 -75 -70 -151t-70 -151.5t-71 -152.5zM534 798h-72l-154 -165l-4 -15h43l157 120l-45 13l115 -133h40l3 15z" glyph-name="wcircumflex" horiz-adv-x="805" unicode="ŵ"/><glyph d="M113 0l13 55h18q38 0 64 7t30 29l47 221v-45l-133 359q-5 14 -14.5 20.5t-23 8t-31.5 1.5h-9l12 54h257l-13 -54h-16q-16 0 -34 -1.5t-30.5 -3.5t-13.5 -6l120 -331l-28 2l246 319q1 7 -10 11.5t-28 7t-34 2.5h-14l12 54h241l-12 -54h-9q-17 0 -32 -3.5t-29 -13 t-29 -27.5l-271 -346l19 46l-47 -221q-3 -14 6.5 -22t28.5 -11t44 -3h18l-12 -55h-303zM499 932h-82l-153 -145l-3 -17h45l174 110l-61 2l123 -112h44l4 17z" glyph-name="Ycircumflex" horiz-adv-x="683" unicode="Ŷ"/><glyph d="M194 -22l41 38l25 54l-70 467h-154l-11 -52l12 -3q24 -4 41 -10t27.5 -14t12.5 -20zM237 65l-13 -5q-35 -66 -63.5 -108t-53.5 -64t-49 -30.5t-48 -8.5q-31 0 -54 7t-31 10l-17 -79q8 -4 31.5 -11.5t57.5 -7.5q35 0 67.5 12t64 40t66.5 76t74 120q29 53 57 104.5 t56.5 103t56 102l55 101t54.5 100.5v10h-85q-28 -59 -56.5 -118t-56.5 -118l-56 -118t-57 -118zM399 798h-72l-154 -165l-4 -15h43l157 120l-45 13l115 -133h40l3 15z" glyph-name="ycircumflex" horiz-adv-x="535" unicode="ŷ"/><glyph d="M113 0l13 55h18q38 0 64 7t30 29l47 221v-45l-133 359q-5 14 -14.5 20.5t-23 8t-31.5 1.5h-9l12 54h257l-13 -54h-16q-16 0 -34 -1.5t-30.5 -3.5t-13.5 -6l120 -331l-28 2l246 319q1 7 -10 11.5t-28 7t-34 2.5h-14l12 54h241l-12 -54h-9q-17 0 -32 -3.5t-29 -13 t-29 -27.5l-271 -346l19 46l-47 -221q-3 -14 6.5 -22t28.5 -11t44 -3h18l-12 -55h-303zM320 791q-28 0 -46.5 16t-18.5 47q0 32 18.5 48t46.5 16t46.5 -16t18.5 -48q0 -31 -18.5 -47t-46.5 -16zM559 791q-28 0 -46.5 16t-18.5 47q0 32 18.5 48t46.5 16t46.5 -16t18.5 -48 q0 -31 -18.5 -47t-46.5 -16z" glyph-name="Ydieresis" horiz-adv-x="683" unicode="Ÿ"/><glyph d="M42 61h284q32 0 55.5 1.5t39.5 6.5t25.5 14t13.5 22l39 117h62l-47 -222h-542l16 72l569 604l14 -26h-249q-32 0 -55.5 -2t-39.5 -7t-25.5 -13t-14.5 -22l-33 -98h-60l44 202h508l-15 -68l-584 -620zM432 899q14 14 25.5 24t23 15t25.5 5q21 0 33 -12t12 -30 q0 -16 -9 -28t-25 -21.5t-38 -20.5l-108 -51h-33l5 24z" glyph-name="Zacute" horiz-adv-x="642" unicode="Ź"/><glyph d="M339 -12q-31 0 -58.5 10t-53 28.5t-49 44t-47.5 56.5l28 33q30 -27 56 -47.5t55.5 -31.5t66.5 -11q34 0 56.5 12.5t36.5 42t23 79.5l47 -10q2 -54 -8 -93t-30.5 -64t-51.5 -37t-71 -12zM62 0h-49l8 63l407 425l13 -10h-134q-46 0 -74.5 -3t-43.5 -12.5t-21 -27.5l-25 -73 h-57l35 175h403l-12 -63zM344 753q12 20 23 34t24 21t29 7q21 0 34.5 -13t13.5 -32q0 -15 -7 -26.5t-19 -22t-27 -21.5l-118 -86h-30l4 23z" glyph-name="zacute" horiz-adv-x="546" unicode="ź"/><glyph d="M42 61h284q32 0 55.5 1.5t39.5 6.5t25.5 14t13.5 22l39 117h62l-47 -222h-542l16 72l569 604l14 -26h-249q-32 0 -55.5 -2t-39.5 -7t-25.5 -13t-14.5 -22l-33 -98h-60l44 202h508l-15 -68l-584 -620zM397 786q28 0 46.5 16t18.5 47q0 32 -18.5 48t-46.5 16t-46.5 -16 t-18.5 -48q0 -31 18.5 -47t46.5 -16z" glyph-name="Zdotaccent" horiz-adv-x="642" unicode="Ż"/><glyph d="M339 -12q-31 0 -58.5 10t-53 28.5t-49 44t-47.5 56.5l28 33q30 -27 56 -47.5t55.5 -31.5t66.5 -11q34 0 56.5 12.5t36.5 42t23 79.5l47 -10q2 -54 -8 -93t-30.5 -64t-51.5 -37t-71 -12zM62 0h-49l8 63l407 425l13 -10h-134q-46 0 -74.5 -3t-43.5 -12.5t-21 -27.5l-25 -73 h-57l35 175h403l-12 -63zM338 647q28 0 46.5 16t18.5 47q0 32 -18.5 48t-46.5 16t-46.5 -16t-18.5 -48q0 -31 18.5 -47t46.5 -16z" glyph-name="zdotaccent" horiz-adv-x="546" unicode="ż"/><glyph d="M341 776h82l152 145l4 16h-46l-173 -109l60 -3l-122 112h-45l-3 -16zM42 61h284q32 0 55.5 1.5t39.5 6.5t25.5 14t13.5 22l39 117h62l-47 -222h-542l16 72l569 604l14 -26h-249q-32 0 -55.5 -2t-39.5 -7t-25.5 -13t-14.5 -22l-33 -98h-60l44 202h508l-15 -68l-584 -620z" glyph-name="Zcaron" horiz-adv-x="642" unicode="Ž"/><glyph d="M283 611h72l154 165l4 15h-43l-157 -120l45 -13l-115 133h-40l-3 -15zM339 -12q-31 0 -58.5 10t-53 28.5t-49 44t-47.5 56.5l28 33q30 -27 56 -47.5t55.5 -31.5t66.5 -11q34 0 56.5 12.5t36.5 42t23 79.5l47 -10q2 -54 -8 -93t-30.5 -64t-51.5 -37t-71 -12zM62 0h-49 l8 63l407 425l13 -10h-134q-46 0 -74.5 -3t-43.5 -12.5t-21 -27.5l-25 -73h-57l35 175h403l-12 -63z" glyph-name="zcaron" horiz-adv-x="546" unicode="ž"/><glyph d="M572 221q0 37 -15 64.5t-46.5 43t-81.5 15.5h-129l-60 -284h149q50 0 85 11.5t56.5 32.5t31.5 50.5t10 66.5zM601 548q0 31 -12 54t-38.5 36t-71.5 13h-113l-53 -249h134q39 0 68 10.5t48 30t28.5 46t9.5 59.5zM50 55h11q36 0 62 7t31 29l123 576l7 -17h-21 q-46 0 -72.5 -12.5t-39.5 -38t-18 -66.5q-2 -19 -2.5 -36t0.5 -28h-90q0 7 0.5 21t2.5 28q7 67 33.5 109.5t74.5 63t118 20.5h212q72 0 119.5 -21t71 -56.5t23.5 -81.5q0 -53 -25 -93.5t-74 -63.5t-122 -25l48 16l-6 -29l-58 23q68 -4 115 -26t71 -58t24 -83 q0 -51 -18.5 -90.5t-54.5 -67t-90 -41t-125 -13.5h-343z" glyph-name="Bhook" horiz-adv-x="749" unicode="Ɓ"/><glyph d="M439 650h-73l-126 -589h127q60 0 108 12t84.5 34.5t63 54t43.5 71t25 85t8 96.5q0 77 -28 129.5t-85.5 79.5t-146.5 27zM278 669l8 -19h-23q-46 0 -72.5 -12.5t-39.5 -38.5t-18 -67q-2 -19 -2.5 -36t0.5 -28h-90q0 8 0.5 21.5t2.5 28.5q7 67 33.5 109.5t74.5 62.5t118 20 h169q82 0 148 -19.5t113 -58t72.5 -93.5t25.5 -126t-17.5 -133.5t-52.5 -113.5t-86.5 -88.5t-118.5 -57.5t-150 -20h-335l13 55h11q37 0 62.5 7t30.5 29z" glyph-name="Dhook" horiz-adv-x="845" unicode="Ɗ"/><glyph d="M324 -17q-68 0 -119 18.5t-86 54t-52.5 84t-17.5 109.5q0 23 2 44.5t6 44t10 45.5h574l-12 -62h-497l24 19q-5 -20 -8 -39.5t-4.5 -38t-1.5 -37.5q0 -62 24 -102t65 -59t95 -19q48 0 90.5 20t78 57t60.5 87t38.5 110.5t13.5 126.5q0 59 -14.5 101.5t-42 70.5t-67 41.5 t-88.5 13.5q-56 0 -100.5 -16t-79.5 -44t-63 -62l-49 44q34 42 77.5 73.5t98 49t119.5 17.5q53 0 100 -13t85 -38t65 -61.5t42 -84t15 -105.5q0 -97 -30.5 -179.5t-83 -143t-121.5 -94t-146 -33.5z" glyph-name="Schwa" horiz-adv-x="751" unicode="Ə"/><glyph d="M163 537h366l-19 -58h-366zM186 -24q-21 -77 -52.5 -125.5t-72.5 -71t-93 -22.5q-34 0 -62.5 7.5t-43.5 15.5l15 66q7 -2 21.5 -7.5t33.5 -9.5t39 -4q23 0 41.5 6.5t33.5 23.5t28 47t25 75l195 648q14 51 39.5 85t66 51.5t98.5 17.5q43 0 74 -7.5t47 -15.5l-17 -66 q-18 7 -44 14t-61 7q-34 0 -56.5 -9t-37.5 -31t-25 -59z" glyph-name="florin" unicode="ƒ"/><glyph d="M-19 0l12 55h11q37 0 62.5 7t30.5 29l112 529q4 22 -18.5 29t-59.5 7h-11l13 54h282l-13 -54h-9q-17 0 -37 -1t-34 -3t-15 -6l-123 -581q-1 -3 12.5 -5.5t33 -3.5t37.5 -1h9l-13 -55h-282zM351 352l1 48l248 -318q10 -12 20 -17.5t24 -7.5t33 -2h17l-13 -55h-286l12 55h9 q20 0 39 1t32 3.5t13 5.5l-215 280l5 24l219 204q47 43 79 71t56 44.5t44 23.5t42 7q31 0 50.5 -14t28.5 -37.5t9 -52.5q0 -25 -6 -53.5t-15.5 -53.5t-20.5 -40h-92q10 16 21.5 40.5t19.5 51.5t8 52q0 19 -6.5 28.5t-20.5 9.5q-10 0 -21.5 -4.5t-27.5 -16t-39.5 -33 t-59.5 -53.5z" glyph-name="Khook" horiz-adv-x="766" unicode="Ƙ"/><glyph d="M398 120l-92 206l-41 -62q51 44 102.5 87.5t103 86.5t103.5 86v13h-95q-41 -40 -82.5 -79.5l-83 -79t-83.5 -79.5l-1 -5l85 -198q14 -34 29 -56t35.5 -32.5t50.5 -10.5q16 0 31 2.5t29.5 6.5t26.5 8l10 57q-8 -1 -19.5 -3t-23.5 -3.5t-25 -1.5q-10 0 -19 4t-16 11t-13 18 t-12 24zM156 558q13 61 39.5 102t62 65.5t77 35t83.5 10.5q24 0 45.5 -2.5t38 -6t25.5 -7.5l-15 -74q-17 11 -46 20.5t-65 9.5q-32 0 -63.5 -12.5t-56 -45t-36.5 -93.5l-118 -560h-89z" glyph-name="khook" horiz-adv-x="574" unicode="ƙ"/><glyph d="M439 666q-47 0 -87.5 -13.5t-73 -40t-58 -66t-42.5 -91.5q-11 -26 -17.5 -54t-9.5 -56.5t-3 -56.5q0 -53 13 -97.5t39.5 -77.5t67.5 -50.5t97 -17.5q47 0 87.5 13t73 39.5t58 66t42.5 91.5q11 28 17.5 55.5t9.5 55.5t3 56q0 54 -13 98t-39.5 77t-67.5 51t-97 18zM614 643 l-29 29q58 -31 95.5 -72.5t56 -90t18.5 -102.5q0 -62 -16.5 -123.5t-49 -115.5t-79.5 -95.5t-109.5 -65.5t-138.5 -24t-134.5 24.5t-98 68t-60 101t-20.5 123.5q0 63 16.5 125t49 116.5t79.5 96.5t109.5 66t138.5 24q35 0 63 -4.5t52.5 -10.5t47.5 -10.5t46 -4.5 q46 0 76.5 20t51.5 62t38 108h86q-17 -75 -40.5 -123t-51.5 -75.5t-58.5 -38.5t-61.5 -11q-20 0 -38 3.5t-35.5 10.5t-36.5 16l41 -8z" glyph-name="Ohorn" horiz-adv-x="827" unicode="Ơ"/><glyph d="M164 347q-8 -23 -13.5 -47.5t-8 -49.5t-2.5 -49q0 -49 15.5 -83t46.5 -52t78 -18q33 0 59.5 11t47 29.5t36.5 44t27 55.5q9 23 14 47t7.5 49t2.5 50q0 48 -15.5 82t-46.5 52t-78 18q-33 0 -59.5 -10.5t-47 -29.5t-36.5 -44.5t-27 -54.5zM437 501l38 -8l-8 -18l-22 23 q33 -14 60.5 -40t44.5 -63t17 -85q0 -50 -13 -97.5t-38.5 -88t-61 -71.5t-81 -48t-98.5 -17q-69 0 -120.5 27.5t-80 78t-28.5 118.5q0 55 13.5 105t39 92t61.5 73t81 48t98 17q31 0 54 -4t43.5 -8.5t43.5 -4.5q36 0 60.5 18.5t41 58t27.5 102.5h84q-12 -68 -31.5 -112 t-43.5 -69.5t-51 -36.5t-56 -11q-14 0 -27 3t-24.5 8t-22.5 10z" glyph-name="ohorn" horiz-adv-x="638" unicode="ơ"/><glyph d="M357 -17q-54 0 -99.5 14t-78 41.5t-50 68t-17.5 92.5q0 21 2 42.5t6.5 48.5t12.5 61l56 271q3 14 -7 21t-28 10t-43 3h-11l12 54h286l-12 -54h-9q-19 0 -39.5 -1t-34.5 -3t-15 -6l-64 -306q-7 -32 -11.5 -56.5t-6.5 -44t-2 -38.5q0 -35 11 -62.5t33 -46.5t52.5 -28.5 t70.5 -9.5q56 0 97 22t68.5 71t44.5 130l77 359q2 6 -11 10.5t-33 7t-39 2.5h-9l12 54h144q49 0 79.5 9.5t49 30.5t30 55.5t21.5 82.5h86q-11 -53 -27.5 -91t-37 -63.5t-44 -41.5t-49.5 -24.5t-53 -14.5q-14 -3 -25.5 -7.5t-19.5 -12.5t-11 -23l-73 -338q-16 -78 -44 -133.5 t-65.5 -90t-83 -50t-98.5 -15.5z" glyph-name="Uhorn" horiz-adv-x="854" unicode="Ư"/><glyph d="M195 -10q-54 0 -83.5 27.5t-29.5 73.5q0 19 4.5 41.5t9.5 48.5l57 254q2 13 -7.5 21.5t-28 14.5t-43.5 10l-12 2l11 54h190l-78 -354q-5 -26 -8.5 -42.5t-3.5 -29.5q0 -16 6 -28.5t18.5 -19t33.5 -6.5q35 0 68.5 19t68.5 57t74 93l14 -30q-36 -61 -76 -107.5t-85.5 -72.5 t-99.5 -26zM482 -3q-34 0 -54 17.5t-20 50.5q0 8 1 21.5t3 31.5t4 39l-9 -5l82 385h14q44 0 74.5 6.5t51.5 24.5t35.5 52t24.5 89h84q-13 -70 -36.5 -114t-56 -67.5t-74 -33.5t-91.5 -13l55 27l-63 -303q-8 -40 -14.5 -65.5t-9.5 -40t-3 -21.5q0 -10 6 -15t18 -5 q25 0 49.5 4.5t42.5 6.5l-11 -58q-14 -3 -31 -6.5t-34.5 -5.5t-37.5 -2z" glyph-name="uhorn" horiz-adv-x="700" unicode="ư"/><glyph d="M709 719q32 0 51 -14.5t27.5 -38.5t8.5 -53q0 -27 -6 -55t-15 -51.5t-19 -38.5h-93q10 16 21 39.5t19 51t8 53.5q0 18 -6.5 28t-21.5 10q-14 0 -28 -10t-33.5 -33.5t-50.5 -64.5l-212 -276l19 46l-47 -221q-3 -14 6.5 -22t28.5 -11t44 -3h18l-12 -55h-303l13 55h18 q38 0 64 7t30 29l47 221v-45l-133 359q-5 14 -14.5 20.5t-23 8t-31.5 1.5h-9l12 54h257l-13 -54h-16q-16 0 -34 -1.5t-30.5 -3.5t-13.5 -6l120 -331l-28 2l195 260q32 43 57.5 71t46.5 43.5t40.5 22t41.5 6.5z" glyph-name="Yhook" horiz-adv-x="715" unicode="Ƴ"/><glyph d="M-75 -134q8 -3 31 -10t54 -7q24 0 48 8.5t49 30.5t53.5 64t63.5 108l10 5q33 66 67.5 136t69.5 140.5t70 140t68 134.5q23 46 42.5 76.5t39 47.5t41 24t47.5 7q17 0 30 -2.5t20 -7.5l-16 -77q-9 6 -19.5 9.5t-23.5 3.5q-14 0 -28 -8t-31 -31.5t-42 -70.5 q-29 -55 -58.5 -111.5t-60 -113.5t-60.5 -115t-60 -115.5t-60 -113.5q-38 -73 -72.5 -121.5t-67 -76.5t-65.5 -40t-68 -12q-34 0 -57.5 7.5t-31.5 11.5zM118 438q-2 12 -12.5 20t-27.5 14t-41 10l-12 3l11 52h154l70 -467l-25 -54l-41 -38z" glyph-name="yhook" horiz-adv-x="542" unicode="ƴ"/><glyph d="M391 776h82l153 145l3 16h-45l-174 -109l61 -3l-123 112h-44l-4 -16zM196 296h268l-1 -56h-291zM402 670l15 -5l-312 -590q-1 -5 10 -10t30.5 -7.5t42.5 -2.5h12l-12 -55h-244l12 55h6q28 0 49.5 9t38.5 41l326 611h107l72 -613q3 -31 19.5 -39.5t46.5 -8.5h5l-12 -55 h-261l12 55h13q24 0 44 1t33 3.5t13 5.5z" glyph-name="Acaron" horiz-adv-x="697" unicode="Ǎ"/><glyph d="M315 611h72l154 165l4 15h-43l-157 -120l45 -13l-115 133h-40l-3 -15zM497 376l-34 -43q-8 47 -24.5 81t-42.5 52.5t-65 18.5q-34 0 -63.5 -18t-53 -48.5t-40 -70t-25.5 -83t-9 -85.5t8.5 -71t28 -44.5t51.5 -15.5q38 0 69.5 20.5t63 60t66.5 98.5l19 -30 q-33 -63 -69 -110t-76.5 -73.5t-91.5 -26.5q-55 0 -91.5 24t-54 67.5t-17.5 103.5q0 52 13 103.5t38 98.5t60 83.5t78.5 57.5t94.5 21q50 0 83 -23t53 -61.5t31 -86.5zM572 538l-71 -333q-8 -40 -14.5 -65.5t-9.5 -40t-3 -21.5q0 -10 6 -15t18 -5q25 0 49.5 4.5t42.5 6.5 l-11 -58q-14 -3 -31 -6.5t-34.5 -5.5t-37.5 -2q-23 0 -39.5 8t-25.5 23t-9 37q0 12 2 37t6 60l-8 -8l52 255l5 6l53 123h60z" glyph-name="acaron" horiz-adv-x="635" unicode="ǎ"/><glyph d="M249 776h82l152 145l4 16h-46l-173 -109l60 -3l-122 112h-45l-3 -16zM101 88l112 532q4 22 -18.5 29t-59.5 7h-15l12 54h294l-13 -54h-15q-36 0 -62 -6.5t-30 -27.5l-112 -531q-5 -22 17.5 -29t59.5 -7h16l-13 -55h-293l12 55h16q36 0 61.5 6.5t30.5 26.5z" glyph-name="Icaron" horiz-adv-x="399" unicode="Ǐ"/><glyph d="M174 611h72l154 165l4 15h-43l-157 -120l45 -13l-115 133h-40l-3 -15zM163 -3q-26 0 -46.5 7.5t-31.5 23t-11 37.5q0 14 2.5 30t8.5 43t17 73l47 226q3 12 -6.5 20.5t-28 15t-44.5 10.5l-12 2l12 52h188l-70 -332q-8 -40 -14 -65.5t-8 -40t-2 -21.5q0 -10 5.5 -15 t18.5 -5q16 0 32 2.5t31 5t26 3.5l-10 -58q-15 -3 -31.5 -6.5t-34.5 -5.5t-38 -2z" glyph-name="icaron" horiz-adv-x="337" unicode="ǐ"/><glyph d="M412 776h82l153 145l3 16h-45l-174 -109l61 -3l-123 112h-44l-4 -16zM362 -17q-76 0 -134.5 24.5t-98 68t-60 101t-20.5 123.5q-1 63 15.5 125t49 116.5t80 96.5t110 66t138.5 24t134 -24.5t98 -68t60.5 -101.5t20.5 -123q0 -64 -16.5 -126t-49 -116.5t-80 -96 t-109.5 -65.5t-138 -24zM439 666q-47 0 -87.5 -13.5t-73.5 -40t-58 -66t-42 -91.5q-11 -26 -17.5 -54t-9.5 -56.5t-3 -56.5q0 -53 13 -97.5t39.5 -77.5t67.5 -50.5t97 -17.5q47 0 87.5 13t73 39.5t58 66t42.5 91.5q11 28 17.5 55.5t9.5 55.5t3 56q0 54 -13 98t-40 77t-68 51 t-96 18z" glyph-name="Ocaron" horiz-adv-x="806" unicode="Ǒ"/><glyph d="M313 611h72l154 165l3 15h-43l-156 -120l44 -13l-114 133h-40l-4 -15zM450 188q9 23 14 47t7.5 49t2.5 50q0 48 -15.5 82t-46.5 52t-78 18q-33 0 -59.5 -10.5t-47 -29.5t-36.5 -44.5t-27 -54.5q-8 -23 -13.5 -47.5t-8 -49.5t-2.5 -49q0 -49 15.5 -83t46.5 -52t78 -18 q33 0 59.5 11t47 29.5t36.5 44t27 55.5zM46 212q0 55 13.5 105t39 92t61.5 73t81 48t98 17q69 0 120.5 -27.5t80 -78.5t28.5 -120q0 -55 -13.5 -104.5t-39 -91.5t-61.5 -72.5t-81 -47.5t-98 -17q-69 0 -120.5 27.5t-80 78t-28.5 118.5z" glyph-name="ocaron" horiz-adv-x="614" unicode="ǒ"/><glyph d="M447 776h82l153 145l3 16h-45l-174 -109l61 -3l-123 112h-44l-4 -16zM224 340q-7 -32 -11.5 -56.5t-6.5 -44t-2 -38.5q0 -35 11 -62.5t33 -46.5t52.5 -28.5t70.5 -9.5q56 0 97 22t68.5 71t44.5 130l77 359q2 6 -11 10.5t-33 7t-39 2.5h-9l12 54h260l-12 -54h-11 q-37 0 -63 -10t-31 -36l-73 -338q-22 -105 -63.5 -168.5t-99.5 -92t-128 -28.5q-54 0 -99.5 14t-78 41.5t-50 68t-17.5 92.5q0 21 2 42.5t6.5 48.5t12.5 61l56 271q4 21 -19 27.5t-59 6.5h-11l12 54h286l-12 -54h-9q-19 0 -39.5 -1t-34.5 -3t-15 -6z" glyph-name="Ucaron" horiz-adv-x="800" unicode="Ǔ"/><glyph d="M332 611h72l154 165l3 15h-43l-156 -120l44 -13l-114 133h-40l-4 -15zM185 183q-5 -26 -8.5 -42.5t-3.5 -29.5q0 -16 6 -28.5t18.5 -19t33.5 -6.5q35 0 68.5 19t68.5 57t74 93l14 -30q-36 -61 -76 -107.5t-85.5 -72.5t-99.5 -26t-83.5 27.5t-29.5 73.5q0 19 4.5 41.5 t9.5 48.5l57 256q3 12 -6.5 20.5t-28 15t-44.5 10.5l-12 2l11 52h190zM507 205q-8 -40 -14.5 -65.5t-9.5 -40t-3 -21.5q0 -10 6 -15t18 -5q25 0 49.5 4.5t42.5 6.5l-11 -58q-14 -3 -31 -6.5t-34.5 -5.5t-37.5 -2q-34 0 -54 17.5t-20 50.5q0 8 1 21.5t3 31.5t4 39l-9 -5 l82 385h88z" glyph-name="ucaron" horiz-adv-x="642" unicode="ǔ"/><glyph d="M486 952h82l152 145l4 17h-46l-173 -110l60 -2l-122 112h-45l-3 -17zM224 340q-7 -32 -11.5 -56.5t-6.5 -44t-2 -38.5q0 -35 11 -62.5t33 -46.5t52.5 -28.5t70.5 -9.5q56 0 97 22t68.5 71t44.5 130l77 359q2 6 -11 10.5t-33 7t-39 2.5h-9l12 54h260l-12 -54h-11 q-37 0 -63 -10t-31 -36l-73 -338q-22 -105 -63.5 -168.5t-99.5 -92t-128 -28.5q-54 0 -99.5 14t-78 41.5t-50 68t-17.5 92.5q0 21 2 42.5t6.5 48.5t12.5 61l56 271q4 21 -19 27.5t-59 6.5h-11l12 54h286l-12 -54h-9q-19 0 -39.5 -1t-34.5 -3t-15 -6zM400 791q-28 0 -46.5 16 t-18.5 48q0 31 18.5 47t46.5 16t46.5 -16t18.5 -47q0 -32 -18.5 -48t-46.5 -16zM639 791q-28 0 -46.5 16t-18.5 48q0 31 18.5 47t46.5 16t46.5 -16t18.5 -47q0 -32 -18.5 -48t-46.5 -16z" glyph-name="Udieresiscaron" horiz-adv-x="800" unicode="Ǚ"/><glyph d="M349 816h72l154 165l4 15h-43l-157 -120l45 -13l-115 133h-40l-3 -15zM185 183q-5 -26 -8.5 -42.5t-3.5 -29.5q0 -16 6 -28.5t18.5 -19t33.5 -6.5q35 0 68.5 19t68.5 57t74 93l14 -30q-36 -61 -76 -107.5t-85.5 -72.5t-99.5 -26t-83.5 27.5t-29.5 73.5q0 19 4.5 41.5 t9.5 48.5l57 256q3 12 -6.5 20.5t-28 15t-44.5 10.5l-12 2l11 52h190zM507 205q-8 -40 -14.5 -65.5t-9.5 -40t-3 -21.5q0 -10 6 -15t18 -5q25 0 49.5 4.5t42.5 6.5l-11 -58q-14 -3 -31 -6.5t-34.5 -5.5t-37.5 -2q-34 0 -54 17.5t-20 50.5q0 8 1 21.5t3 31.5t4 39l-9 -5 l82 385h88zM253 645q28 0 46.5 16t18.5 48q0 31 -18.5 47t-46.5 16q-29 0 -47 -16t-18 -47q0 -32 18 -48t47 -16zM497 645q28 0 46.5 16t18.5 48q0 31 -18.5 47t-46.5 16q-29 0 -47 -16t-18 -47q0 -32 18 -48t47 -16z" glyph-name="udieresiscaron" horiz-adv-x="642" unicode="ǚ"/><glyph d="M406 776h82l152 145l4 16h-46l-173 -109l60 -3l-122 112h-45l-3 -16zM146 289q0 54 9 102.5t25.5 90.5t41 75.5t56 58t69.5 37.5t83 13q61 0 102 -21.5t65 -60.5t33 -93h70l48 224h-65l-46 -150l24 -10q-7 41 -25.5 73t-47.5 54.5t-68 34t-87 11.5q-68 0 -127 -21 t-106.5 -59.5t-81.5 -91.5t-52.5 -118t-18.5 -137t23.5 -130.5t66.5 -100.5t102.5 -64.5t132.5 -22.5q54 0 97 11t76 28t57 35.5t39 32.5l36 164q5 23 26 30.5t56 7.5h13l12 54h-288l-12 -54h16q30 0 50 -3.5t30 -12t7 -24.5l-32 -146q-8 -6 -30 -21t-58.5 -27.5 t-90.5 -12.5q-53 0 -95.5 16.5t-72.5 48t-46 76.5t-16 103z" glyph-name="Gcaron" horiz-adv-x="799" unicode="Ǧ"/><glyph d="M318 611h72l154 165l4 15h-43l-157 -120l45 -13l-115 133h-40l-3 -15zM385 -24l93 445l7 2l47 115h61l-120 -569q-15 -70 -49.5 -117.5t-89 -71t-129.5 -23.5q-55 0 -99.5 11t-75 29t-45.5 36l20 98h90l-25 -121q-11 2 -19 11t-12.5 21t-5 23.5t3.5 18.5q14 -18 37 -34.5 t56 -26t78 -9.5q51 0 86 16t56.5 52t34.5 94zM524 384l-36 -44q-9 44 -27.5 76.5t-48 50.5t-72.5 18q-36 0 -67 -18t-55.5 -48t-42 -68.5t-26.5 -80t-9 -82.5q0 -40 9 -68.5t30.5 -43.5t57.5 -15q41 0 75 21t68 61t72 97l19 -32q-35 -61 -74 -108.5t-82.5 -73.5t-94.5 -26 q-59 0 -97.5 23.5t-57.5 66.5t-19 102q0 49 13.5 99.5t39 96t61.5 81.5t81.5 57t98.5 21q40 0 71 -12.5t53 -35t36.5 -52t23.5 -63.5z" glyph-name="gcaron" horiz-adv-x="623" unicode="ǧ"/><glyph d="M439 666q-47 0 -87.5 -13.5t-73 -40t-58 -66t-42.5 -91.5q-11 -26 -17.5 -54t-9.5 -56.5t-3 -56.5q0 -53 13 -97.5t39.5 -77.5t67.5 -50.5t97 -17.5q47 0 87.5 13t73 39.5t58 66t42.5 91.5q11 28 17.5 55.5t9.5 55.5t3 56q0 54 -13 98t-39.5 77t-67.5 51t-97 18zM755 411 q0 -49 -9.5 -97.5t-29 -93t-47.5 -83t-65 -69.5q-31 -25 -64.5 -47t-65.5 -43t-58 -41t-41.5 -41t-15.5 -45q0 -20 12 -30t32 -10q23 0 40.5 11.5t30.5 23.5l26 -38q-22 -21 -50.5 -36.5t-70.5 -15.5q-54 0 -85 21.5t-31 63.5q0 26 12.5 47.5t41 42.5t75.5 46t117 59 l-38 -33q-16 -7 -34 -12t-37 -6.5t-38 -1.5q-76 0 -134.5 24.5t-98 68t-60 101t-20.5 123.5q0 63 16.5 125t49 116.5t79.5 96.5t109.5 66t138.5 24t134.5 -24.5t98 -68t60 -101.5t20.5 -123z" glyph-name="Oogonek" horiz-adv-x="802" unicode="Ǫ"/><glyph d="M160 -158q0 25 10.5 46t35.5 42.5t70 46.5t113 58l-15 -29q-23 -9 -46 -13.5t-51 -4.5q-69 0 -121 27.5t-81 78t-29 118.5q0 55 13.5 105t39 92t62 73t81.5 48t99 17q67 0 118.5 -28t80 -78.5t28.5 -119.5q0 -55 -13.5 -104.5t-39 -91t-62.5 -72.5q-33 -29 -67.5 -54 t-64 -48.5t-48 -47.5t-18.5 -52q0 -20 12 -30t33 -10q23 0 40.5 11.5t30.5 23.5l26 -38q-22 -21 -51 -36.5t-71 -15.5q-53 0 -84 22.5t-31 63.5zM450 188q9 23 14 47t7.5 49t2.5 50q0 48 -15.5 82t-46.5 52t-78 18q-33 0 -59.5 -10.5t-47 -29.5t-36.5 -44.5t-27 -54.5 q-8 -23 -13.5 -47.5t-8 -49.5t-2.5 -49q0 -49 15.5 -83t46.5 -52t78 -18q33 0 59.5 11t47 29.5t36.5 44t27 55.5z" glyph-name="oogonek" horiz-adv-x="614" unicode="ǫ"/><glyph d="M196 296h268l-1 -56h-291zM402 670l15 -5l-312 -590q-1 -5 10 -10t30.5 -7.5t42.5 -2.5h12l-12 -55h-244l12 55h6q28 0 49.5 9t38.5 41l326 611h107l72 -613q3 -31 19.5 -39.5t46.5 -8.5h5l-12 -55h-261l12 55h13q24 0 44 1t33 3.5t13 5.5zM446 947q-22 0 -36.5 -10.5 t-22 -27.5t-7.5 -38q0 -27 16 -41.5t42 -14.5q22 0 36.5 10.5t22 27.5t7.5 37q0 28 -16 42.5t-42 14.5zM438 772q-38 0 -66 13t-43 36t-15 53q0 35 17 60.5t47 40t68 14.5t66 -12.5t43 -35.5t15 -54q0 -34 -17 -60t-47 -40.5t-68 -14.5zM490 1147q14 14 25.5 24t23 15 t25.5 5q21 0 33 -12t12 -30q0 -16 -9 -28t-25 -21.5t-38 -20.5l-108 -51h-33l5 24z" glyph-name="Aringacute" horiz-adv-x="697" unicode="Ǻ"/><glyph d="M497 376l-34 -43q-8 47 -24.5 81t-42.5 52.5t-65 18.5q-34 0 -63.5 -18t-53 -48.5t-40 -70t-25.5 -83t-9 -85.5t8.5 -71t28 -44.5t51.5 -15.5q38 0 69.5 20.5t63 60t66.5 98.5l19 -30q-33 -63 -69 -110t-76.5 -73.5t-91.5 -26.5q-55 0 -91.5 24t-54 67.5t-17.5 103.5 q0 52 13 103.5t38 98.5t60 83.5t78.5 57.5t94.5 21q50 0 83 -23t53 -61.5t31 -86.5zM572 538l-71 -333q-8 -40 -14.5 -65.5t-9.5 -40t-3 -21.5q0 -10 6 -15t18 -5q25 0 49.5 4.5t42.5 6.5l-11 -58q-14 -3 -31 -6.5t-34.5 -5.5t-37.5 -2q-23 0 -39.5 8t-25.5 23t-9 37 q0 12 2 37t6 60l-8 -8l52 255l5 6l53 123h60zM365 771q-22 0 -36.5 -10.5t-22 -27.5t-7.5 -38q0 -27 16 -41.5t42 -14.5q22 0 36.5 10.5t22 27.5t7.5 37q0 28 -16 42.5t-42 14.5zM489 711q0 -34 -17 -60t-47 -40.5t-68 -14.5t-66 13t-43 36t-15 53q0 35 17 60.5t47 40 t68 14.5t66 -12.5t43 -35.5t15 -54zM407 979q14 14 25.5 24t23 15t25.5 5q21 0 33 -12t12 -30q0 -16 -9 -28t-25 -21.5t-38 -20.5l-108 -51h-33l5 24z" glyph-name="aringacute" horiz-adv-x="635" unicode="ǻ"/><glyph d="M-43 55h6q29 0 50 11.5t46 41.5l424 514q3 14 -8.5 21t-31.5 10t-45 3h-11l13 54h633l-38 -196h-60l5 93q1 18 -10.5 27.5t-37 13t-68.5 3.5h-134l-126 -591h167q43 0 70 3.5t42.5 13t21.5 27.5l39 117h61l-47 -221h-556l13 55h11q36 0 62 6.5t30 30.5l119 556h-16 l-472 -573q-1 -5 10 -10t30 -7.5t43 -2.5h12l-12 -55h-247zM249 296h297v-56h-335zM612 392q44 2 88.5 4l89 4t88.5 3l-17 -78q-43 3 -87 5t-87.5 4t-87.5 3zM771 899q14 14 25.5 24t23 15t25.5 5q21 0 33 -12t12 -30q0 -16 -9 -28t-25 -21.5t-38 -20.5l-108 -51h-33l5 24z" glyph-name="AEacute" horiz-adv-x="1053" unicode="Ǽ"/><glyph d="M302 487q-37 0 -66 -8t-49.5 -19t-33.5 -21q1 9 6.5 19t14.5 19.5t20 15t23 6.5l-27 -125h-88l28 130q16 8 43 18t62.5 17.5t76.5 7.5q51 0 90 -12t62 -39t23 -73l-3 -49l-90 -74l15 65q5 18 6.5 29t1.5 21q0 24 -12.5 39.5t-37.5 24t-65 8.5zM207 -11q-50 0 -88 16.5 t-59.5 47.5t-21.5 71q0 48 21.5 81.5t68 55.5t122 34t182.5 16l-12 -52q-71 -4 -121.5 -11t-83 -18t-51 -25.5t-26 -34t-7.5 -43.5q0 -36 23 -57t67 -21q38 0 68 15.5t58.5 45.5t60.5 75l28 -38q-36 -51 -69.5 -86t-71.5 -53.5t-88 -18.5zM605 -12q-67 0 -117 27t-77.5 77.5 t-27.5 120.5q0 26 5 52t14 48t22 39.5t29 26.5q12 34 32 64.5t48.5 53.5t63.5 36.5t75 13.5q55 0 92.5 -17.5t57 -48t19.5 -69.5q0 -46 -23.5 -81.5t-71 -60t-120.5 -36t-174 -11.5l6 52q88 0 145.5 9.5t91 26.5t47 42.5t13.5 57.5q0 37 -23 56t-68 19q-44 0 -79.5 -22 t-60.5 -60.5t-38.5 -89t-13.5 -107.5q0 -56 17 -91t49 -51t75 -16q37 0 67 11.5t54 32t45 45.5l33 -48q-23 -29 -54.5 -52t-69.5 -36.5t-83 -13.5zM548 753q12 20 23 34t24 21t29 7q21 0 34.5 -13t13.5 -32q0 -15 -7 -26.5t-19 -22t-27 -21.5l-118 -86h-30l4 23z" glyph-name="aeacute" horiz-adv-x="873" unicode="ǽ"/><glyph d="M362 -17q-76 0 -134.5 24.5t-98 68t-60 101t-20.5 123.5q0 63 16.5 125t49 116.5t79.5 96.5t109.5 66t138.5 24t134.5 -24.5t98 -68t60 -101.5t20.5 -123q0 -64 -16.5 -126t-49 -116.5t-79.5 -96t-109.5 -65.5t-138.5 -24zM365 45q51 0 93.5 15t76.5 44.5t59.5 73 t41.5 100.5q8 25 12.5 49t6 48t1.5 47q0 60 -11.5 105.5t-37 76.5t-67 46.5t-101.5 15.5q-51 0 -93.5 -15.5t-76.5 -45t-59.5 -73t-41.5 -99.5q-7 -24 -12 -48.5t-6.5 -48.5t-1.5 -48q0 -59 11.5 -104.5t37 -76.5t67 -46.5t101.5 -15.5zM-64 -20l837 750h86l-837 -750h-86z M495 899q14 14 25.5 24t23 15t25.5 5q21 0 33 -12t12 -30q0 -16 -9 -28t-25 -21.5t-38 -20.5l-108 -51h-33l5 24z" glyph-name="Oslashacute" horiz-adv-x="808" unicode="Ǿ"/><glyph d="M287 48q35 0 62 11t48.5 29.5t37 44t26.5 55.5q9 23 14 47t8 49t3 50q0 52 -13.5 86t-45 50t-85.5 16q-34 0 -61 -10.5t-48 -29.5t-36.5 -44.5t-26.5 -54.5q-8 -23 -13.5 -47.5t-8.5 -49.5t-3 -49q0 -53 13 -86.5t44.5 -50t84.5 -16.5zM284 -12q-69 0 -121.5 29.5 t-81.5 80.5t-29 114q0 55 14 105t39.5 92t61.5 73t81.5 48t98.5 17q70 0 122 -30t81 -81t29 -115q0 -55 -13.5 -104.5t-39 -91.5t-62 -72.5t-82 -47.5t-98.5 -17zM-33 -14l618 563h81l-618 -563h-81zM379 753q12 20 23 34t24 21t29 7q21 0 34.5 -13t13.5 -32q0 -15 -7 -26.5 t-19 -22t-27 -21.5l-118 -86h-30l4 23z" glyph-name="oslashacute" horiz-adv-x="640" unicode="ǿ"/><glyph d="M196 296h268l-1 -56h-291zM402 670l15 -5l-312 -590q-1 -5 10 -10t30.5 -7.5t42.5 -2.5h12l-12 -55h-244l12 55h6q28 0 49.5 9t38.5 41l326 611h107l72 -613q3 -31 19.5 -39.5t46.5 -8.5h5l-12 -55h-261l12 55h13q24 0 44 1t33 3.5t13 5.5zM319 892l40 -92l2 -24h-35 l-63 52q-16 14 -27 25t-17 22.5t-6 23.5q0 19 13.5 31t34.5 12q14 0 24 -5.5t18.5 -16.5t15.5 -28zM500 892l40 -92l2 -24h-35l-63 52q-16 14 -27 25t-17 22.5t-6 23.5q0 19 13.5 31t34.5 12q14 0 24 -5.5t18.5 -16.5t15.5 -28z" glyph-name="Adblgrave" horiz-adv-x="697" unicode="Ȁ"/><glyph d="M497 376l-34 -43q-8 47 -24.5 81t-42.5 52.5t-65 18.5q-34 0 -63.5 -18t-53 -48.5t-40 -70t-25.5 -83t-9 -85.5t8.5 -71t28 -44.5t51.5 -15.5q38 0 69.5 20.5t63 60t66.5 98.5l19 -30q-33 -63 -69 -110t-76.5 -73.5t-91.5 -26.5q-55 0 -91.5 24t-54 67.5t-17.5 103.5 q0 52 13 103.5t38 98.5t60 83.5t78.5 57.5t94.5 21q50 0 83 -23t53 -61.5t31 -86.5zM572 538l-71 -333q-8 -40 -14.5 -65.5t-9.5 -40t-3 -21.5q0 -10 6 -15t18 -5q25 0 49.5 4.5t42.5 6.5l-11 -58q-14 -3 -31 -6.5t-34.5 -5.5t-37.5 -2q-23 0 -39.5 8t-25.5 23t-9 37 q0 12 2 37t6 60l-8 -8l52 255l5 6l53 123h60zM432 755l39 -118l4 -23h-30l-82 89q-12 15 -21 25.5t-13 21t-4 23.5q0 18 12.5 30t33.5 12q24 0 37 -14.5t24 -45.5zM253 755l39 -118l5 -23h-30l-82 89q-13 15 -21.5 25.5t-13 21t-4.5 23.5q0 18 12.5 30t34.5 12 q23 0 36.5 -14.5t23.5 -45.5z" glyph-name="adblgrave" horiz-adv-x="635" unicode="ȁ"/><glyph d="M438 914q-45 0 -80 -15.5t-57.5 -49.5t-30.5 -91h62q7 32 19 49.5t32 24.5t50 7q37 0 55.5 -8t25.5 -26t6 -47h65q1 7 2 13.5t1 15.5q0 40 -16 68t-48.5 43.5t-85.5 15.5zM196 296h268l-1 -56h-291zM402 670l15 -5l-312 -590q-1 -5 10 -10t30.5 -7.5t42.5 -2.5h12 l-12 -55h-244l12 55h6q28 0 49.5 9t38.5 41l326 611h107l72 -613q3 -31 19.5 -39.5t46.5 -8.5h5l-12 -55h-261l12 55h13q24 0 44 1t33 3.5t13 5.5z" glyph-name="Ainvertedbreve" horiz-adv-x="697" unicode="Ȃ"/><glyph d="M363 785q-45 0 -79 -15t-55.5 -50t-30.5 -98h62q7 36 18.5 56t30 28t49.5 8q35 0 51 -11t20 -31t1 -50h64q3 11 3.5 20t0.5 20q1 38 -13.5 65.5t-44.5 42.5t-77 15zM497 376l-34 -43q-8 47 -24.5 81t-42.5 52.5t-65 18.5q-34 0 -63.5 -18t-53 -48.5t-40 -70t-25.5 -83 t-9 -85.5t8.5 -71t28 -44.5t51.5 -15.5q38 0 69.5 20.5t63 60t66.5 98.5l19 -30q-33 -63 -69 -110t-76.5 -73.5t-91.5 -26.5q-55 0 -91.5 24t-54 67.5t-17.5 103.5q0 52 13 103.5t38 98.5t60 83.5t78.5 57.5t94.5 21q50 0 83 -23t53 -61.5t31 -86.5zM572 538l-71 -333 q-8 -40 -14.5 -65.5t-9.5 -40t-3 -21.5q0 -10 6 -15t18 -5q25 0 49.5 4.5t42.5 6.5l-11 -58q-14 -3 -31 -6.5t-34.5 -5.5t-37.5 -2q-23 0 -39.5 8t-25.5 23t-9 37q0 12 2 37t6 60l-8 -8l52 255l5 6l53 123h60z" glyph-name="ainvertedbreve" horiz-adv-x="635" unicode="ȃ"/><glyph d="M586 222l-47 -222h-558l12 55h11q36 0 62 6.5t31 30.5l111 528q5 22 -17.5 29t-59.5 7h-11l12 54h522l-38 -197h-60l5 93q1 18 -10.5 27.5t-37 13t-68.5 3.5h-137l-125 -589h169q43 0 70 3.5t42.5 13t21.5 27.5l39 117h61zM230 392q45 3 90 4.5t89.5 3.5t89.5 4l-17 -79 q-43 2 -87.5 4t-88.5 4.5t-88 3.5zM323 892l40 -92l2 -24h-35l-63 52q-16 14 -27 25t-17 22.5t-6 23.5q0 19 13.5 31t34.5 12q14 0 24 -5.5t18.5 -16.5t15.5 -28zM504 892l40 -92l2 -24h-35l-63 52q-16 14 -27 25t-17 22.5t-6 23.5q0 19 13.5 31t34.5 12q14 0 24 -5.5 t18.5 -16.5t15.5 -28z" glyph-name="Edblgrave" horiz-adv-x="668" unicode="Ȅ"/><glyph d="M266 -12q-66 0 -115.5 26.5t-77 76.5t-27.5 121q0 66 20.5 126t58.5 107t91.5 74.5t118.5 27.5q57 0 95 -18t57 -48.5t19 -69.5q0 -48 -24.5 -85t-73.5 -62.5t-122 -38t-171 -13.5l6 52q85 1 143 11.5t92.5 28.5t49.5 44.5t15 60.5q0 25 -10.5 42t-31 26t-51.5 9 q-43 0 -78.5 -22t-61 -61t-39.5 -89.5t-14 -108.5q0 -53 16 -87.5t46.5 -51.5t74.5 -17q39 0 69 14.5t52.5 38t38.5 50.5l48 -34q-23 -42 -55.5 -71t-72.5 -44t-86 -15zM414 755l39 -118l4 -23h-30l-82 89q-12 15 -21 25.5t-13 21t-4 23.5q0 18 12.5 30t33.5 12 q24 0 37 -14.5t24 -45.5zM235 755l39 -118l5 -23h-30l-82 89q-13 15 -21.5 25.5t-13 21t-4.5 23.5q0 18 12.5 30t34.5 12q23 0 36.5 -14.5t23.5 -45.5z" glyph-name="edblgrave" horiz-adv-x="540" unicode="ȅ"/><glyph d="M423 914q-45 0 -80 -15.5t-57.5 -49.5t-30.5 -91h62q7 32 19 49.5t32 24.5t50 7q37 0 55.5 -8t25.5 -26t6 -47h65q1 7 2 13.5t1 15.5q0 40 -16 68t-48.5 43.5t-85.5 15.5zM586 222l-47 -222h-558l12 55h11q36 0 62 6.5t31 30.5l111 528q5 22 -17.5 29t-59.5 7h-11l12 54 h522l-38 -197h-60l5 93q1 18 -10.5 27.5t-37 13t-68.5 3.5h-137l-125 -589h169q43 0 70 3.5t42.5 13t21.5 27.5l39 117h61zM230 392q45 3 90 4.5t89.5 3.5t89.5 4l-17 -79q-43 2 -87.5 4t-88.5 4.5t-88 3.5z" glyph-name="Einvertedbreve" horiz-adv-x="668" unicode="Ȇ"/><glyph d="M337 785q-45 0 -79 -15t-55.5 -50t-30.5 -98h62q7 36 18.5 56t30 28t49.5 8q35 0 51 -11t20 -31t1 -50h64q3 11 3.5 20t0.5 20q1 38 -13.5 65.5t-44.5 42.5t-77 15zM266 -12q-66 0 -115.5 26.5t-77 76.5t-27.5 121q0 66 20.5 126t58.5 107t91.5 74.5t118.5 27.5 q57 0 95 -18t57 -48.5t19 -69.5q0 -48 -24.5 -85t-73.5 -62.5t-122 -38t-171 -13.5l6 52q85 1 143 11.5t92.5 28.5t49.5 44.5t15 60.5q0 25 -10.5 42t-31 26t-51.5 9q-43 0 -78.5 -22t-61 -61t-39.5 -89.5t-14 -108.5q0 -53 16 -87.5t46.5 -51.5t74.5 -17q39 0 69 14.5 t52.5 38t38.5 50.5l48 -34q-23 -42 -55.5 -71t-72.5 -44t-86 -15z" glyph-name="einvertedbreve" horiz-adv-x="540" unicode="ȇ"/><glyph d="M101 88l112 532q4 22 -18.5 29t-59.5 7h-15l12 54h294l-13 -54h-15q-36 0 -62 -6.5t-30 -27.5l-112 -531q-5 -22 17.5 -29t59.5 -7h16l-13 -55h-293l12 55h16q36 0 61.5 6.5t30.5 26.5zM181 892l40 -92l2 -24h-35l-63 52q-16 14 -27 25t-17 22.5t-6 23.5q0 19 13.5 31 t34.5 12q14 0 24 -5.5t18.5 -16.5t15.5 -28zM362 892l40 -92l2 -24h-35l-63 52q-16 14 -27 25t-17 22.5t-6 23.5q0 19 13.5 31t34.5 12q14 0 24 -5.5t18.5 -16.5t15.5 -28z" glyph-name="Idblgrave" horiz-adv-x="399" unicode="Ȉ"/><glyph d="M163 -3q-26 0 -46.5 7.5t-31.5 23t-11 37.5q0 14 2.5 30t8.5 43t17 73l47 226q3 12 -6.5 20.5t-28 15t-44.5 10.5l-12 2l12 52h188l-70 -332q-8 -40 -14 -65.5t-8 -40t-2 -21.5q0 -10 5.5 -15t18.5 -5q16 0 32 2.5t31 5t26 3.5l-10 -58q-15 -3 -31.5 -6.5t-34.5 -5.5 t-38 -2zM268 755l39 -118l4 -23h-30l-82 89q-12 15 -21 25.5t-13 21t-4 23.5q0 18 12.5 30t33.5 12q24 0 37 -14.5t24 -45.5zM89 755l39 -118l5 -23h-30l-82 89q-13 15 -21.5 25.5t-13 21t-4.5 23.5q0 18 12.5 30t34.5 12q23 0 36.5 -14.5t23.5 -45.5z" glyph-name="idblgrave" horiz-adv-x="332" unicode="ȉ"/><glyph d="M292 914q-45 0 -80 -15.5t-57.5 -49.5t-30.5 -91h62q7 32 19 49.5t32 24.5t50 7q37 0 55.5 -8t25.5 -26t6 -47h65q1 7 2 13.5t1 15.5q0 40 -16 68t-48.5 43.5t-85.5 15.5zM101 88l112 532q4 22 -18.5 29t-59.5 7h-15l12 54h294l-13 -54h-15q-36 0 -62 -6.5t-30 -27.5 l-112 -531q-5 -22 17.5 -29t59.5 -7h16l-13 -55h-293l12 55h16q36 0 61.5 6.5t30.5 26.5z" glyph-name="Iinvertedbreve" horiz-adv-x="399" unicode="Ȋ"/><glyph d="M198 785q-45 0 -79 -15t-55.5 -50t-29.5 -98h61q8 36 19 56t30 28t49 8q35 0 51.5 -11t20.5 -31t1 -50h64q2 11 3 20t1 20q0 38 -14.5 65.5t-44.5 42.5t-77 15zM163 -3q-26 0 -46.5 7.5t-31.5 23t-11 37.5q0 14 2.5 30t8.5 43t17 73l47 226q3 12 -6.5 20.5t-28 15 t-44.5 10.5l-12 2l12 52h188l-70 -332q-8 -40 -14 -65.5t-8 -40t-2 -21.5q0 -10 5.5 -15t18.5 -5q16 0 32 2.5t31 5t26 3.5l-10 -58q-15 -3 -31.5 -6.5t-34.5 -5.5t-38 -2z" glyph-name="iinvertedbreve" horiz-adv-x="332" unicode="ȋ"/><glyph d="M362 -17q-76 0 -134.5 24.5t-98 68t-60 101t-20.5 123.5q0 63 16.5 125t49 116.5t79.5 96.5t109.5 66t138.5 24t134.5 -24.5t98 -68t60 -101.5t20.5 -123q0 -64 -16.5 -126t-49 -116.5t-79.5 -96t-109.5 -65.5t-138.5 -24zM439 666q-47 0 -87.5 -13.5t-73 -40t-58 -66 t-42.5 -91.5q-11 -26 -17.5 -54t-9.5 -56.5t-3 -56.5q0 -53 13 -97.5t39.5 -77.5t67.5 -50.5t97 -17.5q47 0 87.5 13t73 39.5t58 66t42.5 91.5q11 28 17.5 55.5t9.5 55.5t3 56q0 54 -13 98t-39.5 77t-67.5 51t-97 18zM348 892l40 -92l2 -24h-35l-63 52q-16 14 -27 25 t-17 22.5t-6 23.5q0 19 13.5 31t34.5 12q14 0 24 -5.5t18.5 -16.5t15.5 -28zM529 892l40 -92l2 -24h-35l-63 52q-16 14 -27 25t-17 22.5t-6 23.5q0 19 13.5 31t34.5 12q14 0 24 -5.5t18.5 -16.5t15.5 -28z" glyph-name="Odblgrave" horiz-adv-x="802" unicode="Ȍ"/><glyph d="M450 188q9 23 14 47t7.5 49t2.5 50q0 48 -15.5 82t-46.5 52t-78 18q-33 0 -59.5 -10.5t-47 -29.5t-36.5 -44.5t-27 -54.5q-8 -23 -13.5 -47.5t-8 -49.5t-2.5 -49q0 -49 15.5 -83t46.5 -52t78 -18q33 0 59.5 11t47 29.5t36.5 44t27 55.5zM46 212q0 55 13.5 105t39 92 t61.5 73t81 48t98 17q69 0 120.5 -27.5t80 -78.5t28.5 -120q0 -55 -13.5 -104.5t-39 -91.5t-61.5 -72.5t-81 -47.5t-98 -17q-69 0 -120.5 27.5t-80 78t-28.5 118.5zM438 755l39 -118l4 -23h-30l-82 89q-12 15 -21 25.5t-13 21t-4 23.5q0 18 12.5 30t33.5 12q24 0 37 -14.5 t24 -45.5zM259 755l39 -118l5 -23h-30l-82 89q-13 15 -21.5 25.5t-13 21t-4.5 23.5q0 18 12.5 30t34.5 12q23 0 36.5 -14.5t23.5 -45.5z" glyph-name="odblgrave" horiz-adv-x="614" unicode="ȍ"/><glyph d="M461 914q-46 0 -80.5 -15.5t-57 -49.5t-30.5 -91h62q7 32 19 49.5t32 24.5t50 7q36 0 55 -8t26 -26t6 -47h65q1 7 2 13.5t1 15.5q0 40 -16 68t-49 43.5t-85 15.5zM362 -17q-76 0 -134.5 24.5t-98 68t-60 101t-20.5 123.5q0 63 16.5 125t49 116.5t79.5 96.5t109.5 66 t138.5 24t134.5 -24.5t98 -68t60 -101.5t20.5 -123q0 -64 -16.5 -126t-49 -116.5t-79.5 -96t-109.5 -65.5t-138.5 -24zM439 666q-47 0 -87.5 -13.5t-73 -40t-58 -66t-42.5 -91.5q-11 -26 -17.5 -54t-9.5 -56.5t-3 -56.5q0 -53 13 -97.5t39.5 -77.5t67.5 -50.5t97 -17.5 q47 0 87.5 13t73 39.5t58 66t42.5 91.5q11 28 17.5 55.5t9.5 55.5t3 56q0 54 -13 98t-39.5 77t-67.5 51t-97 18z" glyph-name="Oinvertedbreve" horiz-adv-x="802" unicode="Ȏ"/><glyph d="M363 785q-45 0 -79 -15t-55.5 -50t-29.5 -98h61q8 36 19 56t30 28t49 8q35 0 51.5 -11t20.5 -31t1 -50h64q2 11 3 20t1 20q0 38 -14.5 65.5t-44.5 42.5t-77 15zM450 188q9 23 14 47t7.5 49t2.5 50q0 48 -15.5 82t-46.5 52t-78 18q-33 0 -59.5 -10.5t-47 -29.5 t-36.5 -44.5t-27 -54.5q-8 -23 -13.5 -47.5t-8 -49.5t-2.5 -49q0 -49 15.5 -83t46.5 -52t78 -18q33 0 59.5 11t47 29.5t36.5 44t27 55.5zM46 212q0 55 13.5 105t39 92t61.5 73t81 48t98 17q69 0 120.5 -27.5t80 -78.5t28.5 -120q0 -55 -13.5 -104.5t-39 -91.5t-61.5 -72.5 t-81 -47.5t-98 -17q-69 0 -120.5 27.5t-80 78t-28.5 118.5z" glyph-name="oinvertedbreve" horiz-adv-x="614" unicode="ȏ"/><glyph d="M373 321l86 22l100 -240q9 -21 19 -31.5t24 -13.5t35 -3h14l-13 -55h-142zM284 55l-12 -55h-291l12 55h11q36 0 62 6.5t30 27.5l113 531q4 21 -17.5 28.5t-60.5 7.5h-11l13 54h279q79 0 131.5 -23t79.5 -63.5t27 -92.5q0 -46 -15 -83.5t-43.5 -65.5t-68.5 -45.5 t-90 -24.5q-11 -3 -21.5 -5.5t-19.5 -4t-18 -1.5h-140l-50 -236q0 -3 12.5 -5.5t32.5 -3.5t40 -1h15zM414 650h-106l-62 -292h133q44 0 76.5 12t54 34.5t32 54.5t10.5 73q0 36 -14.5 62.5t-45 41t-78.5 14.5zM306 892l40 -92l2 -24h-35l-63 52q-16 14 -27 25t-17 22.5 t-6 23.5q0 19 13.5 31t34.5 12q14 0 24 -5.5t18.5 -16.5t15.5 -28zM487 892l40 -92l2 -24h-35l-63 52q-16 14 -27 25t-17 22.5t-6 23.5q0 19 13.5 31t34.5 12q14 0 24 -5.5t18.5 -16.5t15.5 -28z" glyph-name="Rdblgrave" horiz-adv-x="729" unicode="Ȑ"/><glyph d="M59 0h88l79 375l-6 5l18 157h-165l-11 -52l12 -2q25 -4 43.5 -10.5t28 -14.5t7.5 -20zM450 542q-4 2 -16.5 4t-27.5 2q-34 0 -61.5 -14t-53 -41.5t-52 -68.5t-57.5 -96l19 -23q25 42 46.5 70.5t42 45.5t43 25t48.5 8q15 0 27.5 -2t26.5 -5zM375 755l39 -118l4 -23h-30 l-82 89q-12 15 -21 25.5t-13 21t-4 23.5q0 18 12.5 30t33.5 12q24 0 37 -14.5t24 -45.5zM196 755l39 -118l5 -23h-30l-82 89q-13 15 -21.5 25.5t-13 21t-4.5 23.5q0 18 12.5 30t34.5 12q23 0 36.5 -14.5t23.5 -45.5z" glyph-name="rdblgrave" horiz-adv-x="453" unicode="ȑ"/><glyph d="M423 914q-45 0 -79.5 -15.5t-57 -49.5t-31.5 -91h62q7 32 19.5 49.5t32.5 24.5t49 7q37 0 56 -8t26 -26t6 -47h64q2 7 2.5 13.5t0.5 15.5q0 40 -15.5 68t-48.5 43.5t-86 15.5zM373 321l86 22l100 -240q9 -21 19 -31.5t24 -13.5t35 -3h14l-13 -55h-142zM284 55l-12 -55 h-291l12 55h11q36 0 62 6.5t30 27.5l113 531q4 21 -17.5 28.5t-60.5 7.5h-11l13 54h279q79 0 131.5 -23t79.5 -63.5t27 -92.5q0 -46 -15 -83.5t-43.5 -65.5t-68.5 -45.5t-90 -24.5q-11 -3 -21.5 -5.5t-19.5 -4t-18 -1.5h-140l-50 -236q0 -3 12.5 -5.5t32.5 -3.5t40 -1h15z M414 650h-106l-62 -292h133q44 0 76.5 12t54 34.5t32 54.5t10.5 73q0 36 -14.5 62.5t-45 41t-78.5 14.5z" glyph-name="Rinvertedbreve" horiz-adv-x="729" unicode="Ȓ"/><glyph d="M296 785q-45 0 -79 -15t-55.5 -50t-30.5 -98h62q7 36 18.5 56t30 28t49.5 8q35 0 51 -11t20 -31t1 -50h64q3 11 3.5 20t0.5 20q1 38 -13.5 65.5t-44.5 42.5t-77 15zM59 0h88l79 375l-6 5l18 157h-165l-11 -52l12 -2q25 -4 43.5 -10.5t28 -14.5t7.5 -20zM450 542 q-4 2 -16.5 4t-27.5 2q-34 0 -61.5 -14t-53 -41.5t-52 -68.5t-57.5 -96l19 -23q25 42 46.5 70.5t42 45.5t43 25t48.5 8q15 0 27.5 -2t26.5 -5z" glyph-name="rinvertedbreve" horiz-adv-x="453" unicode="ȓ"/><glyph d="M224 340q-7 -32 -11.5 -56.5t-6.5 -44t-2 -38.5q0 -35 11 -62.5t33 -46.5t52.5 -28.5t70.5 -9.5q56 0 97 22t68.5 71t44.5 130l77 359q2 6 -11 10.5t-33 7t-39 2.5h-9l12 54h260l-12 -54h-11q-37 0 -63 -10t-31 -36l-73 -338q-22 -105 -63.5 -168.5t-99.5 -92t-128 -28.5 q-54 0 -99.5 14t-78 41.5t-50 68t-17.5 92.5q0 21 2 42.5t6.5 48.5t12.5 61l56 271q4 21 -19 27.5t-59 6.5h-11l12 54h286l-12 -54h-9q-19 0 -39.5 -1t-34.5 -3t-15 -6zM390 892l40 -92l2 -24h-35l-63 52q-16 14 -27 25t-17 22.5t-6 23.5q0 19 13.5 31t34.5 12q14 0 24 -5.5 t18.5 -16.5t15.5 -28zM571 892l40 -92l2 -24h-35l-63 52q-16 14 -27 25t-17 22.5t-6 23.5q0 19 13.5 31t34.5 12q14 0 24 -5.5t18.5 -16.5t15.5 -28z" glyph-name="Udblgrave" horiz-adv-x="800" unicode="Ȕ"/><glyph d="M185 183q-5 -26 -8.5 -42.5t-3.5 -29.5q0 -16 6 -28.5t18.5 -19t33.5 -6.5q35 0 68.5 19t68.5 57t74 93l14 -30q-36 -61 -76 -107.5t-85.5 -72.5t-99.5 -26t-83.5 27.5t-29.5 73.5q0 19 4.5 41.5t9.5 48.5l57 256q3 12 -6.5 20.5t-28 15t-44.5 10.5l-12 2l11 52h190z M507 205q-8 -40 -14.5 -65.5t-9.5 -40t-3 -21.5q0 -10 6 -15t18 -5q25 0 49.5 4.5t42.5 6.5l-11 -58q-14 -3 -31 -6.5t-34.5 -5.5t-37.5 -2q-34 0 -54 17.5t-20 50.5q0 8 1 21.5t3 31.5t4 39l-9 -5l82 385h88zM461 755l39 -118l4 -23h-30l-82 89q-12 15 -21 25.5t-13 21 t-4 23.5q0 18 12.5 30t33.5 12q24 0 37 -14.5t24 -45.5zM282 755l39 -118l5 -23h-30l-82 89q-13 15 -21.5 25.5t-13 21t-4.5 23.5q0 18 12.5 30t34.5 12q23 0 36.5 -14.5t23.5 -45.5z" glyph-name="udblgrave" horiz-adv-x="642" unicode="ȕ"/><glyph d="M504 914q-45 0 -79.5 -15.5t-57 -49.5t-31.5 -91h62q7 32 19.5 49.5t32.5 24.5t49 7q37 0 56 -8t26 -26t6 -47h64q2 7 2.5 13.5t0.5 15.5q0 40 -15.5 68t-48.5 43.5t-86 15.5zM224 340q-7 -32 -11.5 -56.5t-6.5 -44t-2 -38.5q0 -35 11 -62.5t33 -46.5t52.5 -28.5 t70.5 -9.5q56 0 97 22t68.5 71t44.5 130l77 359q2 6 -11 10.5t-33 7t-39 2.5h-9l12 54h260l-12 -54h-11q-37 0 -63 -10t-31 -36l-73 -338q-22 -105 -63.5 -168.5t-99.5 -92t-128 -28.5q-54 0 -99.5 14t-78 41.5t-50 68t-17.5 92.5q0 21 2 42.5t6.5 48.5t12.5 61l56 271 q4 21 -19 27.5t-59 6.5h-11l12 54h286l-12 -54h-9q-19 0 -39.5 -1t-34.5 -3t-15 -6z" glyph-name="Uinvertedbreve" horiz-adv-x="800" unicode="Ȗ"/><glyph d="M381 785q-45 0 -79 -15t-55.5 -50t-30.5 -98h62q7 36 18.5 56t30 28t49.5 8q35 0 51 -11t20 -31t1 -50h64q3 11 3.5 20t0.5 20q1 38 -13.5 65.5t-44.5 42.5t-77 15zM185 183q-5 -26 -8.5 -42.5t-3.5 -29.5q0 -16 6 -28.5t18.5 -19t33.5 -6.5q35 0 68.5 19t68.5 57t74 93 l14 -30q-36 -61 -76 -107.5t-85.5 -72.5t-99.5 -26t-83.5 27.5t-29.5 73.5q0 19 4.5 41.5t9.5 48.5l57 256q3 12 -6.5 20.5t-28 15t-44.5 10.5l-12 2l11 52h190zM507 205q-8 -40 -14.5 -65.5t-9.5 -40t-3 -21.5q0 -10 6 -15t18 -5q25 0 49.5 4.5t42.5 6.5l-11 -58 q-14 -3 -31 -6.5t-34.5 -5.5t-37.5 -2q-34 0 -54 17.5t-20 50.5q0 8 1 21.5t3 31.5t4 39l-9 -5l82 385h88z" glyph-name="uinvertedbreve" horiz-adv-x="642" unicode="ȗ"/><glyph d="M317 -17q-49 0 -91 11t-74 33.5t-53 57t-31 82.5q2 5 8.5 7t13.5 -0.5t8 -12.5l-45 -166h-66l52 237h69q3 -45 17.5 -80.5t41 -59.5t64.5 -36t87 -12q52 0 86.5 17.5t52 48t17.5 71.5q0 35 -15.5 59t-41.5 41t-57.5 30.5t-64.5 27.5q-47 21 -87 44t-64 58.5t-24 92.5 q0 60 29 103.5t80 67t118 23.5q55 0 95.5 -17t65.5 -52.5t33 -91.5q-2 -6 -8.5 -6.5t-12 4t-6.5 12.5l41 137h62l-44 -204h-67q-3 53 -23 88t-54.5 52.5t-82.5 17.5q-46 0 -77.5 -15.5t-48 -42.5t-16.5 -64q0 -33 13 -54t35 -35.5t52 -27t64 -27.5q35 -15 70 -32.5t63 -41 t45 -56.5t17 -79q0 -48 -18.5 -87t-51 -66.5t-77.5 -42t-99 -14.5zM191 -325l-36 46q36 10 62.5 22t43.5 29.5t23 41.5q1 4 5 6t7.5 1t4.5 -7q-3 -5 -12 -9t-20 -4q-33 0 -51.5 14t-18.5 39q0 23 17 39.5t51 16.5q37 0 54.5 -17.5t17.5 -47.5q0 -37 -16 -69t-48.5 -57.5 t-83.5 -43.5z" glyph-name="Scommaaccent" horiz-adv-x="644" unicode="Ș"/><glyph d="M232 -11q-51 0 -93.5 9t-74 24.5t-52.5 33.5l25 124h90l-29 -140q-18 8 -24 17.5t-4 21t8 25.5q13 -17 37 -29.5t55.5 -19.5t65.5 -7q35 0 62 9.5t43 29.5t16 51q0 20 -10 35t-28 26.5t-40 21.5t-45 20q-35 17 -67.5 36t-53 47t-20.5 71q0 45 23 79.5t67.5 53.5t110.5 19 q42 0 77.5 -8t61.5 -20t37 -26l-22 -114h-88l22 110q9 -1 18.5 -8t15 -19t2.5 -29q-11 18 -29.5 30t-43 18.5t-56.5 6.5q-60 0 -86.5 -22.5t-26.5 -57.5q0 -25 16.5 -43t44 -31.5t58.5 -28.5q36 -16 69.5 -35t55.5 -47t22 -72q0 -51 -27 -87.5t-74 -55.5t-109 -19zM134 -325 l-36 46q36 10 62.5 22t43.5 29.5t23 41.5q1 4 5 6t7.5 1t4.5 -7q-3 -5 -12 -9t-20 -4q-33 0 -51.5 14t-18.5 39q0 23 17 39.5t51 16.5q37 0 54.5 -17.5t17.5 -47.5q0 -37 -16 -69t-48.5 -57.5t-83.5 -43.5z" glyph-name="scommaaccent" horiz-adv-x="503" unicode="ș"/><glyph d="M247 90l119 560h-57q-47 0 -75 -4.5t-42.5 -15t-20.5 -28.5l-37 -111h-61l48 219h609l-48 -219h-60l15 111q2 18 -9 28.5t-38 15t-73 4.5h-58l-119 -559q-5 -22 19 -29t61 -7h18l-13 -55h-304l13 55h18q37 0 63.5 7t31.5 28zM183 -325l-36 46q36 10 62.5 22t43.5 29.5 t23 41.5q1 4 5 6t7.5 1t4.5 -7q-3 -5 -12 -9t-20 -4q-33 0 -51.5 14t-18.5 39q0 23 17 39.5t51 16.5q37 0 54.5 -17.5t17.5 -47.5q0 -37 -16 -69t-48.5 -57.5t-83.5 -43.5z" glyph-name="Tcommaaccent" horiz-adv-x="697" unicode="Ț"/><glyph d="M214 -5q-44 0 -72 11t-41.5 33.5t-13.5 58.5q0 16 3 36t7.5 42t8.5 42l62 304l49 15h201l-13 -60h-353l12 55h11q33 0 57 5t39.5 19.5t21.5 42.5l19 91h80l-106 -504q-2 -13 -5 -28t-4.5 -28.5t-1.5 -23.5q0 -26 12.5 -36t38.5 -10q13 0 33.5 2t42 4.5t35.5 3.5l-13 -64 q-22 -4 -50.5 -7.5t-59.5 -3.5zM48 -325l-36 46q36 10 62.5 22t43.5 29.5t23 41.5q1 4 5 6t7.5 1t4.5 -7q-3 -5 -12 -9t-20 -4q-33 0 -51.5 14t-18.5 39q0 23 17 39.5t51 16.5q37 0 54.5 -17.5t17.5 -47.5q0 -37 -16 -69t-48.5 -57.5t-83.5 -43.5z" glyph-name="tcommaaccent" horiz-adv-x="416" unicode="ț"/><glyph d="M362 -17q-76 0 -134.5 24.5t-98 68t-60 101t-20.5 123.5q0 63 16.5 125t49 116.5t79.5 96.5t109.5 66t138.5 24t134.5 -24.5t98 -68t60 -101.5t20.5 -123q0 -64 -16.5 -126t-49 -116.5t-79.5 -96t-109.5 -65.5t-138.5 -24zM439 666q-47 0 -87.5 -13.5t-73 -40t-58 -66 t-42.5 -91.5q-11 -26 -17.5 -54t-9.5 -56.5t-3 -56.5q0 -53 13 -97.5t39.5 -77.5t67.5 -50.5t97 -17.5q47 0 87.5 13t73 39.5t58 66t42.5 91.5q11 28 17.5 55.5t9.5 55.5t3 56q0 54 -13 98t-39.5 77t-67.5 51t-97 18zM353 791q-28 0 -46.5 16t-18.5 47q0 32 18.5 48t46.5 16 t46.5 -16t18.5 -48q0 -31 -18.5 -47t-46.5 -16zM592 791q-28 0 -46.5 16t-18.5 47q0 32 18.5 48t46.5 16t46.5 -16t18.5 -48q0 -31 -18.5 -47t-46.5 -16zM340 1039h325l-15 -68h-325z" glyph-name="Odieresismacron" horiz-adv-x="802" unicode="Ȫ"/><glyph d="M450 188q9 23 14 47t7.5 49t2.5 50q0 48 -15.5 82t-46.5 52t-78 18q-33 0 -59.5 -10.5t-47 -29.5t-36.5 -44.5t-27 -54.5q-8 -23 -13.5 -47.5t-8 -49.5t-2.5 -49q0 -49 15.5 -83t46.5 -52t78 -18q33 0 59.5 11t47 29.5t36.5 44t27 55.5zM46 212q0 55 13.5 105t39 92 t61.5 73t81 48t98 17q69 0 120.5 -27.5t80 -78.5t28.5 -120q0 -55 -13.5 -104.5t-39 -91.5t-61.5 -72.5t-81 -47.5t-98 -17q-69 0 -120.5 27.5t-80 78t-28.5 118.5zM236 645q28 0 46.5 16t18.5 47q0 32 -18.5 48t-46.5 16t-46.5 -16t-18.5 -48q0 -31 18.5 -47t46.5 -16z M480 645q28 0 46.5 16t18.5 47q0 32 -18.5 48t-46.5 16t-46.5 -16t-18.5 -48q0 -31 18.5 -47t46.5 -16zM232 917h325l-15 -68h-325z" glyph-name="odieresismacron" horiz-adv-x="614" unicode="ȫ"/><glyph d="M362 -17q-76 0 -134.5 24.5t-98 68t-60 101t-20.5 123.5q0 63 16.5 125t49 116.5t79.5 96.5t109.5 66t138.5 24t134.5 -24.5t98 -68t60 -101.5t20.5 -123q0 -64 -16.5 -126t-49 -116.5t-79.5 -96t-109.5 -65.5t-138.5 -24zM439 666q-47 0 -87.5 -13.5t-73 -40t-58 -66 t-42.5 -91.5q-11 -26 -17.5 -54t-9.5 -56.5t-3 -56.5q0 -53 13 -97.5t39.5 -77.5t67.5 -50.5t97 -17.5q47 0 87.5 13t73 39.5t58 66t42.5 91.5q11 28 17.5 55.5t9.5 55.5t3 56q0 54 -13 98t-39.5 77t-67.5 51t-97 18zM528 777q-25 0 -43 8.5t-30.5 21t-23 24.5t-21 20.5 t-23.5 8.5q-21 0 -33.5 -19.5t-26.5 -66.5l-52 19q15 51 31 81.5t38 43t53 12.5q24 0 41.5 -8t29.5 -20t22.5 -24.5t21.5 -20.5t26 -8t25 9.5t19 28.5t20 48l51 -20q-15 -52 -33 -82t-40 -43t-52 -13zM339 1062h325l-15 -68h-325z" glyph-name="Otildemacron" horiz-adv-x="802" unicode="Ȭ"/></font>
</defs>
</svg>
