<svg xmlns="http://www.w3.org/2000/svg" xmlns:xlink="http://www.w3.org/1999/xlink" width="512" height="444">
  <g id="g">
    <g id="f">
      <g id="e">
        <g id="d">
          <g id="c">
            <g id="b">
              <path id="a" fill="none" stroke="#eee" stroke-width=".3" d="M254 3.464h4l-.5-.866-.5.866-.5-.866-.5.866-.5-.866-.5.866-.5-.866zm.5-.866h1m1 0h1l-.5-.866-.5.866m-1 0-.5-.866-.5.866m.5-.866h2l-.5-.866-.5.866-.5-.866zm.5-.866h1L256 0z"/>
              <use xlink:href="#a" x="-2" y="3.464"/>
              <use xlink:href="#a" x="2" y="3.464"/>
            </g>
            <use xlink:href="#b" x="-4" y="6.928"/>
            <use xlink:href="#b" x="4" y="6.928"/>
          </g>
          <use xlink:href="#c" x="-8" y="13.846"/>
          <use xlink:href="#c" x="8" y="13.846"/>
        </g>
        <use xlink:href="#d" x="-16" y="27.713"/>
        <use xlink:href="#d" x="16" y="27.713"/>
      </g>
      <use xlink:href="#e" x="-32" y="55.426"/>
      <use xlink:href="#e" x="32" y="55.426"/>
    </g>
    <use xlink:href="#f" x="-64" y="110.85"/>
    <use xlink:href="#f" x="64" y="110.85"/>
  </g>
  <use xlink:href="#g" x="-128" y="221.7"/>
  <use xlink:href="#g" x="128" y="221.7"/>
</svg>
