<svg xmlns="http://www.w3.org/2000/svg" xmlns:xlink="http://www.w3.org/1999/xlink" width="512" height="444"><g id="g"><g id="f"><g id="e"><g id="d"><g id="c"><g id="b"><path id="a" fill="none" stroke="#eee" stroke-width=".3" d="M254 3.464h4l-.5-.866-.5.866-.5-.866-.5.866-.5-.866-.5.866-.5-.866zm.5-.866h1m1 0h1l-.5-.866-.5.866m-1 0-.5-.866-.5.866m.5-.866h2l-.5-.866-.5.866-.5-.866zm.5-.866h1L256 0z"/><use x="-2" y="3.464" xlink:href="#a"/><use x="2" y="3.464" xlink:href="#a"/></g><use x="-4" y="6.928" xlink:href="#b"/><use x="4" y="6.928" xlink:href="#b"/></g><use x="-8" y="13.846" xlink:href="#c"/><use x="8" y="13.846" xlink:href="#c"/></g><use x="-16" y="27.713" xlink:href="#d"/><use x="16" y="27.713" xlink:href="#d"/></g><use x="-32" y="55.426" xlink:href="#e"/><use x="32" y="55.426" xlink:href="#e"/></g><use x="-64" y="110.85" xlink:href="#f"/><use x="64" y="110.85" xlink:href="#f"/></g><use x="-128" y="221.7" xlink:href="#g"/><use x="128" y="221.7" xlink:href="#g"/></svg>