<svg xmlns="http://www.w3.org/2000/svg" xmlns:xlink="http://www.w3.org/1999/xlink" width="800" height="400" version="1.2" viewBox="0 0 600 300">
  <defs>
    <path id="a" d="m181.898 227.367 264.48 23.246-5.12 58.274-264.48-23.242Zm0 0"/>
    <path id="b" d="m176.742 286.008 264.48 23.242 5.126-58.277-264.485-23.243Zm0 0"/>
    <path id="c" d="m176.742 286.008 264.598 23.25 5.09-57.914-264.598-23.254Zm0 0"/>
    <path id="d" d="m163.648 207.504 215.7-105.23 23.347 47.859-215.699 105.23Zm0 0"/>
    <path id="e" d="m186.984 255.34 215.703-105.227-23.347-47.86L163.637 207.48Zm0 0"/>
    <path id="f" d="m186.984 255.34 215.703-105.227-23.359-47.883-215.7 105.23Zm0 0"/>
    <path id="g" d="M87.344 192.984 189.62 37.63l34.453 22.684-102.277 155.355Zm0 0"/>
    <path id="h" d="M87.344 192.984 189.69 37.52l34.477 22.695L121.816 215.68Zm0 0"/>
  </defs>
  <defs>
    <clipPath id="i">
      <path d="M178 263h244v33H178Zm0 0"/>
    </clipPath>
    <clipPath id="j">
      <use xlink:href="#a"/>
    </clipPath>
    <clipPath id="k">
      <use xlink:href="#b"/>
    </clipPath>
    <clipPath id="l">
      <use xlink:href="#c"/>
    </clipPath>
    <clipPath id="m">
      <path d="M401 248h45v44h-45Zm0 0"/>
    </clipPath>
    <clipPath id="n">
      <use xlink:href="#a"/>
    </clipPath>
    <clipPath id="o">
      <use xlink:href="#b"/>
    </clipPath>
    <clipPath id="p">
      <use xlink:href="#c"/>
    </clipPath>
    <clipPath id="q">
      <path d="M179 126h191v118H179Zm0 0"/>
    </clipPath>
    <clipPath id="r">
      <use xlink:href="#d"/>
    </clipPath>
    <clipPath id="s">
      <use xlink:href="#e"/>
    </clipPath>
    <clipPath id="t">
      <use xlink:href="#f"/>
    </clipPath>
    <clipPath id="u">
      <path d="M344 107h41v40h-41Zm0 0"/>
    </clipPath>
    <clipPath id="v">
      <use xlink:href="#d"/>
    </clipPath>
    <clipPath id="w">
      <use xlink:href="#e"/>
    </clipPath>
    <clipPath id="x">
      <use xlink:href="#f"/>
    </clipPath>
    <clipPath id="y">
      <path d="M96 65h109v136H96Zm0 0"/>
    </clipPath>
    <clipPath id="z">
      <use xlink:href="#g"/>
    </clipPath>
    <clipPath id="A">
      <use xlink:href="#g"/>
    </clipPath>
    <clipPath id="B">
      <use xlink:href="#h"/>
    </clipPath>
    <clipPath id="C">
      <path d="M189 55h32v30h-32Zm0 0"/>
    </clipPath>
    <clipPath id="D">
      <use xlink:href="#g"/>
    </clipPath>
    <clipPath id="E">
      <use xlink:href="#g"/>
    </clipPath>
    <clipPath id="F">
      <use xlink:href="#h"/>
    </clipPath>
    <symbol id="G" overflow="visible">
      <path stroke="none" d="M-1.875-16.75c1.012-.645 1.957-.969 2.844-.969a5.562 5.562 0 0 1 2.531.578l-.672-2.328 1.547-.984L11.641-9.11c.394.625.75 1.234 1.062 1.828.313.593.52 1.199.625 1.812a4.224 4.224 0 0 1-.094 1.89c-.168.65-.527 1.34-1.078 2.079a7.719 7.719 0 0 1-.937 1.016c-.356.336-.75.64-1.188.921a9.164 9.164 0 0 1-1.64.813 5.903 5.903 0 0 1-1.766.375 5.328 5.328 0 0 1-1.75-.172A3.992 3.992 0 0 1 3.281.61l1.75-1.937a2.5 2.5 0 0 0 .985.516c.343.074.68.09 1.015.046a3.61 3.61 0 0 0 .953-.25 5.31 5.31 0 0 0 .844-.421c.32-.208.594-.415.813-.625a14.7 14.7 0 0 0 .484-.5c.3-.376.516-.727.64-1.063.126-.344.165-.703.126-1.078a4.353 4.353 0 0 0-.329-1.188 9.905 9.905 0 0 0-.75-1.375L8.75-8.937a5.586 5.586 0 0 1-.547 2.562c-.375.793-1.07 1.512-2.078 2.156-.7.438-1.453.727-2.266.86a6.15 6.15 0 0 1-2.468-.125c-.825-.22-1.625-.618-2.407-1.204-.789-.582-1.507-1.382-2.156-2.406-.644-1-1.066-1.976-1.265-2.937-.208-.969-.235-1.875-.079-2.719a6 6 0 0 1 .907-2.313 5.761 5.761 0 0 1 1.734-1.687Zm1 8.172c.914 1.45 1.945 2.351 3.094 2.703 1.144.355 2.242.2 3.297-.469a4.47 4.47 0 0 0 1.187-1.11c.332-.444.54-.952.625-1.515.082-.57.04-1.203-.125-1.89-.168-.688-.508-1.43-1.016-2.235-.5-.781-1.027-1.39-1.578-1.828-.554-.437-1.105-.726-1.656-.875a3.325 3.325 0 0 0-1.625-.062 4.297 4.297 0 0 0-1.516.609c-1.05.668-1.656 1.59-1.812 2.766-.164 1.18.21 2.48 1.125 3.906Zm0 0"/>
    </symbol>
    <symbol id="H" overflow="visible">
      <path stroke="none" d="m-10.078-11.125 1.172-1.422 2.219.969a5.422 5.422 0 0 1-.22-2.64c.137-.915.579-1.829 1.329-2.735a5.89 5.89 0 0 1 1.953-1.516 5.903 5.903 0 0 1 2.469-.625c.875-.031 1.789.133 2.75.485.968.355 1.926.93 2.875 1.718.937.782 1.66 1.618 2.172 2.5.52.875.843 1.75.968 2.625a6.08 6.08 0 0 1-.14 2.547 5.778 5.778 0 0 1-1.14 2.188c-.75.906-1.56 1.515-2.423 1.828a5.308 5.308 0 0 1-2.687.219l5.437 4.53-1.61 1.938ZM4.25-7.922c.813-.969 1.094-2.055.844-3.266-.25-1.218-1.063-2.394-2.438-3.53-1.367-1.145-2.664-1.727-3.906-1.75-1.238-.032-2.266.437-3.078 1.405-.813.993-1.094 2.094-.844 3.313.25 1.21 1.059 2.387 2.422 3.531C-1.375-7.082-.066-6.5 1.172-6.469c1.238.024 2.266-.46 3.078-1.453Zm0 0"/>
    </symbol>
    <symbol id="I" overflow="visible">
      <path stroke="none" d="M10.734-9.703c-.023-1.25-.32-2.203-.89-2.86-.574-.656-1.461-.957-2.656-.906-.887.043-1.606.281-2.157.719-.554.438-.89 1.023-1.015 1.75l-2.47-.594a5.001 5.001 0 0 1 2.032-2.765c1-.688 2.16-1.063 3.485-1.125 2.062-.094 3.582.32 4.562 1.234.977.918 1.52 2.422 1.625 4.516l.203 3.468c.082 1.262.192 2.336.328 3.22.133.886.285 1.671.453 2.358l-2.312.125-.688-2.03A4.912 4.912 0 0 1 9.422-.72c-.782.462-1.828.72-3.14.782a7.007 7.007 0 0 1-2-.187 4.97 4.97 0 0 1-1.673-.75 4.276 4.276 0 0 1-1.171-1.297c-.293-.52-.454-1.125-.485-1.812-.043-.875.16-1.618.61-2.235.445-.625 1.097-1.148 1.953-1.578.851-.437 1.89-.797 3.109-1.078a70.303 70.303 0 0 1 4.11-.828ZM3.75-4.172c.031.7.305 1.25.828 1.656.531.399 1.25.575 2.156.532a5.946 5.946 0 0 0 1.672-.297 3.895 3.895 0 0 0 1.422-.813c.414-.375.738-.863.969-1.469.238-.601.336-1.343.297-2.218l-.047-.922a69.67 69.67 0 0 0-3.078.547c-.907.187-1.68.422-2.313.703-.636.273-1.12.59-1.453.953-.336.367-.484.809-.453 1.328Zm0 0"/>
    </symbol>
    <symbol id="J" overflow="visible">
      <path stroke="none" d="M3.156-4.422c.145.438.348.813.61 1.125.27.305.582.547.937.735.363.18.75.304 1.156.374a5.12 5.12 0 0 0 1.22.079c.437-.02.862-.086 1.28-.204a3.825 3.825 0 0 0 1.094-.515c.32-.219.578-.469.766-.75a1.55 1.55 0 0 0 .265-.922c-.03-.688-.293-1.188-.78-1.5-.493-.313-1.09-.547-1.798-.703a22.793 22.793 0 0 0-2.281-.375 10.058 10.058 0 0 1-2.297-.531 4.61 4.61 0 0 1-1.812-1.188c-.493-.531-.762-1.285-.813-2.265-.031-.657.102-1.25.406-1.782.313-.539.723-1 1.235-1.375a5.922 5.922 0 0 1 1.781-.875 8.028 8.028 0 0 1 2.094-.375 7.503 7.503 0 0 1 3.36.578 4.53 4.53 0 0 1 2.374 2.188l-2.328.984c-.293-.594-.773-1.015-1.438-1.265a4.961 4.961 0 0 0-2.03-.344 5.105 5.105 0 0 0-1.11.187 3.559 3.559 0 0 0-.938.422c-.261.18-.476.399-.64.656-.156.25-.23.532-.219.844.031.606.285 1.04.766 1.297.488.262 1.082.461 1.78.594.708.137 1.47.258 2.282.36a8.62 8.62 0 0 1 2.281.577 4.96 4.96 0 0 1 1.829 1.266c.507.555.789 1.36.843 2.422a3.5 3.5 0 0 1-.437 1.906 4.539 4.539 0 0 1-1.297 1.453 6.565 6.565 0 0 1-1.89.953 8.594 8.594 0 0 1-4.157.282 7.82 7.82 0 0 1-1.828-.594 5.567 5.567 0 0 1-1.547-1.078A5.11 5.11 0 0 1 .781-3.406Zm0 0"/>
    </symbol>
    <symbol id="K" overflow="visible">
      <path stroke="none" d="M8.375-15.125c1.176 0 2.21.242 3.11.719a6.452 6.452 0 0 1 2.234 1.875c.594.773 1.023 1.664 1.297 2.672a9.226 9.226 0 0 1 .28 3.109H3.845c.039.938.21 1.727.515 2.36.313.624.692 1.124 1.141 1.5.457.367.941.632 1.453.796.52.156 1.016.235 1.484.235.833 0 1.536-.13 2.11-.391a3.347 3.347 0 0 0 1.36-1.078l2.437.719c-.543.875-1.313 1.59-2.313 2.14-1 .551-2.199.828-3.594.828C7.27.36 6.228.16 5.313-.234a6.72 6.72 0 0 1-2.297-1.657 7.12 7.12 0 0 1-1.407-2.453 9.712 9.712 0 0 1-.468-3.062c0-1.188.18-2.254.546-3.203.375-.946.883-1.754 1.532-2.422a6.663 6.663 0 0 1 2.297-1.547 7.441 7.441 0 0 1 2.859-.547Zm4.25 6.36c0-.52-.102-1.032-.297-1.532a4.015 4.015 0 0 0-.86-1.344 4.229 4.229 0 0 0-1.327-.953 4.215 4.215 0 0 0-1.766-.36c-.563 0-1.105.079-1.625.235a3.962 3.962 0 0 0-1.39.735c-.4.336-.731.765-1 1.296-.274.524-.434 1.165-.485 1.922Zm0 0"/>
    </symbol>
  </defs>
  <path fill="#3085ee" stroke="none" d="M431.734 30a41.476 41.476 0 0 0-8.082.797 40.369 40.369 0 0 0-3.941.988 40.922 40.922 0 0 0-7.5 3.105 41.37 41.37 0 0 0-17.004 17.005 40.922 40.922 0 0 0-3.105 7.5 41.207 41.207 0 0 0-1.785 12.023 41.456 41.456 0 0 0 .796 8.078 40.09 40.09 0 0 0 .989 3.942c.39 1.3.847 2.574 1.367 3.828a41.508 41.508 0 0 0 3.828 7.16 41.025 41.025 0 0 0 2.422 3.265 42.32 42.32 0 0 0 2.726 3.012 42.476 42.476 0 0 0 3.012 2.727 41.025 41.025 0 0 0 3.266 2.422 40.357 40.357 0 0 0 3.488 2.09 40.922 40.922 0 0 0 3.672 1.738c1.254.52 2.531.976 3.828 1.37a41.5 41.5 0 0 0 3.941.985 41.207 41.207 0 0 0 8.082.797 41.456 41.456 0 0 0 12.02-1.781 41.508 41.508 0 0 0 10.988-5.2 41.025 41.025 0 0 0 3.266-2.421 42.32 42.32 0 0 0 3.012-2.727 42.32 42.32 0 0 0 2.726-3.012 41.025 41.025 0 0 0 2.422-3.265 41.508 41.508 0 0 0 5.2-10.988c.39-1.297.722-2.61.984-3.942a41.207 41.207 0 0 0 .796-8.078 41.477 41.477 0 0 0-1.78-12.023 41.726 41.726 0 0 0-1.372-3.829 40.922 40.922 0 0 0-1.738-3.671 40.357 40.357 0 0 0-2.09-3.489 41.025 41.025 0 0 0-2.422-3.265 42.32 42.32 0 0 0-2.726-3.012 42.32 42.32 0 0 0-3.012-2.727 41.025 41.025 0 0 0-3.266-2.422 41.508 41.508 0 0 0-7.16-3.828 40.182 40.182 0 0 0-3.828-1.367 40.09 40.09 0 0 0-3.942-.988 41.207 41.207 0 0 0-8.078-.797Zm0 0"/>
  <g clip-path="url(#i)">
    <g clip-path="url(#j)">
      <g clip-path="url(#k)">
        <g clip-path="url(#l)">
          <path fill="#fff" stroke="none" d="M184.64 275.043c-5.34-1.996-7.327-4.914-5.937-8.203 1.387-3.266 4.418-3.985 9.559-2.031 16.148 6.117 32.765 10.562 49.777 13.656 45.363 8.23 90.61 7.863 135.59-1.953 13.176-2.867 25.973-7.457 38.941-11.29 4.297-1.265 7.203-.394 8.336 2.66 1.125 3.028-.43 5.735-4.558 7.4-3.391 1.374-6.871 2.581-10.356 3.718-50.234 16.254-101.605 19.25-143.449 14.117-33.504-4.5-56.04-9.91-77.902-18.074Zm0 0"/>
        </g>
      </g>
    </g>
  </g>
  <g clip-path="url(#m)">
    <g clip-path="url(#n)">
      <g clip-path="url(#o)">
        <g clip-path="url(#p)">
          <path fill="#fff" stroke="none" d="M416.559 284.426c1.703-2.746 3.695-5.344 5.73-7.88 3.332-4.163 6.816-8.226 11.07-13.339-3.328-.676-5.554-1.2-7.804-1.586-6.493-1.07-13.016-1.973-19.48-3.183-3.247-.614-4.923-2.93-4.7-5.61.234-2.867 2.723-5.133 6.18-4.613 10.328 1.55 20.691 3.015 30.836 5.367 7.347 1.7 9.289 6.957 4.847 13.023-5.988 8.172-12.738 15.793-19.281 23.56-1.68 1.98-4.031 2.23-6.297.831-2.086-1.285-2.652-4.062-1.101-6.57Zm0 0"/>
        </g>
      </g>
    </g>
  </g>
  <g clip-path="url(#q)">
    <g clip-path="url(#r)">
      <g clip-path="url(#s)">
        <g clip-path="url(#t)">
          <path fill="#fff" stroke="none" d="M187.93 243.043c-5.07.922-7.985-.441-8.461-3.676-.465-3.21 1.539-5.191 6.437-6.058 15.383-2.73 30.336-6.993 44.957-12.5 38.977-14.707 73.817-36.114 103.996-64.82 8.844-8.407 16.579-17.985 24.813-27.052 2.723-2.996 5.383-3.667 7.703-1.796 2.293 1.851 2.367 4.703-.043 7.941-1.977 2.66-4.098 5.234-6.262 7.754-31.207 36.219-69.543 62.555-104.34 78.047-28.046 12.101-48.035 18.37-68.8 22.16Zm0 0"/>
        </g>
      </g>
    </g>
  </g>
  <g clip-path="url(#u)">
    <g clip-path="url(#v)">
      <g clip-path="url(#w)">
        <g clip-path="url(#x)">
          <path fill="#fff" stroke="none" d="M371.805 142.168c.023-2.953.343-5.926.718-8.867.618-4.824 1.399-9.645 2.282-15.649-2.895 1.02-4.864 1.649-6.79 2.399-5.527 2.187-10.995 4.523-16.57 6.59-2.8 1.03-5.191-.008-6.285-2.215-1.164-2.364-.308-5.305 2.61-6.512 8.722-3.602 17.433-7.285 26.39-10.176 6.488-2.09 10.465 1.133 9.89 7.973-.78 9.215-2.413 18.355-3.816 27.512-.367 2.34-2.066 3.632-4.48 3.593-2.219-.035-3.969-1.953-3.95-4.648Zm0 0"/>
        </g>
      </g>
    </g>
  </g>
  <g clip-path="url(#y)">
    <g clip-path="url(#z)">
      <g clip-path="url(#A)">
        <g clip-path="url(#B)">
          <path fill="#fff" stroke="none" d="M96.89 193.473c-1.214 3.812-.456 6.187 1.985 6.87 2.422.677 4.14-.671 5.293-4.35 3.633-11.56 8.394-22.634 14.086-33.333 15.183-28.52 35.105-53.195 60.172-73.562 7.34-5.97 15.469-10.973 23.258-16.407 2.574-1.8 3.355-3.777 2.148-5.746-1.195-1.949-3.379-2.285-6.105-.754-2.243 1.258-4.434 2.637-6.586 4.051-30.942 20.418-54.996 47.293-70.371 72.52-12.09 20.37-18.899 35.12-23.88 50.71Zm0 0"/>
        </g>
      </g>
    </g>
  </g>
  <g clip-path="url(#C)">
    <g clip-path="url(#D)">
      <g clip-path="url(#E)">
        <g clip-path="url(#F)">
          <path fill="#fff" stroke="none" d="M192.723 62.05c2.273.278 4.59.325 6.886.325 3.77.004 7.555-.117 12.254-.207-1.074 2.125-1.75 3.578-2.52 4.984-2.23 4.035-4.57 8.012-6.714 12.09-1.07 2.055-.512 3.996 1.078 5.055 1.7 1.129 4.043.762 5.262-1.363 3.636-6.352 7.336-12.688 10.449-19.29 2.254-4.78.172-8.16-5.14-8.39-7.165-.313-14.348.039-21.524.215-1.836.047-3 1.23-3.207 3.09-.195 1.71 1.105 3.242 3.176 3.492Zm0 0"/>
        </g>
      </g>
    </g>
  </g>
  <path fill="#3085ee" stroke="none" d="M502.984 187.168a41.476 41.476 0 0 0-12.023 1.781 41.725 41.725 0 0 0-3.828 1.371 40.922 40.922 0 0 0-3.672 1.739c-1.2.636-2.36 1.336-3.488 2.09a41.025 41.025 0 0 0-3.266 2.421c-1.047.86-2.05 1.77-3.012 2.727a42.32 42.32 0 0 0-2.726 3.012 41.025 41.025 0 0 0-2.422 3.265 41.508 41.508 0 0 0-3.828 7.16 40.182 40.182 0 0 0-1.367 3.828 40.09 40.09 0 0 0-.989 3.942 41.207 41.207 0 0 0-.797 8.078 41.476 41.476 0 0 0 .797 8.082c.262 1.328.594 2.645.989 3.941a40.922 40.922 0 0 0 3.105 7.5 41.37 41.37 0 0 0 17.004 17.004 40.922 40.922 0 0 0 7.5 3.106c1.297.394 2.613.726 3.941.988a41.207 41.207 0 0 0 8.082.797 41.456 41.456 0 0 0 8.079-.797 40.09 40.09 0 0 0 3.94-.988 40.06 40.06 0 0 0 3.829-1.367 41.508 41.508 0 0 0 7.16-3.828 41.025 41.025 0 0 0 3.266-2.422 42.32 42.32 0 0 0 3.012-2.727 42.32 42.32 0 0 0 2.726-3.012 41.025 41.025 0 0 0 2.422-3.265 40.357 40.357 0 0 0 2.09-3.489 40.922 40.922 0 0 0 1.738-3.671c.52-1.254.977-2.532 1.371-3.829a41.5 41.5 0 0 0 .985-3.94 41.207 41.207 0 0 0 .796-8.083 41.457 41.457 0 0 0-1.78-12.02 41.508 41.508 0 0 0-5.2-10.988 41.025 41.025 0 0 0-2.422-3.265 42.32 42.32 0 0 0-2.726-3.012 42.32 42.32 0 0 0-3.012-2.727 41.025 41.025 0 0 0-3.266-2.422 41.508 41.508 0 0 0-10.988-5.2 41.207 41.207 0 0 0-3.942-.983 41.207 41.207 0 0 0-8.078-.797ZM270.09 10.5a41.476 41.476 0 0 0-8.082.797 40.369 40.369 0 0 0-3.942.988 40.922 40.922 0 0 0-7.5 3.105 41.37 41.37 0 0 0-17.004 17.005 40.922 40.922 0 0 0-3.105 7.5 41.52 41.52 0 0 0-1.586 7.96 41.476 41.476 0 0 0 .598 12.141c.265 1.332.594 2.645.988 3.941.39 1.301.848 2.575 1.367 3.829a41.508 41.508 0 0 0 3.828 7.16 41.025 41.025 0 0 0 2.422 3.265 42.32 42.32 0 0 0 2.727 3.012c.96.957 1.965 1.867 3.012 2.727a41.025 41.025 0 0 0 3.265 2.422 40.357 40.357 0 0 0 3.488 2.09 40.922 40.922 0 0 0 3.672 1.738c1.254.52 2.532.976 3.828 1.37a41.5 41.5 0 0 0 3.942.985 41.207 41.207 0 0 0 8.082.797 41.456 41.456 0 0 0 12.02-1.781 41.508 41.508 0 0 0 10.988-5.2 41.025 41.025 0 0 0 3.265-2.421 42.476 42.476 0 0 0 3.012-2.727 43.339 43.339 0 0 0 2.73-3.012 41.956 41.956 0 0 0 4.508-6.75 41.508 41.508 0 0 0 3.11-7.504c.39-1.296.722-2.609.984-3.94a41.207 41.207 0 0 0 .797-8.079 41.477 41.477 0 0 0-1.781-12.023 41.725 41.725 0 0 0-1.371-3.829 40.922 40.922 0 0 0-1.739-3.671 40.357 40.357 0 0 0-2.09-3.489 41.956 41.956 0 0 0-2.418-3.265 43.339 43.339 0 0 0-2.73-3.012 42.32 42.32 0 0 0-3.012-2.727 41.025 41.025 0 0 0-3.265-2.422 41.508 41.508 0 0 0-7.16-3.828 40.182 40.182 0 0 0-3.829-1.367 40.09 40.09 0 0 0-3.941-.988 41.207 41.207 0 0 0-8.078-.797ZM122.23 213.934a41.397 41.397 0 0 0-19.523 4.89 40.962 40.962 0 0 0-6.75 4.512 41.455 41.455 0 0 0-8.164 9.004 41.37 41.37 0 0 0-2.09 3.488 42.024 42.024 0 0 0-1.738 3.672 41.698 41.698 0 0 0-2.953 11.79 41.476 41.476 0 0 0 .597 12.14c.266 1.332.594 2.644.989 3.941a41.288 41.288 0 0 0 10.347 17.266 41.51 41.51 0 0 0 3.012 2.73 41.892 41.892 0 0 0 3.262 2.418 41.436 41.436 0 0 0 10.988 5.2 41.5 41.5 0 0 0 3.941.984 41.108 41.108 0 0 0 8.082.797 41.397 41.397 0 0 0 8.079-.797 41.578 41.578 0 0 0 3.945-.985 41.65 41.65 0 0 0 10.984-5.199 41.227 41.227 0 0 0 3.266-2.418 43.339 43.339 0 0 0 3.012-2.73 42.518 42.518 0 0 0 2.73-3.012 42.004 42.004 0 0 0 2.422-3.266 41.508 41.508 0 0 0 6.184-14.93 41.456 41.456 0 0 0-2.36-23.93 40.922 40.922 0 0 0-1.738-3.67 41.33 41.33 0 0 0-2.086-3.49 42.004 42.004 0 0 0-2.422-3.265 42.376 42.376 0 0 0-2.73-3.012 42.32 42.32 0 0 0-3.012-2.726 40.327 40.327 0 0 0-3.266-2.422 41.302 41.302 0 0 0-14.93-6.184 41.397 41.397 0 0 0-8.078-.797Zm0 0"/>
  <use xlink:href="#y" x="256.333" y="195.249" fill="#fff"/>
  <use xlink:href="#z" x="270.588" y="186.134" fill="#fff"/>
  <use xlink:href="#G" x="277.615" y="181.642" fill="#fff"/>
  <use xlink:href="#z" x="291.769" y="172.593" fill="#fff"/>
  <use xlink:href="#B" x="298.796" y="168.1" fill="#fff"/>
  <use xlink:href="#C" x="306.985" y="162.864" fill="#fff"/>
  <use xlink:href="#D" x="89.257" y="168.55" fill="#fff"/>
  <use xlink:href="#H" x="99.548" y="156.195" fill="#fff"/>
  <use xlink:href="#H" x="110.415" y="143.148" fill="#fff"/>
  <use xlink:href="#F" x="121.283" y="130.101" fill="#fff"/>
  <use xlink:href="#G" x="131.632" y="117.677" fill="#fff"/>
  <use xlink:href="#H" x="138.16" y="109.839" fill="#fff"/>
  <use xlink:href="#I" x="147.76" y="98.314" fill="#fff"/>
  <use xlink:href="#J" x="157.859" y="86.189" fill="#fff"/>
  <use xlink:href="#F" x="166.903" y="75.332" fill="#fff"/>
  <use xlink:href="#K" x="251.662" y="271.982" fill="#fff"/>
  <use xlink:href="#L" x="258.824" y="271.639" fill="#fff"/>
  <use xlink:href="#M" x="275.365" y="270.848" fill="#fff"/>
  <use xlink:href="#N" x="294.963" y="269.911" fill="#fff"/>
  <use xlink:href="#O" x="311.114" y="269.138" fill="#fff"/>
  <use xlink:href="#P" x="321.303" y="268.651" fill="#fff"/>
  <use xlink:href="#I" x="336.285" y="267.935" fill="#fff"/>
  <use xlink:href="#J" x="352.047" y="267.181" fill="#fff"/>
  <use xlink:href="#N" x="366.161" y="266.506" fill="#fff"/>
  <use xlink:href="#S" x="105.955" y="263.6" fill="#fff"/>
  <use xlink:href="#K" x="122.335" y="263.6" fill="#fff"/>
  <use xlink:href="#S" x="245.728" y="60.166" fill="#fff"/>
  <use xlink:href="#K" x="262.108" y="60.166" fill="#fff"/>
  <use xlink:href="#U" x="278.278" y="60.166" fill="#fff"/>
  <use xlink:href="#S" x="409.423" y="79.666" fill="#fff"/>
  <use xlink:href="#K" x="425.803" y="79.666" fill="#fff"/>
  <use xlink:href="#V" x="441.973" y="79.666" fill="#fff"/>
  <use xlink:href="#S" x="483.122" y="236.834" fill="#fff"/>
  <use xlink:href="#K" x="499.502" y="236.834" fill="#fff"/>
  <use xlink:href="#W" x="515.672" y="236.834" fill="#fff"/>
</svg>
