<svg xmlns="http://www.w3.org/2000/svg" xmlns:xlink="http://www.w3.org/1999/xlink" width="1200" height="800" version="1.2" viewBox="0 0 900 600">
  <defs>
    <path id="b" fill="#000" fill-opacity=".498" stroke="none" d="M0 0h900v600H0z"/>
  </defs>
  <defs>
    <clipPath id="e">
      <path d="M102 .762h91.52V92H102Zm0 0"/>
    </clipPath>
    <clipPath id="c">
      <path d="M0 0h194v195H0z"/>
    </clipPath>
    <clipPath id="l">
      <path d="M0 0h135v96H0z"/>
    </clipPath>
    <clipPath id="o">
      <path d="M83 0h91.719v92H83Zm0 0"/>
    </clipPath>
    <clipPath id="q">
      <path d="M.238 29H83v15H.238Zm0 0"/>
    </clipPath>
    <clipPath id="n">
      <path d="M0 0h175v127H0z"/>
    </clipPath>
    <clipPath id="r">
      <path d="M1 .398h91V92H1Zm0 0"/>
    </clipPath>
    <clipPath id="s">
      <path d="M39 94h13v59.762H39Zm0 0"/>
    </clipPath>
    <clipPath id="p">
      <path d="M0 0h161v154H0z"/>
    </clipPath>
    <symbol id="d" overflow="visible">
      <path stroke="none" d="M8.266-16.594c1.289 0 2.367.262 3.234.782a5.664 5.664 0 0 1 2.063 2.046V-22h2.78v15.844c0 .554.02 1.355.063 2.406.04 1.055.203 2.305.485 3.75h-2.594l-.735-2.469A5.67 5.67 0 0 1 11.5-.375c-.867.508-1.945.766-3.234.766a6.641 6.641 0 0 1-2.672-.563 6.381 6.381 0 0 1-2.235-1.672C2.723-2.57 2.211-3.46 1.83-4.516c-.388-1.05-.579-2.25-.579-3.593 0-1.332.191-2.524.578-3.579.383-1.062.895-1.953 1.531-2.671a6.29 6.29 0 0 1 2.235-1.657 6.53 6.53 0 0 1 2.672-.578ZM4.344-8.109c0 1.96.422 3.476 1.265 4.546.852 1.063 1.977 1.594 3.375 1.594 1.407 0 2.532-.531 3.375-1.593.852-1.07 1.282-2.586 1.282-4.547 0-1.946-.43-3.454-1.282-4.516-.843-1.07-1.968-1.61-3.375-1.61-1.398 0-2.523.54-3.375 1.61-.843 1.063-1.265 2.57-1.265 4.516Zm0 0"/>
    </symbol>
    <symbol id="f" overflow="visible">
      <path stroke="none" d="M1.094-6.14c0-1.508.195-2.985.593-4.423a14.92 14.92 0 0 1 1.829-4.109h1.64c-.73 1.043-1.32 2.309-1.765 3.797-.45 1.48-.672 3.07-.672 4.766 0 1.617.238 3.25.719 4.906C3.913.44 4.707 2.02 5.812 3.53H4.157A16.514 16.514 0 0 1 1.86-1.094a16.99 16.99 0 0 1-.765-5.047Zm0 0"/>
    </symbol>
    <symbol id="j" overflow="visible">
      <path stroke="none" d="M.75 0v-1.64a78.736 78.736 0 0 0 3.469-2.688c1.02-.832 1.879-1.625 2.578-2.375.707-.758 1.242-1.477 1.61-2.156.363-.676.546-1.336.546-1.985 0-.758-.242-1.375-.719-1.844-.468-.468-1.14-.703-2.015-.703-.356 0-.7.047-1.032.141a2.67 2.67 0 0 0-.89.422 2.961 2.961 0 0 0-1.156 1.89l-1.844-.515c.258-1.07.82-1.914 1.687-2.531.875-.625 1.961-.938 3.266-.938.676 0 1.3.086 1.875.25.57.168 1.063.418 1.469.75.406.324.722.727.953 1.203.238.469.36 1.012.36 1.625 0 .856-.212 1.688-.626 2.5-.418.805-.98 1.594-1.687 2.375-.7.782-1.512 1.547-2.438 2.297a93.227 93.227 0 0 1-2.922 2.235h8.079V0Zm0 0"/>
    </symbol>
    <symbol id="h" overflow="visible">
      <path stroke="none" d="M.828-1.156c0-.383.14-.711.422-.985a1.35 1.35 0 0 1 .984-.421c.395 0 .735.14 1.016.421.281.274.422.602.422.985 0 .168-.04.351-.11.547L2.188 2.92H.984L2.016.235a1.39 1.39 0 0 1-.844-.468 1.38 1.38 0 0 1-.344-.922Zm0 0"/>
    </symbol>
    <symbol id="i" overflow="visible">
      <path stroke="none" d="M1.313-7.36c0-2.456.488-4.331 1.468-5.624.989-1.29 2.43-1.938 4.328-1.938 1.907 0 3.348.649 4.329 1.938.976 1.293 1.468 3.168 1.468 5.625 0 2.48-.492 4.37-1.469 5.671C10.457-.383 9.017.266 7.11.266c-1.898 0-3.34-.649-4.328-1.954-.98-1.3-1.469-3.19-1.469-5.671Zm2 0c0 1.938.304 3.423.921 4.454.614 1.031 1.57 1.547 2.875 1.547 1.008 0 1.82-.329 2.438-.985L3.75-10.672a7.846 7.846 0 0 0-.344 1.516c-.062.543-.094 1.14-.094 1.797Zm1.453-5.062 5.765 8.25c.25-.875.375-1.937.375-3.187 0-1.914-.312-3.383-.937-4.407-.617-1.02-1.57-1.53-2.86-1.53-.949 0-1.73.292-2.343.874Zm0 0"/>
    </symbol>
    <symbol id="k" overflow="visible">
      <path stroke="none" d="M.766 3.531c1.113-1.511 1.91-3.094 2.39-4.75.489-1.656.735-3.289.735-4.906 0-1.688-.227-3.27-.672-4.75-.45-1.488-1.04-2.754-1.766-3.797h1.64a14.76 14.76 0 0 1 1.813 4.11c.383 1.437.578 2.902.578 4.39 0 1.73-.257 3.422-.765 5.078a16.014 16.014 0 0 1-2.266 4.625Zm0 0"/>
    </symbol>
    <symbol id="g" overflow="visible">
      <path stroke="none" d="m.922-3.313 1.828-.53c.156.78.5 1.405 1.031 1.874.54.469 1.281.703 2.219.703.957 0 1.75-.238 2.375-.718.625-.489.938-1.196.938-2.125 0-.696-.184-1.235-.547-1.61a3.045 3.045 0 0 0-1.282-.828 5.293 5.293 0 0 0-1.515-.297A20.19 20.19 0 0 0 4.78-6.89v-1.671a21 21 0 0 0 1.344-.047 4.99 4.99 0 0 0 1.344-.297c.414-.164.765-.41 1.047-.735.28-.332.421-.785.421-1.359a2.16 2.16 0 0 0-.234-1.031 2.238 2.238 0 0 0-.625-.75 2.735 2.735 0 0 0-.89-.453 3.904 3.904 0 0 0-1.11-.157c-.906 0-1.621.23-2.14.688-.524.45-.856 1.039-1 1.765l-1.797-.515c.257-1.063.812-1.906 1.656-2.531.851-.625 1.96-.938 3.328-.938.645 0 1.25.07 1.813.203.57.125 1.07.34 1.5.64.437.294.78.673 1.03 1.142.259.468.391 1.046.391 1.734 0 .75-.203 1.43-.609 2.031-.406.594-1 1.055-1.781 1.375.562.18 1.02.399 1.375.656.363.25.648.54.86.86.206.324.35.668.437 1.031.093.367.14.742.14 1.125 0 .75-.148 1.402-.437 1.953a4.098 4.098 0 0 1-1.172 1.36A5.544 5.544 0 0 1 7.984 0 7.542 7.542 0 0 1 5.97.266C5.227.266 4.57.176 4 0a4.8 4.8 0 0 1-1.484-.766 4.096 4.096 0 0 1-1-1.14 5.456 5.456 0 0 1-.594-1.407Zm0 0"/>
    </symbol>
    <symbol id="m" overflow="visible">
      <path stroke="none" d="M2.234-16.375H5v9.625c0 .637.035 1.242.11 1.813.081.574.242 1.074.484 1.5A2.7 2.7 0 0 0 6.64-2.423c.445.25 1.046.375 1.796.375 1.313 0 2.329-.445 3.047-1.344.727-.906 1.094-2.234 1.094-3.984v-9h2.766V0H13.28l-.703-2.375a6.018 6.018 0 0 1-1.875 1.984C9.91.13 8.836.391 7.484.391c-.949 0-1.761-.153-2.437-.454a4.208 4.208 0 0 1-1.625-1.296c-.418-.563-.719-1.235-.906-2.016a10.894 10.894 0 0 1-.282-2.547Zm0 0"/>
    </symbol>
    <mask id="u">
      <g filter="url(#a)">
        <use xlink:href="#b" fill-opacity=".498"/>
      </g>
    </mask>
    <mask id="w">
      <g filter="url(#a)">
        <use xlink:href="#b" fill-opacity=".498"/>
      </g>
    </mask>
    <mask id="y">
      <g filter="url(#a)">
        <use xlink:href="#b" fill-opacity=".498"/>
      </g>
    </mask>
    <mask id="A">
      <g filter="url(#a)">
        <use xlink:href="#b" fill-opacity=".498"/>
      </g>
    </mask>
    <g id="t" clip-path="url(#c)">
      <path fill="#fff" stroke="none" d="m111.637 81.754-8.438 1.613c-.562.121-.93.637-.828 1.223a1.06 1.06 0 0 0 1.227.836l5.109-.989L3.757 189.392l1.473 1.472L110.18 85.91l-.989 5.113c-.12.563.274 1.102.836 1.227a.987.987 0 0 0 .93-.293c.148-.144.246-.34.293-.535l1.637-8.465a1.087 1.087 0 0 0-.293-.93c-.246-.246-.59-.343-.957-.273Zm0 0"/>
      <use xlink:href="#d" x="65.385" y="159.356" fill="#fff"/>
      <g clip-path="url(#e)">
        <path fill="#3085ee" stroke="none" d="M147.898.781c-1.488 0-2.976.07-4.457.219a45.357 45.357 0 0 0-4.414.652 45.518 45.518 0 0 0-8.53 2.59 45.775 45.775 0 0 0-4.036 1.906 46.692 46.692 0 0 0-3.824 2.293 45.755 45.755 0 0 0-3.586 2.66 46.141 46.141 0 0 0-6.305 6.3 46.715 46.715 0 0 0-2.656 3.587 44.657 44.657 0 0 0-2.293 3.828 45.501 45.501 0 0 0-3.414 8.234 45.797 45.797 0 0 0-1.738 8.743 45.947 45.947 0 0 0-.22 4.457 45.368 45.368 0 0 0 .875 8.871 45.577 45.577 0 0 0 2.586 8.531 45.218 45.218 0 0 0 1.91 4.032c.7 1.316 1.466 2.59 2.294 3.828a46.715 46.715 0 0 0 2.656 3.586 44.52 44.52 0 0 0 3 3.304 43.623 43.623 0 0 0 3.305 2.996 45.755 45.755 0 0 0 3.586 2.66 45.81 45.81 0 0 0 7.86 4.203 43.91 43.91 0 0 0 4.202 1.5 44.24 44.24 0 0 0 4.328 1.087c1.461.289 2.93.507 4.414.656 1.48.144 2.97.219 4.457.219 1.489 0 2.973-.075 4.457-.22a46.785 46.785 0 0 0 4.415-.655c1.46-.29 2.902-.653 4.328-1.086 1.425-.43 2.824-.93 4.199-1.5a44.78 44.78 0 0 0 4.035-1.91 44.971 44.971 0 0 0 7.41-4.953A45.346 45.346 0 0 0 188 67.683a45.577 45.577 0 0 0 4.496-12.563c.29-1.46.508-2.93.652-4.414.149-1.48.22-2.969.22-4.457s-.071-2.973-.22-4.457a45.535 45.535 0 0 0-.652-4.414 45.502 45.502 0 0 0-2.59-8.527A44.748 44.748 0 0 0 188 24.816a46.762 46.762 0 0 0-2.293-3.828 45.755 45.755 0 0 0-2.66-3.586 45.321 45.321 0 0 0-6.305-6.3 44.971 44.971 0 0 0-7.41-4.954 44.747 44.747 0 0 0-4.035-1.906 45.501 45.501 0 0 0-8.527-2.59 45.534 45.534 0 0 0-8.872-.87Zm0 0"/>
      </g>
      <use xlink:href="#f" x="111.232" y="51.466" fill="#fff"/>
      <use xlink:href="#g" x="117.817" y="51.466" fill="#fff"/>
      <use xlink:href="#h" x="130.416" y="51.466" fill="#fff"/>
      <use xlink:href="#glyph2-4" x="134.916" y="51.466" fill="#fff"/>
      <use xlink:href="#i" x="141.062" y="51.466" fill="#fff"/>
      <use xlink:href="#h" x="155.285" y="51.466" fill="#fff"/>
      <use xlink:href="#glyph2-4" x="159.784" y="51.466" fill="#fff"/>
      <use xlink:href="#j" x="165.93" y="51.466" fill="#fff"/>
      <use xlink:href="#k" x="177.98" y="51.466" fill="#fff"/>
      <path fill="#fff" stroke="none" d="m94.078 51.184-7.441-4.188a1.056 1.056 0 0 0-1.422.383 1.03 1.03 0 0 0 .383 1.406l4.515 2.528-85.562 6.48.156 2.039 85.559-6.484-4.082 3.18c-.457.343-.512.995-.168 1.449.23.289.55.402.894.375.207-.016.406-.098.57-.215l6.762-5.258c.258-.227.41-.543.383-.883-.027-.34-.223-.633-.547-.812Zm0 0"/>
      <use xlink:href="#k" x="53.057" y="86.464" fill="#fff"/>
    </g>
    <g id="v" fill-opacity="1" clip-path="url(#l)">
      <path fill="#3085ee" stroke="none" d="M72.965-30.941c-1.492 0-2.977.074-4.457.218a44.203 44.203 0 0 0-4.414.657 44.582 44.582 0 0 0-4.332 1.082 45.916 45.916 0 0 0-8.235 3.41 45.727 45.727 0 0 0-10.718 7.949 46.233 46.233 0 0 0-2.996 3.309 44.925 44.925 0 0 0-2.657 3.582 44.657 44.657 0 0 0-2.293 3.828 45.29 45.29 0 0 0-4.496 12.562 44.373 44.373 0 0 0-.656 4.414 45.947 45.947 0 0 0-.219 4.457c0 1.493.074 2.977.219 4.457.144 1.485.363 2.953.656 4.414.29 1.461.653 2.907 1.082 4.332a45.29 45.29 0 0 0 3.414 8.234c.7 1.313 1.465 2.59 2.293 3.829a45.644 45.644 0 0 0 5.653 6.89 45.644 45.644 0 0 0 10.719 7.95 45.916 45.916 0 0 0 8.234 3.41 45.875 45.875 0 0 0 8.746 1.738 45.673 45.673 0 0 0 8.914 0 46.098 46.098 0 0 0 8.742-1.738 45.29 45.29 0 0 0 8.234-3.414c1.313-.7 2.59-1.465 3.829-2.293a44.925 44.925 0 0 0 3.582-2.656 46.233 46.233 0 0 0 3.308-2.996 46.233 46.233 0 0 0 2.996-3.309 45.727 45.727 0 0 0 4.953-7.41 45.915 45.915 0 0 0 3.41-8.234 44.708 44.708 0 0 0 1.083-4.333c.293-1.46.511-2.93.656-4.414.144-1.48.219-2.964.219-4.457 0-1.488-.075-2.972-.22-4.457a44.373 44.373 0 0 0-.655-4.414 44.918 44.918 0 0 0-2.586-8.527 46.37 46.37 0 0 0-1.907-4.035 45.727 45.727 0 0 0-7.949-10.719 46.233 46.233 0 0 0-3.308-2.996 45.727 45.727 0 0 0-7.41-4.953 45.916 45.916 0 0 0-8.234-3.41 44.917 44.917 0 0 0-4.33-1.082 44.373 44.373 0 0 0-4.413-.657 45.947 45.947 0 0 0-4.457-.218Zm0 0"/>
      <use xlink:href="#f" x="39.27" y="19.744" fill="#fff"/>
      <use xlink:href="#j" x="45.855" y="19.744" fill="#fff"/>
      <use xlink:href="#h" x="57.905" y="19.744" fill="#fff"/>
      <use xlink:href="#glyph2-4" x="62.405" y="19.744" fill="#fff"/>
      <use xlink:href="#m" x="68.551" y="19.744" fill="#fff"/>
      <use xlink:href="#h" x="77.374" y="19.744" fill="#fff"/>
      <use xlink:href="#glyph2-4" x="81.874" y="19.744" fill="#fff"/>
      <use xlink:href="#j" x="88.02" y="19.744" fill="#fff"/>
      <use xlink:href="#k" x="100.07" y="19.744" fill="#fff"/>
      <path fill="#fff" stroke="none" d="m44.648 52.984-8.355 1.961a1.052 1.052 0 0 0-.781 1.254c.148.559.675.903 1.258.785l5.062-1.199-31.246 33.883 1.527 1.41L43.36 57.191l-.785 5.145c-.097.566.317 1.086.883 1.187a.99.99 0 0 0 .914-.328c.14-.152.23-.351.27-.55l1.304-8.512a1.102 1.102 0 0 0-.332-.918c-.258-.235-.601-.317-.965-.23Zm0 0"/>
      <use xlink:href="#d" x=".945" y="64.16" fill="#fff"/>
      <path fill="#fff" stroke="none" d="m103.496 52.313-.25 8.562a1.052 1.052 0 0 0 1.004 1.078 1.044 1.044 0 0 0 1.074-1.004l.14-5.187 23.306 36.922 1.746-1.102L107.21 54.66l4.746 2.106c.52.242 1.125-.02 1.367-.54.153-.34.102-.675-.082-.968a1.135 1.135 0 0 0-.457-.403l-7.855-3.488a1.065 1.065 0 0 0-.965.078c-.293.184-.461.496-.469.867Zm0 0"/>
      <use xlink:href="#m" x="89.398" y="85.733" fill="#fff"/>
    </g>
    <g id="x" clip-path="url(#n)">
      <g clip-path="url(#o)">
        <path fill="#3085ee" stroke="none" d="M129.082.64c-1.488 0-2.977.07-4.457.22-1.48.144-2.953.363-4.414.652a45.817 45.817 0 0 0-8.531 2.59 45.185 45.185 0 0 0-4.032 1.906A46.111 46.111 0 0 0 103.82 8.3a45.263 45.263 0 0 0-6.89 5.656 46.086 46.086 0 0 0-2.996 3.305 45.755 45.755 0 0 0-2.66 3.586 45.685 45.685 0 0 0-4.204 7.859 45.964 45.964 0 0 0-2.586 8.531 46.785 46.785 0 0 0-.656 4.414 45.947 45.947 0 0 0-.219 4.457 45.72 45.72 0 0 0 .875 8.871 45.13 45.13 0 0 0 1.086 4.329 45.55 45.55 0 0 0 1.5 4.203 45.218 45.218 0 0 0 1.91 4.031 45.064 45.064 0 0 0 4.954 7.414 44.468 44.468 0 0 0 2.996 3.305 44.388 44.388 0 0 0 3.304 2.996 45.064 45.064 0 0 0 7.414 4.953 44.824 44.824 0 0 0 8.234 3.41 44.65 44.65 0 0 0 4.329 1.086c1.46.29 2.934.508 4.414.656 1.48.145 2.969.219 4.457.219s2.977-.074 4.457-.219a46.785 46.785 0 0 0 4.414-.656 44.65 44.65 0 0 0 4.328-1.086 44.824 44.824 0 0 0 8.235-3.41 45.064 45.064 0 0 0 7.414-4.953 44.388 44.388 0 0 0 3.304-2.996 44.468 44.468 0 0 0 2.996-3.305 45.064 45.064 0 0 0 4.953-7.414 44.124 44.124 0 0 0 1.907-4.031 45.817 45.817 0 0 0 2.59-8.531c.289-1.461.507-2.93.652-4.415a44.687 44.687 0 0 0 0-8.914 45.535 45.535 0 0 0-.652-4.414 45.817 45.817 0 0 0-2.59-8.531 45.685 45.685 0 0 0-4.2-7.86 45.755 45.755 0 0 0-2.66-3.585 46.086 46.086 0 0 0-2.996-3.305 45.263 45.263 0 0 0-6.89-5.656 46.111 46.111 0 0 0-3.828-2.293 45.185 45.185 0 0 0-4.032-1.906 45.817 45.817 0 0 0-8.531-2.59 45.534 45.534 0 0 0-8.871-.871Zm0 0"/>
      </g>
      <use xlink:href="#f" x="93.588" y="51.325" fill="#fff"/>
      <use xlink:href="#p" x="100.172" y="51.325" fill="#fff"/>
      <use xlink:href="#h" x="113.649" y="51.325" fill="#fff"/>
      <use xlink:href="#glyph2-4" x="118.149" y="51.325" fill="#fff"/>
      <use xlink:href="#i" x="124.295" y="51.325" fill="#fff"/>
      <use xlink:href="#h" x="138.518" y="51.325" fill="#fff"/>
      <use xlink:href="#glyph2-4" x="143.018" y="51.325" fill="#fff"/>
      <use xlink:href="#m" x="149.163" y="51.325" fill="#fff"/>
      <use xlink:href="#k" x="157.987" y="51.325" fill="#fff"/>
      <g clip-path="url(#q)">
        <path fill="#fff" stroke="none" d="m82.59 38.02-6.582-5.485a1.05 1.05 0 0 0-1.469.125 1.048 1.048 0 0 0 .129 1.465l3.992 3.316L1 29.465.79 31.52l77.66 7.976-4.583 2.438c-.515.257-.683.898-.426 1.406.176.332.473.5.813.535.207.02.422-.027.601-.113l7.594-4.028c.293-.175.496-.468.531-.808.036-.344-.101-.668-.39-.906Zm0 0"/>
      </g>
      <use xlink:href="#k" x="30.565" y="26.426" fill="#fff"/>
      <path fill="#fff" stroke="none" d="m103.36 92.707-8.176 2.586a1.049 1.049 0 0 0-.684 1.305c.184.543.734.847 1.305.683l4.953-1.574-20.973 26.414 1.621 1.285 20.969-26.414-.41 5.18c-.059.574.39 1.062.96 1.117a.994.994 0 0 0 .891-.394c.125-.165.204-.368.227-.567l.687-8.574c.008-.348-.125-.676-.398-.887-.27-.215-.617-.273-.973-.16Zm0 0"/>
      <use xlink:href="#d" x="64.803" y="101.621" fill="#fff"/>
    </g>
    <g id="z" clip-path="url(#p)">
      <g clip-path="url(#r)">
        <path fill="#3085ee" stroke="none" d="M46.52.527c-1.493 0-2.977.075-4.458.22a46.596 46.596 0 0 0-4.414.655c-1.46.29-2.906.653-4.328 1.086a44.71 44.71 0 0 0-4.203 1.504 44.689 44.689 0 0 0-4.035 1.906 45.617 45.617 0 0 0-7.41 4.954 44.468 44.468 0 0 0-3.305 2.996 45.316 45.316 0 0 0-3 3.304 46.715 46.715 0 0 0-2.656 3.586 44.063 44.063 0 0 0-2.293 3.828A45.218 45.218 0 0 0 1.922 37.13 45.547 45.547 0 0 0 1.047 46a45.547 45.547 0 0 0 .875 8.871 45.692 45.692 0 0 0 1.082 4.328 45.218 45.218 0 0 0 3.414 8.234c.7 1.317 1.465 2.59 2.293 3.829a46.715 46.715 0 0 0 2.656 3.586 45.316 45.316 0 0 0 3 3.304 44.468 44.468 0 0 0 3.305 2.996 45.617 45.617 0 0 0 7.41 4.953c1.316.704 2.66 1.34 4.035 1.907a44.457 44.457 0 0 0 4.203 1.504c1.422.433 2.867.797 4.328 1.086 1.461.289 2.93.507 4.414.656a46.01 46.01 0 0 0 4.458.219c1.488 0 2.972-.075 4.457-.22a46.785 46.785 0 0 0 4.414-.655c1.46-.29 2.902-.653 4.328-1.086a44.384 44.384 0 0 0 4.199-1.504 43.709 43.709 0 0 0 4.035-1.906 44.971 44.971 0 0 0 7.41-4.953 45.321 45.321 0 0 0 8.961-9.887 45.104 45.104 0 0 0 4.203-7.86 45.817 45.817 0 0 0 2.59-8.531A45.535 45.535 0 0 0 91.988 46a45.535 45.535 0 0 0-.871-8.871 45.817 45.817 0 0 0-2.59-8.531 45.104 45.104 0 0 0-4.203-7.86 44.742 44.742 0 0 0-2.656-3.586 45.321 45.321 0 0 0-6.305-6.3 44.971 44.971 0 0 0-7.41-4.954 43.709 43.709 0 0 0-4.035-1.906 44.384 44.384 0 0 0-4.2-1.504 44.651 44.651 0 0 0-4.327-1.086 46.785 46.785 0 0 0-4.414-.656A45.947 45.947 0 0 0 46.52.527Zm0 0"/>
      </g>
      <use xlink:href="#f" x="9.853" y="51.215" fill="#fff"/>
      <use xlink:href="#g" x="16.438" y="51.215" fill="#fff"/>
      <use xlink:href="#h" x="29.037" y="51.215" fill="#fff"/>
      <use xlink:href="#glyph2-4" x="33.537" y="51.215" fill="#fff"/>
      <use xlink:href="#j" x="39.682" y="51.215" fill="#fff"/>
      <use xlink:href="#h" x="51.733" y="51.215" fill="#fff"/>
      <use xlink:href="#glyph2-4" x="56.232" y="51.215" fill="#fff"/>
      <use xlink:href="#i" x="62.378" y="51.215" fill="#fff"/>
      <use xlink:href="#k" x="76.601" y="51.215" fill="#fff"/>
      <g clip-path="url(#s)">
        <path fill="#fff" stroke="none" d="m44.914 95.031-4.805 7.106a1.052 1.052 0 0 0 .278 1.449 1.058 1.058 0 0 0 1.453-.277L44.742 99v54.535h2.074V99l2.903 4.309c.308.484.965.586 1.449.277a.989.989 0 0 0 .45-.863 1.14 1.14 0 0 0-.173-.586l-4.804-7.14a1.084 1.084 0 0 0-.864-.45c-.343 0-.656.176-.863.484Zm0 0"/>
      </g>
      <use xlink:href="#m" x="21.801" y="135.482" fill="#fff"/>
      <path fill="#fff" stroke="none" d="m94.844 54.488 5.496 6.598c.375.434 1 .508 1.469.137.43-.383.504-1.012.136-1.477l-3.336-3.992 60.254 17.371.575-1.996-60.25-17.375 4.949-1.606c.55-.164.832-.77.668-1.32a.983.983 0 0 0-.703-.672c-.2-.058-.418-.05-.614.004l-8.195 2.653a1.082 1.082 0 0 0-.672.707c-.094.332-.016.68.223.968Zm0 0"/>
      <use xlink:href="#k" x="118.611" y="55.613" fill="#fff"/>
    </g>
    <filter id="a" width="100%" height="100%" x="0%" y="0%" filterUnits="objectBoundingBox">
      <feColorMatrix in="SourceGraphic" values="0 0 0 0 1 0 0 0 0 1 0 0 0 0 1 0 0 0 1 0"/>
    </filter>
  </defs>
  <path fill="#3085ee" stroke="none" d="M468.488 225.168a45.75 45.75 0 0 0-4.457.219 45.797 45.797 0 0 0-8.742 1.738 45.219 45.219 0 0 0-8.234 3.414 45.708 45.708 0 0 0-7.414 4.95 45.346 45.346 0 0 0-6.301 6.304 45.69 45.69 0 0 0-2.66 3.582 45.685 45.685 0 0 0-4.203 7.863 44.75 44.75 0 0 0-1.5 4.2 44.727 44.727 0 0 0-1.086 4.332 46.45 46.45 0 0 0-.657 4.414 45.826 45.826 0 0 0-.218 4.457c0 1.488.074 2.972.218 4.457.149 1.48.368 2.953.657 4.414a44.816 44.816 0 0 0 1.086 4.328 45.29 45.29 0 0 0 3.41 8.234 44.97 44.97 0 0 0 4.953 7.41 45.346 45.346 0 0 0 13.715 11.258 45.577 45.577 0 0 0 8.234 3.41c1.426.434 2.867.793 4.328 1.082a44.35 44.35 0 0 0 4.414.657 46.05 46.05 0 0 0 4.457.218c1.489 0 2.973-.074 4.457-.218a44.372 44.372 0 0 0 4.414-.657 44.524 44.524 0 0 0 4.329-1.082 45.991 45.991 0 0 0 4.203-1.504 46.297 46.297 0 0 0 4.03-1.906 45.727 45.727 0 0 0 10.72-7.949 45.321 45.321 0 0 0 2.996-3.309 44.971 44.971 0 0 0 4.953-7.41 45.256 45.256 0 0 0 1.906-4.035 44.778 44.778 0 0 0 1.504-4.2 46.119 46.119 0 0 0 1.086-4.327 45.535 45.535 0 0 0 .871-8.871c0-1.493-.07-2.977-.219-4.457a45.357 45.357 0 0 0-1.738-8.747 44.778 44.778 0 0 0-1.504-4.199 45.256 45.256 0 0 0-6.86-11.445 45.321 45.321 0 0 0-13.714-11.254 45.219 45.219 0 0 0-12.563-4.496 44.372 44.372 0 0 0-4.414-.656 45.947 45.947 0 0 0-4.457-.219Zm71.477 172.555c-1.492 0-2.977.074-4.457.218a44.204 44.204 0 0 0-4.414.657 44.51 44.51 0 0 0-4.332 1.082 45.915 45.915 0 0 0-8.235 3.41 45.727 45.727 0 0 0-10.718 7.95 46.233 46.233 0 0 0-2.997 3.308 44.925 44.925 0 0 0-2.656 3.582 44.657 44.657 0 0 0-2.293 3.828 45.29 45.29 0 0 0-4.496 12.562 44.373 44.373 0 0 0-.656 4.414 45.947 45.947 0 0 0-.219 4.457c0 1.493.074 2.977.219 4.457.144 1.485.363 2.954.656 4.414a46.41 46.41 0 0 0 1.082 4.333 45.29 45.29 0 0 0 3.414 8.234c.7 1.312 1.465 2.59 2.293 3.828a45.643 45.643 0 0 0 5.653 6.89 45.643 45.643 0 0 0 10.719 7.95 45.915 45.915 0 0 0 8.234 3.41 45.875 45.875 0 0 0 8.746 1.738c1.48.145 2.965.22 4.457.22 1.488 0 2.972-.075 4.457-.22a46.098 46.098 0 0 0 8.742-1.738 45.915 45.915 0 0 0 8.234-3.41 45.727 45.727 0 0 0 10.72-7.95 46.233 46.233 0 0 0 2.995-3.308 45.727 45.727 0 0 0 4.953-7.41 45.915 45.915 0 0 0 3.41-8.234 44.707 44.707 0 0 0 1.083-4.332c.293-1.461.511-2.93.656-4.415.144-1.48.219-2.964.219-4.457 0-1.488-.075-2.972-.22-4.457a44.373 44.373 0 0 0-.655-4.414 44.917 44.917 0 0 0-2.586-8.527 46.37 46.37 0 0 0-1.907-4.035 45.727 45.727 0 0 0-7.949-10.719 46.233 46.233 0 0 0-3.308-2.996 45.727 45.727 0 0 0-7.41-4.953 45.915 45.915 0 0 0-8.234-3.41 44.917 44.917 0 0 0-4.33-1.082 44.373 44.373 0 0 0-4.413-.657 45.947 45.947 0 0 0-4.457-.218ZM291.02 203.758c-1.493 0-2.977.074-4.457.219a46.597 46.597 0 0 0-4.415.656c-1.46.289-2.906.652-4.328 1.086-1.425.43-2.828.93-4.203 1.5a45.617 45.617 0 0 0-11.445 6.863 43.623 43.623 0 0 0-3.305 2.996 44.52 44.52 0 0 0-3 3.305 46.715 46.715 0 0 0-2.656 3.586 44.063 44.063 0 0 0-2.293 3.828 45.218 45.218 0 0 0-4.496 12.562 45.368 45.368 0 0 0 0 17.743c.289 1.46.652 2.902 1.082 4.328a45.502 45.502 0 0 0 5.707 12.062 46.715 46.715 0 0 0 2.656 3.586 46.141 46.141 0 0 0 6.305 6.3 45.755 45.755 0 0 0 3.586 2.661 46.692 46.692 0 0 0 3.824 2.293 45.775 45.775 0 0 0 8.238 3.41 44.93 44.93 0 0 0 8.742 1.738c1.481.149 2.965.22 4.458.22 1.488 0 2.972-.071 4.457-.22a45.534 45.534 0 0 0 4.414-.652 45.817 45.817 0 0 0 4.328-1.086 44.384 44.384 0 0 0 4.199-1.504 44.748 44.748 0 0 0 4.035-1.906 44.97 44.97 0 0 0 7.41-4.953 45.32 45.32 0 0 0 8.961-9.887 45.727 45.727 0 0 0 2.297-3.828 45.837 45.837 0 0 0 3.41-8.234 45.817 45.817 0 0 0 1.086-4.328 45.535 45.535 0 0 0 .871-8.872c0-1.488-.07-2.976-.218-4.457a45.357 45.357 0 0 0-.653-4.414 45.817 45.817 0 0 0-2.59-8.53 45.104 45.104 0 0 0-4.203-7.86 45.346 45.346 0 0 0-8.96-9.887 44.971 44.971 0 0 0-7.41-4.953 44.78 44.78 0 0 0-4.036-1.91 44.358 44.358 0 0 0-4.2-1.5 44.651 44.651 0 0 0-4.327-1.086 46.785 46.785 0 0 0-4.414-.656 45.947 45.947 0 0 0-4.457-.22ZM128.684 427.11c-1.489 0-2.973.074-4.457.218-1.48.145-2.954.363-4.415.656-1.46.29-2.902.649-4.328 1.082a45.837 45.837 0 0 0-8.234 3.41 45.727 45.727 0 0 0-10.719 7.95 46.233 46.233 0 0 0-5.656 6.89 45.256 45.256 0 0 0-4.2 7.863 45.916 45.916 0 0 0-1.503 4.2 45.18 45.18 0 0 0-1.738 8.746 44.605 44.605 0 0 0-.22 4.453c0 1.492.071 2.977.22 4.457a45.18 45.18 0 0 0 3.242 12.945 45.256 45.256 0 0 0 6.86 11.446 46.233 46.233 0 0 0 2.995 3.308 46.233 46.233 0 0 0 3.309 2.996 45.727 45.727 0 0 0 7.41 4.953 45.837 45.837 0 0 0 8.234 3.41 45.797 45.797 0 0 0 8.743 1.739c1.484.145 2.968.219 4.457.219a45.75 45.75 0 0 0 4.457-.219 45.797 45.797 0 0 0 8.742-1.738 45.577 45.577 0 0 0 8.238-3.41 45.658 45.658 0 0 0 3.824-2.297 45.346 45.346 0 0 0 9.887-8.96 45.691 45.691 0 0 0 2.66-3.583 44.657 44.657 0 0 0 2.293-3.828 45.29 45.29 0 0 0 4.496-12.567 45.674 45.674 0 0 0 .876-8.871c0-1.488-.075-2.973-.22-4.453a45.875 45.875 0 0 0-1.738-8.746 45.29 45.29 0 0 0-3.414-8.234 44.971 44.971 0 0 0-4.953-7.41 45.346 45.346 0 0 0-9.887-8.96 45.658 45.658 0 0 0-3.824-2.298 45.577 45.577 0 0 0-8.238-3.41 44.632 44.632 0 0 0-4.328-1.083 44.203 44.203 0 0 0-4.414-.656 45.886 45.886 0 0 0-4.457-.219ZM291.02 57c-1.493 0-2.977.074-4.457.219a44.203 44.203 0 0 0-4.415.656 45.5 45.5 0 0 0-8.53 2.586 45.81 45.81 0 0 0-4.036 1.91 45.708 45.708 0 0 0-7.41 4.95 45.346 45.346 0 0 0-3.305 2.995 45.374 45.374 0 0 0-7.949 10.72 45.29 45.29 0 0 0-4.496 12.566 45.368 45.368 0 0 0 0 17.742 45.999 45.999 0 0 0 1.082 4.328 45.29 45.29 0 0 0 3.414 8.234c.7 1.313 1.465 2.59 2.293 3.828a45.374 45.374 0 0 0 5.656 6.89 45.346 45.346 0 0 0 6.89 5.653 45.658 45.658 0 0 0 3.825 2.297 45.577 45.577 0 0 0 8.238 3.41 44.35 44.35 0 0 0 4.328 1.082 44.35 44.35 0 0 0 4.414.657c1.481.144 2.965.218 4.458.218 1.488 0 2.972-.074 4.457-.218a44.372 44.372 0 0 0 4.414-.657 44.577 44.577 0 0 0 4.328-1.082 45.837 45.837 0 0 0 8.234-3.41 45.727 45.727 0 0 0 10.719-7.949 46.233 46.233 0 0 0 2.996-3.309 45.727 45.727 0 0 0 4.953-7.41 45.916 45.916 0 0 0 3.41-8.234 46.119 46.119 0 0 0 1.086-4.328 45.535 45.535 0 0 0 .871-8.871c0-1.493-.07-2.977-.218-4.457a45.357 45.357 0 0 0-1.739-8.746 45.916 45.916 0 0 0-3.41-8.235 45.727 45.727 0 0 0-7.95-10.719 46.233 46.233 0 0 0-3.308-2.996 44.925 44.925 0 0 0-3.582-2.656 44.657 44.657 0 0 0-3.828-2.293 45.501 45.501 0 0 0-8.234-3.414 45.797 45.797 0 0 0-8.742-1.738A45.947 45.947 0 0 0 291.02 57Zm0 0"/>
  <path fill="#fff" stroke="none" d="m290.137 151.434-4.782 7.105a1.055 1.055 0 0 0 .274 1.45 1.047 1.047 0 0 0 1.445-.274l2.89-4.313v43.66h2.063v-43.66l2.887 4.313c.313.48.965.586 1.445.273a.995.995 0 0 0 .45-.863c0-.207-.07-.414-.172-.586l-4.782-7.14a1.072 1.072 0 0 0-.859-.45c-.344 0-.656.172-.86.485Zm0 0"/>
  <use xlink:href="#d" x="253.377" y="376.149" fill="#fff"/>
  <use xlink:href="#k" x="334.316" y="494.812" fill="#fff"/>
  <use xlink:href="#f" x="91.209" y="477.795" fill="#fff"/>
  <use xlink:href="#j" x="97.794" y="477.795" fill="#fff"/>
  <use xlink:href="#h" x="109.844" y="477.795" fill="#fff"/>
  <use xlink:href="#glyph2-4" x="114.343" y="477.795" fill="#fff"/>
  <use xlink:href="#i" x="120.489" y="477.795" fill="#fff"/>
  <use xlink:href="#h" x="134.712" y="477.795" fill="#fff"/>
  <use xlink:href="#glyph2-4" x="139.212" y="477.795" fill="#fff"/>
  <use xlink:href="#i" x="145.358" y="477.795" fill="#fff"/>
  <use xlink:href="#k" x="159.581" y="477.795" fill="#fff"/>
  <use xlink:href="#f" x="256.232" y="254.445" fill="#fff"/>
  <use xlink:href="#j" x="262.816" y="254.445" fill="#fff"/>
  <use xlink:href="#h" x="274.867" y="254.445" fill="#fff"/>
  <use xlink:href="#glyph2-4" x="279.366" y="254.445" fill="#fff"/>
  <use xlink:href="#m" x="285.512" y="254.445" fill="#fff"/>
  <use xlink:href="#h" x="294.336" y="254.445" fill="#fff"/>
  <use xlink:href="#glyph2-4" x="298.835" y="254.445" fill="#fff"/>
  <use xlink:href="#i" x="304.981" y="254.445" fill="#fff"/>
  <use xlink:href="#k" x="319.204" y="254.445" fill="#fff"/>
  <use xlink:href="#f" x="433.701" y="275.854" fill="#fff"/>
  <use xlink:href="#j" x="440.286" y="275.854" fill="#fff"/>
  <use xlink:href="#h" x="452.336" y="275.854" fill="#fff"/>
  <use xlink:href="#glyph2-4" x="456.836" y="275.854" fill="#fff"/>
  <use xlink:href="#i" x="462.982" y="275.854" fill="#fff"/>
  <use xlink:href="#h" x="477.205" y="275.854" fill="#fff"/>
  <use xlink:href="#glyph2-4" x="481.704" y="275.854" fill="#fff"/>
  <use xlink:href="#m" x="487.85" y="275.854" fill="#fff"/>
  <use xlink:href="#k" x="496.674" y="275.854" fill="#fff"/>
  <use xlink:href="#f" x="502.204" y="448.408" fill="#fff"/>
  <use xlink:href="#g" x="508.789" y="448.408" fill="#fff"/>
  <use xlink:href="#h" x="521.388" y="448.408" fill="#fff"/>
  <use xlink:href="#glyph2-4" x="525.888" y="448.408" fill="#fff"/>
  <use xlink:href="#i" x="532.034" y="448.408" fill="#fff"/>
  <use xlink:href="#h" x="546.257" y="448.408" fill="#fff"/>
  <use xlink:href="#glyph2-4" x="550.756" y="448.408" fill="#fff"/>
  <use xlink:href="#i" x="556.902" y="448.408" fill="#fff"/>
  <use xlink:href="#k" x="571.125" y="448.408" fill="#fff"/>
  <path fill="#fff" stroke="none" d="m254.48 281.887-7.906 3.363a1.044 1.044 0 0 0-.55 1.367c.242.524.824.778 1.374.559l4.79-2.047-95.696 148.566 1.75 1.13 95.696-148.567.117 5.203c0 .574.5 1.02 1.074 1.023a1 1 0 0 0 .848-.48c.113-.176.164-.387.171-.59l-.191-8.613a1.076 1.076 0 0 0-.488-.848c-.29-.187-.645-.21-.989-.066Zm160.625 1.207-8.593-.02a1.05 1.05 0 0 0-1.047 1.04c.015.577.45 1.038 1.047 1.054l5.207.004-234.852 158.527 1.164 1.727 234.852-158.528-1.945 4.832c-.223.528.058 1.133.59 1.364.343.14.679.082.964-.11.172-.117.305-.289.39-.472l3.223-7.996a1.11 1.11 0 0 0-.113-.973 1.044 1.044 0 0 0-.887-.45Zm64.352 166.351-7.453-4.277a1.05 1.05 0 0 0-1.426.387 1.06 1.06 0 0 0 .387 1.433l4.52 2.582-282.54 21.407.16 2.074 282.536-21.403-4.079 3.235c-.46.347-.511 1.012-.167 1.472.23.297.55.41.894.387.207-.015.41-.101.574-.219l6.758-5.351a1.08 1.08 0 0 0 .383-.899 1.034 1.034 0 0 0-.547-.828Zm0 0"/>
  <path fill="#3085ee" stroke="none" d="M450 84.063a46.05 46.05 0 0 0-4.457.218c-1.48.149-2.953.367-4.414.656a45.963 45.963 0 0 0-8.531 2.586 45.218 45.218 0 0 0-4.032 1.91 45.064 45.064 0 0 0-7.414 4.954 45.263 45.263 0 0 0-3.304 2.996 45.263 45.263 0 0 0-5.657 6.89 45.064 45.064 0 0 0-2.293 3.829 44.124 44.124 0 0 0-1.906 4.03 44.851 44.851 0 0 0-1.504 4.204 44.651 44.651 0 0 0-1.086 4.328 46.785 46.785 0 0 0-.656 4.414 45.886 45.886 0 0 0-.219 4.457 45.736 45.736 0 0 0 .875 8.871c.29 1.461.653 2.903 1.086 4.328.43 1.426.934 2.825 1.504 4.203a45.685 45.685 0 0 0 4.2 7.86 45.755 45.755 0 0 0 2.66 3.586 46.086 46.086 0 0 0 2.996 3.304 45.263 45.263 0 0 0 6.89 5.657 45.064 45.064 0 0 0 3.828 2.293 44.124 44.124 0 0 0 4.032 1.906 45.816 45.816 0 0 0 8.531 2.59c1.46.289 2.934.508 4.414.652a44.687 44.687 0 0 0 8.914 0 45.534 45.534 0 0 0 4.414-.652 45.816 45.816 0 0 0 8.531-2.59 44.124 44.124 0 0 0 4.032-1.906 45.064 45.064 0 0 0 7.414-4.953 45.263 45.263 0 0 0 3.304-2.996 46.086 46.086 0 0 0 2.996-3.305 45.755 45.755 0 0 0 2.66-3.586 45.685 45.685 0 0 0 4.2-7.86 44.851 44.851 0 0 0 1.504-4.203 44.651 44.651 0 0 0 1.086-4.328c.289-1.46.507-2.933.656-4.414.144-1.48.219-2.969.219-4.457s-.075-2.976-.22-4.457a46.785 46.785 0 0 0-.655-4.414 44.651 44.651 0 0 0-1.086-4.328 44.851 44.851 0 0 0-1.504-4.203 44.124 44.124 0 0 0-1.906-4.031 45.064 45.064 0 0 0-4.954-7.415 45.263 45.263 0 0 0-2.996-3.304 45.263 45.263 0 0 0-6.89-5.656 45.064 45.064 0 0 0-3.828-2.293 45.218 45.218 0 0 0-4.032-1.91 45.963 45.963 0 0 0-8.53-2.587 46.785 46.785 0 0 0-4.415-.656 45.886 45.886 0 0 0-4.457-.219Zm0 0"/>
  <path fill="#fff" stroke="none" d="m406.254 154.914-8.559.856c-.57.07-.98.55-.93 1.144a1.07 1.07 0 0 0 1.153.945l5.184-.527-71.282 59.813 1.344 1.601 71.281-59.812-1.422 5.011c-.168.551.18 1.125.73 1.301.36.106.688.016.954-.207.156-.133.27-.32.336-.512l2.355-8.3a1.099 1.099 0 0 0-.214-.957 1.045 1.045 0 0 0-.93-.356Zm51.242 21.559-3.687 7.73a1.053 1.053 0 0 0 .484 1.395c.52.234 1.117.043 1.387-.485l2.226-4.691 6.387 43.191 2.039-.3-6.383-43.192 3.488 3.844c.375.433 1.04.441 1.47.062a.99.99 0 0 0 .316-.918 1.138 1.138 0 0 0-.258-.554l-5.774-6.368a1.068 1.068 0 0 0-.914-.316c-.34.05-.62.266-.78.602Zm0 0"/>
  <path fill="#3085ee" stroke="none" d="M632.215 254.527c-1.492 0-2.977.075-4.457.22a46.596 46.596 0 0 0-4.414.655c-1.461.29-2.907.653-4.332 1.086-1.422.43-2.824.934-4.2 1.504a44.193 44.193 0 0 0-4.035 1.906 45.685 45.685 0 0 0-3.828 2.293 45.691 45.691 0 0 0-3.582 2.66 45.321 45.321 0 0 0-11.254 13.715 45.218 45.218 0 0 0-4.496 12.563 44.373 44.373 0 0 0-.656 4.414 45.886 45.886 0 0 0-.219 4.457c0 1.488.074 2.977.219 4.457a45.797 45.797 0 0 0 1.738 8.742 45.218 45.218 0 0 0 3.414 8.234 45.708 45.708 0 0 0 4.95 7.414 45.321 45.321 0 0 0 6.305 6.3 45.691 45.691 0 0 0 3.581 2.662 45.685 45.685 0 0 0 3.828 2.293c1.313.703 2.66 1.34 4.035 1.906a44.778 44.778 0 0 0 4.2 1.504 44.82 44.82 0 0 0 4.332 1.086c1.46.289 2.93.507 4.414.656 1.48.144 2.965.219 4.457.219 1.488 0 2.972-.075 4.457-.22a46.785 46.785 0 0 0 4.414-.655 44.938 44.938 0 0 0 4.328-1.086 44.778 44.778 0 0 0 4.2-1.504 44.193 44.193 0 0 0 4.034-1.906 44.971 44.971 0 0 0 7.41-4.953 45.321 45.321 0 0 0 8.962-9.887 45.104 45.104 0 0 0 4.203-7.86 45.99 45.99 0 0 0 1.504-4.203 44.632 44.632 0 0 0 1.082-4.328c.293-1.46.511-2.933.656-4.414.144-1.48.219-2.969.219-4.457s-.075-2.977-.22-4.457a44.373 44.373 0 0 0-.655-4.414 44.632 44.632 0 0 0-1.082-4.328 45.99 45.99 0 0 0-1.504-4.203 45.104 45.104 0 0 0-4.203-7.86 44.742 44.742 0 0 0-2.657-3.586 45.321 45.321 0 0 0-6.305-6.3 44.971 44.971 0 0 0-7.41-4.954 44.193 44.193 0 0 0-4.035-1.906 44.778 44.778 0 0 0-4.199-1.504 44.938 44.938 0 0 0-4.328-1.086 46.785 46.785 0 0 0-4.414-.656 45.947 45.947 0 0 0-4.457-.219Zm0 0"/>
  <use xlink:href="#f" x="597.156" y="305.215" fill="#fff"/>
  <use xlink:href="#g" x="603.741" y="305.215" fill="#fff"/>
  <use xlink:href="#h" x="616.34" y="305.215" fill="#fff"/>
  <use xlink:href="#glyph2-4" x="620.84" y="305.215" fill="#fff"/>
  <use xlink:href="#i" x="626.985" y="305.215" fill="#fff"/>
  <use xlink:href="#h" x="641.209" y="305.215" fill="#fff"/>
  <use xlink:href="#glyph2-4" x="645.708" y="305.215" fill="#fff"/>
  <use xlink:href="#m" x="651.854" y="305.215" fill="#fff"/>
  <use xlink:href="#k" x="660.678" y="305.215" fill="#fff"/>
  <path fill="#fff" stroke="none" d="m583.934 284.508-5.996-6.145a1.046 1.046 0 0 0-1.473-.02 1.059 1.059 0 0 0-.024 1.481l3.641 3.719-61.434-12.563-.418 2.04 61.438 12.562-4.809 1.988c-.535.211-.77.836-.562 1.371.14.348.414.547.754.618.203.039.418.011.61-.055l7.96-3.29a1.09 1.09 0 0 0 .613-.76c.07-.34-.035-.68-.3-.946Zm3.808-113.34-8.597-.02a1.051 1.051 0 0 0-1.047 1.043 1.065 1.065 0 0 0 1.047 1.055h5.207l-84.977 57.36 1.168 1.726 84.973-57.36-1.946 4.833c-.226.53.059 1.132.586 1.363a.983.983 0 0 0 .969-.11 1.16 1.16 0 0 0 .39-.472l3.227-7.996a1.1 1.1 0 0 0-.117-.973c-.191-.289-.512-.449-.883-.449Zm0 0"/>
  <path fill="#3085ee" stroke="none" d="M624.867 89.297a45.947 45.947 0 0 0-8.87.871 46.119 46.119 0 0 0-4.329 1.086 45.916 45.916 0 0 0-8.234 3.41 45.727 45.727 0 0 0-10.72 7.95 46.233 46.233 0 0 0-2.995 3.308 45.727 45.727 0 0 0-4.953 7.41 46.37 46.37 0 0 0-1.907 4.035 44.917 44.917 0 0 0-2.586 8.527 44.373 44.373 0 0 0-.656 4.415 45.947 45.947 0 0 0-.219 4.457 45.69 45.69 0 0 0 .875 8.871 44.35 44.35 0 0 0 1.082 4.328 45.576 45.576 0 0 0 3.41 8.238 45.727 45.727 0 0 0 7.95 10.719 46.233 46.233 0 0 0 3.308 2.996 44.925 44.925 0 0 0 3.582 2.656 44.657 44.657 0 0 0 3.829 2.293 45.29 45.29 0 0 0 12.562 4.496c1.461.293 2.934.512 4.414.657a45.826 45.826 0 0 0 8.914 0 45.875 45.875 0 0 0 8.746-1.738 45.29 45.29 0 0 0 8.234-3.414 45.643 45.643 0 0 0 10.719-7.945 45.643 45.643 0 0 0 5.652-6.89 45.81 45.81 0 0 0 4.203-7.863 45.5 45.5 0 0 0 2.586-8.531c.294-1.463.513-2.932.657-4.416a45.673 45.673 0 0 0 0-8.914 46.098 46.098 0 0 0-1.738-8.742 45.501 45.501 0 0 0-5.707-12.063 44.925 44.925 0 0 0-2.656-3.582 46.233 46.233 0 0 0-2.997-3.309 46.233 46.233 0 0 0-3.308-2.996 45.727 45.727 0 0 0-7.41-4.953 45.916 45.916 0 0 0-8.234-3.41 45.357 45.357 0 0 0-8.746-1.738 45.826 45.826 0 0 0-4.458-.22Zm0 0"/>
  <path fill="#fff" stroke="none" d="m679.645 433.18-7.442-4.184a1.057 1.057 0 0 0-1.422.379 1.03 1.03 0 0 0 .383 1.406l4.512 2.528-85.559 6.484.156 2.035 85.559-6.48-4.082 3.18c-.46.34-.512.995-.168 1.445.23.293.55.402.895.379.207-.016.406-.102.57-.215l6.762-5.262a1.07 1.07 0 0 0 .382-.883c-.027-.34-.222-.633-.546-.812Zm0 0"/>
  <path fill="#3085ee" stroke="none" d="M730.465 386.852c-1.492 0-2.977.074-4.457.222a45.357 45.357 0 0 0-8.746 1.738c-1.422.43-2.824.934-4.2 1.504a44.194 44.194 0 0 0-4.035 1.907 45.685 45.685 0 0 0-3.828 2.293 45.691 45.691 0 0 0-3.582 2.66 45.321 45.321 0 0 0-11.254 13.715 45.218 45.218 0 0 0-4.496 12.562 44.372 44.372 0 0 0-.656 4.414 45.886 45.886 0 0 0-.219 4.457c0 1.488.074 2.977.219 4.457a45.797 45.797 0 0 0 1.738 8.742 45.218 45.218 0 0 0 3.414 8.234 45.708 45.708 0 0 0 4.95 7.414 45.32 45.32 0 0 0 6.305 6.3 45.69 45.69 0 0 0 3.581 2.662 45.685 45.685 0 0 0 7.864 4.203 45.888 45.888 0 0 0 8.53 2.586c1.462.289 2.93.508 4.415.656a45.673 45.673 0 0 0 8.914 0 46.785 46.785 0 0 0 4.414-.656 45.888 45.888 0 0 0 8.527-2.586 45.685 45.685 0 0 0 7.863-4.203 44.97 44.97 0 0 0 3.583-2.66 45.32 45.32 0 0 0 8.96-9.887 45.104 45.104 0 0 0 4.204-7.86 45.99 45.99 0 0 0 1.504-4.203 44.632 44.632 0 0 0 1.082-4.328c.293-1.46.511-2.933.656-4.414.144-1.48.219-2.969.219-4.457s-.075-2.976-.22-4.457a44.373 44.373 0 0 0-.655-4.414 44.632 44.632 0 0 0-1.082-4.328 45.99 45.99 0 0 0-1.504-4.203 45.104 45.104 0 0 0-4.203-7.86 44.742 44.742 0 0 0-2.657-3.585 45.321 45.321 0 0 0-6.305-6.3 44.971 44.971 0 0 0-7.41-4.954 44.194 44.194 0 0 0-4.035-1.907 44.778 44.778 0 0 0-4.199-1.503 46.119 46.119 0 0 0-4.328-1.086 45.535 45.535 0 0 0-4.414-.653 44.745 44.745 0 0 0-4.457-.222ZM128.684 171.46c-1.489 0-2.973.075-4.457.224-1.48.144-2.954.363-4.415.652-1.46.293-2.902.652-4.328 1.086-1.425.43-2.824.933-4.199 1.504a43.71 43.71 0 0 0-4.035 1.906 44.971 44.971 0 0 0-7.41 4.953 45.321 45.321 0 0 0-8.965 9.887 46.111 46.111 0 0 0-2.293 3.828 45.184 45.184 0 0 0-1.906 4.031 45.816 45.816 0 0 0-2.59 8.531 45.534 45.534 0 0 0-.871 8.872 45.534 45.534 0 0 0 .871 8.871 45.816 45.816 0 0 0 2.59 8.53 45.184 45.184 0 0 0 1.906 4.032 46.11 46.11 0 0 0 2.293 3.828 45.755 45.755 0 0 0 2.66 3.586 45.321 45.321 0 0 0 6.305 6.3 44.971 44.971 0 0 0 7.41 4.954 44.78 44.78 0 0 0 4.035 1.91 45.475 45.475 0 0 0 4.2 1.5 44.65 44.65 0 0 0 4.328 1.086c1.46.29 2.933.508 4.414.656 1.484.145 2.968.22 4.457.22 1.488 0 2.976-.075 4.457-.22a46.597 46.597 0 0 0 4.414-.656 44.65 44.65 0 0 0 4.328-1.086 45.55 45.55 0 0 0 4.203-1.5 45.81 45.81 0 0 0 7.86-4.203 45.755 45.755 0 0 0 3.585-2.66 44.468 44.468 0 0 0 3.305-2.996 44.388 44.388 0 0 0 2.996-3.305 45.755 45.755 0 0 0 2.66-3.586 44.063 44.063 0 0 0 2.293-3.828 45.218 45.218 0 0 0 4.496-12.562c.29-1.461.508-2.934.656-4.414.145-1.48.22-2.97.22-4.457a45.72 45.72 0 0 0-.22-4.457 45.797 45.797 0 0 0-1.738-8.742 45.218 45.218 0 0 0-3.414-8.234 44.063 44.063 0 0 0-2.293-3.83 45.755 45.755 0 0 0-2.66-3.585 44.387 44.387 0 0 0-2.996-3.305 44.468 44.468 0 0 0-3.305-2.996 45.617 45.617 0 0 0-7.41-4.953 44.69 44.69 0 0 0-4.035-1.906 45.816 45.816 0 0 0-8.531-2.59 44.93 44.93 0 0 0-4.414-.652 44.687 44.687 0 0 0-4.457-.223Zm0 0"/>
  <use xlink:href="#f" x="93.628" y="222.149" fill="#fff"/>
  <use xlink:href="#g" x="100.212" y="222.149" fill="#fff"/>
  <use xlink:href="#h" x="112.811" y="222.149" fill="#fff"/>
  <use xlink:href="#glyph2-4" x="117.311" y="222.149" fill="#fff"/>
  <use xlink:href="#m" x="123.457" y="222.149" fill="#fff"/>
  <use xlink:href="#h" x="132.28" y="222.149" fill="#fff"/>
  <use xlink:href="#glyph2-4" x="136.78" y="222.149" fill="#fff"/>
  <use xlink:href="#i" x="142.926" y="222.149" fill="#fff"/>
  <use xlink:href="#k" x="157.149" y="222.149" fill="#fff"/>
  <path fill="#fff" stroke="none" d="m178.04 224.41 5.858 6.278a1.042 1.042 0 0 0 1.473.05c.41-.402.45-1.035.055-1.48l-3.555-3.797 61.137 13.934.465-2.032-61.141-13.93 4.852-1.882c.539-.196.785-.817.593-1.36a.992.992 0 0 0-.742-.629 1.113 1.113 0 0 0-.61.04l-8.034 3.109c-.313.144-.551.41-.63.746-.077.34.024.684.278.953Zm-7.888 38.461 4.09 7.535c.285.5.883.696 1.414.426.496-.289.692-.887.422-1.414l-2.488-4.563 8.297 4.313.957-1.84-8.297-4.312 5.164-.582c.57-.055.965-.59.914-1.16-.04-.372-.254-.637-.559-.797a1.187 1.187 0 0 0-.601-.118l-8.547.965c-.344.055-.637.25-.797.559-.16.305-.152.66.031.988Zm0 0"/>
  <use xlink:href="#f" x="254.623" y="107.686" fill="#fff"/>
  <use xlink:href="#j" x="261.208" y="107.686" fill="#fff"/>
  <use xlink:href="#h" x="273.258" y="107.686" fill="#fff"/>
  <use xlink:href="#glyph2-4" x="277.758" y="107.686" fill="#fff"/>
  <use xlink:href="#j" x="283.904" y="107.686" fill="#fff"/>
  <use xlink:href="#h" x="295.954" y="107.686" fill="#fff"/>
  <use xlink:href="#glyph2-4" x="300.454" y="107.686" fill="#fff"/>
  <use xlink:href="#i" x="306.599" y="107.686" fill="#fff"/>
  <use xlink:href="#k" x="320.823" y="107.686" fill="#fff"/>
  <use xlink:href="#m" x="267.051" y="184.064" fill="#fff"/>
  <use xlink:href="#m" x="174.631" y="367.112" fill="#fff"/>
  <use xlink:href="#f" x="417.915" y="134.75" fill="#fff"/>
  <use xlink:href="#j" x="424.5" y="134.75" fill="#fff"/>
  <use xlink:href="#h" x="436.55" y="134.75" fill="#fff"/>
  <use xlink:href="#glyph2-4" x="441.05" y="134.75" fill="#fff"/>
  <use xlink:href="#m" x="447.196" y="134.75" fill="#fff"/>
  <use xlink:href="#h" x="456.019" y="134.75" fill="#fff"/>
  <use xlink:href="#glyph2-4" x="460.519" y="134.75" fill="#fff"/>
  <use xlink:href="#m" x="466.665" y="134.75" fill="#fff"/>
  <use xlink:href="#k" x="475.488" y="134.75" fill="#fff"/>
  <use xlink:href="#d" x="346.644" y="184.064" fill="#fff"/>
  <use xlink:href="#m" x="434.394" y="213.618" fill="#fff"/>
  <use xlink:href="#k" x="540.846" y="271.462" fill="#fff"/>
  <use xlink:href="#f" x="588.474" y="139.982" fill="#fff"/>
  <use xlink:href="#j" x="595.059" y="139.982" fill="#fff"/>
  <use xlink:href="#h" x="607.109" y="139.982" fill="#fff"/>
  <use xlink:href="#glyph2-4" x="611.609" y="139.982" fill="#fff"/>
  <use xlink:href="#i" x="617.754" y="139.982" fill="#fff"/>
  <use xlink:href="#h" x="631.978" y="139.982" fill="#fff"/>
  <use xlink:href="#glyph2-4" x="636.477" y="139.982" fill="#fff"/>
  <use xlink:href="#j" x="642.623" y="139.982" fill="#fff"/>
  <use xlink:href="#k" x="654.673" y="139.982" fill="#fff"/>
  <use xlink:href="#d" x="528.143" y="195.613" fill="#fff"/>
  <use xlink:href="#f" x="692.267" y="437.539" fill="#fff"/>
  <use xlink:href="#p" x="698.852" y="437.539" fill="#fff"/>
  <use xlink:href="#h" x="712.329" y="437.539" fill="#fff"/>
  <use xlink:href="#glyph2-4" x="716.828" y="437.539" fill="#fff"/>
  <use xlink:href="#i" x="722.974" y="437.539" fill="#fff"/>
  <use xlink:href="#h" x="737.197" y="437.539" fill="#fff"/>
  <use xlink:href="#glyph2-4" x="741.697" y="437.539" fill="#fff"/>
  <use xlink:href="#i" x="747.843" y="437.539" fill="#fff"/>
  <use xlink:href="#k" x="762.066" y="437.539" fill="#fff"/>
  <use xlink:href="#k" x="638.623" y="468.463" fill="#fff"/>
  <use xlink:href="#k" x="206.553" y="223.588" fill="#fff"/>
  <path fill="#fff" stroke="none" d="M179.758 267.086c-.082.18-.2.336-.344.473a1.46 1.46 0 0 1-.5.304c-.184.07-.379.102-.578.094a1.436 1.436 0 0 1-.566-.137 1.506 1.506 0 0 1-.738-1.988c.081-.18.195-.34.343-.473.145-.136.313-.238.496-.308a1.533 1.533 0 0 1 1.149.043 1.508 1.508 0 0 1 .875 1.422 1.532 1.532 0 0 1-.137.57Zm5.453 2.5c-.086.18-.2.34-.344.476a1.564 1.564 0 0 1-.5.305c-.187.07-.379.102-.578.094a1.526 1.526 0 0 1-.57-.137 1.516 1.516 0 0 1-.778-.84 1.474 1.474 0 0 1-.093-.578c.007-.199.05-.39.136-.57a1.506 1.506 0 0 1 1.988-.738c.18.082.34.199.473.343.137.145.239.313.309.497a1.545 1.545 0 0 1-.043 1.148Zm5.45 2.504a1.508 1.508 0 0 1-.84.781 1.533 1.533 0 0 1-1.15-.043 1.508 1.508 0 0 1-.781-.844 1.533 1.533 0 0 1-.09-.578 1.504 1.504 0 0 1 .477-1.043 1.45 1.45 0 0 1 .5-.304c.188-.07.38-.102.578-.094.2.008.387.05.57.137.18.082.337.195.473.343.137.145.239.309.305.496.07.188.102.38.094.579-.008.199-.05.39-.137.57Zm5.452 2.5a1.481 1.481 0 0 1-.84.781 1.46 1.46 0 0 1-.578.094 1.425 1.425 0 0 1-.57-.137 1.416 1.416 0 0 1-.473-.344 1.454 1.454 0 0 1-.398-1.074c.004-.2.05-.39.133-.57.086-.18.199-.34.343-.473a1.47 1.47 0 0 1 1.079-.398c.199.004.386.05.566.133a1.46 1.46 0 0 1 .781.844 1.49 1.49 0 0 1-.043 1.145Zm5.453 2.504c-.082.18-.199.34-.343.472a1.492 1.492 0 0 1-2.118-.078 1.47 1.47 0 0 1-.308-.5 1.443 1.443 0 0 1-.094-.574 1.509 1.509 0 0 1 .98-1.351c.184-.07.38-.102.575-.094a1.509 1.509 0 0 1 1.351.976c.07.188.102.38.094.578-.008.2-.055.391-.137.57Zm5.454 2.504a1.516 1.516 0 0 1-.844.78 1.52 1.52 0 0 1-1.145-.042 1.55 1.55 0 0 1-.476-.344 1.564 1.564 0 0 1-.305-.5 1.462 1.462 0 0 1-.094-.578c.008-.2.055-.387.137-.57a1.45 1.45 0 0 1 .344-.473c.144-.137.312-.238.496-.305.187-.07.379-.101.578-.093.2.007.39.05.57.136a1.508 1.508 0 0 1 .875 1.418c-.008.2-.054.387-.136.57Zm5.453 2.5c-.086.183-.2.34-.344.476a1.498 1.498 0 0 1-.5.305c-.188.07-.379.101-.578.094a1.526 1.526 0 0 1-.57-.137 1.456 1.456 0 0 1-.473-.344 1.421 1.421 0 0 1-.305-.496 1.462 1.462 0 0 1-.094-.578c.008-.2.051-.39.137-.57.082-.18.195-.34.344-.473a1.454 1.454 0 0 1 1.074-.398 1.472 1.472 0 0 1 1.043.477 1.47 1.47 0 0 1 .398 1.077c-.007.2-.05.387-.132.567Zm5.449 2.504c-.082.18-.195.34-.344.472a1.454 1.454 0 0 1-.496.309c-.187.07-.379.101-.578.094a1.526 1.526 0 0 1-.57-.137 1.516 1.516 0 0 1-.782-.844 1.52 1.52 0 0 1 .043-1.144c.086-.184.2-.34.344-.477.149-.133.313-.234.5-.305a1.503 1.503 0 0 1 1.621.387c.137.145.238.313.305.496a1.484 1.484 0 0 1-.043 1.148Zm5.453 2.503a1.45 1.45 0 0 1-.344.473 1.492 1.492 0 0 1-.496.309 1.533 1.533 0 0 1-1.148-.043 1.508 1.508 0 0 1-.781-.844 1.46 1.46 0 0 1-.09-.578c.004-.2.05-.387.132-.57a1.516 1.516 0 0 1 .844-.782 1.52 1.52 0 0 1 .578-.09c.2.008.387.051.567.137a1.466 1.466 0 0 1 .781.84c.07.188.102.379.094.578-.008.2-.055.387-.137.57Zm5.453 2.5a1.488 1.488 0 0 1-.844.782c-.183.07-.379.101-.574.093a1.509 1.509 0 0 1-1.351-.976 1.462 1.462 0 0 1-.094-.578 1.509 1.509 0 0 1 .98-1.352c.184-.07.38-.097.575-.094a1.509 1.509 0 0 1 1.351.98c.07.185.102.38.094.58a1.507 1.507 0 0 1-.137.565Zm5.453 2.504c-.086.18-.199.34-.344.473a1.47 1.47 0 0 1-.5.309 1.49 1.49 0 0 1-1.145-.043 1.488 1.488 0 0 1-.78-.844 1.451 1.451 0 0 1-.094-.578 1.507 1.507 0 0 1 1.555-1.442 1.509 1.509 0 0 1 1.351.977 1.533 1.533 0 0 1-.043 1.148Zm5.453 2.504a1.59 1.59 0 0 1-.343.473 1.437 1.437 0 0 1-.5.305c-.188.07-.38.101-.578.093a1.504 1.504 0 0 1-1.043-.477 1.437 1.437 0 0 1-.305-.5 1.462 1.462 0 0 1-.094-.577 1.504 1.504 0 0 1 .977-1.352 1.533 1.533 0 0 1 1.148.043 1.508 1.508 0 0 1 .781.844 1.533 1.533 0 0 1-.043 1.148Zm5.45 2.5a1.506 1.506 0 0 1-1.988.738 1.416 1.416 0 0 1-.473-.343 1.492 1.492 0 0 1-.309-.496 1.533 1.533 0 0 1 .043-1.149 1.508 1.508 0 0 1 1.422-.875c.2.008.387.055.57.137.18.082.336.2.473.344.137.144.238.312.305.5.07.183.101.379.093.578-.007.195-.05.387-.136.566Zm5.453 2.504c-.082.18-.196.34-.344.473a1.492 1.492 0 0 1-.496.308 1.533 1.533 0 0 1-1.149-.043 1.463 1.463 0 0 1-.472-.343 1.47 1.47 0 0 1-.309-.5 1.49 1.49 0 0 1 .043-1.145 1.488 1.488 0 0 1 .844-.781c.184-.07.379-.102.578-.094a1.507 1.507 0 0 1 1.441 1.555c-.007.2-.054.39-.136.57Zm5.453 2.504c-.082.18-.2.336-.344.473a1.402 1.402 0 0 1-.5.304c-.184.07-.379.102-.574.094-.2-.008-.39-.05-.57-.137a1.477 1.477 0 0 1-.477-.34 1.564 1.564 0 0 1-.305-.5 1.462 1.462 0 0 1-.093-.577c.007-.2.054-.387.136-.57a1.516 1.516 0 0 1 .84-.782 1.545 1.545 0 0 1 1.149.043 1.508 1.508 0 0 1 .875 1.422 1.528 1.528 0 0 1-.137.57Zm5.453 2.5c-.086.184-.2.34-.344.477a1.523 1.523 0 0 1-1.078.398 1.49 1.49 0 0 1-.566-.137 1.481 1.481 0 0 1-.781-.84 1.462 1.462 0 0 1-.094-.578 1.509 1.509 0 0 1 .976-1.351c.188-.07.38-.102.578-.094a1.509 1.509 0 0 1 1.352.98 1.523 1.523 0 0 1-.043 1.145Zm5.45 2.504a1.508 1.508 0 0 1-.84.781 1.533 1.533 0 0 1-1.15-.043 1.58 1.58 0 0 1-.472-.343 1.402 1.402 0 0 1-.304-.5 1.462 1.462 0 0 1-.094-.579c.008-.199.05-.386.137-.566a1.47 1.47 0 0 1 .34-.477c.148-.132.312-.238.5-.304.187-.07.378-.102.577-.094.2.008.387.05.57.137.18.082.337.195.473.343a1.454 1.454 0 0 1 .399 1.075c-.008.199-.05.39-.137.57Zm5.452 2.504c-.082.18-.195.336-.343.473a1.387 1.387 0 0 1-.497.304 1.46 1.46 0 0 1-.578.094 1.425 1.425 0 0 1-.57-.137 1.416 1.416 0 0 1-.473-.343 1.454 1.454 0 0 1-.398-1.075c.008-.199.05-.39.133-.57a1.508 1.508 0 0 1 .844-.781 1.533 1.533 0 0 1 1.148.043c.18.086.336.199.473.343.132.149.238.313.304.5.07.188.102.38.094.579-.008.199-.05.386-.137.57Zm5.453 2.5c-.082.18-.195.34-.343.476a1.547 1.547 0 0 1-.496.305c-.188.07-.38.102-.579.094a1.509 1.509 0 0 1-1.351-.977 1.548 1.548 0 0 1-.094-.578 1.509 1.509 0 0 1 .98-1.351c.184-.07.38-.102.579-.094a1.507 1.507 0 0 1 1.441 1.555c-.008.199-.055.39-.137.57Zm5.454 2.504c-.082.18-.2.34-.344.472a1.47 1.47 0 0 1-1.078.399 1.502 1.502 0 0 1-1.043-.477 1.564 1.564 0 0 1-.305-.5 1.462 1.462 0 0 1-.094-.578c.008-.199.055-.387.137-.57a1.45 1.45 0 0 1 .344-.473c.144-.136.312-.238.496-.304.187-.07.379-.102.578-.094.2.008.39.05.57.137.18.082.34.195.473.343.137.145.238.309.309.496a1.509 1.509 0 0 1-.043 1.148Zm5.453 2.5c-.086.183-.2.34-.344.476a1.498 1.498 0 0 1-.5.305c-.188.07-.379.102-.578.094a1.42 1.42 0 0 1-.567-.137 1.431 1.431 0 0 1-.476-.344 1.444 1.444 0 0 1-.305-.496 1.462 1.462 0 0 1-.094-.578 1.509 1.509 0 0 1 .977-1.351 1.533 1.533 0 0 1 1.148.043c.18.085.34.199.473.343a1.47 1.47 0 0 1 .399 1.078 1.49 1.49 0 0 1-.133.567Zm5.449 2.504a1.508 1.508 0 0 1-1.418.875 1.526 1.526 0 0 1-.57-.137 1.516 1.516 0 0 1-.782-.844 1.513 1.513 0 0 1 .387-1.62 1.57 1.57 0 0 1 .5-.306c.188-.07.379-.101.578-.093.2.008.387.054.57.136.18.082.336.196.473.344.137.145.238.313.309.496.066.188.097.38.09.578-.008.2-.051.391-.137.57Zm5.453 2.504c-.082.18-.195.336-.344.472a1.454 1.454 0 0 1-1.074.399c-.2-.008-.39-.051-.57-.133a1.508 1.508 0 0 1-.781-.844 1.533 1.533 0 0 1 .042-1.148c.086-.18.2-.336.344-.473.149-.137.313-.238.5-.305.188-.07.38-.101.578-.093.2.007.387.05.567.136.183.082.34.196.476.34a1.5 1.5 0 0 1 .305.5c.07.188.102.38.094.578-.008.2-.055.387-.137.57Zm5.453 2.5a1.481 1.481 0 0 1-.84.781c-.187.07-.379.101-.578.094a1.509 1.509 0 0 1-1.351-.977 1.462 1.462 0 0 1-.094-.578 1.509 1.509 0 0 1 .98-1.352 1.52 1.52 0 0 1 1.145.043 1.488 1.488 0 0 1 .781.844 1.49 1.49 0 0 1-.043 1.145Zm5.453 2.504c-.082.18-.199.34-.343.472a1.47 1.47 0 0 1-.5.309c-.184.07-.38.101-.579.094a1.507 1.507 0 0 1-1.441-1.56 1.507 1.507 0 0 1 1.555-1.44 1.509 1.509 0 0 1 1.351.976c.07.188.098.379.094.578-.008.2-.055.39-.137.57Zm5.453 2.503a1.508 1.508 0 0 1-.844.781 1.533 1.533 0 0 1-1.148-.042 1.498 1.498 0 0 1-.777-.844 1.462 1.462 0 0 1-.094-.578c.008-.2.05-.387.137-.57a1.45 1.45 0 0 1 .344-.473c.144-.137.308-.238.496-.305a1.481 1.481 0 0 1 1.148.043 1.508 1.508 0 0 1 .781.84 1.533 1.533 0 0 1-.043 1.148Zm5.45 2.5c-.082.184-.196.34-.34.477a1.498 1.498 0 0 1-.5.305c-.188.07-.38.101-.578.093a1.526 1.526 0 0 1-.57-.136 1.456 1.456 0 0 1-.473-.344 1.492 1.492 0 0 1-.309-.496 1.533 1.533 0 0 1-.09-.578c.008-.2.051-.39.137-.57a1.508 1.508 0 0 1 1.418-.875 1.503 1.503 0 0 1 1.043.48c.137.144.238.312.305.5.07.183.101.379.093.578-.007.195-.05.387-.136.566Zm5.453 2.504c-.082.18-.196.34-.344.473a1.492 1.492 0 0 1-2.117-.078 1.47 1.47 0 0 1-.399-1.078c.004-.196.051-.387.133-.567.086-.183.2-.34.344-.476a1.523 1.523 0 0 1 1.078-.399c.2.008.387.055.566.137a1.481 1.481 0 0 1 .781.84 1.49 1.49 0 0 1-.042 1.148Zm5.453 2.504a1.516 1.516 0 0 1-.84.781 1.545 1.545 0 0 1-.578.09 1.42 1.42 0 0 1-.57-.136 1.508 1.508 0 0 1-.875-1.418c.007-.2.054-.387.136-.57a1.516 1.516 0 0 1 .844-.782 1.513 1.513 0 0 1 1.621.387c.133.148.235.312.305.5a1.481 1.481 0 0 1-.043 1.148Zm5.453 2.5a1.488 1.488 0 0 1-.844.781c-.183.07-.379.102-.578.094a1.507 1.507 0 0 1-1.441-1.554 1.509 1.509 0 0 1 .976-1.352c.188-.07.38-.098.578-.094a1.509 1.509 0 0 1 1.352.98c.07.184.098.38.094.579a1.507 1.507 0 0 1-.137.566Zm5.453 2.504a1.508 1.508 0 0 1-1.422.875 1.526 1.526 0 0 1-.57-.137 1.523 1.523 0 0 1-.473-.343 1.402 1.402 0 0 1-.304-.5 1.451 1.451 0 0 1-.094-.578c.008-.2.05-.387.137-.567.082-.183.195-.34.343-.476.145-.133.309-.239.496-.305.188-.07.38-.102.579-.094a1.509 1.509 0 0 1 1.351.977 1.533 1.533 0 0 1-.043 1.148Zm5.45 2.504a1.53 1.53 0 0 1-.34.473 1.437 1.437 0 0 1-.5.304c-.188.07-.38.102-.579.094a1.504 1.504 0 0 1-1.352-.977 1.533 1.533 0 0 1 .044-1.148 1.508 1.508 0 0 1 .844-.781 1.533 1.533 0 0 1 1.148.043c.18.086.336.2.473.344.136.148.238.312.304.5.07.187.102.379.094.578-.008.199-.05.386-.137.57Zm5.452 2.5c-.082.184-.195.34-.343.477a1.547 1.547 0 0 1-.496.304c-.188.07-.38.102-.579.094a1.509 1.509 0 0 1-1.351-.976 1.533 1.533 0 0 1 .043-1.149c.086-.18.2-.34.344-.473a1.47 1.47 0 0 1 .5-.308 1.49 1.49 0 0 1 1.145.043 1.488 1.488 0 0 1 .78.844c.07.183.102.378.094.574-.008.199-.055.39-.137.57Zm5.454 2.504c-.082.18-.2.34-.344.473a1.47 1.47 0 0 1-1.074.398c-.2-.004-.391-.05-.57-.133a1.593 1.593 0 0 1-.477-.344 1.523 1.523 0 0 1-.399-1.078c.008-.199.055-.386.137-.566a1.488 1.488 0 0 1 .844-.781c.183-.07.379-.102.574-.094.2.008.39.05.57.137.18.082.34.195.477.343a1.506 1.506 0 0 1 .262 1.645Zm5.453 2.504c-.082.18-.2.336-.344.473a1.402 1.402 0 0 1-.5.304c-.184.07-.379.102-.578.094a1.42 1.42 0 0 1-.567-.137 1.477 1.477 0 0 1-.476-.34 1.498 1.498 0 0 1-.305-.5 1.462 1.462 0 0 1-.094-.578 1.509 1.509 0 0 1 .977-1.351 1.533 1.533 0 0 1 1.148.043 1.508 1.508 0 0 1 .781.844c.071.187.098.378.09.578-.003.199-.05.386-.132.57Zm5.453 2.5c-.086.18-.2.34-.344.476a1.564 1.564 0 0 1-.5.305c-.187.07-.379.102-.578.094a1.526 1.526 0 0 1-.57-.137 1.516 1.516 0 0 1-.778-.84 1.474 1.474 0 0 1-.093-.578c.007-.199.05-.39.136-.57a1.506 1.506 0 0 1 1.988-.738 1.516 1.516 0 0 1 .782.84 1.545 1.545 0 0 1-.043 1.148Zm5.45 2.504c-.083.18-.196.34-.345.472a1.454 1.454 0 0 1-1.074.399c-.2-.008-.39-.05-.57-.133a1.508 1.508 0 0 1-.781-.844 1.533 1.533 0 0 1 .043-1.144c.085-.184.199-.34.343-.477.149-.133.313-.238.5-.304.188-.07.38-.102.578-.094.2.008.387.05.57.137.18.082.337.195.473.343.137.145.239.309.305.496.07.188.102.38.094.578-.008.2-.051.391-.137.57Zm5.452 2.5a1.481 1.481 0 0 1-.84.781c-.187.07-.379.102-.578.094a1.442 1.442 0 0 1-.57-.137 1.416 1.416 0 0 1-.473-.344 1.454 1.454 0 0 1-.308-.496 1.536 1.536 0 0 1-.094-.578 1.509 1.509 0 0 1 .98-1.351 1.52 1.52 0 0 1 1.145.043c.183.085.34.199.476.343.133.149.235.313.305.5a1.49 1.49 0 0 1-.043 1.145Zm5.453 2.504c-.082.18-.199.34-.343.472a1.47 1.47 0 0 1-.5.309 1.47 1.47 0 0 1-.575.094 1.509 1.509 0 0 1-1.351-.98 1.443 1.443 0 0 1-.094-.575 1.509 1.509 0 0 1 .977-1.352 1.474 1.474 0 0 1 1.148.043c.18.082.34.196.473.344a1.492 1.492 0 0 1 .265 1.645Zm5.453 2.504c-.086.18-.199.34-.343.472a1.47 1.47 0 0 1-1.078.399 1.485 1.485 0 0 1-1.348-.977 1.462 1.462 0 0 1-.094-.578c.008-.2.055-.387.137-.57a1.45 1.45 0 0 1 .344-.473c.144-.137.312-.238.496-.305.187-.07.379-.101.578-.093.2.007.39.05.57.136a1.508 1.508 0 0 1 .781.84 1.533 1.533 0 0 1-.043 1.149Zm5.454 2.5c-.086.183-.2.34-.344.476a1.498 1.498 0 0 1-.5.305c-.188.07-.38.101-.578.094a1.526 1.526 0 0 1-.57-.137 1.456 1.456 0 0 1-.473-.344 1.387 1.387 0 0 1-.305-.496 1.462 1.462 0 0 1-.094-.578c.008-.2.051-.39.137-.57a1.508 1.508 0 0 1 .84-.781 1.533 1.533 0 0 1 1.148.042c.18.086.336.2.473.344a1.47 1.47 0 0 1 .398 1.078c-.007.2-.05.387-.132.567Zm5.449 2.503c-.082.18-.196.34-.344.473a1.454 1.454 0 0 1-.496.309c-.188.07-.379.101-.578.094a1.509 1.509 0 0 1-1.352-.981 1.52 1.52 0 0 1 .043-1.144c.086-.184.2-.34.344-.477.148-.133.312-.234.5-.305a1.481 1.481 0 0 1 1.148.043c.18.082.336.196.473.344.133.144.238.312.305.496a1.484 1.484 0 0 1-.043 1.148Zm5.453 2.504a1.45 1.45 0 0 1-.344.473 1.492 1.492 0 0 1-.496.309 1.533 1.533 0 0 1-1.148-.043 1.508 1.508 0 0 1-.875-1.422 1.503 1.503 0 0 1 .48-1.043c.145-.137.313-.238.5-.305a1.473 1.473 0 0 1 1.145.043 1.466 1.466 0 0 1 .781.84 1.481 1.481 0 0 1-.043 1.148Zm5.453 2.5a1.488 1.488 0 0 1-.844.782c-.183.07-.379.101-.578.093a1.507 1.507 0 0 1-1.441-1.554 1.509 1.509 0 0 1 .976-1.352c.188-.07.383-.098.578-.094a1.509 1.509 0 0 1 1.352.98 1.49 1.49 0 0 1-.043 1.145Zm5.453 2.504a1.508 1.508 0 0 1-1.422.875 1.49 1.49 0 0 1-.566-.136 1.488 1.488 0 0 1-.781-.844 1.451 1.451 0 0 1-.094-.578 1.507 1.507 0 0 1 1.555-1.442 1.509 1.509 0 0 1 1.351.977 1.533 1.533 0 0 1-.043 1.148Zm5.45 2.504a1.504 1.504 0 0 1-.84.781 1.533 1.533 0 0 1-1.149-.043 1.58 1.58 0 0 1-.473-.343 1.437 1.437 0 0 1-.304-.5 1.462 1.462 0 0 1-.094-.578 1.504 1.504 0 0 1 .977-1.352c.187-.066.378-.098.578-.09a1.504 1.504 0 0 1 1.352.977c.066.187.097.379.09.578-.009.2-.052.387-.138.57Zm5.452 2.5c-.082.184-.195.34-.343.477a1.506 1.506 0 0 1-1.645.262 1.416 1.416 0 0 1-.472-.344 1.492 1.492 0 0 1-.309-.496 1.533 1.533 0 0 1 .043-1.149 1.508 1.508 0 0 1 1.422-.875c.199.008.387.055.566.137a1.488 1.488 0 0 1 .781.844c.07.183.102.379.094.578a1.507 1.507 0 0 1-.137.566Zm5.454 2.504c-.082.18-.196.34-.344.473a1.492 1.492 0 0 1-2.117-.078 1.47 1.47 0 0 1-.309-.5 1.49 1.49 0 0 1 .043-1.145 1.488 1.488 0 0 1 .844-.781c.183-.07.379-.102.578-.094a1.507 1.507 0 0 1 1.441 1.555c-.007.199-.054.39-.136.57Zm5.453 2.504c-.082.18-.2.336-.344.473a1.402 1.402 0 0 1-.5.304c-.184.07-.379.102-.578.094a1.436 1.436 0 0 1-.567-.137 1.477 1.477 0 0 1-.476-.34 1.564 1.564 0 0 1-.305-.5 1.462 1.462 0 0 1-.094-.578c.008-.199.055-.386.137-.57a1.45 1.45 0 0 1 .344-.473c.144-.136.312-.238.496-.308a1.533 1.533 0 0 1 1.148.043 1.508 1.508 0 0 1 .875 1.422 1.512 1.512 0 0 1-.136.57Zm5.453 2.5c-.086.184-.2.34-.344.477a1.564 1.564 0 0 1-.5.304 1.49 1.49 0 0 1-1.145-.043 1.481 1.481 0 0 1-.781-.84 1.462 1.462 0 0 1-.093-.578c.007-.199.05-.39.136-.57.082-.18.196-.34.344-.473.145-.136.309-.238.496-.308.188-.07.38-.102.578-.094a1.509 1.509 0 0 1 1.352.98 1.52 1.52 0 0 1-.043 1.145Zm5.45 2.504a1.508 1.508 0 0 1-.84.781 1.533 1.533 0 0 1-1.15-.043 1.58 1.58 0 0 1-.472-.344 1.47 1.47 0 0 1-.398-1.078c.008-.199.05-.386.136-.566.082-.184.196-.34.34-.477.149-.132.313-.238.5-.304.188-.07.38-.102.578-.094.2.008.387.055.57.137.18.082.337.195.473.343.137.145.239.309.305.497.07.187.102.378.094.578-.008.199-.051.39-.137.57Zm5.452 2.504a1.45 1.45 0 0 1-.344.473 1.421 1.421 0 0 1-.496.304c-.187.07-.379.102-.578.094a1.425 1.425 0 0 1-.57-.137 1.508 1.508 0 0 1-.781-.84 1.533 1.533 0 0 1 .043-1.148 1.508 1.508 0 0 1 .844-.781 1.533 1.533 0 0 1 1.144.043c.184.086.34.199.476.343a1.5 1.5 0 0 1 .305.5c.07.188.102.38.094.579a1.532 1.532 0 0 1-.137.57Zm5.453 2.5c-.082.18-.199.34-.343.476a1.547 1.547 0 0 1-.497.305 1.474 1.474 0 0 1-1.148-.043 1.416 1.416 0 0 1-.473-.344 1.492 1.492 0 0 1 .079-2.117 1.47 1.47 0 0 1 .5-.308c.183-.07.378-.102.578-.094a1.507 1.507 0 0 1 1.441 1.555c-.008.199-.055.39-.137.57Zm5.453 2.504c-.082.18-.199.34-.343.472a1.47 1.47 0 0 1-1.078.399 1.502 1.502 0 0 1-1.043-.477 1.564 1.564 0 0 1-.305-.5 1.49 1.49 0 0 1 .043-1.145 1.481 1.481 0 0 1 .84-.781c.187-.07.379-.101.578-.093.2.008.39.05.57.136.18.082.34.196.473.344.137.145.238.309.308.496.07.188.098.38.094.578-.008.2-.055.391-.137.57Zm5.454 2.504a1.498 1.498 0 0 1-.844.777 1.47 1.47 0 0 1-.578.094 1.45 1.45 0 0 1-.57-.137 1.456 1.456 0 0 1-.473-.344 1.387 1.387 0 0 1-.305-.496 1.462 1.462 0 0 1-.094-.578c.008-.2.051-.39.137-.57.082-.18.195-.34.344-.473a1.454 1.454 0 0 1 1.074-.398c.2.007.39.05.57.132a1.508 1.508 0 0 1 .781.844 1.533 1.533 0 0 1-.042 1.149Zm5.449 2.5a1.52 1.52 0 0 1-.34.476 1.564 1.564 0 0 1-.5.305c-.188.07-.379.101-.578.094a1.526 1.526 0 0 1-.57-.137 1.516 1.516 0 0 1-.782-.84 1.545 1.545 0 0 1 .043-1.148c.086-.18.2-.34.344-.477.148-.133.313-.234.5-.305a1.503 1.503 0 0 1 1.148.043 1.516 1.516 0 0 1 .778.84 1.496 1.496 0 0 1-.043 1.148Zm5.453 2.504c-.082.18-.195.34-.344.472a1.492 1.492 0 0 1-.496.309 1.533 1.533 0 0 1-1.148-.043 1.508 1.508 0 0 1-.781-.844 1.533 1.533 0 0 1 .042-1.148c.086-.18.2-.336.344-.473.145-.137.313-.238.5-.305.184-.07.379-.101.578-.093.2.007.387.05.567.136.183.082.34.196.476.34a1.516 1.516 0 0 1 .262 1.648Zm5.453 2.5a1.488 1.488 0 0 1-.844.78 1.445 1.445 0 0 1-.574.095c-.2-.008-.39-.051-.57-.137a1.506 1.506 0 0 1-.738-1.988c.082-.18.199-.34.343-.473a1.47 1.47 0 0 1 1.074-.399c.2.004.391.051.57.133.18.086.34.2.477.344a1.523 1.523 0 0 1 .399 1.078 1.49 1.49 0 0 1-.137.567Zm5.453 2.503c-.082.18-.199.34-.344.473a1.47 1.47 0 0 1-.5.309 1.49 1.49 0 0 1-1.145-.043 1.488 1.488 0 0 1-.78-.844 1.443 1.443 0 0 1-.094-.574 1.509 1.509 0 0 1 .976-1.352c.188-.07.38-.101.579-.094a1.509 1.509 0 0 1 1.351.977c.07.188.098.379.09.578-.004.2-.05.39-.133.57Zm0 0"/>
  <use xlink:href="#m" x="453.005" y="387.018" fill="#fff"/>
  <use xlink:href="#t" mask="url(#u)" transform="translate(670 71)"/>
  <use xlink:href="#v" mask="url(#w)" transform="translate(467)"/>
  <use xlink:href="#x" mask="url(#y)" transform="translate(678 270)"/>
  <use xlink:href="#z" mask="url(#A)" transform="translate(87 14)"/>
</svg>
