<svg xmlns="http://www.w3.org/2000/svg" width="618" height="125" version="1.0">
  <path fill="#8be9fd" stroke="#44475a" stroke-linejoin="bevel" d="M22 54h9v28h-9z"/>
  <path fill="#50fa7b" stroke="#44475a" stroke-linejoin="bevel" d="M31 54h9v28h-9zm9 0h9v28h-9zm9 0h9v28h-9zm9 0h9v28h-9zm9 0h9v28h-9zm9 0h9v28h-9zm9 0h9v28h-9zm9 0h9v28h-9zm9 0h9v28h-9zm9 0h9v28h-9zm9 0h9v28h-9z"/>
  <path fill="#f55" stroke="#44475a" stroke-linejoin="bevel" d="M130 54h9v28h-9z" font-size="14"/>
  <path fill="#f55" stroke="#44475a" stroke-linejoin="bevel" d="M139 54h9v28h-9zm9 0h9v28h-9zm9 0h9v28h-9zm9 0h9v28h-9zm9 0h9v28h-9zm9 0h9v28h-9zm9 0h9v28h-9zm9 0h9v28h-9zm9 0h9v28h-9zm9 0h9v28h-9zm9 0h9v28h-9zm9 0h9v28h-9zm9 0h9v28h-9zm9 0h9v28h-9zm9 0h9v28h-9zm9 0h9v28h-9zm9 0h9v28h-9zm9 0h9v28h-9zm9 0h9v28h-9zm9 0h9v28h-9zm9 0h9v28h-9zm9 0h9v28h-9zm9 0h9v28h-9zm9 0h9v28h-9zm9 0h9v28h-9zm9 0h9v28h-9zm9 0h9v28h-9zm9 0h9v28h-9zm9 0h9v28h-9zm9 0h9v28h-9zm9 0h9v28h-9zm9 0h9v28h-9zm9 0h9v28h-9zm9 0h9v28h-9zm9 0h9v28h-9zm9 0h9v28h-9zm9 0h9v28h-9zm9 0h9v28h-9zm9 0h9v28h-9zm9 0h9v28h-9zm9 0h9v28h-9zm9 0h9v28h-9zm9 0h9v28h-9zm9 0h9v28h-9zm9 0h9v28h-9zm9 0h9v28h-9zm9 0h9v28h-9zm9 0h9v28h-9zm9 0h9v28h-9zm9 0h9v28h-9zm9 0h9v28h-9z"/>
  <path fill="none" fill-rule="evenodd" stroke="#44475a" stroke-width="1.013" d="M26.5 41.486v10.028m4.546-10.028v10.028m98.326-10.028v10.028"/>
  <path fill="none" fill-rule="evenodd" stroke="#44475a" d="M30.871 41.5h99.075"/>
  <path fill="none" fill-rule="evenodd" stroke="#44475a" stroke-width="1.013" d="M131.423 41.486v10.028"/>
  <path fill="none" fill-rule="evenodd" stroke="#44475a" d="M131 41.5h466.556"/>
  <path fill="none" fill-rule="evenodd" stroke="#44475a" stroke-width="1.013" d="M597.467 41.486v10.028"/>
  <text xml:space="preserve" x="51.38" y="16.813" fill="#44475a" stroke="none" font-family="Calibri" font-size="12" font-weight="400"><tspan x="51.38" y="16.813" font-family="sans" font-size="14">exponent</tspan></text>
  <text xml:space="preserve" x="58.438" y="34.156" fill="#44475a" stroke="none" font-family="Calibri" font-size="12" font-weight="400"><tspan x="58.438" y="34.156" font-family="sans" font-size="14">(11 bit)</tspan></text>
  <text xml:space="preserve" x="13.918" y="34.844" fill="#44475a" stroke="none" font-family="sans" font-size="12" font-weight="400"><tspan x="13.918" y="34.844" font-size="14">sign</tspan></text>
  <text xml:space="preserve" x="341.73" y="15.752" fill="#44475a" stroke="none" font-family="sans" font-size="14" font-weight="400"><tspan x="341.73" y="15.752">fraction</tspan></text>
  <text xml:space="preserve" x="342.307" y="33.43" fill="#44475a" stroke="none" font-family="sans" font-size="14" font-weight="400"><tspan x="342.307" y="33.43">(52 bit)</tspan></text>
  <path fill="#44475a" fill-opacity=".251" stroke="#44475a" stroke-linejoin="bevel" d="M30.212 90.788a3.712 3.712 0 1 1-7.424 0 3.712 3.712 0 1 1 7.424 0z"/>
  <text xml:space="preserve" x="18.765" y="110.822" fill="#44475a" stroke="none" font-family="sans" font-size="14" font-weight="400"><tspan x="18.765" y="110.822">63</tspan></text>
  <text xml:space="preserve" x="117.789" y="110.829" fill="#44475a" stroke="none" font-family="sans" font-size="14" font-weight="400"><tspan x="117.789" y="110.829">52</tspan></text>
  <path fill="#44475a" fill-opacity=".251" stroke="#44475a" stroke-linejoin="bevel" d="M129.212 90.788a3.712 3.712 0 1 1-7.424 0 3.712 3.712 0 1 1 7.424 0zm468 0a3.712 3.712 0 1 1-7.424 0 3.712 3.712 0 1 1 7.424 0z"/>
  <text xml:space="preserve" x="589.651" y="110.504" fill="#44475a" stroke="none" font-family="sans" font-size="14" font-weight="400"><tspan x="589.651" y="110.504">0</tspan></text>
</svg>
