<svg version="1.1" xmlns="http://www.w3.org/2000/svg" viewBox="0 0 714.4961003680601 640" width="714.4961003680601" height="640">
  <!-- svg-source:excalidraw -->
  
  <defs>
    <style class="style-fonts">
      @font-face {
        font-family: "Virgil";
        src: url("https://excalidraw.com/Virgil.woff2");
      }
      @font-face {
        font-family: "Cascadia";
        src: url("https://excalidraw.com/Cascadia.woff2");
      }
    </style>
  </defs>
  <rect x="0" y="0" width="714.4961003680601" height="640" fill="transparent"></rect><g stroke-linecap="round" transform="translate(26.5 10) rotate(0 129.5 38)"><path d="M2.57 7.54 C2.57 7.54, 2.57 7.54, 2.57 7.54 M2.57 7.54 C2.57 7.54, 2.57 7.54, 2.57 7.54 M4.02 18.07 C8.73 15.08, 10.84 8.33, 19.11 0.71 M4.02 18.07 C6.91 12.55, 11.63 9.23, 19.11 0.71 M4.15 30.11 C12.18 23.25, 16.64 12.91, 29.74 0.67 M4.15 30.11 C11.52 21.41, 18.58 14.2, 29.74 0.67 M4.28 42.15 C12.25 31.14, 23.82 19.77, 40.37 0.64 M4.28 42.15 C19.4 25.84, 32.94 9.01, 40.37 0.64 M4.42 54.19 C13.8 40.81, 26.22 27.88, 51 0.61 M4.42 54.19 C14.55 41.41, 25.8 29.21, 51 0.61 M5.21 65.48 C18.28 52.88, 29.83 35.31, 61.63 0.57 M5.21 65.48 C26.54 40.36, 48.26 16.78, 61.63 0.57 M7.96 74.5 C32.89 45.7, 57.21 17.39, 72.26 0.54 M7.96 74.5 C32.06 48.7, 54.77 20.45, 72.26 0.54 M15.31 78.24 C35.87 56.04, 53.26 30.72, 82.89 0.5 M15.31 78.24 C31.87 59.85, 45.95 42.91, 82.89 0.5 M23.98 80.47 C39.44 64.9, 50.51 46.97, 93.52 0.47 M23.98 80.47 C48.67 51.87, 74.41 23.25, 93.52 0.47 M34.61 80.43 C52.79 60.6, 68.41 41.33, 104.15 0.43 M34.61 80.43 C52.5 61.03, 71.61 38.33, 104.15 0.43 M45.24 80.4 C60.93 64.26, 78.28 44.1, 114.78 0.4 M45.24 80.4 C71.45 49.99, 99.72 19.05, 114.78 0.4 M55.87 80.36 C82.27 49.46, 109.97 17.2, 125.41 0.36 M55.87 80.36 C76.61 54.96, 99.03 29.84, 125.41 0.36 M66.5 80.33 C86.54 54.68, 108.69 29.92, 136.04 0.33 M66.5 80.33 C88.28 54.85, 111.92 27.35, 136.04 0.33 M77.13 80.29 C98.46 52.31, 124.15 27.99, 146.67 0.3 M77.13 80.29 C95.68 57.66, 115.08 34.82, 146.67 0.3 M87.76 80.26 C115.97 47.62, 141.27 16.5, 157.3 0.26 M87.76 80.26 C111.41 52.1, 133.62 25.68, 157.3 0.26 M98.39 80.23 C125.18 47.8, 150.99 20.97, 167.93 0.23 M98.39 80.23 C111.42 63.52, 125.39 47.53, 167.93 0.23 M109.02 80.19 C133.55 51.69, 157.28 25.08, 178.56 0.19 M109.02 80.19 C128.44 57.05, 149.88 33.22, 178.56 0.19 M119.65 80.16 C144.7 54.67, 166.15 27.51, 189.19 0.16 M119.65 80.16 C146.62 49.24, 173.52 16.55, 189.19 0.16 M130.28 80.12 C155.29 52.97, 174.45 26.35, 199.82 0.12 M130.28 80.12 C155.61 50.56, 183.31 20.72, 199.82 0.12 M140.91 80.09 C161.34 55.54, 180.24 30.87, 210.45 0.09 M140.91 80.09 C159.68 59.37, 180.05 36.32, 210.45 0.09 M151.54 80.05 C177.02 49.43, 203.44 18.94, 221.08 0.05 M151.54 80.05 C168.6 59.95, 185.15 41.36, 221.08 0.05 M162.17 80.02 C182.47 57.16, 203.96 34.41, 231.71 0.02 M162.17 80.02 C187.29 51.24, 212.37 22.02, 231.71 0.02 M172.14 80.74 C190.11 60.13, 209.36 38.71, 241.03 1.49 M172.14 80.74 C191.16 60.43, 207.23 38.42, 241.03 1.49 M182.77 80.7 C210.96 50.44, 237.67 18.56, 250.34 2.97 M182.77 80.7 C200.55 58.8, 221.12 36.13, 250.34 2.97 M193.4 80.67 C208.68 61.26, 226.09 43.59, 257.04 7.46 M193.4 80.67 C212.51 57.31, 232.95 34.59, 257.04 7.46 M204.03 80.64 C218.38 64.08, 227.76 49.43, 260.45 15.73 M204.03 80.64 C223.64 57.93, 244.31 35.77, 260.45 15.73 M214.66 80.6 C225.92 66.5, 240.19 50.75, 260.59 27.77 M214.66 80.6 C231.05 61.5, 247.72 42.59, 260.59 27.77 M225.29 80.57 C233.51 67.89, 245.73 57.38, 260.72 39.81 M225.29 80.57 C238.27 64.27, 252.46 47.84, 260.72 39.81 M235.92 80.53 C245.35 68.79, 255.67 56.4, 260.85 51.85 M235.92 80.53 C242.83 72.02, 248.94 64.29, 260.85 51.85" stroke="#ffb86c" stroke-width="1" fill="none"></path><path d="M19 0 M19 0 C64.66 1.9, 107.95 1.66, 240 0 M19 0 C89.64 -0.1, 161.05 1.04, 240 0 M240 0 C253.76 1.43, 258.88 6.75, 259 19 M240 0 C254.92 1.6, 259.12 4.49, 259 19 M259 19 C260.83 28.75, 260.45 34.84, 259 57 M259 19 C258.17 28.6, 258 40.52, 259 57 M259 57 C260.75 68.75, 252.66 77.45, 240 76 M259 57 C258.57 70.43, 250.98 75.57, 240 76 M240 76 C153.06 75.16, 62.99 73.84, 19 76 M240 76 C181.69 75.98, 122.59 77.48, 19 76 M19 76 C7.35 74.99, -0.42 69.86, 0 57 M19 76 C8.63 74.52, -0.83 67.75, 0 57 M0 57 C0.91 43.3, 0.85 26.89, 0 19 M0 57 C1.06 45.56, -0.23 35.94, 0 19 M0 19 C1 6.81, 7.21 1.84, 19 0 M0 19 C-0.64 4.74, 7.3 -0.61, 19 0" stroke="#f8f8f2" stroke-width="2" fill="none"></path></g><g transform="translate(126.703125 36) rotate(0 29.296875 12)"><text x="29.296875" y="0" font-family="Cascadia, Segoe UI Emoji" font-size="20px" fill="#f8f8f2" text-anchor="middle" style="white-space: pre;" direction="ltr" dominant-baseline="text-before-edge">input</text></g><g stroke-linecap="round" transform="translate(346 85) rotate(0 129.5 38)"><path d="M2.57 7.54 C2.57 7.54, 2.57 7.54, 2.57 7.54 M2.57 7.54 C2.57 7.54, 2.57 7.54, 2.57 7.54 M4.02 18.07 C7.83 15.94, 8.83 10.22, 19.11 0.71 M4.02 18.07 C9.12 13.74, 13.68 6.99, 19.11 0.71 M4.15 30.11 C11.4 19.25, 19.7 11.7, 29.74 0.67 M4.15 30.11 C9.98 23.8, 15.94 16.32, 29.74 0.67 M4.28 42.15 C11.71 30.42, 24.53 21.68, 40.37 0.64 M4.28 42.15 C11.8 32.99, 21.15 24.7, 40.37 0.64 M4.42 54.19 C15.77 38.09, 30.07 25.98, 51 0.61 M4.42 54.19 C20.31 35.88, 35.59 18.23, 51 0.61 M5.21 65.48 C20.9 48.25, 32.78 34.2, 61.63 0.57 M5.21 65.48 C17.96 50.46, 29.55 36.64, 61.63 0.57 M7.96 74.5 C21.58 58.32, 35.82 45.05, 72.26 0.54 M7.96 74.5 C23.28 56.23, 37.14 40.35, 72.26 0.54 M15.31 78.24 C39.38 50.52, 61.94 23.65, 82.89 0.5 M15.31 78.24 C32.07 58.29, 49.68 36.68, 82.89 0.5 M23.98 80.47 C41.35 63.28, 54.44 42.41, 93.52 0.47 M23.98 80.47 C48.13 53.13, 70.31 25.44, 93.52 0.47 M34.61 80.43 C61.15 47.98, 87.61 16.61, 104.15 0.43 M34.61 80.43 C49.74 62.73, 64.78 44.73, 104.15 0.43 M45.24 80.4 C68.52 51.21, 93.72 25.41, 114.78 0.4 M45.24 80.4 C72.18 50.33, 99.58 18.44, 114.78 0.4 M55.87 80.36 C79.92 52.21, 104.56 23.86, 125.41 0.36 M55.87 80.36 C73.8 60.78, 91.38 38.14, 125.41 0.36 M66.5 80.33 C83.4 58.9, 101.52 42.22, 136.04 0.33 M66.5 80.33 C93.54 48.82, 120.17 16.81, 136.04 0.33 M77.13 80.29 C94.23 58.69, 114.84 40.73, 146.67 0.3 M77.13 80.29 C94.37 59.27, 111.6 39, 146.67 0.3 M87.76 80.26 C113.18 51.68, 136.18 22.81, 157.3 0.26 M87.76 80.26 C105.16 59.46, 124 39.28, 157.3 0.26 M98.39 80.23 C120.09 56.09, 140.21 32.51, 167.93 0.23 M98.39 80.23 C123.31 50.62, 149.64 21.61, 167.93 0.23 M109.02 80.19 C136.76 52.2, 163.07 18.45, 178.56 0.19 M109.02 80.19 C125.08 62.66, 140.93 44.13, 178.56 0.19 M119.65 80.16 C141.84 54.4, 161.9 33.83, 189.19 0.16 M119.65 80.16 C138.7 57.99, 157.15 36.99, 189.19 0.16 M130.28 80.12 C151.92 55.18, 171.29 32.48, 199.82 0.12 M130.28 80.12 C145.46 63.1, 160.08 43.93, 199.82 0.12 M140.91 80.09 C155.17 61.11, 171.44 44.78, 210.45 0.09 M140.91 80.09 C164.7 52.39, 188.55 26.06, 210.45 0.09 M151.54 80.05 C168.58 60.66, 185.03 41.57, 221.08 0.05 M151.54 80.05 C167.22 59.36, 184.29 41.12, 221.08 0.05 M162.17 80.02 C186.64 51.4, 208.12 25.19, 231.71 0.02 M162.17 80.02 C178.99 60.37, 195.1 41.21, 231.71 0.02 M172.14 80.74 C187.72 64.29, 200.45 46.14, 241.03 1.49 M172.14 80.74 C187.73 64.44, 203.74 46.75, 241.03 1.49 M182.77 80.7 C207.82 50.37, 232.68 21.64, 250.34 2.97 M182.77 80.7 C206.01 53.14, 230.77 26.34, 250.34 2.97 M193.4 80.67 C213.53 59.35, 234.67 37.71, 257.04 7.46 M193.4 80.67 C216.95 53.25, 240.43 25.62, 257.04 7.46 M204.03 80.64 C215.04 65.94, 229.75 51.38, 260.45 15.73 M204.03 80.64 C224.29 59.07, 241.41 38.33, 260.45 15.73 M214.66 80.6 C229.02 64.46, 245.38 46.62, 260.59 27.77 M214.66 80.6 C225.76 67.87, 235.29 56.69, 260.59 27.77 M225.29 80.57 C238.05 66.24, 255.36 47.53, 260.72 39.81 M225.29 80.57 C237.61 65.51, 249.88 51.82, 260.72 39.81 M235.92 80.53 C246.12 70.72, 255.62 59.67, 260.85 51.85 M235.92 80.53 C246.2 69.2, 255.85 58.07, 260.85 51.85" stroke="#ffb86c" stroke-width="1" fill="none"></path><path d="M19 0 M19 0 C103.5 1.63, 187.82 1.52, 240 0 M19 0 C85.08 1.11, 152.61 1.34, 240 0 M240 0 C252.18 0.2, 258.72 6.4, 259 19 M240 0 C251.63 0.69, 257.04 8.6, 259 19 M259 19 C259.86 32.8, 259.02 47.15, 259 57 M259 19 C258.21 28.81, 257.95 38.81, 259 57 M259 57 C259.48 71.39, 252.6 75.36, 240 76 M259 57 C258.17 69.55, 252.99 76.44, 240 76 M240 76 C171.35 76.62, 104.74 73.88, 19 76 M240 76 C191.65 73.85, 141.65 74.61, 19 76 M19 76 C4.49 77.46, -1.4 71.13, 0 57 M19 76 C6.36 76.24, 1.52 69.22, 0 57 M0 57 C1.17 44.18, 0.32 32.58, 0 19 M0 57 C1 49.28, -0.51 40.61, 0 19 M0 19 C0.27 5.46, 5.9 -0.07, 19 0 M0 19 C1.51 7.42, 8.08 1.13, 19 0" stroke="#f8f8f2" stroke-width="2" fill="none"></path></g><g transform="translate(440.34375 111) rotate(0 35.15625 12)"><text x="35.15625" y="0" font-family="Cascadia, Segoe UI Emoji" font-size="20px" fill="#f8f8f2" text-anchor="middle" style="white-space: pre;" direction="ltr" dominant-baseline="text-before-edge">hidden</text></g><g stroke-linecap="round" transform="translate(23 149) rotate(0 129.5 38)"><path d="M2.57 7.54 C2.57 7.54, 2.57 7.54, 2.57 7.54 M2.57 7.54 C2.57 7.54, 2.57 7.54, 2.57 7.54 M4.02 18.07 C8.18 11.8, 10.46 7.29, 19.11 0.71 M4.02 18.07 C10.71 10.32, 15.44 4.36, 19.11 0.71 M4.15 30.11 C10.87 19.42, 20.25 13.88, 29.74 0.67 M4.15 30.11 C13.37 18.7, 23.16 7.43, 29.74 0.67 M4.28 42.15 C11.4 33.89, 21.73 21.02, 40.37 0.64 M4.28 42.15 C12.2 34.39, 18.85 25.78, 40.37 0.64 M4.42 54.19 C22.2 32.83, 37.75 16.41, 51 0.61 M4.42 54.19 C19.52 37.86, 32.58 20.85, 51 0.61 M5.21 65.48 C24.81 43.09, 43.47 21.5, 61.63 0.57 M5.21 65.48 C19.64 48.8, 32.27 34.36, 61.63 0.57 M7.96 74.5 C28.58 50.42, 49.03 26.01, 72.26 0.54 M7.96 74.5 C24.8 54.77, 43.94 33.1, 72.26 0.54 M15.31 78.24 C39.93 52.08, 63.74 26.49, 82.89 0.5 M15.31 78.24 C31.36 59.82, 47.22 42.59, 82.89 0.5 M23.98 80.47 C49.03 55.3, 71.68 26.66, 93.52 0.47 M23.98 80.47 C40.18 60.7, 57.91 42.13, 93.52 0.47 M34.61 80.43 C60.8 49.33, 89.92 16.43, 104.15 0.43 M34.61 80.43 C61.23 49.13, 88.05 19.56, 104.15 0.43 M45.24 80.4 C61.42 62.05, 75.79 45.76, 114.78 0.4 M45.24 80.4 C62.8 59.26, 83.81 36.24, 114.78 0.4 M55.87 80.36 C75.8 56.56, 94.1 35.05, 125.41 0.36 M55.87 80.36 C72.71 61.58, 89.21 41.89, 125.41 0.36 M66.5 80.33 C92.1 52.81, 117.06 20.11, 136.04 0.33 M66.5 80.33 C89.19 51.69, 114.05 24.86, 136.04 0.33 M77.13 80.29 C99.49 55.31, 119.69 31.75, 146.67 0.3 M77.13 80.29 C104.55 48.68, 131.51 16.46, 146.67 0.3 M87.76 80.26 C100.78 64.19, 116.29 42.95, 157.3 0.26 M87.76 80.26 C108.94 54.72, 131.73 28.59, 157.3 0.26 M98.39 80.23 C116.54 58.92, 136.78 36.49, 167.93 0.23 M98.39 80.23 C127.1 47.91, 152.46 16.6, 167.93 0.23 M109.02 80.19 C132.08 54.26, 155.68 24.98, 178.56 0.19 M109.02 80.19 C136.31 49.19, 161.42 18.16, 178.56 0.19 M119.65 80.16 C138.47 56.64, 159.16 31.15, 189.19 0.16 M119.65 80.16 C135.29 62.44, 150.9 43.38, 189.19 0.16 M130.28 80.12 C153.23 50.41, 181.44 22.19, 199.82 0.12 M130.28 80.12 C156.87 49.04, 184.21 17.36, 199.82 0.12 M140.91 80.09 C163.85 49.99, 192.73 21.86, 210.45 0.09 M140.91 80.09 C157.09 59.6, 175.58 39.98, 210.45 0.09 M151.54 80.05 C171.12 59.92, 188.31 38.52, 221.08 0.05 M151.54 80.05 C172.98 55.29, 194.88 29.11, 221.08 0.05 M162.17 80.02 C177.98 64.21, 189.27 46.51, 231.71 0.02 M162.17 80.02 C180.72 58.54, 198.71 39.44, 231.71 0.02 M172.14 80.74 C192.27 59.16, 211.32 35.17, 241.03 1.49 M172.14 80.74 C188.92 61.42, 204.93 42.93, 241.03 1.49 M182.77 80.7 C198.18 63.24, 208.83 50.1, 250.34 2.97 M182.77 80.7 C207.65 51, 233.9 22.22, 250.34 2.97 M193.4 80.67 C219.16 54.62, 243.08 25.23, 257.04 7.46 M193.4 80.67 C213.64 57.14, 234.25 34.03, 257.04 7.46 M204.03 80.64 C217.92 63.05, 234.91 43.92, 260.45 15.73 M204.03 80.64 C216.72 65.52, 229.27 49.68, 260.45 15.73 M214.66 80.6 C224.79 69.34, 236.58 55.23, 260.59 27.77 M214.66 80.6 C225.76 69.25, 234.87 57.28, 260.59 27.77 M225.29 80.57 C232.02 73.41, 241.95 63.86, 260.72 39.81 M225.29 80.57 C236.6 67.04, 249.53 51.96, 260.72 39.81 M235.92 80.53 C245 69.97, 254.89 59.74, 260.85 51.85 M235.92 80.53 C243.84 71.67, 253.17 61.58, 260.85 51.85" stroke="#ffb86c" stroke-width="1" fill="none"></path><path d="M19 0 M19 0 C92.98 2.29, 164.6 0.23, 240 0 M19 0 C89.96 1.85, 159.88 0.7, 240 0 M240 0 C251.02 -0.37, 260.71 5.98, 259 19 M240 0 C254.34 1.09, 258.54 6.71, 259 19 M259 19 C260.81 32.6, 257.41 46.38, 259 57 M259 19 C259.87 26.76, 259.37 35.19, 259 57 M259 57 C258.32 69.01, 251.5 74.18, 240 76 M259 57 C257.35 68.97, 254.59 76.76, 240 76 M240 76 C187.75 76.53, 137.69 76.11, 19 76 M240 76 C180.57 78.27, 120.22 76.88, 19 76 M19 76 C5.12 74.79, -1.43 70.31, 0 57 M19 76 C4.93 75.54, -0.34 67.6, 0 57 M0 57 C1.32 43.77, 0.35 32.45, 0 19 M0 57 C0.1 45.79, 0.56 34.75, 0 19 M0 19 C-1.37 7.88, 5.25 0.49, 19 0 M0 19 C0.26 7.35, 6.29 -2.14, 19 0" stroke="#f8f8f2" stroke-width="2" fill="none"></path></g><g transform="translate(105.625 175) rotate(0 46.875 12)"><text x="46.875" y="0" font-family="Cascadia, Segoe UI Emoji" font-size="20px" fill="#f8f8f2" text-anchor="middle" style="white-space: pre;" direction="ltr" dominant-baseline="text-before-edge">combined</text></g><g stroke-linecap="round" transform="translate(17.5 278) rotate(0 128.5 44)"><path d="M7.85 45.25 C7.85 45.25, 7.85 45.25, 7.85 45.25 M7.85 45.25 C7.85 45.25, 7.85 45.25, 7.85 45.25 M14.54 49.74 C17.61 45.98, 19.32 42.85, 23.73 39.18 M14.54 49.74 C18.03 45.7, 20.99 42.4, 23.73 39.18 M22.55 52.73 C27.2 50.06, 31.86 44.69, 38.95 33.86 M22.55 52.73 C26.47 48.19, 31.56 43.14, 38.95 33.86 M30.55 55.71 C38.42 47.56, 45.05 38.85, 53.52 29.29 M30.55 55.71 C36 48.9, 43.36 42.45, 53.52 29.29 M37.25 60.2 C43.06 52.76, 50.07 42.66, 68.74 23.98 M37.25 60.2 C46.83 49.43, 55.93 39.44, 68.74 23.98 M45.25 63.19 C60.18 47.04, 75.19 28.57, 83.96 18.66 M45.25 63.19 C57.15 50.06, 69.15 36.09, 83.96 18.66 M53.91 65.42 C68.07 47.7, 85.34 31.47, 98.53 14.1 M53.91 65.42 C72.26 45.43, 88.55 25.19, 98.53 14.1 M61.92 68.4 C80.32 45.41, 103.61 20.75, 113.75 8.78 M61.92 68.4 C73.59 55.13, 85.29 41.8, 113.75 8.78 M69.93 71.39 C87.93 48.03, 108.48 24.3, 126.35 6.48 M69.93 71.39 C83.87 54.4, 99.85 37.44, 126.35 6.48 M78.59 73.62 C101.98 45.49, 124.71 19.21, 137.63 5.69 M78.59 73.62 C96.76 53.62, 113.58 33.09, 137.63 5.69 M86.59 76.6 C109.82 52.91, 130.43 28.78, 146.3 7.92 M86.59 76.6 C104.23 55.9, 123.21 34.34, 146.3 7.92 M95.26 78.83 C112.65 57.7, 129.42 39.74, 154.3 10.91 M95.26 78.83 C108.41 61.3, 124.03 45.52, 154.3 10.91 M103.26 81.81 C122.48 61.22, 140.68 39.06, 162.96 13.14 M103.26 81.81 C115.84 67.39, 130.35 50.26, 162.96 13.14 M113.24 82.53 C131.45 61.33, 149.31 42.9, 170.97 16.12 M113.24 82.53 C133.06 60.11, 152.85 36.82, 170.97 16.12 M121.9 84.76 C135.82 64.43, 150.97 48.03, 179.63 18.35 M121.9 84.76 C136.3 69.63, 150.98 51.97, 179.63 18.35 M130.56 86.99 C150.62 64.66, 173.38 40.81, 187.64 21.33 M130.56 86.99 C149.49 63.54, 170.55 40.86, 187.64 21.33 M143.81 83.94 C154.93 69.09, 165.45 55.49, 195.64 24.32 M143.81 83.94 C157.46 69.74, 170.22 54.24, 195.64 24.32 M151.82 86.92 C165.41 69.26, 182.21 55.5, 203.65 27.3 M151.82 86.92 C168.18 68.47, 182.82 51.06, 203.65 27.3 M166.39 82.36 C178.08 71.26, 187.86 55.37, 211.65 30.29 M166.39 82.36 C178.17 70.15, 189.56 56.7, 211.65 30.29 M181.61 77.04 C196.71 60.52, 208.93 41.79, 219.66 33.27 M181.61 77.04 C196.63 61.81, 210.98 45.55, 219.66 33.27 M196.18 72.48 C204.15 62.25, 213.94 50.73, 227.67 36.26 M196.18 72.48 C207.01 58.76, 218.88 47.66, 227.67 36.26 M210.74 67.92 C216.91 60.27, 225.69 51.79, 236.33 38.49 M210.74 67.92 C216.06 61.41, 220.04 55.87, 236.33 38.49 M228.59 59.58 C232.62 54.09, 233.69 51.46, 243.68 42.22 M228.59 59.58 C233.41 52.83, 238.38 46.67, 243.68 42.22" stroke="#ff79c6" stroke-width="1" fill="none"></path><path d="M161.25 11.25 M161.25 11.25 C180.84 16.68, 198.91 23.19, 224.75 33.75 M161.25 11.25 C184.27 20.15, 206.99 28.82, 224.75 33.75 M224.75 33.75 C255.74 44.12, 256.75 45.96, 224.75 56.25 M224.75 33.75 C258.61 44.16, 257.71 46.52, 224.75 56.25 M224.75 56.25 C201.44 63.81, 181.99 70.11, 161.25 76.75 M224.75 56.25 C210.31 60.45, 196.53 64.59, 161.25 76.75 M161.25 76.75 C128.28 86.35, 128.05 86.05, 96.75 76.75 M161.25 76.75 C131.25 87.76, 131.04 88, 96.75 76.75 M96.75 76.75 C79.25 71.87, 67.06 68.74, 32.25 56.25 M96.75 76.75 C78.93 71.25, 62.16 65.73, 32.25 56.25 M32.25 56.25 C-1.3 44, 0.58 44.9, 32.25 33.75 M32.25 56.25 C1.92 45.95, 0.76 44.19, 32.25 33.75 M32.25 33.75 C47.6 27.3, 65.12 23.59, 96.75 11.25 M32.25 33.75 C54.25 26.11, 78.88 17.77, 96.75 11.25 M96.75 11.25 C127.96 -1.34, 129.13 0.26, 161.25 11.25 M96.75 11.25 C126.98 0.27, 129.97 1.38, 161.25 11.25" stroke="#f8f8f2" stroke-width="2" fill="none"></path></g><g transform="translate(128.671875 310) rotate(0 17.578125 12)"><text x="17.578125" y="0" font-family="Cascadia, Segoe UI Emoji" font-size="20px" fill="#f8f8f2" text-anchor="middle" style="white-space: pre;" direction="ltr" dominant-baseline="text-before-edge">i2o</text></g><g stroke-linecap="round" transform="translate(346 278) rotate(0 128.5 44)"><path d="M7.85 45.25 C7.85 45.25, 7.85 45.25, 7.85 45.25 M7.85 45.25 C7.85 45.25, 7.85 45.25, 7.85 45.25 M14.54 49.74 C16.4 47.3, 19.43 46.09, 23.73 39.18 M14.54 49.74 C17.59 45.8, 20.8 41.73, 23.73 39.18 M22.55 52.73 C27.42 46.67, 34.78 38.96, 38.95 33.86 M22.55 52.73 C26.29 48.84, 29.75 45.67, 38.95 33.86 M30.55 55.71 C36.78 47.42, 44.94 41.5, 53.52 29.29 M30.55 55.71 C38.23 47.02, 47.2 36.85, 53.52 29.29 M37.25 60.2 C43.38 50.94, 52.17 46.29, 68.74 23.98 M37.25 60.2 C49.76 47.28, 60.59 32.81, 68.74 23.98 M45.25 63.19 C57.43 51.08, 69.14 33.81, 83.96 18.66 M45.25 63.19 C60.36 45.19, 74.33 29.18, 83.96 18.66 M53.91 65.42 C70.76 47.76, 84.47 30.3, 98.53 14.1 M53.91 65.42 C63.17 55.56, 72.66 43.83, 98.53 14.1 M61.92 68.4 C72.55 55.62, 83.14 41.33, 113.75 8.78 M61.92 68.4 C74.09 56.54, 84.44 42.52, 113.75 8.78 M69.93 71.39 C85.55 54, 97.23 40.91, 126.35 6.48 M69.93 71.39 C86.09 51.82, 104.23 32.84, 126.35 6.48 M78.59 73.62 C94.89 57.08, 110.06 36.01, 137.63 5.69 M78.59 73.62 C95.84 52.62, 114.24 30.85, 137.63 5.69 M86.59 76.6 C105.29 52.92, 124.3 30.49, 146.3 7.92 M86.59 76.6 C110.41 48.22, 133.36 21.67, 146.3 7.92 M95.26 78.83 C109.62 63.31, 121.22 49.52, 154.3 10.91 M95.26 78.83 C110.19 60.96, 124.68 44.67, 154.3 10.91 M103.26 81.81 C120.95 60.6, 136.73 41.25, 162.96 13.14 M103.26 81.81 C122.4 61.56, 140.25 40.8, 162.96 13.14 M113.24 82.53 C133.49 61.84, 148.55 39.74, 170.97 16.12 M113.24 82.53 C130.95 63.12, 149.13 41.4, 170.97 16.12 M121.9 84.76 C141.47 59.61, 162.75 34.63, 179.63 18.35 M121.9 84.76 C141.98 62.61, 160.73 38.16, 179.63 18.35 M130.56 86.99 C151.26 67.91, 165.91 46.92, 187.64 21.33 M130.56 86.99 C143.67 70.98, 156.82 55.16, 187.64 21.33 M143.81 83.94 C154.72 68.64, 167.98 58.18, 195.64 24.32 M143.81 83.94 C160.61 63.54, 179.41 42.49, 195.64 24.32 M151.82 86.92 C168.61 71.55, 179.82 51.99, 203.65 27.3 M151.82 86.92 C168.71 67.25, 186.43 48.29, 203.65 27.3 M166.39 82.36 C177.48 65.8, 191.34 52.38, 211.65 30.29 M166.39 82.36 C176.96 71.23, 185.64 60.24, 211.65 30.29 M181.61 77.04 C194.31 59.73, 208.07 43.93, 219.66 33.27 M181.61 77.04 C194.99 62.43, 208.79 47.56, 219.66 33.27 M196.18 72.48 C204.01 63.34, 213.08 54.05, 227.67 36.26 M196.18 72.48 C208.93 58.86, 220.02 45.46, 227.67 36.26 M210.74 67.92 C217.01 60.47, 224.14 55.54, 236.33 38.49 M210.74 67.92 C219.74 57.28, 229.02 46.71, 236.33 38.49 M228.59 59.58 C232.69 54.52, 238.76 48.02, 243.68 42.22 M228.59 59.58 C234.23 53.86, 239.6 47.14, 243.68 42.22" stroke="#ff79c6" stroke-width="1" fill="none"></path><path d="M161.25 11.25 M161.25 11.25 C174.63 16.42, 188.46 19.64, 224.75 33.75 M161.25 11.25 C180.48 18.28, 200.17 25.99, 224.75 33.75 M224.75 33.75 C255.75 46.58, 256.07 43.41, 224.75 56.25 M224.75 33.75 C258.52 43.03, 259.19 46.87, 224.75 56.25 M224.75 56.25 C205.27 63.34, 182.84 71.42, 161.25 76.75 M224.75 56.25 C201.01 64.63, 175.99 72.49, 161.25 76.75 M161.25 76.75 C128.43 89.25, 128.59 87.65, 96.75 76.75 M161.25 76.75 C128.59 85.78, 130.29 90.06, 96.75 76.75 M96.75 76.75 C74.08 69.3, 53.48 64.06, 32.25 56.25 M96.75 76.75 C78.11 70.82, 61.08 65.97, 32.25 56.25 M32.25 56.25 C0.02 45.07, -0.5 43.87, 32.25 33.75 M32.25 56.25 C1.4 45.32, -0.21 43.24, 32.25 33.75 M32.25 33.75 C55.06 27.78, 78.47 15.62, 96.75 11.25 M32.25 33.75 C45.79 28.78, 60.72 24.41, 96.75 11.25 M96.75 11.25 C128.49 -1.52, 130.91 -1.62, 161.25 11.25 M96.75 11.25 C130.48 1.27, 130.59 1.97, 161.25 11.25" stroke="#f8f8f2" stroke-width="2" fill="none"></path></g><g transform="translate(457.171875 310) rotate(0 17.578125 12)"><text x="17.578125" y="0" font-family="Cascadia, Segoe UI Emoji" font-size="20px" fill="#f8f8f2" text-anchor="middle" style="white-space: pre;" direction="ltr" dominant-baseline="text-before-edge">i2h</text></g><g stroke-linecap="round" transform="translate(13 418) rotate(0 128.5 44)"><path d="M7.85 45.25 C7.85 45.25, 7.85 45.25, 7.85 45.25 M7.85 45.25 C7.85 45.25, 7.85 45.25, 7.85 45.25 M14.54 49.74 C16.2 46.31, 19.51 41.62, 23.73 39.18 M14.54 49.74 C18.11 46.4, 21.51 42.36, 23.73 39.18 M22.55 52.73 C27.91 45.88, 31.78 41.66, 38.95 33.86 M22.55 52.73 C26.62 46.31, 32.92 40.36, 38.95 33.86 M30.55 55.71 C37.32 49.53, 42.61 43.2, 53.52 29.29 M30.55 55.71 C38.05 47.14, 45.12 37.96, 53.52 29.29 M37.25 60.2 C45.87 49.56, 57.3 39.91, 68.74 23.98 M37.25 60.2 C44.42 51.13, 53.3 41.63, 68.74 23.98 M45.25 63.19 C60.61 48.28, 71.35 31.83, 83.96 18.66 M45.25 63.19 C55.38 52.03, 65.59 41, 83.96 18.66 M53.91 65.42 C67.07 50.74, 79.31 33.72, 98.53 14.1 M53.91 65.42 C68.73 49.92, 82.43 32.45, 98.53 14.1 M61.92 68.4 C83.5 43.37, 103.65 20.18, 113.75 8.78 M61.92 68.4 C81.54 46.04, 101.63 23.68, 113.75 8.78 M69.93 71.39 C91.04 47.29, 110.15 23.62, 126.35 6.48 M69.93 71.39 C88.62 49.39, 107.19 28.57, 126.35 6.48 M78.59 73.62 C97.47 53.3, 116.14 30.72, 137.63 5.69 M78.59 73.62 C93.24 56.96, 109.87 39.08, 137.63 5.69 M86.59 76.6 C102.9 57.35, 120.53 40.46, 146.3 7.92 M86.59 76.6 C109.84 49.93, 132.93 22.42, 146.3 7.92 M95.26 78.83 C116.43 52.39, 139.3 31.51, 154.3 10.91 M95.26 78.83 C115.79 55.53, 137 33.01, 154.3 10.91 M103.26 81.81 C118.04 61.36, 135.91 44.04, 162.96 13.14 M103.26 81.81 C120.63 61.91, 139.29 40.56, 162.96 13.14 M113.24 82.53 C124.82 67.19, 140.59 52.14, 170.97 16.12 M113.24 82.53 C125.93 69, 137.38 56.65, 170.97 16.12 M121.9 84.76 C144.2 60.32, 163.8 39.78, 179.63 18.35 M121.9 84.76 C143.58 59.7, 164.89 34.49, 179.63 18.35 M130.56 86.99 C150.77 64.58, 170.19 45.69, 187.64 21.33 M130.56 86.99 C147.04 68.58, 162.98 50.56, 187.64 21.33 M143.81 83.94 C165.18 60.64, 184.41 38.97, 195.64 24.32 M143.81 83.94 C165.73 59.37, 185.64 35.33, 195.64 24.32 M151.82 86.92 C164.53 73.52, 174.66 61.13, 203.65 27.3 M151.82 86.92 C169.47 66.87, 187.61 46.31, 203.65 27.3 M166.39 82.36 C182.03 66.69, 192.33 52.36, 211.65 30.29 M166.39 82.36 C180.55 68.13, 193.83 51.89, 211.65 30.29 M181.61 77.04 C192.76 66.79, 199.69 52.88, 219.66 33.27 M181.61 77.04 C191.29 67.21, 199.44 58.22, 219.66 33.27 M196.18 72.48 C203.35 62.76, 208.27 55.67, 227.67 36.26 M196.18 72.48 C204.61 63, 212.44 53.41, 227.67 36.26 M210.74 67.92 C216.97 62.42, 220.46 55.04, 236.33 38.49 M210.74 67.92 C219.16 58.87, 227.06 50.9, 236.33 38.49 M228.59 59.58 C233.73 53.53, 235.41 50.13, 243.68 42.22 M228.59 59.58 C232.46 56.23, 235.27 53.24, 243.68 42.22" stroke="#bd93f9" stroke-width="1" fill="none"></path><path d="M161.25 11.25 M161.25 11.25 C180.01 16.96, 202.89 24.03, 224.75 33.75 M161.25 11.25 C173.58 16.19, 187.08 20.73, 224.75 33.75 M224.75 33.75 C258.56 43.06, 255.1 43.08, 224.75 56.25 M224.75 33.75 C258.94 46.77, 257.56 45.53, 224.75 56.25 M224.75 56.25 C203.05 65.48, 179.05 70.81, 161.25 76.75 M224.75 56.25 C202.07 64.29, 178.1 71.4, 161.25 76.75 M161.25 76.75 C130.14 88.66, 130.58 88.52, 96.75 76.75 M161.25 76.75 C128.19 89.91, 128.23 89.41, 96.75 76.75 M96.75 76.75 C74.2 68.22, 50 60.91, 32.25 56.25 M96.75 76.75 C75.58 69.21, 52.57 62.29, 32.25 56.25 M32.25 56.25 C-1.68 45.33, -0.76 43.14, 32.25 33.75 M32.25 56.25 C1.48 44.36, -1.88 43.3, 32.25 33.75 M32.25 33.75 C48.3 26.99, 64.28 22.24, 96.75 11.25 M32.25 33.75 C51.12 26.15, 70.89 20.6, 96.75 11.25 M96.75 11.25 C129.79 0.93, 129.64 -1.07, 161.25 11.25 M96.75 11.25 C127.95 -1.12, 127.76 0.69, 161.25 11.25" stroke="#f8f8f2" stroke-width="2" fill="none"></path></g><g transform="translate(100.734375 450) rotate(0 41.015625 12)"><text x="41.015625" y="0" font-family="Cascadia, Segoe UI Emoji" font-size="20px" fill="#f8f8f2" text-anchor="middle" style="white-space: pre;" direction="ltr" dominant-baseline="text-before-edge">softmax</text></g><g stroke-linecap="round" transform="translate(10 554) rotate(0 129.5 38)"><path d="M2.57 7.54 C2.57 7.54, 2.57 7.54, 2.57 7.54 M2.57 7.54 C2.57 7.54, 2.57 7.54, 2.57 7.54 M4.02 18.07 C9.17 9.87, 16.11 7.31, 19.11 0.71 M4.02 18.07 C9.07 12.06, 15.1 6.99, 19.11 0.71 M4.15 30.11 C9.37 20.63, 17.86 14.11, 29.74 0.67 M4.15 30.11 C11.27 21.93, 19.67 12.38, 29.74 0.67 M4.28 42.15 C11.2 32.18, 22.13 22.69, 40.37 0.64 M4.28 42.15 C12.36 33.56, 19.4 26.28, 40.37 0.64 M4.42 54.19 C22.78 34.15, 38.47 18.11, 51 0.61 M4.42 54.19 C22.09 33.94, 39.28 13.47, 51 0.61 M5.21 65.48 C25.19 43.32, 44.4 24.67, 61.63 0.57 M5.21 65.48 C21.51 47.27, 37.27 29.46, 61.63 0.57 M7.96 74.5 C34.02 46.03, 57.84 19.08, 72.26 0.54 M7.96 74.5 C34.93 44.2, 59.82 14.44, 72.26 0.54 M15.31 78.24 C31.28 61.06, 44.6 45.01, 82.89 0.5 M15.31 78.24 C38.44 51.93, 61.91 25.23, 82.89 0.5 M23.98 80.47 C46.98 56.58, 64.56 33.88, 93.52 0.47 M23.98 80.47 C45.41 58.11, 65.84 33.64, 93.52 0.47 M34.61 80.43 C53.68 60.95, 68.83 37.6, 104.15 0.43 M34.61 80.43 C51.74 62.65, 66.98 45.51, 104.15 0.43 M45.24 80.4 C60.76 61.22, 73.87 44.71, 114.78 0.4 M45.24 80.4 C63.67 59.6, 81.42 38.6, 114.78 0.4 M55.87 80.36 C71.59 63.26, 84.99 44.48, 125.41 0.36 M55.87 80.36 C77.76 55.89, 98.72 32.9, 125.41 0.36 M66.5 80.33 C86.79 56.13, 103.96 34.91, 136.04 0.33 M66.5 80.33 C81.4 64.29, 95.2 48.65, 136.04 0.33 M77.13 80.29 C97.02 53.53, 121.82 28.12, 146.67 0.3 M77.13 80.29 C90.74 63.75, 105.51 46.86, 146.67 0.3 M87.76 80.26 C112.91 52.35, 142.67 20.9, 157.3 0.26 M87.76 80.26 C110.48 55.85, 132.81 29.59, 157.3 0.26 M98.39 80.23 C115.6 60.69, 134.47 38.79, 167.93 0.23 M98.39 80.23 C120.7 54.97, 141.53 30.26, 167.93 0.23 M109.02 80.19 C126.8 58.04, 146.7 36.2, 178.56 0.19 M109.02 80.19 C131.4 53.49, 155.7 26.75, 178.56 0.19 M119.65 80.16 C138.48 59.1, 154.44 40.26, 189.19 0.16 M119.65 80.16 C138.75 59.39, 157.39 37.07, 189.19 0.16 M130.28 80.12 C145.72 63.01, 161.1 44.01, 199.82 0.12 M130.28 80.12 C146.53 62.29, 162.06 43.34, 199.82 0.12 M140.91 80.09 C159.59 61.67, 175.11 38.8, 210.45 0.09 M140.91 80.09 C157.8 61.76, 174.25 44.16, 210.45 0.09 M151.54 80.05 C164.86 64.81, 180 47.26, 221.08 0.05 M151.54 80.05 C172.51 54.84, 195.23 30.07, 221.08 0.05 M162.17 80.02 C180.2 57.38, 196.15 36.76, 231.71 0.02 M162.17 80.02 C179.19 59.91, 196.75 39.48, 231.71 0.02 M172.14 80.74 C191.52 58.07, 212.38 34.16, 241.03 1.49 M172.14 80.74 C186.29 63.73, 200.03 47.81, 241.03 1.49 M182.77 80.7 C208.3 48.93, 234.18 19.11, 250.34 2.97 M182.77 80.7 C201.49 57.39, 221.26 35.36, 250.34 2.97 M193.4 80.67 C210.45 62.77, 227.04 39.25, 257.04 7.46 M193.4 80.67 C217.78 52.26, 243.04 22.2, 257.04 7.46 M204.03 80.64 C221.37 62.45, 236.09 46.68, 260.45 15.73 M204.03 80.64 C224.5 54.46, 247.49 30.07, 260.45 15.73 M214.66 80.6 C232.33 59.09, 249.47 37.77, 260.59 27.77 M214.66 80.6 C226.87 64.07, 241.91 49.4, 260.59 27.77 M225.29 80.57 C233.68 74.21, 240.32 64.1, 260.72 39.81 M225.29 80.57 C235.84 68.44, 246.44 55.68, 260.72 39.81 M235.92 80.53 C239.74 72.2, 246.42 69.27, 260.85 51.85 M235.92 80.53 C241.13 74.55, 245.66 69.44, 260.85 51.85" stroke="#ffb86c" stroke-width="1" fill="none"></path><path d="M19 0 M19 0 C72.74 1.38, 126.21 0.09, 240 0 M19 0 C87.71 0.93, 157.68 1.15, 240 0 M240 0 C251.49 1.09, 257.99 4.65, 259 19 M240 0 C250.39 0.21, 256.79 7.13, 259 19 M259 19 C257.86 31.8, 260.2 41.48, 259 57 M259 19 C259.38 30.87, 259.62 41.4, 259 57 M259 57 C257.03 70.01, 250.7 76.48, 240 76 M259 57 C260.3 70.91, 250.78 77.49, 240 76 M240 76 C178.91 76.98, 122.7 77.55, 19 76 M240 76 C180.56 74.97, 122.1 75.43, 19 76 M19 76 C6.48 76.35, -1.43 69.17, 0 57 M19 76 C8.56 75.23, -2.13 69.81, 0 57 M0 57 C-1.76 40.71, 1.27 29.27, 0 19 M0 57 C-0.44 45.55, -0.26 32.71, 0 19 M0 19 C-1.14 5.32, 6.49 1.39, 19 0 M0 19 C2.14 7.56, 7.21 -0.67, 19 0" stroke="#f8f8f2" stroke-width="2" fill="none"></path></g><g transform="translate(104.34375 580) rotate(0 35.15625 12)"><text x="35.15625" y="0" font-family="Cascadia, Segoe UI Emoji" font-size="20px" fill="#f8f8f2" text-anchor="middle" style="white-space: pre;" direction="ltr" dominant-baseline="text-before-edge">output</text></g><g stroke-linecap="round" transform="translate(340 490) rotate(0 129.5 38)"><path d="M2.57 7.54 C2.57 7.54, 2.57 7.54, 2.57 7.54 M2.57 7.54 C2.57 7.54, 2.57 7.54, 2.57 7.54 M4.02 18.07 C8.72 10.12, 15.42 4.73, 19.11 0.71 M4.02 18.07 C6.21 13.78, 9.66 11.44, 19.11 0.71 M4.15 30.11 C9.54 23.08, 15.57 17.46, 29.74 0.67 M4.15 30.11 C11.85 21.77, 20.42 12.71, 29.74 0.67 M4.28 42.15 C15.51 27.45, 29.07 16.3, 40.37 0.64 M4.28 42.15 C11.49 32.6, 20.38 23.89, 40.37 0.64 M4.42 54.19 C19.33 35.95, 32.67 21.36, 51 0.61 M4.42 54.19 C18.12 39.76, 30.51 24.04, 51 0.61 M5.21 65.48 C22.77 45.47, 42.55 20.38, 61.63 0.57 M5.21 65.48 C17.54 52.33, 28.46 39.24, 61.63 0.57 M7.96 74.5 C26.76 53.23, 42.39 34.88, 72.26 0.54 M7.96 74.5 C23.97 57.15, 40.01 37.76, 72.26 0.54 M15.31 78.24 C38.97 50.32, 62.34 21.54, 82.89 0.5 M15.31 78.24 C33.58 58.79, 50.42 37.44, 82.89 0.5 M23.98 80.47 C45.94 55.46, 67.3 33, 93.52 0.47 M23.98 80.47 C41.41 60.28, 57.91 40.99, 93.52 0.47 M34.61 80.43 C50.12 62.47, 70.33 41.72, 104.15 0.43 M34.61 80.43 C62.32 49.25, 87.74 16.81, 104.15 0.43 M45.24 80.4 C67.85 52.64, 92.84 23.63, 114.78 0.4 M45.24 80.4 C62.98 62.5, 77.78 42.13, 114.78 0.4 M55.87 80.36 C81.37 49.16, 108.81 22.84, 125.41 0.36 M55.87 80.36 C76.29 56.13, 97.04 32.58, 125.41 0.36 M66.5 80.33 C80.07 64.9, 92.53 46.63, 136.04 0.33 M66.5 80.33 C84.04 59.46, 103.58 37.47, 136.04 0.33 M77.13 80.29 C93.89 61.49, 107.78 44.56, 146.67 0.3 M77.13 80.29 C91.92 64.02, 105 48.87, 146.67 0.3 M87.76 80.26 C115.83 47.76, 140.79 14.9, 157.3 0.26 M87.76 80.26 C109.99 55.92, 131.04 29.89, 157.3 0.26 M98.39 80.23 C123.8 51.79, 152.01 20.61, 167.93 0.23 M98.39 80.23 C124.23 48.9, 151.34 17.79, 167.93 0.23 M109.02 80.19 C134.69 51.61, 157.85 24.18, 178.56 0.19 M109.02 80.19 C123.46 63.1, 136.21 46.73, 178.56 0.19 M119.65 80.16 C139.91 57.7, 158.51 34, 189.19 0.16 M119.65 80.16 C137.07 58.45, 157.99 37.15, 189.19 0.16 M130.28 80.12 C159.96 50.72, 186.32 18.15, 199.82 0.12 M130.28 80.12 C151.66 55.13, 172.45 30.25, 199.82 0.12 M140.91 80.09 C162.84 55.56, 182.61 30.44, 210.45 0.09 M140.91 80.09 C166.57 51.28, 191.7 23.68, 210.45 0.09 M151.54 80.05 C175.82 54.09, 198.86 27.15, 221.08 0.05 M151.54 80.05 C170.51 58.47, 189.17 35.04, 221.08 0.05 M162.17 80.02 C184.42 51.01, 208.15 24.94, 231.71 0.02 M162.17 80.02 C179.69 59.66, 197.42 39.79, 231.71 0.02 M172.14 80.74 C194.02 56.99, 212.41 32.08, 241.03 1.49 M172.14 80.74 C189.69 59.58, 208.13 39.88, 241.03 1.49 M182.77 80.7 C206.49 53.91, 231.24 29.5, 250.34 2.97 M182.77 80.7 C199.51 60.93, 216.43 41.49, 250.34 2.97 M193.4 80.67 C212.73 57.63, 234.32 37.91, 257.04 7.46 M193.4 80.67 C213.62 57.6, 235.66 33.64, 257.04 7.46 M204.03 80.64 C226.15 54.39, 247.87 31.06, 260.45 15.73 M204.03 80.64 C225.55 58.3, 244.77 33.94, 260.45 15.73 M214.66 80.6 C226.62 67.53, 241.1 51.42, 260.59 27.77 M214.66 80.6 C224.88 69.53, 234.88 57.34, 260.59 27.77 M225.29 80.57 C235.09 71.79, 239.86 60.5, 260.72 39.81 M225.29 80.57 C235.13 67.58, 247.42 55.96, 260.72 39.81 M235.92 80.53 C243.66 75.37, 247.27 65.88, 260.85 51.85 M235.92 80.53 C246.08 69.16, 255.79 57.78, 260.85 51.85" stroke="#ffb86c" stroke-width="1" fill="none"></path><path d="M19 0 M19 0 C98.39 0.09, 178.05 -0.53, 240 0 M19 0 C74.98 0.56, 132.24 0.71, 240 0 M240 0 C252.24 -0.8, 260.24 7.8, 259 19 M240 0 C252.7 1.04, 260.73 4.22, 259 19 M259 19 C260.84 34.63, 261.18 49.58, 259 57 M259 19 C258.59 31.84, 258.54 43.82, 259 57 M259 57 C259.97 70.52, 253.73 76.37, 240 76 M259 57 C258.59 71.71, 251.66 74.67, 240 76 M240 76 C167.65 74.28, 95.74 74.06, 19 76 M240 76 C160.63 76.52, 79.96 76.41, 19 76 M19 76 C5.97 77.21, 1.12 69.39, 0 57 M19 76 C6.4 77.39, -0.3 70.32, 0 57 M0 57 C1.35 48.8, 1.45 41.13, 0 19 M0 57 C0.25 43.86, -0.95 31.52, 0 19 M0 19 C1.4 6.35, 7.43 -0.62, 19 0 M0 19 C-1.34 5.4, 4.95 -0.63, 19 0" stroke="#f8f8f2" stroke-width="2" fill="none"></path></g><g transform="translate(434.34375 516) rotate(0 35.15625 12)"><text x="35.15625" y="0" font-family="Cascadia, Segoe UI Emoji" font-size="20px" fill="#f8f8f2" text-anchor="middle" style="white-space: pre;" direction="ltr" dominant-baseline="text-before-edge">hidden</text></g><g stroke-linecap="round"><g transform="translate(153.71606781045512 98) rotate(0 -0.7398629692742702 21.158175602620474)"><path d="M0.6 0.09 C0.4 6.97, -0.85 34.8, -1.24 42.14 M-0.55 -0.92 C-0.88 6.03, -1.72 36.01, -2.08 43.23" stroke="#f8f8f2" stroke-width="2" fill="none"></path></g><g transform="translate(153.71606781045512 98) rotate(0 -0.7398629692742702 21.158175602620474)"><path d="M-8.54 23.11 C-8.02 28.28, -2.7 34.16, -3.93 43.36 M-9.41 21.98 C-5.18 31.5, -3.22 38.99, -2.02 42.95" stroke="#f8f8f2" stroke-width="2" fill="none"></path></g><g transform="translate(153.71606781045512 98) rotate(0 -0.7398629692742702 21.158175602620474)"><path d="M6.17 23.65 C2.34 28.73, 3.31 34.46, -3.93 43.36 M5.29 22.52 C3.82 31.97, 0.08 39.25, -2.02 42.95" stroke="#f8f8f2" stroke-width="2" fill="none"></path></g></g><mask></mask><g stroke-linecap="round"><g transform="translate(333.5 121) rotate(0 -77.49010256040378 2.853035746375724)"><path d="M1.17 0.47 C-15.98 -1.84, -76.19 -16.82, -102.26 -13.72 C-128.33 -10.63, -146.57 13.58, -155.25 19.04 M0.33 -0.33 C-16.98 -2.51, -76.74 -15.93, -102.82 -12.57 C-128.9 -9.2, -147.65 14.48, -156.15 19.85" stroke="#f8f8f2" stroke-width="2" fill="none"></path></g><g transform="translate(333.5 121) rotate(0 -77.49010256040378 2.853035746375724)"><path d="M-140.46 -4.95 C-147.72 2.79, -153.41 13.47, -157.77 20.78 M-141.9 -6.2 C-146.01 2.81, -150.96 10.69, -155.73 20.63" stroke="#f8f8f2" stroke-width="2" fill="none"></path></g><g transform="translate(333.5 121) rotate(0 -77.49010256040378 2.853035746375724)"><path d="M-127.21 10.73 C-139.19 13.03, -149.59 18.14, -157.77 20.78 M-128.66 9.48 C-136.71 13.63, -145.75 16.67, -155.73 20.63" stroke="#f8f8f2" stroke-width="2" fill="none"></path></g></g><mask></mask><g stroke-linecap="round"><g transform="translate(147.7511562596651 233) rotate(0 -0.9121841748275301 20.305812938460747)"><path d="M-1.1 -0.72 C-1.21 6.13, -1.68 34.25, -1.78 41.34 M0.52 1.51 C0.42 7.96, -1.91 32.94, -2.34 39.32" stroke="#f8f8f2" stroke-width="2" fill="none"></path></g><g transform="translate(147.7511562596651 233) rotate(0 -0.9121841748275301 20.305812938460747)"><path d="M-9.01 20.69 C-6.31 24.89, -4.43 26.75, -1.74 41.25 M-7.4 20.1 C-5.43 26.36, -3.22 34.06, -1.42 39.94" stroke="#f8f8f2" stroke-width="2" fill="none"></path></g><g transform="translate(147.7511562596651 233) rotate(0 -0.9121841748275301 20.305812938460747)"><path d="M5.03 21.82 C4.86 25.67, 3.87 27.3, -1.74 41.25 M6.65 21.24 C3.19 26.97, -0.02 34.23, -1.42 39.94" stroke="#f8f8f2" stroke-width="2" fill="none"></path></g></g><mask></mask><g stroke-linecap="round"><g transform="translate(164.43205862212585 234.00000000000006) rotate(0 149.4964330640459 17.526178031362974)"><path d="M0.1 -0.13 C50.04 5.52, 250.38 29.07, 300.3 35.12 M-1.31 -1.25 C48.39 5.06, 248.62 30.42, 299.17 36.3" stroke="#f8f8f2" stroke-width="2" fill="none"></path></g><g transform="translate(164.43205862212585 234.00000000000006) rotate(0 149.4964330640459 17.526178031362974)"><path d="M269.72 42.51 C279.13 38.97, 291.28 37.83, 300.29 37.68 M269.93 42.42 C278.17 40.95, 283.87 40.57, 299.9 35.47" stroke="#f8f8f2" stroke-width="2" fill="none"></path></g><g transform="translate(164.43205862212585 234.00000000000006) rotate(0 149.4964330640459 17.526178031362974)"><path d="M272.21 22.14 C280.93 25.84, 292.2 31.94, 300.29 37.68 M272.42 22.05 C280.16 25.65, 285.24 30.35, 299.9 35.47" stroke="#f8f8f2" stroke-width="2" fill="none"></path></g></g><mask></mask><g stroke-linecap="round"><g transform="translate(474.6207693438032 375.4599785648064) rotate(0 -1.6957957594047457 52.245119303615695)"><path d="M-0.23 -0.21 C-0.75 17.11, -3.02 87.14, -3.16 104.74 M-1.81 -1.37 C-1.96 16.01, -1.04 87.86, -0.94 105.86" stroke="#f8f8f2" stroke-width="2" fill="none"></path></g><g transform="translate(474.6207693438032 375.4599785648064) rotate(0 -1.6957957594047457 52.245119303615695)"><path d="M-11.81 76.21 C-9.48 88.06, -5.28 93.45, -2.14 107.74 M-11.91 76.94 C-9.98 84.42, -7.48 90.34, -0.2 106.23" stroke="#f8f8f2" stroke-width="2" fill="none"></path></g><g transform="translate(474.6207693438032 375.4599785648064) rotate(0 -1.6957957594047457 52.245119303615695)"><path d="M8.71 76.01 C4.96 87.88, 3.07 93.33, -2.14 107.74 M8.61 76.75 C6.06 84.23, 4.08 90.19, -0.2 106.23" stroke="#f8f8f2" stroke-width="2" fill="none"></path></g></g><mask></mask><g stroke-linecap="round"><g transform="translate(612.5 520.806841505131) rotate(0 45.30950694520857 -201.66639718441218)"><path d="M0.05 0.41 C15.26 -34.34, 91.39 -139.95, 91.99 -207.31 C92.59 -274.67, 18.67 -371.25, 3.66 -403.74 M-1.38 -0.42 C13.61 -35.03, 90.27 -142.09, 91.04 -209.17 C91.81 -276.25, 18.15 -370.36, 3.24 -402.92" stroke="#f8f8f2" stroke-width="2" fill="none"></path></g><g transform="translate(612.5 520.806841505131) rotate(0 45.30950694520857 -201.66639718441218)"><path d="M27.09 -383.86 C18.66 -389.64, 7.89 -399.42, 4.15 -402.13 M26.89 -384.83 C19.81 -388.06, 15.48 -392.93, 3.42 -402.36" stroke="#f8f8f2" stroke-width="2" fill="none"></path></g><g transform="translate(612.5 520.806841505131) rotate(0 45.30950694520857 -201.66639718441218)"><path d="M9.41 -373.43 C7.28 -383, 2.91 -396.55, 4.15 -402.13 M9.22 -374.4 C6.52 -380.14, 6.62 -387.63, 3.42 -402.36" stroke="#f8f8f2" stroke-width="2" fill="none"></path></g></g><mask></mask><g stroke-linecap="round"><g transform="translate(143.5 373.9967959295225) rotate(0 -0.33805452677887615 20.652513405223715)"><path d="M0.82 1.04 C0.67 7.5, -0.26 32.91, -0.36 39.49 M-0.22 0.54 C-0.59 7.09, -1.46 34.43, -1.49 40.76" stroke="#f8f8f2" stroke-width="2" fill="none"></path></g><g transform="translate(143.5 373.9967959295225) rotate(0 -0.33805452677887615 20.652513405223715)"><path d="M-6.19 21.23 C-6.46 28.63, -2.48 35.76, -0.39 42.29 M-8.19 21.78 C-6.7 27.12, -4.26 34.52, -2.07 41.73" stroke="#f8f8f2" stroke-width="2" fill="none"></path></g><g transform="translate(143.5 373.9967959295225) rotate(0 -0.33805452677887615 20.652513405223715)"><path d="M7.49 21.52 C2.54 28.91, 1.84 35.95, -0.39 42.29 M5.49 22.07 C2.62 27.45, 0.71 34.76, -2.07 41.73" stroke="#f8f8f2" stroke-width="2" fill="none"></path></g></g><mask></mask><g stroke-linecap="round"><g transform="translate(139.5 513.9693659538711) rotate(0 -0.6025538323142996 15.914546760053781)"><path d="M0.35 -0.26 C0.42 5.12, -0.25 26.48, -0.4 32.18 M-0.93 -1.45 C-0.98 4.07, -1.44 27.68, -1.56 33.28" stroke="#f8f8f2" stroke-width="2" fill="none"></path></g><g transform="translate(139.5 513.9693659538711) rotate(0 -0.6025538323142996 15.914546760053781)"><path d="M-7.26 17.1 C-6.83 20.47, -3.13 24.26, -1.72 32.28 M-6.69 16.93 C-4.97 21.24, -4.62 25.18, -1.23 33.47" stroke="#f8f8f2" stroke-width="2" fill="none"></path></g><g transform="translate(139.5 513.9693659538711) rotate(0 -0.6025538323142996 15.914546760053781)"><path d="M4.04 17.32 C1.84 20.68, 2.91 24.42, -1.72 32.28 M4.61 17.16 C3.39 21.42, 0.81 25.31, -1.23 33.47" stroke="#f8f8f2" stroke-width="2" fill="none"></path></g></g><mask></mask></svg>