<svg version="1.1" xmlns="http://www.w3.org/2000/svg" viewBox="0 0 715.2827113381259 640" width="715.2827113381259" height="640">
  <!-- svg-source:excalidraw -->
  
  <defs>
    <style class="style-fonts">
      @font-face {
        font-family: "Virgil";
        src: url("https://excalidraw.com/Virgil.woff2");
      }
      @font-face {
        font-family: "Cascadia";
        src: url("https://excalidraw.com/Cascadia.woff2");
      }
    </style>
  </defs>
  <g stroke-linecap="round" transform="translate(26.5 10) rotate(0 129.5 38)"><path d="M2.57 7.54 C2.57 7.54, 2.57 7.54, 2.57 7.54 M2.57 7.54 C2.57 7.54, 2.57 7.54, 2.57 7.54 M10.06 23.32 C14.7 17.76, 18.39 11.66, 25.14 5.96 M10.06 23.32 C15.08 17.08, 22.31 11.18, 25.14 5.96 M10.32 47.4 C20.19 35.99, 33.11 20.44, 46.4 5.89 M10.32 47.4 C22.29 32.58, 35.69 17.95, 46.4 5.89 M7.96 74.5 C21.84 58.48, 39.57 40.34, 67.67 5.82 M7.96 74.5 C23.87 55.08, 40.45 36.63, 67.67 5.82 M23.98 80.47 C49.84 53.93, 72.97 23.82, 88.93 5.75 M23.98 80.47 C39.63 63.29, 54.29 46.16, 88.93 5.75 M45.24 80.4 C63.66 57.76, 83.97 35.8, 110.19 5.68 M45.24 80.4 C67.69 53.67, 90.65 27.59, 110.19 5.68 M66.5 80.33 C89.44 54.16, 110.37 31.34, 131.45 5.61 M66.5 80.33 C86.9 57.58, 106.27 35.55, 131.45 5.61 M87.76 80.26 C99.4 65.88, 113.39 49.08, 152.71 5.54 M87.76 80.26 C111.54 51.67, 135.48 23.88, 152.71 5.54 M109.02 80.19 C121.47 65.25, 136.33 48.49, 173.97 5.47 M109.02 80.19 C123.61 64.79, 136.24 48.99, 173.97 5.47 M130.28 80.12 C150.91 59.67, 167.9 34.48, 195.23 5.41 M130.28 80.12 C150.74 55.97, 172.31 30.91, 195.23 5.41 M151.54 80.05 C172.89 56.37, 196.5 29.72, 216.49 5.34 M151.54 80.05 C176.86 51.02, 202.33 21.88, 216.49 5.34 M172.14 80.74 C199.99 49.44, 226.84 17.42, 241.03 1.49 M172.14 80.74 C197.91 50.68, 223.24 21.8, 241.03 1.49 M193.4 80.67 C210.33 58.52, 229.92 36.52, 257.04 7.46 M193.4 80.67 C209.94 62.49, 227.99 42.37, 257.04 7.46 M214.66 80.6 C235.95 56.91, 252.11 36.42, 266.49 20.98 M214.66 80.6 C230.31 61.37, 247.32 42.23, 266.49 20.98 M235.92 80.53 C249.52 66.76, 258.69 55.38, 266.76 45.06 M235.92 80.53 C243.12 71.37, 251.29 62.23, 266.76 45.06" stroke="#ffb86c" stroke-width="2" fill="none"></path><path d="M19 0 M19 0 C76.13 1.79, 132.8 -0.57, 240 0 M19 0 C95.04 -0.55, 171.43 -0.44, 240 0 M240 0 C254.27 -1.41, 257.74 4.82, 259 19 M240 0 C253.9 -0.11, 259.53 5.28, 259 19 M259 19 C257.33 28.93, 260.04 37.1, 259 57 M259 19 C258.29 26.82, 259.95 34.36, 259 57 M259 57 C259.95 70.89, 250.97 76.6, 240 76 M259 57 C258.19 69.97, 250.46 75.75, 240 76 M240 76 C159.47 78.18, 75.59 77.8, 19 76 M240 76 C177.58 75.65, 117.2 75.91, 19 76 M19 76 C4.63 76.68, -1.6 69.25, 0 57 M19 76 C7.5 74.82, 0.96 69.09, 0 57 M0 57 C2.02 44.2, -0.27 35.61, 0 19 M0 57 C-0.6 43.37, 0.38 27.83, 0 19 M0 19 C0.39 7.92, 4.58 0.19, 19 0 M0 19 C-1.52 6.54, 5.36 1.19, 19 0" stroke="#f8f8f2" stroke-width="4" fill="none"></path></g><g transform="translate(114.984375 31.19999999999999) rotate(0 41.015625 16.799999999999997)"><text x="41.015625" y="0" font-family="Cascadia, Segoe UI Emoji" font-size="28px" fill="#f8f8f2" text-anchor="middle" style="white-space: pre;" direction="ltr" dominant-baseline="text-before-edge">input</text></g><g stroke-linecap="round" transform="translate(346 85) rotate(0 129.5 38)"><path d="M2.57 7.54 C2.57 7.54, 2.57 7.54, 2.57 7.54 M2.57 7.54 C2.57 7.54, 2.57 7.54, 2.57 7.54 M10.06 23.32 C15.3 15.45, 21.81 11.13, 25.14 5.96 M10.06 23.32 C14.94 19.65, 17.93 14.11, 25.14 5.96 M10.32 47.4 C24.06 30.96, 38.17 17.05, 46.4 5.89 M10.32 47.4 C23.81 32.28, 37.69 16.22, 46.4 5.89 M7.96 74.5 C21.74 60.8, 32.87 46.34, 67.67 5.82 M7.96 74.5 C27.1 52.84, 46.28 31.26, 67.67 5.82 M23.98 80.47 C45.87 53.86, 66.85 27.45, 88.93 5.75 M23.98 80.47 C43.67 57.62, 62.34 35.77, 88.93 5.75 M45.24 80.4 C61.86 61.44, 78.62 44.52, 110.19 5.68 M45.24 80.4 C69.71 52.53, 94.17 24.3, 110.19 5.68 M66.5 80.33 C83.99 61.31, 103.15 36.71, 131.45 5.61 M66.5 80.33 C84.93 59.35, 102.8 37.6, 131.45 5.61 M87.76 80.26 C100.93 63.47, 116.26 51.22, 152.71 5.54 M87.76 80.26 C101.51 63.81, 115.73 48.35, 152.71 5.54 M109.02 80.19 C122.74 64.33, 137.32 46.86, 173.97 5.47 M109.02 80.19 C126.48 59.31, 145.49 37.44, 173.97 5.47 M130.28 80.12 C149.96 54.3, 172.09 31, 195.23 5.41 M130.28 80.12 C146.82 60.57, 163.92 43.04, 195.23 5.41 M151.54 80.05 C173.19 56.55, 193.95 31.66, 216.49 5.34 M151.54 80.05 C167.43 61.7, 184.51 43.5, 216.49 5.34 M172.14 80.74 C196.38 52.21, 220.22 28.84, 241.03 1.49 M172.14 80.74 C190.09 60.37, 208.7 38.68, 241.03 1.49 M193.4 80.67 C217.91 51.79, 240.76 24.48, 257.04 7.46 M193.4 80.67 C214.96 56.7, 235.01 33.02, 257.04 7.46 M214.66 80.6 C227.34 64.34, 244.43 47.14, 266.49 20.98 M214.66 80.6 C229.4 63.6, 245.11 46.13, 266.49 20.98 M235.92 80.53 C245.8 69.68, 256.09 56.73, 266.76 45.06 M235.92 80.53 C243.55 71.46, 252.37 62.27, 266.76 45.06" stroke="#ffb86c" stroke-width="2" fill="none"></path><path d="M19 0 M19 0 C82.64 -2.53, 147.2 -0.45, 240 0 M19 0 C86.35 0.63, 154.91 0.35, 240 0 M240 0 C251.41 -1.52, 260.07 6.24, 259 19 M240 0 C253.2 -1.05, 257.44 5.5, 259 19 M259 19 C259.89 29.83, 256.87 40.92, 259 57 M259 19 C259.37 26.51, 259.12 35.58, 259 57 M259 57 C257.3 70.27, 251.96 76.26, 240 76 M259 57 C256.79 69.42, 254.3 74.83, 240 76 M240 76 C162.67 78.27, 85.77 76.87, 19 76 M240 76 C172.04 74.53, 102.36 75.1, 19 76 M19 76 C4.73 75.58, 1.01 68.64, 0 57 M19 76 C7.29 75.42, -0.1 68.9, 0 57 M0 57 C-0.76 46.81, 1.3 36.35, 0 19 M0 57 C0.83 42.2, 0.28 28.32, 0 19 M0 19 C-1.75 6.53, 5.01 0.18, 19 0 M0 19 C-0.98 7.53, 5.49 1.17, 19 0" stroke="#f8f8f2" stroke-width="4" fill="none"></path></g><g transform="translate(426.28125 106.19999999999999) rotate(0 49.21875 16.80000000000001)"><text x="49.21875" y="0" font-family="Cascadia, Segoe UI Emoji" font-size="28px" fill="#f8f8f2" text-anchor="middle" style="white-space: pre;" direction="ltr" dominant-baseline="text-before-edge">hidden</text></g><g stroke-linecap="round" transform="translate(23 149) rotate(0 129.5 38)"><path d="M2.57 7.54 C2.57 7.54, 2.57 7.54, 2.57 7.54 M2.57 7.54 C2.57 7.54, 2.57 7.54, 2.57 7.54 M10.06 23.32 C15.53 18.49, 17.15 12.94, 25.14 5.96 M10.06 23.32 C14.8 17.31, 20.16 11.4, 25.14 5.96 M10.32 47.4 C25.35 31.86, 39.6 13.67, 46.4 5.89 M10.32 47.4 C22.55 33.32, 34.42 17.95, 46.4 5.89 M7.96 74.5 C28.99 50.02, 51.72 23.89, 67.67 5.82 M7.96 74.5 C22.41 58.32, 36.04 43.28, 67.67 5.82 M23.98 80.47 C47.86 50.5, 74.72 23.63, 88.93 5.75 M23.98 80.47 C40.41 61.15, 56.98 41.24, 88.93 5.75 M45.24 80.4 C62.64 62.38, 79.62 42.65, 110.19 5.68 M45.24 80.4 C64.4 58.32, 82.72 37.19, 110.19 5.68 M66.5 80.33 C83.75 58.69, 100.38 41.06, 131.45 5.61 M66.5 80.33 C83.8 59.32, 101.99 37.56, 131.45 5.61 M87.76 80.26 C109.42 59.27, 126.21 34.64, 152.71 5.54 M87.76 80.26 C100.68 65.89, 113.87 49.4, 152.71 5.54 M109.02 80.19 C131.93 52.94, 157.35 26.34, 173.97 5.47 M109.02 80.19 C132.68 53.15, 156.3 26.68, 173.97 5.47 M130.28 80.12 C156.69 50.67, 180.86 19.86, 195.23 5.41 M130.28 80.12 C149.61 59.61, 168.01 37.57, 195.23 5.41 M151.54 80.05 C177.84 49.94, 199.92 21.51, 216.49 5.34 M151.54 80.05 C170.42 59.58, 187.71 39.86, 216.49 5.34 M172.14 80.74 C192.78 60.79, 210.15 37.35, 241.03 1.49 M172.14 80.74 C190.67 59.33, 210.05 37.12, 241.03 1.49 M193.4 80.67 C209.57 60.11, 227.77 40.85, 257.04 7.46 M193.4 80.67 C218.84 51.05, 243.32 23.14, 257.04 7.46 M214.66 80.6 C227.59 67.16, 238.83 51.26, 266.49 20.98 M214.66 80.6 C229.95 63.31, 244.05 48.63, 266.49 20.98 M235.92 80.53 C243.78 71.08, 252.28 59, 266.76 45.06 M235.92 80.53 C245.67 69.9, 255.8 57.89, 266.76 45.06" stroke="#ffb86c" stroke-width="2" fill="none"></path><path d="M19 0 M19 0 C106.08 2.16, 191.68 0.27, 240 0 M19 0 C74.93 0.11, 128.92 0.06, 240 0 M240 0 C253.74 -0.1, 259.46 5.42, 259 19 M240 0 C251.1 -0.83, 258.37 4.58, 259 19 M259 19 C257.39 33.73, 257.43 44.19, 259 57 M259 19 C259.75 30.67, 258.43 41.42, 259 57 M259 57 C258.29 69.93, 250.74 75.78, 240 76 M259 57 C260.63 68.5, 253.77 77.96, 240 76 M240 76 C157.26 76.45, 75.42 75.41, 19 76 M240 76 C186.78 75.69, 134.34 75.22, 19 76 M19 76 C7.35 74.97, 0.83 69.17, 0 57 M19 76 C6.23 75.23, -0.08 71.84, 0 57 M0 57 C1.74 50.47, 1.83 39.67, 0 19 M0 57 C-0.09 42.89, -1.16 27.3, 0 19 M0 19 C-1.32 6.51, 5.48 1.04, 19 0 M0 19 C-0.84 7.5, 7.48 1.01, 19 0" stroke="#f8f8f2" stroke-width="4" fill="none"></path></g><g transform="translate(86.875 170.2) rotate(0 65.625 16.80000000000001)"><text x="65.625" y="0" font-family="Cascadia, Segoe UI Emoji" font-size="28px" fill="#f8f8f2" text-anchor="middle" style="white-space: pre;" direction="ltr" dominant-baseline="text-before-edge">combined</text></g><g stroke-linecap="round" transform="translate(17.5 278) rotate(0 128.5 44)"><path d="M7.85 45.25 C7.85 45.25, 7.85 45.25, 7.85 45.25 M7.85 45.25 C7.85 45.25, 7.85 45.25, 7.85 45.25 M20.58 54.99 C21.71 51.97, 24.46 52.07, 29.76 44.42 M20.58 54.99 C24.48 50.53, 28.08 47.15, 29.76 44.42 M37.25 60.2 C44.26 51.77, 49.13 46.13, 59.55 34.54 M37.25 60.2 C44.86 49.74, 54.85 41.15, 59.55 34.54 M53.91 65.42 C67.09 50.59, 78.23 36.6, 90 23.91 M53.91 65.42 C63.27 55.54, 72.95 44.31, 90 23.91 M69.93 71.39 C86.64 54.38, 102.13 35.81, 126.35 6.48 M69.93 71.39 C82.46 56.05, 95.56 41.62, 126.35 6.48 M86.59 76.6 C102.54 59.33, 115.69 42.74, 143.67 10.94 M86.59 76.6 C103.16 57.49, 119.95 37.31, 143.67 10.94 M103.26 81.81 C126.53 55.51, 149.9 27.86, 162.96 13.14 M103.26 81.81 C123.22 57.72, 144.51 34.84, 162.96 13.14 M119.27 87.78 C130.63 71.56, 143.77 55, 179.63 18.35 M119.27 87.78 C133.4 70.11, 149.19 53.73, 179.63 18.35 M136.6 92.24 C158.86 68.57, 182.28 40.59, 195.64 24.32 M136.6 92.24 C159.82 66.39, 183.52 38.8, 195.64 24.32 M157.86 92.17 C169.91 75.49, 183.82 61.14, 211.65 30.29 M157.86 92.17 C169.29 78.5, 181.57 66.02, 211.65 30.29 M187.65 82.29 C198.81 67, 212.08 52.69, 227.67 36.26 M187.65 82.29 C198.6 70.28, 208.98 57.77, 227.67 36.26 M228.59 59.58 C231.12 56.67, 234.39 51.5, 243.68 42.22 M228.59 59.58 C235.02 52.48, 239.61 46.62, 243.68 42.22" stroke="#ff79c6" stroke-width="2" fill="none"></path><path d="M161.25 11.25 M161.25 11.25 C175.45 15.54, 190.99 23.45, 224.75 33.75 M161.25 11.25 C179.84 18.9, 197.82 23.82, 224.75 33.75 M224.75 33.75 C257.54 45.4, 257.5 44.65, 224.75 56.25 M224.75 33.75 C255.16 44.47, 256.13 44.35, 224.75 56.25 M224.75 56.25 C202.91 63.6, 177.17 72.95, 161.25 76.75 M224.75 56.25 C206.95 61.7, 189.99 67.47, 161.25 76.75 M161.25 76.75 C128.15 89.64, 128.77 88.23, 96.75 76.75 M161.25 76.75 C131.08 87.91, 127.94 89.05, 96.75 76.75 M96.75 76.75 C71.62 68.27, 47.75 62.79, 32.25 56.25 M96.75 76.75 C82.61 71.51, 67.5 66.39, 32.25 56.25 M32.25 56.25 C-1.36 44.28, -0.55 43.47, 32.25 33.75 M32.25 56.25 C1.29 46.36, 0.54 42.89, 32.25 33.75 M32.25 33.75 C55.5 27.7, 77.96 19.1, 96.75 11.25 M32.25 33.75 C55.37 25.57, 78.04 17.21, 96.75 11.25 M96.75 11.25 C130.42 -1.02, 129.96 1.7, 161.25 11.25 M96.75 11.25 C130.67 -0.54, 130.17 -0.48, 161.25 11.25" stroke="#f8f8f2" stroke-width="4" fill="none"></path></g><g transform="translate(121.640625 305.2) rotate(0 24.609375 16.799999999999983)"><text x="24.609375" y="0" font-family="Cascadia, Segoe UI Emoji" font-size="28px" fill="#f8f8f2" text-anchor="middle" style="white-space: pre;" direction="ltr" dominant-baseline="text-before-edge">i2o</text></g><g stroke-linecap="round" transform="translate(346 278) rotate(0 128.5 44)"><path d="M7.85 45.25 C7.85 45.25, 7.85 45.25, 7.85 45.25 M7.85 45.25 C7.85 45.25, 7.85 45.25, 7.85 45.25 M20.58 54.99 C23.48 53.39, 26.89 49.23, 29.76 44.42 M20.58 54.99 C23.52 52.37, 25.01 49.91, 29.76 44.42 M37.25 60.2 C44.87 51.22, 52.53 43.6, 59.55 34.54 M37.25 60.2 C45.82 51.93, 53.38 42.41, 59.55 34.54 M53.91 65.42 C65.15 51.61, 78.23 37.86, 90 23.91 M53.91 65.42 C63.97 54.43, 72.28 42.97, 90 23.91 M69.93 71.39 C83.63 55.88, 97.46 37.63, 126.35 6.48 M69.93 71.39 C85.91 53.25, 102.06 35.09, 126.35 6.48 M86.59 76.6 C105.06 55, 124.34 33.41, 143.67 10.94 M86.59 76.6 C101.45 58.69, 117.91 41.66, 143.67 10.94 M103.26 81.81 C116.22 66.17, 130.68 49.24, 162.96 13.14 M103.26 81.81 C122.78 60.33, 140.73 39.77, 162.96 13.14 M119.27 87.78 C140.29 60.77, 163.39 34.83, 179.63 18.35 M119.27 87.78 C140.91 64.04, 161.36 40.51, 179.63 18.35 M136.6 92.24 C158.03 67.64, 178.76 45.3, 195.64 24.32 M136.6 92.24 C157.53 68.27, 176.16 45.69, 195.64 24.32 M157.86 92.17 C173.24 74.19, 187.13 58.08, 211.65 30.29 M157.86 92.17 C176.94 71.85, 194.56 51.05, 211.65 30.29 M187.65 82.29 C196.85 70.92, 206.33 62.43, 227.67 36.26 M187.65 82.29 C198.47 69.83, 208.98 57.17, 227.67 36.26 M228.59 59.58 C234.02 52.21, 242.16 45.43, 243.68 42.22 M228.59 59.58 C233.25 53.9, 237.88 47.5, 243.68 42.22" stroke="#ff79c6" stroke-width="2" fill="none"></path><path d="M161.25 11.25 M161.25 11.25 C177.68 18.57, 189.97 23.33, 224.75 33.75 M161.25 11.25 C176.44 15.51, 193.3 22.23, 224.75 33.75 M224.75 33.75 C257.5 44.65, 255.4 44.54, 224.75 56.25 M224.75 33.75 C256.13 44.35, 258.61 42.89, 224.75 56.25 M224.75 56.25 C202.76 64.37, 180.66 70.64, 161.25 76.75 M224.75 56.25 C206.55 62.37, 190.07 68.19, 161.25 76.75 M161.25 76.75 C128.77 88.23, 130.81 87.93, 96.75 76.75 M161.25 76.75 C127.94 89.05, 130.7 88.14, 96.75 76.75 M96.75 76.75 C79.04 72.74, 61.3 64.45, 32.25 56.25 M96.75 76.75 C82.41 71.67, 67.05 67.17, 32.25 56.25 M32.25 56.25 C-0.55 43.47, 1.12 46.18, 32.25 33.75 M32.25 56.25 C0.54 42.89, 1.38 42.93, 32.25 33.75 M32.25 33.75 C44.66 29.58, 60.15 22.29, 96.75 11.25 M32.25 33.75 C52.65 26.13, 75.6 18.31, 96.75 11.25 M96.75 11.25 C129.96 1.7, 130.45 -0.47, 161.25 11.25 M96.75 11.25 C130.17 -0.48, 128.31 0.22, 161.25 11.25" stroke="#f8f8f2" stroke-width="4" fill="none"></path></g><g transform="translate(450.140625 305.2) rotate(0 24.609375 16.799999999999983)"><text x="24.609375" y="0" font-family="Cascadia, Segoe UI Emoji" font-size="28px" fill="#f8f8f2" text-anchor="middle" style="white-space: pre;" direction="ltr" dominant-baseline="text-before-edge">i2h</text></g><g stroke-linecap="round" transform="translate(13 418) rotate(0 128.5 44)"><path d="M7.85 45.25 C7.85 45.25, 7.85 45.25, 7.85 45.25 M7.85 45.25 C7.85 45.25, 7.85 45.25, 7.85 45.25 M20.58 54.99 C23.8 52.56, 24.37 50.84, 29.76 44.42 M20.58 54.99 C22.22 53.01, 24.74 50.74, 29.76 44.42 M37.25 60.2 C43.17 54.39, 46.99 48.21, 59.55 34.54 M37.25 60.2 C42.78 53.88, 47.92 48.37, 59.55 34.54 M53.91 65.42 C64.19 54.27, 75.15 41.13, 90 23.91 M53.91 65.42 C66.35 49.8, 78.98 35.66, 90 23.91 M69.93 71.39 C89.73 46.78, 111.75 21.72, 126.35 6.48 M69.93 71.39 C84.3 55.16, 99.53 38.73, 126.35 6.48 M86.59 76.6 C103.62 57.74, 119.98 37.01, 143.67 10.94 M86.59 76.6 C106.4 55.42, 123.29 33.86, 143.67 10.94 M103.26 81.81 C123 58.31, 141.32 36.69, 162.96 13.14 M103.26 81.81 C116.17 66.97, 131.37 49.62, 162.96 13.14 M119.27 87.78 C135.95 66.84, 155.21 47.02, 179.63 18.35 M119.27 87.78 C131.97 73.09, 144.12 59.47, 179.63 18.35 M136.6 92.24 C161.09 65.85, 183.25 39.76, 195.64 24.32 M136.6 92.24 C157.96 66.75, 180.92 40.06, 195.64 24.32 M157.86 92.17 C168.08 79.52, 182.43 65.36, 211.65 30.29 M157.86 92.17 C172.75 75.19, 187.19 56.2, 211.65 30.29 M187.65 82.29 C197.35 72.54, 207.57 59.97, 227.67 36.26 M187.65 82.29 C200.9 66.73, 216.71 49.53, 227.67 36.26 M228.59 59.58 C235.44 53.27, 240 48.94, 243.68 42.22 M228.59 59.58 C231.56 54.88, 235.36 51.18, 243.68 42.22" stroke="#bd93f9" stroke-width="2" fill="none"></path><path d="M161.25 11.25 M161.25 11.25 C176.83 17.67, 191.52 21.41, 224.75 33.75 M161.25 11.25 C185.28 20.49, 209.18 28.59, 224.75 33.75 M224.75 33.75 C255.4 44.54, 256.24 44.43, 224.75 56.25 M224.75 33.75 C258.61 42.89, 258 47.14, 224.75 56.25 M224.75 56.25 C206.61 62.75, 189.21 66.03, 161.25 76.75 M224.75 56.25 C203.9 63.92, 183.97 69.74, 161.25 76.75 M161.25 76.75 C130.81 87.93, 128.08 88.91, 96.75 76.75 M161.25 76.75 C130.7 88.14, 128.19 86.85, 96.75 76.75 M96.75 76.75 C77.96 70.46, 60.39 67.24, 32.25 56.25 M96.75 76.75 C76.98 70.04, 58.35 63.59, 32.25 56.25 M32.25 56.25 C1.12 46.18, 0.47 43.16, 32.25 33.75 M32.25 56.25 C1.38 42.93, -2.15 44.79, 32.25 33.75 M32.25 33.75 C57.6 23.37, 81 15.98, 96.75 11.25 M32.25 33.75 C53.38 26.27, 73.35 20.58, 96.75 11.25 M96.75 11.25 C130.45 -0.47, 130.02 -0.42, 161.25 11.25 M96.75 11.25 C128.31 0.22, 126.92 -1.44, 161.25 11.25" stroke="#f8f8f2" stroke-width="4" fill="none"></path></g><g transform="translate(84.328125 445.20000000000005) rotate(0 57.421875 16.80000000000001)"><text x="57.421875" y="0" font-family="Cascadia, Segoe UI Emoji" font-size="28px" fill="#f8f8f2" text-anchor="middle" style="white-space: pre;" direction="ltr" dominant-baseline="text-before-edge">softmax</text></g><g stroke-linecap="round" transform="translate(10 554) rotate(0 129.5 38)"><path d="M2.57 7.54 C2.57 7.54, 2.57 7.54, 2.57 7.54 M2.57 7.54 C2.57 7.54, 2.57 7.54, 2.57 7.54 M10.06 23.32 C15.14 17.76, 20.35 11.31, 25.14 5.96 M10.06 23.32 C15 18.57, 18.61 12.77, 25.14 5.96 M10.32 47.4 C19.56 35.75, 25.98 28.91, 46.4 5.89 M10.32 47.4 C22.89 33.51, 34.69 18.56, 46.4 5.89 M7.96 74.5 C27.54 51.83, 49.64 29.62, 67.67 5.82 M7.96 74.5 C25.28 54.62, 44.1 33.92, 67.67 5.82 M23.98 80.47 C48.62 51.34, 72.47 23.39, 88.93 5.75 M23.98 80.47 C44.99 57.45, 64.98 33.21, 88.93 5.75 M45.24 80.4 C65.33 55.9, 87.32 31.54, 110.19 5.68 M45.24 80.4 C60.94 60.48, 79.06 40.63, 110.19 5.68 M66.5 80.33 C85.04 57.7, 101.89 38.42, 131.45 5.61 M66.5 80.33 C85.41 58.75, 102.19 38.3, 131.45 5.61 M87.76 80.26 C104.17 61.8, 116.7 47.22, 152.71 5.54 M87.76 80.26 C101.84 64.33, 116.55 48.71, 152.71 5.54 M109.02 80.19 C125.78 61.56, 143.21 43.9, 173.97 5.47 M109.02 80.19 C126.61 59.6, 143.3 40.01, 173.97 5.47 M130.28 80.12 C148.7 60.57, 164.55 42.48, 195.23 5.41 M130.28 80.12 C153.16 51.79, 176.95 24.88, 195.23 5.41 M151.54 80.05 C168.65 60.36, 187.39 39.29, 216.49 5.34 M151.54 80.05 C176.42 52.45, 199.23 25.66, 216.49 5.34 M172.14 80.74 C191.66 60.09, 209.15 35.7, 241.03 1.49 M172.14 80.74 C193.54 56.47, 215.21 32.55, 241.03 1.49 M193.4 80.67 C217.48 51.17, 245.02 21.27, 257.04 7.46 M193.4 80.67 C206.9 64.9, 219.29 49.38, 257.04 7.46 M214.66 80.6 C226.59 65.47, 243.86 48.47, 266.49 20.98 M214.66 80.6 C229.09 63.71, 242.48 47.46, 266.49 20.98 M235.92 80.53 C243.62 73.26, 248.45 68.13, 266.76 45.06 M235.92 80.53 C245.96 69.94, 254 58.87, 266.76 45.06" stroke="#ffb86c" stroke-width="2" fill="none"></path><path d="M19 0 M19 0 C77.6 -2.62, 137.33 -0.6, 240 0 M19 0 C83.64 0.56, 149.23 0.21, 240 0 M240 0 C253.79 1.18, 259.47 4.5, 259 19 M240 0 C254.05 -2.07, 256.85 6.13, 259 19 M259 19 C260.04 31.46, 259.42 46.6, 259 57 M259 19 C259.35 30.39, 259.12 43.65, 259 57 M259 57 C260.45 69.2, 253.69 75.58, 240 76 M259 57 C258.31 69.89, 250.59 74.56, 240 76 M240 76 C161.83 72.98, 82.11 75.24, 19 76 M240 76 C185.03 75.23, 130.1 76.34, 19 76 M19 76 C4.77 75.6, 1.08 71.33, 0 57 M19 76 C8.51 78.02, -0.55 71.79, 0 57 M0 57 C1.61 41.05, 0.22 27.27, 0 19 M0 57 C-0.2 45.77, 0.66 33.96, 0 19 M0 19 C0.92 5.97, 4.81 -1.69, 19 0 M0 19 C0.28 5.96, 6.51 0.05, 19 0" stroke="#f8f8f2" stroke-width="4" fill="none"></path></g><g transform="translate(90.28125 575.2) rotate(0 49.21875 16.80000000000001)"><text x="49.21875" y="0" font-family="Cascadia, Segoe UI Emoji" font-size="28px" fill="#f8f8f2" text-anchor="middle" style="white-space: pre;" direction="ltr" dominant-baseline="text-before-edge">output</text></g><g stroke-linecap="round" transform="translate(340 490) rotate(0 129.5 38)"><path d="M2.57 7.54 C2.57 7.54, 2.57 7.54, 2.57 7.54 M2.57 7.54 C2.57 7.54, 2.57 7.54, 2.57 7.54 M10.06 23.32 C13.33 19.53, 19.74 11.47, 25.14 5.96 M10.06 23.32 C14.48 17.37, 20.32 11.45, 25.14 5.96 M10.32 47.4 C18.17 38.24, 29.74 27.18, 46.4 5.89 M10.32 47.4 C19.94 35.4, 30.1 24.33, 46.4 5.89 M7.96 74.5 C31.83 50.25, 53 22.41, 67.67 5.82 M7.96 74.5 C22.41 58.68, 35.89 42.91, 67.67 5.82 M23.98 80.47 C42.4 57.83, 62.71 35.87, 88.93 5.75 M23.98 80.47 C46.43 53.74, 69.39 27.65, 88.93 5.75 M45.24 80.4 C68.18 54.23, 89.11 31.41, 110.19 5.68 M45.24 80.4 C65.64 57.65, 85.01 35.62, 110.19 5.68 M66.5 80.33 C78.14 65.95, 92.13 49.15, 131.45 5.61 M66.5 80.33 C90.28 51.74, 114.22 23.95, 131.45 5.61 M87.76 80.26 C100.21 65.32, 115.07 48.56, 152.71 5.54 M87.76 80.26 C102.35 64.86, 114.98 49.06, 152.71 5.54 M109.02 80.19 C129.65 59.74, 146.64 34.55, 173.97 5.47 M109.02 80.19 C129.48 56.04, 151.05 30.98, 173.97 5.47 M130.28 80.12 C151.63 56.44, 175.24 29.79, 195.23 5.41 M130.28 80.12 C155.6 51.08, 181.07 21.95, 195.23 5.41 M151.54 80.05 C177.85 50.52, 203.18 20.26, 216.49 5.34 M151.54 80.05 C175.86 51.7, 199.71 24.52, 216.49 5.34 M172.14 80.74 C190.56 56.82, 211.65 33.08, 241.03 1.49 M172.14 80.74 C190.09 60.98, 209.51 39.28, 241.03 1.49 M193.4 80.67 C219.19 51.89, 239.78 26.31, 257.04 7.46 M193.4 80.67 C212.79 57.11, 233.59 33.62, 257.04 7.46 M214.66 80.6 C236.25 57.8, 253.2 37.48, 266.49 20.98 M214.66 80.6 C227.39 65.07, 241.15 49.5, 266.49 20.98 M235.92 80.53 C243.8 73.24, 251.44 61.37, 266.76 45.06 M235.92 80.53 C245.96 67.76, 256.67 55.63, 266.76 45.06" stroke="#ffb86c" stroke-width="2" fill="none"></path><path d="M19 0 M19 0 C101.7 2.13, 186.95 1.6, 240 0 M19 0 C74.98 0.03, 131.92 1.2, 240 0 M240 0 C253.14 -1.84, 260.2 4.54, 259 19 M240 0 C250.52 -0.21, 260.67 5.25, 259 19 M259 19 C259.83 31.5, 259.5 43.49, 259 57 M259 19 C259.75 30.84, 260 40.74, 259 57 M259 57 C260.02 69.25, 252.06 76.19, 240 76 M259 57 C256.92 68.23, 253.96 75.27, 240 76 M240 76 C192.2 75.34, 144.22 75.19, 19 76 M240 76 C179.21 76.18, 117.8 75.19, 19 76 M19 76 C7.41 77.66, 1.89 71.42, 0 57 M19 76 C5.78 78.12, 1.7 69.53, 0 57 M0 57 C-0.11 43.54, -0.12 31.89, 0 19 M0 57 C0.64 44.07, 0.6 30.08, 0 19 M0 19 C-1.52 4.64, 6.58 -0.32, 19 0 M0 19 C0.18 6.38, 6.05 1.08, 19 0" stroke="#f8f8f2" stroke-width="4" fill="none"></path></g><g transform="translate(420.28125 511.20000000000005) rotate(0 49.21875 16.80000000000001)"><text x="49.21875" y="0" font-family="Cascadia, Segoe UI Emoji" font-size="28px" fill="#f8f8f2" text-anchor="middle" style="white-space: pre;" direction="ltr" dominant-baseline="text-before-edge">hidden</text></g><g stroke-linecap="round"><g transform="translate(153.71606781045512 98) rotate(0 -0.5267076461376519 21.479118244885456)"><path d="M-0.41 0.08 C-0.93 7.33, -2.42 36.82, -2.63 43.89 M1.58 -0.93 C1.36 5.96, 0.14 34.83, -0.54 42.23" stroke="#f8f8f2" stroke-width="4" fill="none"></path></g><g transform="translate(153.71606781045512 98) rotate(0 -0.5267076461376519 21.479118244885456)"><path d="M-6.47 19.61 C-2.99 28.31, -3.31 34.44, -0.17 44.11 M-5.95 20.85 C-3.45 29.52, -2.51 37.77, -0.42 43.02" stroke="#f8f8f2" stroke-width="4" fill="none"></path></g><g transform="translate(153.71606781045512 98) rotate(0 -0.5267076461376519 21.479118244885456)"><path d="M8.22 20.55 C6.67 28.88, 1.32 34.69, -0.17 44.11 M8.74 21.79 C5.7 30.05, 1.11 37.95, -0.42 43.02" stroke="#f8f8f2" stroke-width="4" fill="none"></path></g></g><mask></mask><g stroke-linecap="round"><g transform="translate(333.5 121) rotate(0 -77.68915655420625 3.831963801314089)"><path d="M-1.18 0.89 C-18.32 -1.39, -77.45 -16.77, -103.21 -13.55 C-128.98 -10.33, -147.33 14.48, -155.78 20.22 M0.4 0.3 C-16.88 -1.82, -78.66 -15.86, -104.27 -12.3 C-129.89 -8.75, -144.55 16.47, -153.29 21.66" stroke="#f8f8f2" stroke-width="4" fill="none"></path></g><g transform="translate(333.5 121) rotate(0 -77.68915655420625 3.831963801314089)"><path d="M-138.2 -5.43 C-144.2 0.61, -146.53 10.9, -151.75 21.86 M-138.83 -4.94 C-143.58 2.48, -146.55 9.71, -154.28 22.09" stroke="#f8f8f2" stroke-width="4" fill="none"></path></g><g transform="translate(333.5 121) rotate(0 -77.68915655420625 3.831963801314089)"><path d="M-124.2 9.57 C-133.93 11.49, -139.99 17.78, -151.75 21.86 M-124.83 10.07 C-133.37 13.43, -140.03 16.7, -154.28 22.09" stroke="#f8f8f2" stroke-width="4" fill="none"></path></g></g><mask></mask><g stroke-linecap="round"><g transform="translate(147.7511562596651 233) rotate(0 -1.7541701638262452 20.40019279713337)"><path d="M-0.21 -0.55 C-0.57 6.19, -3.1 34.25, -3.29 41.35 M-1.79 1.77 C-1.65 8.05, -1.03 32.94, -0.99 39.35" stroke="#f8f8f2" stroke-width="4" fill="none"></path></g><g transform="translate(147.7511562596651 233) rotate(0 -1.7541701638262452 20.40019279713337)"><path d="M-9.28 18.81 C-6.36 25.88, -3.71 28.07, -1.72 40.64 M-8.85 20.71 C-6.4 25.24, -5.85 29.24, -1.59 40.12" stroke="#f8f8f2" stroke-width="4" fill="none"></path></g><g transform="translate(147.7511562596651 233) rotate(0 -1.7541701638262452 20.40019279713337)"><path d="M4.81 18.58 C4.89 25.67, 4.71 27.9, -1.72 40.64 M5.24 20.48 C4.5 25.08, 1.86 29.13, -1.59 40.12" stroke="#f8f8f2" stroke-width="4" fill="none"></path></g></g><mask></mask><g stroke-linecap="round"><g transform="translate(164.43205862212585 234.00000000000006) rotate(0 150.49374323982516 18.01191282209888)"><path d="M-0.78 0.22 C49.55 6.44, 251.51 30.87, 301.76 36.73 M1.02 -0.71 C51.31 5.23, 251.57 28.9, 301.41 35.09" stroke="#f8f8f2" stroke-width="4" fill="none"></path></g><g transform="translate(164.43205862212585 234.00000000000006) rotate(0 150.49374323982516 18.01191282209888)"><path d="M272.56 43.78 C282 40.37, 287.98 39.54, 299.94 36.78 M272.31 42.69 C280.39 40.02, 289.95 38.23, 301.01 35.53" stroke="#f8f8f2" stroke-width="4" fill="none"></path></g><g transform="translate(164.43205862212585 234.00000000000006) rotate(0 150.49374323982516 18.01191282209888)"><path d="M275.02 23.41 C283.68 25.72, 288.96 30.65, 299.94 36.78 M274.77 22.31 C281.98 26.05, 290.76 30.64, 301.01 35.53" stroke="#f8f8f2" stroke-width="4" fill="none"></path></g></g><mask></mask><g stroke-linecap="round"><g transform="translate(474.6207693438032 375.4599785648064) rotate(0 -0.9296533046754121 53.386325646454395)"><path d="M1.13 0.92 C0.91 18.4, -1.68 87.81, -2.1 105.1 M0.27 0.36 C-0.04 17.99, -2.65 88.89, -2.99 106.41" stroke="#f8f8f2" stroke-width="4" fill="none"></path></g><g transform="translate(474.6207693438032 375.4599785648064) rotate(0 -0.9296533046754121 53.386325646454395)"><path d="M-10.89 78.13 C-10.88 85.85, -9.4 92.94, -2.72 105.42 M-13.41 78.36 C-9.58 88.9, -5.98 98.84, -3.9 105.73" stroke="#f8f8f2" stroke-width="4" fill="none"></path></g><g transform="translate(474.6207693438032 375.4599785648064) rotate(0 -0.9296533046754121 53.386325646454395)"><path d="M9.63 78.73 C4.81 86.5, 1.45 93.45, -2.72 105.42 M7.1 78.96 C3.53 89.45, -0.26 99.17, -3.9 105.73" stroke="#f8f8f2" stroke-width="4" fill="none"></path></g></g><mask></mask><g stroke-linecap="round"><g transform="translate(612.5 520.806841505131) rotate(0 45.75299317970632 -201.54084297595475)"><path d="M0.12 -0.44 C15.39 -35.37, 92.13 -141.65, 92.78 -208.69 C93.43 -275.72, 19.08 -370.41, 4.01 -402.65 M-1.28 -1.71 C13.81 -36.6, 91.4 -141.03, 92.24 -207.61 C93.08 -274.2, 18.76 -368.47, 3.78 -401.24" stroke="#f8f8f2" stroke-width="4" fill="none"></path></g><g transform="translate(612.5 520.806841505131) rotate(0 45.75299317970632 -201.54084297595475)"><path d="M26.25 -380.92 C16.21 -388, 8.81 -398.19, 4.99 -401 M26.38 -381.44 C17.98 -388.88, 8.68 -397.22, 4.44 -400.84" stroke="#f8f8f2" stroke-width="4" fill="none"></path></g><g transform="translate(612.5 520.806841505131) rotate(0 45.75299317970632 -201.54084297595475)"><path d="M8.59 -370.46 C5.44 -381.69, 5 -395.99, 4.99 -401 M8.72 -370.98 C7.12 -382.47, 4.51 -394.77, 4.44 -400.84" stroke="#f8f8f2" stroke-width="4" fill="none"></path></g></g><mask></mask><g stroke-linecap="round"><g transform="translate(143.5 373.9967959295225) rotate(0 0.411615790322287 20.45251875327375)"><path d="M0.78 -0.88 C0.93 5.88, 1.24 33.23, 1.01 40.16 M-0.27 1.27 C-0.2 8.29, 0.83 35.54, 0.6 41.79" stroke="#f8f8f2" stroke-width="4" fill="none"></path></g><g transform="translate(143.5 373.9967959295225) rotate(0 0.411615790322287 20.45251875327375)"><path d="M-7.85 24.73 C-4.01 27.82, -0.91 34.86, 2.18 39.81 M-6.77 23.48 C-5 28.74, -1.04 36.26, 1.14 41.51" stroke="#f8f8f2" stroke-width="4" fill="none"></path></g><g transform="translate(143.5 373.9967959295225) rotate(0 0.411615790322287 20.45251875327375)"><path d="M5.84 24.63 C5.43 27.84, 4.29 34.92, 2.18 39.81 M6.91 23.39 C3.99 28.78, 3.26 36.33, 1.14 41.51" stroke="#f8f8f2" stroke-width="4" fill="none"></path></g></g><mask></mask><g stroke-linecap="round"><g transform="translate(139.5 513.9693659538711) rotate(0 0.6073630793726466 16.479218053723173)"><path d="M1.01 0.16 C0.79 5.94, -0.45 28.12, -0.59 33.76 M0.09 -0.8 C0.19 4.71, 1.91 26.53, 1.8 32.02" stroke="#f8f8f2" stroke-width="4" fill="none"></path></g><g transform="translate(139.5 513.9693659538711) rotate(0 0.6073630793726466 16.479218053723173)"><path d="M-4.18 15.89 C-1.25 22.45, 1.32 26.19, 2.52 31.03 M-5.15 16.15 C-1.57 22.79, 0.67 28, 2.22 32.14" stroke="#f8f8f2" stroke-width="4" fill="none"></path></g><g transform="translate(139.5 513.9693659538711) rotate(0 0.6073630793726466 16.479218053723173)"><path d="M7.11 15.48 C5.92 22.28, 4.37 26.18, 2.52 31.03 M6.14 15.74 C5.46 22.59, 3.43 27.95, 2.22 32.14" stroke="#f8f8f2" stroke-width="4" fill="none"></path></g></g><mask></mask></svg>