<svg xmlns="http://www.w3.org/2000/svg" width="715.283" height="640" viewBox="0 0 715.283 640">
  <defs>
    <style>
      @font-face{font-family:&quot;Virgil&quot;;src:url(https://excalidraw.com/Virgil.woff2)}@font-face{font-family:&quot;Cascadia&quot;;src:url(https://excalidraw.com/Cascadia.woff2)}
    </style>
  </defs>
  <g fill="none" stroke-linecap="round">
    <path stroke="#ffb86c" stroke-width="2" d="M29.07 17.54s0 0 0 0m0 0s0 0 0 0m7.49 15.78c4.64-5.56 8.33-11.66 15.08-17.36M36.56 33.32c5.02-6.24 12.25-12.14 15.08-17.36M36.82 57.4c9.87-11.41 22.79-26.96 36.08-41.51M36.82 57.4C48.79 42.58 62.19 27.95 72.9 15.89M34.46 84.5c13.88-16.02 31.61-34.16 59.71-68.68M34.46 84.5c15.91-19.42 32.49-37.87 59.71-68.68M50.48 90.47c25.86-26.54 48.99-56.65 64.95-74.72M50.48 90.47c15.65-17.18 30.31-34.31 64.95-74.72M71.74 90.4c18.42-22.64 38.73-44.6 64.95-74.72M71.74 90.4c22.45-26.73 45.41-52.81 64.95-74.72M93 90.33c22.94-26.17 43.87-48.99 64.95-74.72M93 90.33c20.4-22.75 39.77-44.78 64.95-74.72m-43.69 74.65c11.64-14.38 25.63-31.18 64.95-74.72m-64.95 74.72c23.78-28.59 47.72-56.38 64.95-74.72m-43.69 74.65c12.45-14.94 27.31-31.7 64.95-74.72m-64.95 74.72c14.59-15.4 27.22-31.2 64.95-74.72m-43.69 74.65c20.63-20.45 37.62-45.64 64.95-74.71m-64.95 74.71c20.46-24.15 42.03-49.21 64.95-74.71m-43.69 74.64c21.35-23.68 44.96-50.33 64.95-74.71m-64.95 74.71c25.32-29.03 50.79-58.17 64.95-74.71m-44.35 75.4c27.85-31.3 54.7-63.32 68.89-79.25m-68.89 79.25c25.77-30.06 51.1-58.94 68.89-79.25M219.9 90.67c16.93-22.15 36.52-44.15 63.64-73.21M219.9 90.67c16.54-18.18 34.59-38.3 63.64-73.21M241.16 90.6c21.29-23.69 37.45-44.18 51.83-59.62M241.16 90.6c15.65-19.23 32.66-38.37 51.83-59.62m-30.57 59.55c13.6-13.77 22.77-25.15 30.84-35.47m-30.84 35.47c7.2-9.16 15.37-18.3 30.84-35.47"/>
    <path stroke="#f8f8f2" stroke-width="4" d="M45.5 10c57.13 1.79 113.8-.57 221 0m-221 0c76.04-.55 152.43-.44 221 0m0 0c14.27-1.41 17.74 4.82 19 19m-19-19c13.9-.11 19.53 5.28 19 19m0 0c-1.67 9.93 1.04 18.1 0 38m0-38c-.71 7.82.95 15.36 0 38m0 0c.95 13.89-8.03 19.6-19 19m19-19c-.81 12.97-8.54 18.75-19 19m0 0c-80.53 2.18-164.41 1.8-221 0m221 0c-62.42-.35-122.8-.09-221 0m0 0c-14.37.68-20.6-6.75-19-19m19 19c-11.5-1.18-18.04-6.91-19-19m0 0c2.02-12.8-.27-21.39 0-38m0 38c-.6-13.63.38-29.17 0-38m0 0c.39-11.08 4.58-18.81 19-19m-19 19c-1.52-12.46 5.36-17.81 19-19"/>
  </g>
  <text x="41.016" fill="#f8f8f2" dominant-baseline="text-before-edge" font-family="Cascadia, Segoe UI Emoji" font-size="28" style="white-space:pre" text-anchor="middle" transform="translate(114.984 31.2)">input</text>
  <g fill="none" stroke-linecap="round">
    <path stroke="#ffb86c" stroke-width="2" d="M348.57 92.54s0 0 0 0m0 0s0 0 0 0m7.49 15.78c5.24-7.87 11.75-12.19 15.08-17.36m-15.08 17.36c4.88-3.67 7.87-9.21 15.08-17.36m-14.82 41.44c13.74-16.44 27.85-30.35 36.08-41.51m-36.08 41.51c13.49-15.12 27.37-31.18 36.08-41.51m-38.44 68.61c13.78-13.7 24.91-28.16 59.71-68.68m-59.71 68.68c19.14-21.66 38.32-43.24 59.71-68.68m-43.69 74.65c21.89-26.61 42.87-53.02 64.95-74.72m-64.95 74.72c19.69-22.85 38.36-44.7 64.95-74.72m-43.69 74.65c16.62-18.96 33.38-35.88 64.95-74.72m-64.95 74.72c24.47-27.87 48.93-56.1 64.95-74.72m-43.69 74.65c17.49-19.02 36.65-43.62 64.95-74.72m-64.95 74.72c18.43-20.98 36.3-42.73 64.95-74.72m-43.69 74.65c13.17-16.79 28.5-29.04 64.95-74.72m-64.95 74.72c13.75-16.45 27.97-31.91 64.95-74.72m-43.69 74.65c13.72-15.86 28.3-33.33 64.95-74.72m-64.95 74.72c17.46-20.88 36.47-42.75 64.95-74.72m-43.69 74.65c19.68-25.82 41.81-49.12 64.95-74.71m-64.95 74.71c16.54-19.55 33.64-37.08 64.95-74.71m-43.69 74.64c21.65-23.5 42.41-48.39 64.95-74.71m-64.95 74.71c15.89-18.35 32.97-36.55 64.95-74.71m-44.35 75.4c24.24-28.53 48.08-51.9 68.89-79.25m-68.89 79.25c17.95-20.37 36.56-42.06 68.89-79.25m-47.63 79.18c24.51-28.88 47.36-56.19 63.64-73.21m-63.64 73.21c21.56-23.97 41.61-47.65 63.64-73.21m-42.38 73.14c12.68-16.26 29.77-33.46 51.83-59.62m-51.83 59.62c14.74-17 30.45-34.47 51.83-59.62m-30.57 59.55c9.88-10.85 20.17-23.8 30.84-35.47m-30.84 35.47c7.63-9.07 16.45-18.26 30.84-35.47"/>
    <path stroke="#f8f8f2" stroke-width="4" d="M365 85c63.64-2.53 128.2-.45 221 0m-221 0c67.35.63 135.91.35 221 0m0 0c11.41-1.52 20.07 6.24 19 19m-19-19c13.2-1.05 17.44 5.5 19 19m0 0c.89 10.83-2.13 21.92 0 38m0-38c.37 7.51.12 16.58 0 38m0 0c-1.7 13.27-7.04 19.26-19 19m19-19c-2.21 12.42-4.7 17.83-19 19m0 0c-77.33 2.27-154.23.87-221 0m221 0c-67.96-1.47-137.64-.9-221 0m0 0c-14.27-.42-17.99-7.36-19-19m19 19c-11.71-.58-19.1-7.1-19-19m0 0c-.76-10.19 1.3-20.65 0-38m0 38c.83-14.8.28-28.68 0-38m0 0c-1.75-12.47 5.01-18.82 19-19m-19 19c-.98-11.47 5.49-17.83 19-19"/>
  </g>
  <text x="49.219" fill="#f8f8f2" dominant-baseline="text-before-edge" font-family="Cascadia, Segoe UI Emoji" font-size="28" style="white-space:pre" text-anchor="middle" transform="translate(426.281 106.2)">hidden</text>
  <g fill="none" stroke-linecap="round">
    <path stroke="#ffb86c" stroke-width="2" d="M25.57 156.54s0 0 0 0m0 0s0 0 0 0m7.49 15.78c5.47-4.83 7.09-10.38 15.08-17.36m-15.08 17.36c4.74-6.01 10.1-11.92 15.08-17.36M33.32 196.4c15.03-15.54 29.28-33.73 36.08-41.51M33.32 196.4c12.23-14.08 24.1-29.45 36.08-41.51M30.96 223.5c21.03-24.48 43.76-50.61 59.71-68.68M30.96 223.5c14.45-16.18 28.08-31.22 59.71-68.68m-43.69 74.65c23.88-29.97 50.74-56.84 64.95-74.72m-64.95 74.72c16.43-19.32 33-39.23 64.95-74.72M68.24 229.4c17.4-18.02 34.38-37.75 64.95-74.72M68.24 229.4c19.16-22.08 37.48-43.21 64.95-74.72M89.5 229.33c17.25-21.64 33.88-39.27 64.95-74.72M89.5 229.33c17.3-21.01 35.49-42.77 64.95-74.72m-43.69 74.65c21.66-20.99 38.45-45.62 64.95-74.72m-64.95 74.72c12.92-14.37 26.11-30.86 64.95-74.72m-43.69 74.65c22.91-27.25 48.33-53.85 64.95-74.72m-64.95 74.72c23.66-27.04 47.28-53.51 64.95-74.72m-43.69 74.65c26.41-29.45 50.58-60.26 64.95-74.71m-64.95 74.71c19.33-20.51 37.73-42.55 64.95-74.71m-43.69 74.64c26.3-30.11 48.38-58.54 64.95-74.71m-64.95 74.71c18.88-20.47 36.17-40.19 64.95-74.71m-44.35 75.4c20.64-19.95 38.01-43.39 68.89-79.25m-68.89 79.25c18.53-21.41 37.91-43.62 68.89-79.25m-47.63 79.18c16.17-20.56 34.37-39.82 63.64-73.21m-63.64 73.21c25.44-29.62 49.92-57.53 63.64-73.21m-42.38 73.14c12.93-13.44 24.17-29.34 51.83-59.62m-51.83 59.62c15.29-17.29 29.39-31.97 51.83-59.62m-30.57 59.55c7.86-9.45 16.36-21.53 30.84-35.47m-30.84 35.47c9.75-10.63 19.88-22.64 30.84-35.47"/>
    <path stroke="#f8f8f2" stroke-width="4" d="M42 149c87.08 2.16 172.68.27 221 0m-221 0c55.93.11 109.92.06 221 0m0 0c13.74-.1 19.46 5.42 19 19m-19-19c11.1-.83 18.37 4.58 19 19m0 0c-1.61 14.73-1.57 25.19 0 38m0-38c.75 11.67-.57 22.42 0 38m0 0c-.71 12.93-8.26 18.78-19 19m19-19c1.63 11.5-5.23 20.96-19 19m0 0c-82.74.45-164.58-.59-221 0m221 0c-53.22-.31-105.66-.78-221 0m0 0c-11.65-1.03-18.17-6.83-19-19m19 19c-12.77-.77-19.08-4.16-19-19m0 0c1.74-6.53 1.83-17.33 0-38m0 38c-.09-14.11-1.16-29.7 0-38m0 0c-1.32-12.49 5.48-17.96 19-19m-19 19c-.84-11.5 7.48-17.99 19-19"/>
  </g>
  <text x="65.625" fill="#f8f8f2" dominant-baseline="text-before-edge" font-family="Cascadia, Segoe UI Emoji" font-size="28" style="white-space:pre" text-anchor="middle" transform="translate(86.875 170.2)">combined</text>
  <g fill="none" stroke-linecap="round">
    <path stroke="#ff79c6" stroke-width="2" d="M25.35 323.25s0 0 0 0m0 0s0 0 0 0m12.73 9.74c1.13-3.02 3.88-2.92 9.18-10.57m-9.18 10.57c3.9-4.46 7.5-7.84 9.18-10.57m7.49 15.78c7.01-8.43 11.88-14.07 22.3-25.66m-22.3 25.66c7.61-10.46 17.6-19.05 22.3-25.66m-5.64 30.88c13.18-14.83 24.32-28.82 36.09-41.51m-36.09 41.51c9.36-9.88 19.04-21.11 36.09-41.51m-20.07 47.48c16.71-17.01 32.2-35.58 56.42-64.91m-56.42 64.91c12.53-15.34 25.63-29.77 56.42-64.91m-39.76 70.12c15.95-17.27 29.1-33.86 57.08-65.66m-57.08 65.66c16.57-19.11 33.36-39.29 57.08-65.66m-40.41 70.87c23.27-26.3 46.64-53.95 59.7-68.67m-59.7 68.67c19.96-24.09 41.25-46.97 59.7-68.67m-43.69 74.64c11.36-16.22 24.5-32.78 60.36-69.43m-60.36 69.43c14.13-17.67 29.92-34.05 60.36-69.43m-43.03 73.89c22.26-23.67 45.68-51.65 59.04-67.92m-59.04 67.92c23.22-25.85 46.92-53.44 59.04-67.92m-37.78 67.85c12.05-16.68 25.96-31.03 53.79-61.88m-53.79 61.88c11.43-13.67 23.71-26.15 53.79-61.88m-24 52c11.16-15.29 24.43-29.6 40.02-46.03m-40.02 46.03c10.95-12.01 21.33-24.52 40.02-46.03m.92 23.32c2.53-2.91 5.8-8.08 15.09-17.36m-15.09 17.36c6.43-7.1 11.02-12.96 15.09-17.36"/>
    <path stroke="#f8f8f2" stroke-width="4" d="M178.75 289.25c14.2 4.29 29.74 12.2 63.5 22.5m-63.5-22.5c18.59 7.65 36.57 12.57 63.5 22.5m0 0c32.79 11.65 32.75 10.9 0 22.5m0-22.5c30.41 10.72 31.38 10.6 0 22.5m0 0c-21.84 7.35-47.58 16.7-63.5 20.5m63.5-20.5c-17.8 5.45-34.76 11.22-63.5 20.5m0 0c-33.1 12.89-32.48 11.48-64.5 0m64.5 0c-30.17 11.16-33.31 12.3-64.5 0m0 0c-25.13-8.48-49-13.96-64.5-20.5m64.5 20.5c-14.14-5.24-29.25-10.36-64.5-20.5m0 0c-33.61-11.97-32.8-12.78 0-22.5m0 22.5c-30.96-9.89-31.71-13.36 0-22.5m0 0c23.25-6.05 45.71-14.65 64.5-22.5m-64.5 22.5c23.12-8.18 45.79-16.54 64.5-22.5m0 0c33.67-12.27 33.21-9.55 64.5 0m-64.5 0c33.92-11.79 33.42-11.73 64.5 0"/>
  </g>
  <text x="24.609" fill="#f8f8f2" dominant-baseline="text-before-edge" font-family="Cascadia, Segoe UI Emoji" font-size="28" style="white-space:pre" text-anchor="middle" transform="translate(121.64 305.2)">i2o</text>
  <g fill="none" stroke-linecap="round">
    <path stroke="#ff79c6" stroke-width="2" d="M353.85 323.25s0 0 0 0m0 0s0 0 0 0m12.73 9.74c2.9-1.6 6.31-5.76 9.18-10.57m-9.18 10.57c2.94-2.62 4.43-5.08 9.18-10.57m7.49 15.78c7.62-8.98 15.28-16.6 22.3-25.66m-22.3 25.66c8.57-8.27 16.13-17.79 22.3-25.66m-5.64 30.88c11.24-13.81 24.32-27.56 36.09-41.51m-36.09 41.51c10.06-10.99 18.37-22.45 36.09-41.51m-20.07 47.48c13.7-15.51 27.53-33.76 56.42-64.91m-56.42 64.91c15.98-18.14 32.13-36.3 56.42-64.91m-39.76 70.12c18.47-21.6 37.75-43.19 57.08-65.66m-57.08 65.66c14.86-17.91 31.32-34.94 57.08-65.66m-40.41 70.87c12.96-15.64 27.42-32.57 59.7-68.67m-59.7 68.67c19.52-21.48 37.47-42.04 59.7-68.67m-43.69 74.64c21.02-27.01 44.12-52.95 60.36-69.43m-60.36 69.43c21.64-23.74 42.09-47.27 60.36-69.43m-43.03 73.89c21.43-24.6 42.16-46.94 59.04-67.92m-59.04 67.92c20.93-23.97 39.56-46.55 59.04-67.92m-37.78 67.85c15.38-17.98 29.27-34.09 53.79-61.88m-53.79 61.88c19.08-20.32 36.7-41.12 53.79-61.88m-24 52c9.2-11.37 18.68-19.86 40.02-46.03m-40.02 46.03c10.82-12.46 21.33-25.12 40.02-46.03m.92 23.32c5.43-7.37 13.57-14.15 15.09-17.36m-15.09 17.36c4.66-5.68 9.29-12.08 15.09-17.36"/>
    <path stroke="#f8f8f2" stroke-width="4" d="M507.25 289.25c16.43 7.32 28.72 12.08 63.5 22.5m-63.5-22.5c15.19 4.26 32.05 10.98 63.5 22.5m0 0c32.75 10.9 30.65 10.79 0 22.5m0-22.5c31.38 10.6 33.86 9.14 0 22.5m0 0c-21.99 8.12-44.09 14.39-63.5 20.5m63.5-20.5c-18.2 6.12-34.68 11.94-63.5 20.5m0 0c-32.48 11.48-30.44 11.18-64.5 0m64.5 0c-33.31 12.3-30.55 11.39-64.5 0m0 0c-17.71-4.01-35.45-12.3-64.5-20.5m64.5 20.5c-14.34-5.08-29.7-9.58-64.5-20.5m0 0c-32.8-12.78-31.13-10.07 0-22.5m0 22.5c-31.71-13.36-30.87-13.32 0-22.5m0 0c12.41-4.17 27.9-11.46 64.5-22.5m-64.5 22.5c20.4-7.62 43.35-15.44 64.5-22.5m0 0c33.21-9.55 33.7-11.72 64.5 0m-64.5 0c33.42-11.73 31.56-11.03 64.5 0"/>
  </g>
  <text x="24.609" fill="#f8f8f2" dominant-baseline="text-before-edge" font-family="Cascadia, Segoe UI Emoji" font-size="28" style="white-space:pre" text-anchor="middle" transform="translate(450.14 305.2)">i2h</text>
  <g fill="none" stroke-linecap="round">
    <path stroke="#bd93f9" stroke-width="2" d="M20.85 463.25s0 0 0 0m0 0s0 0 0 0m12.73 9.74c3.22-2.43 3.79-4.15 9.18-10.57m-9.18 10.57c1.64-1.98 4.16-4.25 9.18-10.57m7.49 15.78c5.92-5.81 9.74-11.99 22.3-25.66m-22.3 25.66c5.53-6.32 10.67-11.83 22.3-25.66m-5.64 30.88c10.28-11.15 21.24-24.29 36.09-41.51m-36.09 41.51c12.44-15.62 25.07-29.76 36.09-41.51m-20.07 47.48c19.8-24.61 41.82-49.67 56.42-64.91m-56.42 64.91c14.37-16.23 29.6-32.66 56.42-64.91M99.59 494.6c17.03-18.86 33.39-39.59 57.08-65.66M99.59 494.6c19.81-21.18 36.7-42.74 57.08-65.66m-40.41 70.87c19.74-23.5 38.06-45.12 59.7-68.67m-59.7 68.67c12.91-14.84 28.11-32.19 59.7-68.67m-43.69 74.64c16.68-20.94 35.94-40.76 60.36-69.43m-60.36 69.43c12.7-14.69 24.85-28.31 60.36-69.43m-43.03 73.89c24.49-26.39 46.65-52.48 59.04-67.92m-59.04 67.92c21.36-25.49 44.32-52.18 59.04-67.92m-37.78 67.85c10.22-12.65 24.57-26.81 53.79-61.88m-53.79 61.88c14.89-16.98 29.33-35.97 53.79-61.88m-24 52c9.7-9.75 19.92-22.32 40.02-46.03m-40.02 46.03c13.25-15.56 29.06-32.76 40.02-46.03m.92 23.32c6.85-6.31 11.41-10.64 15.09-17.36m-15.09 17.36c2.97-4.7 6.77-8.4 15.09-17.36"/>
    <path stroke="#f8f8f2" stroke-width="4" d="M174.25 429.25c15.58 6.42 30.27 10.16 63.5 22.5m-63.5-22.5c24.03 9.24 47.93 17.34 63.5 22.5m0 0c30.65 10.79 31.49 10.68 0 22.5m0-22.5c33.86 9.14 33.25 13.39 0 22.5m0 0c-18.14 6.5-35.54 9.78-63.5 20.5m63.5-20.5c-20.85 7.67-40.78 13.49-63.5 20.5m0 0c-30.44 11.18-33.17 12.16-64.5 0m64.5 0c-30.55 11.39-33.06 10.1-64.5 0m0 0c-18.79-6.29-36.36-9.51-64.5-20.5m64.5 20.5c-19.77-6.71-38.4-13.16-64.5-20.5m0 0c-31.13-10.07-31.78-13.09 0-22.5m0 22.5c-30.87-13.32-34.4-11.46 0-22.5m0 0c25.35-10.38 48.75-17.77 64.5-22.5m-64.5 22.5c21.13-7.48 41.1-13.17 64.5-22.5m0 0c33.7-11.72 33.27-11.67 64.5 0m-64.5 0c31.56-11.03 30.17-12.69 64.5 0"/>
  </g>
  <text x="57.422" fill="#f8f8f2" dominant-baseline="text-before-edge" font-family="Cascadia, Segoe UI Emoji" font-size="28" style="white-space:pre" text-anchor="middle" transform="translate(84.328 445.2)">softmax</text>
  <g fill="none" stroke-linecap="round">
    <path stroke="#ffb86c" stroke-width="2" d="M12.57 561.54s0 0 0 0m0 0s0 0 0 0m7.49 15.78c5.08-5.56 10.29-12.01 15.08-17.36m-15.08 17.36c4.94-4.75 8.55-10.55 15.08-17.36M20.32 601.4c9.24-11.65 15.66-18.49 36.08-41.51M20.32 601.4c12.57-13.89 24.37-28.84 36.08-41.51M17.96 628.5c19.58-22.67 41.68-44.88 59.71-68.68M17.96 628.5c17.32-19.88 36.14-40.58 59.71-68.68m-43.69 74.65c24.64-29.13 48.49-57.08 64.95-74.72m-64.95 74.72c21.01-23.02 41-47.26 64.95-74.72M55.24 634.4c20.09-24.5 42.08-48.86 64.95-74.72M55.24 634.4c15.7-19.92 33.82-39.77 64.95-74.72M76.5 634.33c18.54-22.63 35.39-41.91 64.95-74.72M76.5 634.33c18.91-21.58 35.69-42.03 64.95-74.72m-43.69 74.65c16.41-18.46 28.94-33.04 64.95-74.72m-64.95 74.72c14.08-15.93 28.79-31.55 64.95-74.72m-43.69 74.65c16.76-18.63 34.19-36.29 64.95-74.72m-64.95 74.72c17.59-20.59 34.28-40.18 64.95-74.72m-43.69 74.65c18.42-19.55 34.27-37.64 64.95-74.71m-64.95 74.71c22.88-28.33 46.67-55.24 64.95-74.71m-43.69 74.64c17.11-19.69 35.85-40.76 64.95-74.71m-64.95 74.71c24.88-27.6 47.69-54.39 64.95-74.71m-44.35 75.4c19.52-20.65 37.01-45.04 68.89-79.25m-68.89 79.25c21.4-24.27 43.07-48.19 68.89-79.25m-47.63 79.18c24.08-29.5 51.62-59.4 63.64-73.21m-63.64 73.21c13.5-15.77 25.89-31.29 63.64-73.21m-42.38 73.14c11.93-15.13 29.2-32.13 51.83-59.62m-51.83 59.62c14.43-16.89 27.82-33.14 51.83-59.62m-30.57 59.55c7.7-7.27 12.53-12.4 30.84-35.47m-30.84 35.47c10.04-10.59 18.08-21.66 30.84-35.47"/>
    <path stroke="#f8f8f2" stroke-width="4" d="M29 554c58.6-2.62 118.33-.6 221 0m-221 0c64.64.56 130.23.21 221 0m0 0c13.79 1.18 19.47 4.5 19 19m-19-19c14.05-2.07 16.85 6.13 19 19m0 0c1.04 12.46.42 27.6 0 38m0-38c.35 11.39.12 24.65 0 38m0 0c1.45 12.2-5.31 18.58-19 19m19-19c-.69 12.89-8.41 17.56-19 19m0 0c-78.17-3.02-157.89-.76-221 0m221 0c-54.97-.77-109.9.34-221 0m0 0c-14.23-.4-17.92-4.67-19-19m19 19c-10.49 2.02-19.55-4.21-19-19m0 0c1.61-15.95.22-29.73 0-38m0 38c-.2-11.23.66-23.04 0-38m0 0c.92-13.03 4.81-20.69 19-19m-19 19c.28-13.04 6.51-18.95 19-19"/>
  </g>
  <text x="49.219" fill="#f8f8f2" dominant-baseline="text-before-edge" font-family="Cascadia, Segoe UI Emoji" font-size="28" style="white-space:pre" text-anchor="middle" transform="translate(90.281 575.2)">output</text>
  <g fill="none" stroke-linecap="round">
    <path stroke="#ffb86c" stroke-width="2" d="M342.57 497.54s0 0 0 0m0 0s0 0 0 0m7.49 15.78c3.27-3.79 9.68-11.85 15.08-17.36m-15.08 17.36c4.42-5.95 10.26-11.87 15.08-17.36m-14.82 41.44c7.85-9.16 19.42-20.22 36.08-41.51m-36.08 41.51c9.62-12 19.78-23.07 36.08-41.51m-38.44 68.61c23.87-24.25 45.04-52.09 59.71-68.68m-59.71 68.68c14.45-15.82 27.93-31.59 59.71-68.68m-43.69 74.65c18.42-22.64 38.73-44.6 64.95-74.72m-64.95 74.72c22.45-26.73 45.41-52.82 64.95-74.72m-43.69 74.65c22.94-26.17 43.87-48.99 64.95-74.72m-64.95 74.72c20.4-22.75 39.77-44.78 64.95-74.72m-43.69 74.65c11.64-14.38 25.63-31.18 64.95-74.72m-64.95 74.72c23.78-28.59 47.72-56.38 64.95-74.72m-43.69 74.65c12.45-14.94 27.31-31.7 64.95-74.72m-64.95 74.72c14.59-15.4 27.22-31.2 64.95-74.72m-43.69 74.65c20.63-20.45 37.62-45.64 64.95-74.72m-64.95 74.72c20.46-24.15 42.03-49.21 64.95-74.72m-43.69 74.65c21.35-23.68 44.96-50.33 64.95-74.71m-64.95 74.71c25.32-29.04 50.79-58.17 64.95-74.71m-43.69 74.64c26.31-29.53 51.64-59.79 64.95-74.71m-64.95 74.71c24.32-28.35 48.17-55.53 64.95-74.71m-44.35 75.4c18.42-23.92 39.51-47.66 68.89-79.25m-68.89 79.25c17.95-19.76 37.37-41.46 68.89-79.25m-47.63 79.18c25.79-28.78 46.38-54.36 63.64-73.21m-63.64 73.21c19.39-23.56 40.19-47.05 63.64-73.21m-42.38 73.14c21.59-22.8 38.54-43.12 51.83-59.62m-51.83 59.62c12.73-15.53 26.49-31.1 51.83-59.62m-30.57 59.55c7.88-7.29 15.52-19.16 30.84-35.47m-30.84 35.47c10.04-12.77 20.75-24.9 30.84-35.47"/>
    <path stroke="#f8f8f2" stroke-width="4" d="M359 490c82.7 2.13 167.95 1.6 221 0m-221 0c55.98.03 112.92 1.2 221 0m0 0c13.14-1.84 20.2 4.54 19 19m-19-19c10.52-.21 20.67 5.25 19 19m0 0c.83 12.5.5 24.49 0 38m0-38c.75 11.84 1 21.74 0 38m0 0c1.02 12.25-6.94 19.19-19 19m19-19c-2.08 11.23-5.04 18.27-19 19m0 0c-47.8-.66-95.78-.81-221 0m221 0c-60.79.18-122.2-.81-221 0m0 0c-11.59 1.66-17.11-4.58-19-19m19 19c-13.22 2.12-17.3-6.47-19-19m0 0c-.11-13.46-.12-25.11 0-38m0 38c.64-12.93.6-26.92 0-38m0 0c-1.52-14.36 6.58-19.32 19-19m-19 19c.18-12.62 6.05-17.92 19-19"/>
  </g>
  <text x="49.219" fill="#f8f8f2" dominant-baseline="text-before-edge" font-family="Cascadia, Segoe UI Emoji" font-size="28" style="white-space:pre" text-anchor="middle" transform="translate(420.281 511.2)">hidden</text>
  <g fill="none" stroke="#f8f8f2" stroke-linecap="round" stroke-width="4">
    <path d="M153.306 98.08c-.52 7.25-2.01 36.74-2.22 43.81m4.21-44.82c-.22 6.89-1.44 35.76-2.12 43.16"/>
    <path d="M147.246 117.61c3.48 8.7 3.16 14.83 6.3 24.5m-5.78-23.26c2.5 8.67 3.44 16.92 5.53 22.17"/>
    <path d="M161.936 118.55c-1.55 8.33-6.9 14.14-8.39 23.56m8.91-22.32c-3.04 8.26-7.63 16.16-9.16 21.23"/>
  </g>
  <g fill="none" stroke="#f8f8f2" stroke-linecap="round" stroke-width="4">
    <path d="M332.32 121.89c-17.14-2.28-76.27-17.66-102.03-14.44-25.77 3.22-44.12 28.03-52.57 33.77M333.9 121.3c-17.28-2.12-79.06-16.16-104.67-12.6-25.62 3.55-40.28 28.77-49.02 33.96"/>
    <path d="M195.3 115.57c-6 6.04-8.33 16.33-13.55 27.29m12.92-26.8c-4.75 7.42-7.72 14.65-15.45 27.03"/>
    <path d="M209.3 130.57c-9.73 1.92-15.79 8.21-27.55 12.29m26.92-11.79c-8.54 3.36-15.2 6.63-29.45 12.02"/>
  </g>
  <g fill="none" stroke="#f8f8f2" stroke-linecap="round" stroke-width="4">
    <path d="M147.541 232.45c-.36 6.74-2.89 34.8-3.08 41.9m1.5-39.58c.14 6.28.76 31.17.8 37.58"/>
    <path d="M138.471 251.81c2.92 7.07 5.57 9.26 7.56 21.83m-7.13-19.93c2.45 4.53 3 8.53 7.26 19.41m6.4-21.54c.08 7.09-.1 9.32-6.53 22.06m6.96-20.16c-.74 4.6-3.38 8.65-6.83 19.64"/>
  </g>
  <g fill="none" stroke="#f8f8f2" stroke-linecap="round" stroke-width="4">
    <path d="M163.652 234.22c50.33 6.22 252.29 30.65 302.54 36.51m-300.74-37.44c50.29 5.94 250.55 29.61 300.39 35.8"/>
    <path d="M436.992 277.78c9.44-3.41 15.42-4.24 27.38-7m-27.63 5.91c8.08-2.67 17.64-4.46 28.7-7.16"/>
    <path d="M439.452 257.41c8.66 2.31 13.94 7.24 24.92 13.37m-25.17-14.47c7.21 3.74 15.99 8.33 26.24 13.22"/>
  </g>
  <g fill="none" stroke="#f8f8f2" stroke-linecap="round" stroke-width="4">
    <path d="M475.75 376.38c-.22 17.48-2.81 86.89-3.23 104.18m2.37-104.74c-.31 17.63-2.92 88.53-3.26 106.05"/>
    <path d="M463.73 453.59c.01 7.72 1.49 14.81 8.17 27.29m-10.69-27.06c3.83 10.54 7.43 20.48 9.51 27.37"/>
    <path d="M484.25 454.19c-4.82 7.77-8.18 14.72-12.35 26.69m9.82-26.46c-3.57 10.49-7.36 20.21-11 26.77"/>
  </g>
  <g fill="none" stroke="#f8f8f2" stroke-linecap="round" stroke-width="4">
    <path d="M612.62 520.367c15.27-34.93 92.01-141.21 92.66-208.25.65-67.03-73.7-161.72-88.77-193.96m-5.29 400.94c15.09-34.89 92.68-139.32 93.52-205.9.84-66.59-73.48-160.86-88.46-193.63"/>
    <path d="M638.75 139.887c-10.04-7.08-17.44-17.27-21.26-20.08m21.39 19.56c-8.4-7.44-17.7-15.78-21.94-19.4"/>
    <path d="M621.09 150.347c-3.15-11.23-3.59-25.53-3.6-30.54m3.73 30.02c-1.6-11.49-4.21-23.79-4.28-29.86"/>
  </g>
  <g fill="none" stroke="#f8f8f2" stroke-linecap="round" stroke-width="4">
    <path d="M144.28 373.117c.15 6.76.46 34.11.23 41.04m-1.28-38.89c.07 7.02 1.1 34.27.87 40.52"/>
    <path d="M135.65 398.727c3.84 3.09 6.94 10.13 10.03 15.08m-8.95-16.33c1.77 5.26 5.73 12.78 7.91 18.03"/>
    <path d="M149.34 398.627c-.41 3.21-1.55 10.29-3.66 15.18m4.73-16.42c-2.92 5.39-3.65 12.94-5.77 18.12"/>
  </g>
  <g fill="none" stroke="#f8f8f2" stroke-linecap="round" stroke-width="4">
    <path d="M140.51 514.13c-.22 5.78-1.46 27.96-1.6 33.6m.68-34.56c.1 5.51 1.82 27.33 1.71 32.82"/>
    <path d="M135.32 529.86c2.93 6.56 5.5 10.3 6.7 15.14m-7.67-14.88c3.58 6.64 5.82 11.85 7.37 15.99"/>
    <path d="M146.61 529.45c-1.19 6.8-2.74 10.7-4.59 15.55m3.62-15.29c-.68 6.85-2.71 12.21-3.92 16.4"/>
  </g>
</svg>
